%FSLAX25Y25*%
%MOIN*%
G70*
G01*
G75*
G04 Layer_Physical_Order=1*
G04 Layer_Color=255*
%ADD10R,0.05512X0.04331*%
%ADD11R,0.06693X0.04331*%
%ADD12O,0.06496X0.02559*%
%ADD13R,0.08661X0.05906*%
%ADD14O,0.08268X0.01181*%
%ADD15O,0.01181X0.08268*%
%ADD16R,0.04331X0.06693*%
%ADD17R,0.08465X0.01575*%
%ADD18R,0.08465X0.01575*%
%ADD19R,0.05906X0.07480*%
%ADD20R,0.05709X0.02165*%
%ADD21R,0.05709X0.02165*%
%ADD22R,0.10039X0.07284*%
%ADD23R,0.02165X0.05709*%
%ADD24R,0.02165X0.05709*%
%ADD25C,0.03150*%
%ADD26C,0.00598*%
%ADD27C,0.01575*%
%ADD28C,0.01969*%
%ADD29R,0.11811X0.11811*%
%ADD30O,0.04724X0.09843*%
%ADD31O,0.09843X0.04724*%
%ADD32C,0.19685*%
%ADD33R,0.05906X0.05906*%
%ADD34C,0.05906*%
%ADD35C,0.03150*%
%ADD36C,0.05000*%
%ADD37C,0.03937*%
D10*
X295378Y65945D02*
D03*
Y60039D02*
D03*
X277661Y65945D02*
D03*
Y60039D02*
D03*
X259945Y65945D02*
D03*
Y60039D02*
D03*
X242228Y65945D02*
D03*
Y60039D02*
D03*
X224512Y65945D02*
D03*
Y60039D02*
D03*
X206795Y65945D02*
D03*
Y60039D02*
D03*
X189079Y65945D02*
D03*
Y60039D02*
D03*
X171362Y65945D02*
D03*
Y60039D02*
D03*
X153646Y65945D02*
D03*
Y60039D02*
D03*
X135929Y65945D02*
D03*
Y60039D02*
D03*
X118212Y65945D02*
D03*
Y60039D02*
D03*
X100496Y65945D02*
D03*
Y60039D02*
D03*
X295378Y83661D02*
D03*
Y77756D02*
D03*
X277661Y83661D02*
D03*
Y77756D02*
D03*
X259945Y83661D02*
D03*
Y77756D02*
D03*
X242228Y83661D02*
D03*
Y77756D02*
D03*
X224512Y83661D02*
D03*
Y77756D02*
D03*
X206795Y83661D02*
D03*
Y77756D02*
D03*
X189079Y83661D02*
D03*
Y77756D02*
D03*
X171362Y83661D02*
D03*
Y77756D02*
D03*
X153646Y83661D02*
D03*
Y77756D02*
D03*
X135929Y83661D02*
D03*
Y77756D02*
D03*
X118212Y83661D02*
D03*
Y77756D02*
D03*
X100496Y83661D02*
D03*
Y77756D02*
D03*
X295378Y101378D02*
D03*
Y95473D02*
D03*
X277661Y101378D02*
D03*
Y95473D02*
D03*
X259945Y101378D02*
D03*
Y95473D02*
D03*
X242228Y101378D02*
D03*
Y95473D02*
D03*
X224512Y101378D02*
D03*
Y95473D02*
D03*
X206795Y101378D02*
D03*
Y95473D02*
D03*
X189079Y101378D02*
D03*
Y95473D02*
D03*
X171362Y101378D02*
D03*
Y95473D02*
D03*
X153646Y101378D02*
D03*
Y95473D02*
D03*
X135929Y101378D02*
D03*
Y95473D02*
D03*
X118212Y101378D02*
D03*
Y95473D02*
D03*
X100496Y101378D02*
D03*
Y95473D02*
D03*
X295378Y119095D02*
D03*
Y113189D02*
D03*
X277661Y119095D02*
D03*
Y113189D02*
D03*
X259945Y119095D02*
D03*
Y113189D02*
D03*
X242228Y119095D02*
D03*
Y113189D02*
D03*
X224512Y119095D02*
D03*
Y113189D02*
D03*
X206795Y119095D02*
D03*
Y113189D02*
D03*
X189079Y119095D02*
D03*
Y113189D02*
D03*
X171362Y119095D02*
D03*
Y113189D02*
D03*
X153646Y119095D02*
D03*
Y113189D02*
D03*
X135929Y119095D02*
D03*
Y113189D02*
D03*
X118212Y119095D02*
D03*
Y113189D02*
D03*
X100496Y119095D02*
D03*
Y113189D02*
D03*
X295378Y136811D02*
D03*
Y130905D02*
D03*
X277661Y136811D02*
D03*
Y130905D02*
D03*
X259945Y136811D02*
D03*
Y130905D02*
D03*
X242228Y136811D02*
D03*
Y130905D02*
D03*
X224512Y136811D02*
D03*
Y130905D02*
D03*
X206795Y136811D02*
D03*
Y130905D02*
D03*
X189079Y136811D02*
D03*
Y130905D02*
D03*
X171362Y136811D02*
D03*
Y130905D02*
D03*
X153646Y136811D02*
D03*
Y130905D02*
D03*
X135929Y136811D02*
D03*
Y130905D02*
D03*
X118212Y136811D02*
D03*
Y130905D02*
D03*
X100496Y136811D02*
D03*
Y130905D02*
D03*
X295378Y154528D02*
D03*
Y148622D02*
D03*
X277661Y154528D02*
D03*
Y148622D02*
D03*
X259945Y154528D02*
D03*
Y148622D02*
D03*
X242228Y154528D02*
D03*
Y148622D02*
D03*
X224512Y154528D02*
D03*
Y148622D02*
D03*
X206795Y154528D02*
D03*
Y148622D02*
D03*
X189079Y154528D02*
D03*
Y148622D02*
D03*
X171362Y154528D02*
D03*
Y148622D02*
D03*
X153646Y154528D02*
D03*
Y148622D02*
D03*
X135929Y154528D02*
D03*
Y148622D02*
D03*
X118212Y154528D02*
D03*
Y148622D02*
D03*
X100496Y154528D02*
D03*
Y148622D02*
D03*
X295378Y172244D02*
D03*
Y166339D02*
D03*
X277661Y172244D02*
D03*
Y166339D02*
D03*
X259945Y172244D02*
D03*
Y166339D02*
D03*
X242228Y172244D02*
D03*
Y166339D02*
D03*
X224512Y172244D02*
D03*
Y166339D02*
D03*
X206795Y172244D02*
D03*
Y166339D02*
D03*
X189079Y172244D02*
D03*
Y166339D02*
D03*
X171362Y172244D02*
D03*
Y166339D02*
D03*
X153646Y172244D02*
D03*
Y166339D02*
D03*
X135929Y172244D02*
D03*
Y166339D02*
D03*
X118212Y172244D02*
D03*
Y166339D02*
D03*
X100496Y172244D02*
D03*
Y166339D02*
D03*
X295378Y189961D02*
D03*
Y184055D02*
D03*
X277661Y189961D02*
D03*
Y184055D02*
D03*
X259945Y189961D02*
D03*
Y184055D02*
D03*
X242228Y189961D02*
D03*
Y184055D02*
D03*
X224512Y189961D02*
D03*
Y184055D02*
D03*
X206795Y189961D02*
D03*
Y184055D02*
D03*
X189079Y189961D02*
D03*
Y184055D02*
D03*
X171362Y189961D02*
D03*
Y184055D02*
D03*
X153646Y189961D02*
D03*
Y184055D02*
D03*
X135929Y189961D02*
D03*
Y184055D02*
D03*
X118212Y189961D02*
D03*
Y184055D02*
D03*
X100496Y189961D02*
D03*
Y184055D02*
D03*
D11*
X495276Y108858D02*
D03*
Y119488D02*
D03*
X547638Y56496D02*
D03*
Y67126D02*
D03*
X563386Y194291D02*
D03*
Y183661D02*
D03*
X472835Y191535D02*
D03*
Y202165D02*
D03*
X488583D02*
D03*
Y191535D02*
D03*
X492520Y56496D02*
D03*
Y67126D02*
D03*
X531890Y56496D02*
D03*
Y67126D02*
D03*
X579134Y194291D02*
D03*
Y183661D02*
D03*
X495276Y128937D02*
D03*
Y139567D02*
D03*
D12*
X557874Y114567D02*
D03*
Y104567D02*
D03*
Y94567D02*
D03*
X522835Y94173D02*
D03*
Y104173D02*
D03*
Y114173D02*
D03*
D13*
X555905Y143701D02*
D03*
X555512Y165354D02*
D03*
X468504Y58268D02*
D03*
X468898Y36614D02*
D03*
D14*
X410142Y111220D02*
D03*
Y113189D02*
D03*
Y115157D02*
D03*
Y117126D02*
D03*
Y119094D02*
D03*
Y121063D02*
D03*
Y123031D02*
D03*
Y125000D02*
D03*
Y126968D02*
D03*
Y128937D02*
D03*
Y130905D02*
D03*
Y132874D02*
D03*
X377858D02*
D03*
Y130905D02*
D03*
Y128937D02*
D03*
Y126968D02*
D03*
Y125000D02*
D03*
Y123031D02*
D03*
Y121063D02*
D03*
Y119094D02*
D03*
Y117126D02*
D03*
Y115157D02*
D03*
Y113189D02*
D03*
Y111220D02*
D03*
X410142Y32480D02*
D03*
Y34449D02*
D03*
Y36417D02*
D03*
Y38386D02*
D03*
Y40354D02*
D03*
Y42323D02*
D03*
Y44291D02*
D03*
Y46260D02*
D03*
Y48228D02*
D03*
Y50197D02*
D03*
Y52165D02*
D03*
Y54134D02*
D03*
X377858D02*
D03*
Y52165D02*
D03*
Y50197D02*
D03*
Y48228D02*
D03*
Y46260D02*
D03*
Y44291D02*
D03*
Y42323D02*
D03*
Y40354D02*
D03*
Y38386D02*
D03*
Y36417D02*
D03*
Y34449D02*
D03*
Y32480D02*
D03*
Y186024D02*
D03*
Y187992D02*
D03*
Y189961D02*
D03*
Y191929D02*
D03*
Y193898D02*
D03*
Y195866D02*
D03*
Y197835D02*
D03*
Y199803D02*
D03*
Y201772D02*
D03*
Y203740D02*
D03*
Y205709D02*
D03*
Y207677D02*
D03*
X410142D02*
D03*
Y205709D02*
D03*
Y203740D02*
D03*
Y201772D02*
D03*
Y199803D02*
D03*
Y197835D02*
D03*
Y195866D02*
D03*
Y193898D02*
D03*
Y191929D02*
D03*
Y189961D02*
D03*
Y187992D02*
D03*
Y186024D02*
D03*
D15*
X404827Y138189D02*
D03*
X402858D02*
D03*
X400890D02*
D03*
X398921D02*
D03*
X396953D02*
D03*
X394984D02*
D03*
X393016D02*
D03*
X391047D02*
D03*
X389078D02*
D03*
X387110D02*
D03*
X385142D02*
D03*
X383173D02*
D03*
Y105905D02*
D03*
X385142D02*
D03*
X387110D02*
D03*
X389078D02*
D03*
X391047D02*
D03*
X393016D02*
D03*
X394984D02*
D03*
X396953D02*
D03*
X398921D02*
D03*
X400890D02*
D03*
X402858D02*
D03*
X404827D02*
D03*
Y59449D02*
D03*
X402858D02*
D03*
X400890D02*
D03*
X398921D02*
D03*
X396953D02*
D03*
X394984D02*
D03*
X393016D02*
D03*
X391047D02*
D03*
X389079D02*
D03*
X387110D02*
D03*
X385142D02*
D03*
X383173D02*
D03*
Y27165D02*
D03*
X385142D02*
D03*
X387110D02*
D03*
X389079D02*
D03*
X391047D02*
D03*
X393016D02*
D03*
X394984D02*
D03*
X396953D02*
D03*
X398921D02*
D03*
X400890D02*
D03*
X402858D02*
D03*
X404827D02*
D03*
X404826Y180709D02*
D03*
X402858D02*
D03*
X400890D02*
D03*
X398921D02*
D03*
X396953D02*
D03*
X394984D02*
D03*
X393016D02*
D03*
X391047D02*
D03*
X389078D02*
D03*
X387110D02*
D03*
X385142D02*
D03*
X383173D02*
D03*
Y212992D02*
D03*
X385142D02*
D03*
X387110D02*
D03*
X389078D02*
D03*
X391047D02*
D03*
X393016D02*
D03*
X394984D02*
D03*
X396953D02*
D03*
X398921D02*
D03*
X400890D02*
D03*
X402858D02*
D03*
X404826D02*
D03*
D16*
X550197Y212598D02*
D03*
X560827D02*
D03*
X502953Y212598D02*
D03*
X513583D02*
D03*
X469055Y84016D02*
D03*
X479685D02*
D03*
X479685Y95827D02*
D03*
X469055D02*
D03*
X479685Y127323D02*
D03*
X469055D02*
D03*
X479685Y143071D02*
D03*
X469055D02*
D03*
X471457Y161417D02*
D03*
X482087D02*
D03*
X537205Y212598D02*
D03*
X526575D02*
D03*
X471457Y173228D02*
D03*
X482087D02*
D03*
X506890Y38189D02*
D03*
X517520D02*
D03*
D17*
X514823Y191870D02*
D03*
D18*
Y189311D02*
D03*
Y186752D02*
D03*
Y184193D02*
D03*
X540610Y191870D02*
D03*
Y189311D02*
D03*
Y186752D02*
D03*
Y184193D02*
D03*
D19*
X184843Y240158D02*
D03*
X172638D02*
D03*
D20*
X478602Y107835D02*
D03*
D21*
Y111575D02*
D03*
Y115315D02*
D03*
X470138D02*
D03*
Y107835D02*
D03*
D22*
X516437Y169291D02*
D03*
X500098D02*
D03*
D23*
X504528Y57579D02*
D03*
D24*
X508268D02*
D03*
X512008D02*
D03*
Y66043D02*
D03*
X508268D02*
D03*
X504528D02*
D03*
D25*
X567323Y96063D02*
X567520Y95866D01*
X566535Y94882D02*
X567520Y95866D01*
X557480Y94882D02*
X566535D01*
X567323Y96063D02*
Y115748D01*
X569291D02*
X591732Y138189D01*
X581102Y67716D02*
X592520Y79134D01*
X560480Y265347D02*
X592520Y233307D01*
Y79134D02*
Y233307D01*
X541571Y258024D02*
X548894Y265347D01*
X547638Y67716D02*
X581102D01*
X548894Y265347D02*
X560480D01*
X558268Y114961D02*
X559055Y115748D01*
X569291D01*
D26*
X417319Y25268D02*
Y29925D01*
X415283Y31961D02*
X417319Y29925D01*
X415283Y31961D02*
Y33411D01*
X416929Y32284D02*
X420160Y29053D01*
X416929Y32284D02*
Y33614D01*
X419645Y31417D02*
X420981D01*
X418236Y32826D02*
X419645Y31417D01*
X418236Y32826D02*
Y34520D01*
X420186Y32724D02*
X422326D01*
X419543Y33367D02*
X420186Y32724D01*
X419543Y33367D02*
Y35061D01*
X420160Y27187D02*
Y29053D01*
X414134Y36409D02*
X416929Y33614D01*
X414575Y38181D02*
X418236Y34520D01*
X414258Y40346D02*
X419543Y35061D01*
X425916Y37093D02*
X425980Y37157D01*
X425665Y37093D02*
X425916D01*
X418766Y43992D02*
X425665Y37093D01*
X421731Y35904D02*
X422046Y36220D01*
X421730Y35904D02*
X421731D01*
X421730D02*
X422046Y36220D01*
X414254Y34441D02*
X415283Y33411D01*
X422046Y36220D02*
Y36220D01*
Y36003D02*
Y36220D01*
X421783Y35740D02*
X422046Y36003D01*
X410138Y40346D02*
X414258D01*
X410335Y38181D02*
X414575D01*
X414760Y42315D02*
X421335Y35740D01*
X410138Y42315D02*
X414760D01*
X390945Y219291D02*
X392720Y217516D01*
X390158Y219291D02*
X390945D01*
X387402Y222047D02*
X390158Y219291D01*
X392720Y213276D02*
X393012Y212984D01*
X393010Y138183D02*
X393012Y138181D01*
X393010Y59443D02*
X393012Y59441D01*
X392720Y59732D02*
X393010Y59443D01*
X392720Y138472D02*
X393010Y138183D01*
X387398Y222433D02*
X387803D01*
X387106Y212984D02*
Y218787D01*
X383461Y222433D02*
X387106Y218787D01*
X387398Y147630D02*
Y150184D01*
Y68890D02*
X391626Y64661D01*
X387398Y147630D02*
X391626Y143401D01*
X387398Y150184D02*
X408348Y171134D01*
X391626Y64661D02*
X391738D01*
X392720Y59732D02*
Y63679D01*
X391738Y64661D02*
X392720Y63679D01*
X391626Y143401D02*
X391738D01*
X392720Y138472D02*
Y142419D01*
X391738Y143401D02*
X392720Y142419D01*
X434793Y171134D02*
X440299Y176640D01*
X408348Y171134D02*
X434793D01*
X440299Y176640D02*
Y239186D01*
X446484Y245370D01*
X480409D01*
X481571Y246532D01*
Y248024D01*
X392720Y213276D02*
Y217516D01*
X389075Y212984D02*
X391043D01*
X540606Y189303D02*
X544492D01*
X479528Y135039D02*
X479685Y135197D01*
X471453Y173220D02*
X472831Y174598D01*
X389075Y138181D02*
X391043D01*
X381098Y212984D02*
X385138D01*
X381098Y138181D02*
X385138D01*
X492028Y111909D02*
X495276Y108661D01*
X478598Y111567D02*
X484756D01*
X381098Y59441D02*
X385138D01*
X560827Y56496D02*
X561024Y56693D01*
X389075Y59441D02*
X391043D01*
X479528Y135039D02*
X479685Y134882D01*
Y127323D02*
Y134882D01*
X479528Y135039D02*
Y135079D01*
X479587Y135138D01*
X479685Y135197D02*
Y143071D01*
X547638Y56496D02*
X547642D01*
X560630Y56693D02*
X561024D01*
X100492Y68299D02*
X102335D01*
X399213Y16535D02*
X399606D01*
X402858Y19189D02*
X405118Y16929D01*
X391389Y12536D02*
Y18162D01*
Y12536D02*
X394484Y9441D01*
X384432Y12800D02*
X389075Y17443D01*
X387122Y17433D02*
Y22158D01*
X383469Y13780D02*
X387122Y17433D01*
X385138Y17426D02*
Y27157D01*
X380098Y12386D02*
X385138Y17426D01*
X383169Y17417D02*
Y27157D01*
X379524Y13772D02*
X383169Y17417D01*
X399213Y16535D02*
X400886Y18209D01*
X469051Y116390D02*
Y143063D01*
Y116390D02*
X470134Y115307D01*
X469051Y84008D02*
Y94480D01*
X457972Y105559D02*
X469051Y94480D01*
X391389Y18162D02*
X393993Y20766D01*
X404827Y22339D02*
X410236Y16929D01*
X404827Y22339D02*
Y27165D01*
X410236Y16535D02*
Y16929D01*
X405118D02*
Y17323D01*
X402858Y19189D02*
Y27165D01*
X328740Y15354D02*
X345858Y32472D01*
X328740Y15181D02*
Y15354D01*
X318835Y15181D02*
X328740D01*
X318512Y13772D02*
X340050D01*
X319902Y12386D02*
X341126D01*
X340050Y13772D02*
X340183Y13905D01*
X341126Y12386D02*
X341339Y12598D01*
X320496Y11000D02*
X380672D01*
X320906Y9693D02*
X342520D01*
X345858Y32472D02*
X375035D01*
X345669Y34252D02*
X372441D01*
X327906Y16488D02*
X345669Y34252D01*
X319376Y16488D02*
X327906D01*
X345858Y36409D02*
X372342D01*
X327266Y17817D02*
X345858Y36409D01*
X316896Y17817D02*
X327266D01*
X342488Y49795D02*
X347039D01*
X343029Y48488D02*
X347701D01*
X343570Y47181D02*
X348520D01*
X344112Y45874D02*
X349062D01*
X344653Y44567D02*
X349603D01*
X345195Y43260D02*
X350145D01*
X345736Y41953D02*
X377492D01*
X345978Y40346D02*
X377854D01*
X326063Y20431D02*
X345978Y40346D01*
X327500Y23717D02*
X345736Y41953D01*
X327037Y25102D02*
X345195Y43260D01*
X326574Y26488D02*
X344653Y44567D01*
X326112Y27874D02*
X344112Y45874D01*
X325570Y29181D02*
X343570Y47181D01*
X325096Y30555D02*
X343029Y48488D01*
X324724Y32032D02*
X342488Y49795D01*
X278819Y32032D02*
X324724D01*
X281223Y30555D02*
X325096D01*
X280749Y29181D02*
X325570D01*
X280207Y27874D02*
X326112D01*
X280781Y26488D02*
X326574D01*
X281355Y25102D02*
X327037D01*
X281929Y23717D02*
X327500D01*
X315813Y20431D02*
X326063D01*
X345858Y38378D02*
X377854D01*
X326604Y19124D02*
X345858Y38378D01*
X316354Y19124D02*
X326604D01*
X348520Y47181D02*
X351166Y49827D01*
X349062Y45874D02*
X351046Y47858D01*
X349603Y44567D02*
X351288Y46252D01*
X347039Y49795D02*
X351370Y54126D01*
X347701Y48488D02*
X351378Y52165D01*
X350145Y43260D02*
X350806Y43921D01*
X377492D01*
X351288Y46252D02*
X377854D01*
X351046Y47858D02*
X377492D01*
X351166Y49827D02*
X374236D01*
X351378Y52165D02*
X377858D01*
X351370Y54126D02*
X377854D01*
X187402Y256299D02*
X324410D01*
X171260Y240158D02*
X187402Y256299D01*
X171260Y240158D02*
X172638D01*
X404823Y212984D02*
X407578Y215740D01*
X402854Y212984D02*
X404823D01*
X404823Y138181D02*
X407870Y141228D01*
X404823Y59441D02*
X407870Y62488D01*
X402854Y138181D02*
X404823D01*
X402854Y59441D02*
X404823D01*
X184843Y240158D02*
X185236Y240551D01*
X185433D01*
X185835Y240150D01*
X193500D01*
X168110Y234252D02*
X174016Y240158D01*
X146850Y234252D02*
X168110D01*
X512004Y66035D02*
X513016Y67047D01*
X144882Y236221D02*
X146850Y234252D01*
X144882Y236221D02*
Y244488D01*
X321388Y209350D02*
Y209573D01*
X328913Y202709D02*
X369054D01*
X323149Y208472D02*
X328913Y202709D01*
X322265Y208472D02*
X323149D01*
X322166Y208572D02*
X322265Y208472D01*
X322166Y208572D02*
Y208572D01*
X322608Y207165D02*
X328372Y201402D01*
X321724Y207165D02*
X322608D01*
X320859Y208031D02*
X321724Y207165D01*
X320859Y208031D02*
Y208031D01*
X321388Y209350D02*
X322166Y208572D01*
X320081Y208809D02*
X320859Y208031D01*
X320081Y208809D02*
Y208920D01*
X310788Y218213D02*
X320081Y208920D01*
X321525Y204551D02*
X327289Y198787D01*
X320641Y204551D02*
X321525D01*
X320984Y203244D02*
X326748Y197480D01*
X320100Y203244D02*
X320984D01*
X320443Y201937D02*
X326206Y196173D01*
X319558Y201937D02*
X320443D01*
X319901Y200630D02*
X325665Y194866D01*
X319017Y200630D02*
X319901D01*
X319360Y199323D02*
X325123Y193559D01*
X318476Y199323D02*
X319360D01*
X318818Y198016D02*
X324913Y191921D01*
X317934Y198016D02*
X318818D01*
X318277Y196709D02*
X325363Y189622D01*
X317393Y196709D02*
X318277D01*
X317735Y195402D02*
X324822Y188315D01*
X316851Y195402D02*
X317735D01*
X309751Y215441D02*
X320641Y204551D01*
X327289Y198787D02*
X371279D01*
X317691Y205653D02*
X320100Y203244D01*
X326748Y197480D02*
X371820D01*
X317590Y203906D02*
X319558Y201937D01*
X326206Y196173D02*
X372481D01*
X317049Y202598D02*
X319017Y200630D01*
X325665Y194866D02*
X373023D01*
X316507Y201291D02*
X318476Y199323D01*
X325123Y193559D02*
X373684D01*
X315966Y199984D02*
X317934Y198016D01*
X324913Y191921D02*
X377854D01*
X315424Y198677D02*
X317393Y196709D01*
X325363Y189622D02*
X373684D01*
X314883Y197370D02*
X316851Y195402D01*
X324822Y188315D02*
X377524D01*
X317468Y205653D02*
X317691D01*
X317256Y203906D02*
X317590D01*
X316603Y202598D02*
X317049D01*
X315950Y201291D02*
X316507D01*
X315298Y199984D02*
X315966D01*
X314645Y198677D02*
X315424D01*
X313992Y197370D02*
X314883D01*
X314341Y196063D02*
X323396Y187008D01*
X313339Y196063D02*
X314341D01*
X308492Y212669D02*
X317256Y203906D01*
X315508Y203693D02*
X316603Y202598D01*
X307344Y209898D02*
X315950Y201291D01*
X313548Y201734D02*
X315298Y199984D01*
X306196Y207126D02*
X314645Y198677D01*
X305622Y205740D02*
X313992Y197370D01*
X305048Y204354D02*
X313339Y196063D01*
X322067Y205858D02*
X327831Y200095D01*
X321183Y205858D02*
X322067D01*
X328372Y201402D02*
X369716D01*
X319428Y207613D02*
X321183Y205858D01*
X327831Y200095D02*
X370377D01*
X410142Y186016D02*
X414089D01*
X171358Y192315D02*
X171949Y192905D01*
X376772Y246457D02*
X376898Y246583D01*
X366543Y236228D02*
X376764Y246449D01*
X367205Y234921D02*
X377425Y245142D01*
X378087Y243835D02*
X419068D01*
X367866Y233614D02*
X378087Y243835D01*
X378628Y242528D02*
X418415D01*
X368408Y232307D02*
X378628Y242528D01*
X379169Y241220D02*
X417762D01*
X368949Y231000D02*
X379169Y241220D01*
X379711Y239913D02*
X417109D01*
X369490Y229693D02*
X379711Y239913D01*
X380221Y238575D02*
X416488D01*
X370032Y228386D02*
X380221Y238575D01*
X380762Y237268D02*
X415836D01*
X370573Y227079D02*
X380762Y237268D01*
X381180Y235837D02*
X415307D01*
X371115Y225772D02*
X381180Y235837D01*
X381642Y234451D02*
X414733D01*
X370813Y223622D02*
X381642Y234451D01*
X382105Y233065D02*
X414159D01*
X371355Y222315D02*
X382105Y233065D01*
X382377Y231488D02*
X413776D01*
X371873Y220984D02*
X382377Y231488D01*
X296035Y234921D02*
X367205D01*
X296688Y233614D02*
X367866D01*
X297341Y232307D02*
X368408D01*
X297994Y231000D02*
X368949D01*
X298646Y229693D02*
X369490D01*
X299299Y228386D02*
X370032D01*
X299952Y227079D02*
X370573D01*
X300605Y225772D02*
X371115D01*
X300683Y223622D02*
X370813D01*
X300141Y222315D02*
X371355D01*
X240516Y220984D02*
X371873D01*
X410142Y187984D02*
X414209D01*
X171358Y174598D02*
X175374D01*
X377425Y245142D02*
X419721D01*
X377305D02*
X377425D01*
X376898Y246583D02*
X378100D01*
X378234Y246449D02*
X420071D01*
X378100Y246583D02*
X378234Y246449D01*
X410138Y189953D02*
X415649D01*
X171358Y156882D02*
X171949Y157472D01*
X410138Y191921D02*
X415649D01*
X171358Y139165D02*
X178146D01*
X410142Y193890D02*
X415768D01*
X189075Y192315D02*
X189665Y192905D01*
X410138Y195858D02*
X415649D01*
X189075Y174598D02*
X193091D01*
X410138Y197827D02*
X415649D01*
X189075Y156882D02*
X189665Y157472D01*
X410138Y199795D02*
X415649D01*
X189075Y139165D02*
X195862D01*
X410138Y201764D02*
X415649D01*
X206791Y192315D02*
X207382Y192905D01*
X300086Y222370D02*
X300141Y222315D01*
X239706Y222370D02*
X300086D01*
X300549Y223756D02*
X300683Y223622D01*
X171949Y157472D02*
X176768D01*
X179319Y160024D01*
Y196842D01*
X179319D01*
Y197778D02*
X214998Y233457D01*
X179319Y196842D02*
Y197778D01*
X214998Y233457D02*
X296531D01*
X296688Y233614D01*
X415649Y189953D02*
X429398Y203702D01*
X419068Y243835D02*
X429398Y233505D01*
Y203702D02*
Y233505D01*
X410138Y203732D02*
X415649D01*
X206791Y174598D02*
X210807D01*
X420071Y246449D02*
X420079Y246457D01*
X419721Y245142D02*
X430783Y234079D01*
X418415Y242528D02*
X428012Y232931D01*
X417762Y241220D02*
X426626Y232357D01*
X417109Y239913D02*
X425240Y231783D01*
X416488Y238575D02*
X423854Y231209D01*
X415836Y237268D02*
X422469Y230635D01*
X418311Y208243D02*
Y228913D01*
X414159Y233065D02*
X418311Y228913D01*
X416925Y208706D02*
Y228339D01*
X413776Y231488D02*
X416925Y228339D01*
X422469Y206615D02*
Y230635D01*
X214073Y236228D02*
X366543D01*
X299975Y225142D02*
X300605Y225772D01*
X299401Y226528D02*
X299952Y227079D01*
X298827Y227913D02*
X299299Y228386D01*
X298253Y229299D02*
X298646Y229693D01*
X297679Y230685D02*
X297994Y231000D01*
X297105Y232071D02*
X297341Y232307D01*
X295957Y234843D02*
X296035Y234921D01*
X214535Y234843D02*
X295957D01*
X238558Y225142D02*
X299975D01*
X215461Y232071D02*
X297105D01*
X226384Y230685D02*
X297679D01*
X226945Y229299D02*
X298253D01*
X227408Y227913D02*
X298827D01*
X227870Y226528D02*
X299401D01*
X239132Y223756D02*
X300549D01*
X420365Y246457D02*
X432169Y234653D01*
X420079Y246457D02*
X420365D01*
X324410Y256299D02*
X334252Y266142D01*
X410138Y207669D02*
X415889D01*
X206791Y139165D02*
X213579D01*
X410138Y205701D02*
X415768D01*
X206791Y156882D02*
X207382Y157472D01*
X252532Y215441D02*
X309751D01*
X323396Y187008D02*
X373039D01*
X377524Y188315D02*
X377854Y187984D01*
X373653Y186394D02*
X379880D01*
X373039Y187008D02*
X373653Y186394D01*
X373684Y189622D02*
X374015Y189953D01*
X377854D01*
X379880Y186394D02*
X380258Y186016D01*
X369054Y202709D02*
X373653Y207307D01*
X369716Y201402D02*
X374015Y205701D01*
X370377Y200095D02*
X374015Y203732D01*
X371279Y198787D02*
X371409Y198918D01*
X371820Y197480D02*
X372716Y198377D01*
X372481Y196173D02*
X372716Y196408D01*
X373023Y194866D02*
X374015Y195858D01*
X373684Y193559D02*
X374015Y193890D01*
X377854D01*
X372716Y196528D02*
X374015Y197827D01*
X372716Y196408D02*
Y196528D01*
X371409Y199158D02*
X374015Y201764D01*
X371409Y198918D02*
Y199158D01*
X276225Y205740D02*
X305622D01*
X374015Y195858D02*
X377854D01*
X372716Y198497D02*
X374015Y199795D01*
X372716Y198377D02*
Y198497D01*
X374015Y197827D02*
X377854D01*
X374015Y199795D02*
X377854D01*
X374015Y201764D02*
X377854D01*
X374015Y205701D02*
X377854D01*
X374015Y203732D02*
X377854D01*
X377492Y207307D02*
X377854Y207669D01*
X373653Y207307D02*
X377492D01*
X224508Y192315D02*
X225098Y192905D01*
X224508Y174598D02*
X228524D01*
X224508Y156882D02*
X225098Y157472D01*
X224508Y139165D02*
X231295D01*
X242224Y192315D02*
X242815Y192905D01*
X242224Y174598D02*
X246240D01*
X242224Y156882D02*
X242815Y157472D01*
X242224Y139165D02*
X249012D01*
X259941Y192315D02*
X263091D01*
X259350Y174008D02*
X263367D01*
X259941Y156882D02*
X264760D01*
X259350Y138575D02*
X266138D01*
X277657Y192315D02*
X278248Y192905D01*
X336191Y171252D02*
X379524D01*
X356903Y169895D02*
X357270D01*
X356874Y169866D02*
X356903Y169895D01*
X357270Y169866D02*
X380098D01*
X357270D02*
Y169895D01*
X356696Y168480D02*
X379524D01*
X356278Y167049D02*
X381318D01*
X335616Y169866D02*
X356874D01*
X379524Y168480D02*
X379524Y168480D01*
X381318Y167049D02*
X389075Y174805D01*
X356696Y168480D02*
Y168501D01*
X356693Y168504D02*
X356696Y168501D01*
X356669Y168480D02*
X356693Y168504D01*
X335043Y168480D02*
X356669D01*
X356278Y167049D02*
X356299Y167028D01*
Y166929D02*
Y167028D01*
X356179Y167049D02*
X356299Y166929D01*
X334625Y167049D02*
X356179D01*
X302863Y198811D02*
X334625Y167049D01*
X303900Y201583D02*
X335616Y169866D01*
X277657Y174598D02*
X281673D01*
X277657Y156882D02*
X278248Y157472D01*
X277657Y139165D02*
X284445D01*
X153641Y192315D02*
X156791D01*
X338876Y157472D02*
X382306D01*
X153051Y174008D02*
X157067D01*
X356949Y155905D02*
X357130Y156087D01*
X356693Y155905D02*
X356949D01*
X384004Y153291D02*
X396443Y165731D01*
X320705Y163142D02*
X330555Y153291D01*
X354476Y154724D02*
X354602Y154598D01*
X383351D01*
X383454Y154701D01*
X330555Y153291D02*
X384004D01*
X356512Y156087D02*
X356693Y155905D01*
X335476Y156087D02*
X356512D01*
X354331Y154724D02*
X354476D01*
X354307Y154701D02*
X354331Y154724D01*
X332846Y154701D02*
X354307D01*
X320429Y167118D02*
X332846Y154701D01*
X153642Y156882D02*
X158461D01*
X153051Y138575D02*
X159839D01*
X445559Y103525D02*
X445669Y103414D01*
Y97350D02*
Y103414D01*
X425910Y77591D02*
X445669Y97350D01*
X445559Y172657D02*
X446835Y173933D01*
X445559Y103525D02*
Y172657D01*
X446835Y173933D02*
Y236478D01*
X445528Y174474D02*
Y237020D01*
X410513Y165905D02*
X436959D01*
X444220Y175015D02*
Y237561D01*
X409972Y167213D02*
X436418D01*
X442913Y175557D02*
Y238103D01*
X409431Y168520D02*
X435876D01*
X441606Y176098D02*
Y238644D01*
X408889Y169827D02*
X435335D01*
X441606Y176098D01*
X435876Y168520D02*
X442913Y175557D01*
X436418Y167213D02*
X444220Y175015D01*
X436959Y165905D02*
X445528Y174474D01*
X438992Y177181D02*
Y239727D01*
X434320Y172509D02*
X438992Y177181D01*
X407874Y172509D02*
X434320D01*
X474619Y246677D02*
X480698Y252756D01*
X447025Y244063D02*
X483211D01*
X447567Y242756D02*
X483753D01*
X448108Y241449D02*
X484294D01*
X448649Y240142D02*
X484836D01*
X449191Y238835D02*
X485377D01*
X445942Y246677D02*
X474619D01*
X438992Y239727D02*
X445942Y246677D01*
X441606Y238644D02*
X447025Y244063D01*
X442913Y238103D02*
X447567Y242756D01*
X444220Y237561D02*
X448108Y241449D01*
X445528Y237020D02*
X448649Y240142D01*
X446835Y236478D02*
X449191Y238835D01*
X449732Y237527D02*
X485919D01*
X448142Y235937D02*
X449732Y237527D01*
X448142Y104595D02*
Y235937D01*
X432136Y202743D02*
Y204063D01*
X416608Y187215D02*
X432136Y202743D01*
X415287Y187215D02*
X416608D01*
X430829Y203284D02*
Y204119D01*
X416066Y188522D02*
X430829Y203284D01*
X415231Y188522D02*
X416066D01*
X387106Y138181D02*
Y144157D01*
X400476Y165110D02*
X407874Y172509D01*
X403146Y158538D02*
X410513Y165905D01*
X399732Y156973D02*
X409972Y167213D01*
X398335Y157424D02*
X409431Y168520D01*
X397028Y157965D02*
X408889Y169827D01*
X414089Y186016D02*
X415287Y187215D01*
X399823Y171851D02*
Y174102D01*
X395171Y170338D02*
X398310D01*
X430705Y204480D02*
X430783Y204559D01*
X430705Y204243D02*
Y204480D01*
Y204243D02*
X430829Y204119D01*
X415107Y188646D02*
X415231Y188522D01*
X414870Y188646D02*
X415107D01*
X414209Y187984D02*
X414870Y188646D01*
X432136Y204063D02*
X432169Y204097D01*
X398310Y170338D02*
X399823Y171851D01*
X397750Y165110D02*
X400476D01*
X404161Y176089D02*
X404823Y176750D01*
X404161Y170644D02*
Y176089D01*
X399934Y166417D02*
X404161Y170644D01*
X397019Y166417D02*
X399934D01*
X396443Y165842D02*
X397019Y166417D01*
X396443Y165731D02*
Y165842D01*
X430783Y204559D02*
Y234079D01*
X432169Y204097D02*
Y234653D01*
X404823Y176750D02*
Y180701D01*
X398917Y175008D02*
X399823Y174102D01*
X395093Y170260D02*
X395171Y170338D01*
X401287Y171467D02*
Y174598D01*
X398851Y169031D02*
X401287Y171467D01*
X395824Y169031D02*
X398851D01*
X486596Y238205D02*
X541752D01*
X485919Y237527D02*
X486596Y238205D01*
X485377Y238835D02*
X486054Y239512D01*
X402854Y171186D02*
Y180701D01*
X399393Y167724D02*
X402854Y171186D01*
X396477Y167724D02*
X399393D01*
X398917Y175008D02*
Y180701D01*
X426626Y204747D02*
Y232357D01*
X415768Y193890D02*
X426626Y204747D01*
X396241Y167488D02*
X396477Y167724D01*
X400886Y174999D02*
Y180701D01*
Y174999D02*
X401287Y174598D01*
X484836Y240142D02*
X485513Y240819D01*
X486054Y239512D02*
X523059D01*
X344037Y125087D02*
X344132Y124992D01*
X343984Y125087D02*
X344037D01*
X343890Y124992D02*
X343984Y125087D01*
X344746Y126394D02*
X344841Y126299D01*
X343443Y126394D02*
X344746D01*
X343348Y126299D02*
X343443Y126394D01*
X345288Y127701D02*
X345382Y127606D01*
X342901Y127701D02*
X345288D01*
X342807Y127606D02*
X342901Y127701D01*
X345829Y129008D02*
X345923Y128913D01*
X342360Y129008D02*
X345829D01*
X342266Y128913D02*
X342360Y129008D01*
X346370Y130315D02*
X346465Y130220D01*
X341819Y130315D02*
X346370D01*
X341724Y130220D02*
X341819Y130315D01*
X345923Y128913D02*
X372151D01*
X318363Y128913D02*
X342266D01*
X345382Y127606D02*
X372692D01*
X317821Y127606D02*
X342807D01*
X344841Y126299D02*
X373354D01*
X317280Y126299D02*
X343348D01*
X344132Y124992D02*
X377854D01*
X322478Y124992D02*
X343890D01*
X372151Y128913D02*
X372716Y129479D01*
X372692Y127606D02*
X374015Y128929D01*
X373354Y126299D02*
X374015Y126960D01*
X377854D01*
X374015Y128929D02*
X377854D01*
X374015Y130897D02*
X377854D01*
X372716Y129599D02*
X374015Y130897D01*
X318904Y130220D02*
X341724D01*
X371489Y130220D02*
X372716Y131448D01*
X346465Y130220D02*
X371489D01*
X314784Y134341D02*
X318904Y130220D01*
X372716Y129479D02*
Y129599D01*
Y131448D02*
Y131567D01*
X377492Y132504D02*
X377854Y132866D01*
X373653Y132504D02*
X377492D01*
X372716Y131567D02*
X373653Y132504D01*
X310626Y132953D02*
X317280Y126299D01*
X312091Y133337D02*
X317821Y127606D01*
X312091Y133337D02*
Y133337D01*
X311714Y133714D02*
X312091Y133337D01*
X316158Y131118D02*
X318363Y128913D01*
X295374Y192315D02*
X295964Y192905D01*
X316158Y131118D02*
X316158D01*
X313398Y133878D02*
X316158Y131118D01*
X295374Y174598D02*
X304413D01*
X316158Y131118D02*
X316378Y130897D01*
X295374Y156882D02*
X295965Y157472D01*
X295374Y139165D02*
X304413D01*
X295305Y120071D02*
X308658D01*
X325385Y113185D02*
X328988Y116787D01*
X320468Y110228D02*
X328335Y118095D01*
X326365Y112205D02*
X329640Y115480D01*
X304248Y109782D02*
X313868Y119402D01*
X329640Y115480D02*
X371851D01*
X328988Y116787D02*
X372513D01*
X328335Y118095D02*
X373054D01*
X313868Y119402D02*
X377539D01*
X377854Y119086D01*
X374031Y113181D02*
X377854D01*
X372716Y114495D02*
X374031Y113181D01*
X371409Y113834D02*
X373653Y111591D01*
X371409Y113834D02*
Y114074D01*
X374031Y117118D02*
X377854D01*
X373054Y118095D02*
X374031Y117118D01*
X374031Y115149D02*
X377854D01*
X372716Y116464D02*
X374031Y115149D01*
X372716Y116464D02*
Y116584D01*
X372513Y116787D02*
X372716Y116584D01*
X371310Y114173D02*
X371409Y114074D01*
X330293Y114173D02*
X371310D01*
X372716Y114495D02*
Y114615D01*
X371851Y115480D02*
X372716Y114615D01*
X377476Y111591D02*
X377854Y111212D01*
X373653Y111591D02*
X377476D01*
X324626Y108506D02*
X330293Y114173D01*
X315543Y121055D02*
X377854D01*
X315338Y121260D02*
X315543Y121055D01*
X313766Y121260D02*
X315338D01*
X302862Y110356D02*
X313766Y121260D01*
X295374Y86016D02*
X295505D01*
X313531Y122984D02*
X377815D01*
X296752Y102354D02*
X301247Y106849D01*
X295374Y103732D02*
X295505D01*
X295374Y68299D02*
X298523D01*
X277657Y121449D02*
X277805D01*
X277657Y103732D02*
X277805D01*
X277657Y86016D02*
X277805D01*
X277657Y68299D02*
X279500D01*
X259905Y119986D02*
X260005D01*
X325434Y89527D02*
Y89638D01*
X311177Y75381D02*
X325434Y89638D01*
X325606Y89810D01*
X325434Y89527D02*
X325717Y89810D01*
X326259Y88503D02*
X347755D01*
X326180Y88424D02*
X326259Y88503D01*
X326754Y87038D02*
X377996D01*
X327217Y85652D02*
X378570D01*
X315335Y73770D02*
X327217Y85652D01*
X377996Y87038D02*
X387106Y96149D01*
X259905Y102286D02*
X260005D01*
X347755Y88503D02*
X347834Y88424D01*
X259941Y86016D02*
X260005D01*
X259941Y68299D02*
X261784D01*
X347834Y88424D02*
X377422D01*
X325717Y89810D02*
X376848D01*
X242205Y120071D02*
X250295D01*
X326590Y82859D02*
X326621Y82890D01*
X316721Y72990D02*
X326590Y82859D01*
X326621Y82890D02*
X348274D01*
X315335Y52006D02*
Y73770D01*
X327194Y81504D02*
X348811D01*
X327839Y80189D02*
X349493D01*
X328492Y78882D02*
X350142D01*
X349493Y80189D02*
X349745Y80441D01*
X350142Y78882D02*
X350394Y79134D01*
X242224Y103732D02*
X242305D01*
X348819Y81496D02*
X348840D01*
X319492Y71842D02*
X327839Y80189D01*
X320878Y71268D02*
X328492Y78882D01*
X348811Y81504D02*
X348819Y81496D01*
X349745Y80441D02*
X350935D01*
X350161Y78898D02*
X395411D01*
X350161D02*
X350394Y79130D01*
Y79134D01*
X348439Y83055D02*
X393358D01*
X348274Y82890D02*
X348439Y83055D01*
X393358D02*
X393524Y82890D01*
X242224Y86016D02*
X242305D01*
X242055Y68299D02*
X244067D01*
X349092Y81748D02*
X351477D01*
X348840Y81496D02*
X349092Y81748D01*
X351713Y81512D02*
X394105D01*
X351477Y81748D02*
X351713Y81512D01*
X351171Y80205D02*
X394758D01*
X350935Y80441D02*
X351171Y80205D01*
X224508Y103732D02*
X224605D01*
X224508Y86016D02*
X224605D01*
X374236Y49827D02*
X374606Y50197D01*
X377858D01*
X377492Y41953D02*
X377854Y42315D01*
X377492Y43921D02*
X377854Y44283D01*
X377492Y47858D02*
X377854Y48220D01*
X272370Y25583D02*
X278819Y32032D01*
X281166Y30612D02*
X281223Y30555D01*
X279248Y30612D02*
X281166D01*
X272833Y24197D02*
X279248Y30612D01*
X258871Y24197D02*
X272833D01*
X280625Y29305D02*
X280749Y29181D01*
X279789Y29305D02*
X280625D01*
X273295Y22811D02*
X279789Y29305D01*
X258297Y22811D02*
X273295D01*
X274906Y18654D02*
X281355Y25102D01*
X246612Y18654D02*
X274906D01*
X278177Y19965D02*
X281929Y23717D01*
X278177Y19909D02*
Y19965D01*
X275535Y17268D02*
X278177Y19909D01*
X246124Y17268D02*
X275535D01*
X311020Y15638D02*
X315813Y20431D01*
X245794Y15638D02*
X311020D01*
X311483Y14252D02*
X316354Y19124D01*
X235303Y14252D02*
X311483D01*
X311945Y12866D02*
X316896Y17817D01*
X234769Y12866D02*
X311945D01*
X319355Y16510D02*
X319376Y16488D01*
X317437Y16510D02*
X319355D01*
X312408Y11480D02*
X317437Y16510D01*
X234195Y11480D02*
X312408D01*
X318814Y15203D02*
X318835Y15181D01*
X317979Y15203D02*
X318814D01*
X312871Y10095D02*
X317979Y15203D01*
X233621Y10095D02*
X312871D01*
X314839Y7323D02*
X319902Y12386D01*
X320472Y11024D02*
X320496Y11000D01*
X320388Y11024D02*
X320472D01*
X315302Y5937D02*
X320388Y11024D01*
X315764Y4551D02*
X320906Y9693D01*
X259445Y25583D02*
X272370D01*
X320878Y49709D02*
Y71268D01*
X305129Y33961D02*
X320878Y49709D01*
X262904Y33961D02*
X305129D01*
X319492Y50284D02*
Y71842D01*
X304555Y35346D02*
X319492Y50284D01*
X263478Y35346D02*
X304555D01*
X318107Y50858D02*
Y72416D01*
X303981Y36732D02*
X318107Y50858D01*
X264052Y36732D02*
X303981D01*
X316721Y51432D02*
Y72990D01*
X303407Y38118D02*
X316721Y51432D01*
X264626Y38118D02*
X303407D01*
X302833Y39504D02*
X315335Y52006D01*
X275078Y39504D02*
X302833D01*
X313949Y52580D02*
Y74233D01*
X302259Y40890D02*
X313949Y52580D01*
X275652Y40890D02*
X302259D01*
X312563Y53154D02*
Y74807D01*
X301685Y42276D02*
X312563Y53154D01*
X276225Y42276D02*
X301685D01*
X311177Y53728D02*
Y75381D01*
X301111Y43661D02*
X311177Y53728D01*
X276760Y43661D02*
X301111D01*
X309791Y54302D02*
Y75955D01*
X300537Y45047D02*
X309791Y54302D01*
X287250Y45047D02*
X300537D01*
X308406Y54876D02*
Y76529D01*
X299963Y46433D02*
X308406Y54876D01*
X287825Y46433D02*
X299963D01*
X307020Y55450D02*
Y77103D01*
X299389Y47819D02*
X307020Y55450D01*
X288399Y47819D02*
X299389D01*
X305634Y56024D02*
Y77677D01*
X298815Y49205D02*
X305634Y56024D01*
X288973Y49205D02*
X298815D01*
X224508Y121449D02*
X224605D01*
X224508Y68299D02*
X226350D01*
X206705Y119986D02*
X206905D01*
X206705Y102286D02*
X206905D01*
X206791Y86016D02*
X206905D01*
X206791Y68299D02*
X208634D01*
X189005Y120071D02*
X197146D01*
X189075Y103732D02*
X189205D01*
X189075Y86016D02*
X189205D01*
X372342Y34441D02*
X377854D01*
X372342D02*
X372441Y34342D01*
Y34252D02*
Y34342D01*
X188880Y68299D02*
X190918D01*
X171358Y121449D02*
X171505D01*
X318396Y13772D02*
X318404Y13780D01*
X318504D01*
X318512Y13772D01*
X222596Y7323D02*
X314839D01*
X222021Y5937D02*
X315302D01*
X221447Y4551D02*
X315764D01*
X171358Y103732D02*
X171505D01*
X340183Y13905D02*
X341884D01*
X342018Y13772D02*
X379524D01*
X341884Y13905D02*
X342018Y13772D01*
X341343Y12598D02*
X341555Y12386D01*
X341339Y12598D02*
X341343D01*
X342481Y9614D02*
X381246D01*
X342481D02*
X342520Y9653D01*
Y9693D01*
X171358Y86016D02*
X171505D01*
X171358Y68299D02*
X173201D01*
X394980Y21748D02*
Y27157D01*
X393998Y20766D02*
X394980Y21748D01*
X393993Y20766D02*
X393998D01*
X389075Y17443D02*
Y27157D01*
X400886Y18209D02*
Y27157D01*
X398815Y21935D02*
Y27055D01*
X395063Y18183D02*
X398815Y21935D01*
X410138Y46252D02*
X414861D01*
X135905Y120071D02*
X143996D01*
X410138Y54126D02*
X417909D01*
X153605Y119986D02*
X153705D01*
X410138Y52157D02*
X420665D01*
X153605Y102286D02*
X153705D01*
X410138Y50189D02*
X410823D01*
X153641Y86016D02*
X153705D01*
X410232Y48417D02*
X410281Y48368D01*
X410281Y48368D02*
X410283Y48366D01*
X410138Y48220D02*
X410429D01*
X153641Y68299D02*
X155484D01*
X135925Y103732D02*
X136005D01*
X135925Y86016D02*
X136005D01*
X135705Y68299D02*
X137768D01*
X118209Y121449D02*
X118305D01*
X410232Y36606D02*
X410281Y36557D01*
X410281Y36557D02*
X410283Y36555D01*
X410138Y36409D02*
Y36512D01*
Y36409D02*
X410429D01*
X118209Y103732D02*
X118305D01*
X410138Y34441D02*
X414254D01*
X118209Y86016D02*
X118305D01*
X410138Y32669D02*
X412201D01*
X118209Y68299D02*
X120051D01*
X394484Y9441D02*
X418106D01*
X193500Y240150D02*
X195126Y241776D01*
X410138Y111212D02*
X415547D01*
X100492Y192315D02*
X101082Y192905D01*
X410138Y113181D02*
X418303D01*
X100492Y174598D02*
X104508D01*
X107067Y177157D01*
Y199976D01*
X108460Y201370D01*
X418303Y113181D02*
X422831Y108654D01*
X410138Y115149D02*
X422807D01*
X100492Y156882D02*
X101083Y157472D01*
X410138Y117118D02*
X423209D01*
X100492Y139165D02*
X107280D01*
X118209Y174598D02*
X122224D01*
X410138Y119086D02*
X410335D01*
X118209Y192315D02*
X118799Y192905D01*
X410138Y123023D02*
X424776D01*
X118209Y156882D02*
X118799Y157472D01*
X118209Y139165D02*
X124996D01*
X410138Y126960D02*
X411909D01*
X135925Y192315D02*
X136515Y192905D01*
X410138Y128929D02*
X418697D01*
X135925Y174598D02*
X139941D01*
X410138Y130897D02*
X414861D01*
X135925Y156882D02*
X136516Y157472D01*
X410138Y132866D02*
X415350Y138079D01*
X135925Y139165D02*
X142713D01*
X394980Y212984D02*
Y218787D01*
X391335Y222433D02*
X394980Y218787D01*
X400886Y220173D02*
X403146Y222433D01*
X400886Y212984D02*
Y220173D01*
X396949Y212984D02*
Y220756D01*
X395272Y222433D02*
X396949Y220756D01*
X509252Y139567D02*
X517323Y131496D01*
X495276Y139567D02*
X509252D01*
X478598Y107827D02*
X481614D01*
X479681Y95819D02*
Y99465D01*
X479681Y84008D02*
Y95819D01*
X503937Y131496D02*
Y133465D01*
Y131496D02*
X505905Y129528D01*
Y103543D02*
Y129528D01*
X482083Y173220D02*
Y176516D01*
X334252Y266142D02*
X523464D01*
X531575Y258032D01*
X537610Y251646D02*
Y251760D01*
X536614Y252756D02*
X537610Y251760D01*
X480698Y252756D02*
X536614D01*
X533465Y155905D02*
Y160630D01*
X522835Y145276D02*
X533465Y155905D01*
X522835Y114173D02*
Y145276D01*
X498189Y95827D02*
X505905Y103543D01*
X479685Y95827D02*
X498189D01*
X478740Y115354D02*
X482874Y119488D01*
X478701Y115315D02*
X478740Y115354D01*
X480118D01*
X478642D02*
X478740D01*
X478602Y115315D02*
X478701D01*
X482874Y119488D02*
X495276D01*
Y128937D02*
Y129134D01*
Y119488D02*
Y128937D01*
X485098Y111909D02*
X492028D01*
X478602Y115315D02*
X478642Y115354D01*
X403146Y147630D02*
Y158538D01*
X399732Y149784D02*
Y156973D01*
X398335Y156445D02*
Y157424D01*
X394409Y152519D02*
X398335Y156445D01*
X394409Y150123D02*
Y152519D01*
X397028Y156986D02*
Y157965D01*
X391335Y151293D02*
X397028Y156986D01*
X391335Y147630D02*
Y151293D01*
X393531Y160891D02*
X397750Y165110D01*
X393531Y160858D02*
Y160891D01*
X541232Y248024D02*
X541571D01*
X537610Y251646D02*
X541232Y248024D01*
X428012Y204285D02*
Y232931D01*
X425240Y205450D02*
Y231783D01*
X423854Y206033D02*
Y231209D01*
X195650Y177157D02*
Y197417D01*
X198422Y141724D02*
Y197079D01*
X195862Y139165D02*
X198422Y141724D01*
X197036Y196842D02*
X197036D01*
X197036Y160024D02*
Y196842D01*
X197036D02*
Y197542D01*
X193091Y174598D02*
X195650Y177157D01*
Y197417D02*
X195650D01*
Y198004D01*
X226945Y229299D01*
X180705Y141724D02*
Y197315D01*
X178146Y139165D02*
X180705Y141724D01*
X101870Y102354D02*
X106595D01*
Y102244D02*
Y102354D01*
X107067Y48401D02*
Y82669D01*
X109839Y51173D02*
Y118795D01*
X102335Y68299D02*
X105681Y64953D01*
Y51173D02*
Y64953D01*
X120051Y68299D02*
X123398Y64953D01*
Y51173D02*
Y64953D01*
X124784Y48401D02*
Y82669D01*
X126169Y48622D02*
Y100386D01*
X127555Y51173D02*
Y118795D01*
X195126Y241776D02*
X206968D01*
X541752Y238205D02*
X551571Y248024D01*
X485513Y240819D02*
X514366D01*
X484971Y242126D02*
X505673D01*
X484430Y243433D02*
X496980D01*
X484294Y241449D02*
X484971Y242126D01*
X483753Y242756D02*
X484430Y243433D01*
X483889Y244740D02*
X488287D01*
X483211Y244063D02*
X483889Y244740D01*
X488287D02*
X491571Y248024D01*
X496980Y243433D02*
X501571Y248024D01*
X505673Y242126D02*
X511571Y248024D01*
X514366Y240819D02*
X521571Y248024D01*
X523059Y239512D02*
X531571Y248024D01*
X407870Y147630D02*
Y148417D01*
X384736Y69992D02*
X392335Y77591D01*
X384736Y67787D02*
Y69992D01*
Y67787D02*
X387106Y65417D01*
X392335Y77591D02*
X425910D01*
X387106Y59441D02*
Y65417D01*
X422807Y115149D02*
X426846Y111110D01*
X425485Y114842D02*
X426878D01*
X423209Y117118D02*
X425485Y114842D01*
X426058Y116622D02*
X432153D01*
X423885Y118795D02*
X426058Y116622D01*
X426846Y111110D02*
X429051D01*
X481614Y107827D02*
X482721Y106720D01*
Y102504D02*
Y106720D01*
X479681Y99465D02*
X482721Y102504D01*
X484756Y111567D02*
X485098Y111909D01*
X479681Y95819D02*
X479681Y95819D01*
X463728Y107780D02*
X463776Y107827D01*
X470134D01*
X457972Y105559D02*
Y112528D01*
X460752Y115307D01*
X470134D01*
X409271Y75000D02*
X435823Y48448D01*
X460043Y75000D02*
X469051Y84008D01*
X409271Y75000D02*
X460043D01*
X540606Y170012D02*
X541335Y169283D01*
X513016Y67047D02*
X516728D01*
X547634Y56488D02*
X547634Y56488D01*
X435823Y27157D02*
Y48448D01*
X266516Y50025D02*
X275652Y40890D01*
X267902Y50599D02*
X276225Y42276D01*
X269288Y51134D02*
X276760Y43661D01*
X400886Y66630D02*
X403146Y68890D01*
X400886Y59441D02*
Y66630D01*
X399209Y149784D02*
X399681Y149311D01*
X399209Y149784D02*
Y150386D01*
X395272Y149598D02*
Y150386D01*
X320429Y167118D02*
Y167512D01*
X325665Y169913D02*
X326806D01*
X328263Y168456D01*
Y168086D02*
Y168456D01*
Y168086D02*
X338876Y157472D01*
X389075Y174805D02*
Y180701D01*
X288973Y198811D02*
X302863D01*
X287004Y196842D02*
X288973Y198811D01*
X287004Y141724D02*
Y196842D01*
X284445Y139165D02*
X287004Y141724D01*
X357130Y156087D02*
X382880D01*
X332201Y159362D02*
X335476Y156087D01*
X325783Y165858D02*
X332201Y159441D01*
X319484Y163142D02*
X320705D01*
X314784Y134341D02*
Y182535D01*
X313398Y133878D02*
Y165614D01*
X418066Y59087D02*
X418067D01*
X418185Y58969D01*
Y54402D02*
Y58969D01*
X421138Y52630D02*
Y56685D01*
X429562Y48694D02*
X429562Y48693D01*
X414665Y46449D02*
X414861Y46252D01*
X410626Y46449D02*
X410720Y46543D01*
X410626Y46449D02*
X414665D01*
X410720Y46543D02*
X420162D01*
X426862Y48694D02*
X429562D01*
X424113Y45945D02*
X426862Y48694D01*
X427870Y51661D02*
Y52748D01*
X423539Y47331D02*
X427870Y51661D01*
X420761Y45945D02*
X424113D01*
X397445Y75000D02*
X409271D01*
X420665Y52157D02*
X421138Y52630D01*
X423736Y53379D02*
Y53653D01*
X422396Y52040D02*
X423736Y53379D01*
X422396Y52040D02*
Y52040D01*
Y52040D02*
X422590Y51846D01*
Y51134D02*
Y51846D01*
X417909Y54126D02*
X418185Y54402D01*
X421448Y49992D02*
X422590Y51134D01*
X411020Y49992D02*
X421448D01*
X421335Y47331D02*
X423539D01*
X420248Y48417D02*
X421335Y47331D01*
X410232Y48417D02*
X420248D01*
X420162Y46543D02*
X420761Y45945D01*
X410823Y50189D02*
X411020Y49992D01*
X425980Y37157D02*
Y37315D01*
X421335Y35740D02*
X421783D01*
X410429Y43992D02*
X418766D01*
X420981Y31417D02*
X423972Y28426D01*
X423185Y32866D02*
X423776Y32276D01*
X410429Y36409D02*
X414134D01*
X410138Y38378D02*
X410335Y38181D01*
X422467Y32866D02*
X423185D01*
X422326Y32724D02*
X422467Y32866D01*
X420114Y27141D02*
X420160Y27187D01*
X423972Y27709D02*
Y28426D01*
X198422Y51134D02*
X235303Y14252D01*
X198422Y51134D02*
Y118795D01*
X341555Y12386D02*
X380098D01*
X197036Y50599D02*
X234769Y12866D01*
X197036Y50599D02*
Y51173D01*
X197036D02*
X197036D01*
X197036D02*
Y100386D01*
X195650Y50025D02*
X234195Y11480D01*
X195650Y50025D02*
Y50599D01*
X195650Y50599D02*
X195650Y50599D01*
X195650Y50599D02*
Y82669D01*
X194264Y49451D02*
Y64953D01*
X190918Y68299D02*
X194264Y64953D01*
X214752Y50513D02*
X246612Y18654D01*
X214752Y50513D02*
Y51173D01*
X214752D02*
X214752D01*
X214752D02*
Y100386D01*
X179319Y50599D02*
X222596Y7323D01*
X179319Y50599D02*
Y51173D01*
X179319D02*
X179319D01*
X179319D02*
Y100386D01*
X194264Y49451D02*
X233621Y10095D01*
X309791Y75955D02*
X324626Y90790D01*
X248799Y50599D02*
Y82669D01*
X376848Y89810D02*
X383169Y96131D01*
X250185Y50599D02*
X264052Y36732D01*
X250185Y50599D02*
Y51173D01*
X250185D02*
X250185D01*
X250185D02*
Y100386D01*
X248799Y50025D02*
X263478Y35346D01*
X248799Y50025D02*
Y50599D01*
X248799Y50599D02*
X248799Y50599D01*
X232469Y50599D02*
X258871Y24197D01*
X232469Y50599D02*
Y51173D01*
X232469D02*
X232469D01*
X232469D02*
Y100386D01*
X231083Y50025D02*
X258297Y22811D01*
X231083Y50025D02*
Y50599D01*
X231083Y50599D02*
X231083Y50599D01*
X231083Y50599D02*
Y82669D01*
X394105Y81512D02*
X400886Y88292D01*
X394758Y80205D02*
X402854Y88301D01*
X395411Y78898D02*
X404823Y88309D01*
X327194Y81504D02*
X327202Y81512D01*
X304248Y74024D02*
Y109782D01*
X298523Y68299D02*
X304248Y74024D01*
X322478Y124992D02*
X322479Y124992D01*
X313579Y124992D02*
X322478D01*
X308658Y120071D02*
X313579Y124992D01*
X295305Y120071D02*
Y121449D01*
X295374D01*
X302862Y101780D02*
Y110356D01*
X299980Y98899D02*
X302862Y101780D01*
X299980Y84638D02*
Y98899D01*
X295505Y84638D02*
X299980D01*
X295505D02*
Y86016D01*
X276839Y204354D02*
X305048D01*
X268736Y196252D02*
X276839Y204354D01*
X268697Y196252D02*
X268736D01*
X268697Y141134D02*
Y196252D01*
X266138Y138575D02*
X268697Y141134D01*
X251571Y141724D02*
Y196882D01*
X264587Y209898D02*
X307344D01*
X251571Y196882D02*
X264587Y209898D01*
X249012Y139165D02*
X251571Y141724D01*
X233933Y196842D02*
X252532Y215441D01*
X233855Y196842D02*
X233933D01*
X233855Y141724D02*
Y196842D01*
X231295Y139165D02*
X233855Y141724D01*
X214752Y197417D02*
X239706Y222370D01*
X197036Y197542D02*
X227408Y227913D01*
X198422Y197079D02*
X227870Y226528D01*
X180705Y197315D02*
X215461Y232071D01*
X247193Y20039D02*
X274332D01*
X216138Y51094D02*
X247193Y20039D01*
X216138Y51094D02*
Y118795D01*
X269288Y51134D02*
Y118795D01*
X383169Y96131D02*
Y105897D01*
X267902Y50599D02*
Y51173D01*
X383452Y13780D02*
X383469D01*
X387106Y18000D02*
Y27157D01*
X223169Y8709D02*
X313333D01*
X180705Y51173D02*
X223169Y8709D01*
X379524Y171252D02*
X383169Y174898D01*
X387106Y174797D02*
Y180701D01*
X379524Y168480D02*
X380790D01*
X284232Y197417D02*
Y197991D01*
X410138Y36512D02*
X410232Y36606D01*
X410138Y44283D02*
X410429Y43992D01*
X289666Y163378D02*
X290256Y163969D01*
X289666Y145662D02*
X290256Y146252D01*
X164957Y196842D02*
X168894Y200780D01*
X162398Y194874D02*
X162988D01*
X162398Y141134D02*
Y194874D01*
X142500Y177157D02*
Y199976D01*
X124784Y177157D02*
Y199976D01*
X289666Y181095D02*
X290256Y181685D01*
X379524Y139756D02*
X381098Y138181D01*
X272539Y146252D02*
X277657D01*
X254823Y181685D02*
X259941D01*
X254823Y163969D02*
X259941D01*
X237106D02*
X242224D01*
X236516Y181095D02*
X237106Y181685D01*
X254823Y146252D02*
X259941D01*
X254233Y127945D02*
X254823Y128535D01*
X237106Y146252D02*
X242224D01*
X219390D02*
X224508D01*
X290256Y110819D02*
X295374D01*
X290256Y93102D02*
X295374D01*
X272539Y110819D02*
X277657D01*
X272539Y93102D02*
X277657D01*
X272539Y75386D02*
X277657D01*
X290256D02*
X295374D01*
X290256Y57669D02*
X295374D01*
X272539D02*
X277657D01*
X254823Y110819D02*
X259941D01*
X254823Y93102D02*
X259941D01*
X237106Y110819D02*
X242224D01*
X237106Y93102D02*
X242224D01*
X254823Y75386D02*
X259941D01*
X237106D02*
X242224D01*
X254823Y57669D02*
X259941D01*
X237106D02*
X242224D01*
X219390Y75386D02*
X224508D01*
X219390Y57669D02*
X224508D01*
X201083Y181095D02*
X201673Y181685D01*
X183957Y163969D02*
X189075D01*
X183957Y146252D02*
X189075D01*
X183366Y181095D02*
X183957Y181685D01*
X166240Y146252D02*
X171358D01*
X201673D02*
X206791D01*
X201083Y127945D02*
X201673Y128535D01*
X130807Y181685D02*
X135925D01*
X130807Y163969D02*
X135925D01*
X113091Y181685D02*
X118209D01*
X113091Y163969D02*
X118209D01*
X148523Y146252D02*
X153641D01*
X130807D02*
X135925D01*
X130807Y128535D02*
X135925D01*
X130217Y127945D02*
X130807Y128535D01*
X113091Y146252D02*
X118209D01*
X113091Y128535D02*
X118209D01*
X201673Y110819D02*
X206791D01*
X201673Y93102D02*
X206791D01*
X183957Y110819D02*
X189075D01*
X183957Y93102D02*
X189075D01*
X166240Y110819D02*
X171358D01*
X201673Y75386D02*
X206791D01*
X183957D02*
X189075D01*
X183366Y74795D02*
X183957Y75386D01*
Y57669D02*
X189075D01*
X201673D02*
X206791D01*
X166240Y75386D02*
X171358D01*
X166240Y57669D02*
X171358D01*
X165650Y74795D02*
X166240Y75386D01*
X148523D02*
X153641D01*
X148523Y57669D02*
X153641D01*
X165650Y57079D02*
X166240Y57669D01*
X148523Y110819D02*
X153641D01*
X130807D02*
X135925D01*
X130807Y93102D02*
X135925D01*
X113091Y110819D02*
X118209D01*
X95374D02*
X100492D01*
X95374Y93102D02*
X100492D01*
X113091D02*
X118209D01*
X130807Y75386D02*
X135925D01*
X130807Y57669D02*
X135925D01*
X147933Y57079D02*
X148523Y57669D01*
X113091Y75386D02*
X118209D01*
X113091Y57669D02*
X118209D01*
X385138Y55494D02*
Y59441D01*
Y55494D02*
X386412Y54221D01*
X386909D01*
X387398Y53732D01*
X398917Y59441D02*
Y68598D01*
X379524Y61016D02*
X381098Y59441D01*
X379524Y214559D02*
X381098Y212984D01*
X155484Y68299D02*
X158831Y64953D01*
X173201Y68299D02*
X176547Y64953D01*
X94784Y110228D02*
X95374Y110819D01*
X94784Y92512D02*
X95374Y93102D01*
X94784Y74795D02*
X95374Y75386D01*
X100492D01*
X94784Y57079D02*
X95374Y57669D01*
X100492D01*
X130217Y57079D02*
X130807Y57669D01*
X130217Y74795D02*
X130807Y75386D01*
X130217Y92512D02*
X130807Y93102D01*
X147933Y74795D02*
X148523Y75386D01*
X147933Y92512D02*
X148523Y93102D01*
X147933Y110228D02*
X148523Y110819D01*
X165650Y92512D02*
X166240Y93102D01*
X183366Y57079D02*
X183957Y57669D01*
X183366Y92512D02*
X183957Y93102D01*
X183366Y110228D02*
X183957Y110819D01*
X201083Y57079D02*
X201673Y57669D01*
X201083Y74795D02*
X201673Y75386D01*
X201083Y92512D02*
X201673Y93102D01*
X201083Y110228D02*
X201673Y110819D01*
X218799Y57079D02*
X219390Y57669D01*
X218799Y74795D02*
X219390Y75386D01*
X218799Y92512D02*
X219390Y93102D01*
X218799Y110228D02*
X219390Y110819D01*
X236516Y57079D02*
X237106Y57669D01*
X254233Y57079D02*
X254823Y57669D01*
X254233Y74795D02*
X254823Y75386D01*
X254233Y92512D02*
X254823Y93102D01*
X254233Y110228D02*
X254823Y110819D01*
X271949Y57079D02*
X272539Y57669D01*
X271949Y74795D02*
X272539Y75386D01*
X271949Y92512D02*
X272539Y93102D01*
X271949Y110228D02*
X272539Y110819D01*
X289666Y57079D02*
X290256Y57669D01*
X95374Y128535D02*
X100492D01*
X94784Y127945D02*
X95374Y128535D01*
Y146252D02*
X100492D01*
X94784Y145662D02*
X95374Y146252D01*
X94784Y163378D02*
X95374Y163969D01*
X94784Y181095D02*
X95374Y181685D01*
X112500Y127945D02*
X113091Y128535D01*
X112500Y145662D02*
X113091Y146252D01*
X112500Y163378D02*
X113091Y163969D01*
X112500Y181095D02*
X113091Y181685D01*
X130217Y145662D02*
X130807Y146252D01*
X130217Y163378D02*
X130807Y163969D01*
X148523Y128535D02*
X153641D01*
X147933Y145662D02*
X148523Y146252D01*
Y163969D02*
X153641D01*
X147933Y163378D02*
X148523Y163969D01*
X147933Y181095D02*
X148523Y181685D01*
X166240Y128535D02*
X171358D01*
X165650Y127945D02*
X166240Y128535D01*
X165650Y145662D02*
X166240Y146252D01*
X165650Y163378D02*
X166240Y163969D01*
X165650Y181095D02*
X166240Y181685D01*
X183366Y127945D02*
X183957Y128535D01*
X201083Y145662D02*
X201673Y146252D01*
X201083Y163378D02*
X201673Y163969D01*
X219390Y128535D02*
X224508D01*
X218799Y127945D02*
X219390Y128535D01*
X218799Y145662D02*
X219390Y146252D01*
X218799Y163378D02*
X219390Y163969D01*
X218799Y181095D02*
X219390Y181685D01*
X254823Y128535D02*
X259941D01*
X254233Y145662D02*
X254823Y146252D01*
X254233Y163378D02*
X254823Y163969D01*
X254233Y181095D02*
X254823Y181685D01*
X272539Y128535D02*
X277657D01*
X271949Y127945D02*
X272539Y128535D01*
X271949Y145662D02*
X272539Y146252D01*
X271949Y163378D02*
X272539Y163969D01*
X271949Y181095D02*
X272539Y181685D01*
X290256Y146252D02*
X295374D01*
X290256Y163969D02*
X295374D01*
X118305Y84638D02*
X122815D01*
X124784Y82669D01*
X124311Y102244D02*
X126169Y100386D01*
X118305Y102354D02*
X124311D01*
X126279Y120071D02*
X127555Y118795D01*
X118305Y120071D02*
X126279D01*
X137768Y68299D02*
X141114Y64953D01*
X142028Y102244D02*
X143886Y100386D01*
X136005Y102354D02*
X142028D01*
X143996Y120071D02*
X145272Y118795D01*
X153705Y84638D02*
X158248D01*
X160216Y82669D01*
X159744Y102244D02*
X161602Y100386D01*
X153773Y102354D02*
X159744D01*
X161713Y120071D02*
X162988Y118795D01*
X153790Y120071D02*
X161713D01*
X171505Y84638D02*
X175965D01*
X177933Y82669D01*
X177461Y102244D02*
X179319Y100386D01*
X180705Y51173D02*
Y118795D01*
X179429Y120071D02*
X180705Y118795D01*
X193681Y84638D02*
X195650Y82669D01*
X195177Y102244D02*
X197036Y100386D01*
X197146Y120071D02*
X198422Y118795D01*
X211981Y49451D02*
Y64953D01*
X208634Y68299D02*
X211981Y64953D01*
X213366Y50599D02*
Y82669D01*
X211398Y84638D02*
X213366Y82669D01*
X212894Y102244D02*
X214752Y100386D01*
X214862Y120071D02*
X216138Y118795D01*
X226350Y68299D02*
X229697Y64953D01*
X229114Y84638D02*
X231083Y82669D01*
X230610Y102244D02*
X232469Y100386D01*
X233855Y51173D02*
Y118795D01*
X232579Y120071D02*
X233855Y118795D01*
X247413Y49451D02*
Y64953D01*
X244067Y68299D02*
X247413Y64953D01*
X242305Y84638D02*
X246831D01*
X248799Y82669D01*
X248327Y102244D02*
X250185Y100386D01*
X251571Y51173D02*
Y118795D01*
X250295Y120071D02*
X251571Y118795D01*
X265130Y49451D02*
Y64953D01*
X261784Y68299D02*
X265130Y64953D01*
X260005Y84638D02*
X264547D01*
X266516Y82669D01*
X267902Y51173D02*
Y100386D01*
X266043Y102244D02*
X267902Y100386D01*
X268012Y120071D02*
X269288Y118795D01*
X282846Y49451D02*
Y64953D01*
X279500Y68299D02*
X282846Y64953D01*
X277805Y84638D02*
X282264D01*
X284232Y82669D01*
X285618Y51173D02*
Y100386D01*
X283760Y102244D02*
X285618Y100386D01*
X287004Y51173D02*
Y118795D01*
X285728Y120071D02*
X287004Y118795D01*
X277805Y120071D02*
X285728D01*
X136005Y84638D02*
X140532D01*
X142500Y82669D01*
X112500Y110228D02*
X113091Y110819D01*
X112500Y92512D02*
X113091Y93102D01*
X112500Y74795D02*
X113091Y75386D01*
X105098Y84638D02*
X107067Y82669D01*
X101870Y84638D02*
X105098D01*
X100492Y86016D02*
X101870Y84638D01*
X106595Y102244D02*
X108453Y100386D01*
X100492Y103732D02*
X101870Y102354D01*
Y120071D02*
X108563D01*
X100492Y121449D02*
X101870Y120071D01*
X108563D02*
X109839Y118795D01*
X101083Y157472D02*
X105902D01*
X108453Y160024D01*
X101082Y192905D02*
X104232D01*
X107280Y139165D02*
X109839Y141724D01*
X104232Y192905D02*
X105681Y194354D01*
X121949Y192905D02*
X123398Y194354D01*
X118799Y192905D02*
X121949D01*
X122224Y174598D02*
X124784Y177157D01*
X123618Y157472D02*
X126169Y160024D01*
X118799Y157472D02*
X123618D01*
X139665Y192905D02*
X141114Y194354D01*
X142713Y139165D02*
X145272Y141724D01*
X136515Y192905D02*
X139665D01*
X139941Y174598D02*
X142500Y177157D01*
X141335Y157472D02*
X143886Y160024D01*
X136516Y157472D02*
X141335D01*
X153051Y191725D02*
X153641Y192315D01*
X158461Y156882D02*
X161012Y159433D01*
X153051Y156291D02*
X153642Y156882D01*
X175374Y174598D02*
X177933Y177157D01*
X194484Y157472D02*
X197036Y160024D01*
X189665Y157472D02*
X194484D01*
X210531Y192905D02*
X211981Y194354D01*
X207382Y192905D02*
X210531D01*
X210807Y174598D02*
X213366Y177157D01*
X212201Y157472D02*
X214752Y160024D01*
X207382Y157472D02*
X212201D01*
X228248Y192905D02*
X229697Y194354D01*
X225098Y192905D02*
X228248D01*
X228524Y174598D02*
X231083Y177157D01*
X232469Y160024D02*
Y196842D01*
X229918Y157472D02*
X232469Y160024D01*
X225098Y157472D02*
X229918D01*
X245965Y192905D02*
X247413Y194354D01*
X242815Y192905D02*
X245965D01*
X246240Y174598D02*
X248799Y177157D01*
X250185Y160024D02*
Y196842D01*
X247634Y157472D02*
X250185Y160024D01*
X242815Y157472D02*
X247634D01*
X263091Y192315D02*
X264540Y193764D01*
X259350Y191725D02*
X259941Y192315D01*
X263367Y174008D02*
X265926Y176567D01*
X267311Y159433D02*
Y196252D01*
X264760Y156882D02*
X267311Y159433D01*
X259350Y156291D02*
X259941Y156882D01*
X281398Y192905D02*
X282846Y194354D01*
X278248Y192905D02*
X281398D01*
X281673Y174598D02*
X284232Y177157D01*
X285618Y160024D02*
Y196842D01*
X283067Y157472D02*
X285618Y160024D01*
X278248Y157472D02*
X283067D01*
X304413Y139165D02*
X310626Y132953D01*
X295965Y157472D02*
X304413D01*
X287004Y51173D02*
X288973Y49205D01*
X285618Y51173D02*
X285618D01*
Y50599D02*
Y51173D01*
Y50599D02*
X288399Y47819D01*
X284232Y50599D02*
X284232Y50599D01*
Y50025D02*
Y50599D01*
Y50025D02*
X287825Y46433D01*
X282846Y49451D02*
X287250Y45047D01*
X267902Y51173D02*
X267902D01*
X266516Y50599D02*
X266516Y50599D01*
Y50025D02*
Y50599D01*
X265130Y49451D02*
X275078Y39504D01*
X305634Y77677D02*
X320468Y92512D01*
X285618Y196842D02*
X285618D01*
Y197417D01*
X288399Y200197D01*
X284232Y177157D02*
Y197417D01*
X284232D01*
X282846Y194354D02*
Y198564D01*
X287250Y202968D01*
X267311Y196252D02*
X267312D01*
Y196826D01*
X265926Y176567D02*
Y196826D01*
X265926D01*
Y197400D01*
X250185Y196842D02*
X250185D01*
Y197417D01*
X264052Y211283D01*
X248799Y177157D02*
Y197417D01*
X248799D01*
Y197991D01*
X247413Y198564D02*
X262904Y214055D01*
X232469Y196842D02*
X232469D01*
Y197417D01*
X231083Y177157D02*
Y197417D01*
X231083D01*
Y197991D01*
X306770Y208512D02*
X313548Y201734D01*
X307918Y211283D02*
X315508Y203693D01*
X309066Y214055D02*
X317468Y205653D01*
X310214Y216827D02*
X319428Y207613D01*
X311362Y219598D02*
X321388Y209573D01*
X275078Y208512D02*
X306770D01*
X287250Y202968D02*
X304474D01*
X288399Y200197D02*
X303326D01*
X264052Y211283D02*
X307918D01*
X262904Y214055D02*
X309066D01*
X251879Y216827D02*
X310214D01*
X250731Y219598D02*
X311362D01*
X415307Y235837D02*
X421083Y230061D01*
X414733Y234451D02*
X419697Y229487D01*
X251571Y51173D02*
X264626Y38118D01*
X247413Y49451D02*
X262904Y33961D01*
X233855Y51173D02*
X259445Y25583D01*
X229697Y49451D02*
X257723Y21425D01*
X213366Y50599D02*
X213367Y50599D01*
Y50025D02*
Y50599D01*
Y50025D02*
X246124Y17268D01*
X257723Y21425D02*
X273758D01*
X280207Y27874D01*
X274332Y20039D02*
X280781Y26488D01*
X211981Y49451D02*
X245794Y15638D01*
X313333Y8709D02*
X318396Y13772D01*
X177933Y50599D02*
X177933Y50599D01*
Y50025D02*
Y50599D01*
Y50025D02*
X222021Y5937D01*
X176547Y49451D02*
X221447Y4551D01*
X380672Y11000D02*
X383452Y13780D01*
X381246Y9614D02*
X384432Y12800D01*
X393524Y82890D02*
X397240Y86606D01*
X318107Y72416D02*
X327194Y81504D01*
X378570Y85652D02*
X383461Y90543D01*
X313949Y74233D02*
X326754Y87038D01*
X312563Y74807D02*
X326180Y88424D01*
X320468Y92512D02*
Y110228D01*
X321854Y91938D02*
Y109654D01*
X325385Y113185D01*
X323240Y91364D02*
Y109080D01*
X326365Y112205D01*
X307020Y77103D02*
X321854Y91938D01*
X308406Y76529D02*
X323240Y91364D01*
X304474Y202968D02*
X336191Y171252D01*
X303326Y200197D02*
X335043Y168480D01*
X159626Y199386D02*
X161020Y200780D01*
X164957Y200197D02*
Y200780D01*
X157083Y198811D02*
Y200780D01*
Y198811D02*
X158240Y197653D01*
X156791Y192315D02*
X158240Y193764D01*
X157067Y174008D02*
X159626Y176567D01*
X161012Y159433D02*
Y196252D01*
X164957Y200197D01*
X159839Y138575D02*
X162398Y141134D01*
X162988Y194874D02*
X164957Y196842D01*
X147831Y197433D02*
X151768Y201370D01*
X145862Y195464D02*
X147831Y197433D01*
X145272Y195464D02*
X145862D01*
X145272Y141724D02*
Y195464D01*
X143886Y196842D02*
X147831Y200787D01*
X143886Y160024D02*
Y196842D01*
X141114Y194354D02*
Y198244D01*
X139957Y199401D02*
X141114Y198244D01*
X139957Y199401D02*
Y201370D01*
X147831Y200787D02*
Y201370D01*
X142500Y199976D02*
X143894Y201370D01*
X130114Y197433D02*
X134051Y201370D01*
X128146Y195464D02*
X130114Y197433D01*
X127555Y195464D02*
X128146D01*
X127555Y141724D02*
Y195464D01*
X126169Y196842D02*
X130114Y200787D01*
X126169Y160024D02*
Y196842D01*
X123398Y194354D02*
Y198244D01*
X122240Y199401D02*
X123398Y198244D01*
X122240Y199401D02*
Y201370D01*
X130114Y200787D02*
Y201370D01*
X124784Y199976D02*
X126177Y201370D01*
X112398Y197433D02*
X116334Y201370D01*
X110429Y195464D02*
X112398Y197433D01*
X109839Y195464D02*
X110429D01*
X109839Y141724D02*
Y195464D01*
X108453Y196842D02*
X112398Y200787D01*
X108453Y160024D02*
Y196842D01*
X105681Y194354D02*
Y198244D01*
X104524Y199401D02*
X105681Y198244D01*
X104524Y199401D02*
Y201370D01*
X112398Y200787D02*
Y201370D01*
X155114Y47236D02*
Y47457D01*
X159051Y47236D02*
X160216Y48401D01*
X161602Y48622D02*
X162988Y47236D01*
X143886Y48622D02*
X145272Y47236D01*
X137398D02*
Y47457D01*
X127555Y51173D02*
X131492Y47236D01*
X126169Y48622D02*
X127555Y47236D01*
X123618D02*
X124784Y48401D01*
X119681Y47236D02*
Y47457D01*
X123398Y51173D01*
X109839D02*
X113776Y47236D01*
X108453Y48622D02*
X109839Y47236D01*
X105902D02*
X107067Y48401D01*
X101965Y47236D02*
Y47457D01*
X105681Y51173D01*
X112500Y57079D02*
X113091Y57669D01*
X148523Y93102D02*
X153641D01*
X130217Y110228D02*
X130807Y110819D01*
X166240Y93102D02*
X171358D01*
X165650Y110228D02*
X166240Y110819D01*
X95374Y163969D02*
X100492D01*
X147933Y127945D02*
X148523Y128535D01*
X95374Y181685D02*
X100492D01*
X130217Y181095D02*
X130807Y181685D01*
X183957Y128535D02*
X189075D01*
X201673D02*
X206791D01*
X183366Y145662D02*
X183957Y146252D01*
X166240Y163969D02*
X171358D01*
X148523Y181685D02*
X153641D01*
X166240D02*
X171358D01*
X183366Y163378D02*
X183957Y163969D01*
Y181685D02*
X189075D01*
X201673Y163969D02*
X206791D01*
X201673Y181685D02*
X206791D01*
X219390Y93102D02*
X224508D01*
X236516Y74795D02*
X237106Y75386D01*
X236516Y92512D02*
X237106Y93102D01*
X236516Y110228D02*
X237106Y110819D01*
X219390D02*
X224508D01*
X289666Y110228D02*
X290256Y110819D01*
X236516Y127945D02*
X237106Y128535D01*
X236516Y145662D02*
X237106Y146252D01*
Y128535D02*
X242224D01*
X219390Y163969D02*
X224508D01*
X236516Y163378D02*
X237106Y163969D01*
X219390Y181685D02*
X224508D01*
X237106D02*
X242224D01*
X272539Y163969D02*
X277657D01*
X272539Y181685D02*
X277657D01*
X289666Y127945D02*
X290256Y128535D01*
Y181685D02*
X295374D01*
X124996Y139165D02*
X127555Y141724D01*
X290256Y128535D02*
X295374D01*
X289666Y74795D02*
X290256Y75386D01*
X289666Y92512D02*
X290256Y93102D01*
X176547Y49451D02*
Y64953D01*
X383169Y174898D02*
Y180701D01*
X385138Y174906D02*
Y180701D01*
X380098Y169866D02*
X380216D01*
X380098D02*
X385138Y174906D01*
X380790Y168480D02*
X387106Y174797D01*
X377815Y122984D02*
X377854Y123023D01*
X159744Y102244D02*
Y102354D01*
X142028Y102244D02*
Y102354D01*
X124311Y102244D02*
Y102354D01*
X177461Y102244D02*
Y102354D01*
X195177Y102244D02*
Y102354D01*
X212894Y102244D02*
Y102354D01*
X230610Y102244D02*
Y102354D01*
X248327Y102244D02*
Y102354D01*
X266043Y102244D02*
Y102354D01*
X283760Y102244D02*
Y102354D01*
X415649Y203732D02*
X419697Y207781D01*
X415649Y201764D02*
X421083Y207198D01*
X415649Y199795D02*
X422469Y206615D01*
X415649Y197827D02*
X423854Y206033D01*
X415649Y195858D02*
X425240Y205450D01*
X415649Y191921D02*
X428012Y204285D01*
X372342Y36409D02*
X377854D01*
X391043Y136203D02*
Y138181D01*
X386411Y132961D02*
X387801D01*
X385138Y134234D02*
X386411Y132961D01*
X385138Y134234D02*
Y138181D01*
X387801Y132961D02*
X389075Y134234D01*
X418106Y9441D02*
X435823Y27157D01*
X383461Y90543D02*
X389075Y96157D01*
X407870Y62488D02*
Y68890D01*
X398917Y68598D02*
X399209Y68890D01*
X387398Y53732D02*
X389075Y55409D01*
Y59441D01*
X324626Y90790D02*
Y108506D01*
X404823Y88309D02*
Y105897D01*
X377422Y88424D02*
X385138Y96140D01*
Y105897D01*
X387106Y96149D02*
Y105897D01*
X389075Y96157D02*
Y105897D01*
X397240Y86606D02*
X398917Y88283D01*
X402854Y88301D02*
Y105897D01*
X400886Y88292D02*
Y105897D01*
X398917Y88283D02*
Y105897D01*
Y138181D02*
Y147338D01*
X391335Y68890D02*
X394980Y65244D01*
Y59441D02*
Y65244D01*
X395272Y68890D02*
X396949Y67213D01*
Y59441D02*
Y67213D01*
X384736Y146527D02*
Y152064D01*
X391335Y147630D02*
X394980Y143984D01*
Y138181D02*
Y143984D01*
X396949Y138181D02*
Y145953D01*
X400886Y138181D02*
Y145370D01*
X403146Y147630D01*
X398917Y212984D02*
Y222142D01*
X399209Y222433D01*
X399732Y148153D02*
Y149784D01*
X394409Y150123D02*
X394746D01*
X382880Y156087D02*
X395667Y168874D01*
X383454Y154701D02*
X396241Y167488D01*
X382306Y157472D02*
X395093Y170260D01*
X394980Y175181D02*
X397240Y172921D01*
X394980Y175181D02*
Y180701D01*
X387801Y207764D02*
X389075Y209038D01*
Y212984D01*
X385138Y209038D02*
Y212984D01*
Y209038D02*
X386411Y207764D01*
X414376Y131189D02*
X414570D01*
X414861Y130897D01*
X411909Y126960D02*
X412201Y126669D01*
X410138Y124992D02*
X410248Y124882D01*
X426460D02*
X426571Y124992D01*
X410248Y124882D02*
X426460D01*
X384736Y152064D02*
X393531Y160858D01*
X412201Y126669D02*
X417193D01*
X417594Y126268D01*
X420760D01*
X424406Y129913D01*
X410138Y121055D02*
X410248Y120945D01*
X426768Y119283D02*
X427161D01*
X410335Y119086D02*
X410626Y118795D01*
X423885D01*
X410248Y120945D02*
X425106D01*
X426768Y119283D01*
X425468Y122331D02*
X430209D01*
X431713Y113772D02*
X433067D01*
X432153Y116622D02*
X434815Y119283D01*
X414376Y131189D02*
X421256Y138069D01*
X426878Y114842D02*
X427949Y113772D01*
X429051Y111110D02*
X431713Y113772D01*
X424776Y123023D02*
X425468Y122331D01*
X430209D02*
X430311Y122433D01*
X415547Y111212D02*
X418327Y108433D01*
X229697Y49451D02*
Y64953D01*
X284232Y50599D02*
Y82669D01*
X177933Y50599D02*
Y82669D01*
X160216Y48401D02*
Y82669D01*
X159626Y176567D02*
Y199386D01*
X158240Y193764D02*
Y197653D01*
X386411Y207764D02*
X387801D01*
X247413Y194354D02*
Y198564D01*
X229697Y194354D02*
Y198564D01*
X264540Y193764D02*
Y197974D01*
X108453Y48622D02*
Y100386D01*
X143886Y48622D02*
Y100386D01*
X304413Y174598D02*
X313398Y165614D01*
X295964Y192905D02*
X304413D01*
X314784Y182535D01*
X304413Y157472D02*
X311714Y150172D01*
X301247Y106849D02*
X301477D01*
Y110930D01*
X311714Y133714D02*
Y150172D01*
X301477Y110930D02*
X313531Y122984D01*
X407870Y141228D02*
Y147630D01*
X394746Y150123D02*
X395272Y149598D01*
X295505Y102354D02*
X296752D01*
X277805D02*
X283760D01*
X259905Y103732D02*
X259941D01*
X260005Y102286D02*
X260073Y102354D01*
X266043D01*
X242305D02*
X248327D01*
X224605D02*
X230610D01*
X206705Y103732D02*
X206791D01*
X206905Y102286D02*
X206973Y102354D01*
X212894D01*
X189205D02*
X195177D01*
X171505D02*
X177461D01*
X153605Y103732D02*
X153641D01*
X153705Y102286D02*
X153773Y102354D01*
X153051Y138575D02*
X153641Y139165D01*
X259905Y121449D02*
X259941D01*
X260005Y119986D02*
X260090Y120071D01*
X268012D01*
X242205Y121449D02*
X242224D01*
X224605Y120071D02*
X232579D01*
X224605Y84638D02*
X229114D01*
X206705Y121449D02*
X206791D01*
X206905Y119986D02*
X206990Y120071D01*
X214862D01*
X206905Y84638D02*
X211398D01*
X189005Y121449D02*
X189075D01*
X189205Y84638D02*
X193681D01*
X171505Y120071D02*
X179429D01*
X153605Y121449D02*
X153641D01*
X153705Y119986D02*
X153790Y120071D01*
X135905Y121449D02*
X135925D01*
X259305Y174598D02*
X259941D01*
X410283Y48366D02*
X410429Y48220D01*
X153605Y102286D02*
Y103732D01*
X136005Y102354D02*
Y103732D01*
X118305Y102354D02*
Y103732D01*
X410283Y36555D02*
X410429Y36409D01*
X153605Y119986D02*
Y121449D01*
X135905Y120071D02*
Y121449D01*
X118305Y120071D02*
Y121449D01*
X171505Y120071D02*
Y121449D01*
X224605Y120071D02*
Y121449D01*
X206705Y119986D02*
Y121449D01*
X189005Y120071D02*
Y121449D01*
X242205Y120071D02*
Y121449D01*
X259905Y119986D02*
Y121449D01*
X277805Y120071D02*
Y121449D01*
X171505Y102354D02*
Y103732D01*
X189205Y102354D02*
Y103732D01*
X206705Y102286D02*
Y103732D01*
X224605Y102354D02*
Y103732D01*
X242305Y102354D02*
Y103732D01*
X259905Y102286D02*
Y103732D01*
X277805Y102354D02*
Y103732D01*
X295505Y102354D02*
Y103732D01*
X118305Y84638D02*
Y86016D01*
X136005Y84638D02*
Y86016D01*
X153705Y84638D02*
Y86016D01*
X171505Y84638D02*
Y86016D01*
X189205Y84638D02*
Y86016D01*
X206905Y84638D02*
Y86016D01*
X224605Y84638D02*
Y86016D01*
X242305Y84638D02*
Y86016D01*
X260005Y84638D02*
Y86016D01*
X277805Y84638D02*
Y86016D01*
X284232Y197991D02*
X287825Y201583D01*
X303900D01*
X267312Y196826D02*
X276225Y205740D01*
X265926Y197400D02*
X275652Y207126D01*
X306196D01*
X264540Y197974D02*
X275078Y208512D01*
X229697Y198564D02*
X250731Y219598D01*
X248799Y197991D02*
X263478Y212669D01*
X308492D01*
X232469Y197417D02*
X251879Y216827D01*
X231083Y197991D02*
X251305Y218213D01*
X310788D01*
X211981Y198564D02*
X238558Y225142D01*
X421083Y207198D02*
Y230061D01*
X419697Y207781D02*
Y229487D01*
X213367Y197991D02*
X239132Y223756D01*
X213367Y197417D02*
Y197991D01*
X213366Y197417D02*
X213367D01*
X211981Y194354D02*
Y198564D01*
X213366Y177157D02*
Y197417D01*
X137398Y47457D02*
X141114Y51173D01*
Y64953D01*
X141335Y47236D02*
X142500Y48401D01*
Y82669D01*
X145272Y51173D02*
Y118795D01*
Y51173D02*
X149209Y47236D01*
X162988Y51173D02*
Y118795D01*
Y51173D02*
X166925Y47236D01*
X161602Y48622D02*
Y100386D01*
X155114Y47457D02*
X158831Y51173D01*
Y64953D01*
X266516Y50599D02*
Y82669D01*
X421256Y138069D02*
Y138575D01*
X395667Y168874D02*
X395824Y169031D01*
X398917Y147338D02*
X399681Y148102D01*
X399209Y147630D02*
X399681Y148102D01*
X399732Y148153D01*
X399681Y148102D02*
Y149311D01*
X384736Y146527D02*
X387106Y144157D01*
X395272Y147630D02*
Y149598D01*
Y147630D02*
X396949Y145953D01*
X407578Y215740D02*
X409445D01*
X214752Y196842D02*
Y197417D01*
X214752Y196842D02*
X214752D01*
X214752Y160024D02*
Y196842D01*
X216138Y196607D02*
X240516Y220984D01*
X216138Y141724D02*
Y196607D01*
X213579Y139165D02*
X216138Y141724D01*
X415768Y205701D02*
X418311Y208243D01*
X415889Y207669D02*
X416925Y208706D01*
X194264Y198564D02*
X226384Y230685D01*
X192815Y192905D02*
X194264Y194354D01*
X189665Y192905D02*
X192815D01*
X194264Y194354D02*
Y198564D01*
X177933Y177157D02*
Y197417D01*
X177933Y198240D02*
X214535Y234843D01*
X177933Y197417D02*
Y198240D01*
X177933Y197417D02*
X177933D01*
X171949Y192905D02*
X175098D01*
X176547Y194354D01*
Y198703D01*
X214073Y236228D01*
X394980Y96740D02*
Y105897D01*
Y96740D02*
X396059Y95661D01*
X412791Y20937D02*
X414957Y23102D01*
Y29913D01*
X412201Y32669D02*
X414957Y29913D01*
X418106Y23693D02*
X418106Y23694D01*
Y24480D01*
X417319Y25268D02*
X418106Y24480D01*
X398815Y27055D02*
X398917Y27157D01*
D27*
X563382Y202744D02*
Y210031D01*
X560823Y212591D02*
X561413Y213181D01*
X563382Y194283D02*
X579130D01*
X563382D02*
Y202744D01*
X537201Y212591D02*
Y217512D01*
X472831Y174598D02*
Y190945D01*
X471453Y161409D02*
Y173220D01*
X547642Y56496D02*
X560827D01*
X531886Y56488D02*
X547634D01*
X508264Y35911D02*
Y57571D01*
X514173Y101181D02*
X517165Y104173D01*
X522835D01*
X525197Y73228D02*
X531890Y66535D01*
Y67126D02*
X547441D01*
X531890Y66535D02*
Y67126D01*
X511417Y73228D02*
X525197D01*
X508268Y70079D02*
X511417Y73228D01*
X508268Y70079D02*
Y71260D01*
Y66043D02*
Y70079D01*
X506693Y72835D02*
X508268Y71260D01*
Y71398D01*
X508264Y71402D02*
X508268Y71398D01*
X483071Y72835D02*
X506693D01*
X483071Y72835D02*
Y72835D01*
X468504Y58268D02*
X483071Y72835D01*
X468898Y36220D02*
X483173D01*
X468898D02*
Y36614D01*
X517516Y29898D02*
Y52059D01*
X485185Y67118D02*
X501677D01*
X544492Y189303D02*
X547090D01*
X512004Y57571D02*
X517516Y52059D01*
X441728Y110224D02*
Y140248D01*
X431591Y150386D02*
X441728Y140248D01*
X409839Y150386D02*
X431591D01*
X407870Y148417D02*
X409839Y150386D01*
X513579Y212591D02*
X526571D01*
X552071Y194283D02*
X563382D01*
X547090Y189303D02*
X552071Y194283D01*
X550193Y196630D02*
Y212591D01*
X545425Y191862D02*
X550193Y196630D01*
X540606Y191862D02*
X545425D01*
X506803Y189303D02*
X514819D01*
X493949Y202157D02*
X506803Y189303D01*
X488579Y202157D02*
X493949D01*
X510213Y191862D02*
X514819D01*
X502949Y199126D02*
X510213Y191862D01*
X502949Y199126D02*
Y212591D01*
X514819Y179595D02*
Y184185D01*
X472831Y202157D02*
X488579D01*
X560823Y212591D02*
X563382Y210031D01*
X540606Y170012D02*
Y184185D01*
X483173Y36220D02*
X504524Y57571D01*
X501677Y67118D02*
X502760Y66035D01*
X537201Y217512D02*
X538972Y219284D01*
X559839D01*
X561413Y217709D01*
Y213181D02*
Y217709D01*
D28*
X547634Y56488D02*
X547642Y56496D01*
X549012Y57866D01*
X27165Y64567D02*
X47244D01*
X27559Y73228D02*
X48819D01*
X57087Y64961D01*
X47244Y64567D02*
X55118Y56693D01*
X482083Y161410D02*
Y173220D01*
X540551Y186823D02*
X542126D01*
X555905Y135433D02*
Y144095D01*
X516890Y186752D02*
X540610D01*
X542126Y186823D02*
X542276Y186673D01*
X545544D01*
X548556Y183661D01*
X563386D01*
X555512Y165354D02*
X555512Y165354D01*
X555134Y165354D02*
X555512D01*
X555126Y165347D02*
X555134Y165354D01*
X545272Y165347D02*
X555126D01*
X556299Y144095D02*
X565748Y153543D01*
Y173228D01*
X563386Y175591D02*
X565748Y173228D01*
X563386Y175591D02*
Y183661D01*
X575352D01*
X548583Y128110D02*
X555905Y135433D01*
X548583Y104567D02*
Y128110D01*
Y104567D02*
X557874D01*
X482083Y176516D02*
X488350Y182783D01*
Y191299D01*
X482083Y173220D02*
X486020Y169283D01*
X500095D01*
X520375D02*
X541335D01*
X545272Y165347D01*
X492516Y51650D02*
Y56488D01*
X502760Y66035D02*
X504524D01*
D29*
X47244Y21654D02*
D03*
X350394D02*
D03*
X350394Y250000D02*
D03*
X47244D02*
D03*
D30*
X144882Y244488D02*
D03*
X152756D02*
D03*
D31*
X27559Y64961D02*
D03*
Y72835D02*
D03*
D32*
X15744Y255898D02*
D03*
X594484D02*
D03*
Y15740D02*
D03*
X15744D02*
D03*
D33*
X551575Y248031D02*
D03*
D34*
X541575D02*
D03*
X531575D02*
D03*
X521575D02*
D03*
X511575D02*
D03*
X501575D02*
D03*
X491575D02*
D03*
X481575D02*
D03*
X551575Y258032D02*
D03*
X541575D02*
D03*
X531575D02*
D03*
X521575D02*
D03*
X511575D02*
D03*
X501575D02*
D03*
X491575D02*
D03*
X481575D02*
D03*
D35*
X425980Y37315D02*
D03*
X422046Y36220D02*
D03*
X387398Y68890D02*
D03*
Y147630D02*
D03*
Y222433D02*
D03*
X399606Y16535D02*
D03*
X395063Y18183D02*
D03*
X405118Y17323D02*
D03*
X410236Y16535D02*
D03*
X514173Y101181D02*
D03*
X108460Y201370D02*
D03*
X422831Y108654D02*
D03*
X383461Y222433D02*
D03*
X403146D02*
D03*
X395272D02*
D03*
X399209D02*
D03*
X391335D02*
D03*
X503937Y133071D02*
D03*
X517323Y131496D02*
D03*
X533465Y160630D02*
D03*
X479587Y135138D02*
D03*
X206968Y241776D02*
D03*
X448142Y104595D02*
D03*
X488350Y182783D02*
D03*
X514819Y179595D02*
D03*
X441728Y110224D02*
D03*
X427949Y113772D02*
D03*
X435035Y119283D02*
D03*
X433067Y113772D02*
D03*
X430311Y122433D02*
D03*
X485098Y111909D02*
D03*
X463728Y107780D02*
D03*
X517398Y29779D02*
D03*
X485185Y67118D02*
D03*
X516728Y67047D02*
D03*
X492516Y51650D02*
D03*
X320429Y167512D02*
D03*
X325665Y169913D02*
D03*
X319484Y163142D02*
D03*
X325350Y165858D02*
D03*
X418066Y59087D02*
D03*
X421138Y56685D02*
D03*
X429562Y48693D02*
D03*
X427870Y52748D02*
D03*
X423736Y53653D02*
D03*
X423776Y32276D02*
D03*
X420114Y27141D02*
D03*
X418106Y23693D02*
D03*
X423972Y27709D02*
D03*
X412791Y20937D02*
D03*
X379524Y139756D02*
D03*
Y61016D02*
D03*
Y214559D02*
D03*
X94784Y110228D02*
D03*
Y92512D02*
D03*
Y74795D02*
D03*
Y57079D02*
D03*
X112500D02*
D03*
X130217Y92512D02*
D03*
Y110228D02*
D03*
X147933Y57079D02*
D03*
Y74795D02*
D03*
Y92512D02*
D03*
Y110228D02*
D03*
X165650Y57079D02*
D03*
Y74795D02*
D03*
Y92512D02*
D03*
Y110228D02*
D03*
X183366Y57079D02*
D03*
Y74795D02*
D03*
Y92512D02*
D03*
Y110228D02*
D03*
X201083Y57079D02*
D03*
Y74795D02*
D03*
Y92512D02*
D03*
Y110228D02*
D03*
X218799Y57079D02*
D03*
Y74795D02*
D03*
Y92512D02*
D03*
Y110228D02*
D03*
X236516Y57079D02*
D03*
Y74795D02*
D03*
Y92512D02*
D03*
Y110228D02*
D03*
X254233Y57079D02*
D03*
Y74795D02*
D03*
Y92512D02*
D03*
Y110228D02*
D03*
X271949Y57079D02*
D03*
Y74795D02*
D03*
Y92512D02*
D03*
Y110228D02*
D03*
X289666Y57079D02*
D03*
Y74795D02*
D03*
Y92512D02*
D03*
Y110228D02*
D03*
X94784Y127945D02*
D03*
Y145662D02*
D03*
Y163378D02*
D03*
Y181095D02*
D03*
X112500Y127945D02*
D03*
Y145662D02*
D03*
Y163378D02*
D03*
Y181095D02*
D03*
X130217Y127945D02*
D03*
Y145662D02*
D03*
Y163378D02*
D03*
Y181095D02*
D03*
X147933Y127945D02*
D03*
Y145662D02*
D03*
Y163378D02*
D03*
Y181095D02*
D03*
X165650Y127945D02*
D03*
Y145662D02*
D03*
Y163378D02*
D03*
Y181095D02*
D03*
X183366Y127945D02*
D03*
Y145662D02*
D03*
Y163378D02*
D03*
Y181095D02*
D03*
X201083Y127945D02*
D03*
Y145662D02*
D03*
Y163378D02*
D03*
Y181095D02*
D03*
X218799Y127945D02*
D03*
Y145662D02*
D03*
Y163378D02*
D03*
Y181095D02*
D03*
X236516Y145662D02*
D03*
Y163378D02*
D03*
Y181095D02*
D03*
X254233Y145662D02*
D03*
Y163378D02*
D03*
Y181095D02*
D03*
X271949Y145662D02*
D03*
Y163378D02*
D03*
Y181095D02*
D03*
X289666Y145662D02*
D03*
Y163378D02*
D03*
Y181095D02*
D03*
X130217Y57079D02*
D03*
X112500Y110228D02*
D03*
Y92512D02*
D03*
Y74795D02*
D03*
X130217D02*
D03*
X236516Y127945D02*
D03*
X254233D02*
D03*
X289666D02*
D03*
X271949D02*
D03*
X164957Y200780D02*
D03*
X168894D02*
D03*
X157083D02*
D03*
X161020D02*
D03*
X143894Y201370D02*
D03*
X139957D02*
D03*
X151768D02*
D03*
X147831D02*
D03*
X126177D02*
D03*
X122240D02*
D03*
X134051D02*
D03*
X130114D02*
D03*
X104524D02*
D03*
X116334D02*
D03*
X112398D02*
D03*
X162988Y47236D02*
D03*
X166925D02*
D03*
X141335D02*
D03*
X137398D02*
D03*
X131492D02*
D03*
X127555D02*
D03*
X123618D02*
D03*
X119681D02*
D03*
X113776D02*
D03*
X109839D02*
D03*
X105902D02*
D03*
X101965D02*
D03*
X407870Y147630D02*
D03*
X391335Y68890D02*
D03*
X395272D02*
D03*
X403146D02*
D03*
X397445Y75000D02*
D03*
X399209Y68890D02*
D03*
X407870Y68890D02*
D03*
X403146Y147630D02*
D03*
X399732Y149784D02*
D03*
X394409Y150123D02*
D03*
X396059Y95661D02*
D03*
X418697Y128929D02*
D03*
X424406Y129913D02*
D03*
X427161Y119283D02*
D03*
X426571Y124992D02*
D03*
X418327Y108433D02*
D03*
X145272Y47236D02*
D03*
X149209D02*
D03*
X155114D02*
D03*
X159051D02*
D03*
X421256Y138575D02*
D03*
X415350Y138079D02*
D03*
X397240Y172921D02*
D03*
X391335Y147630D02*
D03*
X409445Y215740D02*
D03*
D36*
X560630Y56693D02*
D03*
X472784Y182870D02*
D03*
X563421Y202744D02*
D03*
X508067Y49110D02*
D03*
D37*
X57087Y64961D02*
D03*
X55118Y56693D02*
D03*
M02*
