%FSLAX25Y25*%
%MOIN*%
G70*
G01*
G75*
G04 Layer_Color=8421504*
%ADD10R,0.05512X0.04331*%
%ADD11R,0.06693X0.04331*%
%ADD12O,0.06496X0.02559*%
%ADD13R,0.08661X0.05906*%
%ADD14O,0.08268X0.01181*%
%ADD15O,0.01181X0.08268*%
%ADD16R,0.04331X0.06693*%
%ADD17R,0.08465X0.01575*%
%ADD18R,0.08465X0.01575*%
%ADD19R,0.05906X0.07480*%
%ADD20R,0.05709X0.02165*%
%ADD21R,0.05709X0.02165*%
%ADD22R,0.10039X0.07284*%
%ADD23R,0.02165X0.05709*%
%ADD24R,0.02165X0.05709*%
%ADD25C,0.03150*%
%ADD26C,0.00598*%
%ADD27C,0.01575*%
%ADD28C,0.01969*%
%ADD29R,0.11811X0.11811*%
%ADD30O,0.04724X0.09843*%
%ADD31O,0.09843X0.04724*%
%ADD32C,0.19685*%
%ADD33R,0.05906X0.05906*%
%ADD34C,0.05906*%
%ADD35C,0.03150*%
%ADD36C,0.05000*%
%ADD37C,0.03937*%
%ADD38C,0.01000*%
%ADD39C,0.00984*%
%ADD40C,0.02362*%
%ADD41C,0.00787*%
%ADD42C,0.00394*%
D10*
X295378Y65945D02*
D03*
Y60039D02*
D03*
X277661Y65945D02*
D03*
Y60039D02*
D03*
X259945Y65945D02*
D03*
Y60039D02*
D03*
X242228Y65945D02*
D03*
Y60039D02*
D03*
X224512Y65945D02*
D03*
Y60039D02*
D03*
X206795Y65945D02*
D03*
Y60039D02*
D03*
X189079Y65945D02*
D03*
Y60039D02*
D03*
X171362Y65945D02*
D03*
Y60039D02*
D03*
X153646Y65945D02*
D03*
Y60039D02*
D03*
X135929Y65945D02*
D03*
Y60039D02*
D03*
X118212Y65945D02*
D03*
Y60039D02*
D03*
X100496Y65945D02*
D03*
Y60039D02*
D03*
X295378Y83661D02*
D03*
Y77756D02*
D03*
X277661Y83661D02*
D03*
Y77756D02*
D03*
X259945Y83661D02*
D03*
Y77756D02*
D03*
X242228Y83661D02*
D03*
Y77756D02*
D03*
X224512Y83661D02*
D03*
Y77756D02*
D03*
X206795Y83661D02*
D03*
Y77756D02*
D03*
X189079Y83661D02*
D03*
Y77756D02*
D03*
X171362Y83661D02*
D03*
Y77756D02*
D03*
X153646Y83661D02*
D03*
Y77756D02*
D03*
X135929Y83661D02*
D03*
Y77756D02*
D03*
X118212Y83661D02*
D03*
Y77756D02*
D03*
X100496Y83661D02*
D03*
Y77756D02*
D03*
X295378Y101378D02*
D03*
Y95473D02*
D03*
X277661Y101378D02*
D03*
Y95473D02*
D03*
X259945Y101378D02*
D03*
Y95473D02*
D03*
X242228Y101378D02*
D03*
Y95473D02*
D03*
X224512Y101378D02*
D03*
Y95473D02*
D03*
X206795Y101378D02*
D03*
Y95473D02*
D03*
X189079Y101378D02*
D03*
Y95473D02*
D03*
X171362Y101378D02*
D03*
Y95473D02*
D03*
X153646Y101378D02*
D03*
Y95473D02*
D03*
X135929Y101378D02*
D03*
Y95473D02*
D03*
X118212Y101378D02*
D03*
Y95473D02*
D03*
X100496Y101378D02*
D03*
Y95473D02*
D03*
X295378Y119095D02*
D03*
Y113189D02*
D03*
X277661Y119095D02*
D03*
Y113189D02*
D03*
X259945Y119095D02*
D03*
Y113189D02*
D03*
X242228Y119095D02*
D03*
Y113189D02*
D03*
X224512Y119095D02*
D03*
Y113189D02*
D03*
X206795Y119095D02*
D03*
Y113189D02*
D03*
X189079Y119095D02*
D03*
Y113189D02*
D03*
X171362Y119095D02*
D03*
Y113189D02*
D03*
X153646Y119095D02*
D03*
Y113189D02*
D03*
X135929Y119095D02*
D03*
Y113189D02*
D03*
X118212Y119095D02*
D03*
Y113189D02*
D03*
X100496Y119095D02*
D03*
Y113189D02*
D03*
X295378Y136811D02*
D03*
Y130905D02*
D03*
X277661Y136811D02*
D03*
Y130905D02*
D03*
X259945Y136811D02*
D03*
Y130905D02*
D03*
X242228Y136811D02*
D03*
Y130905D02*
D03*
X224512Y136811D02*
D03*
Y130905D02*
D03*
X206795Y136811D02*
D03*
Y130905D02*
D03*
X189079Y136811D02*
D03*
Y130905D02*
D03*
X171362Y136811D02*
D03*
Y130905D02*
D03*
X153646Y136811D02*
D03*
Y130905D02*
D03*
X135929Y136811D02*
D03*
Y130905D02*
D03*
X118212Y136811D02*
D03*
Y130905D02*
D03*
X100496Y136811D02*
D03*
Y130905D02*
D03*
X295378Y154528D02*
D03*
Y148622D02*
D03*
X277661Y154528D02*
D03*
Y148622D02*
D03*
X259945Y154528D02*
D03*
Y148622D02*
D03*
X242228Y154528D02*
D03*
Y148622D02*
D03*
X224512Y154528D02*
D03*
Y148622D02*
D03*
X206795Y154528D02*
D03*
Y148622D02*
D03*
X189079Y154528D02*
D03*
Y148622D02*
D03*
X171362Y154528D02*
D03*
Y148622D02*
D03*
X153646Y154528D02*
D03*
Y148622D02*
D03*
X135929Y154528D02*
D03*
Y148622D02*
D03*
X118212Y154528D02*
D03*
Y148622D02*
D03*
X100496Y154528D02*
D03*
Y148622D02*
D03*
X295378Y172244D02*
D03*
Y166339D02*
D03*
X277661Y172244D02*
D03*
Y166339D02*
D03*
X259945Y172244D02*
D03*
Y166339D02*
D03*
X242228Y172244D02*
D03*
Y166339D02*
D03*
X224512Y172244D02*
D03*
Y166339D02*
D03*
X206795Y172244D02*
D03*
Y166339D02*
D03*
X189079Y172244D02*
D03*
Y166339D02*
D03*
X171362Y172244D02*
D03*
Y166339D02*
D03*
X153646Y172244D02*
D03*
Y166339D02*
D03*
X135929Y172244D02*
D03*
Y166339D02*
D03*
X118212Y172244D02*
D03*
Y166339D02*
D03*
X100496Y172244D02*
D03*
Y166339D02*
D03*
X295378Y189961D02*
D03*
Y184055D02*
D03*
X277661Y189961D02*
D03*
Y184055D02*
D03*
X259945Y189961D02*
D03*
Y184055D02*
D03*
X242228Y189961D02*
D03*
Y184055D02*
D03*
X224512Y189961D02*
D03*
Y184055D02*
D03*
X206795Y189961D02*
D03*
Y184055D02*
D03*
X189079Y189961D02*
D03*
Y184055D02*
D03*
X171362Y189961D02*
D03*
Y184055D02*
D03*
X153646Y189961D02*
D03*
Y184055D02*
D03*
X135929Y189961D02*
D03*
Y184055D02*
D03*
X118212Y189961D02*
D03*
Y184055D02*
D03*
X100496Y189961D02*
D03*
Y184055D02*
D03*
D11*
X495276Y108858D02*
D03*
Y119488D02*
D03*
X547638Y56496D02*
D03*
Y67126D02*
D03*
X563386Y194291D02*
D03*
Y183661D02*
D03*
X472835Y191535D02*
D03*
Y202165D02*
D03*
X488583D02*
D03*
Y191535D02*
D03*
X492520Y56496D02*
D03*
Y67126D02*
D03*
X531890Y56496D02*
D03*
Y67126D02*
D03*
X579134Y194291D02*
D03*
Y183661D02*
D03*
X495276Y128937D02*
D03*
Y139567D02*
D03*
D12*
X557874Y114567D02*
D03*
Y104567D02*
D03*
Y94567D02*
D03*
X522835Y94173D02*
D03*
Y104173D02*
D03*
Y114173D02*
D03*
D13*
X555905Y143701D02*
D03*
X555512Y165354D02*
D03*
X468504Y58268D02*
D03*
X468898Y36614D02*
D03*
D14*
X410142Y111220D02*
D03*
Y113189D02*
D03*
Y115157D02*
D03*
Y117126D02*
D03*
Y119094D02*
D03*
Y121063D02*
D03*
Y123031D02*
D03*
Y125000D02*
D03*
Y126968D02*
D03*
Y128937D02*
D03*
Y130905D02*
D03*
Y132874D02*
D03*
X377858D02*
D03*
Y130905D02*
D03*
Y128937D02*
D03*
Y126968D02*
D03*
Y125000D02*
D03*
Y123031D02*
D03*
Y121063D02*
D03*
Y119094D02*
D03*
Y117126D02*
D03*
Y115157D02*
D03*
Y113189D02*
D03*
Y111220D02*
D03*
X410142Y32480D02*
D03*
Y34449D02*
D03*
Y36417D02*
D03*
Y38386D02*
D03*
Y40354D02*
D03*
Y42323D02*
D03*
Y44291D02*
D03*
Y46260D02*
D03*
Y48228D02*
D03*
Y50197D02*
D03*
Y52165D02*
D03*
Y54134D02*
D03*
X377858D02*
D03*
Y52165D02*
D03*
Y50197D02*
D03*
Y48228D02*
D03*
Y46260D02*
D03*
Y44291D02*
D03*
Y42323D02*
D03*
Y40354D02*
D03*
Y38386D02*
D03*
Y36417D02*
D03*
Y34449D02*
D03*
Y32480D02*
D03*
Y186024D02*
D03*
Y187992D02*
D03*
Y189961D02*
D03*
Y191929D02*
D03*
Y193898D02*
D03*
Y195866D02*
D03*
Y197835D02*
D03*
Y199803D02*
D03*
Y201772D02*
D03*
Y203740D02*
D03*
Y205709D02*
D03*
Y207677D02*
D03*
X410142D02*
D03*
Y205709D02*
D03*
Y203740D02*
D03*
Y201772D02*
D03*
Y199803D02*
D03*
Y197835D02*
D03*
Y195866D02*
D03*
Y193898D02*
D03*
Y191929D02*
D03*
Y189961D02*
D03*
Y187992D02*
D03*
Y186024D02*
D03*
D15*
X404827Y138189D02*
D03*
X402858D02*
D03*
X400890D02*
D03*
X398921D02*
D03*
X396953D02*
D03*
X394984D02*
D03*
X393016D02*
D03*
X391047D02*
D03*
X389078D02*
D03*
X387110D02*
D03*
X385142D02*
D03*
X383173D02*
D03*
Y105905D02*
D03*
X385142D02*
D03*
X387110D02*
D03*
X389078D02*
D03*
X391047D02*
D03*
X393016D02*
D03*
X394984D02*
D03*
X396953D02*
D03*
X398921D02*
D03*
X400890D02*
D03*
X402858D02*
D03*
X404827D02*
D03*
Y59449D02*
D03*
X402858D02*
D03*
X400890D02*
D03*
X398921D02*
D03*
X396953D02*
D03*
X394984D02*
D03*
X393016D02*
D03*
X391047D02*
D03*
X389079D02*
D03*
X387110D02*
D03*
X385142D02*
D03*
X383173D02*
D03*
Y27165D02*
D03*
X385142D02*
D03*
X387110D02*
D03*
X389079D02*
D03*
X391047D02*
D03*
X393016D02*
D03*
X394984D02*
D03*
X396953D02*
D03*
X398921D02*
D03*
X400890D02*
D03*
X402858D02*
D03*
X404827D02*
D03*
X404826Y180709D02*
D03*
X402858D02*
D03*
X400890D02*
D03*
X398921D02*
D03*
X396953D02*
D03*
X394984D02*
D03*
X393016D02*
D03*
X391047D02*
D03*
X389078D02*
D03*
X387110D02*
D03*
X385142D02*
D03*
X383173D02*
D03*
Y212992D02*
D03*
X385142D02*
D03*
X387110D02*
D03*
X389078D02*
D03*
X391047D02*
D03*
X393016D02*
D03*
X394984D02*
D03*
X396953D02*
D03*
X398921D02*
D03*
X400890D02*
D03*
X402858D02*
D03*
X404826D02*
D03*
D16*
X550197Y212598D02*
D03*
X560827D02*
D03*
X502953Y212598D02*
D03*
X513583D02*
D03*
X469055Y84016D02*
D03*
X479685D02*
D03*
X479685Y95827D02*
D03*
X469055D02*
D03*
X479685Y127323D02*
D03*
X469055D02*
D03*
X479685Y143071D02*
D03*
X469055D02*
D03*
X471457Y161417D02*
D03*
X482087D02*
D03*
X537205Y212598D02*
D03*
X526575D02*
D03*
X471457Y173228D02*
D03*
X482087D02*
D03*
X506890Y38189D02*
D03*
X517520D02*
D03*
D17*
X514823Y191870D02*
D03*
D18*
Y189311D02*
D03*
Y186752D02*
D03*
Y184193D02*
D03*
X540610Y191870D02*
D03*
Y189311D02*
D03*
Y186752D02*
D03*
Y184193D02*
D03*
D19*
X184843Y240158D02*
D03*
X172638D02*
D03*
D20*
X478602Y107835D02*
D03*
D21*
Y111575D02*
D03*
Y115315D02*
D03*
X470138D02*
D03*
Y107835D02*
D03*
D22*
X516437Y169291D02*
D03*
X500098D02*
D03*
D23*
X504528Y57579D02*
D03*
D24*
X508268D02*
D03*
X512008D02*
D03*
Y66043D02*
D03*
X508268D02*
D03*
X504528D02*
D03*
M02*
