%FSLAX25Y25*%
%MOIN*%
G70*
G01*
G75*
G04 Layer_Physical_Order=2*
G04 Layer_Color=16711680*
%ADD10R,0.05512X0.04331*%
%ADD11R,0.06693X0.04331*%
%ADD12O,0.06496X0.02559*%
%ADD13R,0.08661X0.05906*%
%ADD14O,0.08268X0.01181*%
%ADD15O,0.01181X0.08268*%
%ADD16R,0.04331X0.06693*%
%ADD17R,0.08465X0.01575*%
%ADD18R,0.08465X0.01575*%
%ADD19R,0.05906X0.07480*%
%ADD20R,0.05709X0.02165*%
%ADD21R,0.05709X0.02165*%
%ADD22R,0.10039X0.07284*%
%ADD23R,0.02165X0.05709*%
%ADD24R,0.02165X0.05709*%
%ADD25C,0.03150*%
%ADD26C,0.00598*%
%ADD27C,0.01575*%
%ADD28C,0.01969*%
%ADD29R,0.11811X0.11811*%
%ADD30O,0.04724X0.09843*%
%ADD31O,0.09843X0.04724*%
%ADD32C,0.19685*%
%ADD33R,0.05906X0.05906*%
%ADD34C,0.05906*%
%ADD35C,0.03150*%
%ADD36C,0.05000*%
%ADD37C,0.03937*%
G36*
X608159Y2054D02*
X608159Y2054D01*
X608159Y2054D01*
X608124Y1961D01*
X1965D01*
Y269677D01*
X608159D01*
Y2054D01*
D02*
G37*
%LPC*%
G36*
X148433Y94741D02*
Y93012D01*
X150162D01*
X150084Y93403D01*
X149579Y94158D01*
X148824Y94663D01*
X148433Y94741D01*
D02*
G37*
G36*
X147433D02*
X147042Y94663D01*
X146287Y94158D01*
X145782Y93403D01*
X145704Y93012D01*
X147433D01*
Y94741D01*
D02*
G37*
G36*
X130717D02*
Y93012D01*
X132445D01*
X132368Y93403D01*
X131863Y94158D01*
X131108Y94663D01*
X130717Y94741D01*
D02*
G37*
G36*
X165150D02*
X164759Y94663D01*
X164003Y94158D01*
X163499Y93403D01*
X163421Y93012D01*
X165150D01*
Y94741D01*
D02*
G37*
G36*
X183866D02*
Y93012D01*
X185595D01*
X185517Y93403D01*
X185013Y94158D01*
X184257Y94663D01*
X183866Y94741D01*
D02*
G37*
G36*
X182866D02*
X182475Y94663D01*
X181720Y94158D01*
X181215Y93403D01*
X181138Y93012D01*
X182866D01*
Y94741D01*
D02*
G37*
G36*
X166150D02*
Y93012D01*
X167878D01*
X167801Y93403D01*
X167296Y94158D01*
X166541Y94663D01*
X166150Y94741D01*
D02*
G37*
G36*
X129717D02*
X129326Y94663D01*
X128570Y94158D01*
X128066Y93403D01*
X127988Y93012D01*
X129717D01*
Y94741D01*
D02*
G37*
G36*
X559339Y265047D02*
X516437D01*
X516044Y264969D01*
X515710Y264746D01*
X512553Y261589D01*
X512531Y261599D01*
X511575Y261724D01*
X510619Y261599D01*
X509728Y261230D01*
X508963Y260643D01*
X508377Y259878D01*
X508008Y258987D01*
X507882Y258032D01*
X508008Y257076D01*
X508377Y256185D01*
X508963Y255420D01*
X509728Y254833D01*
X510619Y254464D01*
X511575Y254339D01*
X512531Y254464D01*
X513421Y254833D01*
X514186Y255420D01*
X514773Y256185D01*
X515142Y257076D01*
X515268Y258032D01*
X515142Y258987D01*
X514773Y259878D01*
X514328Y260458D01*
X516863Y262992D01*
X558913D01*
X584008Y237897D01*
Y92945D01*
X567287Y76224D01*
X533071D01*
X533071Y76224D01*
X532678Y76146D01*
X532344Y75924D01*
X532344Y75924D01*
X524771Y68350D01*
X518604D01*
X518375Y68694D01*
X517619Y69198D01*
X516728Y69375D01*
X515837Y69198D01*
X515082Y68694D01*
X514577Y67938D01*
X514400Y67047D01*
X514577Y66156D01*
X515082Y65401D01*
X515837Y64896D01*
X516728Y64719D01*
X517619Y64896D01*
X518375Y65401D01*
X518879Y66156D01*
X518907Y66295D01*
X525197D01*
X525590Y66373D01*
X525923Y66596D01*
X533497Y74169D01*
X567713D01*
X568106Y74247D01*
X568439Y74470D01*
X585762Y91793D01*
X585762Y91793D01*
X585985Y92126D01*
X585985Y92126D01*
X585985Y92126D01*
X586063Y92520D01*
X586063Y92520D01*
Y238323D01*
X585985Y238716D01*
X585762Y239050D01*
X560065Y264746D01*
X559732Y264969D01*
X559339Y265047D01*
D02*
G37*
G36*
X291894Y92012D02*
X290165D01*
Y90283D01*
X290556Y90361D01*
X291312Y90866D01*
X291816Y91621D01*
X291894Y92012D01*
D02*
G37*
G36*
X289165D02*
X287437D01*
X287514Y91621D01*
X288019Y90866D01*
X288774Y90361D01*
X289165Y90283D01*
Y92012D01*
D02*
G37*
G36*
X94283Y94741D02*
X93893Y94663D01*
X93137Y94158D01*
X92633Y93403D01*
X92555Y93012D01*
X94283D01*
Y94741D01*
D02*
G37*
G36*
X113000D02*
Y93012D01*
X114729D01*
X114651Y93403D01*
X114146Y94158D01*
X113391Y94663D01*
X113000Y94741D01*
D02*
G37*
G36*
X112000D02*
X111609Y94663D01*
X110854Y94158D01*
X110349Y93403D01*
X110271Y93012D01*
X112000D01*
Y94741D01*
D02*
G37*
G36*
X95284D02*
Y93012D01*
X97012D01*
X96934Y93403D01*
X96430Y94158D01*
X95674Y94663D01*
X95284Y94741D01*
D02*
G37*
G36*
X289165D02*
X288774Y94663D01*
X288019Y94158D01*
X287514Y93403D01*
X287437Y93012D01*
X289165D01*
Y94741D01*
D02*
G37*
G36*
X272449D02*
Y93012D01*
X274178D01*
X274100Y93403D01*
X273595Y94158D01*
X272840Y94663D01*
X272449Y94741D01*
D02*
G37*
G36*
X271449D02*
X271058Y94663D01*
X270303Y94158D01*
X269798Y93403D01*
X269720Y93012D01*
X271449D01*
Y94741D01*
D02*
G37*
G36*
X290165D02*
Y93012D01*
X291894D01*
X291816Y93403D01*
X291312Y94158D01*
X290556Y94663D01*
X290165Y94741D01*
D02*
G37*
G36*
X513673Y103410D02*
X513282Y103332D01*
X512527Y102827D01*
X512022Y102072D01*
X511944Y101681D01*
X513673D01*
Y103410D01*
D02*
G37*
G36*
X516402Y100681D02*
X514673D01*
Y98952D01*
X515064Y99030D01*
X515820Y99535D01*
X516324Y100290D01*
X516402Y100681D01*
D02*
G37*
G36*
X513673D02*
X511944D01*
X512022Y100290D01*
X512527Y99535D01*
X513282Y99030D01*
X513673Y98952D01*
Y100681D01*
D02*
G37*
G36*
X254732Y94741D02*
Y93012D01*
X256461D01*
X256383Y93403D01*
X255879Y94158D01*
X255123Y94663D01*
X254732Y94741D01*
D02*
G37*
G36*
X218299D02*
X217908Y94663D01*
X217153Y94158D01*
X216648Y93403D01*
X216570Y93012D01*
X218299D01*
Y94741D01*
D02*
G37*
G36*
X201583D02*
Y93012D01*
X203312D01*
X203234Y93403D01*
X202729Y94158D01*
X201974Y94663D01*
X201583Y94741D01*
D02*
G37*
G36*
X200583D02*
X200192Y94663D01*
X199437Y94158D01*
X198932Y93403D01*
X198854Y93012D01*
X200583D01*
Y94741D01*
D02*
G37*
G36*
X219299D02*
Y93012D01*
X221028D01*
X220950Y93403D01*
X220446Y94158D01*
X219690Y94663D01*
X219299Y94741D01*
D02*
G37*
G36*
X253732D02*
X253342Y94663D01*
X252586Y94158D01*
X252081Y93403D01*
X252004Y93012D01*
X253732D01*
Y94741D01*
D02*
G37*
G36*
X237016D02*
Y93012D01*
X238745D01*
X238667Y93403D01*
X238162Y94158D01*
X237407Y94663D01*
X237016Y94741D01*
D02*
G37*
G36*
X236016D02*
X235625Y94663D01*
X234870Y94158D01*
X234365Y93403D01*
X234287Y93012D01*
X236016D01*
Y94741D01*
D02*
G37*
G36*
X112000Y92012D02*
X110271D01*
X110349Y91621D01*
X110854Y90866D01*
X111609Y90361D01*
X112000Y90283D01*
Y92012D01*
D02*
G37*
G36*
X97012D02*
X95284D01*
Y90283D01*
X95674Y90361D01*
X96430Y90866D01*
X96934Y91621D01*
X97012Y92012D01*
D02*
G37*
G36*
X94283D02*
X92555D01*
X92633Y91621D01*
X93137Y90866D01*
X93893Y90361D01*
X94283Y90283D01*
Y92012D01*
D02*
G37*
G36*
X114729D02*
X113000D01*
Y90283D01*
X113391Y90361D01*
X114146Y90866D01*
X114651Y91621D01*
X114729Y92012D01*
D02*
G37*
G36*
X147433D02*
X145704D01*
X145782Y91621D01*
X146287Y90866D01*
X147042Y90361D01*
X147433Y90283D01*
Y92012D01*
D02*
G37*
G36*
X132445D02*
X130717D01*
Y90283D01*
X131108Y90361D01*
X131863Y90866D01*
X132368Y91621D01*
X132445Y92012D01*
D02*
G37*
G36*
X129717D02*
X127988D01*
X128066Y91621D01*
X128570Y90866D01*
X129326Y90361D01*
X129717Y90283D01*
Y92012D01*
D02*
G37*
G36*
X290165Y77024D02*
Y75295D01*
X291894D01*
X291816Y75686D01*
X291312Y76442D01*
X290556Y76946D01*
X290165Y77024D01*
D02*
G37*
G36*
X253732D02*
X253342Y76946D01*
X252586Y76442D01*
X252081Y75686D01*
X252004Y75295D01*
X253732D01*
Y77024D01*
D02*
G37*
G36*
X237016D02*
Y75295D01*
X238745D01*
X238667Y75686D01*
X238162Y76442D01*
X237407Y76946D01*
X237016Y77024D01*
D02*
G37*
G36*
X236016D02*
X235625Y76946D01*
X234870Y76442D01*
X234365Y75686D01*
X234287Y75295D01*
X236016D01*
Y77024D01*
D02*
G37*
G36*
X254732D02*
Y75295D01*
X256461D01*
X256383Y75686D01*
X255879Y76442D01*
X255123Y76946D01*
X254732Y77024D01*
D02*
G37*
G36*
X289165D02*
X288774Y76946D01*
X288019Y76442D01*
X287514Y75686D01*
X287437Y75295D01*
X289165D01*
Y77024D01*
D02*
G37*
G36*
X272449D02*
Y75295D01*
X274178D01*
X274100Y75686D01*
X273595Y76442D01*
X272840Y76946D01*
X272449Y77024D01*
D02*
G37*
G36*
X271449D02*
X271058Y76946D01*
X270303Y76442D01*
X269798Y75686D01*
X269720Y75295D01*
X271449D01*
Y77024D01*
D02*
G37*
G36*
X238745Y92012D02*
X237016D01*
Y90283D01*
X237407Y90361D01*
X238162Y90866D01*
X238667Y91621D01*
X238745Y92012D01*
D02*
G37*
G36*
X236016D02*
X234287D01*
X234365Y91621D01*
X234870Y90866D01*
X235625Y90361D01*
X236016Y90283D01*
Y92012D01*
D02*
G37*
G36*
X221028D02*
X219299D01*
Y90283D01*
X219690Y90361D01*
X220446Y90866D01*
X220950Y91621D01*
X221028Y92012D01*
D02*
G37*
G36*
X253732D02*
X252004D01*
X252081Y91621D01*
X252586Y90866D01*
X253342Y90361D01*
X253732Y90283D01*
Y92012D01*
D02*
G37*
G36*
X274178D02*
X272449D01*
Y90283D01*
X272840Y90361D01*
X273595Y90866D01*
X274100Y91621D01*
X274178Y92012D01*
D02*
G37*
G36*
X271449D02*
X269720D01*
X269798Y91621D01*
X270303Y90866D01*
X271058Y90361D01*
X271449Y90283D01*
Y92012D01*
D02*
G37*
G36*
X256461D02*
X254732D01*
Y90283D01*
X255123Y90361D01*
X255879Y90866D01*
X256383Y91621D01*
X256461Y92012D01*
D02*
G37*
G36*
X218299D02*
X216570D01*
X216648Y91621D01*
X217153Y90866D01*
X217908Y90361D01*
X218299Y90283D01*
Y92012D01*
D02*
G37*
G36*
X167878D02*
X166150D01*
Y90283D01*
X166541Y90361D01*
X167296Y90866D01*
X167801Y91621D01*
X167878Y92012D01*
D02*
G37*
G36*
X165150D02*
X163421D01*
X163499Y91621D01*
X164003Y90866D01*
X164759Y90361D01*
X165150Y90283D01*
Y92012D01*
D02*
G37*
G36*
X150162D02*
X148433D01*
Y90283D01*
X148824Y90361D01*
X149579Y90866D01*
X150084Y91621D01*
X150162Y92012D01*
D02*
G37*
G36*
X182866D02*
X181138D01*
X181215Y91621D01*
X181720Y90866D01*
X182475Y90361D01*
X182866Y90283D01*
Y92012D01*
D02*
G37*
G36*
X203312D02*
X201583D01*
Y90283D01*
X201974Y90361D01*
X202729Y90866D01*
X203234Y91621D01*
X203312Y92012D01*
D02*
G37*
G36*
X200583D02*
X198854D01*
X198932Y91621D01*
X199437Y90866D01*
X200192Y90361D01*
X200583Y90283D01*
Y92012D01*
D02*
G37*
G36*
X185595D02*
X183866D01*
Y90283D01*
X184257Y90361D01*
X185013Y90866D01*
X185517Y91621D01*
X185595Y92012D01*
D02*
G37*
G36*
X219299Y112457D02*
Y110728D01*
X221028D01*
X220950Y111119D01*
X220446Y111875D01*
X219690Y112379D01*
X219299Y112457D01*
D02*
G37*
G36*
X218299D02*
X217908Y112379D01*
X217153Y111875D01*
X216648Y111119D01*
X216570Y110728D01*
X218299D01*
Y112457D01*
D02*
G37*
G36*
X201583D02*
Y110728D01*
X203312D01*
X203234Y111119D01*
X202729Y111875D01*
X201974Y112379D01*
X201583Y112457D01*
D02*
G37*
G36*
X236016D02*
X235625Y112379D01*
X234870Y111875D01*
X234365Y111119D01*
X234287Y110728D01*
X236016D01*
Y112457D01*
D02*
G37*
G36*
X254732D02*
Y110728D01*
X256461D01*
X256383Y111119D01*
X255879Y111875D01*
X255123Y112379D01*
X254732Y112457D01*
D02*
G37*
G36*
X253732D02*
X253342Y112379D01*
X252586Y111875D01*
X252081Y111119D01*
X252004Y110728D01*
X253732D01*
Y112457D01*
D02*
G37*
G36*
X237016D02*
Y110728D01*
X238745D01*
X238667Y111119D01*
X238162Y111875D01*
X237407Y112379D01*
X237016Y112457D01*
D02*
G37*
G36*
X200583D02*
X200192Y112379D01*
X199437Y111875D01*
X198932Y111119D01*
X198854Y110728D01*
X200583D01*
Y112457D01*
D02*
G37*
G36*
X148433D02*
Y110728D01*
X150162D01*
X150084Y111119D01*
X149579Y111875D01*
X148824Y112379D01*
X148433Y112457D01*
D02*
G37*
G36*
X147433D02*
X147042Y112379D01*
X146287Y111875D01*
X145782Y111119D01*
X145704Y110728D01*
X147433D01*
Y112457D01*
D02*
G37*
G36*
X130717D02*
Y110728D01*
X132445D01*
X132368Y111119D01*
X131863Y111875D01*
X131108Y112379D01*
X130717Y112457D01*
D02*
G37*
G36*
X165150D02*
X164759Y112379D01*
X164003Y111875D01*
X163499Y111119D01*
X163421Y110728D01*
X165150D01*
Y112457D01*
D02*
G37*
G36*
X183866D02*
Y110728D01*
X185595D01*
X185517Y111119D01*
X185013Y111875D01*
X184257Y112379D01*
X183866Y112457D01*
D02*
G37*
G36*
X182866D02*
X182475Y112379D01*
X181720Y111875D01*
X181215Y111119D01*
X181138Y110728D01*
X182866D01*
Y112457D01*
D02*
G37*
G36*
X166150D02*
Y110728D01*
X167878D01*
X167801Y111119D01*
X167296Y111875D01*
X166541Y112379D01*
X166150Y112457D01*
D02*
G37*
G36*
X129717Y127445D02*
X127988D01*
X128066Y127054D01*
X128570Y126299D01*
X129326Y125794D01*
X129717Y125716D01*
Y127445D01*
D02*
G37*
G36*
X114729D02*
X113000D01*
Y125716D01*
X113391Y125794D01*
X114146Y126299D01*
X114651Y127054D01*
X114729Y127445D01*
D02*
G37*
G36*
X112000D02*
X110271D01*
X110349Y127054D01*
X110854Y126299D01*
X111609Y125794D01*
X112000Y125716D01*
Y127445D01*
D02*
G37*
G36*
X132445D02*
X130717D01*
Y125716D01*
X131108Y125794D01*
X131863Y126299D01*
X132368Y127054D01*
X132445Y127445D01*
D02*
G37*
G36*
X165150D02*
X163421D01*
X163499Y127054D01*
X164003Y126299D01*
X164759Y125794D01*
X165150Y125716D01*
Y127445D01*
D02*
G37*
G36*
X150162D02*
X148433D01*
Y125716D01*
X148824Y125794D01*
X149579Y126299D01*
X150084Y127054D01*
X150162Y127445D01*
D02*
G37*
G36*
X147433D02*
X145704D01*
X145782Y127054D01*
X146287Y126299D01*
X147042Y125794D01*
X147433Y125716D01*
Y127445D01*
D02*
G37*
G36*
X97012D02*
X95284D01*
Y125716D01*
X95674Y125794D01*
X96430Y126299D01*
X96934Y127054D01*
X97012Y127445D01*
D02*
G37*
G36*
X289165Y112457D02*
X288774Y112379D01*
X288019Y111875D01*
X287514Y111119D01*
X287437Y110728D01*
X289165D01*
Y112457D01*
D02*
G37*
G36*
X272449D02*
Y110728D01*
X274178D01*
X274100Y111119D01*
X273595Y111875D01*
X272840Y112379D01*
X272449Y112457D01*
D02*
G37*
G36*
X271449D02*
X271058Y112379D01*
X270303Y111875D01*
X269798Y111119D01*
X269720Y110728D01*
X271449D01*
Y112457D01*
D02*
G37*
G36*
X290165D02*
Y110728D01*
X291894D01*
X291816Y111119D01*
X291312Y111875D01*
X290556Y112379D01*
X290165Y112457D01*
D02*
G37*
G36*
X94283Y127445D02*
X92555D01*
X92633Y127054D01*
X93137Y126299D01*
X93893Y125794D01*
X94283Y125716D01*
Y127445D01*
D02*
G37*
G36*
X485598Y114138D02*
Y112409D01*
X487327D01*
X487249Y112800D01*
X486745Y113556D01*
X485989Y114060D01*
X485598Y114138D01*
D02*
G37*
G36*
X484598D02*
X484207Y114060D01*
X483452Y113556D01*
X482947Y112800D01*
X482870Y112409D01*
X484598D01*
Y114138D01*
D02*
G37*
G36*
X167878Y109728D02*
X166150D01*
Y108000D01*
X166541Y108077D01*
X167296Y108582D01*
X167801Y109337D01*
X167878Y109728D01*
D02*
G37*
G36*
X165150D02*
X163421D01*
X163499Y109337D01*
X164003Y108582D01*
X164759Y108077D01*
X165150Y108000D01*
Y109728D01*
D02*
G37*
G36*
X150162D02*
X148433D01*
Y108000D01*
X148824Y108077D01*
X149579Y108582D01*
X150084Y109337D01*
X150162Y109728D01*
D02*
G37*
G36*
X182866D02*
X181138D01*
X181215Y109337D01*
X181720Y108582D01*
X182475Y108077D01*
X182866Y108000D01*
Y109728D01*
D02*
G37*
G36*
X203312D02*
X201583D01*
Y108000D01*
X201974Y108077D01*
X202729Y108582D01*
X203234Y109337D01*
X203312Y109728D01*
D02*
G37*
G36*
X200583D02*
X198854D01*
X198932Y109337D01*
X199437Y108582D01*
X200192Y108077D01*
X200583Y108000D01*
Y109728D01*
D02*
G37*
G36*
X185595D02*
X183866D01*
Y108000D01*
X184257Y108077D01*
X185013Y108582D01*
X185517Y109337D01*
X185595Y109728D01*
D02*
G37*
G36*
X147433D02*
X145704D01*
X145782Y109337D01*
X146287Y108582D01*
X147042Y108077D01*
X147433Y108000D01*
Y109728D01*
D02*
G37*
G36*
X97012D02*
X95284D01*
Y108000D01*
X95674Y108077D01*
X96430Y108582D01*
X96934Y109337D01*
X97012Y109728D01*
D02*
G37*
G36*
X94283D02*
X92555D01*
X92633Y109337D01*
X93137Y108582D01*
X93893Y108077D01*
X94283Y108000D01*
Y109728D01*
D02*
G37*
G36*
X514673Y103410D02*
Y101681D01*
X516402D01*
X516324Y102072D01*
X515820Y102827D01*
X515064Y103332D01*
X514673Y103410D01*
D02*
G37*
G36*
X112000Y109728D02*
X110271D01*
X110349Y109337D01*
X110854Y108582D01*
X111609Y108077D01*
X112000Y108000D01*
Y109728D01*
D02*
G37*
G36*
X132445D02*
X130717D01*
Y108000D01*
X131108Y108077D01*
X131863Y108582D01*
X132368Y109337D01*
X132445Y109728D01*
D02*
G37*
G36*
X129717D02*
X127988D01*
X128066Y109337D01*
X128570Y108582D01*
X129326Y108077D01*
X129717Y108000D01*
Y109728D01*
D02*
G37*
G36*
X114729D02*
X113000D01*
Y108000D01*
X113391Y108077D01*
X114146Y108582D01*
X114651Y109337D01*
X114729Y109728D01*
D02*
G37*
G36*
X94283Y112457D02*
X93893Y112379D01*
X93137Y111875D01*
X92633Y111119D01*
X92555Y110728D01*
X94283D01*
Y112457D01*
D02*
G37*
G36*
X291894Y109728D02*
X290165D01*
Y108000D01*
X290556Y108077D01*
X291312Y108582D01*
X291816Y109337D01*
X291894Y109728D01*
D02*
G37*
G36*
X289165D02*
X287437D01*
X287514Y109337D01*
X288019Y108582D01*
X288774Y108077D01*
X289165Y108000D01*
Y109728D01*
D02*
G37*
G36*
X95284Y112457D02*
Y110728D01*
X97012D01*
X96934Y111119D01*
X96430Y111875D01*
X95674Y112379D01*
X95284Y112457D01*
D02*
G37*
G36*
X129717D02*
X129326Y112379D01*
X128570Y111875D01*
X128066Y111119D01*
X127988Y110728D01*
X129717D01*
Y112457D01*
D02*
G37*
G36*
X113000D02*
Y110728D01*
X114729D01*
X114651Y111119D01*
X114146Y111875D01*
X113391Y112379D01*
X113000Y112457D01*
D02*
G37*
G36*
X112000D02*
X111609Y112379D01*
X110854Y111875D01*
X110349Y111119D01*
X110271Y110728D01*
X112000D01*
Y112457D01*
D02*
G37*
G36*
X274178Y109728D02*
X272449D01*
Y108000D01*
X272840Y108077D01*
X273595Y108582D01*
X274100Y109337D01*
X274178Y109728D01*
D02*
G37*
G36*
X236016D02*
X234287D01*
X234365Y109337D01*
X234870Y108582D01*
X235625Y108077D01*
X236016Y108000D01*
Y109728D01*
D02*
G37*
G36*
X221028D02*
X219299D01*
Y108000D01*
X219690Y108077D01*
X220446Y108582D01*
X220950Y109337D01*
X221028Y109728D01*
D02*
G37*
G36*
X218299D02*
X216570D01*
X216648Y109337D01*
X217153Y108582D01*
X217908Y108077D01*
X218299Y108000D01*
Y109728D01*
D02*
G37*
G36*
X238745D02*
X237016D01*
Y108000D01*
X237407Y108077D01*
X238162Y108582D01*
X238667Y109337D01*
X238745Y109728D01*
D02*
G37*
G36*
X271449D02*
X269720D01*
X269798Y109337D01*
X270303Y108582D01*
X271058Y108077D01*
X271449Y108000D01*
Y109728D01*
D02*
G37*
G36*
X256461D02*
X254732D01*
Y108000D01*
X255123Y108077D01*
X255879Y108582D01*
X256383Y109337D01*
X256461Y109728D01*
D02*
G37*
G36*
X253732D02*
X252004D01*
X252081Y109337D01*
X252586Y108582D01*
X253342Y108077D01*
X253732Y108000D01*
Y109728D01*
D02*
G37*
G36*
X238745Y56579D02*
X237016D01*
Y54850D01*
X237407Y54928D01*
X238162Y55432D01*
X238667Y56188D01*
X238745Y56579D01*
D02*
G37*
G36*
X236016D02*
X234287D01*
X234365Y56188D01*
X234870Y55432D01*
X235625Y54928D01*
X236016Y54850D01*
Y56579D01*
D02*
G37*
G36*
X221028D02*
X219299D01*
Y54850D01*
X219690Y54928D01*
X220446Y55432D01*
X220950Y56188D01*
X221028Y56579D01*
D02*
G37*
G36*
X253732D02*
X252004D01*
X252081Y56188D01*
X252586Y55432D01*
X253342Y54928D01*
X253732Y54850D01*
Y56579D01*
D02*
G37*
G36*
X274178D02*
X272449D01*
Y54850D01*
X272840Y54928D01*
X273595Y55432D01*
X274100Y56188D01*
X274178Y56579D01*
D02*
G37*
G36*
X271449D02*
X269720D01*
X269798Y56188D01*
X270303Y55432D01*
X271058Y54928D01*
X271449Y54850D01*
Y56579D01*
D02*
G37*
G36*
X256461D02*
X254732D01*
Y54850D01*
X255123Y54928D01*
X255879Y55432D01*
X256383Y56188D01*
X256461Y56579D01*
D02*
G37*
G36*
X218299D02*
X216570D01*
X216648Y56188D01*
X217153Y55432D01*
X217908Y54928D01*
X218299Y54850D01*
Y56579D01*
D02*
G37*
G36*
X167878D02*
X166150D01*
Y54850D01*
X166541Y54928D01*
X167296Y55432D01*
X167801Y56188D01*
X167878Y56579D01*
D02*
G37*
G36*
X165150D02*
X163421D01*
X163499Y56188D01*
X164003Y55432D01*
X164759Y54928D01*
X165150Y54850D01*
Y56579D01*
D02*
G37*
G36*
X150162D02*
X148433D01*
Y54850D01*
X148824Y54928D01*
X149579Y55432D01*
X150084Y56188D01*
X150162Y56579D01*
D02*
G37*
G36*
X182866D02*
X181138D01*
X181215Y56188D01*
X181720Y55432D01*
X182475Y54928D01*
X182866Y54850D01*
Y56579D01*
D02*
G37*
G36*
X203312D02*
X201583D01*
Y54850D01*
X201974Y54928D01*
X202729Y55432D01*
X203234Y56188D01*
X203312Y56579D01*
D02*
G37*
G36*
X200583D02*
X198854D01*
X198932Y56188D01*
X199437Y55432D01*
X200192Y54928D01*
X200583Y54850D01*
Y56579D01*
D02*
G37*
G36*
X185595D02*
X183866D01*
Y54850D01*
X184257Y54928D01*
X185013Y55432D01*
X185517Y56188D01*
X185595Y56579D01*
D02*
G37*
G36*
X147433Y59308D02*
X147042Y59230D01*
X146287Y58725D01*
X145782Y57970D01*
X145704Y57579D01*
X147433D01*
Y59308D01*
D02*
G37*
G36*
X130717D02*
Y57579D01*
X132445D01*
X132368Y57970D01*
X131863Y58725D01*
X131108Y59230D01*
X130717Y59308D01*
D02*
G37*
G36*
X129717D02*
X129326Y59230D01*
X128570Y58725D01*
X128066Y57970D01*
X127988Y57579D01*
X129717D01*
Y59308D01*
D02*
G37*
G36*
X148433D02*
Y57579D01*
X150162D01*
X150084Y57970D01*
X149579Y58725D01*
X148824Y59230D01*
X148433Y59308D01*
D02*
G37*
G36*
X182866D02*
X182475Y59230D01*
X181720Y58725D01*
X181215Y57970D01*
X181138Y57579D01*
X182866D01*
Y59308D01*
D02*
G37*
G36*
X166150D02*
Y57579D01*
X167878D01*
X167801Y57970D01*
X167296Y58725D01*
X166541Y59230D01*
X166150Y59308D01*
D02*
G37*
G36*
X165150D02*
X164759Y59230D01*
X164003Y58725D01*
X163499Y57970D01*
X163421Y57579D01*
X165150D01*
Y59308D01*
D02*
G37*
G36*
X113000D02*
Y57579D01*
X114729D01*
X114651Y57970D01*
X114146Y58725D01*
X113391Y59230D01*
X113000Y59308D01*
D02*
G37*
G36*
X560130Y59863D02*
X559792Y59819D01*
X559012Y59496D01*
X558342Y58981D01*
X557827Y58311D01*
X557504Y57530D01*
X557459Y57193D01*
X560130D01*
Y59863D01*
D02*
G37*
G36*
X291894Y56579D02*
X290165D01*
Y54850D01*
X290556Y54928D01*
X291312Y55432D01*
X291816Y56188D01*
X291894Y56579D01*
D02*
G37*
G36*
X289165D02*
X287437D01*
X287514Y56188D01*
X288019Y55432D01*
X288774Y54928D01*
X289165Y54850D01*
Y56579D01*
D02*
G37*
G36*
X561130Y59863D02*
Y57193D01*
X563800D01*
X563756Y57530D01*
X563433Y58311D01*
X562918Y58981D01*
X562248Y59496D01*
X561468Y59819D01*
X561130Y59863D01*
D02*
G37*
G36*
X112000Y59308D02*
X111609Y59230D01*
X110854Y58725D01*
X110349Y57970D01*
X110271Y57579D01*
X112000D01*
Y59308D01*
D02*
G37*
G36*
X95284D02*
Y57579D01*
X97012D01*
X96934Y57970D01*
X96430Y58725D01*
X95674Y59230D01*
X95284Y59308D01*
D02*
G37*
G36*
X94283D02*
X93893Y59230D01*
X93137Y58725D01*
X92633Y57970D01*
X92555Y57579D01*
X94283D01*
Y59308D01*
D02*
G37*
G36*
X594984Y26285D02*
Y16240D01*
X605029D01*
X604938Y17396D01*
X604550Y19011D01*
X603914Y20545D01*
X603047Y21961D01*
X601968Y23224D01*
X600705Y24303D01*
X599289Y25170D01*
X597755Y25806D01*
X596140Y26194D01*
X594984Y26285D01*
D02*
G37*
G36*
X593984D02*
X592829Y26194D01*
X591214Y25806D01*
X589679Y25170D01*
X588263Y24303D01*
X587000Y23224D01*
X585922Y21961D01*
X585054Y20545D01*
X584418Y19011D01*
X584031Y17396D01*
X583940Y16240D01*
X593984D01*
Y26285D01*
D02*
G37*
G36*
X16244D02*
Y16240D01*
X26289D01*
X26198Y17396D01*
X25810Y19011D01*
X25174Y20545D01*
X24307Y21961D01*
X23228Y23224D01*
X21965Y24303D01*
X20549Y25170D01*
X19015Y25806D01*
X17400Y26194D01*
X16244Y26285D01*
D02*
G37*
G36*
X349894Y28268D02*
X343779D01*
Y22153D01*
X349894D01*
Y28268D01*
D02*
G37*
G36*
X511237Y48610D02*
X508567D01*
Y45940D01*
X508905Y45984D01*
X509685Y46308D01*
X510355Y46822D01*
X510870Y47492D01*
X511193Y48273D01*
X511237Y48610D01*
D02*
G37*
G36*
X507567D02*
X504896D01*
X504941Y48273D01*
X505264Y47492D01*
X505779Y46822D01*
X506449Y46308D01*
X507229Y45984D01*
X507567Y45940D01*
Y48610D01*
D02*
G37*
G36*
X357008Y28268D02*
X350894D01*
Y22153D01*
X357008D01*
Y28268D01*
D02*
G37*
G36*
X15244Y26285D02*
X14088Y26194D01*
X12473Y25806D01*
X10939Y25170D01*
X9523Y24303D01*
X8260Y23224D01*
X7182Y21961D01*
X6314Y20545D01*
X5678Y19011D01*
X5291Y17396D01*
X5200Y16240D01*
X15244D01*
Y26285D01*
D02*
G37*
G36*
X593984Y15240D02*
X583940D01*
X584031Y14085D01*
X584418Y12470D01*
X585054Y10935D01*
X585922Y9519D01*
X587000Y8256D01*
X588263Y7178D01*
X589679Y6310D01*
X591214Y5674D01*
X592829Y5287D01*
X593984Y5196D01*
Y15240D01*
D02*
G37*
G36*
X26289D02*
X16244D01*
Y5196D01*
X17400Y5287D01*
X19015Y5674D01*
X20549Y6310D01*
X21965Y7178D01*
X23228Y8256D01*
X24307Y9519D01*
X25174Y10935D01*
X25810Y12470D01*
X26198Y14085D01*
X26289Y15240D01*
D02*
G37*
G36*
X15244D02*
X5200D01*
X5291Y14085D01*
X5678Y12470D01*
X6314Y10935D01*
X7182Y9519D01*
X8260Y8256D01*
X9523Y7178D01*
X10939Y6310D01*
X12473Y5674D01*
X14088Y5287D01*
X15244Y5196D01*
Y15240D01*
D02*
G37*
G36*
X605029D02*
X594984D01*
Y5196D01*
X596140Y5287D01*
X597755Y5674D01*
X599289Y6310D01*
X600705Y7178D01*
X601968Y8256D01*
X603047Y9519D01*
X603914Y10935D01*
X604550Y12470D01*
X604938Y14085D01*
X605029Y15240D01*
D02*
G37*
G36*
X357008Y21154D02*
X350894D01*
Y15039D01*
X357008D01*
Y21154D01*
D02*
G37*
G36*
X349894D02*
X343779D01*
Y15039D01*
X349894D01*
Y21154D01*
D02*
G37*
G36*
X485185Y69446D02*
X484294Y69269D01*
X483539Y68765D01*
X483034Y68009D01*
X482857Y67118D01*
X483034Y66227D01*
X483459Y65591D01*
Y29207D01*
X464872Y10620D01*
X113475D01*
X59711Y64384D01*
X59787Y64961D01*
X59695Y65659D01*
X59425Y66311D01*
X58996Y66870D01*
X58437Y67299D01*
X57785Y67569D01*
X57087Y67661D01*
X56388Y67569D01*
X55737Y67299D01*
X55177Y66870D01*
X54748Y66311D01*
X54478Y65659D01*
X54386Y64961D01*
X54478Y64262D01*
X54748Y63611D01*
X55177Y63051D01*
X55737Y62622D01*
X56388Y62352D01*
X56932Y62281D01*
X110808Y8405D01*
X110617Y7943D01*
X107884D01*
X57913Y57913D01*
X57354Y58288D01*
X57254Y58307D01*
X57028Y58602D01*
X56468Y59031D01*
X55817Y59301D01*
X55118Y59393D01*
X54419Y59301D01*
X53768Y59031D01*
X53209Y58602D01*
X52780Y58043D01*
X52510Y57392D01*
X52418Y56693D01*
X52510Y55994D01*
X52780Y55343D01*
X53209Y54783D01*
X53768Y54354D01*
X54419Y54085D01*
X55118Y53993D01*
X55817Y54085D01*
X56468Y54354D01*
X56537Y54407D01*
X105949Y4996D01*
X106509Y4622D01*
X107169Y4490D01*
X504819D01*
X505479Y4622D01*
X506039Y4996D01*
X506039Y4996D01*
X506039Y4996D01*
X518543Y17500D01*
X518918Y18060D01*
X518918Y18060D01*
X518918Y18060D01*
X519049Y18721D01*
Y28141D01*
X519549Y28889D01*
X519726Y29779D01*
X519549Y30670D01*
X519044Y31426D01*
X518289Y31931D01*
X517398Y32108D01*
X516507Y31931D01*
X515751Y31426D01*
X515247Y30670D01*
X515069Y29779D01*
X515247Y28889D01*
X515597Y28365D01*
Y19435D01*
X504104Y7943D01*
X467730D01*
X467538Y8405D01*
X486406Y27272D01*
X486780Y27832D01*
X486911Y28492D01*
X486911Y28492D01*
X486911Y28492D01*
Y28492D01*
Y65591D01*
X487336Y66227D01*
X487513Y67118D01*
X487336Y68009D01*
X486831Y68765D01*
X486076Y69269D01*
X485185Y69446D01*
D02*
G37*
G36*
X112000Y56579D02*
X110271D01*
X110349Y56188D01*
X110854Y55432D01*
X111609Y54928D01*
X112000Y54850D01*
Y56579D01*
D02*
G37*
G36*
X97012D02*
X95284D01*
Y54850D01*
X95674Y54928D01*
X96430Y55432D01*
X96934Y56188D01*
X97012Y56579D01*
D02*
G37*
G36*
X94283D02*
X92555D01*
X92633Y56188D01*
X93137Y55432D01*
X93893Y54928D01*
X94283Y54850D01*
Y56579D01*
D02*
G37*
G36*
X114729D02*
X113000D01*
Y54850D01*
X113391Y54928D01*
X114146Y55432D01*
X114651Y56188D01*
X114729Y56579D01*
D02*
G37*
G36*
X147433D02*
X145704D01*
X145782Y56188D01*
X146287Y55432D01*
X147042Y54928D01*
X147433Y54850D01*
Y56579D01*
D02*
G37*
G36*
X132445D02*
X130717D01*
Y54850D01*
X131108Y54928D01*
X131863Y55432D01*
X132368Y56188D01*
X132445Y56579D01*
D02*
G37*
G36*
X129717D02*
X127988D01*
X128066Y56188D01*
X128570Y55432D01*
X129326Y54928D01*
X129717Y54850D01*
Y56579D01*
D02*
G37*
G36*
X563800Y56193D02*
X561130D01*
Y53522D01*
X561468Y53567D01*
X562248Y53890D01*
X562918Y54404D01*
X563433Y55075D01*
X563756Y55855D01*
X563800Y56193D01*
D02*
G37*
G36*
X507567Y52281D02*
X507229Y52236D01*
X506449Y51913D01*
X505779Y51399D01*
X505264Y50728D01*
X504941Y49948D01*
X504896Y49610D01*
X507567D01*
Y52281D01*
D02*
G37*
G36*
X494745Y51150D02*
X493016D01*
Y49421D01*
X493407Y49499D01*
X494162Y50003D01*
X494667Y50759D01*
X494745Y51150D01*
D02*
G37*
G36*
X492016D02*
X490287D01*
X490365Y50759D01*
X490870Y50003D01*
X491625Y49499D01*
X492016Y49421D01*
Y51150D01*
D02*
G37*
G36*
X508567Y52281D02*
Y49610D01*
X511237D01*
X511193Y49948D01*
X510870Y50728D01*
X510355Y51399D01*
X509685Y51913D01*
X508905Y52236D01*
X508567Y52281D01*
D02*
G37*
G36*
X560130Y56193D02*
X557459D01*
X557504Y55855D01*
X557827Y55075D01*
X558342Y54404D01*
X559012Y53890D01*
X559792Y53567D01*
X560130Y53522D01*
Y56193D01*
D02*
G37*
G36*
X493016Y53878D02*
Y52150D01*
X494745D01*
X494667Y52541D01*
X494162Y53296D01*
X493407Y53801D01*
X493016Y53878D01*
D02*
G37*
G36*
X492016D02*
X491625Y53801D01*
X490870Y53296D01*
X490365Y52541D01*
X490287Y52150D01*
X492016D01*
Y53878D01*
D02*
G37*
G36*
X271449Y74295D02*
X269720D01*
X269798Y73905D01*
X270303Y73149D01*
X271058Y72644D01*
X271449Y72567D01*
Y74295D01*
D02*
G37*
G36*
X256461D02*
X254732D01*
Y72567D01*
X255123Y72644D01*
X255879Y73149D01*
X256383Y73905D01*
X256461Y74295D01*
D02*
G37*
G36*
X253732D02*
X252004D01*
X252081Y73905D01*
X252586Y73149D01*
X253342Y72644D01*
X253732Y72567D01*
Y74295D01*
D02*
G37*
G36*
X274178D02*
X272449D01*
Y72567D01*
X272840Y72644D01*
X273595Y73149D01*
X274100Y73905D01*
X274178Y74295D01*
D02*
G37*
G36*
X94283Y77024D02*
X93893Y76946D01*
X93137Y76442D01*
X92633Y75686D01*
X92555Y75295D01*
X94283D01*
Y77024D01*
D02*
G37*
G36*
X291894Y74295D02*
X290165D01*
Y72567D01*
X290556Y72644D01*
X291312Y73149D01*
X291816Y73905D01*
X291894Y74295D01*
D02*
G37*
G36*
X289165D02*
X287437D01*
X287514Y73905D01*
X288019Y73149D01*
X288774Y72644D01*
X289165Y72567D01*
Y74295D01*
D02*
G37*
G36*
X238745D02*
X237016D01*
Y72567D01*
X237407Y72644D01*
X238162Y73149D01*
X238667Y73905D01*
X238745Y74295D01*
D02*
G37*
G36*
X200583D02*
X198854D01*
X198932Y73905D01*
X199437Y73149D01*
X200192Y72644D01*
X200583Y72567D01*
Y74295D01*
D02*
G37*
G36*
X185595D02*
X183866D01*
Y72567D01*
X184257Y72644D01*
X185013Y73149D01*
X185517Y73905D01*
X185595Y74295D01*
D02*
G37*
G36*
X182866D02*
X181138D01*
X181215Y73905D01*
X181720Y73149D01*
X182475Y72644D01*
X182866Y72567D01*
Y74295D01*
D02*
G37*
G36*
X203312D02*
X201583D01*
Y72567D01*
X201974Y72644D01*
X202729Y73149D01*
X203234Y73905D01*
X203312Y74295D01*
D02*
G37*
G36*
X236016D02*
X234287D01*
X234365Y73905D01*
X234870Y73149D01*
X235625Y72644D01*
X236016Y72567D01*
Y74295D01*
D02*
G37*
G36*
X221028D02*
X219299D01*
Y72567D01*
X219690Y72644D01*
X220446Y73149D01*
X220950Y73905D01*
X221028Y74295D01*
D02*
G37*
G36*
X218299D02*
X216570D01*
X216648Y73905D01*
X217153Y73149D01*
X217908Y72644D01*
X218299Y72567D01*
Y74295D01*
D02*
G37*
G36*
X183866Y77024D02*
Y75295D01*
X185595D01*
X185517Y75686D01*
X185013Y76442D01*
X184257Y76946D01*
X183866Y77024D01*
D02*
G37*
G36*
X182866D02*
X182475Y76946D01*
X181720Y76442D01*
X181215Y75686D01*
X181138Y75295D01*
X182866D01*
Y77024D01*
D02*
G37*
G36*
X166150D02*
Y75295D01*
X167878D01*
X167801Y75686D01*
X167296Y76442D01*
X166541Y76946D01*
X166150Y77024D01*
D02*
G37*
G36*
X200583D02*
X200192Y76946D01*
X199437Y76442D01*
X198932Y75686D01*
X198854Y75295D01*
X200583D01*
Y77024D01*
D02*
G37*
G36*
X219299D02*
Y75295D01*
X221028D01*
X220950Y75686D01*
X220446Y76442D01*
X219690Y76946D01*
X219299Y77024D01*
D02*
G37*
G36*
X218299D02*
X217908Y76946D01*
X217153Y76442D01*
X216648Y75686D01*
X216570Y75295D01*
X218299D01*
Y77024D01*
D02*
G37*
G36*
X201583D02*
Y75295D01*
X203312D01*
X203234Y75686D01*
X202729Y76442D01*
X201974Y76946D01*
X201583Y77024D01*
D02*
G37*
G36*
X165150D02*
X164759Y76946D01*
X164003Y76442D01*
X163499Y75686D01*
X163421Y75295D01*
X165150D01*
Y77024D01*
D02*
G37*
G36*
X113000D02*
Y75295D01*
X114729D01*
X114651Y75686D01*
X114146Y76442D01*
X113391Y76946D01*
X113000Y77024D01*
D02*
G37*
G36*
X112000D02*
X111609Y76946D01*
X110854Y76442D01*
X110349Y75686D01*
X110271Y75295D01*
X112000D01*
Y77024D01*
D02*
G37*
G36*
X95284D02*
Y75295D01*
X97012D01*
X96934Y75686D01*
X96430Y76442D01*
X95674Y76946D01*
X95284Y77024D01*
D02*
G37*
G36*
X129717D02*
X129326Y76946D01*
X128570Y76442D01*
X128066Y75686D01*
X127988Y75295D01*
X129717D01*
Y77024D01*
D02*
G37*
G36*
X148433D02*
Y75295D01*
X150162D01*
X150084Y75686D01*
X149579Y76442D01*
X148824Y76946D01*
X148433Y77024D01*
D02*
G37*
G36*
X147433D02*
X147042Y76946D01*
X146287Y76442D01*
X145782Y75686D01*
X145704Y75295D01*
X147433D01*
Y77024D01*
D02*
G37*
G36*
X130717D02*
Y75295D01*
X132445D01*
X132368Y75686D01*
X131863Y76442D01*
X131108Y76946D01*
X130717Y77024D01*
D02*
G37*
G36*
X272449Y59308D02*
Y57579D01*
X274178D01*
X274100Y57970D01*
X273595Y58725D01*
X272840Y59230D01*
X272449Y59308D01*
D02*
G37*
G36*
X271449D02*
X271058Y59230D01*
X270303Y58725D01*
X269798Y57970D01*
X269720Y57579D01*
X271449D01*
Y59308D01*
D02*
G37*
G36*
X254732D02*
Y57579D01*
X256461D01*
X256383Y57970D01*
X255879Y58725D01*
X255123Y59230D01*
X254732Y59308D01*
D02*
G37*
G36*
X289165D02*
X288774Y59230D01*
X288019Y58725D01*
X287514Y57970D01*
X287437Y57579D01*
X289165D01*
Y59308D01*
D02*
G37*
G36*
X379024Y60516D02*
X377295D01*
X377373Y60125D01*
X377877Y59369D01*
X378633Y58865D01*
X379024Y58787D01*
Y60516D01*
D02*
G37*
G36*
X418066Y61415D02*
X417175Y61238D01*
X416420Y60733D01*
X415915Y59977D01*
X415738Y59087D01*
X415915Y58196D01*
X415991Y58083D01*
X415755Y57642D01*
X344882D01*
X344881Y57642D01*
X344488Y57721D01*
X344160Y57655D01*
X344095Y57642D01*
X344094Y57642D01*
X322722D01*
X322329Y57564D01*
X321996Y57341D01*
X317793Y53138D01*
X317570Y52805D01*
X317567Y52788D01*
X310995Y46216D01*
X169445D01*
X169128Y46603D01*
X169254Y47236D01*
X169076Y48127D01*
X168572Y48882D01*
X167816Y49387D01*
X166925Y49564D01*
X166034Y49387D01*
X165279Y48882D01*
X165207Y48774D01*
X164707D01*
X164635Y48882D01*
X163879Y49387D01*
X162988Y49564D01*
X162097Y49387D01*
X161342Y48882D01*
X161270Y48774D01*
X160770D01*
X160698Y48882D01*
X159942Y49387D01*
X159051Y49564D01*
X158160Y49387D01*
X157405Y48882D01*
X157333Y48774D01*
X156833D01*
X156761Y48882D01*
X156005Y49387D01*
X155114Y49564D01*
X154223Y49387D01*
X153468Y48882D01*
X152963Y48127D01*
X152786Y47236D01*
X152963Y46345D01*
X153468Y45590D01*
X154153Y45132D01*
X154165Y45071D01*
X154388Y44738D01*
X157912Y41214D01*
X157720Y40752D01*
X155020D01*
X150730Y45042D01*
X150779Y45539D01*
X150855Y45590D01*
X151360Y46345D01*
X151537Y47236D01*
X151360Y48127D01*
X150855Y48882D01*
X150100Y49387D01*
X149209Y49564D01*
X148318Y49387D01*
X147563Y48882D01*
X147490Y48774D01*
X146990D01*
X146918Y48882D01*
X146163Y49387D01*
X145272Y49564D01*
X144381Y49387D01*
X143626Y48882D01*
X143553Y48774D01*
X143053D01*
X142981Y48882D01*
X142226Y49387D01*
X141335Y49564D01*
X140444Y49387D01*
X139689Y48882D01*
X139616Y48774D01*
X139116D01*
X139044Y48882D01*
X138289Y49387D01*
X137398Y49564D01*
X136507Y49387D01*
X135752Y48882D01*
X135247Y48127D01*
X135070Y47236D01*
X135247Y46345D01*
X135752Y45590D01*
X136370Y45177D01*
X136370Y45177D01*
X136370Y44834D01*
X136370Y44834D01*
X136370D01*
X136449Y44441D01*
X136671Y44108D01*
X146006Y34773D01*
X145815Y34311D01*
X144335D01*
X133131Y45515D01*
X133139Y45590D01*
X133643Y46345D01*
X133820Y47236D01*
X133643Y48127D01*
X133139Y48882D01*
X132383Y49387D01*
X131492Y49564D01*
X130601Y49387D01*
X129846Y48882D01*
X129774Y48774D01*
X129274D01*
X129202Y48882D01*
X128446Y49387D01*
X127555Y49564D01*
X126664Y49387D01*
X125909Y48882D01*
X125837Y48774D01*
X125337D01*
X125265Y48882D01*
X124509Y49387D01*
X123618Y49564D01*
X122727Y49387D01*
X121972Y48882D01*
X121900Y48774D01*
X121400D01*
X121328Y48882D01*
X120572Y49387D01*
X119681Y49564D01*
X118790Y49387D01*
X118035Y48882D01*
X117530Y48127D01*
X117353Y47236D01*
X117530Y46345D01*
X118035Y45590D01*
X118462Y45305D01*
X118453Y45311D01*
X118654Y45110D01*
X118654Y45110D01*
D01*
X118732Y44717D01*
X118955Y44383D01*
X134675Y28663D01*
X134592Y28461D01*
X134101Y28364D01*
X115959Y46507D01*
X116104Y47236D01*
X115927Y48127D01*
X115422Y48882D01*
X114667Y49387D01*
X113776Y49564D01*
X112885Y49387D01*
X112129Y48882D01*
X112057Y48774D01*
X111557D01*
X111485Y48882D01*
X110730Y49387D01*
X109839Y49564D01*
X108948Y49387D01*
X108192Y48882D01*
X108120Y48774D01*
X107620D01*
X107548Y48882D01*
X106793Y49387D01*
X105902Y49564D01*
X105011Y49387D01*
X104255Y48882D01*
X104183Y48774D01*
X103683D01*
X103611Y48882D01*
X102856Y49387D01*
X101965Y49564D01*
X101074Y49387D01*
X100318Y48882D01*
X99814Y48127D01*
X99637Y47236D01*
X99814Y46345D01*
X100318Y45590D01*
X101074Y45085D01*
X101965Y44908D01*
X102694Y45053D01*
X125222Y22525D01*
X125222Y22525D01*
X125556Y22302D01*
X125949Y22224D01*
X281576D01*
X281969Y22302D01*
X282302Y22525D01*
X282757Y22980D01*
X337000D01*
X337393Y23058D01*
X337727Y23281D01*
X343733Y29287D01*
X360449D01*
X362549Y27187D01*
X362549Y27187D01*
X362716Y27075D01*
X362882Y26964D01*
X362931Y26954D01*
X373683Y16203D01*
X373683Y16203D01*
X374016Y15980D01*
X374016Y15980D01*
X374016Y15980D01*
D01*
X374016Y15980D01*
X374016Y15980D01*
X374410Y15901D01*
X374410Y15901D01*
X388864D01*
X388916Y15637D01*
X389139Y15304D01*
X392524Y11919D01*
X392858Y11696D01*
X393251Y11618D01*
X406346D01*
X406740Y11696D01*
X407073Y11919D01*
X409507Y14352D01*
X410236Y14207D01*
X411127Y14385D01*
X411882Y14889D01*
X412387Y15644D01*
X412564Y16535D01*
X412387Y17426D01*
X411882Y18182D01*
X411127Y18686D01*
X410236Y18864D01*
X409345Y18686D01*
X408590Y18182D01*
X408085Y17426D01*
X407908Y16535D01*
X408053Y15806D01*
X405921Y13673D01*
X403575D01*
X403384Y14135D01*
X404388Y15140D01*
X405118Y14995D01*
X406009Y15172D01*
X406764Y15676D01*
X407269Y16432D01*
X407446Y17323D01*
X407269Y18214D01*
X406764Y18969D01*
X406009Y19474D01*
X406009Y19474D01*
X406009D01*
Y19474D01*
X406013Y19516D01*
X410995D01*
X411145Y19291D01*
X411900Y18786D01*
X412791Y18609D01*
X413682Y18786D01*
X414438Y19291D01*
X414942Y20046D01*
X415120Y20937D01*
X414942Y21828D01*
X414438Y22583D01*
X413682Y23088D01*
X413189Y23186D01*
X413387Y23453D01*
X415825D01*
X415955Y22802D01*
X416459Y22047D01*
X417215Y21542D01*
X418106Y21365D01*
X418997Y21542D01*
X419752Y22047D01*
X420257Y22802D01*
X420434Y23693D01*
X420257Y24584D01*
X420109Y24805D01*
X420114Y24813D01*
X421005Y24990D01*
X421761Y25495D01*
X422001Y25854D01*
X422491Y25952D01*
X423081Y25558D01*
X423972Y25381D01*
X424863Y25558D01*
X425619Y26062D01*
X426123Y26818D01*
X426301Y27709D01*
X426123Y28600D01*
X425619Y29355D01*
X424863Y29860D01*
X424667Y29899D01*
Y30125D01*
X425422Y30629D01*
X425927Y31385D01*
X426104Y32276D01*
X425927Y33167D01*
X425422Y33922D01*
X424667Y34427D01*
X423776Y34604D01*
X423744Y34651D01*
X424197Y35329D01*
X424197Y35329D01*
Y35329D01*
X424334Y35669D01*
X424334Y35669D01*
Y35669D01*
X425089Y35164D01*
X425980Y34987D01*
X426871Y35164D01*
X427627Y35669D01*
X428131Y36424D01*
X428308Y37315D01*
X428131Y38206D01*
X427627Y38961D01*
X426871Y39466D01*
X425980Y39643D01*
X425251Y39498D01*
X425219Y39530D01*
X424885Y39753D01*
X424492Y39831D01*
X417763D01*
X417763Y39831D01*
X417369Y39753D01*
X417036Y39530D01*
X417036Y39530D01*
X406919Y29414D01*
X400029D01*
X398716Y30727D01*
X398383Y30949D01*
X397989Y31028D01*
X380249D01*
X378324Y32953D01*
X378286Y33010D01*
X378286Y33010D01*
X367183Y44113D01*
X366850Y44335D01*
X366457Y44414D01*
X337893D01*
X337500Y44335D01*
X337166Y44113D01*
X337166Y44113D01*
X331483Y38429D01*
X317748D01*
X316868Y39309D01*
X316535Y39532D01*
X316142Y39610D01*
X315960Y40048D01*
X326270Y50358D01*
X341102D01*
X342715Y48745D01*
X342715Y48745D01*
X343048Y48522D01*
X343048Y48522D01*
X343048Y48522D01*
D01*
X343048Y48522D01*
X343048Y48522D01*
X343442Y48444D01*
X343442Y48444D01*
X427190D01*
X427280Y48462D01*
X427411Y47802D01*
X427916Y47047D01*
X428671Y46542D01*
X429562Y46365D01*
X430453Y46542D01*
X431209Y47047D01*
X431713Y47802D01*
X431890Y48693D01*
X431713Y49584D01*
X431209Y50339D01*
X430453Y50844D01*
X429562Y51021D01*
X430021Y51857D01*
X430021Y51857D01*
X430198Y52748D01*
X430021Y53639D01*
X429516Y54394D01*
X428761Y54899D01*
X427870Y55076D01*
X426979Y54899D01*
X426686Y54703D01*
X425886Y54544D01*
X425382Y55300D01*
X424626Y55804D01*
X423736Y55982D01*
X423394Y56323D01*
X423466Y56685D01*
X423289Y57576D01*
X422784Y58331D01*
X422029Y58836D01*
X421138Y59013D01*
X420784Y58943D01*
X420368Y59221D01*
X420217Y59977D01*
X419712Y60733D01*
X418957Y61238D01*
X418066Y61415D01*
D02*
G37*
G36*
X290165Y59308D02*
Y57579D01*
X291894D01*
X291816Y57970D01*
X291312Y58725D01*
X290556Y59230D01*
X290165Y59308D01*
D02*
G37*
G36*
X253732D02*
X253342Y59230D01*
X252586Y58725D01*
X252081Y57970D01*
X252004Y57579D01*
X253732D01*
Y59308D01*
D02*
G37*
G36*
X201583D02*
Y57579D01*
X203312D01*
X203234Y57970D01*
X202729Y58725D01*
X201974Y59230D01*
X201583Y59308D01*
D02*
G37*
G36*
X200583D02*
X200192Y59230D01*
X199437Y58725D01*
X198932Y57970D01*
X198854Y57579D01*
X200583D01*
Y59308D01*
D02*
G37*
G36*
X183866D02*
Y57579D01*
X185595D01*
X185517Y57970D01*
X185013Y58725D01*
X184257Y59230D01*
X183866Y59308D01*
D02*
G37*
G36*
X218299D02*
X217908Y59230D01*
X217153Y58725D01*
X216648Y57970D01*
X216570Y57579D01*
X218299D01*
Y59308D01*
D02*
G37*
G36*
X237016D02*
Y57579D01*
X238745D01*
X238667Y57970D01*
X238162Y58725D01*
X237407Y59230D01*
X237016Y59308D01*
D02*
G37*
G36*
X236016D02*
X235625Y59230D01*
X234870Y58725D01*
X234365Y57970D01*
X234287Y57579D01*
X236016D01*
Y59308D01*
D02*
G37*
G36*
X219299D02*
Y57579D01*
X221028D01*
X220950Y57970D01*
X220446Y58725D01*
X219690Y59230D01*
X219299Y59308D01*
D02*
G37*
G36*
X132445Y74295D02*
X130717D01*
Y72567D01*
X131108Y72644D01*
X131863Y73149D01*
X132368Y73905D01*
X132445Y74295D01*
D02*
G37*
G36*
X129717D02*
X127988D01*
X128066Y73905D01*
X128570Y73149D01*
X129326Y72644D01*
X129717Y72567D01*
Y74295D01*
D02*
G37*
G36*
X114729D02*
X113000D01*
Y72567D01*
X113391Y72644D01*
X114146Y73149D01*
X114651Y73905D01*
X114729Y74295D01*
D02*
G37*
G36*
X147433D02*
X145704D01*
X145782Y73905D01*
X146287Y73149D01*
X147042Y72644D01*
X147433Y72567D01*
Y74295D01*
D02*
G37*
G36*
X167878D02*
X166150D01*
Y72567D01*
X166541Y72644D01*
X167296Y73149D01*
X167801Y73905D01*
X167878Y74295D01*
D02*
G37*
G36*
X165150D02*
X163421D01*
X163499Y73905D01*
X164003Y73149D01*
X164759Y72644D01*
X165150Y72567D01*
Y74295D01*
D02*
G37*
G36*
X150162D02*
X148433D01*
Y72567D01*
X148824Y72644D01*
X149579Y73149D01*
X150084Y73905D01*
X150162Y74295D01*
D02*
G37*
G36*
X112000D02*
X110271D01*
X110349Y73905D01*
X110854Y73149D01*
X111609Y72644D01*
X112000Y72567D01*
Y74295D01*
D02*
G37*
G36*
X380024Y63244D02*
Y61516D01*
X381752D01*
X381675Y61907D01*
X381170Y62662D01*
X380415Y63167D01*
X380024Y63244D01*
D02*
G37*
G36*
X379024D02*
X378633Y63167D01*
X377877Y62662D01*
X377373Y61907D01*
X377295Y61516D01*
X379024D01*
Y63244D01*
D02*
G37*
G36*
X381752Y60516D02*
X380024D01*
Y58787D01*
X380415Y58865D01*
X381170Y59369D01*
X381675Y60125D01*
X381752Y60516D01*
D02*
G37*
G36*
X30118Y68058D02*
X25000D01*
X24198Y67953D01*
X23451Y67643D01*
X22810Y67151D01*
X22318Y66509D01*
X22008Y65762D01*
X21903Y64961D01*
X22008Y64159D01*
X22318Y63412D01*
X22810Y62770D01*
X23451Y62278D01*
X24198Y61969D01*
X25000Y61863D01*
X30118D01*
X30920Y61969D01*
X31667Y62278D01*
X32308Y62770D01*
X32800Y63412D01*
X33110Y64159D01*
X33215Y64961D01*
X33110Y65762D01*
X32800Y66509D01*
X32308Y67151D01*
X31667Y67643D01*
X30920Y67953D01*
X30118Y68058D01*
D02*
G37*
G36*
X97012Y74295D02*
X95284D01*
Y72567D01*
X95674Y72644D01*
X96430Y73149D01*
X96934Y73905D01*
X97012Y74295D01*
D02*
G37*
G36*
X94283D02*
X92555D01*
X92633Y73905D01*
X93137Y73149D01*
X93893Y72644D01*
X94283Y72567D01*
Y74295D01*
D02*
G37*
G36*
X30118Y75932D02*
X25000D01*
X24198Y75827D01*
X23451Y75517D01*
X22810Y75025D01*
X22318Y74383D01*
X22008Y73636D01*
X21903Y72835D01*
X22008Y72033D01*
X22318Y71286D01*
X22810Y70644D01*
X23451Y70152D01*
X24198Y69843D01*
X25000Y69737D01*
X30118D01*
X30920Y69843D01*
X31667Y70152D01*
X32308Y70644D01*
X32800Y71286D01*
X33110Y72033D01*
X33215Y72835D01*
X33110Y73636D01*
X32800Y74383D01*
X32308Y75025D01*
X31667Y75517D01*
X30920Y75827D01*
X30118Y75932D01*
D02*
G37*
G36*
X167878Y127445D02*
X166150D01*
Y125716D01*
X166541Y125794D01*
X167296Y126299D01*
X167801Y127054D01*
X167878Y127445D01*
D02*
G37*
G36*
X221028Y180595D02*
X219299D01*
Y178866D01*
X219690Y178944D01*
X220446Y179448D01*
X220950Y180204D01*
X221028Y180595D01*
D02*
G37*
G36*
X218299D02*
X216570D01*
X216648Y180204D01*
X217153Y179448D01*
X217908Y178944D01*
X218299Y178866D01*
Y180595D01*
D02*
G37*
G36*
X203312D02*
X201583D01*
Y178866D01*
X201974Y178944D01*
X202729Y179448D01*
X203234Y180204D01*
X203312Y180595D01*
D02*
G37*
G36*
X236016D02*
X234287D01*
X234365Y180204D01*
X234870Y179448D01*
X235625Y178944D01*
X236016Y178866D01*
Y180595D01*
D02*
G37*
G36*
X256461D02*
X254732D01*
Y178866D01*
X255123Y178944D01*
X255879Y179448D01*
X256383Y180204D01*
X256461Y180595D01*
D02*
G37*
G36*
X253732D02*
X252004D01*
X252081Y180204D01*
X252586Y179448D01*
X253342Y178944D01*
X253732Y178866D01*
Y180595D01*
D02*
G37*
G36*
X238745D02*
X237016D01*
Y178866D01*
X237407Y178944D01*
X238162Y179448D01*
X238667Y180204D01*
X238745Y180595D01*
D02*
G37*
G36*
X200583D02*
X198854D01*
X198932Y180204D01*
X199437Y179448D01*
X200192Y178944D01*
X200583Y178866D01*
Y180595D01*
D02*
G37*
G36*
X150162D02*
X148433D01*
Y178866D01*
X148824Y178944D01*
X149579Y179448D01*
X150084Y180204D01*
X150162Y180595D01*
D02*
G37*
G36*
X147433D02*
X145704D01*
X145782Y180204D01*
X146287Y179448D01*
X147042Y178944D01*
X147433Y178866D01*
Y180595D01*
D02*
G37*
G36*
X132445D02*
X130717D01*
Y178866D01*
X131108Y178944D01*
X131863Y179448D01*
X132368Y180204D01*
X132445Y180595D01*
D02*
G37*
G36*
X165150D02*
X163421D01*
X163499Y180204D01*
X164003Y179448D01*
X164759Y178944D01*
X165150Y178866D01*
Y180595D01*
D02*
G37*
G36*
X185595D02*
X183866D01*
Y178866D01*
X184257Y178944D01*
X185013Y179448D01*
X185517Y180204D01*
X185595Y180595D01*
D02*
G37*
G36*
X182866D02*
X181138D01*
X181215Y180204D01*
X181720Y179448D01*
X182475Y178944D01*
X182866Y178866D01*
Y180595D01*
D02*
G37*
G36*
X167878D02*
X166150D01*
Y178866D01*
X166541Y178944D01*
X167296Y179448D01*
X167801Y180204D01*
X167878Y180595D01*
D02*
G37*
G36*
X112000Y183323D02*
X111609Y183246D01*
X110854Y182741D01*
X110349Y181986D01*
X110271Y181595D01*
X112000D01*
Y183323D01*
D02*
G37*
G36*
X95284D02*
Y181595D01*
X97012D01*
X96934Y181986D01*
X96430Y182741D01*
X95674Y183246D01*
X95284Y183323D01*
D02*
G37*
G36*
X94283D02*
X93893Y183246D01*
X93137Y182741D01*
X92633Y181986D01*
X92555Y181595D01*
X94283D01*
Y183323D01*
D02*
G37*
G36*
X113000D02*
Y181595D01*
X114729D01*
X114651Y181986D01*
X114146Y182741D01*
X113391Y183246D01*
X113000Y183323D01*
D02*
G37*
G36*
X147433D02*
X147042Y183246D01*
X146287Y182741D01*
X145782Y181986D01*
X145704Y181595D01*
X147433D01*
Y183323D01*
D02*
G37*
G36*
X130717D02*
Y181595D01*
X132445D01*
X132368Y181986D01*
X131863Y182741D01*
X131108Y183246D01*
X130717Y183323D01*
D02*
G37*
G36*
X129717D02*
X129326Y183246D01*
X128570Y182741D01*
X128066Y181986D01*
X127988Y181595D01*
X129717D01*
Y183323D01*
D02*
G37*
G36*
X515319Y181823D02*
Y180095D01*
X517048D01*
X516970Y180485D01*
X516465Y181241D01*
X515710Y181746D01*
X515319Y181823D01*
D02*
G37*
G36*
X289165Y180595D02*
X287437D01*
X287514Y180204D01*
X288019Y179448D01*
X288774Y178944D01*
X289165Y178866D01*
Y180595D01*
D02*
G37*
G36*
X274178D02*
X272449D01*
Y178866D01*
X272840Y178944D01*
X273595Y179448D01*
X274100Y180204D01*
X274178Y180595D01*
D02*
G37*
G36*
X271449D02*
X269720D01*
X269798Y180204D01*
X270303Y179448D01*
X271058Y178944D01*
X271449Y178866D01*
Y180595D01*
D02*
G37*
G36*
X291894D02*
X290165D01*
Y178866D01*
X290556Y178944D01*
X291312Y179448D01*
X291816Y180204D01*
X291894Y180595D01*
D02*
G37*
G36*
X514319Y181823D02*
X513928Y181746D01*
X513173Y181241D01*
X512668Y180485D01*
X512590Y180095D01*
X514319D01*
Y181823D01*
D02*
G37*
G36*
X475954Y182370D02*
X473283D01*
Y179700D01*
X473621Y179744D01*
X474402Y180067D01*
X475072Y180582D01*
X475586Y181252D01*
X475910Y182032D01*
X475954Y182370D01*
D02*
G37*
G36*
X472284D02*
X469613D01*
X469657Y182032D01*
X469981Y181252D01*
X470495Y180582D01*
X471165Y180067D01*
X471946Y179744D01*
X472284Y179700D01*
Y182370D01*
D02*
G37*
G36*
X183866Y165607D02*
Y163878D01*
X185595D01*
X185517Y164269D01*
X185013Y165024D01*
X184257Y165529D01*
X183866Y165607D01*
D02*
G37*
G36*
X182866D02*
X182475Y165529D01*
X181720Y165024D01*
X181215Y164269D01*
X181138Y163878D01*
X182866D01*
Y165607D01*
D02*
G37*
G36*
X166150D02*
Y163878D01*
X167878D01*
X167801Y164269D01*
X167296Y165024D01*
X166541Y165529D01*
X166150Y165607D01*
D02*
G37*
G36*
X200583D02*
X200192Y165529D01*
X199437Y165024D01*
X198932Y164269D01*
X198854Y163878D01*
X200583D01*
Y165607D01*
D02*
G37*
G36*
X219299D02*
Y163878D01*
X221028D01*
X220950Y164269D01*
X220446Y165024D01*
X219690Y165529D01*
X219299Y165607D01*
D02*
G37*
G36*
X218299D02*
X217908Y165529D01*
X217153Y165024D01*
X216648Y164269D01*
X216570Y163878D01*
X218299D01*
Y165607D01*
D02*
G37*
G36*
X201583D02*
Y163878D01*
X203312D01*
X203234Y164269D01*
X202729Y165024D01*
X201974Y165529D01*
X201583Y165607D01*
D02*
G37*
G36*
X165150D02*
X164759Y165529D01*
X164003Y165024D01*
X163499Y164269D01*
X163421Y163878D01*
X165150D01*
Y165607D01*
D02*
G37*
G36*
X113000D02*
Y163878D01*
X114729D01*
X114651Y164269D01*
X114146Y165024D01*
X113391Y165529D01*
X113000Y165607D01*
D02*
G37*
G36*
X112000D02*
X111609Y165529D01*
X110854Y165024D01*
X110349Y164269D01*
X110271Y163878D01*
X112000D01*
Y165607D01*
D02*
G37*
G36*
X95284D02*
Y163878D01*
X97012D01*
X96934Y164269D01*
X96430Y165024D01*
X95674Y165529D01*
X95284Y165607D01*
D02*
G37*
G36*
X129717D02*
X129326Y165529D01*
X128570Y165024D01*
X128066Y164269D01*
X127988Y163878D01*
X129717D01*
Y165607D01*
D02*
G37*
G36*
X148433D02*
Y163878D01*
X150162D01*
X150084Y164269D01*
X149579Y165024D01*
X148824Y165529D01*
X148433Y165607D01*
D02*
G37*
G36*
X147433D02*
X147042Y165529D01*
X146287Y165024D01*
X145782Y164269D01*
X145704Y163878D01*
X147433D01*
Y165607D01*
D02*
G37*
G36*
X130717D02*
Y163878D01*
X132445D01*
X132368Y164269D01*
X131863Y165024D01*
X131108Y165529D01*
X130717Y165607D01*
D02*
G37*
G36*
X94283Y180595D02*
X92555D01*
X92633Y180204D01*
X93137Y179448D01*
X93893Y178944D01*
X94283Y178866D01*
Y180595D01*
D02*
G37*
G36*
X517048Y179095D02*
X515319D01*
Y177366D01*
X515710Y177444D01*
X516465Y177948D01*
X516970Y178703D01*
X517048Y179095D01*
D02*
G37*
G36*
X514319D02*
X512590D01*
X512668Y178703D01*
X513173Y177948D01*
X513928Y177444D01*
X514319Y177366D01*
Y179095D01*
D02*
G37*
G36*
X97012Y180595D02*
X95284D01*
Y178866D01*
X95674Y178944D01*
X96430Y179448D01*
X96934Y180204D01*
X97012Y180595D01*
D02*
G37*
G36*
X129717D02*
X127988D01*
X128066Y180204D01*
X128570Y179448D01*
X129326Y178944D01*
X129717Y178866D01*
Y180595D01*
D02*
G37*
G36*
X114729D02*
X113000D01*
Y178866D01*
X113391Y178944D01*
X114146Y179448D01*
X114651Y180204D01*
X114729Y180595D01*
D02*
G37*
G36*
X112000D02*
X110271D01*
X110349Y180204D01*
X110854Y179448D01*
X111609Y178944D01*
X112000Y178866D01*
Y180595D01*
D02*
G37*
G36*
X290165Y165607D02*
Y163878D01*
X291894D01*
X291816Y164269D01*
X291312Y165024D01*
X290556Y165529D01*
X290165Y165607D01*
D02*
G37*
G36*
X253732D02*
X253342Y165529D01*
X252586Y165024D01*
X252081Y164269D01*
X252004Y163878D01*
X253732D01*
Y165607D01*
D02*
G37*
G36*
X237016D02*
Y163878D01*
X238745D01*
X238667Y164269D01*
X238162Y165024D01*
X237407Y165529D01*
X237016Y165607D01*
D02*
G37*
G36*
X236016D02*
X235625Y165529D01*
X234870Y165024D01*
X234365Y164269D01*
X234287Y163878D01*
X236016D01*
Y165607D01*
D02*
G37*
G36*
X254732D02*
Y163878D01*
X256461D01*
X256383Y164269D01*
X255879Y165024D01*
X255123Y165529D01*
X254732Y165607D01*
D02*
G37*
G36*
X289165D02*
X288774Y165529D01*
X288019Y165024D01*
X287514Y164269D01*
X287437Y163878D01*
X289165D01*
Y165607D01*
D02*
G37*
G36*
X272449D02*
Y163878D01*
X274178D01*
X274100Y164269D01*
X273595Y165024D01*
X272840Y165529D01*
X272449Y165607D01*
D02*
G37*
G36*
X271449D02*
X271058Y165529D01*
X270303Y165024D01*
X269798Y164269D01*
X269720Y163878D01*
X271449D01*
Y165607D01*
D02*
G37*
G36*
X593984Y255398D02*
X583940D01*
X584031Y254242D01*
X584418Y252627D01*
X585054Y251093D01*
X585922Y249677D01*
X587000Y248414D01*
X588263Y247335D01*
X589679Y246467D01*
X591214Y245832D01*
X592829Y245444D01*
X593984Y245353D01*
Y255398D01*
D02*
G37*
G36*
X26289D02*
X16244D01*
Y245353D01*
X17400Y245444D01*
X19015Y245832D01*
X20549Y246467D01*
X21965Y247335D01*
X23228Y248414D01*
X24307Y249677D01*
X25174Y251093D01*
X25810Y252627D01*
X26198Y254242D01*
X26289Y255398D01*
D02*
G37*
G36*
X15244D02*
X5200D01*
X5291Y254242D01*
X5678Y252627D01*
X6314Y251093D01*
X7182Y249677D01*
X8260Y248414D01*
X9523Y247335D01*
X10939Y246467D01*
X12473Y245832D01*
X14088Y245444D01*
X15244Y245353D01*
Y255398D01*
D02*
G37*
G36*
X605029D02*
X594984D01*
Y245353D01*
X596140Y245444D01*
X597755Y245832D01*
X599289Y246467D01*
X600705Y247335D01*
X601968Y248414D01*
X603047Y249677D01*
X603914Y251093D01*
X604550Y252627D01*
X604938Y254242D01*
X605029Y255398D01*
D02*
G37*
G36*
X491575Y261724D02*
X490619Y261599D01*
X489728Y261230D01*
X488963Y260643D01*
X488377Y259878D01*
X488008Y258987D01*
X487882Y258032D01*
X488008Y257076D01*
X488377Y256185D01*
X488963Y255420D01*
X489728Y254833D01*
X490619Y254464D01*
X491575Y254339D01*
X492531Y254464D01*
X493341Y254800D01*
X494508Y253633D01*
Y250961D01*
X494059Y250740D01*
X493421Y251230D01*
X492531Y251599D01*
X491575Y251725D01*
X490619Y251599D01*
X489728Y251230D01*
X488963Y250643D01*
X488377Y249878D01*
X488008Y248987D01*
X487882Y248031D01*
X488008Y247076D01*
X488377Y246185D01*
X488963Y245420D01*
X489728Y244833D01*
X490619Y244464D01*
X491575Y244338D01*
X492531Y244464D01*
X493421Y244833D01*
X494055Y245320D01*
X494504Y245099D01*
Y177594D01*
X494504Y177594D01*
X494504D01*
X494582Y177201D01*
X494805Y176868D01*
X502909Y168763D01*
Y135131D01*
X502291Y134717D01*
X501786Y133962D01*
X501609Y133071D01*
X501786Y132180D01*
X502291Y131425D01*
X503046Y130920D01*
X503937Y130743D01*
X504828Y130920D01*
X505583Y131425D01*
X506088Y132180D01*
X506265Y133071D01*
X506088Y133962D01*
X505583Y134717D01*
X504965Y135131D01*
Y169189D01*
X504965Y169189D01*
X504886Y169582D01*
X504664Y169916D01*
X504664Y169916D01*
X496559Y178020D01*
Y246371D01*
X496563Y246391D01*
X496563Y246391D01*
Y254059D01*
X496563Y254059D01*
X496485Y254452D01*
X496262Y254786D01*
X494799Y256248D01*
X495142Y257076D01*
X495268Y258032D01*
X495142Y258987D01*
X494773Y259878D01*
X494186Y260643D01*
X493421Y261230D01*
X492531Y261599D01*
X491575Y261724D01*
D02*
G37*
G36*
X357008Y256614D02*
X350894D01*
Y250500D01*
X357008D01*
Y256614D01*
D02*
G37*
G36*
X349894D02*
X343780D01*
Y250500D01*
X349894D01*
Y256614D01*
D02*
G37*
G36*
X555236Y251693D02*
X547913D01*
Y244370D01*
X555236D01*
Y251693D01*
D02*
G37*
G36*
X481575Y251725D02*
X480619Y251599D01*
X479728Y251230D01*
X478963Y250643D01*
X478377Y249878D01*
X478008Y248987D01*
X477882Y248031D01*
X478008Y247076D01*
X478377Y246185D01*
X478963Y245420D01*
X479728Y244833D01*
X480619Y244464D01*
X481575Y244338D01*
X482531Y244464D01*
X483421Y244833D01*
X484186Y245420D01*
X484773Y246185D01*
X485142Y247076D01*
X485268Y248031D01*
X485142Y248987D01*
X484773Y249878D01*
X484186Y250643D01*
X483421Y251230D01*
X482531Y251599D01*
X481575Y251725D01*
D02*
G37*
G36*
X357008Y249500D02*
X350894D01*
Y243386D01*
X357008D01*
Y249500D01*
D02*
G37*
G36*
X349894D02*
X343780D01*
Y243386D01*
X349894D01*
Y249500D01*
D02*
G37*
G36*
X501575Y251725D02*
X500619Y251599D01*
X499728Y251230D01*
X498963Y250643D01*
X498377Y249878D01*
X498008Y248987D01*
X497882Y248031D01*
X498008Y247076D01*
X498377Y246185D01*
X498963Y245420D01*
X499728Y244833D01*
X500619Y244464D01*
X501575Y244338D01*
X502531Y244464D01*
X503421Y244833D01*
X504186Y245420D01*
X504773Y246185D01*
X505142Y247076D01*
X505268Y248031D01*
X505142Y248987D01*
X504773Y249878D01*
X504186Y250643D01*
X503421Y251230D01*
X502531Y251599D01*
X501575Y251725D01*
D02*
G37*
G36*
X541575D02*
X540619Y251599D01*
X539728Y251230D01*
X538963Y250643D01*
X538377Y249878D01*
X538008Y248987D01*
X537882Y248031D01*
X538008Y247076D01*
X538377Y246185D01*
X538963Y245420D01*
X539728Y244833D01*
X540619Y244464D01*
X541575Y244338D01*
X542531Y244464D01*
X543421Y244833D01*
X544186Y245420D01*
X544773Y246185D01*
X545142Y247076D01*
X545268Y248031D01*
X545142Y248987D01*
X544773Y249878D01*
X544186Y250643D01*
X543421Y251230D01*
X542531Y251599D01*
X541575Y251725D01*
D02*
G37*
G36*
X521575D02*
X520619Y251599D01*
X519728Y251230D01*
X518963Y250643D01*
X518377Y249878D01*
X518008Y248987D01*
X517882Y248031D01*
X518008Y247076D01*
X518377Y246185D01*
X518963Y245420D01*
X519728Y244833D01*
X520619Y244464D01*
X521575Y244338D01*
X522531Y244464D01*
X523421Y244833D01*
X524186Y245420D01*
X524773Y246185D01*
X525142Y247076D01*
X525268Y248031D01*
X525142Y248987D01*
X524773Y249878D01*
X524186Y250643D01*
X523421Y251230D01*
X522531Y251599D01*
X521575Y251725D01*
D02*
G37*
G36*
X511575D02*
X510619Y251599D01*
X509728Y251230D01*
X508963Y250643D01*
X508377Y249878D01*
X508008Y248987D01*
X507882Y248031D01*
X508008Y247076D01*
X508377Y246185D01*
X508963Y245420D01*
X509728Y244833D01*
X510619Y244464D01*
X511575Y244338D01*
X512531Y244464D01*
X513421Y244833D01*
X514186Y245420D01*
X514773Y246185D01*
X515142Y247076D01*
X515268Y248031D01*
X515142Y248987D01*
X514773Y249878D01*
X514186Y250643D01*
X513421Y251230D01*
X512531Y251599D01*
X511575Y251725D01*
D02*
G37*
G36*
X481075Y261659D02*
X480619Y261599D01*
X479728Y261230D01*
X478963Y260643D01*
X478377Y259878D01*
X478008Y258987D01*
X477948Y258531D01*
X481075D01*
Y261659D01*
D02*
G37*
G36*
X594984Y266442D02*
Y256398D01*
X605029D01*
X604938Y257553D01*
X604550Y259168D01*
X603914Y260703D01*
X603047Y262119D01*
X601968Y263382D01*
X600705Y264460D01*
X599289Y265328D01*
X597755Y265963D01*
X596140Y266351D01*
X594984Y266442D01*
D02*
G37*
G36*
X593984D02*
X592829Y266351D01*
X591214Y265963D01*
X589679Y265328D01*
X588263Y264460D01*
X587000Y263382D01*
X585922Y262119D01*
X585054Y260703D01*
X584418Y259168D01*
X584031Y257553D01*
X583940Y256398D01*
X593984D01*
Y266442D01*
D02*
G37*
G36*
X482075Y261659D02*
Y258531D01*
X485202D01*
X485142Y258987D01*
X484773Y259878D01*
X484186Y260643D01*
X483421Y261230D01*
X482531Y261599D01*
X482075Y261659D01*
D02*
G37*
G36*
X430150Y266100D02*
X430150Y266100D01*
X55898D01*
X55898Y266100D01*
X55007Y265923D01*
X54251Y265418D01*
X45448Y256614D01*
X40630D01*
Y243386D01*
X44522D01*
Y28268D01*
X40630D01*
Y15039D01*
X53858D01*
Y28268D01*
X49179D01*
Y243386D01*
X53858D01*
Y256614D01*
X52686D01*
X52495Y257076D01*
X56862Y261443D01*
X429185D01*
X460932Y229697D01*
Y207874D01*
X460932Y207874D01*
X461109Y206983D01*
X461614Y206228D01*
X486704Y181137D01*
X486704Y181137D01*
X487082Y180885D01*
X487459Y180632D01*
X488350Y180455D01*
X489241Y180632D01*
X489997Y181137D01*
X490501Y181893D01*
X490679Y182783D01*
X490501Y183674D01*
X490249Y184052D01*
X489997Y184430D01*
X489997Y184430D01*
X465588Y208838D01*
Y230661D01*
X465588Y230661D01*
X465411Y231552D01*
X464906Y232308D01*
X431796Y265418D01*
X431041Y265923D01*
X430150Y266100D01*
D02*
G37*
G36*
X502075Y261659D02*
Y258531D01*
X505202D01*
X505142Y258987D01*
X504773Y259878D01*
X504186Y260643D01*
X503421Y261230D01*
X502531Y261599D01*
X502075Y261659D01*
D02*
G37*
G36*
X501075D02*
X500619Y261599D01*
X499728Y261230D01*
X498963Y260643D01*
X498377Y259878D01*
X498008Y258987D01*
X497948Y258531D01*
X501075D01*
Y261659D01*
D02*
G37*
G36*
X16244Y266442D02*
Y256398D01*
X26289D01*
X26198Y257553D01*
X25810Y259168D01*
X25174Y260703D01*
X24307Y262119D01*
X23228Y263382D01*
X21965Y264460D01*
X20549Y265328D01*
X19015Y265963D01*
X17400Y266351D01*
X16244Y266442D01*
D02*
G37*
G36*
X481075Y257531D02*
X477948D01*
X478008Y257076D01*
X478377Y256185D01*
X478963Y255420D01*
X479728Y254833D01*
X480619Y254464D01*
X481075Y254404D01*
Y257531D01*
D02*
G37*
G36*
X541575Y261724D02*
X540619Y261599D01*
X539728Y261230D01*
X538963Y260643D01*
X538377Y259878D01*
X538008Y258987D01*
X537882Y258032D01*
X538008Y257076D01*
X538377Y256185D01*
X538963Y255420D01*
X539728Y254833D01*
X540619Y254464D01*
X541575Y254339D01*
X542531Y254464D01*
X543421Y254833D01*
X544186Y255420D01*
X544773Y256185D01*
X545142Y257076D01*
X545268Y258032D01*
X545142Y258987D01*
X544773Y259878D01*
X544186Y260643D01*
X543421Y261230D01*
X542531Y261599D01*
X541575Y261724D01*
D02*
G37*
G36*
X531575D02*
X530619Y261599D01*
X529728Y261230D01*
X528963Y260643D01*
X528377Y259878D01*
X528008Y258987D01*
X527882Y258032D01*
X528008Y257076D01*
X528377Y256185D01*
X528963Y255420D01*
X529728Y254833D01*
X530619Y254464D01*
X531575Y254339D01*
X532531Y254464D01*
X533421Y254833D01*
X534186Y255420D01*
X534773Y256185D01*
X535142Y257076D01*
X535268Y258032D01*
X535142Y258987D01*
X534773Y259878D01*
X534186Y260643D01*
X533421Y261230D01*
X532531Y261599D01*
X531575Y261724D01*
D02*
G37*
G36*
X485202Y257531D02*
X482075D01*
Y254404D01*
X482531Y254464D01*
X483421Y254833D01*
X484186Y255420D01*
X484773Y256185D01*
X485142Y257076D01*
X485202Y257531D01*
D02*
G37*
G36*
X15244Y266442D02*
X14088Y266351D01*
X12473Y265963D01*
X10939Y265328D01*
X9523Y264460D01*
X8260Y263382D01*
X7182Y262119D01*
X6314Y260703D01*
X5678Y259168D01*
X5291Y257553D01*
X5200Y256398D01*
X15244D01*
Y266442D01*
D02*
G37*
G36*
X505202Y257531D02*
X502075D01*
Y254404D01*
X502531Y254464D01*
X503421Y254833D01*
X504186Y255420D01*
X504773Y256185D01*
X505142Y257076D01*
X505202Y257531D01*
D02*
G37*
G36*
X501075D02*
X497948D01*
X498008Y257076D01*
X498377Y256185D01*
X498963Y255420D01*
X499728Y254833D01*
X500619Y254464D01*
X501075Y254404D01*
Y257531D01*
D02*
G37*
G36*
X237016Y183323D02*
Y181595D01*
X238745D01*
X238667Y181986D01*
X238162Y182741D01*
X237407Y183246D01*
X237016Y183323D01*
D02*
G37*
G36*
X236016D02*
X235625Y183246D01*
X234870Y182741D01*
X234365Y181986D01*
X234287Y181595D01*
X236016D01*
Y183323D01*
D02*
G37*
G36*
X219299D02*
Y181595D01*
X221028D01*
X220950Y181986D01*
X220446Y182741D01*
X219690Y183246D01*
X219299Y183323D01*
D02*
G37*
G36*
X253732D02*
X253342Y183246D01*
X252586Y182741D01*
X252081Y181986D01*
X252004Y181595D01*
X253732D01*
Y183323D01*
D02*
G37*
G36*
X272449D02*
Y181595D01*
X274178D01*
X274100Y181986D01*
X273595Y182741D01*
X272840Y183246D01*
X272449Y183323D01*
D02*
G37*
G36*
X271449D02*
X271058Y183246D01*
X270303Y182741D01*
X269798Y181986D01*
X269720Y181595D01*
X271449D01*
Y183323D01*
D02*
G37*
G36*
X254732D02*
Y181595D01*
X256461D01*
X256383Y181986D01*
X255879Y182741D01*
X255123Y183246D01*
X254732Y183323D01*
D02*
G37*
G36*
X218299D02*
X217908Y183246D01*
X217153Y182741D01*
X216648Y181986D01*
X216570Y181595D01*
X218299D01*
Y183323D01*
D02*
G37*
G36*
X166150D02*
Y181595D01*
X167878D01*
X167801Y181986D01*
X167296Y182741D01*
X166541Y183246D01*
X166150Y183323D01*
D02*
G37*
G36*
X165150D02*
X164759Y183246D01*
X164003Y182741D01*
X163499Y181986D01*
X163421Y181595D01*
X165150D01*
Y183323D01*
D02*
G37*
G36*
X148433D02*
Y181595D01*
X150162D01*
X150084Y181986D01*
X149579Y182741D01*
X148824Y183246D01*
X148433Y183323D01*
D02*
G37*
G36*
X182866D02*
X182475Y183246D01*
X181720Y182741D01*
X181215Y181986D01*
X181138Y181595D01*
X182866D01*
Y183323D01*
D02*
G37*
G36*
X201583D02*
Y181595D01*
X203312D01*
X203234Y181986D01*
X202729Y182741D01*
X201974Y183246D01*
X201583Y183323D01*
D02*
G37*
G36*
X200583D02*
X200192Y183246D01*
X199437Y182741D01*
X198932Y181986D01*
X198854Y181595D01*
X200583D01*
Y183323D01*
D02*
G37*
G36*
X183866D02*
Y181595D01*
X185595D01*
X185517Y181986D01*
X185013Y182741D01*
X184257Y183246D01*
X183866Y183323D01*
D02*
G37*
G36*
X381752Y214059D02*
X380024D01*
Y212330D01*
X380415Y212408D01*
X381170Y212913D01*
X381675Y213668D01*
X381752Y214059D01*
D02*
G37*
G36*
X379024D02*
X377295D01*
X377373Y213668D01*
X377877Y212913D01*
X378633Y212408D01*
X379024Y212330D01*
Y214059D01*
D02*
G37*
G36*
X563921Y205915D02*
Y203244D01*
X566592D01*
X566547Y203582D01*
X566224Y204362D01*
X565710Y205032D01*
X565039Y205547D01*
X564259Y205870D01*
X563921Y205915D01*
D02*
G37*
G36*
X379024Y216788D02*
X378633Y216710D01*
X377877Y216205D01*
X377373Y215450D01*
X377295Y215059D01*
X379024D01*
Y216788D01*
D02*
G37*
G36*
X152756Y250145D02*
X151954Y250039D01*
X151207Y249730D01*
X150566Y249237D01*
X150074Y248596D01*
X149764Y247849D01*
X149659Y247047D01*
Y241929D01*
X149764Y241127D01*
X150074Y240381D01*
X150566Y239739D01*
X151207Y239247D01*
X151954Y238937D01*
X152756Y238832D01*
X153558Y238937D01*
X154305Y239247D01*
X154946Y239739D01*
X155438Y240381D01*
X155748Y241127D01*
X155853Y241929D01*
Y247047D01*
X155748Y247849D01*
X155438Y248596D01*
X154946Y249237D01*
X154305Y249730D01*
X153558Y250039D01*
X152756Y250145D01*
D02*
G37*
G36*
X144882D02*
X144080Y250039D01*
X143333Y249730D01*
X142692Y249237D01*
X142200Y248596D01*
X141890Y247849D01*
X141785Y247047D01*
Y241929D01*
X141890Y241127D01*
X142200Y240381D01*
X142692Y239739D01*
X143333Y239247D01*
X144080Y238937D01*
X144882Y238832D01*
X145684Y238937D01*
X146431Y239247D01*
X147072Y239739D01*
X147564Y240381D01*
X147874Y241127D01*
X147979Y241929D01*
Y247047D01*
X147874Y247849D01*
X147564Y248596D01*
X147072Y249237D01*
X146431Y249730D01*
X145684Y250039D01*
X144882Y250145D01*
D02*
G37*
G36*
X380024Y216788D02*
Y215059D01*
X381752D01*
X381675Y215450D01*
X381170Y216205D01*
X380415Y216710D01*
X380024Y216788D01*
D02*
G37*
G36*
X562921Y205915D02*
X562584Y205870D01*
X561803Y205547D01*
X561133Y205032D01*
X560618Y204362D01*
X560295Y203582D01*
X560251Y203244D01*
X562921D01*
Y205915D01*
D02*
G37*
G36*
X504917Y184669D02*
X504524Y184591D01*
X504191Y184368D01*
X504159Y184337D01*
X503936Y184003D01*
X503858Y183610D01*
X503936Y183217D01*
X504159Y182884D01*
X504493Y182661D01*
X504886Y182583D01*
X505279Y182661D01*
X505613Y182884D01*
X505644Y182915D01*
X505867Y183248D01*
X505945Y183642D01*
X505867Y184035D01*
X505644Y184368D01*
X505311Y184591D01*
X504917Y184669D01*
D02*
G37*
G36*
X290165Y183323D02*
Y181595D01*
X291894D01*
X291816Y181986D01*
X291312Y182741D01*
X290556Y183246D01*
X290165Y183323D01*
D02*
G37*
G36*
X289165D02*
X288774Y183246D01*
X288019Y182741D01*
X287514Y181986D01*
X287437Y181595D01*
X289165D01*
Y183323D01*
D02*
G37*
G36*
X472284Y186041D02*
X471946Y185996D01*
X471165Y185673D01*
X470495Y185159D01*
X469981Y184488D01*
X469657Y183708D01*
X469613Y183370D01*
X472284D01*
Y186041D01*
D02*
G37*
G36*
X566592Y202244D02*
X563921D01*
Y199574D01*
X564259Y199618D01*
X565039Y199941D01*
X565710Y200456D01*
X566224Y201126D01*
X566547Y201906D01*
X566592Y202244D01*
D02*
G37*
G36*
X562921D02*
X560251D01*
X560295Y201906D01*
X560618Y201126D01*
X561133Y200456D01*
X561803Y199941D01*
X562584Y199618D01*
X562921Y199574D01*
Y202244D01*
D02*
G37*
G36*
X473283Y186041D02*
Y183370D01*
X475954D01*
X475910Y183708D01*
X475586Y184488D01*
X475072Y185159D01*
X474402Y185673D01*
X473621Y185996D01*
X473283Y186041D01*
D02*
G37*
G36*
X94283Y165607D02*
X93893Y165529D01*
X93137Y165024D01*
X92633Y164269D01*
X92555Y163878D01*
X94283D01*
Y165607D01*
D02*
G37*
G36*
X551575Y261724D02*
X550619Y261599D01*
X549728Y261230D01*
X548963Y260643D01*
X548377Y259878D01*
X548008Y258987D01*
X547882Y258032D01*
X548008Y257076D01*
X548377Y256185D01*
X548963Y255420D01*
X549728Y254833D01*
X550619Y254464D01*
X551575Y254339D01*
X552531Y254464D01*
X553421Y254833D01*
X554186Y255420D01*
X554773Y256185D01*
X554903Y256498D01*
X559538D01*
X574699Y241337D01*
Y148116D01*
X566297Y139714D01*
X523894D01*
X523310Y139598D01*
X522815Y139268D01*
X517364Y133816D01*
X517323Y133824D01*
X516432Y133647D01*
X515676Y133142D01*
X515172Y132387D01*
X514995Y131496D01*
X515003Y131455D01*
X492852Y109305D01*
X486172D01*
X486027Y109783D01*
X486745Y110263D01*
X487249Y111019D01*
X487327Y111409D01*
X482870D01*
X482947Y111019D01*
X483452Y110263D01*
X484170Y109783D01*
X484025Y109305D01*
X465455D01*
X465375Y109426D01*
X464619Y109931D01*
X463728Y110108D01*
X462999Y109963D01*
X451815Y121146D01*
Y193311D01*
X451737Y193704D01*
X451514Y194038D01*
X451514Y194038D01*
X445122Y200430D01*
Y218504D01*
X445122Y218504D01*
X445044Y218897D01*
X444821Y219231D01*
X444821Y219231D01*
X414900Y249152D01*
X414567Y249375D01*
X414173Y249453D01*
X373228D01*
X372835Y249375D01*
X372502Y249152D01*
X359417Y236067D01*
X212630D01*
X208611Y240087D01*
X208615Y240129D01*
X209120Y240885D01*
X209297Y241776D01*
X209120Y242667D01*
X208615Y243422D01*
X207859Y243927D01*
X206968Y244104D01*
X206078Y243927D01*
X205322Y243422D01*
X204818Y242667D01*
X204640Y241776D01*
X204818Y240885D01*
X205322Y240129D01*
X206078Y239625D01*
X206254Y239590D01*
X206360Y239431D01*
X211478Y234313D01*
X211811Y234090D01*
X212205Y234012D01*
X359842D01*
X360236Y234090D01*
X360569Y234313D01*
X373654Y247398D01*
X413748D01*
X443067Y218078D01*
Y200004D01*
X443067Y200004D01*
X443067D01*
X443145Y199611D01*
X443368Y199277D01*
X449760Y192885D01*
Y120721D01*
X449760Y120721D01*
X449760D01*
X449838Y120327D01*
X450061Y119994D01*
X460288Y109767D01*
X460096Y109305D01*
X444805D01*
X444028Y110082D01*
X444057Y110224D01*
X443879Y111115D01*
X443375Y111871D01*
X442619Y112375D01*
X441728Y112553D01*
X440837Y112375D01*
X440082Y111871D01*
X439577Y111115D01*
X439400Y110224D01*
X439577Y109333D01*
X440082Y108578D01*
X440837Y108073D01*
X441728Y107896D01*
X441871Y107925D01*
X443095Y106701D01*
X443589Y106370D01*
X444173Y106254D01*
X445974D01*
X446083Y106051D01*
X445826Y105622D01*
X441504D01*
X441445Y105634D01*
X433135D01*
X432944Y106096D01*
X442581Y115732D01*
X442803Y116066D01*
X442881Y116459D01*
Y155772D01*
X442803Y156166D01*
X442581Y156499D01*
X434583Y164497D01*
Y219849D01*
X434505Y220242D01*
X434282Y220576D01*
X434282Y220576D01*
X412668Y242189D01*
X412335Y242412D01*
X411942Y242490D01*
X376641D01*
X376248Y242412D01*
X375914Y242189D01*
X375914Y242189D01*
X362005Y228280D01*
X125146D01*
X124752Y228201D01*
X124419Y227979D01*
X103963Y207523D01*
X103797Y207412D01*
X103574Y207078D01*
X103496Y206685D01*
Y203430D01*
X102877Y203016D01*
X102373Y202261D01*
X102195Y201370D01*
X102373Y200479D01*
X102877Y199724D01*
X103632Y199219D01*
X104524Y199042D01*
X105414Y199219D01*
X106170Y199724D01*
X106242Y199832D01*
X106742D01*
X106814Y199724D01*
X107570Y199219D01*
X108460Y199042D01*
X109351Y199219D01*
X110107Y199724D01*
X110179Y199832D01*
X110679D01*
X110751Y199724D01*
X111506Y199219D01*
X112398Y199042D01*
X113288Y199219D01*
X114044Y199724D01*
X114116Y199832D01*
X114616D01*
X114688Y199724D01*
X115444Y199219D01*
X116334Y199042D01*
X117225Y199219D01*
X117981Y199724D01*
X118485Y200479D01*
X118663Y201370D01*
X118485Y202261D01*
X117981Y203016D01*
X117362Y203430D01*
Y204570D01*
X134859Y222067D01*
X135515D01*
X135707Y221605D01*
X121513Y207412D01*
X121291Y207078D01*
X121212Y206685D01*
Y203430D01*
X120594Y203016D01*
X120089Y202261D01*
X119912Y201370D01*
X120089Y200479D01*
X120594Y199724D01*
X121349Y199219D01*
X122240Y199042D01*
X123131Y199219D01*
X123886Y199724D01*
X123959Y199832D01*
X124459D01*
X124531Y199724D01*
X125286Y199219D01*
X126177Y199042D01*
X127068Y199219D01*
X127823Y199724D01*
X127896Y199832D01*
X128396D01*
X128468Y199724D01*
X129223Y199219D01*
X130114Y199042D01*
X131005Y199219D01*
X131760Y199724D01*
X131833Y199832D01*
X132333D01*
X132405Y199724D01*
X133160Y199219D01*
X134051Y199042D01*
X134942Y199219D01*
X135697Y199724D01*
X136202Y200479D01*
X136379Y201370D01*
X136202Y202261D01*
X135697Y203016D01*
X135079Y203430D01*
Y206259D01*
X145343Y216524D01*
X147374D01*
X147565Y216062D01*
X139230Y207727D01*
X139007Y207393D01*
X138929Y207000D01*
Y203430D01*
X138310Y203016D01*
X137806Y202261D01*
X137628Y201370D01*
X137806Y200479D01*
X138310Y199724D01*
X139066Y199219D01*
X139957Y199042D01*
X140848Y199219D01*
X141603Y199724D01*
X141675Y199832D01*
X142175D01*
X142247Y199724D01*
X143003Y199219D01*
X143894Y199042D01*
X144785Y199219D01*
X145540Y199724D01*
X145612Y199832D01*
X146112D01*
X146184Y199724D01*
X146940Y199219D01*
X147831Y199042D01*
X148722Y199219D01*
X149477Y199724D01*
X149549Y199832D01*
X150049D01*
X150121Y199724D01*
X150877Y199219D01*
X151768Y199042D01*
X152659Y199219D01*
X153414Y199724D01*
X153919Y200479D01*
X154096Y201370D01*
X153919Y202261D01*
X153414Y203016D01*
X152795Y203430D01*
Y206371D01*
X157405Y210980D01*
X165177D01*
X165368Y210518D01*
X157812Y202963D01*
X157083Y203108D01*
X156192Y202931D01*
X155436Y202426D01*
X154932Y201671D01*
X154754Y200780D01*
X154932Y199889D01*
X155436Y199133D01*
X156192Y198629D01*
X157083Y198451D01*
X157974Y198629D01*
X158729Y199133D01*
X158801Y199241D01*
X159301D01*
X159373Y199133D01*
X160129Y198629D01*
X161020Y198451D01*
X161911Y198629D01*
X162666Y199133D01*
X162738Y199241D01*
X163238D01*
X163310Y199133D01*
X164066Y198629D01*
X164957Y198451D01*
X165848Y198629D01*
X166603Y199133D01*
X166675Y199241D01*
X167175D01*
X167247Y199133D01*
X168003Y198629D01*
X168894Y198451D01*
X169785Y198629D01*
X170540Y199133D01*
X171045Y199889D01*
X171222Y200780D01*
X171077Y201509D01*
X173256Y203689D01*
X280950D01*
X316819Y167820D01*
Y166442D01*
X316819Y166442D01*
X316819D01*
X316897Y166049D01*
X317120Y165715D01*
X317857Y164979D01*
X317838Y164788D01*
X317333Y164033D01*
X317156Y163142D01*
X317333Y162251D01*
X317838Y161495D01*
X318593Y160991D01*
X319484Y160813D01*
X320375Y160991D01*
X321130Y161495D01*
X321635Y162251D01*
X321812Y163142D01*
X321635Y164033D01*
X321130Y164788D01*
X321057Y164837D01*
X321154Y165328D01*
X321320Y165361D01*
X322075Y165866D01*
X322580Y166621D01*
X322651Y166976D01*
X322795Y167019D01*
X322908Y166944D01*
X323188Y166690D01*
X323022Y165858D01*
X323199Y164967D01*
X323704Y164212D01*
X324459Y163707D01*
X325350Y163530D01*
X326241Y163707D01*
X326997Y164212D01*
X327501Y164967D01*
X327679Y165858D01*
X327501Y166749D01*
X326997Y167505D01*
X326958Y167531D01*
Y168031D01*
X327312Y168267D01*
X327816Y169022D01*
X327994Y169913D01*
X327816Y170804D01*
X327312Y171560D01*
X326556Y172064D01*
X325665Y172242D01*
X324774Y172064D01*
X324019Y171560D01*
X323964Y171478D01*
X323467Y171429D01*
X323051Y171844D01*
X323048Y171862D01*
X322825Y172195D01*
X322825Y172195D01*
X284502Y210518D01*
X284693Y210980D01*
X288746D01*
X289139Y211058D01*
X289317Y211177D01*
X367717D01*
X368110Y211255D01*
X368443Y211478D01*
X383022Y226057D01*
X385129D01*
X385273Y225961D01*
X385322Y225464D01*
X384406Y224547D01*
X384352Y224584D01*
X383461Y224761D01*
X382570Y224584D01*
X381814Y224079D01*
X381310Y223324D01*
X381132Y222433D01*
X381310Y221542D01*
X381814Y220787D01*
X382570Y220282D01*
X383461Y220105D01*
X384352Y220282D01*
X385107Y220787D01*
X385179Y220895D01*
X385679D01*
X385751Y220787D01*
X386370Y220373D01*
Y149689D01*
X385751Y149276D01*
X385247Y148521D01*
X385069Y147630D01*
X385247Y146739D01*
X385677Y146094D01*
Y70425D01*
X385247Y69781D01*
X385069Y68890D01*
X385247Y67999D01*
X385751Y67243D01*
X386507Y66739D01*
X387398Y66561D01*
X388289Y66739D01*
X389044Y67243D01*
X389116Y67351D01*
X389616D01*
X389688Y67243D01*
X390444Y66739D01*
X391335Y66561D01*
X392226Y66739D01*
X392981Y67243D01*
X393053Y67351D01*
X393553D01*
X393625Y67243D01*
X394381Y66739D01*
X395272Y66561D01*
X396163Y66739D01*
X396918Y67243D01*
X396990Y67351D01*
X397490D01*
X397562Y67243D01*
X398318Y66739D01*
X399209Y66561D01*
X400100Y66739D01*
X400855Y67243D01*
X400927Y67351D01*
X401427D01*
X401499Y67243D01*
X402255Y66739D01*
X403146Y66561D01*
X404037Y66739D01*
X404792Y67243D01*
X405258Y67941D01*
X405758D01*
X406224Y67243D01*
X406979Y66739D01*
X407870Y66562D01*
X408761Y66739D01*
X409516Y67243D01*
X410021Y67999D01*
X410198Y68890D01*
X410021Y69781D01*
X409516Y70536D01*
X408898Y70950D01*
Y145570D01*
X409516Y145984D01*
X410021Y146739D01*
X410198Y147630D01*
X410021Y148521D01*
X409516Y149276D01*
X408898Y149689D01*
Y213127D01*
X409284Y213444D01*
X409445Y213412D01*
X410336Y213589D01*
X410559Y213738D01*
X411000Y213503D01*
Y111795D01*
X410858Y111582D01*
X410779Y111189D01*
Y111189D01*
Y111189D01*
X410805Y111058D01*
X410858Y110796D01*
X411080Y110462D01*
X411080D01*
Y110462D01*
X417663Y103880D01*
X417997Y103657D01*
X417997Y103657D01*
X417997Y103657D01*
D01*
X417997Y103657D01*
X417997Y103657D01*
X418390Y103579D01*
X441398D01*
X441457Y103567D01*
X446082D01*
X446495Y102948D01*
X447251Y102444D01*
X448142Y102266D01*
X449033Y102444D01*
X449788Y102948D01*
X450293Y103703D01*
X450470Y104595D01*
X450293Y105485D01*
X449788Y106241D01*
X449792Y106254D01*
X462001D01*
X462082Y106133D01*
X462837Y105629D01*
X463728Y105451D01*
X464619Y105629D01*
X465375Y106133D01*
X465455Y106254D01*
X493484D01*
X494068Y106370D01*
X494563Y106701D01*
X517078Y129217D01*
X517323Y129168D01*
X518214Y129345D01*
X518969Y129850D01*
X519474Y130605D01*
X519651Y131496D01*
X519602Y131740D01*
X524525Y136664D01*
X566929D01*
X567513Y136780D01*
X568008Y137110D01*
X577303Y146406D01*
X577634Y146900D01*
X577750Y147484D01*
X577750Y147484D01*
X577750Y147484D01*
Y147484D01*
Y241968D01*
X577634Y242552D01*
X577303Y243047D01*
X561248Y259102D01*
X560753Y259433D01*
X560169Y259549D01*
X554909D01*
X554773Y259878D01*
X554186Y260643D01*
X553421Y261230D01*
X552531Y261599D01*
X551575Y261724D01*
D02*
G37*
G36*
X481815Y134638D02*
X480087D01*
Y132909D01*
X480478Y132987D01*
X481233Y133492D01*
X481738Y134247D01*
X481815Y134638D01*
D02*
G37*
G36*
X479087D02*
X477358D01*
X477436Y134247D01*
X477940Y133492D01*
X478696Y132987D01*
X479087Y132909D01*
Y134638D01*
D02*
G37*
G36*
Y137366D02*
X478696Y137289D01*
X477940Y136784D01*
X477436Y136029D01*
X477358Y135638D01*
X479087D01*
Y137366D01*
D02*
G37*
G36*
X381752Y139256D02*
X380024D01*
Y137527D01*
X380415Y137605D01*
X381170Y138109D01*
X381675Y138865D01*
X381752Y139256D01*
D02*
G37*
G36*
X379024D02*
X377295D01*
X377373Y138865D01*
X377877Y138109D01*
X378633Y137605D01*
X379024Y137527D01*
Y139256D01*
D02*
G37*
G36*
X480087Y137366D02*
Y135638D01*
X481815D01*
X481738Y136029D01*
X481233Y136784D01*
X480478Y137289D01*
X480087Y137366D01*
D02*
G37*
G36*
X290165Y130174D02*
Y128445D01*
X291894D01*
X291816Y128836D01*
X291312Y129591D01*
X290556Y130096D01*
X290165Y130174D01*
D02*
G37*
G36*
X253732D02*
X253342Y130096D01*
X252586Y129591D01*
X252081Y128836D01*
X252004Y128445D01*
X253732D01*
Y130174D01*
D02*
G37*
G36*
X237016D02*
Y128445D01*
X238745D01*
X238667Y128836D01*
X238162Y129591D01*
X237407Y130096D01*
X237016Y130174D01*
D02*
G37*
G36*
X236016D02*
X235625Y130096D01*
X234870Y129591D01*
X234365Y128836D01*
X234287Y128445D01*
X236016D01*
Y130174D01*
D02*
G37*
G36*
X254732D02*
Y128445D01*
X256461D01*
X256383Y128836D01*
X255879Y129591D01*
X255123Y130096D01*
X254732Y130174D01*
D02*
G37*
G36*
X289165D02*
X288774Y130096D01*
X288019Y129591D01*
X287514Y128836D01*
X287437Y128445D01*
X289165D01*
Y130174D01*
D02*
G37*
G36*
X272449D02*
Y128445D01*
X274178D01*
X274100Y128836D01*
X273595Y129591D01*
X272840Y130096D01*
X272449Y130174D01*
D02*
G37*
G36*
X271449D02*
X271058Y130096D01*
X270303Y129591D01*
X269798Y128836D01*
X269720Y128445D01*
X271449D01*
Y130174D01*
D02*
G37*
G36*
X165150Y145162D02*
X163421D01*
X163499Y144771D01*
X164003Y144015D01*
X164759Y143511D01*
X165150Y143433D01*
Y145162D01*
D02*
G37*
G36*
X150162D02*
X148433D01*
Y143433D01*
X148824Y143511D01*
X149579Y144015D01*
X150084Y144771D01*
X150162Y145162D01*
D02*
G37*
G36*
X147433D02*
X145704D01*
X145782Y144771D01*
X146287Y144015D01*
X147042Y143511D01*
X147433Y143433D01*
Y145162D01*
D02*
G37*
G36*
X167878D02*
X166150D01*
Y143433D01*
X166541Y143511D01*
X167296Y144015D01*
X167801Y144771D01*
X167878Y145162D01*
D02*
G37*
G36*
X200583D02*
X198854D01*
X198932Y144771D01*
X199437Y144015D01*
X200192Y143511D01*
X200583Y143433D01*
Y145162D01*
D02*
G37*
G36*
X185595D02*
X183866D01*
Y143433D01*
X184257Y143511D01*
X185013Y144015D01*
X185517Y144771D01*
X185595Y145162D01*
D02*
G37*
G36*
X182866D02*
X181138D01*
X181215Y144771D01*
X181720Y144015D01*
X182475Y143511D01*
X182866Y143433D01*
Y145162D01*
D02*
G37*
G36*
X132445D02*
X130717D01*
Y143433D01*
X131108Y143511D01*
X131863Y144015D01*
X132368Y144771D01*
X132445Y145162D01*
D02*
G37*
G36*
X94283D02*
X92555D01*
X92633Y144771D01*
X93137Y144015D01*
X93893Y143511D01*
X94283Y143433D01*
Y145162D01*
D02*
G37*
G36*
X380024Y141984D02*
Y140256D01*
X381752D01*
X381675Y140647D01*
X381170Y141402D01*
X380415Y141907D01*
X380024Y141984D01*
D02*
G37*
G36*
X379024D02*
X378633Y141907D01*
X377877Y141402D01*
X377373Y140647D01*
X377295Y140256D01*
X379024D01*
Y141984D01*
D02*
G37*
G36*
X97012Y145162D02*
X95284D01*
Y143433D01*
X95674Y143511D01*
X96430Y144015D01*
X96934Y144771D01*
X97012Y145162D01*
D02*
G37*
G36*
X129717D02*
X127988D01*
X128066Y144771D01*
X128570Y144015D01*
X129326Y143511D01*
X129717Y143433D01*
Y145162D01*
D02*
G37*
G36*
X114729D02*
X113000D01*
Y143433D01*
X113391Y143511D01*
X114146Y144015D01*
X114651Y144771D01*
X114729Y145162D01*
D02*
G37*
G36*
X112000D02*
X110271D01*
X110349Y144771D01*
X110854Y144015D01*
X111609Y143511D01*
X112000Y143433D01*
Y145162D01*
D02*
G37*
G36*
X271449Y127445D02*
X269720D01*
X269798Y127054D01*
X270303Y126299D01*
X271058Y125794D01*
X271449Y125716D01*
Y127445D01*
D02*
G37*
G36*
X256461D02*
X254732D01*
Y125716D01*
X255123Y125794D01*
X255879Y126299D01*
X256383Y127054D01*
X256461Y127445D01*
D02*
G37*
G36*
X253732D02*
X252004D01*
X252081Y127054D01*
X252586Y126299D01*
X253342Y125794D01*
X253732Y125716D01*
Y127445D01*
D02*
G37*
G36*
X274178D02*
X272449D01*
Y125716D01*
X272840Y125794D01*
X273595Y126299D01*
X274100Y127054D01*
X274178Y127445D01*
D02*
G37*
G36*
X94283Y130174D02*
X93893Y130096D01*
X93137Y129591D01*
X92633Y128836D01*
X92555Y128445D01*
X94283D01*
Y130174D01*
D02*
G37*
G36*
X291894Y127445D02*
X290165D01*
Y125716D01*
X290556Y125794D01*
X291312Y126299D01*
X291816Y127054D01*
X291894Y127445D01*
D02*
G37*
G36*
X289165D02*
X287437D01*
X287514Y127054D01*
X288019Y126299D01*
X288774Y125794D01*
X289165Y125716D01*
Y127445D01*
D02*
G37*
G36*
X238745D02*
X237016D01*
Y125716D01*
X237407Y125794D01*
X238162Y126299D01*
X238667Y127054D01*
X238745Y127445D01*
D02*
G37*
G36*
X200583D02*
X198854D01*
X198932Y127054D01*
X199437Y126299D01*
X200192Y125794D01*
X200583Y125716D01*
Y127445D01*
D02*
G37*
G36*
X185595D02*
X183866D01*
Y125716D01*
X184257Y125794D01*
X185013Y126299D01*
X185517Y127054D01*
X185595Y127445D01*
D02*
G37*
G36*
X182866D02*
X181138D01*
X181215Y127054D01*
X181720Y126299D01*
X182475Y125794D01*
X182866Y125716D01*
Y127445D01*
D02*
G37*
G36*
X203312D02*
X201583D01*
Y125716D01*
X201974Y125794D01*
X202729Y126299D01*
X203234Y127054D01*
X203312Y127445D01*
D02*
G37*
G36*
X236016D02*
X234287D01*
X234365Y127054D01*
X234870Y126299D01*
X235625Y125794D01*
X236016Y125716D01*
Y127445D01*
D02*
G37*
G36*
X221028D02*
X219299D01*
Y125716D01*
X219690Y125794D01*
X220446Y126299D01*
X220950Y127054D01*
X221028Y127445D01*
D02*
G37*
G36*
X218299D02*
X216570D01*
X216648Y127054D01*
X217153Y126299D01*
X217908Y125794D01*
X218299Y125716D01*
Y127445D01*
D02*
G37*
G36*
X183866Y130174D02*
Y128445D01*
X185595D01*
X185517Y128836D01*
X185013Y129591D01*
X184257Y130096D01*
X183866Y130174D01*
D02*
G37*
G36*
X182866D02*
X182475Y130096D01*
X181720Y129591D01*
X181215Y128836D01*
X181138Y128445D01*
X182866D01*
Y130174D01*
D02*
G37*
G36*
X166150D02*
Y128445D01*
X167878D01*
X167801Y128836D01*
X167296Y129591D01*
X166541Y130096D01*
X166150Y130174D01*
D02*
G37*
G36*
X200583D02*
X200192Y130096D01*
X199437Y129591D01*
X198932Y128836D01*
X198854Y128445D01*
X200583D01*
Y130174D01*
D02*
G37*
G36*
X219299D02*
Y128445D01*
X221028D01*
X220950Y128836D01*
X220446Y129591D01*
X219690Y130096D01*
X219299Y130174D01*
D02*
G37*
G36*
X218299D02*
X217908Y130096D01*
X217153Y129591D01*
X216648Y128836D01*
X216570Y128445D01*
X218299D01*
Y130174D01*
D02*
G37*
G36*
X201583D02*
Y128445D01*
X203312D01*
X203234Y128836D01*
X202729Y129591D01*
X201974Y130096D01*
X201583Y130174D01*
D02*
G37*
G36*
X165150D02*
X164759Y130096D01*
X164003Y129591D01*
X163499Y128836D01*
X163421Y128445D01*
X165150D01*
Y130174D01*
D02*
G37*
G36*
X113000D02*
Y128445D01*
X114729D01*
X114651Y128836D01*
X114146Y129591D01*
X113391Y130096D01*
X113000Y130174D01*
D02*
G37*
G36*
X112000D02*
X111609Y130096D01*
X110854Y129591D01*
X110349Y128836D01*
X110271Y128445D01*
X112000D01*
Y130174D01*
D02*
G37*
G36*
X95284D02*
Y128445D01*
X97012D01*
X96934Y128836D01*
X96430Y129591D01*
X95674Y130096D01*
X95284Y130174D01*
D02*
G37*
G36*
X129717D02*
X129326Y130096D01*
X128570Y129591D01*
X128066Y128836D01*
X127988Y128445D01*
X129717D01*
Y130174D01*
D02*
G37*
G36*
X148433D02*
Y128445D01*
X150162D01*
X150084Y128836D01*
X149579Y129591D01*
X148824Y130096D01*
X148433Y130174D01*
D02*
G37*
G36*
X147433D02*
X147042Y130096D01*
X146287Y129591D01*
X145782Y128836D01*
X145704Y128445D01*
X147433D01*
Y130174D01*
D02*
G37*
G36*
X130717D02*
Y128445D01*
X132445D01*
X132368Y128836D01*
X131863Y129591D01*
X131108Y130096D01*
X130717Y130174D01*
D02*
G37*
G36*
X129717Y162878D02*
X127988D01*
X128066Y162487D01*
X128570Y161732D01*
X129326Y161227D01*
X129717Y161150D01*
Y162878D01*
D02*
G37*
G36*
X114729D02*
X113000D01*
Y161150D01*
X113391Y161227D01*
X114146Y161732D01*
X114651Y162487D01*
X114729Y162878D01*
D02*
G37*
G36*
X112000D02*
X110271D01*
X110349Y162487D01*
X110854Y161732D01*
X111609Y161227D01*
X112000Y161150D01*
Y162878D01*
D02*
G37*
G36*
X132445D02*
X130717D01*
Y161150D01*
X131108Y161227D01*
X131863Y161732D01*
X132368Y162487D01*
X132445Y162878D01*
D02*
G37*
G36*
X165150D02*
X163421D01*
X163499Y162487D01*
X164003Y161732D01*
X164759Y161227D01*
X165150Y161150D01*
Y162878D01*
D02*
G37*
G36*
X150162D02*
X148433D01*
Y161150D01*
X148824Y161227D01*
X149579Y161732D01*
X150084Y162487D01*
X150162Y162878D01*
D02*
G37*
G36*
X147433D02*
X145704D01*
X145782Y162487D01*
X146287Y161732D01*
X147042Y161227D01*
X147433Y161150D01*
Y162878D01*
D02*
G37*
G36*
X97012D02*
X95284D01*
Y161150D01*
X95674Y161227D01*
X96430Y161732D01*
X96934Y162487D01*
X97012Y162878D01*
D02*
G37*
G36*
X272449Y147890D02*
Y146162D01*
X274178D01*
X274100Y146553D01*
X273595Y147308D01*
X272840Y147813D01*
X272449Y147890D01*
D02*
G37*
G36*
X271449D02*
X271058Y147813D01*
X270303Y147308D01*
X269798Y146553D01*
X269720Y146162D01*
X271449D01*
Y147890D01*
D02*
G37*
G36*
X254732D02*
Y146162D01*
X256461D01*
X256383Y146553D01*
X255879Y147308D01*
X255123Y147813D01*
X254732Y147890D01*
D02*
G37*
G36*
X289165D02*
X288774Y147813D01*
X288019Y147308D01*
X287514Y146553D01*
X287437Y146162D01*
X289165D01*
Y147890D01*
D02*
G37*
G36*
X94283Y162878D02*
X92555D01*
X92633Y162487D01*
X93137Y161732D01*
X93893Y161227D01*
X94283Y161150D01*
Y162878D01*
D02*
G37*
G36*
X521575Y261724D02*
X520619Y261599D01*
X519728Y261230D01*
X518963Y260643D01*
X518377Y259878D01*
X518008Y258987D01*
X517882Y258032D01*
X518008Y257076D01*
X518377Y256185D01*
X518963Y255420D01*
X519728Y254833D01*
X520619Y254464D01*
X521575Y254339D01*
X522531Y254464D01*
X523421Y254833D01*
X524186Y255420D01*
X524546Y255444D01*
X526586Y253403D01*
Y246391D01*
X526586Y246391D01*
X526586D01*
X526665Y245998D01*
X526888Y245664D01*
X532437Y240115D01*
Y162690D01*
X531818Y162276D01*
X531314Y161521D01*
X531136Y160630D01*
X531314Y159739D01*
X531818Y158984D01*
X532574Y158479D01*
X533465Y158302D01*
X534355Y158479D01*
X535111Y158984D01*
X535615Y159739D01*
X535793Y160630D01*
X535615Y161521D01*
X535111Y162276D01*
X534492Y162690D01*
Y240541D01*
X534414Y240934D01*
X534191Y241267D01*
X534191Y241267D01*
X531425Y244034D01*
X531575Y244338D01*
X532531Y244464D01*
X533421Y244833D01*
X534186Y245420D01*
X534773Y246185D01*
X535142Y247076D01*
X535268Y248031D01*
X535142Y248987D01*
X534773Y249878D01*
X534186Y250643D01*
X533421Y251230D01*
X532531Y251599D01*
X531575Y251725D01*
X530619Y251599D01*
X529728Y251230D01*
X529090Y250740D01*
X528642Y250961D01*
Y253829D01*
X528564Y254222D01*
X528341Y254556D01*
X528341Y254556D01*
X525221Y257675D01*
X525268Y258032D01*
X525142Y258987D01*
X524773Y259878D01*
X524186Y260643D01*
X523421Y261230D01*
X522531Y261599D01*
X521575Y261724D01*
D02*
G37*
G36*
X290165Y147890D02*
Y146162D01*
X291894D01*
X291816Y146553D01*
X291312Y147308D01*
X290556Y147813D01*
X290165Y147890D01*
D02*
G37*
G36*
X256461Y162878D02*
X254732D01*
Y161150D01*
X255123Y161227D01*
X255879Y161732D01*
X256383Y162487D01*
X256461Y162878D01*
D02*
G37*
G36*
X253732D02*
X252004D01*
X252081Y162487D01*
X252586Y161732D01*
X253342Y161227D01*
X253732Y161150D01*
Y162878D01*
D02*
G37*
G36*
X238745D02*
X237016D01*
Y161150D01*
X237407Y161227D01*
X238162Y161732D01*
X238667Y162487D01*
X238745Y162878D01*
D02*
G37*
G36*
X271449D02*
X269720D01*
X269798Y162487D01*
X270303Y161732D01*
X271058Y161227D01*
X271449Y161150D01*
Y162878D01*
D02*
G37*
G36*
X291894D02*
X290165D01*
Y161150D01*
X290556Y161227D01*
X291312Y161732D01*
X291816Y162487D01*
X291894Y162878D01*
D02*
G37*
G36*
X289165D02*
X287437D01*
X287514Y162487D01*
X288019Y161732D01*
X288774Y161227D01*
X289165Y161150D01*
Y162878D01*
D02*
G37*
G36*
X274178D02*
X272449D01*
Y161150D01*
X272840Y161227D01*
X273595Y161732D01*
X274100Y162487D01*
X274178Y162878D01*
D02*
G37*
G36*
X236016D02*
X234287D01*
X234365Y162487D01*
X234870Y161732D01*
X235625Y161227D01*
X236016Y161150D01*
Y162878D01*
D02*
G37*
G36*
X185595D02*
X183866D01*
Y161150D01*
X184257Y161227D01*
X185013Y161732D01*
X185517Y162487D01*
X185595Y162878D01*
D02*
G37*
G36*
X182866D02*
X181138D01*
X181215Y162487D01*
X181720Y161732D01*
X182475Y161227D01*
X182866Y161150D01*
Y162878D01*
D02*
G37*
G36*
X167878D02*
X166150D01*
Y161150D01*
X166541Y161227D01*
X167296Y161732D01*
X167801Y162487D01*
X167878Y162878D01*
D02*
G37*
G36*
X200583D02*
X198854D01*
X198932Y162487D01*
X199437Y161732D01*
X200192Y161227D01*
X200583Y161150D01*
Y162878D01*
D02*
G37*
G36*
X221028D02*
X219299D01*
Y161150D01*
X219690Y161227D01*
X220446Y161732D01*
X220950Y162487D01*
X221028Y162878D01*
D02*
G37*
G36*
X218299D02*
X216570D01*
X216648Y162487D01*
X217153Y161732D01*
X217908Y161227D01*
X218299Y161150D01*
Y162878D01*
D02*
G37*
G36*
X203312D02*
X201583D01*
Y161150D01*
X201974Y161227D01*
X202729Y161732D01*
X203234Y162487D01*
X203312Y162878D01*
D02*
G37*
G36*
X291894Y145162D02*
X290165D01*
Y143433D01*
X290556Y143511D01*
X291312Y144015D01*
X291816Y144771D01*
X291894Y145162D01*
D02*
G37*
G36*
X289165D02*
X287437D01*
X287514Y144771D01*
X288019Y144015D01*
X288774Y143511D01*
X289165Y143433D01*
Y145162D01*
D02*
G37*
G36*
X274178D02*
X272449D01*
Y143433D01*
X272840Y143511D01*
X273595Y144015D01*
X274100Y144771D01*
X274178Y145162D01*
D02*
G37*
G36*
X94283Y147890D02*
X93893Y147813D01*
X93137Y147308D01*
X92633Y146553D01*
X92555Y146162D01*
X94283D01*
Y147890D01*
D02*
G37*
G36*
X113000D02*
Y146162D01*
X114729D01*
X114651Y146553D01*
X114146Y147308D01*
X113391Y147813D01*
X113000Y147890D01*
D02*
G37*
G36*
X112000D02*
X111609Y147813D01*
X110854Y147308D01*
X110349Y146553D01*
X110271Y146162D01*
X112000D01*
Y147890D01*
D02*
G37*
G36*
X95284D02*
Y146162D01*
X97012D01*
X96934Y146553D01*
X96430Y147308D01*
X95674Y147813D01*
X95284Y147890D01*
D02*
G37*
G36*
X271449Y145162D02*
X269720D01*
X269798Y144771D01*
X270303Y144015D01*
X271058Y143511D01*
X271449Y143433D01*
Y145162D01*
D02*
G37*
G36*
X221028D02*
X219299D01*
Y143433D01*
X219690Y143511D01*
X220446Y144015D01*
X220950Y144771D01*
X221028Y145162D01*
D02*
G37*
G36*
X218299D02*
X216570D01*
X216648Y144771D01*
X217153Y144015D01*
X217908Y143511D01*
X218299Y143433D01*
Y145162D01*
D02*
G37*
G36*
X203312D02*
X201583D01*
Y143433D01*
X201974Y143511D01*
X202729Y144015D01*
X203234Y144771D01*
X203312Y145162D01*
D02*
G37*
G36*
X236016D02*
X234287D01*
X234365Y144771D01*
X234870Y144015D01*
X235625Y143511D01*
X236016Y143433D01*
Y145162D01*
D02*
G37*
G36*
X256461D02*
X254732D01*
Y143433D01*
X255123Y143511D01*
X255879Y144015D01*
X256383Y144771D01*
X256461Y145162D01*
D02*
G37*
G36*
X253732D02*
X252004D01*
X252081Y144771D01*
X252586Y144015D01*
X253342Y143511D01*
X253732Y143433D01*
Y145162D01*
D02*
G37*
G36*
X238745D02*
X237016D01*
Y143433D01*
X237407Y143511D01*
X238162Y144015D01*
X238667Y144771D01*
X238745Y145162D01*
D02*
G37*
G36*
X218299Y147890D02*
X217908Y147813D01*
X217153Y147308D01*
X216648Y146553D01*
X216570Y146162D01*
X218299D01*
Y147890D01*
D02*
G37*
G36*
X201583D02*
Y146162D01*
X203312D01*
X203234Y146553D01*
X202729Y147308D01*
X201974Y147813D01*
X201583Y147890D01*
D02*
G37*
G36*
X200583D02*
X200192Y147813D01*
X199437Y147308D01*
X198932Y146553D01*
X198854Y146162D01*
X200583D01*
Y147890D01*
D02*
G37*
G36*
X219299D02*
Y146162D01*
X221028D01*
X220950Y146553D01*
X220446Y147308D01*
X219690Y147813D01*
X219299Y147890D01*
D02*
G37*
G36*
X253732D02*
X253342Y147813D01*
X252586Y147308D01*
X252081Y146553D01*
X252004Y146162D01*
X253732D01*
Y147890D01*
D02*
G37*
G36*
X237016D02*
Y146162D01*
X238745D01*
X238667Y146553D01*
X238162Y147308D01*
X237407Y147813D01*
X237016Y147890D01*
D02*
G37*
G36*
X236016D02*
X235625Y147813D01*
X234870Y147308D01*
X234365Y146553D01*
X234287Y146162D01*
X236016D01*
Y147890D01*
D02*
G37*
G36*
X183866D02*
Y146162D01*
X185595D01*
X185517Y146553D01*
X185013Y147308D01*
X184257Y147813D01*
X183866Y147890D01*
D02*
G37*
G36*
X147433D02*
X147042Y147813D01*
X146287Y147308D01*
X145782Y146553D01*
X145704Y146162D01*
X147433D01*
Y147890D01*
D02*
G37*
G36*
X130717D02*
Y146162D01*
X132445D01*
X132368Y146553D01*
X131863Y147308D01*
X131108Y147813D01*
X130717Y147890D01*
D02*
G37*
G36*
X129717D02*
X129326Y147813D01*
X128570Y147308D01*
X128066Y146553D01*
X127988Y146162D01*
X129717D01*
Y147890D01*
D02*
G37*
G36*
X148433D02*
Y146162D01*
X150162D01*
X150084Y146553D01*
X149579Y147308D01*
X148824Y147813D01*
X148433Y147890D01*
D02*
G37*
G36*
X182866D02*
X182475Y147813D01*
X181720Y147308D01*
X181215Y146553D01*
X181138Y146162D01*
X182866D01*
Y147890D01*
D02*
G37*
G36*
X166150D02*
Y146162D01*
X167878D01*
X167801Y146553D01*
X167296Y147308D01*
X166541Y147813D01*
X166150Y147890D01*
D02*
G37*
G36*
X165150D02*
X164759Y147813D01*
X164003Y147308D01*
X163499Y146553D01*
X163421Y146162D01*
X165150D01*
Y147890D01*
D02*
G37*
%LPD*%
D25*
X46850Y22441D02*
Y254724D01*
X55898Y263772D01*
X430150D02*
X463260Y230661D01*
X55898Y263772D02*
X430150D01*
X463260Y207874D02*
Y230661D01*
Y207874D02*
X488350Y182783D01*
D26*
X417763Y38803D02*
X424492D01*
X407345Y28386D02*
X417763Y38803D01*
X421731Y35904D02*
X422046Y36220D01*
X421730Y35904D02*
X421731D01*
X421730D02*
X422046Y36220D01*
Y36220D02*
Y36220D01*
X424492Y38803D02*
X425980Y37315D01*
X421351Y35307D02*
X422046Y36003D01*
Y36220D01*
X386705Y69583D02*
Y146937D01*
Y69583D02*
X387398Y68890D01*
X386705Y146937D02*
X387398Y147630D01*
X386705Y148323D02*
X387398Y147630D01*
Y222433D01*
X386705Y221740D02*
X387398Y222433D01*
X338434Y42079D02*
X365896D01*
X338976Y40772D02*
X365355D01*
X339517Y39465D02*
X364813D01*
X340059Y38157D02*
X364272D01*
X340600Y36850D02*
X363731D01*
X341141Y35543D02*
X363189D01*
X341683Y34236D02*
X362648D01*
X342224Y32929D02*
X362106D01*
X342766Y31622D02*
X361565D01*
X374951Y18236D01*
X362106Y32929D02*
X375492Y19543D01*
X362648Y34236D02*
X376034Y20850D01*
X363189Y35543D02*
X376575Y22158D01*
X363731Y36850D02*
X377116Y23465D01*
X364272Y38157D02*
X377658Y24772D01*
X364813Y39465D02*
X378199Y26079D01*
X365355Y40772D02*
X378741Y27386D01*
X365896Y42079D02*
X379282Y28693D01*
X376575Y22158D02*
X394741D01*
X376034Y20850D02*
X392535D01*
X379823Y30000D02*
X397989D01*
X377559Y32265D02*
X379823Y30000D01*
X377559Y32265D02*
Y32283D01*
X379282Y28693D02*
X397448D01*
X378741Y27386D02*
X396906D01*
X378199Y26079D02*
X396365D01*
X377658Y24772D02*
X395824D01*
X377116Y23465D02*
X395282D01*
X375492Y19543D02*
X390543D01*
X374951Y18236D02*
X390001D01*
X374410Y16929D02*
X389460D01*
X363425Y27913D02*
X374410Y16929D01*
X363276Y27913D02*
X363425D01*
X406346Y12646D02*
X410236Y16535D01*
X393251Y12646D02*
X406346D01*
X389866Y16030D02*
X393251Y12646D01*
X390001Y18236D02*
X391173Y17064D01*
Y16572D02*
Y17064D01*
Y16572D02*
X393452Y14293D01*
X397911D01*
X398252Y13953D01*
X401748D01*
X405118Y17323D01*
X398819Y16929D02*
X399606D01*
X397490Y15600D02*
X398819Y16929D01*
X393993Y15600D02*
X397490D01*
X392480Y17113D02*
X393993Y15600D01*
X392480Y17113D02*
Y17606D01*
X390543Y19543D02*
X392480Y17606D01*
X396355Y20543D02*
X411209D01*
X394741Y22158D02*
X396355Y20543D01*
X396896Y21850D02*
X410052D01*
X395282Y23465D02*
X396896Y21850D01*
X397438Y23157D02*
X409511D01*
X395824Y24772D02*
X397438Y23157D01*
X397979Y24465D02*
X408969D01*
X396365Y26079D02*
X397979Y24465D01*
X398521Y25772D02*
X408428D01*
X396906Y27386D02*
X398521Y25772D01*
X399062Y27079D02*
X407887D01*
X397448Y28693D02*
X399062Y27079D01*
X399604Y28386D02*
X407345D01*
X397989Y30000D02*
X399604Y28386D01*
X407887Y27079D02*
X416115Y35307D01*
X408428Y25772D02*
X411546Y28890D01*
X392535Y20850D02*
X395063Y18323D01*
Y18183D02*
Y18323D01*
X389866Y16030D02*
Y16523D01*
X389460Y16929D02*
X389866Y16523D01*
X159239Y38417D02*
X314725D01*
X314890Y38583D01*
X316142D01*
X314223Y39764D02*
X325845Y51386D01*
X312250Y39764D02*
X314223D01*
X312210Y39724D02*
X312250Y39764D01*
X312974Y41197D02*
X324281Y52504D01*
X311835Y41197D02*
X312974D01*
X312433Y42504D02*
X321134Y51205D01*
X311293Y42504D02*
X312433D01*
X311962Y43882D02*
X319827Y51746D01*
X164217Y43882D02*
X311962D01*
X311421Y45189D02*
X318520Y52288D01*
X168973Y45189D02*
X311421D01*
X311748Y41110D02*
X311835Y41197D01*
X311285Y42496D02*
X311293Y42504D01*
X317323Y37402D02*
X331909D01*
X316142Y38583D02*
X317323Y37402D01*
X337893Y43386D02*
X366457D01*
X150980Y35898D02*
X332253D01*
X331909Y37402D02*
X337893Y43386D01*
X332253Y35898D02*
X338434Y42079D01*
X332795Y34591D02*
X338976Y40772D01*
X312882Y34591D02*
X332795D01*
X333336Y33283D02*
X339517Y39465D01*
X143909Y33283D02*
X333336D01*
X333791Y31890D02*
X340059Y38157D01*
X311811Y31890D02*
X333791D01*
X334332Y30583D02*
X340600Y36850D01*
X311270Y30583D02*
X334332D01*
X334834Y29236D02*
X341141Y35543D01*
X280166Y29236D02*
X334834D01*
X335376Y27929D02*
X341683Y34236D01*
X280708Y27929D02*
X335376D01*
X335917Y26622D02*
X342224Y32929D01*
X281249Y26622D02*
X335917D01*
X336459Y25315D02*
X342766Y31622D01*
X281790Y25315D02*
X336459D01*
X343307Y30315D02*
X360874D01*
X337000Y24008D02*
X343307Y30315D01*
X282332Y24008D02*
X337000D01*
X366457Y43386D02*
X377559Y32283D01*
X360874Y30315D02*
X363276Y27913D01*
X516142Y67323D02*
X525197D01*
X511571Y258024D02*
Y259154D01*
X525197Y67323D02*
X533071Y75197D01*
X567713D01*
X585035Y92520D01*
X517398Y29453D02*
Y29779D01*
Y29425D02*
Y29453D01*
X325665Y169913D02*
X326806D01*
X323529D02*
X325665D01*
X125949Y23252D02*
X281576D01*
X128264Y24559D02*
X281034D01*
X105902Y46921D02*
X128264Y24559D01*
X130303Y25866D02*
X280493D01*
X109839Y46331D02*
X130303Y25866D01*
X133839Y27173D02*
X279952D01*
X113776Y47236D02*
X133839Y27173D01*
X136311Y28480D02*
X279410D01*
X139216Y29787D02*
X278869D01*
X141728Y31095D02*
X278327D01*
X119681Y45110D02*
X136311Y28480D01*
X123618Y45386D02*
X139216Y29787D01*
X127555Y45268D02*
X141728Y31095D01*
X131492Y45701D02*
X143909Y33283D01*
X147642Y34591D02*
X312598D01*
X137398Y44834D02*
X147642Y34591D01*
X141335Y45543D02*
X150980Y35898D01*
X159115Y38293D02*
X159239Y38417D01*
X152561Y38293D02*
X159115D01*
X145272Y45583D02*
X152561Y38293D01*
X341528Y51386D02*
X343442Y49472D01*
X325845Y51386D02*
X341528D01*
X343983Y50779D02*
X426649D01*
X342069Y52693D02*
X343983Y50779D01*
X342673Y53937D02*
X345519D01*
X342610Y54000D02*
X342673Y53937D01*
X325303Y52693D02*
X342069D01*
X324762Y54000D02*
X342610D01*
X345519Y53937D02*
X345583Y54000D01*
X324220Y55307D02*
X418067D01*
X344500Y56614D02*
X417525D01*
X344500D02*
Y56681D01*
X344488Y56693D02*
X344500Y56681D01*
X344409Y56614D02*
X344488Y56693D01*
X322722Y56614D02*
X344409D01*
X318520Y52412D02*
X322722Y56614D01*
X428090Y50165D02*
X429562Y48693D01*
X427884Y50165D02*
X428090D01*
X427190Y49472D02*
X427884Y50165D01*
X343442Y49472D02*
X427190D01*
X426649Y50779D02*
X427870Y52000D01*
X323616Y53811D02*
X324573D01*
X325114Y52504D02*
X325303Y52693D01*
X324573Y53811D02*
X324762Y54000D01*
X324281Y52504D02*
X325114D01*
X417525Y56614D02*
X418185Y57274D01*
X323264Y55307D02*
X324220D01*
X321134Y51329D02*
X323616Y53811D01*
X324031Y55118D02*
X324220Y55307D01*
X318520Y52288D02*
Y52412D01*
X345669Y54000D02*
X423389D01*
X319827Y51870D02*
X323264Y55307D01*
X319827Y51746D02*
Y51870D01*
X321134Y51205D02*
Y51329D01*
X161902Y42496D02*
X311285D01*
X159468Y41110D02*
X311748D01*
X154595Y39724D02*
X312210D01*
X418212Y27229D02*
X420160D01*
X279170Y31937D02*
X311838D01*
Y31917D02*
Y31937D01*
X311811Y31890D02*
X311838Y31917D01*
X311222Y30630D02*
X311270Y30583D01*
X279711Y30630D02*
X311222D01*
X412682Y24480D02*
X418106D01*
X411209Y20543D02*
X412216Y21551D01*
X414173Y248425D02*
X444095Y218504D01*
X373228Y248425D02*
X414173D01*
X359842Y235039D02*
X373228Y248425D01*
X207087Y240158D02*
Y241732D01*
Y240158D02*
X212205Y235039D01*
X359842D01*
X125146Y227252D02*
X362430D01*
X128394Y225866D02*
X362893D01*
X129917Y224480D02*
X363356D01*
X362430Y227252D02*
X376641Y241463D01*
X362893Y225866D02*
X377182Y240156D01*
X363356Y224480D02*
X377724Y238848D01*
X366634Y214819D02*
X381514Y229699D01*
X366132Y216165D02*
X380972Y231006D01*
X365669Y217551D02*
X380431Y232313D01*
X365206Y218937D02*
X379889Y233620D01*
X364744Y220323D02*
X379348Y234927D01*
X364281Y221709D02*
X378807Y236234D01*
X363818Y223095D02*
X378265Y237541D01*
X405986Y227085D02*
X418898Y214173D01*
X382596Y227085D02*
X405986D01*
X367717Y212205D02*
X382596Y227085D01*
X406528Y228392D02*
X420205Y214715D01*
X382055Y228392D02*
X406528D01*
X367175Y213512D02*
X382055Y228392D01*
X407069Y229699D02*
X421512Y215256D01*
X381514Y229699D02*
X407069D01*
X407611Y231006D02*
X422819Y215797D01*
X380972Y231006D02*
X407611D01*
X408152Y232313D02*
X424126Y216339D01*
X380431Y232313D02*
X408152D01*
X408693Y233620D02*
X425433Y216880D01*
X379889Y233620D02*
X408693D01*
X409235Y234927D02*
X426740Y217422D01*
X379348Y234927D02*
X409235D01*
X409776Y236234D02*
X428047Y217963D01*
X378807Y236234D02*
X409776D01*
X410318Y237541D02*
X429398Y218461D01*
X378265Y237541D02*
X410318D01*
X410859Y238848D02*
X430783Y218924D01*
X377724Y238848D02*
X410859D01*
X411400Y240156D02*
X432169Y219387D01*
X377182Y240156D02*
X411400D01*
X411942Y241463D02*
X433555Y219849D01*
X376641Y241463D02*
X411942D01*
X444095Y200004D02*
Y218504D01*
Y200004D02*
X450787Y193311D01*
Y120721D02*
Y193311D01*
Y120721D02*
X463728Y107780D01*
X433555Y164071D02*
X441854Y155772D01*
Y116459D02*
Y155772D01*
X432169Y163497D02*
X440468Y155198D01*
Y117033D02*
Y155198D01*
X438169Y143230D02*
X439127Y142272D01*
Y117652D02*
Y142272D01*
X432169Y163497D02*
Y219387D01*
X433555Y164071D02*
Y219849D01*
X428047Y161232D02*
X434437Y154843D01*
Y119488D02*
Y154843D01*
X426740Y159768D02*
X432972Y153535D01*
Y121331D02*
Y153535D01*
X437696Y118181D02*
Y141854D01*
X425433Y158303D02*
X430311Y153425D01*
Y122433D02*
Y153425D01*
X424126Y156839D02*
X427067Y153898D01*
Y125488D02*
Y153898D01*
X421512Y142083D02*
X423917Y139677D01*
Y134150D02*
Y139677D01*
X418697Y128929D02*
X423917Y134150D01*
X430783Y164039D02*
Y218924D01*
X429398Y163465D02*
Y218461D01*
X428047Y161232D02*
Y217963D01*
X426740Y159768D02*
Y217422D01*
X425433Y158303D02*
Y216880D01*
X424126Y156839D02*
Y216339D01*
X422819Y142736D02*
Y215797D01*
Y142736D02*
X425303Y140251D01*
X421512Y142083D02*
Y215256D01*
X420205Y141085D02*
Y214715D01*
X419697Y140577D02*
X420205Y141085D01*
X419697Y140134D02*
Y140577D01*
X418898Y141626D02*
Y214173D01*
X415350Y138079D02*
X418898Y141626D01*
X152224Y214819D02*
X366634D01*
X154546Y213512D02*
X367175D01*
X134433Y223095D02*
X363818D01*
X137264Y221709D02*
X364281D01*
X139815Y220323D02*
X364744D01*
X142366Y218937D02*
X365206D01*
X144917Y217551D02*
X365669D01*
X149122Y216165D02*
X366132D01*
X288943Y212205D02*
X367717D01*
X412028Y111409D02*
Y217279D01*
X406443Y222864D02*
X412028Y217279D01*
X406367Y222864D02*
X406443D01*
X404215Y225016D02*
X406367Y222864D01*
X386328Y225016D02*
X404215D01*
X383745Y222433D02*
X386328Y225016D01*
X392028Y151505D02*
Y221740D01*
X394579Y150123D02*
Y221740D01*
X399902Y171819D02*
Y221740D01*
X403146Y147630D02*
Y222433D01*
X407870Y147630D02*
Y214165D01*
X108460Y201370D02*
Y205933D01*
X128394Y225866D01*
X422831Y108654D02*
X432089D01*
X440468Y117033D01*
X288746Y212008D02*
X288943Y212205D01*
X156979Y212008D02*
X288746D01*
X283181Y210386D02*
X322098Y171469D01*
X167162Y210386D02*
X283181D01*
X283065Y208654D02*
X320791Y170927D01*
X168894Y208654D02*
X283065D01*
X281256Y206685D02*
X320429Y167512D01*
X170862Y206685D02*
X281256D01*
X281376Y204717D02*
X317846Y168246D01*
X172831Y204717D02*
X281376D01*
X144090Y206685D02*
X152224Y214819D01*
X147831Y206796D02*
X154546Y213512D01*
X139957Y207000D02*
X149122Y216165D01*
X134051Y206685D02*
X144917Y217551D01*
X130114Y206685D02*
X142366Y218937D01*
X126177Y206685D02*
X139815Y220323D01*
X122240Y206685D02*
X137264Y221709D01*
X434437Y119488D02*
X434838Y119087D01*
X429398Y163465D02*
X429398Y163465D01*
Y162349D02*
Y163465D01*
Y162349D02*
X435823Y155924D01*
X383461Y222433D02*
X383745D01*
X394579Y221740D02*
X395272Y222433D01*
X399209D02*
X399902Y221740D01*
X503937Y133071D02*
Y169189D01*
X495532Y246387D02*
X495535Y246391D01*
X495532Y177594D02*
Y246387D01*
X491571Y258024D02*
X495535Y254059D01*
Y246391D02*
Y254059D01*
X495532Y177594D02*
X503937Y169189D01*
X520264Y258565D02*
X521029Y259331D01*
X522112D01*
X520264Y257482D02*
Y258565D01*
X522112Y259331D02*
X527614Y253829D01*
Y246391D02*
Y253829D01*
Y246391D02*
X533465Y240541D01*
Y160630D02*
Y240541D01*
X511571Y259154D02*
X516437Y264020D01*
X559339D01*
X585035Y238323D01*
Y92520D02*
Y238323D01*
X104524Y206685D02*
X104579D01*
X104524Y201370D02*
Y206685D01*
X104579D02*
X125146Y227252D01*
X441457Y104595D02*
X448142D01*
X441445Y104606D02*
X441457Y104595D01*
X418390Y104606D02*
X441445D01*
X504886Y183610D02*
X504917Y183642D01*
X438169Y143230D02*
Y155537D01*
X435247Y113772D02*
X439127Y117652D01*
X433067Y113772D02*
X435247D01*
X421728Y105992D02*
X431387D01*
X441854Y116459D01*
X430610Y116433D02*
X434169D01*
X430925Y119283D02*
X432972Y121331D01*
X427161Y119283D02*
X430925D01*
X427949Y113772D02*
X430610Y116433D01*
X434374Y116228D02*
X435744D01*
X434169Y116433D02*
X434374Y116228D01*
X435744D02*
X437696Y118181D01*
X112398Y201370D02*
Y206961D01*
X129917Y224480D01*
X116334Y204996D02*
X134433Y223095D01*
X116334Y201370D02*
Y204996D01*
X281576Y23252D02*
X282332Y24008D01*
X101965Y47236D02*
X125949Y23252D01*
X105902Y46921D02*
Y47236D01*
X281034Y24559D02*
X281790Y25315D01*
X141335Y45543D02*
Y47236D01*
X137398Y44834D02*
Y47236D01*
X423658Y32394D02*
X423776Y32276D01*
X131492Y45701D02*
Y47236D01*
X127555Y45268D02*
Y47236D01*
X278327Y31095D02*
X279170Y31937D01*
X123618Y45386D02*
Y47236D01*
X278869Y29787D02*
X279711Y30630D01*
X410052Y21850D02*
X412682Y24480D01*
X418106D02*
X418106Y24480D01*
Y23694D02*
Y24480D01*
X418106Y23693D02*
X418106Y23694D01*
X119681Y45110D02*
Y47236D01*
X279410Y28480D02*
X280166Y29236D01*
X412791Y20937D02*
Y21488D01*
X412729Y21551D02*
X412791Y21488D01*
X412216Y21551D02*
X412729D01*
X109839Y46331D02*
Y47236D01*
X280493Y25866D02*
X281249Y26622D01*
X399209Y149448D02*
Y171126D01*
Y149448D02*
X399732Y148925D01*
X392028Y147630D02*
Y148741D01*
Y97354D02*
Y147630D01*
X392012Y69598D02*
X392028Y69583D01*
X317846Y166442D02*
X319484Y164804D01*
Y163142D02*
Y164804D01*
X317846Y166442D02*
Y168246D01*
X322098Y171344D02*
X323529Y169913D01*
X322098Y171344D02*
Y171469D01*
X320791Y170802D02*
X322987Y168606D01*
X320791Y170802D02*
Y170927D01*
X168894Y200780D02*
X172831Y204717D01*
X322987Y168606D02*
X323097D01*
X325350Y166353D01*
X166925Y210622D02*
X167162Y210386D01*
X143894Y206685D02*
X144090D01*
X143894Y201370D02*
Y206685D01*
X161020Y200780D02*
X168894Y208654D01*
X325350Y165858D02*
Y166353D01*
X319484Y163142D02*
X320204D01*
X320341Y163279D01*
Y163947D01*
X418066Y59087D02*
X418067D01*
X418185Y58969D01*
Y57274D02*
Y58969D01*
X423389Y54000D02*
X423736Y53653D01*
X159051Y45346D02*
X161902Y42496D01*
X159051Y45346D02*
Y47236D01*
X427870Y52000D02*
Y52748D01*
X155114Y45465D02*
Y47236D01*
Y45465D02*
X159468Y41110D01*
X418067Y55307D02*
X419445Y56685D01*
X421138D01*
X162988Y45110D02*
X164217Y43882D01*
X162988Y45110D02*
Y47236D01*
X416115Y35307D02*
X421351D01*
X421958Y29723D02*
X423972Y27709D01*
X139957Y201370D02*
Y207000D01*
X147831Y201370D02*
Y206796D01*
X151768Y201370D02*
Y206796D01*
X391335Y68890D02*
X392028Y69583D01*
X164957Y200780D02*
X170862Y206685D01*
X157083Y200780D02*
X166925Y210622D01*
X130114Y201370D02*
Y206685D01*
X126177Y201370D02*
Y206685D01*
X122240Y201370D02*
Y206685D01*
X134051Y201370D02*
Y206685D01*
X397445Y75000D02*
Y95063D01*
X399209Y73000D02*
X400106Y73898D01*
Y76102D01*
X399209Y77000D02*
X400106Y76102D01*
X396657Y96260D02*
Y143898D01*
X399209Y68890D02*
Y73000D01*
X403146Y68890D02*
Y147630D01*
X396453Y96055D02*
X396657Y96260D01*
X399209Y77000D02*
Y147630D01*
X399732Y148153D01*
X399209Y147630D02*
Y148402D01*
X396059Y95661D02*
X396453Y96055D01*
X392012Y69598D02*
Y97338D01*
X396453Y96055D02*
X397445Y95063D01*
X407870Y68890D02*
Y147630D01*
X430784Y162923D02*
Y164039D01*
X424406Y129913D02*
X425303Y130811D01*
X426571Y124992D02*
X427067Y125488D01*
X425303Y130811D02*
Y140251D01*
X430784Y162923D02*
X438169Y155537D01*
X435823Y143728D02*
Y155924D01*
Y143728D02*
X437696Y141854D01*
X419287Y108433D02*
X421728Y105992D01*
X418327Y108433D02*
X419287D01*
X411807Y111189D02*
X418390Y104606D01*
X399732Y148153D02*
Y148925D01*
Y149784D01*
X399209Y148402D02*
X399732Y148925D01*
X391748Y147910D02*
X392028Y147630D01*
X391748Y147910D02*
Y149020D01*
X392028Y148741D01*
X392012Y97338D02*
Y147614D01*
Y97338D02*
X392028Y97354D01*
X392012Y147614D02*
X392028Y147630D01*
X379524Y61016D02*
X379594Y61086D01*
X166925Y47236D02*
X168973Y45189D01*
X151768Y206796D02*
X156979Y212008D01*
X419697Y140134D02*
X421256Y138575D01*
X399209Y171126D02*
X399902Y171819D01*
X394760Y146937D02*
Y149772D01*
X394409Y150123D02*
X394760Y149772D01*
X396657Y143898D02*
X397122Y144362D01*
Y172803D02*
X397240Y172921D01*
X397122Y144362D02*
Y172803D01*
X411807Y111189D02*
X412028Y111409D01*
X407870Y214165D02*
X409445Y215740D01*
X279952Y27173D02*
X280708Y27929D01*
X149209Y45110D02*
Y47236D01*
Y45110D02*
X154595Y39724D01*
X409511Y23157D02*
X412629Y26276D01*
X417258D01*
X418212Y27229D01*
X418858Y29723D02*
X421958D01*
X408969Y24465D02*
X412087Y27583D01*
X416717D01*
X418858Y29723D01*
X419679Y32394D02*
X423658D01*
X411546Y28890D02*
X416175D01*
X419679Y32394D01*
X420114Y27141D02*
X420160Y27187D01*
Y27229D01*
X145272Y45583D02*
Y47236D01*
X394746Y150123D02*
X395272Y149598D01*
X394783Y149109D02*
X395272Y149598D01*
X394783Y98150D02*
Y149109D01*
X393398Y96764D02*
X394783Y98150D01*
X393398Y70764D02*
Y96764D01*
Y70764D02*
X395272Y68890D01*
X394579Y150123D02*
X394746D01*
X391748Y149020D02*
Y151225D01*
X391335Y222433D02*
X392028Y221740D01*
X391748Y151225D02*
X392028Y151505D01*
D27*
X551571Y258024D02*
X560169D01*
X493484Y107780D02*
X523894Y138189D01*
X566929D02*
X576224Y147484D01*
X523894Y138189D02*
X566929D01*
X576224Y147484D02*
Y241968D01*
X560169Y258024D02*
X576224Y241968D01*
X444173Y107780D02*
X463728D01*
X441728Y110224D02*
X444173Y107780D01*
X463728D02*
X493484D01*
D28*
X517323Y29528D02*
X517398Y29453D01*
X517323Y18721D02*
Y29528D01*
X504819Y6216D02*
X517323Y18721D01*
X465587Y8894D02*
X485185Y28492D01*
X112760Y8894D02*
X465587D01*
X57087Y64567D02*
Y64961D01*
X55118Y56693D02*
X56693D01*
X107169Y6216D01*
X57087Y64567D02*
X112760Y8894D01*
X107169Y6216D02*
X504819D01*
X485185Y28492D02*
Y67118D01*
D29*
X47244Y21654D02*
D03*
X350394D02*
D03*
X350394Y250000D02*
D03*
X47244D02*
D03*
D30*
X144882Y244488D02*
D03*
X152756D02*
D03*
D31*
X27559Y64961D02*
D03*
Y72835D02*
D03*
D32*
X15744Y255898D02*
D03*
X594484D02*
D03*
Y15740D02*
D03*
X15744D02*
D03*
D33*
X551575Y248031D02*
D03*
D34*
X541575D02*
D03*
X531575D02*
D03*
X521575D02*
D03*
X511575D02*
D03*
X501575D02*
D03*
X491575D02*
D03*
X481575D02*
D03*
X551575Y258032D02*
D03*
X541575D02*
D03*
X531575D02*
D03*
X521575D02*
D03*
X511575D02*
D03*
X501575D02*
D03*
X491575D02*
D03*
X481575D02*
D03*
D35*
X425980Y37315D02*
D03*
X422046Y36220D02*
D03*
X387398Y68890D02*
D03*
Y147630D02*
D03*
Y222433D02*
D03*
X399606Y16535D02*
D03*
X395063Y18183D02*
D03*
X405118Y17323D02*
D03*
X410236Y16535D02*
D03*
X514173Y101181D02*
D03*
X108460Y201370D02*
D03*
X422831Y108654D02*
D03*
X383461Y222433D02*
D03*
X403146D02*
D03*
X395272D02*
D03*
X399209D02*
D03*
X391335D02*
D03*
X503937Y133071D02*
D03*
X517323Y131496D02*
D03*
X533465Y160630D02*
D03*
X479587Y135138D02*
D03*
X206968Y241776D02*
D03*
X448142Y104595D02*
D03*
X488350Y182783D02*
D03*
X514819Y179595D02*
D03*
X441728Y110224D02*
D03*
X427949Y113772D02*
D03*
X435035Y119283D02*
D03*
X433067Y113772D02*
D03*
X430311Y122433D02*
D03*
X485098Y111909D02*
D03*
X463728Y107780D02*
D03*
X517398Y29779D02*
D03*
X485185Y67118D02*
D03*
X516728Y67047D02*
D03*
X492516Y51650D02*
D03*
X320429Y167512D02*
D03*
X325665Y169913D02*
D03*
X319484Y163142D02*
D03*
X325350Y165858D02*
D03*
X418066Y59087D02*
D03*
X421138Y56685D02*
D03*
X429562Y48693D02*
D03*
X427870Y52748D02*
D03*
X423736Y53653D02*
D03*
X423776Y32276D02*
D03*
X420114Y27141D02*
D03*
X418106Y23693D02*
D03*
X423972Y27709D02*
D03*
X412791Y20937D02*
D03*
X379524Y139756D02*
D03*
Y61016D02*
D03*
Y214559D02*
D03*
X94784Y110228D02*
D03*
Y92512D02*
D03*
Y74795D02*
D03*
Y57079D02*
D03*
X112500D02*
D03*
X130217Y92512D02*
D03*
Y110228D02*
D03*
X147933Y57079D02*
D03*
Y74795D02*
D03*
Y92512D02*
D03*
Y110228D02*
D03*
X165650Y57079D02*
D03*
Y74795D02*
D03*
Y92512D02*
D03*
Y110228D02*
D03*
X183366Y57079D02*
D03*
Y74795D02*
D03*
Y92512D02*
D03*
Y110228D02*
D03*
X201083Y57079D02*
D03*
Y74795D02*
D03*
Y92512D02*
D03*
Y110228D02*
D03*
X218799Y57079D02*
D03*
Y74795D02*
D03*
Y92512D02*
D03*
Y110228D02*
D03*
X236516Y57079D02*
D03*
Y74795D02*
D03*
Y92512D02*
D03*
Y110228D02*
D03*
X254233Y57079D02*
D03*
Y74795D02*
D03*
Y92512D02*
D03*
Y110228D02*
D03*
X271949Y57079D02*
D03*
Y74795D02*
D03*
Y92512D02*
D03*
Y110228D02*
D03*
X289666Y57079D02*
D03*
Y74795D02*
D03*
Y92512D02*
D03*
Y110228D02*
D03*
X94784Y127945D02*
D03*
Y145662D02*
D03*
Y163378D02*
D03*
Y181095D02*
D03*
X112500Y127945D02*
D03*
Y145662D02*
D03*
Y163378D02*
D03*
Y181095D02*
D03*
X130217Y127945D02*
D03*
Y145662D02*
D03*
Y163378D02*
D03*
Y181095D02*
D03*
X147933Y127945D02*
D03*
Y145662D02*
D03*
Y163378D02*
D03*
Y181095D02*
D03*
X165650Y127945D02*
D03*
Y145662D02*
D03*
Y163378D02*
D03*
Y181095D02*
D03*
X183366Y127945D02*
D03*
Y145662D02*
D03*
Y163378D02*
D03*
Y181095D02*
D03*
X201083Y127945D02*
D03*
Y145662D02*
D03*
Y163378D02*
D03*
Y181095D02*
D03*
X218799Y127945D02*
D03*
Y145662D02*
D03*
Y163378D02*
D03*
Y181095D02*
D03*
X236516Y145662D02*
D03*
Y163378D02*
D03*
Y181095D02*
D03*
X254233Y145662D02*
D03*
Y163378D02*
D03*
Y181095D02*
D03*
X271949Y145662D02*
D03*
Y163378D02*
D03*
Y181095D02*
D03*
X289666Y145662D02*
D03*
Y163378D02*
D03*
Y181095D02*
D03*
X130217Y57079D02*
D03*
X112500Y110228D02*
D03*
Y92512D02*
D03*
Y74795D02*
D03*
X130217D02*
D03*
X236516Y127945D02*
D03*
X254233D02*
D03*
X289666D02*
D03*
X271949D02*
D03*
X164957Y200780D02*
D03*
X168894D02*
D03*
X157083D02*
D03*
X161020D02*
D03*
X143894Y201370D02*
D03*
X139957D02*
D03*
X151768D02*
D03*
X147831D02*
D03*
X126177D02*
D03*
X122240D02*
D03*
X134051D02*
D03*
X130114D02*
D03*
X104524D02*
D03*
X116334D02*
D03*
X112398D02*
D03*
X162988Y47236D02*
D03*
X166925D02*
D03*
X141335D02*
D03*
X137398D02*
D03*
X131492D02*
D03*
X127555D02*
D03*
X123618D02*
D03*
X119681D02*
D03*
X113776D02*
D03*
X109839D02*
D03*
X105902D02*
D03*
X101965D02*
D03*
X407870Y147630D02*
D03*
X391335Y68890D02*
D03*
X395272D02*
D03*
X403146D02*
D03*
X397445Y75000D02*
D03*
X399209Y68890D02*
D03*
X407870Y68890D02*
D03*
X403146Y147630D02*
D03*
X399732Y149784D02*
D03*
X394409Y150123D02*
D03*
X396059Y95661D02*
D03*
X418697Y128929D02*
D03*
X424406Y129913D02*
D03*
X427161Y119283D02*
D03*
X426571Y124992D02*
D03*
X418327Y108433D02*
D03*
X145272Y47236D02*
D03*
X149209D02*
D03*
X155114D02*
D03*
X159051D02*
D03*
X421256Y138575D02*
D03*
X415350Y138079D02*
D03*
X397240Y172921D02*
D03*
X391335Y147630D02*
D03*
X409445Y215740D02*
D03*
D36*
X560630Y56693D02*
D03*
X472784Y182870D02*
D03*
X563421Y202744D02*
D03*
X508067Y49110D02*
D03*
D37*
X57087Y64961D02*
D03*
X55118Y56693D02*
D03*
M02*
