  0
SECTION
  2
HEADER
  9
$ACADVER
  1
AC1015
  9
$ACADMAINTVER
 70
    20
  9
$DWGCODEPAGE
  3
ANSI_1252
  9
$INSBASE
 10
0.0
 20
0.0
 30
0.0
  9
$EXTMIN
 10
24.82596
 20
5.849873999999999
 30
0.0
  9
$EXTMAX
 10
147.950047
 20
61.95009199999999
 30
0.0
  9
$LIMMIN
 10
24.82596
 20
5.849873999999999
  9
$LIMMAX
 10
147.950047
 20
61.95009200000001
  9
$ORTHOMODE
 70
     0
  9
$REGENMODE
 70
     1
  9
$FILLMODE
 70
     1
  9
$QTEXTMODE
 70
     0
  9
$MIRRTEXT
 70
     0
  9
$LTSCALE
 40
1.0
  9
$ATTMODE
 70
     1
  9
$TEXTSIZE
 40
0.2
  9
$TRACEWID
 40
0.05
  9
$TEXTSTYLE
  7
Standard
  9
$CLAYER
  8
CHIP_READER_PCB_DARK_GTP
  9
$CELTYPE
  6
CONTINUOUS
  9
$CECOLOR
 62
   256
  9
$CELTSCALE
 40
1.0
  9
$DISPSILH
 70
     0
  9
$DIMSCALE
 40
1.0
  9
$DIMASZ
 40
0.18
  9
$DIMEXO
 40
0.0625
  9
$DIMDLI
 40
0.38
  9
$DIMRND
 40
0.0
  9
$DIMDLE
 40
0.0
  9
$DIMEXE
 40
0.18
  9
$DIMTP
 40
0.0
  9
$DIMTM
 40
0.0
  9
$DIMTXT
 40
0.18
  9
$DIMCEN
 40
0.09
  9
$DIMTSZ
 40
0.0
  9
$DIMTOL
 70
     0
  9
$DIMLIM
 70
     0
  9
$DIMTIH
 70
     1
  9
$DIMTOH
 70
     1
  9
$DIMSE1
 70
     0
  9
$DIMSE2
 70
     0
  9
$DIMTAD
 70
     0
  9
$DIMZIN
 70
     0
  9
$DIMBLK
  1

  9
$DIMASO
 70
     1
  9
$DIMSHO
 70
     1
  9
$DIMPOST
  1

  9
$DIMAPOST
  1

  9
$DIMALT
 70
     0
  9
$DIMALTD
 70
     2
  9
$DIMALTF
 40
25.4
  9
$DIMLFAC
 40
1.0
  9
$DIMTOFL
 70
     0
  9
$DIMTVP
 40
0.0
  9
$DIMTIX
 70
     0
  9
$DIMSOXD
 70
     0
  9
$DIMSAH
 70
     0
  9
$DIMBLK1
  1

  9
$DIMBLK2
  1

  9
$DIMSTYLE
  2
Standard
  9
$DIMCLRD
 70
     0
  9
$DIMCLRE
 70
     0
  9
$DIMCLRT
 70
     0
  9
$DIMTFAC
 40
1.0
  9
$DIMGAP
 40
0.09
  9
$DIMJUST
 70
     0
  9
$DIMSD1
 70
     0
  9
$DIMSD2
 70
     0
  9
$DIMTOLJ
 70
     1
  9
$DIMTZIN
 70
     0
  9
$DIMALTZ
 70
     0
  9
$DIMALTTZ
 70
     0
  9
$DIMUPT
 70
     0
  9
$DIMDEC
 70
     4
  9
$DIMTDEC
 70
     4
  9
$DIMALTU
 70
     2
  9
$DIMALTTD
 70
     2
  9
$DIMTXSTY
  7
Standard
  9
$DIMAUNIT
 70
     0
  9
$DIMADEC
 70
     0
  9
$DIMALTRND
 40
0.0
  9
$DIMAZIN
 70
     0
  9
$DIMDSEP
 70
    46
  9
$DIMATFIT
 70
     3
  9
$DIMFRAC
 70
     0
  9
$DIMLDRBLK
  1

  9
$DIMLUNIT
 70
     2
  9
$DIMLWD
 70
    -2
  9
$DIMLWE
 70
    -2
  9
$DIMTMOVE
 70
     0
  9
$LUNITS
 70
     2
  9
$LUPREC
 70
     9
  9
$SKETCHINC
 40
0.1
  9
$FILLETRAD
 40
0.0
  9
$AUNITS
 70
     0
  9
$AUPREC
 70
     0
  9
$MENU
  1
.
  9
$ELEVATION
 40
0.0
  9
$PELEVATION
 40
0.0
  9
$THICKNESS
 40
0.0
  9
$LIMCHECK
 70
     0
  9
$CHAMFERA
 40
0.0
  9
$CHAMFERB
 40
0.0
  9
$CHAMFERC
 40
0.0
  9
$CHAMFERD
 40
0.0
  9
$SKPOLY
 70
     0
  9
$TDCREATE
 40
2455713.904126829
  9
$TDUCREATE
 40
2455714.195793496
  9
$TDUPDATE
 40
2455713.904593345
  9
$TDUUPDATE
 40
2455714.196260012
  9
$TDINDWG
 40
0.0004668056
  9
$TDUSRTIMER
 40
0.0004668056
  9
$USRTIMER
 70
     1
  9
$ANGBASE
 50
0.0
  9
$ANGDIR
 70
     0
  9
$PDMODE
 70
     0
  9
$PDSIZE
 40
0.0
  9
$PLINEWID
 40
0.0
  9
$SPLFRAME
 70
     0
  9
$SPLINETYPE
 70
     6
  9
$SPLINESEGS
 70
     8
  9
$HANDSEED
  5
2E9
  9
$SURFTAB1
 70
     6
  9
$SURFTAB2
 70
     6
  9
$SURFTYPE
 70
     6
  9
$SURFU
 70
     6
  9
$SURFV
 70
     6
  9
$UCSBASE
  2

  9
$UCSNAME
  2

  9
$UCSORG
 10
0.0
 20
0.0
 30
0.0
  9
$UCSXDIR
 10
1.0
 20
0.0
 30
0.0
  9
$UCSYDIR
 10
0.0
 20
1.0
 30
0.0
  9
$UCSORTHOREF
  2

  9
$UCSORTHOVIEW
 70
     0
  9
$UCSORGTOP
 10
0.0
 20
0.0
 30
0.0
  9
$UCSORGBOTTOM
 10
0.0
 20
0.0
 30
0.0
  9
$UCSORGLEFT
 10
0.0
 20
0.0
 30
0.0
  9
$UCSORGRIGHT
 10
0.0
 20
0.0
 30
0.0
  9
$UCSORGFRONT
 10
0.0
 20
0.0
 30
0.0
  9
$UCSORGBACK
 10
0.0
 20
0.0
 30
0.0
  9
$PUCSBASE
  2

  9
$PUCSNAME
  2

  9
$PUCSORG
 10
0.0
 20
0.0
 30
0.0
  9
$PUCSXDIR
 10
1.0
 20
0.0
 30
0.0
  9
$PUCSYDIR
 10
0.0
 20
1.0
 30
0.0
  9
$PUCSORTHOREF
  2

  9
$PUCSORTHOVIEW
 70
     0
  9
$PUCSORGTOP
 10
0.0
 20
0.0
 30
0.0
  9
$PUCSORGBOTTOM
 10
0.0
 20
0.0
 30
0.0
  9
$PUCSORGLEFT
 10
0.0
 20
0.0
 30
0.0
  9
$PUCSORGRIGHT
 10
0.0
 20
0.0
 30
0.0
  9
$PUCSORGFRONT
 10
0.0
 20
0.0
 30
0.0
  9
$PUCSORGBACK
 10
0.0
 20
0.0
 30
0.0
  9
$USERI1
 70
     0
  9
$USERI2
 70
     0
  9
$USERI3
 70
     0
  9
$USERI4
 70
     0
  9
$USERI5
 70
     0
  9
$USERR1
 40
0.0
  9
$USERR2
 40
0.0
  9
$USERR3
 40
0.0
  9
$USERR4
 40
0.0
  9
$USERR5
 40
0.0
  9
$WORLDVIEW
 70
     1
  9
$SHADEDGE
 70
     3
  9
$SHADEDIF
 70
    70
  9
$TILEMODE
 70
     1
  9
$MAXACTVP
 70
    64
  9
$PINSBASE
 10
0.0
 20
0.0
 30
0.0
  9
$PLIMCHECK
 70
     0
  9
$PEXTMIN
 10
1.000000000000000E+20
 20
1.000000000000000E+20
 30
1.000000000000000E+20
  9
$PEXTMAX
 10
-1.000000000000000E+20
 20
-1.000000000000000E+20
 30
-1.000000000000000E+20
  9
$PLIMMIN
 10
0.0
 20
0.0
  9
$PLIMMAX
 10
12.0
 20
9.0
  9
$UNITMODE
 70
     0
  9
$VISRETAIN
 70
     1
  9
$PLINEGEN
 70
     0
  9
$PSLTSCALE
 70
     1
  9
$TREEDEPTH
 70
  3020
  9
$CMLSTYLE
  2
Standard
  9
$CMLJUST
 70
     0
  9
$CMLSCALE
 40
1.0
  9
$PROXYGRAPHICS
 70
     1
  9
$MEASUREMENT
 70
     0
  9
$CELWEIGHT
370
    -1
  9
$ENDCAPS
280
     0
  9
$JOINSTYLE
280
     0
  9
$LWDISPLAY
290
     0
  9
$INSUNITS
 70
     0
  9
$HYPERLINKBASE
  1

  9
$STYLESHEET
  1

  9
$XEDIT
290
     1
  9
$CEPSNTYPE
380
     0
  9
$PSTYLEMODE
290
     1
  9
$FINGERPRINTGUID
  2
{AD950ECA-9CD1-4802-AFAB-D4A3898DBAA3}
  9
$VERSIONGUID
  2
{152AAF44-3362-419E-98A8-87CF5DE39011}
  9
$EXTNAMES
290
     1
  9
$PSVPSCALE
 40
0.0
  9
$OLESTARTUP
290
     0
  0
ENDSEC
  0
SECTION
  2
CLASSES
  0
CLASS
  1
ACDBDICTIONARYWDFLT
  2
AcDbDictionaryWithDefault
  3
ObjectDBX Classes
 90
        0
280
     0
281
     0
  0
CLASS
  1
MATERIAL
  2
AcDbMaterial
  3
ObjectDBX Classes
 90
     1024
280
     0
281
     0
  0
CLASS
  1
VISUALSTYLE
  2
AcDbVisualStyle
  3
ObjectDBX Classes
 90
     4095
280
     0
281
     0
  0
CLASS
  1
TABLESTYLE
  2
AcDbTableStyle
  3
ObjectDBX Classes
 90
     4095
280
     0
281
     0
  0
CLASS
  1
DICTIONARYVAR
  2
AcDbDictionaryVar
  3
ObjectDBX Classes
 90
        0
280
     0
281
     0
  0
CLASS
  1
ACDBPLACEHOLDER
  2
AcDbPlaceHolder
  3
ObjectDBX Classes
 90
        0
280
     0
281
     0
  0
CLASS
  1
LAYOUT
  2
AcDbLayout
  3
ObjectDBX Classes
 90
        0
280
     0
281
     0
  0
ENDSEC
  0
SECTION
  2
TABLES
  0
TABLE
  2
VPORT
  5
8
330
0
100
AcDbSymbolTable
 70
     1
  0
VPORT
  5
3A
330
8
100
AcDbSymbolTableRecord
100
AcDbViewportTableRecord
  2
*ACTIVE
 70
     0
 10
0.0
 20
0.0
 11
1.0
 21
1.0
 12
83.2625574294062
 22
41.96400912448393
 13
0.0
 23
0.0
 14
0.001
 24
0.001
 15
0.0
 25
0.0
 16
0.0
 26
0.0
 36
1.0
 17
0.0
 27
0.0
 37
0.0
 40
156.4019226480637
 41
1.946708463949843
 42
50.0
 43
0.0
 44
0.0
 50
0.0
 51
0.0
 71
     0
 72
   100
 73
     1
 74
     1
 75
     0
 76
     0
 77
     0
 78
     0
281
     0
 65
     1
110
0.0
120
0.0
130
0.0
111
1.0
121
0.0
131
0.0
112
0.0
122
1.0
132
0.0
 79
     0
146
0.0
  0
ENDTAB
  0
TABLE
  2
LTYPE
  5
5
330
0
100
AcDbSymbolTable
 70
     3
  0
LTYPE
  5
28
330
5
100
AcDbSymbolTableRecord
100
AcDbLinetypeTableRecord
  2
ByBlock
 70
     0
  3

 72
    65
 73
     0
 40
0.0
  0
LTYPE
  5
29
330
5
100
AcDbSymbolTableRecord
100
AcDbLinetypeTableRecord
  2
ByLayer
 70
     0
  3

 72
    65
 73
     0
 40
0.0
  0
LTYPE
  5
2A
330
5
100
AcDbSymbolTableRecord
100
AcDbLinetypeTableRecord
  2
CONTINUOUS
 70
     0
  3
Solid line
 72
    65
 73
     0
 40
0.0
  0
LTYPE
  5
3B
330
5
100
AcDbSymbolTableRecord
100
AcDbLinetypeTableRecord
  2
BYBLOCK
 70
     0
  3

 72
    65
 73
     0
 40
0.0
  0
LTYPE
  5
3C
330
5
100
AcDbSymbolTableRecord
100
AcDbLinetypeTableRecord
  2
BYLAYER
 70
     0
  3

 72
    65
 73
     0
 40
0.0
  0
ENDTAB
  0
TABLE
  2
LAYER
  5
2
102
{ACAD_XDICTIONARY
360
2D4
102
}
330
0
100
AcDbSymbolTable
 70
     2
  0
LAYER
  5
25
330
2
100
AcDbSymbolTableRecord
100
AcDbLayerTableRecord
  2
0
 70
     0
 62
     7
  6
CONTINUOUS
370
    -3
390
F
  0
LAYER
  5
3D
330
2
100
AcDbSymbolTableRecord
100
AcDbLayerTableRecord
  2
CHIP_READER_PCB_DARK_GTP
 70
     0
 62
     1
  6
CONTINUOUS
370
     0
390
F
  0
ENDTAB
  0
TABLE
  2
STYLE
  5
3
330
0
100
AcDbSymbolTable
 70
     1
  0
STYLE
  5
26
330
3
100
AcDbSymbolTableRecord
100
AcDbTextStyleTableRecord
  2
Standard
 70
     0
 40
0.0
 41
1.0
 50
0.0
 71
     0
 42
0.2
  3
txt
  4

  0
ENDTAB
  0
TABLE
  2
VIEW
  5
6
330
0
100
AcDbSymbolTable
 70
     0
  0
ENDTAB
  0
TABLE
  2
UCS
  5
7
330
0
100
AcDbSymbolTable
 70
     0
  0
ENDTAB
  0
TABLE
  2
APPID
  5
9
330
0
100
AcDbSymbolTable
 70
     1
  0
APPID
  5
27
330
9
100
AcDbSymbolTableRecord
100
AcDbRegAppTableRecord
  2
ACAD
 70
     0
  0
ENDTAB
  0
TABLE
  2
DIMSTYLE
  5
A
330
0
100
AcDbSymbolTable
 70
     1
100
AcDbDimStyleTable
 71
     0
  0
DIMSTYLE
105
2D2
330
A
100
AcDbSymbolTableRecord
100
AcDbDimStyleTableRecord
  2
Standard
 70
     0
340
26
  0
ENDTAB
  0
TABLE
  2
BLOCK_RECORD
  5
1
330
0
100
AcDbSymbolTable
 70
    15
  0
BLOCK_RECORD
  5
36
330
1
100
AcDbSymbolTableRecord
100
AcDbBlockTableRecord
  2
*Model_Space
340
39
  0
BLOCK_RECORD
  5
32
330
1
100
AcDbSymbolTableRecord
100
AcDbBlockTableRecord
  2
*Paper_Space
340
35
  0
BLOCK_RECORD
  5
3F
330
1
100
AcDbSymbolTableRecord
100
AcDbBlockTableRecord
  2
D24
340
0
102
{BLKREFS
331
2CD
331
2CE
331
2CF
331
2D0
331
2D1
102
}
  0
BLOCK_RECORD
  5
4A
330
1
100
AcDbSymbolTableRecord
100
AcDbBlockTableRecord
  2
D23
340
0
102
{BLKREFS
331
2CC
102
}
  0
BLOCK_RECORD
  5
55
330
1
100
AcDbSymbolTableRecord
100
AcDbBlockTableRecord
  2
D22
340
0
102
{BLKREFS
331
2CA
331
2CB
102
}
  0
BLOCK_RECORD
  5
60
330
1
100
AcDbSymbolTableRecord
100
AcDbBlockTableRecord
  2
D21
340
0
102
{BLKREFS
331
2C6
331
2C7
331
2C8
331
2C9
102
}
  0
BLOCK_RECORD
  5
6B
330
1
100
AcDbSymbolTableRecord
100
AcDbBlockTableRecord
  2
D20
340
0
102
{BLKREFS
331
2C5
102
}
  0
BLOCK_RECORD
  5
76
330
1
100
AcDbSymbolTableRecord
100
AcDbBlockTableRecord
  2
D19
340
0
102
{BLKREFS
331
2C3
331
2C4
102
}
  0
BLOCK_RECORD
  5
81
330
1
100
AcDbSymbolTableRecord
100
AcDbBlockTableRecord
  2
D18
340
0
102
{BLKREFS
331
2BC
331
2BD
331
2BE
331
2BF
331
2C0
331
2C1
331
2C2
102
}
  0
BLOCK_RECORD
  5
8C
330
1
100
AcDbSymbolTableRecord
100
AcDbBlockTableRecord
  2
D17
340
0
102
{BLKREFS
331
2BB
102
}
  0
BLOCK_RECORD
  5
97
330
1
100
AcDbSymbolTableRecord
100
AcDbBlockTableRecord
  2
D16
340
0
102
{BLKREFS
331
2A7
331
2A8
331
2A9
331
2AA
331
2AB
331
2AC
331
2AD
331
2AE
331
2AF
331
2B0
331
2B1
331
2B2
331
2B3
331
2B4
331
2B5
331
2B6
331
2B7
331
2B8
331
2B9
331
2BA
102
}
  0
BLOCK_RECORD
  5
A2
330
1
100
AcDbSymbolTableRecord
100
AcDbBlockTableRecord
  2
D15
340
0
102
{BLKREFS
331
25F
331
260
331
261
331
262
331
263
331
264
331
265
331
266
331
267
331
268
331
269
331
26A
331
26B
331
26C
331
26D
331
26E
331
26F
331
270
331
271
331
272
331
273
331
274
331
275
331
276
331
277
331
278
331
279
331
27A
331
27B
331
27C
331
27D
331
27E
331
27F
331
280
331
281
331
282
331
283
331
284
331
285
331
286
331
287
331
288
331
289
331
28A
331
28B
331
28C
331
28D
331
28E
331
28F
331
290
331
291
331
292
331
293
331
294
331
295
331
296
331
297
331
298
331
299
331
29A
331
29B
331
29C
331
29D
331
29E
331
29F
331
2A0
331
2A1
331
2A2
331
2A3
331
2A4
331
2A5
331
2A6
102
}
  0
BLOCK_RECORD
  5
CA
330
1
100
AcDbSymbolTableRecord
100
AcDbBlockTableRecord
  2
D14
340
0
102
{BLKREFS
331
217
331
218
331
219
331
21A
331
21B
331
21C
331
21D
331
21E
331
21F
331
220
331
221
331
222
331
223
331
224
331
225
331
226
331
227
331
228
331
229
331
22A
331
22B
331
22C
331
22D
331
22E
331
22F
331
230
331
231
331
232
331
233
331
234
331
235
331
236
331
237
331
238
331
239
331
23A
331
23B
331
23C
331
23D
331
23E
331
23F
331
240
331
241
331
242
331
243
331
244
331
245
331
246
331
247
331
248
331
249
331
24A
331
24B
331
24C
331
24D
331
24E
331
24F
331
250
331
251
331
252
331
253
331
254
331
255
331
256
331
257
331
258
331
259
331
25A
331
25B
331
25C
331
25D
331
25E
102
}
  0
BLOCK_RECORD
  5
F2
330
1
100
AcDbSymbolTableRecord
100
AcDbBlockTableRecord
  2
D13
340
0
102
{BLKREFS
331
213
331
214
331
215
331
216
102
}
  0
BLOCK_RECORD
  5
FD
330
1
100
AcDbSymbolTableRecord
100
AcDbBlockTableRecord
  2
D12
340
0
102
{BLKREFS
331
20D
331
20E
331
20F
331
210
331
211
331
212
102
}
  0
BLOCK_RECORD
  5
125
330
1
100
AcDbSymbolTableRecord
100
AcDbBlockTableRecord
  2
D11
340
0
102
{BLKREFS
331
1FB
331
1FC
331
1FD
331
1FE
331
1FF
331
200
331
201
331
202
331
203
331
204
331
205
331
206
331
207
331
208
331
209
331
20A
331
20B
331
20C
102
}
  0
BLOCK_RECORD
  5
130
330
1
100
AcDbSymbolTableRecord
100
AcDbBlockTableRecord
  2
D10
340
0
102
{BLKREFS
331
13B
331
13C
331
13D
331
13E
331
13F
331
140
331
141
331
142
331
143
331
144
331
145
331
146
331
147
331
148
331
149
331
14A
331
14B
331
14C
331
14D
331
14E
331
14F
331
150
331
151
331
152
331
153
331
154
331
155
331
156
331
157
331
158
331
159
331
15A
331
15B
331
15C
331
15D
331
15E
331
15F
331
160
331
161
331
162
331
163
331
164
331
165
331
166
331
167
331
168
331
169
331
16A
331
16B
331
16C
331
16D
331
16E
331
16F
331
170
331
171
331
172
331
173
331
174
331
175
331
176
331
177
331
178
331
179
331
17A
331
17B
331
17C
331
17D
331
17E
331
17F
331
180
331
181
331
182
331
183
331
184
331
185
331
186
331
187
331
188
331
189
331
18A
331
18B
331
18C
331
18D
331
18E
331
18F
331
190
331
191
331
192
331
193
331
194
331
195
331
196
331
197
331
198
331
199
331
19A
331
19B
331
19C
331
19D
331
19E
331
19F
331
1A0
331
1A1
331
1A2
331
1A3
331
1A4
331
1A5
331
1A6
331
1A7
331
1A8
331
1A9
331
1AA
331
1AB
331
1AC
331
1AD
331
1AE
331
1AF
331
1B0
331
1B1
331
1B2
331
1B3
331
1B4
331
1B5
331
1B6
331
1B7
331
1B8
331
1B9
331
1BA
331
1BB
331
1BC
331
1BD
331
1BE
331
1BF
331
1C0
331
1C1
331
1C2
331
1C3
331
1C4
331
1C5
331
1C6
331
1C7
331
1C8
331
1C9
331
1CA
331
1CB
331
1CC
331
1CD
331
1CE
331
1CF
331
1D0
331
1D1
331
1D2
331
1D3
331
1D4
331
1D5
331
1D6
331
1D7
331
1D8
331
1D9
331
1DA
331
1DB
331
1DC
331
1DD
331
1DE
331
1DF
331
1E0
331
1E1
331
1E2
331
1E3
331
1E4
331
1E5
331
1E6
331
1E7
331
1E8
331
1E9
331
1EA
331
1EB
331
1EC
331
1ED
331
1EE
331
1EF
331
1F0
331
1F1
331
1F2
331
1F3
331
1F4
331
1F5
331
1F6
331
1F7
331
1F8
331
1F9
331
1FA
102
}
  0
ENDTAB
  0
ENDSEC
  0
SECTION
  2
BLOCKS
  0
BLOCK
  5
37
330
36
100
AcDbEntity
  8
0
100
AcDbBlockBegin
  2
*Model_Space
 70
     0
 10
0.0
 20
0.0
 30
0.0
  3
*Model_Space
  1

  0
ENDBLK
  5
38
330
36
100
AcDbEntity
  8
0
100
AcDbBlockEnd
  0
BLOCK
  5
33
330
32
100
AcDbEntity
 67
     1
  8
0
100
AcDbBlockBegin
  2
*Paper_Space
 70
     0
 10
0.0
 20
0.0
 30
0.0
  3
*Paper_Space
  1

  0
ENDBLK
  5
34
330
32
100
AcDbEntity
 67
     1
  8
0
100
AcDbBlockEnd
  0
BLOCK
  5
40
330
3F
100
AcDbEntity
  8
0
100
AcDbBlockBegin
  2
D24
 70
     0
 10
0.0
 20
0.0
 30
0.0
  3
D24
  1

  0
LWPOLYLINE
  5
41
330
3F
100
AcDbEntity
  8
CHIP_READER_PCB_DARK_GTP
100
AcDbPolyline
 90
        6
 70
     1
 43
0.0
 10
0.274955
 20
0.0
 10
0.274955
 20
-0.725043
 10
-0.274955
 20
-0.725043
 10
-0.274955
 20
0.725043
 10
0.274955
 20
0.725043
 10
0.274955
 20
0.0
  0
ENDBLK
  5
49
330
3F
100
AcDbEntity
  8
0
100
AcDbBlockEnd
  0
BLOCK
  5
4B
330
4A
100
AcDbEntity
  8
0
100
AcDbBlockBegin
  2
D23
 70
     0
 10
0.0
 20
0.0
 30
0.0
  3
D23
  1

  0
LWPOLYLINE
  5
4C
330
4A
100
AcDbEntity
  8
CHIP_READER_PCB_DARK_GTP
100
AcDbPolyline
 90
        6
 70
     1
 43
0.0
 10
0.274955
 20
0.0
 10
0.274955
 20
-0.725043
 10
-0.274955
 20
-0.725043
 10
-0.274955
 20
0.725043
 10
0.274955
 20
0.725043
 10
0.274955
 20
0.0
  0
ENDBLK
  5
54
330
4A
100
AcDbEntity
  8
0
100
AcDbBlockEnd
  0
BLOCK
  5
56
330
55
100
AcDbEntity
  8
0
100
AcDbBlockBegin
  2
D22
 70
     0
 10
0.0
 20
0.0
 30
0.0
  3
D22
  1

  0
LWPOLYLINE
  5
57
330
55
100
AcDbEntity
  8
CHIP_READER_PCB_DARK_GTP
100
AcDbPolyline
 90
        6
 70
     1
 43
0.0
 10
1.274953
 20
0.0
 10
1.274953
 20
-0.9250679999999999
 10
-1.274953
 20
-0.9250679999999999
 10
-1.274953
 20
0.9250679999999999
 10
1.274953
 20
0.9250679999999999
 10
1.274953
 20
0.0
  0
ENDBLK
  5
5F
330
55
100
AcDbEntity
  8
0
100
AcDbBlockEnd
  0
BLOCK
  5
61
330
60
100
AcDbEntity
  8
0
100
AcDbBlockBegin
  2
D21
 70
     0
 10
0.0
 20
0.0
 30
0.0
  3
D21
  1

  0
LWPOLYLINE
  5
62
330
60
100
AcDbEntity
  8
CHIP_READER_PCB_DARK_GTP
100
AcDbPolyline
 90
        6
 70
     1
 43
0.0
 10
0.725043
 20
0.0
 10
0.725043
 20
-0.274955
 10
-0.725043
 20
-0.274955
 10
-0.725043
 20
0.274955
 10
0.725043
 20
0.274955
 10
0.725043
 20
0.0
  0
ENDBLK
  5
6A
330
60
100
AcDbEntity
  8
0
100
AcDbBlockEnd
  0
BLOCK
  5
6C
330
6B
100
AcDbEntity
  8
0
100
AcDbBlockBegin
  2
D20
 70
     0
 10
0.0
 20
0.0
 30
0.0
  3
D20
  1

  0
LWPOLYLINE
  5
6D
330
6B
100
AcDbEntity
  8
CHIP_READER_PCB_DARK_GTP
100
AcDbPolyline
 90
        6
 70
     1
 43
0.0
 10
0.725043
 20
0.0
 10
0.725043
 20
-0.274955
 10
-0.725043
 20
-0.274955
 10
-0.725043
 20
0.274955
 10
0.725043
 20
0.274955
 10
0.725043
 20
0.0
  0
ENDBLK
  5
75
330
6B
100
AcDbEntity
  8
0
100
AcDbBlockEnd
  0
BLOCK
  5
77
330
76
100
AcDbEntity
  8
0
100
AcDbBlockBegin
  2
D19
 70
     0
 10
0.0
 20
0.0
 30
0.0
  3
D19
  1

  0
LWPOLYLINE
  5
78
330
76
100
AcDbEntity
  8
CHIP_READER_PCB_DARK_GTP
100
AcDbPolyline
 90
        6
 70
     1
 43
0.0
 10
0.750062
 20
0.0
 10
0.750062
 20
-0.94996
 10
-0.750062
 20
-0.94996
 10
-0.750062
 20
0.94996
 10
0.750062
 20
0.94996
 10
0.750062
 20
0.0
  0
ENDBLK
  5
80
330
76
100
AcDbEntity
  8
0
100
AcDbBlockEnd
  0
BLOCK
  5
82
330
81
100
AcDbEntity
  8
0
100
AcDbBlockBegin
  2
D18
 70
     0
 10
0.0
 20
0.0
 30
0.0
  3
D18
  1

  0
LWPOLYLINE
  5
83
330
81
100
AcDbEntity
  8
CHIP_READER_PCB_DARK_GTP
100
AcDbPolyline
 90
        6
 70
     1
 43
0.0
 10
1.075054999999999
 20
0.0
 10
1.075054999999999
 20
-0.200025
 10
-1.075054999999999
 20
-0.200025
 10
-1.075054999999999
 20
0.200025
 10
1.075054999999999
 20
0.200025
 10
1.075054999999999
 20
0.0
  0
ENDBLK
  5
8B
330
81
100
AcDbEntity
  8
0
100
AcDbBlockEnd
  0
BLOCK
  5
8D
330
8C
100
AcDbEntity
  8
0
100
AcDbBlockBegin
  2
D17
 70
     0
 10
0.0
 20
0.0
 30
0.0
  3
D17
  1

  0
LWPOLYLINE
  5
8E
330
8C
100
AcDbEntity
  8
CHIP_READER_PCB_DARK_GTP
100
AcDbPolyline
 90
        6
 70
     1
 43
0.0
 10
1.075054999999999
 20
0.0
 10
1.075054999999999
 20
-0.200025
 10
-1.075054999999999
 20
-0.200025
 10
-1.075054999999999
 20
0.200025
 10
1.075054999999999
 20
0.200025
 10
1.075054999999999
 20
0.0
  0
ENDBLK
  5
96
330
8C
100
AcDbEntity
  8
0
100
AcDbBlockEnd
  0
BLOCK
  5
98
330
97
100
AcDbEntity
  8
0
100
AcDbBlockBegin
  2
D16
 70
     0
 10
0.0
 20
0.0
 30
0.0
  3
D16
  1

  0
LWPOLYLINE
  5
99
330
97
100
AcDbEntity
  8
CHIP_READER_PCB_DARK_GTP
100
AcDbPolyline
 90
        6
 70
     1
 43
0.0
 10
0.5500370000000001
 20
0.0
 10
0.5500370000000001
 20
-0.8500110000000001
 10
-0.5500370000000001
 20
-0.8500110000000001
 10
-0.5500370000000001
 20
0.8500110000000001
 10
0.5500370000000001
 20
0.8500110000000001
 10
0.5500370000000001
 20
0.0
  0
ENDBLK
  5
A1
330
97
100
AcDbEntity
  8
0
100
AcDbBlockEnd
  0
BLOCK
  5
A3
330
A2
100
AcDbEntity
  8
0
100
AcDbBlockBegin
  2
D15
 70
     0
 10
0.0
 20
0.0
 30
0.0
  3
D15
  1

  0
LWPOLYLINE
  5
A4
330
A2
100
AcDbEntity
  8
CHIP_READER_PCB_DARK_GTP
100
AcDbPolyline
 90
       35
 70
     1
 43
0.0
 10
0.149987
 20
0.9000489999999999
 10
0.147105
 20
0.92931
 10
0.13857
 20
0.9574469999999999
 10
0.12471
 20
0.9833770000000001
 10
0.106057
 20
1.006105999999999
 10
0.083328
 20
1.024758999999999
 10
0.057398
 20
1.038618999999999
 10
0.029261
 20
1.047154
 10
0.0
 20
1.050035999999999
 10
-0.029261
 20
1.047154
 10
-0.057398
 20
1.038618999999999
 10
-0.083328
 20
1.024758999999999
 10
-0.106057
 20
1.006105999999999
 10
-0.12471
 20
0.9833770000000001
 10
-0.13857
 20
0.9574469999999999
 10
-0.147105
 20
0.92931
 10
-0.149987
 20
0.9000489999999999
 10
-0.149987
 20
-0.9000489999999999
 10
-0.147105
 20
-0.92931
 10
-0.13857
 20
-0.9574469999999999
 10
-0.12471
 20
-0.9833770000000001
 10
-0.106057
 20
-1.006105999999999
 10
-0.083328
 20
-1.024758999999999
 10
-0.057398
 20
-1.038618999999999
 10
-0.029261
 20
-1.047154
 10
0.0
 20
-1.050035999999999
 10
0.029261
 20
-1.047154
 10
0.057398
 20
-1.038618999999999
 10
0.083328
 20
-1.024758999999999
 10
0.106057
 20
-1.006105999999999
 10
0.12471
 20
-0.9833770000000001
 10
0.13857
 20
-0.9574469999999999
 10
0.147105
 20
-0.92931
 10
0.149987
 20
-0.9000489999999999
 10
0.149987
 20
0.9000489999999999
  0
ENDBLK
  5
C9
330
A2
100
AcDbEntity
  8
0
100
AcDbBlockEnd
  0
BLOCK
  5
CB
330
CA
100
AcDbEntity
  8
0
100
AcDbBlockBegin
  2
D14
 70
     0
 10
0.0
 20
0.0
 30
0.0
  3
D14
  1

  0
LWPOLYLINE
  5
CC
330
CA
100
AcDbEntity
  8
CHIP_READER_PCB_DARK_GTP
100
AcDbPolyline
 90
       35
 70
     1
 43
0.0
 10
0.9000489999999999
 20
-0.149987
 10
0.92931
 20
-0.147105
 10
0.9574469999999999
 20
-0.13857
 10
0.9833770000000001
 20
-0.12471
 10
1.006105999999999
 20
-0.106057
 10
1.024758999999999
 20
-0.083328
 10
1.038618999999999
 20
-0.057398
 10
1.047154
 20
-0.029261
 10
1.050035999999999
 20
0.0
 10
1.047154
 20
0.029261
 10
1.038618999999999
 20
0.057398
 10
1.024758999999999
 20
0.083328
 10
1.006105999999999
 20
0.106057
 10
0.9833770000000001
 20
0.12471
 10
0.9574469999999999
 20
0.13857
 10
0.92931
 20
0.147105
 10
0.9000489999999999
 20
0.149987
 10
-0.9000489999999999
 20
0.149987
 10
-0.92931
 20
0.147105
 10
-0.9574469999999999
 20
0.13857
 10
-0.9833770000000001
 20
0.12471
 10
-1.006105999999999
 20
0.106057
 10
-1.024758999999999
 20
0.083328
 10
-1.038618999999999
 20
0.057398
 10
-1.047154
 20
0.029261
 10
-1.050035999999999
 20
0.0
 10
-1.047154
 20
-0.029261
 10
-1.038618999999999
 20
-0.057398
 10
-1.024758999999999
 20
-0.083328
 10
-1.006105999999999
 20
-0.106057
 10
-0.9833770000000001
 20
-0.12471
 10
-0.9574469999999999
 20
-0.13857
 10
-0.92931
 20
-0.147105
 10
-0.9000489999999999
 20
-0.149987
 10
0.9000489999999999
 20
-0.149987
  0
ENDBLK
  5
F1
330
CA
100
AcDbEntity
  8
0
100
AcDbBlockEnd
  0
BLOCK
  5
F3
330
F2
100
AcDbEntity
  8
0
100
AcDbBlockBegin
  2
D13
 70
     0
 10
0.0
 20
0.0
 30
0.0
  3
D13
  1

  0
LWPOLYLINE
  5
F4
330
F2
100
AcDbEntity
  8
CHIP_READER_PCB_DARK_GTP
100
AcDbPolyline
 90
        6
 70
     1
 43
0.0
 10
1.099947
 20
0.0
 10
1.099947
 20
-0.750062
 10
-1.099947
 20
-0.750062
 10
-1.099947
 20
0.750062
 10
1.099947
 20
0.750062
 10
1.099947
 20
0.0
  0
ENDBLK
  5
FC
330
F2
100
AcDbEntity
  8
0
100
AcDbBlockEnd
  0
BLOCK
  5
FE
330
FD
100
AcDbEntity
  8
0
100
AcDbBlockBegin
  2
D12
 70
     0
 10
0.0
 20
0.0
 30
0.0
  3
D12
  1

  0
LWPOLYLINE
  5
FF
330
FD
100
AcDbEntity
  8
CHIP_READER_PCB_DARK_GTP
100
AcDbPolyline
 90
       35
 70
     1
 43
0.0
 10
0.499999
 20
-0.324993
 10
0.5634020000000001
 20
-0.318748
 10
0.6243680000000001
 20
-0.300254
 10
0.6805550000000001
 20
-0.270222
 10
0.7298040000000001
 20
-0.229805
 10
0.7702210000000001
 20
-0.180556
 10
0.800253
 20
-0.124369
 10
0.8187469999999999
 20
-0.063403
 10
0.8249920000000001
 20
0.0
 10
0.8187469999999999
 20
0.063403
 10
0.800253
 20
0.124369
 10
0.7702210000000001
 20
0.180556
 10
0.7298040000000001
 20
0.229805
 10
0.6805550000000001
 20
0.270222
 10
0.6243680000000001
 20
0.300254
 10
0.5634020000000001
 20
0.318748
 10
0.499999
 20
0.324993
 10
-0.499999
 20
0.324993
 10
-0.5634020000000001
 20
0.318748
 10
-0.6243680000000001
 20
0.300254
 10
-0.6805550000000001
 20
0.270222
 10
-0.7298040000000001
 20
0.229805
 10
-0.7702210000000001
 20
0.180556
 10
-0.800253
 20
0.124369
 10
-0.8187469999999999
 20
0.063403
 10
-0.8249920000000001
 20
0.0
 10
-0.8187469999999999
 20
-0.063403
 10
-0.800253
 20
-0.124369
 10
-0.7702210000000001
 20
-0.180556
 10
-0.7298040000000001
 20
-0.229805
 10
-0.6805550000000001
 20
-0.270222
 10
-0.6243680000000001
 20
-0.300254
 10
-0.5634020000000001
 20
-0.318748
 10
-0.499999
 20
-0.324993
 10
0.499999
 20
-0.324993
  0
ENDBLK
  5
124
330
FD
100
AcDbEntity
  8
0
100
AcDbBlockEnd
  0
BLOCK
  5
126
330
125
100
AcDbEntity
  8
0
100
AcDbBlockBegin
  2
D11
 70
     0
 10
0.0
 20
0.0
 30
0.0
  3
D11
  1

  0
LWPOLYLINE
  5
127
330
125
100
AcDbEntity
  8
CHIP_READER_PCB_DARK_GTP
100
AcDbPolyline
 90
        6
 70
     1
 43
0.0
 10
0.8500110000000001
 20
0.0
 10
0.8500110000000001
 20
-0.5500370000000001
 10
-0.8500110000000001
 20
-0.5500370000000001
 10
-0.8500110000000001
 20
0.5500370000000001
 10
0.8500110000000001
 20
0.5500370000000001
 10
0.8500110000000001
 20
0.0
  0
ENDBLK
  5
12F
330
125
100
AcDbEntity
  8
0
100
AcDbBlockEnd
  0
BLOCK
  5
131
330
130
100
AcDbEntity
  8
0
100
AcDbBlockBegin
  2
D10
 70
     0
 10
0.0
 20
0.0
 30
0.0
  3
D10
  1

  0
LWPOLYLINE
  5
132
330
130
100
AcDbEntity
  8
CHIP_READER_PCB_DARK_GTP
100
AcDbPolyline
 90
        6
 70
     1
 43
0.0
 10
0.700024
 20
0.0
 10
0.700024
 20
-0.5500370000000001
 10
-0.700024
 20
-0.5500370000000001
 10
-0.700024
 20
0.5500370000000001
 10
0.700024
 20
0.5500370000000001
 10
0.700024
 20
0.0
  0
ENDBLK
  5
13A
330
130
100
AcDbEntity
  8
0
100
AcDbBlockEnd
  0
ENDSEC
  0
SECTION
  2
ENTITIES
  0
INSERT
  5
13B
330
36
100
AcDbEntity
  8
0
100
AcDbBlockReference
  2
D10
 10
75.02601199999999
 20
16.75003
 30
0.0
  0
INSERT
  5
13C
330
36
100
AcDbEntity
  8
0
100
AcDbBlockReference
  2
D10
 10
75.02601199999999
 20
15.249906
 30
0.0
  0
INSERT
  5
13D
330
36
100
AcDbEntity
  8
0
100
AcDbBlockReference
  2
D10
 10
70.52589399999999
 20
16.75003
 30
0.0
  0
INSERT
  5
13E
330
36
100
AcDbEntity
  8
0
100
AcDbBlockReference
  2
D10
 10
70.52589399999999
 20
15.249906
 30
0.0
  0
INSERT
  5
13F
330
36
100
AcDbEntity
  8
0
100
AcDbBlockReference
  2
D10
 10
66.02603000000001
 20
16.75003
 30
0.0
  0
INSERT
  5
140
330
36
100
AcDbEntity
  8
0
100
AcDbBlockReference
  2
D10
 10
66.02603000000001
 20
15.249906
 30
0.0
  0
INSERT
  5
141
330
36
100
AcDbEntity
  8
0
100
AcDbBlockReference
  2
D10
 10
61.52591199999999
 20
16.75003
 30
0.0
  0
INSERT
  5
142
330
36
100
AcDbEntity
  8
0
100
AcDbBlockReference
  2
D10
 10
61.52591199999999
 20
15.249906
 30
0.0
  0
INSERT
  5
143
330
36
100
AcDbEntity
  8
0
100
AcDbBlockReference
  2
D10
 10
57.02604799999999
 20
16.75003
 30
0.0
  0
INSERT
  5
144
330
36
100
AcDbEntity
  8
0
100
AcDbBlockReference
  2
D10
 10
57.02604799999999
 20
15.249906
 30
0.0
  0
INSERT
  5
145
330
36
100
AcDbEntity
  8
0
100
AcDbBlockReference
  2
D10
 10
52.52593
 20
16.75003
 30
0.0
  0
INSERT
  5
146
330
36
100
AcDbEntity
  8
0
100
AcDbBlockReference
  2
D10
 10
52.52593
 20
15.249906
 30
0.0
  0
INSERT
  5
147
330
36
100
AcDbEntity
  8
0
100
AcDbBlockReference
  2
D10
 10
48.026066
 20
16.75003
 30
0.0
  0
INSERT
  5
148
330
36
100
AcDbEntity
  8
0
100
AcDbBlockReference
  2
D10
 10
48.026066
 20
15.249906
 30
0.0
  0
INSERT
  5
149
330
36
100
AcDbEntity
  8
0
100
AcDbBlockReference
  2
D10
 10
43.525948
 20
16.75003
 30
0.0
  0
INSERT
  5
14A
330
36
100
AcDbEntity
  8
0
100
AcDbBlockReference
  2
D10
 10
43.525948
 20
15.249906
 30
0.0
  0
INSERT
  5
14B
330
36
100
AcDbEntity
  8
0
100
AcDbBlockReference
  2
D10
 10
39.026084
 20
16.75003
 30
0.0
  0
INSERT
  5
14C
330
36
100
AcDbEntity
  8
0
100
AcDbBlockReference
  2
D10
 10
39.026084
 20
15.249906
 30
0.0
  0
INSERT
  5
14D
330
36
100
AcDbEntity
  8
0
100
AcDbBlockReference
  2
D10
 10
34.525966
 20
16.75003
 30
0.0
  0
INSERT
  5
14E
330
36
100
AcDbEntity
  8
0
100
AcDbBlockReference
  2
D10
 10
34.525966
 20
15.249906
 30
0.0
  0
INSERT
  5
14F
330
36
100
AcDbEntity
  8
0
100
AcDbBlockReference
  2
D10
 10
30.025848
 20
16.75003
 30
0.0
  0
INSERT
  5
150
330
36
100
AcDbEntity
  8
0
100
AcDbBlockReference
  2
D10
 10
30.025848
 20
15.249906
 30
0.0
  0
INSERT
  5
151
330
36
100
AcDbEntity
  8
0
100
AcDbBlockReference
  2
D10
 10
25.525984
 20
16.75003
 30
0.0
  0
INSERT
  5
152
330
36
100
AcDbEntity
  8
0
100
AcDbBlockReference
  2
D10
 10
25.525984
 20
15.249906
 30
0.0
  0
INSERT
  5
153
330
36
100
AcDbEntity
  8
0
100
AcDbBlockReference
  2
D10
 10
75.02601199999999
 20
21.249894
 30
0.0
  0
INSERT
  5
154
330
36
100
AcDbEntity
  8
0
100
AcDbBlockReference
  2
D10
 10
75.02601199999999
 20
19.750024
 30
0.0
  0
INSERT
  5
155
330
36
100
AcDbEntity
  8
0
100
AcDbBlockReference
  2
D10
 10
70.52589399999999
 20
21.249894
 30
0.0
  0
INSERT
  5
156
330
36
100
AcDbEntity
  8
0
100
AcDbBlockReference
  2
D10
 10
70.52589399999999
 20
19.750024
 30
0.0
  0
INSERT
  5
157
330
36
100
AcDbEntity
  8
0
100
AcDbBlockReference
  2
D10
 10
66.02603000000001
 20
21.249894
 30
0.0
  0
INSERT
  5
158
330
36
100
AcDbEntity
  8
0
100
AcDbBlockReference
  2
D10
 10
66.02603000000001
 20
19.750024
 30
0.0
  0
INSERT
  5
159
330
36
100
AcDbEntity
  8
0
100
AcDbBlockReference
  2
D10
 10
61.52591199999999
 20
21.249894
 30
0.0
  0
INSERT
  5
15A
330
36
100
AcDbEntity
  8
0
100
AcDbBlockReference
  2
D10
 10
61.52591199999999
 20
19.750024
 30
0.0
  0
INSERT
  5
15B
330
36
100
AcDbEntity
  8
0
100
AcDbBlockReference
  2
D10
 10
57.02604799999999
 20
21.249894
 30
0.0
  0
INSERT
  5
15C
330
36
100
AcDbEntity
  8
0
100
AcDbBlockReference
  2
D10
 10
57.02604799999999
 20
19.750024
 30
0.0
  0
INSERT
  5
15D
330
36
100
AcDbEntity
  8
0
100
AcDbBlockReference
  2
D10
 10
52.52593
 20
21.249894
 30
0.0
  0
INSERT
  5
15E
330
36
100
AcDbEntity
  8
0
100
AcDbBlockReference
  2
D10
 10
52.52593
 20
19.750024
 30
0.0
  0
INSERT
  5
15F
330
36
100
AcDbEntity
  8
0
100
AcDbBlockReference
  2
D10
 10
48.026066
 20
21.249894
 30
0.0
  0
INSERT
  5
160
330
36
100
AcDbEntity
  8
0
100
AcDbBlockReference
  2
D10
 10
48.026066
 20
19.750024
 30
0.0
  0
INSERT
  5
161
330
36
100
AcDbEntity
  8
0
100
AcDbBlockReference
  2
D10
 10
43.525948
 20
21.249894
 30
0.0
  0
INSERT
  5
162
330
36
100
AcDbEntity
  8
0
100
AcDbBlockReference
  2
D10
 10
43.525948
 20
19.750024
 30
0.0
  0
INSERT
  5
163
330
36
100
AcDbEntity
  8
0
100
AcDbBlockReference
  2
D10
 10
39.026084
 20
21.249894
 30
0.0
  0
INSERT
  5
164
330
36
100
AcDbEntity
  8
0
100
AcDbBlockReference
  2
D10
 10
39.026084
 20
19.750024
 30
0.0
  0
INSERT
  5
165
330
36
100
AcDbEntity
  8
0
100
AcDbBlockReference
  2
D10
 10
34.525966
 20
21.249894
 30
0.0
  0
INSERT
  5
166
330
36
100
AcDbEntity
  8
0
100
AcDbBlockReference
  2
D10
 10
34.525966
 20
19.750024
 30
0.0
  0
INSERT
  5
167
330
36
100
AcDbEntity
  8
0
100
AcDbBlockReference
  2
D10
 10
30.025848
 20
21.249894
 30
0.0
  0
INSERT
  5
168
330
36
100
AcDbEntity
  8
0
100
AcDbBlockReference
  2
D10
 10
30.025848
 20
19.750024
 30
0.0
  0
INSERT
  5
169
330
36
100
AcDbEntity
  8
0
100
AcDbBlockReference
  2
D10
 10
25.525984
 20
21.249894
 30
0.0
  0
INSERT
  5
16A
330
36
100
AcDbEntity
  8
0
100
AcDbBlockReference
  2
D10
 10
25.525984
 20
19.750024
 30
0.0
  0
INSERT
  5
16B
330
36
100
AcDbEntity
  8
0
100
AcDbBlockReference
  2
D10
 10
75.02601199999999
 20
25.750012
 30
0.0
  0
INSERT
  5
16C
330
36
100
AcDbEntity
  8
0
100
AcDbBlockReference
  2
D10
 10
75.02601199999999
 20
24.250142
 30
0.0
  0
INSERT
  5
16D
330
36
100
AcDbEntity
  8
0
100
AcDbBlockReference
  2
D10
 10
70.52589399999999
 20
25.750012
 30
0.0
  0
INSERT
  5
16E
330
36
100
AcDbEntity
  8
0
100
AcDbBlockReference
  2
D10
 10
70.52589399999999
 20
24.250142
 30
0.0
  0
INSERT
  5
16F
330
36
100
AcDbEntity
  8
0
100
AcDbBlockReference
  2
D10
 10
66.02603000000001
 20
25.750012
 30
0.0
  0
INSERT
  5
170
330
36
100
AcDbEntity
  8
0
100
AcDbBlockReference
  2
D10
 10
66.02603000000001
 20
24.250142
 30
0.0
  0
INSERT
  5
171
330
36
100
AcDbEntity
  8
0
100
AcDbBlockReference
  2
D10
 10
61.52591199999999
 20
25.750012
 30
0.0
  0
INSERT
  5
172
330
36
100
AcDbEntity
  8
0
100
AcDbBlockReference
  2
D10
 10
61.52591199999999
 20
24.250142
 30
0.0
  0
INSERT
  5
173
330
36
100
AcDbEntity
  8
0
100
AcDbBlockReference
  2
D10
 10
57.02604799999999
 20
25.750012
 30
0.0
  0
INSERT
  5
174
330
36
100
AcDbEntity
  8
0
100
AcDbBlockReference
  2
D10
 10
57.02604799999999
 20
24.250142
 30
0.0
  0
INSERT
  5
175
330
36
100
AcDbEntity
  8
0
100
AcDbBlockReference
  2
D10
 10
52.52593
 20
25.750012
 30
0.0
  0
INSERT
  5
176
330
36
100
AcDbEntity
  8
0
100
AcDbBlockReference
  2
D10
 10
52.52593
 20
24.250142
 30
0.0
  0
INSERT
  5
177
330
36
100
AcDbEntity
  8
0
100
AcDbBlockReference
  2
D10
 10
48.026066
 20
25.750012
 30
0.0
  0
INSERT
  5
178
330
36
100
AcDbEntity
  8
0
100
AcDbBlockReference
  2
D10
 10
48.026066
 20
24.250142
 30
0.0
  0
INSERT
  5
179
330
36
100
AcDbEntity
  8
0
100
AcDbBlockReference
  2
D10
 10
43.525948
 20
25.750012
 30
0.0
  0
INSERT
  5
17A
330
36
100
AcDbEntity
  8
0
100
AcDbBlockReference
  2
D10
 10
43.525948
 20
24.250142
 30
0.0
  0
INSERT
  5
17B
330
36
100
AcDbEntity
  8
0
100
AcDbBlockReference
  2
D10
 10
39.026084
 20
25.750012
 30
0.0
  0
INSERT
  5
17C
330
36
100
AcDbEntity
  8
0
100
AcDbBlockReference
  2
D10
 10
39.026084
 20
24.250142
 30
0.0
  0
INSERT
  5
17D
330
36
100
AcDbEntity
  8
0
100
AcDbBlockReference
  2
D10
 10
34.525966
 20
25.750012
 30
0.0
  0
INSERT
  5
17E
330
36
100
AcDbEntity
  8
0
100
AcDbBlockReference
  2
D10
 10
34.525966
 20
24.250142
 30
0.0
  0
INSERT
  5
17F
330
36
100
AcDbEntity
  8
0
100
AcDbBlockReference
  2
D10
 10
30.025848
 20
25.750012
 30
0.0
  0
INSERT
  5
180
330
36
100
AcDbEntity
  8
0
100
AcDbBlockReference
  2
D10
 10
30.025848
 20
24.250142
 30
0.0
  0
INSERT
  5
181
330
36
100
AcDbEntity
  8
0
100
AcDbBlockReference
  2
D10
 10
25.525984
 20
25.750012
 30
0.0
  0
INSERT
  5
182
330
36
100
AcDbEntity
  8
0
100
AcDbBlockReference
  2
D10
 10
25.525984
 20
24.250142
 30
0.0
  0
INSERT
  5
183
330
36
100
AcDbEntity
  8
0
100
AcDbBlockReference
  2
D10
 10
75.02601199999999
 20
30.25013
 30
0.0
  0
INSERT
  5
184
330
36
100
AcDbEntity
  8
0
100
AcDbBlockReference
  2
D10
 10
75.02601199999999
 20
28.750006
 30
0.0
  0
INSERT
  5
185
330
36
100
AcDbEntity
  8
0
100
AcDbBlockReference
  2
D10
 10
70.52589399999999
 20
30.25013
 30
0.0
  0
INSERT
  5
186
330
36
100
AcDbEntity
  8
0
100
AcDbBlockReference
  2
D10
 10
70.52589399999999
 20
28.750006
 30
0.0
  0
INSERT
  5
187
330
36
100
AcDbEntity
  8
0
100
AcDbBlockReference
  2
D10
 10
66.02603000000001
 20
30.25013
 30
0.0
  0
INSERT
  5
188
330
36
100
AcDbEntity
  8
0
100
AcDbBlockReference
  2
D10
 10
66.02603000000001
 20
28.750006
 30
0.0
  0
INSERT
  5
189
330
36
100
AcDbEntity
  8
0
100
AcDbBlockReference
  2
D10
 10
61.52591199999999
 20
30.25013
 30
0.0
  0
INSERT
  5
18A
330
36
100
AcDbEntity
  8
0
100
AcDbBlockReference
  2
D10
 10
61.52591199999999
 20
28.750006
 30
0.0
  0
INSERT
  5
18B
330
36
100
AcDbEntity
  8
0
100
AcDbBlockReference
  2
D10
 10
57.02604799999999
 20
30.25013
 30
0.0
  0
INSERT
  5
18C
330
36
100
AcDbEntity
  8
0
100
AcDbBlockReference
  2
D10
 10
57.02604799999999
 20
28.750006
 30
0.0
  0
INSERT
  5
18D
330
36
100
AcDbEntity
  8
0
100
AcDbBlockReference
  2
D10
 10
52.52593
 20
30.25013
 30
0.0
  0
INSERT
  5
18E
330
36
100
AcDbEntity
  8
0
100
AcDbBlockReference
  2
D10
 10
52.52593
 20
28.750006
 30
0.0
  0
INSERT
  5
18F
330
36
100
AcDbEntity
  8
0
100
AcDbBlockReference
  2
D10
 10
48.026066
 20
30.25013
 30
0.0
  0
INSERT
  5
190
330
36
100
AcDbEntity
  8
0
100
AcDbBlockReference
  2
D10
 10
48.026066
 20
28.750006
 30
0.0
  0
INSERT
  5
191
330
36
100
AcDbEntity
  8
0
100
AcDbBlockReference
  2
D10
 10
43.525948
 20
30.25013
 30
0.0
  0
INSERT
  5
192
330
36
100
AcDbEntity
  8
0
100
AcDbBlockReference
  2
D10
 10
43.525948
 20
28.750006
 30
0.0
  0
INSERT
  5
193
330
36
100
AcDbEntity
  8
0
100
AcDbBlockReference
  2
D10
 10
39.026084
 20
30.25013
 30
0.0
  0
INSERT
  5
194
330
36
100
AcDbEntity
  8
0
100
AcDbBlockReference
  2
D10
 10
39.026084
 20
28.750006
 30
0.0
  0
INSERT
  5
195
330
36
100
AcDbEntity
  8
0
100
AcDbBlockReference
  2
D10
 10
34.525966
 20
30.25013
 30
0.0
  0
INSERT
  5
196
330
36
100
AcDbEntity
  8
0
100
AcDbBlockReference
  2
D10
 10
34.525966
 20
28.750006
 30
0.0
  0
INSERT
  5
197
330
36
100
AcDbEntity
  8
0
100
AcDbBlockReference
  2
D10
 10
30.025848
 20
30.25013
 30
0.0
  0
INSERT
  5
198
330
36
100
AcDbEntity
  8
0
100
AcDbBlockReference
  2
D10
 10
30.025848
 20
28.750006
 30
0.0
  0
INSERT
  5
199
330
36
100
AcDbEntity
  8
0
100
AcDbBlockReference
  2
D10
 10
25.525984
 20
30.25013
 30
0.0
  0
INSERT
  5
19A
330
36
100
AcDbEntity
  8
0
100
AcDbBlockReference
  2
D10
 10
25.525984
 20
28.750006
 30
0.0
  0
INSERT
  5
19B
330
36
100
AcDbEntity
  8
0
100
AcDbBlockReference
  2
D10
 10
75.02601199999999
 20
34.749994
 30
0.0
  0
INSERT
  5
19C
330
36
100
AcDbEntity
  8
0
100
AcDbBlockReference
  2
D10
 10
75.02601199999999
 20
33.24987
 30
0.0
  0
INSERT
  5
19D
330
36
100
AcDbEntity
  8
0
100
AcDbBlockReference
  2
D10
 10
70.52589399999999
 20
34.749994
 30
0.0
  0
INSERT
  5
19E
330
36
100
AcDbEntity
  8
0
100
AcDbBlockReference
  2
D10
 10
70.52589399999999
 20
33.24987
 30
0.0
  0
INSERT
  5
19F
330
36
100
AcDbEntity
  8
0
100
AcDbBlockReference
  2
D10
 10
66.02603000000001
 20
34.749994
 30
0.0
  0
INSERT
  5
1A0
330
36
100
AcDbEntity
  8
0
100
AcDbBlockReference
  2
D10
 10
66.02603000000001
 20
33.24987
 30
0.0
  0
INSERT
  5
1A1
330
36
100
AcDbEntity
  8
0
100
AcDbBlockReference
  2
D10
 10
61.52591199999999
 20
34.749994
 30
0.0
  0
INSERT
  5
1A2
330
36
100
AcDbEntity
  8
0
100
AcDbBlockReference
  2
D10
 10
61.52591199999999
 20
33.24987
 30
0.0
  0
INSERT
  5
1A3
330
36
100
AcDbEntity
  8
0
100
AcDbBlockReference
  2
D10
 10
57.02604799999999
 20
34.749994
 30
0.0
  0
INSERT
  5
1A4
330
36
100
AcDbEntity
  8
0
100
AcDbBlockReference
  2
D10
 10
57.02604799999999
 20
33.24987
 30
0.0
  0
INSERT
  5
1A5
330
36
100
AcDbEntity
  8
0
100
AcDbBlockReference
  2
D10
 10
52.52593
 20
34.749994
 30
0.0
  0
INSERT
  5
1A6
330
36
100
AcDbEntity
  8
0
100
AcDbBlockReference
  2
D10
 10
52.52593
 20
33.24987
 30
0.0
  0
INSERT
  5
1A7
330
36
100
AcDbEntity
  8
0
100
AcDbBlockReference
  2
D10
 10
48.026066
 20
34.749994
 30
0.0
  0
INSERT
  5
1A8
330
36
100
AcDbEntity
  8
0
100
AcDbBlockReference
  2
D10
 10
48.026066
 20
33.24987
 30
0.0
  0
INSERT
  5
1A9
330
36
100
AcDbEntity
  8
0
100
AcDbBlockReference
  2
D10
 10
43.525948
 20
34.749994
 30
0.0
  0
INSERT
  5
1AA
330
36
100
AcDbEntity
  8
0
100
AcDbBlockReference
  2
D10
 10
43.525948
 20
33.24987
 30
0.0
  0
INSERT
  5
1AB
330
36
100
AcDbEntity
  8
0
100
AcDbBlockReference
  2
D10
 10
39.026084
 20
34.749994
 30
0.0
  0
INSERT
  5
1AC
330
36
100
AcDbEntity
  8
0
100
AcDbBlockReference
  2
D10
 10
39.026084
 20
33.24987
 30
0.0
  0
INSERT
  5
1AD
330
36
100
AcDbEntity
  8
0
100
AcDbBlockReference
  2
D10
 10
34.525966
 20
34.749994
 30
0.0
  0
INSERT
  5
1AE
330
36
100
AcDbEntity
  8
0
100
AcDbBlockReference
  2
D10
 10
34.525966
 20
33.24987
 30
0.0
  0
INSERT
  5
1AF
330
36
100
AcDbEntity
  8
0
100
AcDbBlockReference
  2
D10
 10
30.025848
 20
34.749994
 30
0.0
  0
INSERT
  5
1B0
330
36
100
AcDbEntity
  8
0
100
AcDbBlockReference
  2
D10
 10
30.025848
 20
33.24987
 30
0.0
  0
INSERT
  5
1B1
330
36
100
AcDbEntity
  8
0
100
AcDbBlockReference
  2
D10
 10
25.525984
 20
34.749994
 30
0.0
  0
INSERT
  5
1B2
330
36
100
AcDbEntity
  8
0
100
AcDbBlockReference
  2
D10
 10
25.525984
 20
33.24987
 30
0.0
  0
INSERT
  5
1B3
330
36
100
AcDbEntity
  8
0
100
AcDbBlockReference
  2
D10
 10
75.02601199999999
 20
39.250112
 30
0.0
  0
INSERT
  5
1B4
330
36
100
AcDbEntity
  8
0
100
AcDbBlockReference
  2
D10
 10
75.02601199999999
 20
37.749988
 30
0.0
  0
INSERT
  5
1B5
330
36
100
AcDbEntity
  8
0
100
AcDbBlockReference
  2
D10
 10
70.52589399999999
 20
39.250112
 30
0.0
  0
INSERT
  5
1B6
330
36
100
AcDbEntity
  8
0
100
AcDbBlockReference
  2
D10
 10
70.52589399999999
 20
37.749988
 30
0.0
  0
INSERT
  5
1B7
330
36
100
AcDbEntity
  8
0
100
AcDbBlockReference
  2
D10
 10
66.02603000000001
 20
39.250112
 30
0.0
  0
INSERT
  5
1B8
330
36
100
AcDbEntity
  8
0
100
AcDbBlockReference
  2
D10
 10
66.02603000000001
 20
37.749988
 30
0.0
  0
INSERT
  5
1B9
330
36
100
AcDbEntity
  8
0
100
AcDbBlockReference
  2
D10
 10
61.52591199999999
 20
39.250112
 30
0.0
  0
INSERT
  5
1BA
330
36
100
AcDbEntity
  8
0
100
AcDbBlockReference
  2
D10
 10
61.52591199999999
 20
37.749988
 30
0.0
  0
INSERT
  5
1BB
330
36
100
AcDbEntity
  8
0
100
AcDbBlockReference
  2
D10
 10
57.02604799999999
 20
39.250112
 30
0.0
  0
INSERT
  5
1BC
330
36
100
AcDbEntity
  8
0
100
AcDbBlockReference
  2
D10
 10
57.02604799999999
 20
37.749988
 30
0.0
  0
INSERT
  5
1BD
330
36
100
AcDbEntity
  8
0
100
AcDbBlockReference
  2
D10
 10
52.52593
 20
39.250112
 30
0.0
  0
INSERT
  5
1BE
330
36
100
AcDbEntity
  8
0
100
AcDbBlockReference
  2
D10
 10
52.52593
 20
37.749988
 30
0.0
  0
INSERT
  5
1BF
330
36
100
AcDbEntity
  8
0
100
AcDbBlockReference
  2
D10
 10
48.026066
 20
39.250112
 30
0.0
  0
INSERT
  5
1C0
330
36
100
AcDbEntity
  8
0
100
AcDbBlockReference
  2
D10
 10
48.026066
 20
37.749988
 30
0.0
  0
INSERT
  5
1C1
330
36
100
AcDbEntity
  8
0
100
AcDbBlockReference
  2
D10
 10
43.525948
 20
39.250112
 30
0.0
  0
INSERT
  5
1C2
330
36
100
AcDbEntity
  8
0
100
AcDbBlockReference
  2
D10
 10
43.525948
 20
37.749988
 30
0.0
  0
INSERT
  5
1C3
330
36
100
AcDbEntity
  8
0
100
AcDbBlockReference
  2
D10
 10
39.026084
 20
39.250112
 30
0.0
  0
INSERT
  5
1C4
330
36
100
AcDbEntity
  8
0
100
AcDbBlockReference
  2
D10
 10
39.026084
 20
37.749988
 30
0.0
  0
INSERT
  5
1C5
330
36
100
AcDbEntity
  8
0
100
AcDbBlockReference
  2
D10
 10
34.525966
 20
39.250112
 30
0.0
  0
INSERT
  5
1C6
330
36
100
AcDbEntity
  8
0
100
AcDbBlockReference
  2
D10
 10
34.525966
 20
37.749988
 30
0.0
  0
INSERT
  5
1C7
330
36
100
AcDbEntity
  8
0
100
AcDbBlockReference
  2
D10
 10
30.025848
 20
39.250112
 30
0.0
  0
INSERT
  5
1C8
330
36
100
AcDbEntity
  8
0
100
AcDbBlockReference
  2
D10
 10
30.025848
 20
37.749988
 30
0.0
  0
INSERT
  5
1C9
330
36
100
AcDbEntity
  8
0
100
AcDbBlockReference
  2
D10
 10
25.525984
 20
39.250112
 30
0.0
  0
INSERT
  5
1CA
330
36
100
AcDbEntity
  8
0
100
AcDbBlockReference
  2
D10
 10
25.525984
 20
37.749988
 30
0.0
  0
INSERT
  5
1CB
330
36
100
AcDbEntity
  8
0
100
AcDbBlockReference
  2
D10
 10
75.02601199999999
 20
43.749976
 30
0.0
  0
INSERT
  5
1CC
330
36
100
AcDbEntity
  8
0
100
AcDbBlockReference
  2
D10
 10
75.02601199999999
 20
42.250106
 30
0.0
  0
INSERT
  5
1CD
330
36
100
AcDbEntity
  8
0
100
AcDbBlockReference
  2
D10
 10
70.52589399999999
 20
43.749976
 30
0.0
  0
INSERT
  5
1CE
330
36
100
AcDbEntity
  8
0
100
AcDbBlockReference
  2
D10
 10
70.52589399999999
 20
42.250106
 30
0.0
  0
INSERT
  5
1CF
330
36
100
AcDbEntity
  8
0
100
AcDbBlockReference
  2
D10
 10
66.02603000000001
 20
43.749976
 30
0.0
  0
INSERT
  5
1D0
330
36
100
AcDbEntity
  8
0
100
AcDbBlockReference
  2
D10
 10
66.02603000000001
 20
42.250106
 30
0.0
  0
INSERT
  5
1D1
330
36
100
AcDbEntity
  8
0
100
AcDbBlockReference
  2
D10
 10
61.52591199999999
 20
43.749976
 30
0.0
  0
INSERT
  5
1D2
330
36
100
AcDbEntity
  8
0
100
AcDbBlockReference
  2
D10
 10
61.52591199999999
 20
42.250106
 30
0.0
  0
INSERT
  5
1D3
330
36
100
AcDbEntity
  8
0
100
AcDbBlockReference
  2
D10
 10
57.02604799999999
 20
43.749976
 30
0.0
  0
INSERT
  5
1D4
330
36
100
AcDbEntity
  8
0
100
AcDbBlockReference
  2
D10
 10
57.02604799999999
 20
42.250106
 30
0.0
  0
INSERT
  5
1D5
330
36
100
AcDbEntity
  8
0
100
AcDbBlockReference
  2
D10
 10
52.52593
 20
43.749976
 30
0.0
  0
INSERT
  5
1D6
330
36
100
AcDbEntity
  8
0
100
AcDbBlockReference
  2
D10
 10
52.52593
 20
42.250106
 30
0.0
  0
INSERT
  5
1D7
330
36
100
AcDbEntity
  8
0
100
AcDbBlockReference
  2
D10
 10
48.026066
 20
43.749976
 30
0.0
  0
INSERT
  5
1D8
330
36
100
AcDbEntity
  8
0
100
AcDbBlockReference
  2
D10
 10
48.026066
 20
42.250106
 30
0.0
  0
INSERT
  5
1D9
330
36
100
AcDbEntity
  8
0
100
AcDbBlockReference
  2
D10
 10
43.525948
 20
43.749976
 30
0.0
  0
INSERT
  5
1DA
330
36
100
AcDbEntity
  8
0
100
AcDbBlockReference
  2
D10
 10
43.525948
 20
42.250106
 30
0.0
  0
INSERT
  5
1DB
330
36
100
AcDbEntity
  8
0
100
AcDbBlockReference
  2
D10
 10
39.026084
 20
43.749976
 30
0.0
  0
INSERT
  5
1DC
330
36
100
AcDbEntity
  8
0
100
AcDbBlockReference
  2
D10
 10
39.026084
 20
42.250106
 30
0.0
  0
INSERT
  5
1DD
330
36
100
AcDbEntity
  8
0
100
AcDbBlockReference
  2
D10
 10
34.525966
 20
43.749976
 30
0.0
  0
INSERT
  5
1DE
330
36
100
AcDbEntity
  8
0
100
AcDbBlockReference
  2
D10
 10
34.525966
 20
42.250106
 30
0.0
  0
INSERT
  5
1DF
330
36
100
AcDbEntity
  8
0
100
AcDbBlockReference
  2
D10
 10
30.025848
 20
43.749976
 30
0.0
  0
INSERT
  5
1E0
330
36
100
AcDbEntity
  8
0
100
AcDbBlockReference
  2
D10
 10
30.025848
 20
42.250106
 30
0.0
  0
INSERT
  5
1E1
330
36
100
AcDbEntity
  8
0
100
AcDbBlockReference
  2
D10
 10
25.525984
 20
43.749976
 30
0.0
  0
INSERT
  5
1E2
330
36
100
AcDbEntity
  8
0
100
AcDbBlockReference
  2
D10
 10
25.525984
 20
42.250106
 30
0.0
  0
INSERT
  5
1E3
330
36
100
AcDbEntity
  8
0
100
AcDbBlockReference
  2
D10
 10
75.02601199999999
 20
48.25009399999999
 30
0.0
  0
INSERT
  5
1E4
330
36
100
AcDbEntity
  8
0
100
AcDbBlockReference
  2
D10
 10
75.02601199999999
 20
46.74997
 30
0.0
  0
INSERT
  5
1E5
330
36
100
AcDbEntity
  8
0
100
AcDbBlockReference
  2
D10
 10
70.52589399999999
 20
48.25009399999999
 30
0.0
  0
INSERT
  5
1E6
330
36
100
AcDbEntity
  8
0
100
AcDbBlockReference
  2
D10
 10
70.52589399999999
 20
46.74997
 30
0.0
  0
INSERT
  5
1E7
330
36
100
AcDbEntity
  8
0
100
AcDbBlockReference
  2
D10
 10
66.02603000000001
 20
48.25009399999999
 30
0.0
  0
INSERT
  5
1E8
330
36
100
AcDbEntity
  8
0
100
AcDbBlockReference
  2
D10
 10
66.02603000000001
 20
46.74997
 30
0.0
  0
INSERT
  5
1E9
330
36
100
AcDbEntity
  8
0
100
AcDbBlockReference
  2
D10
 10
61.52591199999999
 20
48.25009399999999
 30
0.0
  0
INSERT
  5
1EA
330
36
100
AcDbEntity
  8
0
100
AcDbBlockReference
  2
D10
 10
61.52591199999999
 20
46.74997
 30
0.0
  0
INSERT
  5
1EB
330
36
100
AcDbEntity
  8
0
100
AcDbBlockReference
  2
D10
 10
57.02604799999999
 20
48.25009399999999
 30
0.0
  0
INSERT
  5
1EC
330
36
100
AcDbEntity
  8
0
100
AcDbBlockReference
  2
D10
 10
57.02604799999999
 20
46.74997
 30
0.0
  0
INSERT
  5
1ED
330
36
100
AcDbEntity
  8
0
100
AcDbBlockReference
  2
D10
 10
52.52593
 20
48.25009399999999
 30
0.0
  0
INSERT
  5
1EE
330
36
100
AcDbEntity
  8
0
100
AcDbBlockReference
  2
D10
 10
52.52593
 20
46.74997
 30
0.0
  0
INSERT
  5
1EF
330
36
100
AcDbEntity
  8
0
100
AcDbBlockReference
  2
D10
 10
48.026066
 20
48.25009399999999
 30
0.0
  0
INSERT
  5
1F0
330
36
100
AcDbEntity
  8
0
100
AcDbBlockReference
  2
D10
 10
48.026066
 20
46.74997
 30
0.0
  0
INSERT
  5
1F1
330
36
100
AcDbEntity
  8
0
100
AcDbBlockReference
  2
D10
 10
43.525948
 20
48.25009399999999
 30
0.0
  0
INSERT
  5
1F2
330
36
100
AcDbEntity
  8
0
100
AcDbBlockReference
  2
D10
 10
43.525948
 20
46.74997
 30
0.0
  0
INSERT
  5
1F3
330
36
100
AcDbEntity
  8
0
100
AcDbBlockReference
  2
D10
 10
39.026084
 20
48.25009399999999
 30
0.0
  0
INSERT
  5
1F4
330
36
100
AcDbEntity
  8
0
100
AcDbBlockReference
  2
D10
 10
39.026084
 20
46.74997
 30
0.0
  0
INSERT
  5
1F5
330
36
100
AcDbEntity
  8
0
100
AcDbBlockReference
  2
D10
 10
34.525966
 20
48.25009399999999
 30
0.0
  0
INSERT
  5
1F6
330
36
100
AcDbEntity
  8
0
100
AcDbBlockReference
  2
D10
 10
34.525966
 20
46.74997
 30
0.0
  0
INSERT
  5
1F7
330
36
100
AcDbEntity
  8
0
100
AcDbBlockReference
  2
D10
 10
30.025848
 20
48.25009399999999
 30
0.0
  0
INSERT
  5
1F8
330
36
100
AcDbEntity
  8
0
100
AcDbBlockReference
  2
D10
 10
30.025848
 20
46.74997
 30
0.0
  0
INSERT
  5
1F9
330
36
100
AcDbEntity
  8
0
100
AcDbBlockReference
  2
D10
 10
25.525984
 20
48.25009399999999
 30
0.0
  0
INSERT
  5
1FA
330
36
100
AcDbEntity
  8
0
100
AcDbBlockReference
  2
D10
 10
25.525984
 20
46.74997
 30
0.0
  0
INSERT
  5
1FB
330
36
100
AcDbEntity
  8
0
100
AcDbBlockReference
  2
D11
 10
125.800104
 20
27.649932
 30
0.0
  0
INSERT
  5
1FC
330
36
100
AcDbEntity
  8
0
100
AcDbBlockReference
  2
D11
 10
125.800104
 20
30.349952
 30
0.0
  0
INSERT
  5
1FD
330
36
100
AcDbEntity
  8
0
100
AcDbBlockReference
  2
D11
 10
139.100052
 20
14.349984
 30
0.0
  0
INSERT
  5
1FE
330
36
100
AcDbEntity
  8
0
100
AcDbBlockReference
  2
D11
 10
139.100052
 20
17.050004
 30
0.0
  0
INSERT
  5
1FF
330
36
100
AcDbEntity
  8
0
100
AcDbBlockReference
  2
D11
 10
143.100044
 20
49.349914
 30
0.0
  0
INSERT
  5
200
330
36
100
AcDbEntity
  8
0
100
AcDbBlockReference
  2
D11
 10
143.100044
 20
46.649894
 30
0.0
  0
INSERT
  5
201
330
36
100
AcDbEntity
  8
0
100
AcDbBlockReference
  2
D11
 10
120.10009
 20
48.64989
 30
0.0
  0
INSERT
  5
202
330
36
100
AcDbEntity
  8
0
100
AcDbBlockReference
  2
D11
 10
120.10009
 20
51.34990999999999
 30
0.0
  0
INSERT
  5
203
330
36
100
AcDbEntity
  8
0
100
AcDbBlockReference
  2
D11
 10
124.100082
 20
51.34990999999999
 30
0.0
  0
INSERT
  5
204
330
36
100
AcDbEntity
  8
0
100
AcDbBlockReference
  2
D11
 10
124.100082
 20
48.64989
 30
0.0
  0
INSERT
  5
205
330
36
100
AcDbEntity
  8
0
100
AcDbBlockReference
  2
D11
 10
125.10008
 20
14.349984
 30
0.0
  0
INSERT
  5
206
330
36
100
AcDbEntity
  8
0
100
AcDbBlockReference
  2
D11
 10
125.10008
 20
17.050004
 30
0.0
  0
INSERT
  5
207
330
36
100
AcDbEntity
  8
0
100
AcDbBlockReference
  2
D11
 10
135.10006
 20
14.349984
 30
0.0
  0
INSERT
  5
208
330
36
100
AcDbEntity
  8
0
100
AcDbBlockReference
  2
D11
 10
135.10006
 20
17.050004
 30
0.0
  0
INSERT
  5
209
330
36
100
AcDbEntity
  8
0
100
AcDbBlockReference
  2
D11
 10
147.100036
 20
49.349914
 30
0.0
  0
INSERT
  5
20A
330
36
100
AcDbEntity
  8
0
100
AcDbBlockReference
  2
D11
 10
147.100036
 20
46.649894
 30
0.0
  0
INSERT
  5
20B
330
36
100
AcDbEntity
  8
0
100
AcDbBlockReference
  2
D11
 10
125.800104
 20
32.749998
 30
0.0
  0
INSERT
  5
20C
330
36
100
AcDbEntity
  8
0
100
AcDbBlockReference
  2
D11
 10
125.800104
 20
35.450018
 30
0.0
  0
INSERT
  5
20D
330
36
100
AcDbEntity
  8
0
100
AcDbBlockReference
  2
D12
 10
141.699996
 20
29.100018
 30
0.0
  0
INSERT
  5
20E
330
36
100
AcDbEntity
  8
0
100
AcDbBlockReference
  2
D12
 10
141.699996
 20
26.560018
 30
0.0
  0
INSERT
  5
20F
330
36
100
AcDbEntity
  8
0
100
AcDbBlockReference
  2
D12
 10
141.699996
 20
24.020018
 30
0.0
  0
INSERT
  5
210
330
36
100
AcDbEntity
  8
0
100
AcDbBlockReference
  2
D12
 10
132.80009
 20
23.919942
 30
0.0
  0
INSERT
  5
211
330
36
100
AcDbEntity
  8
0
100
AcDbBlockReference
  2
D12
 10
132.80009
 20
26.459942
 30
0.0
  0
INSERT
  5
212
330
36
100
AcDbEntity
  8
0
100
AcDbBlockReference
  2
D12
 10
132.80009
 20
28.999942
 30
0.0
  0
INSERT
  5
213
330
36
100
AcDbEntity
  8
0
100
AcDbBlockReference
  2
D13
 10
141.19987
 20
36.500054
 30
0.0
  0
INSERT
  5
214
330
36
100
AcDbEntity
  8
0
100
AcDbBlockReference
  2
D13
 10
141.100048
 20
41.99991599999999
 30
0.0
  0
INSERT
  5
215
330
36
100
AcDbEntity
  8
0
100
AcDbBlockReference
  2
D13
 10
119.000016
 20
14.800072
 30
0.0
  0
INSERT
  5
216
330
36
100
AcDbEntity
  8
0
100
AcDbBlockReference
  2
D13
 10
119.100092
 20
9.299955999999999
 30
0.0
  0
INSERT
  5
217
330
36
100
AcDbEntity
  8
0
100
AcDbBlockReference
  2
D14
 10
104.176068
 20
28.24988
 30
0.0
  0
INSERT
  5
218
330
36
100
AcDbEntity
  8
0
100
AcDbBlockReference
  2
D14
 10
104.176068
 20
28.750006
 30
0.0
  0
INSERT
  5
219
330
36
100
AcDbEntity
  8
0
100
AcDbBlockReference
  2
D14
 10
104.176068
 20
29.249878
 30
0.0
  0
INSERT
  5
21A
330
36
100
AcDbEntity
  8
0
100
AcDbBlockReference
  2
D14
 10
104.176068
 20
29.750004
 30
0.0
  0
INSERT
  5
21B
330
36
100
AcDbEntity
  8
0
100
AcDbBlockReference
  2
D14
 10
104.176068
 20
30.249876
 30
0.0
  0
INSERT
  5
21C
330
36
100
AcDbEntity
  8
0
100
AcDbBlockReference
  2
D14
 10
104.176068
 20
30.750002
 30
0.0
  0
INSERT
  5
21D
330
36
100
AcDbEntity
  8
0
100
AcDbBlockReference
  2
D14
 10
104.176068
 20
31.249874
 30
0.0
  0
INSERT
  5
21E
330
36
100
AcDbEntity
  8
0
100
AcDbBlockReference
  2
D14
 10
104.176068
 20
31.75
 30
0.0
  0
INSERT
  5
21F
330
36
100
AcDbEntity
  8
0
100
AcDbBlockReference
  2
D14
 10
104.176068
 20
32.249872
 30
0.0
  0
INSERT
  5
220
330
36
100
AcDbEntity
  8
0
100
AcDbBlockReference
  2
D14
 10
104.176068
 20
32.749998
 30
0.0
  0
INSERT
  5
221
330
36
100
AcDbEntity
  8
0
100
AcDbBlockReference
  2
D14
 10
104.176068
 20
33.24987
 30
0.0
  0
INSERT
  5
222
330
36
100
AcDbEntity
  8
0
100
AcDbBlockReference
  2
D14
 10
104.176068
 20
33.74999600000001
 30
0.0
  0
INSERT
  5
223
330
36
100
AcDbEntity
  8
0
100
AcDbBlockReference
  2
D14
 10
95.975932
 20
33.74999600000001
 30
0.0
  0
INSERT
  5
224
330
36
100
AcDbEntity
  8
0
100
AcDbBlockReference
  2
D14
 10
95.975932
 20
33.24987
 30
0.0
  0
INSERT
  5
225
330
36
100
AcDbEntity
  8
0
100
AcDbBlockReference
  2
D14
 10
95.975932
 20
32.749998
 30
0.0
  0
INSERT
  5
226
330
36
100
AcDbEntity
  8
0
100
AcDbBlockReference
  2
D14
 10
95.975932
 20
32.249872
 30
0.0
  0
INSERT
  5
227
330
36
100
AcDbEntity
  8
0
100
AcDbBlockReference
  2
D14
 10
95.975932
 20
31.75
 30
0.0
  0
INSERT
  5
228
330
36
100
AcDbEntity
  8
0
100
AcDbBlockReference
  2
D14
 10
95.975932
 20
31.249874
 30
0.0
  0
INSERT
  5
229
330
36
100
AcDbEntity
  8
0
100
AcDbBlockReference
  2
D14
 10
95.975932
 20
30.750002
 30
0.0
  0
INSERT
  5
22A
330
36
100
AcDbEntity
  8
0
100
AcDbBlockReference
  2
D14
 10
95.975932
 20
30.249876
 30
0.0
  0
INSERT
  5
22B
330
36
100
AcDbEntity
  8
0
100
AcDbBlockReference
  2
D14
 10
95.975932
 20
29.750004
 30
0.0
  0
INSERT
  5
22C
330
36
100
AcDbEntity
  8
0
100
AcDbBlockReference
  2
D14
 10
95.975932
 20
29.249878
 30
0.0
  0
INSERT
  5
22D
330
36
100
AcDbEntity
  8
0
100
AcDbBlockReference
  2
D14
 10
95.975932
 20
28.750006
 30
0.0
  0
INSERT
  5
22E
330
36
100
AcDbEntity
  8
0
100
AcDbBlockReference
  2
D14
 10
95.975932
 20
28.24988
 30
0.0
  0
INSERT
  5
22F
330
36
100
AcDbEntity
  8
0
100
AcDbBlockReference
  2
D14
 10
104.176068
 20
8.249919999999999
 30
0.0
  0
INSERT
  5
230
330
36
100
AcDbEntity
  8
0
100
AcDbBlockReference
  2
D14
 10
104.176068
 20
8.750046000000001
 30
0.0
  0
INSERT
  5
231
330
36
100
AcDbEntity
  8
0
100
AcDbBlockReference
  2
D14
 10
104.176068
 20
9.249917999999999
 30
0.0
  0
INSERT
  5
232
330
36
100
AcDbEntity
  8
0
100
AcDbBlockReference
  2
D14
 10
104.176068
 20
9.750044
 30
0.0
  0
INSERT
  5
233
330
36
100
AcDbEntity
  8
0
100
AcDbBlockReference
  2
D14
 10
104.176068
 20
10.249916
 30
0.0
  0
INSERT
  5
234
330
36
100
AcDbEntity
  8
0
100
AcDbBlockReference
  2
D14
 10
104.176068
 20
10.750042
 30
0.0
  0
INSERT
  5
235
330
36
100
AcDbEntity
  8
0
100
AcDbBlockReference
  2
D14
 10
104.176068
 20
11.249914
 30
0.0
  0
INSERT
  5
236
330
36
100
AcDbEntity
  8
0
100
AcDbBlockReference
  2
D14
 10
104.176068
 20
11.75004
 30
0.0
  0
INSERT
  5
237
330
36
100
AcDbEntity
  8
0
100
AcDbBlockReference
  2
D14
 10
104.176068
 20
12.249912
 30
0.0
  0
INSERT
  5
238
330
36
100
AcDbEntity
  8
0
100
AcDbBlockReference
  2
D14
 10
104.176068
 20
12.750038
 30
0.0
  0
INSERT
  5
239
330
36
100
AcDbEntity
  8
0
100
AcDbBlockReference
  2
D14
 10
104.176068
 20
13.24991
 30
0.0
  0
INSERT
  5
23A
330
36
100
AcDbEntity
  8
0
100
AcDbBlockReference
  2
D14
 10
104.176068
 20
13.750036
 30
0.0
  0
INSERT
  5
23B
330
36
100
AcDbEntity
  8
0
100
AcDbBlockReference
  2
D14
 10
95.975932
 20
13.750036
 30
0.0
  0
INSERT
  5
23C
330
36
100
AcDbEntity
  8
0
100
AcDbBlockReference
  2
D14
 10
95.975932
 20
13.24991
 30
0.0
  0
INSERT
  5
23D
330
36
100
AcDbEntity
  8
0
100
AcDbBlockReference
  2
D14
 10
95.975932
 20
12.750038
 30
0.0
  0
INSERT
  5
23E
330
36
100
AcDbEntity
  8
0
100
AcDbBlockReference
  2
D14
 10
95.975932
 20
12.249912
 30
0.0
  0
INSERT
  5
23F
330
36
100
AcDbEntity
  8
0
100
AcDbBlockReference
  2
D14
 10
95.975932
 20
11.75004
 30
0.0
  0
INSERT
  5
240
330
36
100
AcDbEntity
  8
0
100
AcDbBlockReference
  2
D14
 10
95.975932
 20
11.249914
 30
0.0
  0
INSERT
  5
241
330
36
100
AcDbEntity
  8
0
100
AcDbBlockReference
  2
D14
 10
95.975932
 20
10.750042
 30
0.0
  0
INSERT
  5
242
330
36
100
AcDbEntity
  8
0
100
AcDbBlockReference
  2
D14
 10
95.975932
 20
10.249916
 30
0.0
  0
INSERT
  5
243
330
36
100
AcDbEntity
  8
0
100
AcDbBlockReference
  2
D14
 10
95.975932
 20
9.750044
 30
0.0
  0
INSERT
  5
244
330
36
100
AcDbEntity
  8
0
100
AcDbBlockReference
  2
D14
 10
95.975932
 20
9.249917999999999
 30
0.0
  0
INSERT
  5
245
330
36
100
AcDbEntity
  8
0
100
AcDbBlockReference
  2
D14
 10
95.975932
 20
8.750046000000001
 30
0.0
  0
INSERT
  5
246
330
36
100
AcDbEntity
  8
0
100
AcDbBlockReference
  2
D14
 10
95.975932
 20
8.249919999999999
 30
0.0
  0
INSERT
  5
247
330
36
100
AcDbEntity
  8
0
100
AcDbBlockReference
  2
D14
 10
95.975932
 20
47.25009599999999
 30
0.0
  0
INSERT
  5
248
330
36
100
AcDbEntity
  8
0
100
AcDbBlockReference
  2
D14
 10
95.975932
 20
47.749968
 30
0.0
  0
INSERT
  5
249
330
36
100
AcDbEntity
  8
0
100
AcDbBlockReference
  2
D14
 10
95.975932
 20
48.25009399999999
 30
0.0
  0
INSERT
  5
24A
330
36
100
AcDbEntity
  8
0
100
AcDbBlockReference
  2
D14
 10
95.975932
 20
48.749966
 30
0.0
  0
INSERT
  5
24B
330
36
100
AcDbEntity
  8
0
100
AcDbBlockReference
  2
D14
 10
95.975932
 20
49.25009199999999
 30
0.0
  0
INSERT
  5
24C
330
36
100
AcDbEntity
  8
0
100
AcDbBlockReference
  2
D14
 10
95.975932
 20
49.749964
 30
0.0
  0
INSERT
  5
24D
330
36
100
AcDbEntity
  8
0
100
AcDbBlockReference
  2
D14
 10
95.975932
 20
50.25009
 30
0.0
  0
INSERT
  5
24E
330
36
100
AcDbEntity
  8
0
100
AcDbBlockReference
  2
D14
 10
95.975932
 20
50.749962
 30
0.0
  0
INSERT
  5
24F
330
36
100
AcDbEntity
  8
0
100
AcDbBlockReference
  2
D14
 10
95.975932
 20
51.25008799999999
 30
0.0
  0
INSERT
  5
250
330
36
100
AcDbEntity
  8
0
100
AcDbBlockReference
  2
D14
 10
95.975932
 20
51.74996
 30
0.0
  0
INSERT
  5
251
330
36
100
AcDbEntity
  8
0
100
AcDbBlockReference
  2
D14
 10
95.975932
 20
52.25008599999999
 30
0.0
  0
INSERT
  5
252
330
36
100
AcDbEntity
  8
0
100
AcDbBlockReference
  2
D14
 10
95.975932
 20
52.74995799999999
 30
0.0
  0
INSERT
  5
253
330
36
100
AcDbEntity
  8
0
100
AcDbBlockReference
  2
D14
 10
104.176068
 20
52.74995799999999
 30
0.0
  0
INSERT
  5
254
330
36
100
AcDbEntity
  8
0
100
AcDbBlockReference
  2
D14
 10
104.176068
 20
52.25008599999999
 30
0.0
  0
INSERT
  5
255
330
36
100
AcDbEntity
  8
0
100
AcDbBlockReference
  2
D14
 10
104.176068
 20
51.74996
 30
0.0
  0
INSERT
  5
256
330
36
100
AcDbEntity
  8
0
100
AcDbBlockReference
  2
D14
 10
104.176068
 20
51.25008799999999
 30
0.0
  0
INSERT
  5
257
330
36
100
AcDbEntity
  8
0
100
AcDbBlockReference
  2
D14
 10
104.176068
 20
50.749962
 30
0.0
  0
INSERT
  5
258
330
36
100
AcDbEntity
  8
0
100
AcDbBlockReference
  2
D14
 10
104.176068
 20
50.25009
 30
0.0
  0
INSERT
  5
259
330
36
100
AcDbEntity
  8
0
100
AcDbBlockReference
  2
D14
 10
104.176068
 20
49.749964
 30
0.0
  0
INSERT
  5
25A
330
36
100
AcDbEntity
  8
0
100
AcDbBlockReference
  2
D14
 10
104.176068
 20
49.25009199999999
 30
0.0
  0
INSERT
  5
25B
330
36
100
AcDbEntity
  8
0
100
AcDbBlockReference
  2
D14
 10
104.176068
 20
48.749966
 30
0.0
  0
INSERT
  5
25C
330
36
100
AcDbEntity
  8
0
100
AcDbBlockReference
  2
D14
 10
104.176068
 20
48.25009399999999
 30
0.0
  0
INSERT
  5
25D
330
36
100
AcDbEntity
  8
0
100
AcDbBlockReference
  2
D14
 10
104.176068
 20
47.749968
 30
0.0
  0
INSERT
  5
25E
330
36
100
AcDbEntity
  8
0
100
AcDbBlockReference
  2
D14
 10
104.176068
 20
47.25009599999999
 30
0.0
  0
INSERT
  5
25F
330
36
100
AcDbEntity
  8
0
100
AcDbBlockReference
  2
D15
 10
102.826058
 20
35.100006
 30
0.0
  0
INSERT
  5
260
330
36
100
AcDbEntity
  8
0
100
AcDbBlockReference
  2
D15
 10
102.325932
 20
35.100006
 30
0.0
  0
INSERT
  5
261
330
36
100
AcDbEntity
  8
0
100
AcDbBlockReference
  2
D15
 10
101.82606
 20
35.100006
 30
0.0
  0
INSERT
  5
262
330
36
100
AcDbEntity
  8
0
100
AcDbBlockReference
  2
D15
 10
101.325934
 20
35.100006
 30
0.0
  0
INSERT
  5
263
330
36
100
AcDbEntity
  8
0
100
AcDbBlockReference
  2
D15
 10
100.826062
 20
35.100006
 30
0.0
  0
INSERT
  5
264
330
36
100
AcDbEntity
  8
0
100
AcDbBlockReference
  2
D15
 10
100.325936
 20
35.100006
 30
0.0
  0
INSERT
  5
265
330
36
100
AcDbEntity
  8
0
100
AcDbBlockReference
  2
D15
 10
99.82606400000001
 20
35.100006
 30
0.0
  0
INSERT
  5
266
330
36
100
AcDbEntity
  8
0
100
AcDbBlockReference
  2
D15
 10
99.32593799999999
 20
35.100006
 30
0.0
  0
INSERT
  5
267
330
36
100
AcDbEntity
  8
0
100
AcDbBlockReference
  2
D15
 10
98.825812
 20
35.100006
 30
0.0
  0
INSERT
  5
268
330
36
100
AcDbEntity
  8
0
100
AcDbBlockReference
  2
D15
 10
98.32594
 20
35.100006
 30
0.0
  0
INSERT
  5
269
330
36
100
AcDbEntity
  8
0
100
AcDbBlockReference
  2
D15
 10
97.82606800000001
 20
35.100006
 30
0.0
  0
INSERT
  5
26A
330
36
100
AcDbEntity
  8
0
100
AcDbBlockReference
  2
D15
 10
97.32594200000001
 20
35.100006
 30
0.0
  0
INSERT
  5
26B
330
36
100
AcDbEntity
  8
0
100
AcDbBlockReference
  2
D15
 10
97.32594200000001
 20
26.89987
 30
0.0
  0
INSERT
  5
26C
330
36
100
AcDbEntity
  8
0
100
AcDbBlockReference
  2
D15
 10
97.82606800000001
 20
26.89987
 30
0.0
  0
INSERT
  5
26D
330
36
100
AcDbEntity
  8
0
100
AcDbBlockReference
  2
D15
 10
98.32594
 20
26.89987
 30
0.0
  0
INSERT
  5
26E
330
36
100
AcDbEntity
  8
0
100
AcDbBlockReference
  2
D15
 10
98.825812
 20
26.89987
 30
0.0
  0
INSERT
  5
26F
330
36
100
AcDbEntity
  8
0
100
AcDbBlockReference
  2
D15
 10
99.32593799999999
 20
26.89987
 30
0.0
  0
INSERT
  5
270
330
36
100
AcDbEntity
  8
0
100
AcDbBlockReference
  2
D15
 10
99.82606400000001
 20
26.89987
 30
0.0
  0
INSERT
  5
271
330
36
100
AcDbEntity
  8
0
100
AcDbBlockReference
  2
D15
 10
100.325936
 20
26.89987
 30
0.0
  0
INSERT
  5
272
330
36
100
AcDbEntity
  8
0
100
AcDbBlockReference
  2
D15
 10
100.826062
 20
26.89987
 30
0.0
  0
INSERT
  5
273
330
36
100
AcDbEntity
  8
0
100
AcDbBlockReference
  2
D15
 10
101.325934
 20
26.89987
 30
0.0
  0
INSERT
  5
274
330
36
100
AcDbEntity
  8
0
100
AcDbBlockReference
  2
D15
 10
101.82606
 20
26.89987
 30
0.0
  0
INSERT
  5
275
330
36
100
AcDbEntity
  8
0
100
AcDbBlockReference
  2
D15
 10
102.325932
 20
26.89987
 30
0.0
  0
INSERT
  5
276
330
36
100
AcDbEntity
  8
0
100
AcDbBlockReference
  2
D15
 10
102.826058
 20
26.89987
 30
0.0
  0
INSERT
  5
277
330
36
100
AcDbEntity
  8
0
100
AcDbBlockReference
  2
D15
 10
102.826058
 20
15.100046
 30
0.0
  0
INSERT
  5
278
330
36
100
AcDbEntity
  8
0
100
AcDbBlockReference
  2
D15
 10
102.325932
 20
15.100046
 30
0.0
  0
INSERT
  5
279
330
36
100
AcDbEntity
  8
0
100
AcDbBlockReference
  2
D15
 10
101.82606
 20
15.100046
 30
0.0
  0
INSERT
  5
27A
330
36
100
AcDbEntity
  8
0
100
AcDbBlockReference
  2
D15
 10
101.325934
 20
15.100046
 30
0.0
  0
INSERT
  5
27B
330
36
100
AcDbEntity
  8
0
100
AcDbBlockReference
  2
D15
 10
100.826062
 20
15.100046
 30
0.0
  0
INSERT
  5
27C
330
36
100
AcDbEntity
  8
0
100
AcDbBlockReference
  2
D15
 10
100.325936
 20
15.100046
 30
0.0
  0
INSERT
  5
27D
330
36
100
AcDbEntity
  8
0
100
AcDbBlockReference
  2
D15
 10
99.82606400000001
 20
15.100046
 30
0.0
  0
INSERT
  5
27E
330
36
100
AcDbEntity
  8
0
100
AcDbBlockReference
  2
D15
 10
99.32593799999999
 20
15.100046
 30
0.0
  0
INSERT
  5
27F
330
36
100
AcDbEntity
  8
0
100
AcDbBlockReference
  2
D15
 10
98.826066
 20
15.100046
 30
0.0
  0
INSERT
  5
280
330
36
100
AcDbEntity
  8
0
100
AcDbBlockReference
  2
D15
 10
98.32594
 20
15.100046
 30
0.0
  0
INSERT
  5
281
330
36
100
AcDbEntity
  8
0
100
AcDbBlockReference
  2
D15
 10
97.82606800000001
 20
15.100046
 30
0.0
  0
INSERT
  5
282
330
36
100
AcDbEntity
  8
0
100
AcDbBlockReference
  2
D15
 10
97.32594200000001
 20
15.100046
 30
0.0
  0
INSERT
  5
283
330
36
100
AcDbEntity
  8
0
100
AcDbBlockReference
  2
D15
 10
97.32594200000001
 20
6.89991
 30
0.0
  0
INSERT
  5
284
330
36
100
AcDbEntity
  8
0
100
AcDbBlockReference
  2
D15
 10
97.82606800000001
 20
6.89991
 30
0.0
  0
INSERT
  5
285
330
36
100
AcDbEntity
  8
0
100
AcDbBlockReference
  2
D15
 10
98.32594
 20
6.89991
 30
0.0
  0
INSERT
  5
286
330
36
100
AcDbEntity
  8
0
100
AcDbBlockReference
  2
D15
 10
98.826066
 20
6.89991
 30
0.0
  0
INSERT
  5
287
330
36
100
AcDbEntity
  8
0
100
AcDbBlockReference
  2
D15
 10
99.32593799999999
 20
6.89991
 30
0.0
  0
INSERT
  5
288
330
36
100
AcDbEntity
  8
0
100
AcDbBlockReference
  2
D15
 10
99.82606400000001
 20
6.89991
 30
0.0
  0
INSERT
  5
289
330
36
100
AcDbEntity
  8
0
100
AcDbBlockReference
  2
D15
 10
100.325936
 20
6.89991
 30
0.0
  0
INSERT
  5
28A
330
36
100
AcDbEntity
  8
0
100
AcDbBlockReference
  2
D15
 10
100.826062
 20
6.89991
 30
0.0
  0
INSERT
  5
28B
330
36
100
AcDbEntity
  8
0
100
AcDbBlockReference
  2
D15
 10
101.325934
 20
6.89991
 30
0.0
  0
INSERT
  5
28C
330
36
100
AcDbEntity
  8
0
100
AcDbBlockReference
  2
D15
 10
101.82606
 20
6.89991
 30
0.0
  0
INSERT
  5
28D
330
36
100
AcDbEntity
  8
0
100
AcDbBlockReference
  2
D15
 10
102.325932
 20
6.89991
 30
0.0
  0
INSERT
  5
28E
330
36
100
AcDbEntity
  8
0
100
AcDbBlockReference
  2
D15
 10
102.826058
 20
6.89991
 30
0.0
  0
INSERT
  5
28F
330
36
100
AcDbEntity
  8
0
100
AcDbBlockReference
  2
D15
 10
102.825804
 20
45.90008599999999
 30
0.0
  0
INSERT
  5
290
330
36
100
AcDbEntity
  8
0
100
AcDbBlockReference
  2
D15
 10
102.325932
 20
45.90008599999999
 30
0.0
  0
INSERT
  5
291
330
36
100
AcDbEntity
  8
0
100
AcDbBlockReference
  2
D15
 10
101.82606
 20
45.90008599999999
 30
0.0
  0
INSERT
  5
292
330
36
100
AcDbEntity
  8
0
100
AcDbBlockReference
  2
D15
 10
101.325934
 20
45.90008599999999
 30
0.0
  0
INSERT
  5
293
330
36
100
AcDbEntity
  8
0
100
AcDbBlockReference
  2
D15
 10
100.826062
 20
45.90008599999999
 30
0.0
  0
INSERT
  5
294
330
36
100
AcDbEntity
  8
0
100
AcDbBlockReference
  2
D15
 10
100.325936
 20
45.90008599999999
 30
0.0
  0
INSERT
  5
295
330
36
100
AcDbEntity
  8
0
100
AcDbBlockReference
  2
D15
 10
99.82606400000001
 20
45.90008599999999
 30
0.0
  0
INSERT
  5
296
330
36
100
AcDbEntity
  8
0
100
AcDbBlockReference
  2
D15
 10
99.32593799999999
 20
45.90008599999999
 30
0.0
  0
INSERT
  5
297
330
36
100
AcDbEntity
  8
0
100
AcDbBlockReference
  2
D15
 10
98.825812
 20
45.90008599999999
 30
0.0
  0
INSERT
  5
298
330
36
100
AcDbEntity
  8
0
100
AcDbBlockReference
  2
D15
 10
98.32594
 20
45.90008599999999
 30
0.0
  0
INSERT
  5
299
330
36
100
AcDbEntity
  8
0
100
AcDbBlockReference
  2
D15
 10
97.82606800000001
 20
45.90008599999999
 30
0.0
  0
INSERT
  5
29A
330
36
100
AcDbEntity
  8
0
100
AcDbBlockReference
  2
D15
 10
97.32594200000001
 20
45.90008599999999
 30
0.0
  0
INSERT
  5
29B
330
36
100
AcDbEntity
  8
0
100
AcDbBlockReference
  2
D15
 10
97.32594200000001
 20
54.099968
 30
0.0
  0
INSERT
  5
29C
330
36
100
AcDbEntity
  8
0
100
AcDbBlockReference
  2
D15
 10
97.82606800000001
 20
54.099968
 30
0.0
  0
INSERT
  5
29D
330
36
100
AcDbEntity
  8
0
100
AcDbBlockReference
  2
D15
 10
98.32594
 20
54.099968
 30
0.0
  0
INSERT
  5
29E
330
36
100
AcDbEntity
  8
0
100
AcDbBlockReference
  2
D15
 10
98.825812
 20
54.099968
 30
0.0
  0
INSERT
  5
29F
330
36
100
AcDbEntity
  8
0
100
AcDbBlockReference
  2
D15
 10
99.32593799999999
 20
54.099968
 30
0.0
  0
INSERT
  5
2A0
330
36
100
AcDbEntity
  8
0
100
AcDbBlockReference
  2
D15
 10
99.82606400000001
 20
54.099968
 30
0.0
  0
INSERT
  5
2A1
330
36
100
AcDbEntity
  8
0
100
AcDbBlockReference
  2
D15
 10
100.325936
 20
54.099968
 30
0.0
  0
INSERT
  5
2A2
330
36
100
AcDbEntity
  8
0
100
AcDbBlockReference
  2
D15
 10
100.826062
 20
54.099968
 30
0.0
  0
INSERT
  5
2A3
330
36
100
AcDbEntity
  8
0
100
AcDbBlockReference
  2
D15
 10
101.325934
 20
54.099968
 30
0.0
  0
INSERT
  5
2A4
330
36
100
AcDbEntity
  8
0
100
AcDbBlockReference
  2
D15
 10
101.82606
 20
54.099968
 30
0.0
  0
INSERT
  5
2A5
330
36
100
AcDbEntity
  8
0
100
AcDbBlockReference
  2
D15
 10
102.325932
 20
54.099968
 30
0.0
  0
INSERT
  5
2A6
330
36
100
AcDbEntity
  8
0
100
AcDbBlockReference
  2
D15
 10
102.825804
 20
54.099968
 30
0.0
  0
INSERT
  5
2A7
330
36
100
AcDbEntity
  8
0
100
AcDbBlockReference
  2
D16
 10
139.750038
 20
53.999892
 30
0.0
  0
INSERT
  5
2A8
330
36
100
AcDbEntity
  8
0
100
AcDbBlockReference
  2
D16
 10
142.450058
 20
53.999892
 30
0.0
  0
INSERT
  5
2A9
330
36
100
AcDbEntity
  8
0
100
AcDbBlockReference
  2
D16
 10
127.750062
 20
53.999892
 30
0.0
  0
INSERT
  5
2AA
330
36
100
AcDbEntity
  8
0
100
AcDbBlockReference
  2
D16
 10
130.450082
 20
53.999892
 30
0.0
  0
INSERT
  5
2AB
330
36
100
AcDbEntity
  8
0
100
AcDbBlockReference
  2
D16
 10
119.13997
 20
21.340064
 30
0.0
  0
INSERT
  5
2AC
330
36
100
AcDbEntity
  8
0
100
AcDbBlockReference
  2
D16
 10
121.83999
 20
21.340064
 30
0.0
  0
INSERT
  5
2AD
330
36
100
AcDbEntity
  8
0
100
AcDbBlockReference
  2
D16
 10
121.83999
 20
24.340058
 30
0.0
  0
INSERT
  5
2AE
330
36
100
AcDbEntity
  8
0
100
AcDbBlockReference
  2
D16
 10
119.13997
 20
24.340058
 30
0.0
  0
INSERT
  5
2AF
330
36
100
AcDbEntity
  8
0
100
AcDbBlockReference
  2
D16
 10
121.83999
 20
32.340042
 30
0.0
  0
INSERT
  5
2B0
330
36
100
AcDbEntity
  8
0
100
AcDbBlockReference
  2
D16
 10
119.13997
 20
32.340042
 30
0.0
  0
INSERT
  5
2B1
330
36
100
AcDbEntity
  8
0
100
AcDbBlockReference
  2
D16
 10
121.83999
 20
36.340034
 30
0.0
  0
INSERT
  5
2B2
330
36
100
AcDbEntity
  8
0
100
AcDbBlockReference
  2
D16
 10
119.13997
 20
36.340034
 30
0.0
  0
INSERT
  5
2B3
330
36
100
AcDbEntity
  8
0
100
AcDbBlockReference
  2
D16
 10
119.750078
 20
40.999918
 30
0.0
  0
INSERT
  5
2B4
330
36
100
AcDbEntity
  8
0
100
AcDbBlockReference
  2
D16
 10
122.450098
 20
40.999918
 30
0.0
  0
INSERT
  5
2B5
330
36
100
AcDbEntity
  8
0
100
AcDbBlockReference
  2
D16
 10
136.45007
 20
53.999892
 30
0.0
  0
INSERT
  5
2B6
330
36
100
AcDbEntity
  8
0
100
AcDbBlockReference
  2
D16
 10
133.75005
 20
53.999892
 30
0.0
  0
INSERT
  5
2B7
330
36
100
AcDbEntity
  8
0
100
AcDbBlockReference
  2
D16
 10
119.750078
 20
43.999912
 30
0.0
  0
INSERT
  5
2B8
330
36
100
AcDbEntity
  8
0
100
AcDbBlockReference
  2
D16
 10
122.450098
 20
43.999912
 30
0.0
  0
INSERT
  5
2B9
330
36
100
AcDbEntity
  8
0
100
AcDbBlockReference
  2
D16
 10
128.75006
 20
9.700006
 30
0.0
  0
INSERT
  5
2BA
330
36
100
AcDbEntity
  8
0
100
AcDbBlockReference
  2
D16
 10
131.45008
 20
9.700006
 30
0.0
  0
INSERT
  5
2BB
330
36
100
AcDbEntity
  8
0
100
AcDbBlockReference
  2
D17
 10
130.765042
 20
48.73498
 30
0.0
  0
INSERT
  5
2BC
330
36
100
AcDbEntity
  8
0
100
AcDbBlockReference
  2
D18
 10
130.765042
 20
48.084994
 30
0.0
  0
INSERT
  5
2BD
330
36
100
AcDbEntity
  8
0
100
AcDbBlockReference
  2
D18
 10
130.765042
 20
47.435008
 30
0.0
  0
INSERT
  5
2BE
330
36
100
AcDbEntity
  8
0
100
AcDbBlockReference
  2
D18
 10
130.765042
 20
46.78502199999999
 30
0.0
  0
INSERT
  5
2BF
330
36
100
AcDbEntity
  8
0
100
AcDbBlockReference
  2
D18
 10
137.3149399999999
 20
48.73498
 30
0.0
  0
INSERT
  5
2C0
330
36
100
AcDbEntity
  8
0
100
AcDbBlockReference
  2
D18
 10
137.3149399999999
 20
48.084994
 30
0.0
  0
INSERT
  5
2C1
330
36
100
AcDbEntity
  8
0
100
AcDbBlockReference
  2
D18
 10
137.3149399999999
 20
47.435008
 30
0.0
  0
INSERT
  5
2C2
330
36
100
AcDbEntity
  8
0
100
AcDbBlockReference
  2
D18
 10
137.3149399999999
 20
46.78502199999999
 30
0.0
  0
INSERT
  5
2C3
330
36
100
AcDbEntity
  8
0
100
AcDbBlockReference
  2
D19
 10
46.95012199999999
 20
61.00013199999999
 30
0.0
  0
INSERT
  5
2C4
330
36
100
AcDbEntity
  8
0
100
AcDbBlockReference
  2
D19
 10
43.85005200000001
 20
61.00013199999999
 30
0.0
  0
INSERT
  5
2C5
330
36
100
AcDbEntity
  8
0
100
AcDbBlockReference
  2
D20
 10
121.564908
 20
27.39009
 30
0.0
  0
INSERT
  5
2C6
330
36
100
AcDbEntity
  8
0
100
AcDbBlockReference
  2
D21
 10
121.564908
 20
28.34005
 30
0.0
  0
INSERT
  5
2C7
330
36
100
AcDbEntity
  8
0
100
AcDbBlockReference
  2
D21
 10
121.564908
 20
29.29001
 30
0.0
  0
INSERT
  5
2C8
330
36
100
AcDbEntity
  8
0
100
AcDbBlockReference
  2
D21
 10
119.415052
 20
29.29001
 30
0.0
  0
INSERT
  5
2C9
330
36
100
AcDbEntity
  8
0
100
AcDbBlockReference
  2
D21
 10
119.415052
 20
27.39009
 30
0.0
  0
INSERT
  5
2CA
330
36
100
AcDbEntity
  8
0
100
AcDbBlockReference
  2
D22
 10
131.174998
 20
42.999914
 30
0.0
  0
INSERT
  5
2CB
330
36
100
AcDbEntity
  8
0
100
AcDbBlockReference
  2
D22
 10
127.024892
 20
42.999914
 30
0.0
  0
INSERT
  5
2CC
330
36
100
AcDbEntity
  8
0
100
AcDbBlockReference
  2
D23
 10
128.150112
 20
14.625066
 30
0.0
  0
INSERT
  5
2CD
330
36
100
AcDbEntity
  8
0
100
AcDbBlockReference
  2
D24
 10
129.1000719999999
 20
14.625066
 30
0.0
  0
INSERT
  5
2CE
330
36
100
AcDbEntity
  8
0
100
AcDbBlockReference
  2
D24
 10
130.050032
 20
14.625066
 30
0.0
  0
INSERT
  5
2CF
330
36
100
AcDbEntity
  8
0
100
AcDbBlockReference
  2
D24
 10
130.050032
 20
16.774922
 30
0.0
  0
INSERT
  5
2D0
330
36
100
AcDbEntity
  8
0
100
AcDbBlockReference
  2
D24
 10
129.1000719999999
 20
16.774922
 30
0.0
  0
INSERT
  5
2D1
330
36
100
AcDbEntity
  8
0
100
AcDbBlockReference
  2
D24
 10
128.150112
 20
16.774922
 30
0.0
  0
ENDSEC
  0
SECTION
  2
OBJECTS
  0
DICTIONARY
  5
C
330
0
100
AcDbDictionary
281
     1
  3
ACAD_COLOR
350
2F
  3
ACAD_GROUP
350
D
  3
ACAD_LAYOUT
350
2E
  3
ACAD_MATERIAL
350
10
  3
ACAD_MLINESTYLE
350
2B
  3
ACAD_PLOTSETTINGS
350
2D
  3
ACAD_PLOTSTYLENAME
350
E
  3
ACAD_TABLESTYLE
350
30
  3
ACAD_VISUALSTYLE
350
14
  3
AcDbVariableDictionary
350
2D7
  3
DWGPROPS
350
2DC
  0
DICTIONARY
  5
2D4
330
2
100
AcDbDictionary
280
     1
281
     1
  3
ACAD_LAYERFILTERS
360
2D6
  3
ACLYDICTIONARY
360
2D5
  0
DICTIONARY
  5
2F
102
{ACAD_REACTORS
330
C
102
}
330
C
100
AcDbDictionary
281
     1
  0
DICTIONARY
  5
D
102
{ACAD_REACTORS
330
C
102
}
330
C
100
AcDbDictionary
281
     1
  0
DICTIONARY
  5
2E
102
{ACAD_REACTORS
330
C
102
}
330
C
100
AcDbDictionary
281
     1
  3
Layout1
350
35
  3
Model
350
39
  0
DICTIONARY
  5
10
102
{ACAD_REACTORS
330
C
102
}
330
C
100
AcDbDictionary
281
     1
  3
ByBlock
350
12
  3
ByLayer
350
11
  3
Global
350
13
  0
DICTIONARY
  5
2B
102
{ACAD_REACTORS
330
C
102
}
330
C
100
AcDbDictionary
281
     1
  3
Standard
350
2C
  0
DICTIONARY
  5
2D
102
{ACAD_REACTORS
330
C
102
}
330
C
100
AcDbDictionary
281
     1
  0
ACDBDICTIONARYWDFLT
  5
E
102
{ACAD_REACTORS
330
C
102
}
330
C
100
AcDbDictionary
281
     1
  3
Normal
350
F
100
AcDbDictionaryWithDefault
340
F
  0
DICTIONARY
  5
30
102
{ACAD_REACTORS
330
C
102
}
330
C
100
AcDbDictionary
281
     1
  3
Standard
350
31
  0
DICTIONARY
  5
14
102
{ACAD_REACTORS
330
C
102
}
330
C
100
AcDbDictionary
281
     1
  3
2dWireframe
350
1A
  3
3D Hidden
350
1C
  3
3dWireframe
350
1B
  3
Basic
350
19
  3
Brighten
350
20
  3
ColorChange
350
24
  3
Conceptual
350
1D
  3
Dim
350
1F
  3
Facepattern
350
23
  3
Flat
350
15
  3
FlatWithEdges
350
16
  3
Gouraud
350
17
  3
GouraudWithEdges
350
18
  3
Linepattern
350
22
  3
Realistic
350
1E
  3
Thicken
350
21
  0
DICTIONARY
  5
2D7
102
{ACAD_REACTORS
330
C
102
}
330
C
100
AcDbDictionary
281
     1
  3
CTABLESTYLE
350
2D8
  3
DIMASSOC
350
2DB
  3
INDEXCTL
350
2DA
  3
SORTENTS
350
2D9
  0
XRECORD
  5
2DC
102
{ACAD_REACTORS
330
C
102
}
330
C
100
AcDbXrecord
280
     1
  1
DWGPROPS COOKIE
  2

  3

  4

  6

  7

  8
Frankie
  9

300
=
301
=
302
=
303
=
304
=
305
=
306
=
307
=
308
=
309
=
 40
0.0004667939814815
 41
2455713.904126829
 42
2455713.904593345
  1

 90
        0
  0
DICTIONARY
  5
2D6
102
{ACAD_REACTORS
330
2D4
102
}
330
2D4
100
AcDbDictionary
281
     1
  0
DICTIONARY
  5
2D5
102
{ACAD_REACTORS
330
2D4
102
}
330
2D4
100
AcDbDictionary
281
     1
1001
ACAD
1000
<All
  0
LAYOUT
  5
35
102
{ACAD_XDICTIONARY
360
2E5
102
}
102
{ACAD_REACTORS
330
2E
102
}
330
2E
100
AcDbPlotSettings
  1

  2
Microsoft XPS Document Writer
  4

  6

 40
0.0
 41
0.0
 42
0.0
 43
0.0
 44
0.0
 45
0.0
 46
0.0
 47
0.0
 48
0.0
 49
0.0
140
0.0
141
0.0
142
1.0
143
1.0
 70
   688
 72
     0
 73
     0
 74
     5
  7

 75
    16
147
1.0
148
0.0
149
0.0
100
AcDbLayout
  1
Layout1
 70
     1
 71
     1
 10
0.0
 20
0.0
 11
12.0
 21
9.0
 12
0.0
 22
0.0
 32
0.0
 14
1.000000000000000E+20
 24
1.000000000000000E+20
 34
1.000000000000000E+20
 15
-1.000000000000000E+20
 25
-1.000000000000000E+20
 35
-1.000000000000000E+20
146
0.0
 13
0.0
 23
0.0
 33
0.0
 16
1.0
 26
0.0
 36
0.0
 17
0.0
 27
1.0
 37
0.0
 76
     0
330
32
  0
LAYOUT
  5
39
102
{ACAD_XDICTIONARY
360
2E7
102
}
102
{ACAD_REACTORS
330
2E
102
}
330
2E
100
AcDbPlotSettings
  1

  2
Microsoft XPS Document Writer
  4

  6

 40
0.0
 41
0.0
 42
0.0
 43
0.0
 44
0.0
 45
0.0
 46
0.0
 47
0.0
 48
0.0
 49
0.0
140
0.0
141
0.0
142
1.0
143
1.0
 70
  1712
 72
     0
 73
     0
 74
     0
  7

 75
     0
147
1.0
148
0.0
149
0.0
100
AcDbLayout
  1
Model
 70
     1
 71
     0
 10
0.0
 20
0.0
 11
12.0
 21
9.0
 12
0.0
 22
0.0
 32
0.0
 14
0.0
 24
0.0
 34
0.0
 15
0.0
 25
0.0
 35
0.0
146
0.0
 13
0.0
 23
0.0
 33
0.0
 16
1.0
 26
0.0
 36
0.0
 17
0.0
 27
1.0
 37
0.0
 76
     0
330
36
331
3A
  0
MATERIAL
  5
12
102
{ACAD_XDICTIONARY
360
2DF
102
}
102
{ACAD_REACTORS
330
10
102
}
330
10
100
AcDbMaterial
  1
ByBlock
  0
MATERIAL
  5
11
102
{ACAD_XDICTIONARY
360
2DD
102
}
102
{ACAD_REACTORS
330
10
102
}
330
10
100
AcDbMaterial
  1
ByLayer
  0
MATERIAL
  5
13
102
{ACAD_XDICTIONARY
360
2E1
102
}
102
{ACAD_REACTORS
330
10
102
}
330
10
100
AcDbMaterial
  1
Global
  0
MLINESTYLE
  5
2C
102
{ACAD_REACTORS
330
2B
102
}
330
2B
100
AcDbMlineStyle
  2
STANDARD
 70
     0
  3

 62
   256
 51
90.0
 52
90.0
 71
     2
 49
0.5
 62
   256
  6
BYLAYER
 49
-0.5
 62
   256
  6
BYLAYER
  0
ACDBPLACEHOLDER
  5
F
102
{ACAD_REACTORS
330
E
102
}
330
E
  0
TABLESTYLE
  5
31
102
{ACAD_XDICTIONARY
360
2E3
102
}
102
{ACAD_REACTORS
330
30
102
}
330
30
100
AcDbTableStyle
  3
Standard
 70
     0
 71
     0
 40
0.06
 41
0.06
280
     0
281
     0
  7
Standard
140
0.18
170
     2
 62
     0
 63
     7
283
     0
274
    -2
284
     1
 64
     0
275
    -2
285
     1
 65
     0
276
    -2
286
     1
 66
     0
277
    -2
287
     1
 67
     0
278
    -2
288
     1
 68
     0
279
    -2
289
     1
 69
     0
  7
Standard
140
0.25
170
     5
 62
     0
 63
     7
283
     0
274
    -2
284
     1
 64
     0
275
    -2
285
     1
 65
     0
276
    -2
286
     1
 66
     0
277
    -2
287
     1
 67
     0
278
    -2
288
     1
 68
     0
279
    -2
289
     1
 69
     0
  7
Standard
140
0.18
170
     5
 62
     0
 63
     7
283
     0
274
    -2
284
     1
 64
     0
275
    -2
285
     1
 65
     0
276
    -2
286
     1
 66
     0
277
    -2
287
     1
 67
     0
278
    -2
288
     1
 68
     0
279
    -2
289
     1
 69
     0
  0
VISUALSTYLE
  5
1A
102
{ACAD_REACTORS
330
14
102
}
330
14
100
AcDbVisualStyle
  2
2dWireframe
 70
     4
 71
     0
 72
     2
 73
     0
 90
        0
 40
-0.6
 41
-30.0
 62
     5
 63
     7
 74
     1
 91
        4
 64
     7
 65
   257
 75
     1
175
     1
 42
1.0
 92
        0
 66
   257
 43
1.0
 76
     1
 77
     6
 78
     2
 67
     7
 79
     5
170
     0
171
     0
290
     0
174
     0
 93
        1
 44
0.0
173
     0
291
     0
 45
0.0
1001
ACAD
1000
AcDbSavedByObjectVersion
1070
     0
  0
VISUALSTYLE
  5
1C
102
{ACAD_REACTORS
330
14
102
}
330
14
100
AcDbVisualStyle
  2
3D Hidden
 70
     6
 71
     1
 72
     2
 73
     2
 90
        0
 40
-0.6
 41
-30.0
 62
     5
 63
     7
 74
     2
 91
        2
 64
     7
 65
   257
 75
     2
175
     1
 42
40.0
 92
        0
 66
   257
 43
1.0
 76
     1
 77
     6
 78
     2
 67
     7
 79
     3
170
     0
171
     0
290
     0
174
     0
 93
        1
 44
0.0
173
     0
291
     0
 45
0.0
1001
ACAD
1000
AcDbSavedByObjectVersion
1070
     0
  0
VISUALSTYLE
  5
1B
102
{ACAD_REACTORS
330
14
102
}
330
14
100
AcDbVisualStyle
  2
3dWireframe
 70
     5
 71
     0
 72
     2
 73
     0
 90
        0
 40
-0.6
 41
-30.0
 62
     5
 63
     7
 74
     1
 91
        4
 64
     7
 65
   257
 75
     1
175
     1
 42
1.0
 92
        0
 66
   257
 43
1.0
 76
     1
 77
     6
 78
     2
 67
     7
 79
     5
170
     0
171
     0
290
     0
174
     0
 93
        1
 44
0.0
173
     0
291
     0
 45
0.0
1001
ACAD
1000
AcDbSavedByObjectVersion
1070
     0
  0
VISUALSTYLE
  5
19
102
{ACAD_REACTORS
330
14
102
}
330
14
100
AcDbVisualStyle
  2
Basic
 70
     7
 71
     1
 72
     0
 73
     1
 90
        0
 40
-0.6
 41
-30.0
 62
     5
 63
     7
 74
     0
 91
        4
 64
     7
 65
   257
 75
     1
175
     1
 42
1.0
 92
        8
 66
     7
 43
1.0
 76
     1
 77
     6
 78
     2
 67
     7
 79
     5
170
     0
171
     0
290
     0
174
     0
 93
        1
 44
0.0
173
     0
291
     1
 45
0.0
1001
ACAD
1000
AcDbSavedByObjectVersion
1070
     0
  0
VISUALSTYLE
  5
20
102
{ACAD_REACTORS
330
14
102
}
330
14
100
AcDbVisualStyle
  2
Brighten
 70
    12
 71
     2
 72
     2
 73
     0
 90
        0
 40
-0.6
 41
-30.0
 62
     5
 63
     7
 74
     1
 91
        4
 64
     7
 65
   257
 75
     1
175
     1
 42
1.0
 92
        8
 66
     7
 43
1.0
 76
     1
 77
     6
 78
     2
 67
     7
 79
     5
170
     0
171
     0
290
     0
174
     0
 93
        1
 44
50.0
173
     0
291
     1
 45
0.0
1001
ACAD
1000
AcDbSavedByObjectVersion
1070
     0
  0
VISUALSTYLE
  5
24
102
{ACAD_REACTORS
330
14
102
}
330
14
100
AcDbVisualStyle
  2
ColorChange
 70
    16
 71
     2
 72
     2
 73
     3
 90
        0
 40
-0.6
 41
-30.0
 62
     5
 63
     8
 74
     1
 91
        4
 64
     7
 65
   257
 75
     1
175
     1
 42
1.0
 92
        8
 66
     8
 43
1.0
 76
     1
 77
     6
 78
     2
 67
     7
 79
     5
170
     0
171
     0
290
     0
174
     0
 93
        1
 44
0.0
173
     0
291
     1
 45
0.0
1001
ACAD
1000
AcDbSavedByObjectVersion
1070
     0
  0
VISUALSTYLE
  5
1D
102
{ACAD_REACTORS
330
14
102
}
330
14
100
AcDbVisualStyle
  2
Conceptual
 70
     9
 71
     3
 72
     2
 73
     0
 90
        0
 40
-0.6
 41
-30.0
 62
     5
 63
     7
 74
     2
 91
        2
 64
     7
 65
   257
 75
     1
175
     1
 42
40.0
 92
        8
 66
     7
 43
1.0
 76
     1
 77
     6
 78
     2
 67
     7
 79
     3
170
     0
171
     0
290
     0
174
     0
 93
        1
 44
0.0
173
     0
291
     0
 45
0.0
1001
ACAD
1000
AcDbSavedByObjectVersion
1070
     0
  0
VISUALSTYLE
  5
1F
102
{ACAD_REACTORS
330
14
102
}
330
14
100
AcDbVisualStyle
  2
Dim
 70
    11
 71
     2
 72
     2
 73
     0
 90
        0
 40
-0.6
 41
-30.0
 62
     5
 63
     7
 74
     1
 91
        4
 64
     7
 65
   257
 75
     1
175
     1
 42
1.0
 92
        8
 66
     7
 43
1.0
 76
     1
 77
     6
 78
     2
 67
     7
 79
     5
170
     0
171
     0
290
     0
174
     0
 93
        1
 44
-50.0
173
     0
291
     1
 45
0.0
1001
ACAD
1000
AcDbSavedByObjectVersion
1070
     0
  0
VISUALSTYLE
  5
23
102
{ACAD_REACTORS
330
14
102
}
330
14
100
AcDbVisualStyle
  2
Facepattern
 70
    15
 71
     2
 72
     2
 73
     0
 90
        0
 40
-0.6
 41
-30.0
 62
     5
 63
     7
 74
     1
 91
        4
 64
     7
 65
   257
 75
     1
175
     1
 42
1.0
 92
        8
 66
     7
 43
1.0
 76
     1
 77
     6
 78
     2
 67
     7
 79
     5
170
     0
171
     0
290
     0
174
     0
 93
        1
 44
0.0
173
     0
291
     1
 45
0.0
1001
ACAD
1000
AcDbSavedByObjectVersion
1070
     0
  0
VISUALSTYLE
  5
15
102
{ACAD_REACTORS
330
14
102
}
330
14
100
AcDbVisualStyle
  2
Flat
 70
     0
 71
     2
 72
     1
 73
     1
 90
        2
 40
-0.6
 41
30.0
 62
     5
 63
     7
 74
     0
 91
        4
 64
     7
 65
   257
 75
     1
175
     1
 42
1.0
 92
        8
 66
     7
 43
1.0
 76
     1
 77
     6
 78
     2
 67
     7
 79
     5
170
     0
171
     0
290
     0
174
     0
 93
       13
 44
0.0
173
     0
291
     1
 45
0.0
1001
ACAD
1000
AcDbSavedByObjectVersion
1070
     0
  0
VISUALSTYLE
  5
16
102
{ACAD_REACTORS
330
14
102
}
330
14
100
AcDbVisualStyle
  2
FlatWithEdges
 70
     1
 71
     2
 72
     1
 73
     1
 90
        2
 40
-0.6
 41
30.0
 62
     5
 63
     7
 74
     1
 91
        4
 64
     7
 65
   257
 75
     1
175
     1
 42
1.0
 92
        0
 66
   257
 43
1.0
 76
     1
 77
     6
 78
     2
 67
     7
 79
     5
170
     0
171
     0
290
     0
174
     0
 93
       13
 44
0.0
173
     0
291
     1
 45
0.0
1001
ACAD
1000
AcDbSavedByObjectVersion
1070
     0
  0
VISUALSTYLE
  5
17
102
{ACAD_REACTORS
330
14
102
}
330
14
100
AcDbVisualStyle
  2
Gouraud
 70
     2
 71
     2
 72
     2
 73
     1
 90
        2
 40
-0.6
 41
30.0
 62
     5
 63
     7
 74
     0
 91
        4
 64
     7
 65
   257
 75
     1
175
     1
 42
1.0
 92
        0
 66
     7
 43
1.0
 76
     1
 77
     6
 78
     2
 67
     7
 79
     5
170
     0
171
     0
290
     0
174
     0
 93
       13
 44
0.0
173
     0
291
     1
 45
0.0
1001
ACAD
1000
AcDbSavedByObjectVersion
1070
     0
  0
VISUALSTYLE
  5
18
102
{ACAD_REACTORS
330
14
102
}
330
14
100
AcDbVisualStyle
  2
GouraudWithEdges
 70
     3
 71
     2
 72
     2
 73
     1
 90
        2
 40
-0.6
 41
30.0
 62
     5
 63
     7
 74
     1
 91
        4
 64
     7
 65
   257
 75
     1
175
     1
 42
1.0
 92
        0
 66
   257
 43
1.0
 76
     1
 77
     6
 78
     2
 67
     7
 79
     5
170
     0
171
     0
290
     0
174
     0
 93
       13
 44
0.0
173
     0
291
     1
 45
0.0
1001
ACAD
1000
AcDbSavedByObjectVersion
1070
     0
  0
VISUALSTYLE
  5
22
102
{ACAD_REACTORS
330
14
102
}
330
14
100
AcDbVisualStyle
  2
Linepattern
 70
    14
 71
     2
 72
     2
 73
     0
 90
        0
 40
-0.6
 41
-30.0
 62
     5
 63
     7
 74
     1
 91
        4
 64
     7
 65
   257
 75
     7
175
     7
 42
1.0
 92
        8
 66
     7
 43
1.0
 76
     1
 77
     6
 78
     2
 67
     7
 79
     5
170
     0
171
     0
290
     0
174
     0
 93
        1
 44
0.0
173
     0
291
     1
 45
0.0
1001
ACAD
1000
AcDbSavedByObjectVersion
1070
     0
  0
VISUALSTYLE
  5
1E
102
{ACAD_REACTORS
330
14
102
}
330
14
100
AcDbVisualStyle
  2
Realistic
 70
     8
 71
     2
 72
     2
 73
     0
 90
        0
 40
-0.6
 41
-30.0
 62
     5
 63
     7
 74
     1
 91
        0
 64
     7
 65
   257
 75
     1
175
     1
 42
1.0
 92
        8
 66
     8
 43
1.0
 76
     1
 77
     6
 78
     2
 67
     7
 79
     5
170
     0
171
     0
290
     0
174
     0
 93
       13
 44
0.0
173
     0
291
     0
 45
0.0
1001
ACAD
1000
AcDbSavedByObjectVersion
1070
     0
  0
VISUALSTYLE
  5
21
102
{ACAD_REACTORS
330
14
102
}
330
14
100
AcDbVisualStyle
  2
Thicken
 70
    13
 71
     2
 72
     2
 73
     0
 90
        0
 40
-0.6
 41
-30.0
 62
     5
 63
     7
 74
     1
 91
        4
 64
     7
 65
   257
 75
     1
175
     1
 42
1.0
 92
       12
 66
     7
 43
1.0
 76
     1
 77
     6
 78
     2
 67
     7
 79
     5
170
     0
171
     0
290
     0
174
     0
 93
        1
 44
0.0
173
     0
291
     1
 45
0.0
1001
ACAD
1000
AcDbSavedByObjectVersion
1070
     0
  0
DICTIONARYVAR
  5
2D8
102
{ACAD_REACTORS
330
2D7
102
}
330
2D7
100
DictionaryVariables
280
     0
  1
STANDARD
  0
DICTIONARYVAR
  5
2DB
102
{ACAD_REACTORS
330
2D7
102
}
330
2D7
100
DictionaryVariables
280
     0
  1
1
  0
DICTIONARYVAR
  5
2DA
102
{ACAD_REACTORS
330
2D7
102
}
330
2D7
100
DictionaryVariables
280
     0
  1
0
  0
DICTIONARYVAR
  5
2D9
102
{ACAD_REACTORS
330
2D7
102
}
330
2D7
100
DictionaryVariables
280
     0
  1
127
  0
DICTIONARY
  5
2E5
330
35
100
AcDbDictionary
280
     1
281
     1
  3
ACAD_XREC_ROUNDTRIP
360
2E6
  0
DICTIONARY
  5
2E7
330
39
100
AcDbDictionary
280
     1
281
     1
  3
ACAD_XREC_ROUNDTRIP
360
2E8
  0
DICTIONARY
  5
2DF
330
12
100
AcDbDictionary
280
     1
281
     1
  3
ACAD_XREC_ROUNDTRIP
360
2E0
  0
DICTIONARY
  5
2DD
330
11
100
AcDbDictionary
280
     1
281
     1
  3
ACAD_XREC_ROUNDTRIP
360
2DE
  0
DICTIONARY
  5
2E1
330
13
100
AcDbDictionary
280
     1
281
     1
  3
ACAD_XREC_ROUNDTRIP
360
2E2
  0
DICTIONARY
  5
2E3
330
31
100
AcDbDictionary
280
     1
281
     1
  3
ACAD_XREC_ROUNDTRIP
360
2E4
  0
XRECORD
  5
2E6
102
{ACAD_REACTORS
330
2E5
102
}
330
2E5
100
AcDbXrecord
280
     1
102
SHADEPLOT
 70
     0
102
SHADEPLOTRESLEVEL
 70
     2
102
SHADEPLOTCUSTOMDPI
 70
   300
  0
XRECORD
  5
2E8
102
{ACAD_REACTORS
330
2E7
102
}
330
2E7
100
AcDbXrecord
280
     1
102
SHADEPLOT
 70
     0
102
SHADEPLOTRESLEVEL
 70
     2
102
SHADEPLOTCUSTOMDPI
 70
   300
  0
XRECORD
  5
2E0
102
{ACAD_REACTORS
330
2DF
102
}
330
2DF
100
AcDbXrecord
280
     1
102
MATERIAL
148
0.0
149
0.0
149
0.0
 93
        0
 94
       63
282
     0
 72
     1
 77
     1
171
     1
175
     1
179
     1
273
     0
  0
XRECORD
  5
2DE
102
{ACAD_REACTORS
330
2DD
102
}
330
2DD
100
AcDbXrecord
280
     1
102
MATERIAL
148
0.0
149
0.0
149
0.0
 93
        0
 94
       63
282
     0
 72
     1
 77
     1
171
     1
175
     1
179
     1
273
     0
  0
XRECORD
  5
2E2
102
{ACAD_REACTORS
330
2E1
102
}
330
2E1
100
AcDbXrecord
280
     1
102
MATERIAL
148
0.0
149
0.0
149
0.0
 93
        0
 94
       63
282
     0
 72
     1
 77
     1
171
     1
175
     1
179
     1
273
     0
  0
XRECORD
  5
2E4
102
{ACAD_REACTORS
330
2E3
102
}
330
2E3
100
AcDbXrecord
280
     1
102
ACAD_ROUNDTRIP_PRE2007_TABLESTYLE
 90
      512
 91
        0
  1

 92
      512
 93
        0
  2

 94
      512
 95
        0
  3

  0
ENDSEC
  0
EOF
