%FSLAX25Y25*%
%MOIN*%
G70*
G01*
G75*
G04 Layer_Color=8388736*
%ADD10R,0.05512X0.04331*%
%ADD11R,0.06693X0.04331*%
%ADD12O,0.06496X0.02559*%
%ADD13R,0.08661X0.05906*%
%ADD14O,0.08268X0.01181*%
%ADD15O,0.01181X0.08268*%
%ADD16R,0.04331X0.06693*%
%ADD17R,0.08465X0.01575*%
%ADD18R,0.08465X0.01575*%
%ADD19R,0.05906X0.07480*%
%ADD20R,0.05709X0.02165*%
%ADD21R,0.05709X0.02165*%
%ADD22R,0.10039X0.07284*%
%ADD23R,0.02165X0.05709*%
%ADD24R,0.02165X0.05709*%
%ADD25C,0.03150*%
%ADD26C,0.00598*%
%ADD27C,0.01575*%
%ADD28C,0.01969*%
%ADD29R,0.11811X0.11811*%
%ADD30O,0.04724X0.09843*%
%ADD31O,0.09843X0.04724*%
%ADD32C,0.19685*%
%ADD33R,0.05906X0.05906*%
%ADD34C,0.05906*%
%ADD35C,0.03150*%
%ADD36C,0.05000*%
%ADD37C,0.03937*%
%ADD38C,0.01000*%
%ADD39C,0.00984*%
%ADD40C,0.02362*%
%ADD41C,0.00787*%
%ADD42C,0.00394*%
%ADD43R,0.06312X0.05131*%
%ADD44R,0.07493X0.05131*%
%ADD45O,0.07296X0.03359*%
%ADD46R,0.09461X0.06706*%
%ADD47O,0.09068X0.01981*%
%ADD48O,0.01981X0.09068*%
%ADD49R,0.05131X0.07493*%
%ADD50R,0.09265X0.02375*%
%ADD51R,0.09265X0.02375*%
%ADD52R,0.06706X0.08280*%
%ADD53R,0.06509X0.02965*%
%ADD54R,0.06509X0.02965*%
%ADD55R,0.10839X0.08083*%
%ADD56R,0.02965X0.06509*%
%ADD57R,0.02965X0.06509*%
%ADD58R,0.12611X0.12611*%
%ADD59O,0.05524X0.10642*%
%ADD60O,0.10642X0.05524*%
%ADD61C,0.20485*%
%ADD62R,0.06706X0.06706*%
%ADD63C,0.06706*%
%ADD64C,0.03950*%
%ADD65C,0.05800*%
%ADD66C,0.04737*%
D43*
X295378Y65945D02*
D03*
Y60039D02*
D03*
X277661Y65945D02*
D03*
Y60039D02*
D03*
X259945Y65945D02*
D03*
Y60039D02*
D03*
X242228Y65945D02*
D03*
Y60039D02*
D03*
X224512Y65945D02*
D03*
Y60039D02*
D03*
X206795Y65945D02*
D03*
Y60039D02*
D03*
X189079Y65945D02*
D03*
Y60039D02*
D03*
X171362Y65945D02*
D03*
Y60039D02*
D03*
X153646Y65945D02*
D03*
Y60039D02*
D03*
X135929Y65945D02*
D03*
Y60039D02*
D03*
X118212Y65945D02*
D03*
Y60039D02*
D03*
X100496Y65945D02*
D03*
Y60039D02*
D03*
X295378Y83661D02*
D03*
Y77756D02*
D03*
X277661Y83661D02*
D03*
Y77756D02*
D03*
X259945Y83661D02*
D03*
Y77756D02*
D03*
X242228Y83661D02*
D03*
Y77756D02*
D03*
X224512Y83661D02*
D03*
Y77756D02*
D03*
X206795Y83661D02*
D03*
Y77756D02*
D03*
X189079Y83661D02*
D03*
Y77756D02*
D03*
X171362Y83661D02*
D03*
Y77756D02*
D03*
X153646Y83661D02*
D03*
Y77756D02*
D03*
X135929Y83661D02*
D03*
Y77756D02*
D03*
X118212Y83661D02*
D03*
Y77756D02*
D03*
X100496Y83661D02*
D03*
Y77756D02*
D03*
X295378Y101378D02*
D03*
Y95473D02*
D03*
X277661Y101378D02*
D03*
Y95473D02*
D03*
X259945Y101378D02*
D03*
Y95473D02*
D03*
X242228Y101378D02*
D03*
Y95473D02*
D03*
X224512Y101378D02*
D03*
Y95473D02*
D03*
X206795Y101378D02*
D03*
Y95473D02*
D03*
X189079Y101378D02*
D03*
Y95473D02*
D03*
X171362Y101378D02*
D03*
Y95473D02*
D03*
X153646Y101378D02*
D03*
Y95473D02*
D03*
X135929Y101378D02*
D03*
Y95473D02*
D03*
X118212Y101378D02*
D03*
Y95473D02*
D03*
X100496Y101378D02*
D03*
Y95473D02*
D03*
X295378Y119095D02*
D03*
Y113189D02*
D03*
X277661Y119095D02*
D03*
Y113189D02*
D03*
X259945Y119095D02*
D03*
Y113189D02*
D03*
X242228Y119095D02*
D03*
Y113189D02*
D03*
X224512Y119095D02*
D03*
Y113189D02*
D03*
X206795Y119095D02*
D03*
Y113189D02*
D03*
X189079Y119095D02*
D03*
Y113189D02*
D03*
X171362Y119095D02*
D03*
Y113189D02*
D03*
X153646Y119095D02*
D03*
Y113189D02*
D03*
X135929Y119095D02*
D03*
Y113189D02*
D03*
X118212Y119095D02*
D03*
Y113189D02*
D03*
X100496Y119095D02*
D03*
Y113189D02*
D03*
X295378Y136811D02*
D03*
Y130905D02*
D03*
X277661Y136811D02*
D03*
Y130905D02*
D03*
X259945Y136811D02*
D03*
Y130905D02*
D03*
X242228Y136811D02*
D03*
Y130905D02*
D03*
X224512Y136811D02*
D03*
Y130905D02*
D03*
X206795Y136811D02*
D03*
Y130905D02*
D03*
X189079Y136811D02*
D03*
Y130905D02*
D03*
X171362Y136811D02*
D03*
Y130905D02*
D03*
X153646Y136811D02*
D03*
Y130905D02*
D03*
X135929Y136811D02*
D03*
Y130905D02*
D03*
X118212Y136811D02*
D03*
Y130905D02*
D03*
X100496Y136811D02*
D03*
Y130905D02*
D03*
X295378Y154528D02*
D03*
Y148622D02*
D03*
X277661Y154528D02*
D03*
Y148622D02*
D03*
X259945Y154528D02*
D03*
Y148622D02*
D03*
X242228Y154528D02*
D03*
Y148622D02*
D03*
X224512Y154528D02*
D03*
Y148622D02*
D03*
X206795Y154528D02*
D03*
Y148622D02*
D03*
X189079Y154528D02*
D03*
Y148622D02*
D03*
X171362Y154528D02*
D03*
Y148622D02*
D03*
X153646Y154528D02*
D03*
Y148622D02*
D03*
X135929Y154528D02*
D03*
Y148622D02*
D03*
X118212Y154528D02*
D03*
Y148622D02*
D03*
X100496Y154528D02*
D03*
Y148622D02*
D03*
X295378Y172244D02*
D03*
Y166339D02*
D03*
X277661Y172244D02*
D03*
Y166339D02*
D03*
X259945Y172244D02*
D03*
Y166339D02*
D03*
X242228Y172244D02*
D03*
Y166339D02*
D03*
X224512Y172244D02*
D03*
Y166339D02*
D03*
X206795Y172244D02*
D03*
Y166339D02*
D03*
X189079Y172244D02*
D03*
Y166339D02*
D03*
X171362Y172244D02*
D03*
Y166339D02*
D03*
X153646Y172244D02*
D03*
Y166339D02*
D03*
X135929Y172244D02*
D03*
Y166339D02*
D03*
X118212Y172244D02*
D03*
Y166339D02*
D03*
X100496Y172244D02*
D03*
Y166339D02*
D03*
X295378Y189961D02*
D03*
Y184055D02*
D03*
X277661Y189961D02*
D03*
Y184055D02*
D03*
X259945Y189961D02*
D03*
Y184055D02*
D03*
X242228Y189961D02*
D03*
Y184055D02*
D03*
X224512Y189961D02*
D03*
Y184055D02*
D03*
X206795Y189961D02*
D03*
Y184055D02*
D03*
X189079Y189961D02*
D03*
Y184055D02*
D03*
X171362Y189961D02*
D03*
Y184055D02*
D03*
X153646Y189961D02*
D03*
Y184055D02*
D03*
X135929Y189961D02*
D03*
Y184055D02*
D03*
X118212Y189961D02*
D03*
Y184055D02*
D03*
X100496Y189961D02*
D03*
Y184055D02*
D03*
D44*
X495276Y108858D02*
D03*
Y119488D02*
D03*
X547638Y56496D02*
D03*
Y67126D02*
D03*
X563386Y194291D02*
D03*
Y183661D02*
D03*
X472835Y191535D02*
D03*
Y202165D02*
D03*
X488583D02*
D03*
Y191535D02*
D03*
X492520Y56496D02*
D03*
Y67126D02*
D03*
X531890Y56496D02*
D03*
Y67126D02*
D03*
X579134Y194291D02*
D03*
Y183661D02*
D03*
X495276Y128937D02*
D03*
Y139567D02*
D03*
D45*
X557874Y114567D02*
D03*
Y104567D02*
D03*
Y94567D02*
D03*
X522835Y94173D02*
D03*
Y104173D02*
D03*
Y114173D02*
D03*
D46*
X555905Y143701D02*
D03*
X555512Y165354D02*
D03*
X468504Y58268D02*
D03*
X468898Y36614D02*
D03*
D47*
X410142Y111220D02*
D03*
Y113189D02*
D03*
Y115157D02*
D03*
Y117126D02*
D03*
Y119094D02*
D03*
Y121063D02*
D03*
Y123031D02*
D03*
Y125000D02*
D03*
Y126968D02*
D03*
Y128937D02*
D03*
Y130905D02*
D03*
Y132874D02*
D03*
X377858D02*
D03*
Y130905D02*
D03*
Y128937D02*
D03*
Y126968D02*
D03*
Y125000D02*
D03*
Y123031D02*
D03*
Y121063D02*
D03*
Y119094D02*
D03*
Y117126D02*
D03*
Y115157D02*
D03*
Y113189D02*
D03*
Y111220D02*
D03*
X410142Y32480D02*
D03*
Y34449D02*
D03*
Y36417D02*
D03*
Y38386D02*
D03*
Y40354D02*
D03*
Y42323D02*
D03*
Y44291D02*
D03*
Y46260D02*
D03*
Y48228D02*
D03*
Y50197D02*
D03*
Y52165D02*
D03*
Y54134D02*
D03*
X377858D02*
D03*
Y52165D02*
D03*
Y50197D02*
D03*
Y48228D02*
D03*
Y46260D02*
D03*
Y44291D02*
D03*
Y42323D02*
D03*
Y40354D02*
D03*
Y38386D02*
D03*
Y36417D02*
D03*
Y34449D02*
D03*
Y32480D02*
D03*
Y186024D02*
D03*
Y187992D02*
D03*
Y189961D02*
D03*
Y191929D02*
D03*
Y193898D02*
D03*
Y195866D02*
D03*
Y197835D02*
D03*
Y199803D02*
D03*
Y201772D02*
D03*
Y203740D02*
D03*
Y205709D02*
D03*
Y207677D02*
D03*
X410142D02*
D03*
Y205709D02*
D03*
Y203740D02*
D03*
Y201772D02*
D03*
Y199803D02*
D03*
Y197835D02*
D03*
Y195866D02*
D03*
Y193898D02*
D03*
Y191929D02*
D03*
Y189961D02*
D03*
Y187992D02*
D03*
Y186024D02*
D03*
D48*
X404827Y138189D02*
D03*
X402858D02*
D03*
X400890D02*
D03*
X398921D02*
D03*
X396953D02*
D03*
X394984D02*
D03*
X393016D02*
D03*
X391047D02*
D03*
X389078D02*
D03*
X387110D02*
D03*
X385142D02*
D03*
X383173D02*
D03*
Y105905D02*
D03*
X385142D02*
D03*
X387110D02*
D03*
X389078D02*
D03*
X391047D02*
D03*
X393016D02*
D03*
X394984D02*
D03*
X396953D02*
D03*
X398921D02*
D03*
X400890D02*
D03*
X402858D02*
D03*
X404827D02*
D03*
Y59449D02*
D03*
X402858D02*
D03*
X400890D02*
D03*
X398921D02*
D03*
X396953D02*
D03*
X394984D02*
D03*
X393016D02*
D03*
X391047D02*
D03*
X389079D02*
D03*
X387110D02*
D03*
X385142D02*
D03*
X383173D02*
D03*
Y27165D02*
D03*
X385142D02*
D03*
X387110D02*
D03*
X389079D02*
D03*
X391047D02*
D03*
X393016D02*
D03*
X394984D02*
D03*
X396953D02*
D03*
X398921D02*
D03*
X400890D02*
D03*
X402858D02*
D03*
X404827D02*
D03*
X404826Y180709D02*
D03*
X402858D02*
D03*
X400890D02*
D03*
X398921D02*
D03*
X396953D02*
D03*
X394984D02*
D03*
X393016D02*
D03*
X391047D02*
D03*
X389078D02*
D03*
X387110D02*
D03*
X385142D02*
D03*
X383173D02*
D03*
Y212992D02*
D03*
X385142D02*
D03*
X387110D02*
D03*
X389078D02*
D03*
X391047D02*
D03*
X393016D02*
D03*
X394984D02*
D03*
X396953D02*
D03*
X398921D02*
D03*
X400890D02*
D03*
X402858D02*
D03*
X404826D02*
D03*
D49*
X550197Y212598D02*
D03*
X560827D02*
D03*
X502953Y212598D02*
D03*
X513583D02*
D03*
X469055Y84016D02*
D03*
X479685D02*
D03*
X479685Y95827D02*
D03*
X469055D02*
D03*
X479685Y127323D02*
D03*
X469055D02*
D03*
X479685Y143071D02*
D03*
X469055D02*
D03*
X471457Y161417D02*
D03*
X482087D02*
D03*
X537205Y212598D02*
D03*
X526575D02*
D03*
X471457Y173228D02*
D03*
X482087D02*
D03*
X506890Y38189D02*
D03*
X517520D02*
D03*
D50*
X514823Y191870D02*
D03*
D51*
Y189311D02*
D03*
Y186752D02*
D03*
Y184193D02*
D03*
X540610Y191870D02*
D03*
Y189311D02*
D03*
Y186752D02*
D03*
Y184193D02*
D03*
D52*
X184843Y240158D02*
D03*
X172638D02*
D03*
D53*
X478602Y107835D02*
D03*
D54*
Y111575D02*
D03*
Y115315D02*
D03*
X470138D02*
D03*
Y107835D02*
D03*
D55*
X516437Y169291D02*
D03*
X500098D02*
D03*
D56*
X504528Y57579D02*
D03*
D57*
X508268D02*
D03*
X512008D02*
D03*
Y66043D02*
D03*
X508268D02*
D03*
X504528D02*
D03*
D58*
X47244Y21654D02*
D03*
X350394D02*
D03*
X350394Y250000D02*
D03*
X47244D02*
D03*
D59*
X144882Y244488D02*
D03*
X152756D02*
D03*
D60*
X27559Y64961D02*
D03*
Y72835D02*
D03*
D61*
X15744Y255898D02*
D03*
X594484D02*
D03*
Y15740D02*
D03*
X15744D02*
D03*
D62*
X551575Y248031D02*
D03*
D63*
X541575D02*
D03*
X531575D02*
D03*
X521575D02*
D03*
X511575D02*
D03*
X501575D02*
D03*
X491575D02*
D03*
X481575D02*
D03*
X551575Y258032D02*
D03*
X541575D02*
D03*
X531575D02*
D03*
X521575D02*
D03*
X511575D02*
D03*
X501575D02*
D03*
X491575D02*
D03*
X481575D02*
D03*
D64*
X425980Y37315D02*
D03*
X422046Y36220D02*
D03*
X387398Y68890D02*
D03*
Y147630D02*
D03*
Y222433D02*
D03*
X399606Y16535D02*
D03*
X395063Y18183D02*
D03*
X405118Y17323D02*
D03*
X410236Y16535D02*
D03*
X514173Y101181D02*
D03*
X108460Y201370D02*
D03*
X422831Y108654D02*
D03*
X383461Y222433D02*
D03*
X403146D02*
D03*
X395272D02*
D03*
X399209D02*
D03*
X391335D02*
D03*
X503937Y133071D02*
D03*
X517323Y131496D02*
D03*
X533465Y160630D02*
D03*
X479587Y135138D02*
D03*
X206968Y241776D02*
D03*
X448142Y104595D02*
D03*
X488350Y182783D02*
D03*
X514819Y179595D02*
D03*
X441728Y110224D02*
D03*
X427949Y113772D02*
D03*
X435035Y119283D02*
D03*
X433067Y113772D02*
D03*
X430311Y122433D02*
D03*
X485098Y111909D02*
D03*
X463728Y107780D02*
D03*
X517398Y29779D02*
D03*
X485185Y67118D02*
D03*
X516728Y67047D02*
D03*
X492516Y51650D02*
D03*
X320429Y167512D02*
D03*
X325665Y169913D02*
D03*
X319484Y163142D02*
D03*
X325350Y165858D02*
D03*
X418066Y59087D02*
D03*
X421138Y56685D02*
D03*
X429562Y48693D02*
D03*
X427870Y52748D02*
D03*
X423736Y53653D02*
D03*
X423776Y32276D02*
D03*
X420114Y27141D02*
D03*
X418106Y23693D02*
D03*
X423972Y27709D02*
D03*
X412791Y20937D02*
D03*
X379524Y139756D02*
D03*
Y61016D02*
D03*
Y214559D02*
D03*
X94784Y110228D02*
D03*
Y92512D02*
D03*
Y74795D02*
D03*
Y57079D02*
D03*
X112500D02*
D03*
X130217Y92512D02*
D03*
Y110228D02*
D03*
X147933Y57079D02*
D03*
Y74795D02*
D03*
Y92512D02*
D03*
Y110228D02*
D03*
X165650Y57079D02*
D03*
Y74795D02*
D03*
Y92512D02*
D03*
Y110228D02*
D03*
X183366Y57079D02*
D03*
Y74795D02*
D03*
Y92512D02*
D03*
Y110228D02*
D03*
X201083Y57079D02*
D03*
Y74795D02*
D03*
Y92512D02*
D03*
Y110228D02*
D03*
X218799Y57079D02*
D03*
Y74795D02*
D03*
Y92512D02*
D03*
Y110228D02*
D03*
X236516Y57079D02*
D03*
Y74795D02*
D03*
Y92512D02*
D03*
Y110228D02*
D03*
X254233Y57079D02*
D03*
Y74795D02*
D03*
Y92512D02*
D03*
Y110228D02*
D03*
X271949Y57079D02*
D03*
Y74795D02*
D03*
Y92512D02*
D03*
Y110228D02*
D03*
X289666Y57079D02*
D03*
Y74795D02*
D03*
Y92512D02*
D03*
Y110228D02*
D03*
X94784Y127945D02*
D03*
Y145662D02*
D03*
Y163378D02*
D03*
Y181095D02*
D03*
X112500Y127945D02*
D03*
Y145662D02*
D03*
Y163378D02*
D03*
Y181095D02*
D03*
X130217Y127945D02*
D03*
Y145662D02*
D03*
Y163378D02*
D03*
Y181095D02*
D03*
X147933Y127945D02*
D03*
Y145662D02*
D03*
Y163378D02*
D03*
Y181095D02*
D03*
X165650Y127945D02*
D03*
Y145662D02*
D03*
Y163378D02*
D03*
Y181095D02*
D03*
X183366Y127945D02*
D03*
Y145662D02*
D03*
Y163378D02*
D03*
Y181095D02*
D03*
X201083Y127945D02*
D03*
Y145662D02*
D03*
Y163378D02*
D03*
Y181095D02*
D03*
X218799Y127945D02*
D03*
Y145662D02*
D03*
Y163378D02*
D03*
Y181095D02*
D03*
X236516Y145662D02*
D03*
Y163378D02*
D03*
Y181095D02*
D03*
X254233Y145662D02*
D03*
Y163378D02*
D03*
Y181095D02*
D03*
X271949Y145662D02*
D03*
Y163378D02*
D03*
Y181095D02*
D03*
X289666Y145662D02*
D03*
Y163378D02*
D03*
Y181095D02*
D03*
X130217Y57079D02*
D03*
X112500Y110228D02*
D03*
Y92512D02*
D03*
Y74795D02*
D03*
X130217D02*
D03*
X236516Y127945D02*
D03*
X254233D02*
D03*
X289666D02*
D03*
X271949D02*
D03*
X164957Y200780D02*
D03*
X168894D02*
D03*
X157083D02*
D03*
X161020D02*
D03*
X143894Y201370D02*
D03*
X139957D02*
D03*
X151768D02*
D03*
X147831D02*
D03*
X126177D02*
D03*
X122240D02*
D03*
X134051D02*
D03*
X130114D02*
D03*
X104524D02*
D03*
X116334D02*
D03*
X112398D02*
D03*
X162988Y47236D02*
D03*
X166925D02*
D03*
X141335D02*
D03*
X137398D02*
D03*
X131492D02*
D03*
X127555D02*
D03*
X123618D02*
D03*
X119681D02*
D03*
X113776D02*
D03*
X109839D02*
D03*
X105902D02*
D03*
X101965D02*
D03*
X407870Y147630D02*
D03*
X391335Y68890D02*
D03*
X395272D02*
D03*
X403146D02*
D03*
X397445Y75000D02*
D03*
X399209Y68890D02*
D03*
X407870Y68890D02*
D03*
X403146Y147630D02*
D03*
X399732Y149784D02*
D03*
X394409Y150123D02*
D03*
X396059Y95661D02*
D03*
X418697Y128929D02*
D03*
X424406Y129913D02*
D03*
X427161Y119283D02*
D03*
X426571Y124992D02*
D03*
X418327Y108433D02*
D03*
X145272Y47236D02*
D03*
X149209D02*
D03*
X155114D02*
D03*
X159051D02*
D03*
X421256Y138575D02*
D03*
X415350Y138079D02*
D03*
X397240Y172921D02*
D03*
X391335Y147630D02*
D03*
X409445Y215740D02*
D03*
D65*
X560630Y56693D02*
D03*
X472784Y182870D02*
D03*
X563421Y202744D02*
D03*
X508067Y49110D02*
D03*
D66*
X57087Y64961D02*
D03*
X55118Y56693D02*
D03*
M02*
