  0
SECTION
  2
HEADER
  9
$ACADVER
  1
AC1015
  9
$ACADMAINTVER
 70
    20
  9
$DWGCODEPAGE
  3
ANSI_1252
  9
$INSBASE
 10
0.0
 20
0.0
 30
0.0
  9
$EXTMIN
 10
3.700018
 20
-0.2499359999999999
 30
0.0
  9
$EXTMAX
 10
146.499961
 20
65.59994499999999
 30
0.0
  9
$LIMMIN
 10
3.700018
 20
-0.249936
  9
$LIMMAX
 10
146.499961
 20
65.59994499999999
  9
$ORTHOMODE
 70
     0
  9
$REGENMODE
 70
     1
  9
$FILLMODE
 70
     1
  9
$QTEXTMODE
 70
     0
  9
$MIRRTEXT
 70
     0
  9
$LTSCALE
 40
1.0
  9
$ATTMODE
 70
     1
  9
$TEXTSIZE
 40
0.2
  9
$TRACEWID
 40
0.05
  9
$TEXTSTYLE
  7
Standard
  9
$CLAYER
  8
0
  9
$CELTYPE
  6
CONTINUOUS
  9
$CECOLOR
 62
   256
  9
$CELTSCALE
 40
1.0
  9
$DISPSILH
 70
     0
  9
$DIMSCALE
 40
1.0
  9
$DIMASZ
 40
0.18
  9
$DIMEXO
 40
0.0625
  9
$DIMDLI
 40
0.38
  9
$DIMRND
 40
0.0
  9
$DIMDLE
 40
0.0
  9
$DIMEXE
 40
0.18
  9
$DIMTP
 40
0.0
  9
$DIMTM
 40
0.0
  9
$DIMTXT
 40
0.18
  9
$DIMCEN
 40
0.09
  9
$DIMTSZ
 40
0.0
  9
$DIMTOL
 70
     0
  9
$DIMLIM
 70
     0
  9
$DIMTIH
 70
     1
  9
$DIMTOH
 70
     1
  9
$DIMSE1
 70
     0
  9
$DIMSE2
 70
     0
  9
$DIMTAD
 70
     0
  9
$DIMZIN
 70
     0
  9
$DIMBLK
  1

  9
$DIMASO
 70
     1
  9
$DIMSHO
 70
     1
  9
$DIMPOST
  1

  9
$DIMAPOST
  1

  9
$DIMALT
 70
     0
  9
$DIMALTD
 70
     2
  9
$DIMALTF
 40
25.4
  9
$DIMLFAC
 40
1.0
  9
$DIMTOFL
 70
     0
  9
$DIMTVP
 40
0.0
  9
$DIMTIX
 70
     0
  9
$DIMSOXD
 70
     0
  9
$DIMSAH
 70
     0
  9
$DIMBLK1
  1

  9
$DIMBLK2
  1

  9
$DIMSTYLE
  2
Standard
  9
$DIMCLRD
 70
     0
  9
$DIMCLRE
 70
     0
  9
$DIMCLRT
 70
     0
  9
$DIMTFAC
 40
1.0
  9
$DIMGAP
 40
0.09
  9
$DIMJUST
 70
     0
  9
$DIMSD1
 70
     0
  9
$DIMSD2
 70
     0
  9
$DIMTOLJ
 70
     1
  9
$DIMTZIN
 70
     0
  9
$DIMALTZ
 70
     0
  9
$DIMALTTZ
 70
     0
  9
$DIMUPT
 70
     0
  9
$DIMDEC
 70
     4
  9
$DIMTDEC
 70
     4
  9
$DIMALTU
 70
     2
  9
$DIMALTTD
 70
     2
  9
$DIMTXSTY
  7
Standard
  9
$DIMAUNIT
 70
     0
  9
$DIMADEC
 70
     0
  9
$DIMALTRND
 40
0.0
  9
$DIMAZIN
 70
     0
  9
$DIMDSEP
 70
    46
  9
$DIMATFIT
 70
     3
  9
$DIMFRAC
 70
     0
  9
$DIMLDRBLK
  1

  9
$DIMLUNIT
 70
     2
  9
$DIMLWD
 70
    -2
  9
$DIMLWE
 70
    -2
  9
$DIMTMOVE
 70
     0
  9
$LUNITS
 70
     2
  9
$LUPREC
 70
     9
  9
$SKETCHINC
 40
0.1
  9
$FILLETRAD
 40
0.0
  9
$AUNITS
 70
     0
  9
$AUPREC
 70
     0
  9
$MENU
  1
.
  9
$ELEVATION
 40
0.0
  9
$PELEVATION
 40
0.0
  9
$THICKNESS
 40
0.0
  9
$LIMCHECK
 70
     0
  9
$CHAMFERA
 40
0.0
  9
$CHAMFERB
 40
0.0
  9
$CHAMFERC
 40
0.0
  9
$CHAMFERD
 40
0.0
  9
$SKPOLY
 70
     0
  9
$TDCREATE
 40
2455713.904861146
  9
$TDUCREATE
 40
2455714.196527813
  9
$TDUPDATE
 40
2455713.905240718
  9
$TDUUPDATE
 40
2455714.196907385
  9
$TDINDWG
 40
0.0003798843
  9
$TDUSRTIMER
 40
0.0003798958
  9
$USRTIMER
 70
     1
  9
$ANGBASE
 50
0.0
  9
$ANGDIR
 70
     0
  9
$PDMODE
 70
     0
  9
$PDSIZE
 40
0.0
  9
$PLINEWID
 40
0.0
  9
$SPLFRAME
 70
     0
  9
$SPLINETYPE
 70
     6
  9
$SPLINESEGS
 70
     8
  9
$HANDSEED
  5
342
  9
$SURFTAB1
 70
     6
  9
$SURFTAB2
 70
     6
  9
$SURFTYPE
 70
     6
  9
$SURFU
 70
     6
  9
$SURFV
 70
     6
  9
$UCSBASE
  2

  9
$UCSNAME
  2

  9
$UCSORG
 10
0.0
 20
0.0
 30
0.0
  9
$UCSXDIR
 10
1.0
 20
0.0
 30
0.0
  9
$UCSYDIR
 10
0.0
 20
1.0
 30
0.0
  9
$UCSORTHOREF
  2

  9
$UCSORTHOVIEW
 70
     0
  9
$UCSORGTOP
 10
0.0
 20
0.0
 30
0.0
  9
$UCSORGBOTTOM
 10
0.0
 20
0.0
 30
0.0
  9
$UCSORGLEFT
 10
0.0
 20
0.0
 30
0.0
  9
$UCSORGRIGHT
 10
0.0
 20
0.0
 30
0.0
  9
$UCSORGFRONT
 10
0.0
 20
0.0
 30
0.0
  9
$UCSORGBACK
 10
0.0
 20
0.0
 30
0.0
  9
$PUCSBASE
  2

  9
$PUCSNAME
  2

  9
$PUCSORG
 10
0.0
 20
0.0
 30
0.0
  9
$PUCSXDIR
 10
1.0
 20
0.0
 30
0.0
  9
$PUCSYDIR
 10
0.0
 20
1.0
 30
0.0
  9
$PUCSORTHOREF
  2

  9
$PUCSORTHOVIEW
 70
     0
  9
$PUCSORGTOP
 10
0.0
 20
0.0
 30
0.0
  9
$PUCSORGBOTTOM
 10
0.0
 20
0.0
 30
0.0
  9
$PUCSORGLEFT
 10
0.0
 20
0.0
 30
0.0
  9
$PUCSORGRIGHT
 10
0.0
 20
0.0
 30
0.0
  9
$PUCSORGFRONT
 10
0.0
 20
0.0
 30
0.0
  9
$PUCSORGBACK
 10
0.0
 20
0.0
 30
0.0
  9
$USERI1
 70
     0
  9
$USERI2
 70
     0
  9
$USERI3
 70
     0
  9
$USERI4
 70
     0
  9
$USERI5
 70
     0
  9
$USERR1
 40
0.0
  9
$USERR2
 40
0.0
  9
$USERR3
 40
0.0
  9
$USERR4
 40
0.0
  9
$USERR5
 40
0.0
  9
$WORLDVIEW
 70
     1
  9
$SHADEDGE
 70
     3
  9
$SHADEDIF
 70
    70
  9
$TILEMODE
 70
     1
  9
$MAXACTVP
 70
    64
  9
$PINSBASE
 10
0.0
 20
0.0
 30
0.0
  9
$PLIMCHECK
 70
     0
  9
$PEXTMIN
 10
1.000000000000000E+20
 20
1.000000000000000E+20
 30
1.000000000000000E+20
  9
$PEXTMAX
 10
-1.000000000000000E+20
 20
-1.000000000000000E+20
 30
-1.000000000000000E+20
  9
$PLIMMIN
 10
0.0
 20
0.0
  9
$PLIMMAX
 10
12.0
 20
9.0
  9
$UNITMODE
 70
     0
  9
$VISRETAIN
 70
     1
  9
$PLINEGEN
 70
     0
  9
$PSLTSCALE
 70
     1
  9
$TREEDEPTH
 70
  3020
  9
$CMLSTYLE
  2
Standard
  9
$CMLJUST
 70
     0
  9
$CMLSCALE
 40
1.0
  9
$PROXYGRAPHICS
 70
     1
  9
$MEASUREMENT
 70
     0
  9
$CELWEIGHT
370
    -1
  9
$ENDCAPS
280
     0
  9
$JOINSTYLE
280
     0
  9
$LWDISPLAY
290
     0
  9
$INSUNITS
 70
     0
  9
$HYPERLINKBASE
  1

  9
$STYLESHEET
  1

  9
$XEDIT
290
     1
  9
$CEPSNTYPE
380
     0
  9
$PSTYLEMODE
290
     1
  9
$FINGERPRINTGUID
  2
{B6D0EE9C-C701-4A78-80DC-6ACED396750F}
  9
$VERSIONGUID
  2
{0DA37727-1087-4932-AE76-73D268A655B7}
  9
$EXTNAMES
290
     1
  9
$PSVPSCALE
 40
0.0
  9
$OLESTARTUP
290
     0
  0
ENDSEC
  0
SECTION
  2
CLASSES
  0
CLASS
  1
ACDBDICTIONARYWDFLT
  2
AcDbDictionaryWithDefault
  3
ObjectDBX Classes
 90
        0
280
     0
281
     0
  0
CLASS
  1
MATERIAL
  2
AcDbMaterial
  3
ObjectDBX Classes
 90
     1024
280
     0
281
     0
  0
CLASS
  1
VISUALSTYLE
  2
AcDbVisualStyle
  3
ObjectDBX Classes
 90
     4095
280
     0
281
     0
  0
CLASS
  1
TABLESTYLE
  2
AcDbTableStyle
  3
ObjectDBX Classes
 90
     4095
280
     0
281
     0
  0
CLASS
  1
DICTIONARYVAR
  2
AcDbDictionaryVar
  3
ObjectDBX Classes
 90
        0
280
     0
281
     0
  0
CLASS
  1
ACDBPLACEHOLDER
  2
AcDbPlaceHolder
  3
ObjectDBX Classes
 90
        0
280
     0
281
     0
  0
CLASS
  1
LAYOUT
  2
AcDbLayout
  3
ObjectDBX Classes
 90
        0
280
     0
281
     0
  0
ENDSEC
  0
SECTION
  2
TABLES
  0
TABLE
  2
VPORT
  5
8
330
0
100
AcDbSymbolTable
 70
     1
  0
VPORT
  5
3A
330
8
100
AcDbSymbolTableRecord
100
AcDbViewportTableRecord
  2
*ACTIVE
 70
     0
 10
0.0
 20
0.0
 11
1.0
 21
1.0
 12
70.25865979912706
 22
6.137487969388971
 13
0.0
 23
0.0
 14
0.001
 24
0.001
 15
0.0
 25
0.0
 16
0.0
 26
0.0
 36
1.0
 17
0.0
 27
0.0
 37
0.0
 40
187.7386228546102
 41
1.946708463949843
 42
50.0
 43
0.0
 44
0.0
 50
0.0
 51
0.0
 71
     0
 72
   100
 73
     1
 74
     1
 75
     0
 76
     0
 77
     0
 78
     0
281
     0
 65
     1
110
0.0
120
0.0
130
0.0
111
1.0
121
0.0
131
0.0
112
0.0
122
1.0
132
0.0
 79
     0
146
0.0
  0
ENDTAB
  0
TABLE
  2
LTYPE
  5
5
330
0
100
AcDbSymbolTable
 70
     3
  0
LTYPE
  5
28
330
5
100
AcDbSymbolTableRecord
100
AcDbLinetypeTableRecord
  2
ByBlock
 70
     0
  3

 72
    65
 73
     0
 40
0.0
  0
LTYPE
  5
29
330
5
100
AcDbSymbolTableRecord
100
AcDbLinetypeTableRecord
  2
ByLayer
 70
     0
  3

 72
    65
 73
     0
 40
0.0
  0
LTYPE
  5
2A
330
5
100
AcDbSymbolTableRecord
100
AcDbLinetypeTableRecord
  2
CONTINUOUS
 70
     0
  3
Solid line
 72
    65
 73
     0
 40
0.0
  0
LTYPE
  5
3B
330
5
100
AcDbSymbolTableRecord
100
AcDbLinetypeTableRecord
  2
BYBLOCK
 70
     0
  3

 72
    65
 73
     0
 40
0.0
  0
LTYPE
  5
3C
330
5
100
AcDbSymbolTableRecord
100
AcDbLinetypeTableRecord
  2
BYLAYER
 70
     0
  3

 72
    65
 73
     0
 40
0.0
  0
ENDTAB
  0
TABLE
  2
LAYER
  5
2
102
{ACAD_XDICTIONARY
360
32B
102
}
330
0
100
AcDbSymbolTable
 70
     2
  0
LAYER
  5
25
330
2
100
AcDbSymbolTableRecord
100
AcDbLayerTableRecord
  2
0
 70
     0
 62
     7
  6
CONTINUOUS
370
    -3
390
F
  0
LAYER
  5
3D
330
2
100
AcDbSymbolTableRecord
100
AcDbLayerTableRecord
  2
MICROCONTROLLER_PCB_DARK_GTP
 70
     0
 62
     1
  6
CONTINUOUS
370
     0
390
F
  0
ENDTAB
  0
TABLE
  2
STYLE
  5
3
330
0
100
AcDbSymbolTable
 70
     1
  0
STYLE
  5
26
330
3
100
AcDbSymbolTableRecord
100
AcDbTextStyleTableRecord
  2
Standard
 70
     0
 40
0.0
 41
1.0
 50
0.0
 71
     0
 42
0.2
  3
txt
  4

  0
ENDTAB
  0
TABLE
  2
VIEW
  5
6
330
0
100
AcDbSymbolTable
 70
     0
  0
ENDTAB
  0
TABLE
  2
UCS
  5
7
330
0
100
AcDbSymbolTable
 70
     0
  0
ENDTAB
  0
TABLE
  2
APPID
  5
9
330
0
100
AcDbSymbolTable
 70
     1
  0
APPID
  5
27
330
9
100
AcDbSymbolTableRecord
100
AcDbRegAppTableRecord
  2
ACAD
 70
     0
  0
ENDTAB
  0
TABLE
  2
DIMSTYLE
  5
A
330
0
100
AcDbSymbolTable
 70
     1
100
AcDbDimStyleTable
 71
     0
  0
DIMSTYLE
105
329
330
A
100
AcDbSymbolTableRecord
100
AcDbDimStyleTableRecord
  2
Standard
 70
     0
340
26
  0
ENDTAB
  0
TABLE
  2
BLOCK_RECORD
  5
1
330
0
100
AcDbSymbolTable
 70
    27
  0
BLOCK_RECORD
  5
36
330
1
100
AcDbSymbolTableRecord
100
AcDbBlockTableRecord
  2
*Model_Space
340
39
  0
BLOCK_RECORD
  5
32
330
1
100
AcDbSymbolTableRecord
100
AcDbBlockTableRecord
  2
*Paper_Space
340
35
  0
BLOCK_RECORD
  5
3F
330
1
100
AcDbSymbolTableRecord
100
AcDbBlockTableRecord
  2
D36
340
0
102
{BLKREFS
331
327
331
328
102
}
  0
BLOCK_RECORD
  5
4A
330
1
100
AcDbSymbolTableRecord
100
AcDbBlockTableRecord
  2
D35
340
0
102
{BLKREFS
331
2EB
331
2EC
331
2ED
331
2EE
331
2EF
331
2F0
331
2F1
331
2F2
331
2F3
331
2F4
331
2F5
331
2F6
331
2F7
331
2F8
331
2F9
331
2FA
331
2FB
331
2FC
331
2FD
331
2FE
331
2FF
331
300
331
301
331
302
331
303
331
304
331
305
331
306
331
307
331
308
331
309
331
30A
331
30B
331
30C
331
30D
331
30E
331
30F
331
310
331
311
331
312
331
313
331
314
331
315
331
316
331
317
331
318
331
319
331
31A
331
31B
331
31C
331
31D
331
31E
331
31F
331
320
331
321
331
322
331
323
331
324
331
325
331
326
102
}
  0
BLOCK_RECORD
  5
55
330
1
100
AcDbSymbolTableRecord
100
AcDbBlockTableRecord
  2
D34
340
0
102
{BLKREFS
331
2E9
331
2EA
102
}
  0
BLOCK_RECORD
  5
60
330
1
100
AcDbSymbolTableRecord
100
AcDbBlockTableRecord
  2
D33
340
0
102
{BLKREFS
331
2E8
102
}
  0
BLOCK_RECORD
  5
6B
330
1
100
AcDbSymbolTableRecord
100
AcDbBlockTableRecord
  2
D32
340
0
102
{BLKREFS
331
2DF
331
2E0
331
2E1
331
2E2
331
2E3
331
2E4
331
2E5
331
2E6
331
2E7
102
}
  0
BLOCK_RECORD
  5
76
330
1
100
AcDbSymbolTableRecord
100
AcDbBlockTableRecord
  2
D31
340
0
102
{BLKREFS
331
2DD
331
2DE
102
}
  0
BLOCK_RECORD
  5
81
330
1
100
AcDbSymbolTableRecord
100
AcDbBlockTableRecord
  2
D30
340
0
102
{BLKREFS
331
2DB
331
2DC
102
}
  0
BLOCK_RECORD
  5
8C
330
1
100
AcDbSymbolTableRecord
100
AcDbBlockTableRecord
  2
D29
340
0
102
{BLKREFS
331
2D9
331
2DA
102
}
  0
BLOCK_RECORD
  5
97
330
1
100
AcDbSymbolTableRecord
100
AcDbBlockTableRecord
  2
D28
340
0
102
{BLKREFS
331
2D7
331
2D8
102
}
  0
BLOCK_RECORD
  5
A2
330
1
100
AcDbSymbolTableRecord
100
AcDbBlockTableRecord
  2
D27
340
0
102
{BLKREFS
331
2CF
331
2D0
331
2D1
331
2D2
331
2D3
331
2D4
331
2D5
331
2D6
102
}
  0
BLOCK_RECORD
  5
CA
330
1
100
AcDbSymbolTableRecord
100
AcDbBlockTableRecord
  2
D26
340
0
102
{BLKREFS
331
2CA
331
2CB
331
2CC
331
2CD
331
2CE
102
}
  0
BLOCK_RECORD
  5
D5
330
1
100
AcDbSymbolTableRecord
100
AcDbBlockTableRecord
  2
D25
340
0
102
{BLKREFS
331
2C9
102
}
  0
BLOCK_RECORD
  5
E0
330
1
100
AcDbSymbolTableRecord
100
AcDbBlockTableRecord
  2
D24
340
0
102
{BLKREFS
331
2C7
331
2C8
102
}
  0
BLOCK_RECORD
  5
EB
330
1
100
AcDbSymbolTableRecord
100
AcDbBlockTableRecord
  2
D23
340
0
102
{BLKREFS
331
2C3
331
2C4
331
2C5
331
2C6
102
}
  0
BLOCK_RECORD
  5
F6
330
1
100
AcDbSymbolTableRecord
100
AcDbBlockTableRecord
  2
D22
340
0
102
{BLKREFS
331
291
331
292
331
293
331
294
331
295
331
296
331
297
331
298
331
299
331
29A
331
29B
331
29C
331
29D
331
29E
331
29F
331
2A0
331
2A1
331
2A2
331
2A3
331
2A4
331
2A5
331
2A6
331
2A7
331
2A8
331
2A9
331
2AA
331
2AB
331
2AC
331
2AD
331
2AE
331
2AF
331
2B0
331
2B1
331
2B2
331
2B3
331
2B4
331
2B5
331
2B6
331
2B7
331
2B8
331
2B9
331
2BA
331
2BB
331
2BC
331
2BD
331
2BE
331
2BF
331
2C0
331
2C1
331
2C2
102
}
  0
BLOCK_RECORD
  5
11E
330
1
100
AcDbSymbolTableRecord
100
AcDbBlockTableRecord
  2
D21
340
0
102
{BLKREFS
331
25F
331
260
331
261
331
262
331
263
331
264
331
265
331
266
331
267
331
268
331
269
331
26A
331
26B
331
26C
331
26D
331
26E
331
26F
331
270
331
271
331
272
331
273
331
274
331
275
331
276
331
277
331
278
331
279
331
27A
331
27B
331
27C
331
27D
331
27E
331
27F
331
280
331
281
331
282
331
283
331
284
331
285
331
286
331
287
331
288
331
289
331
28A
331
28B
331
28C
331
28D
331
28E
331
28F
331
290
102
}
  0
BLOCK_RECORD
  5
146
330
1
100
AcDbSymbolTableRecord
100
AcDbBlockTableRecord
  2
D20
340
0
102
{BLKREFS
331
25A
331
25B
331
25C
331
25D
331
25E
102
}
  0
BLOCK_RECORD
  5
151
330
1
100
AcDbSymbolTableRecord
100
AcDbBlockTableRecord
  2
D19
340
0
102
{BLKREFS
331
24A
331
24B
331
24C
331
24D
331
24E
331
24F
331
250
331
251
331
252
331
253
331
254
331
255
331
256
331
257
331
258
331
259
102
}
  0
BLOCK_RECORD
  5
179
330
1
100
AcDbSymbolTableRecord
100
AcDbBlockTableRecord
  2
D18
340
0
102
{BLKREFS
331
23A
331
23B
331
23C
331
23D
331
23E
331
23F
331
240
331
241
331
242
331
243
331
244
331
245
331
246
331
247
331
248
331
249
102
}
  0
BLOCK_RECORD
  5
1A1
330
1
100
AcDbSymbolTableRecord
100
AcDbBlockTableRecord
  2
D17
340
0
102
{BLKREFS
331
234
331
235
331
236
331
237
331
238
331
239
102
}
  0
BLOCK_RECORD
  5
1AC
330
1
100
AcDbSymbolTableRecord
100
AcDbBlockTableRecord
  2
D16
340
0
102
{BLKREFS
331
22F
331
230
331
231
331
232
331
233
102
}
  0
BLOCK_RECORD
  5
1B7
330
1
100
AcDbSymbolTableRecord
100
AcDbBlockTableRecord
  2
D15
340
0
102
{BLKREFS
331
22D
331
22E
102
}
  0
BLOCK_RECORD
  5
1C2
330
1
100
AcDbSymbolTableRecord
100
AcDbBlockTableRecord
  2
D14
340
0
102
{BLKREFS
331
229
331
22A
331
22B
331
22C
102
}
  0
BLOCK_RECORD
  5
1CD
330
1
100
AcDbSymbolTableRecord
100
AcDbBlockTableRecord
  2
D13
340
0
102
{BLKREFS
331
227
331
228
102
}
  0
BLOCK_RECORD
  5
1D8
330
1
100
AcDbSymbolTableRecord
100
AcDbBlockTableRecord
  2
D12
340
0
102
{BLKREFS
331
219
331
21A
331
21B
331
21C
331
21D
331
21E
331
21F
331
220
331
221
331
222
331
223
331
224
331
225
331
226
102
}
  0
BLOCK_RECORD
  5
1E3
330
1
100
AcDbSymbolTableRecord
100
AcDbBlockTableRecord
  2
D11
340
0
102
{BLKREFS
331
20D
331
20E
331
20F
331
210
331
211
331
212
331
213
331
214
331
215
331
216
331
217
331
218
102
}
  0
BLOCK_RECORD
  5
1EE
330
1
100
AcDbSymbolTableRecord
100
AcDbBlockTableRecord
  2
D10
340
0
102
{BLKREFS
331
1F9
331
1FA
331
1FB
331
1FC
331
1FD
331
1FE
331
1FF
331
200
331
201
331
202
331
203
331
204
331
205
331
206
331
207
331
208
331
209
331
20A
331
20B
331
20C
102
}
  0
ENDTAB
  0
ENDSEC
  0
SECTION
  2
BLOCKS
  0
BLOCK
  5
37
330
36
100
AcDbEntity
  8
0
100
AcDbBlockBegin
  2
*Model_Space
 70
     0
 10
0.0
 20
0.0
 30
0.0
  3
*Model_Space
  1

  0
ENDBLK
  5
38
330
36
100
AcDbEntity
  8
0
100
AcDbBlockEnd
  0
BLOCK
  5
33
330
32
100
AcDbEntity
 67
     1
  8
0
100
AcDbBlockBegin
  2
*Paper_Space
 70
     0
 10
0.0
 20
0.0
 30
0.0
  3
*Paper_Space
  1

  0
ENDBLK
  5
34
330
32
100
AcDbEntity
 67
     1
  8
0
100
AcDbBlockEnd
  0
BLOCK
  5
40
330
3F
100
AcDbEntity
  8
0
100
AcDbBlockBegin
  2
D36
 70
     0
 10
0.0
 20
0.0
 30
0.0
  3
D36
  1

  0
LWPOLYLINE
  5
41
330
3F
100
AcDbEntity
  8
MICROCONTROLLER_PCB_DARK_GTP
100
AcDbPolyline
 90
        6
 70
     1
 43
0.0
 10
1.099947
 20
0.0
 10
1.099947
 20
-0.750062
 10
-1.099947
 20
-0.750062
 10
-1.099947
 20
0.750062
 10
1.099947
 20
0.750062
 10
1.099947
 20
0.0
  0
ENDBLK
  5
49
330
3F
100
AcDbEntity
  8
0
100
AcDbBlockEnd
  0
BLOCK
  5
4B
330
4A
100
AcDbEntity
  8
0
100
AcDbBlockBegin
  2
D35
 70
     0
 10
0.0
 20
0.0
 30
0.0
  3
D35
  1

  0
LWPOLYLINE
  5
4C
330
4A
100
AcDbEntity
  8
MICROCONTROLLER_PCB_DARK_GTP
100
AcDbPolyline
 90
        6
 70
     1
 43
0.0
 10
0.124968
 20
0.0
 10
0.124968
 20
-0.700024
 10
-0.124968
 20
-0.700024
 10
-0.124968
 20
0.700024
 10
0.124968
 20
0.700024
 10
0.124968
 20
0.0
  0
ENDBLK
  5
54
330
4A
100
AcDbEntity
  8
0
100
AcDbBlockEnd
  0
BLOCK
  5
56
330
55
100
AcDbEntity
  8
0
100
AcDbBlockBegin
  2
D34
 70
     0
 10
0.0
 20
0.0
 30
0.0
  3
D34
  1

  0
LWPOLYLINE
  5
57
330
55
100
AcDbEntity
  8
MICROCONTROLLER_PCB_DARK_GTP
100
AcDbPolyline
 90
        6
 70
     1
 43
0.0
 10
1.200023
 20
0.0
 10
1.200023
 20
-0.9999979999999998
 10
-1.200023
 20
-0.9999979999999998
 10
-1.200023
 20
0.9999979999999998
 10
1.200023
 20
0.9999979999999998
 10
1.200023
 20
0.0
  0
ENDBLK
  5
5F
330
55
100
AcDbEntity
  8
0
100
AcDbBlockEnd
  0
BLOCK
  5
61
330
60
100
AcDbEntity
  8
0
100
AcDbBlockBegin
  2
D33
 70
     0
 10
0.0
 20
0.0
 30
0.0
  3
D33
  1

  0
LWPOLYLINE
  5
62
330
60
100
AcDbEntity
  8
MICROCONTROLLER_PCB_DARK_GTP
100
AcDbPolyline
 90
        6
 70
     1
 43
0.0
 10
0.4000500000000001
 20
0.0
 10
0.4000500000000001
 20
-0.499999
 10
-0.4000500000000001
 20
-0.499999
 10
-0.4000500000000001
 20
0.499999
 10
0.4000500000000001
 20
0.499999
 10
0.4000500000000001
 20
0.0
  0
ENDBLK
  5
6A
330
60
100
AcDbEntity
  8
0
100
AcDbBlockEnd
  0
BLOCK
  5
6C
330
6B
100
AcDbEntity
  8
0
100
AcDbBlockBegin
  2
D32
 70
     0
 10
0.0
 20
0.0
 30
0.0
  3
D32
  1

  0
LWPOLYLINE
  5
6D
330
6B
100
AcDbEntity
  8
MICROCONTROLLER_PCB_DARK_GTP
100
AcDbPolyline
 90
        6
 70
     1
 43
0.0
 10
0.4000500000000001
 20
0.0
 10
0.4000500000000001
 20
-1.200023
 10
-0.4000500000000001
 20
-1.200023
 10
-0.4000500000000001
 20
1.200023
 10
0.4000500000000001
 20
1.200023
 10
0.4000500000000001
 20
0.0
  0
ENDBLK
  5
75
330
6B
100
AcDbEntity
  8
0
100
AcDbBlockEnd
  0
BLOCK
  5
77
330
76
100
AcDbEntity
  8
0
100
AcDbBlockBegin
  2
D31
 70
     0
 10
0.0
 20
0.0
 30
0.0
  3
D31
  1

  0
LWPOLYLINE
  5
78
330
76
100
AcDbEntity
  8
MICROCONTROLLER_PCB_DARK_GTP
100
AcDbPolyline
 90
        6
 70
     1
 43
0.0
 10
1.350009999999999
 20
0.0
 10
1.350009999999999
 20
-1.750059999999999
 10
-1.350009999999999
 20
-1.750059999999999
 10
-1.350009999999999
 20
1.750059999999999
 10
1.350009999999999
 20
1.750059999999999
 10
1.350009999999999
 20
0.0
  0
ENDBLK
  5
80
330
76
100
AcDbEntity
  8
0
100
AcDbBlockEnd
  0
BLOCK
  5
82
330
81
100
AcDbEntity
  8
0
100
AcDbBlockBegin
  2
D30
 70
     0
 10
0.0
 20
0.0
 30
0.0
  3
D30
  1

  0
LWPOLYLINE
  5
83
330
81
100
AcDbEntity
  8
MICROCONTROLLER_PCB_DARK_GTP
100
AcDbPolyline
 90
        6
 70
     1
 43
0.0
 10
1.124965999999999
 20
0.0
 10
1.124965999999999
 20
-0.4000500000000001
 10
-1.124965999999999
 20
-0.4000500000000001
 10
-1.124965999999999
 20
0.4000500000000001
 10
1.124965999999999
 20
0.4000500000000001
 10
1.124965999999999
 20
0.0
  0
ENDBLK
  5
8B
330
81
100
AcDbEntity
  8
0
100
AcDbBlockEnd
  0
BLOCK
  5
8D
330
8C
100
AcDbEntity
  8
0
100
AcDbBlockBegin
  2
D29
 70
     0
 10
0.0
 20
0.0
 30
0.0
  3
D29
  1

  0
LWPOLYLINE
  5
8E
330
8C
100
AcDbEntity
  8
MICROCONTROLLER_PCB_DARK_GTP
100
AcDbPolyline
 90
        6
 70
     1
 43
0.0
 10
2.29997
 20
0.0
 10
2.29997
 20
-0.4000500000000001
 10
-2.29997
 20
-0.4000500000000001
 10
-2.29997
 20
0.4000500000000001
 10
2.29997
 20
0.4000500000000001
 10
2.29997
 20
0.0
  0
ENDBLK
  5
96
330
8C
100
AcDbEntity
  8
0
100
AcDbBlockEnd
  0
BLOCK
  5
98
330
97
100
AcDbEntity
  8
0
100
AcDbBlockBegin
  2
D28
 70
     0
 10
0.0
 20
0.0
 30
0.0
  3
D28
  1

  0
LWPOLYLINE
  5
99
330
97
100
AcDbEntity
  8
MICROCONTROLLER_PCB_DARK_GTP
100
AcDbPolyline
 90
        6
 70
     1
 43
0.0
 10
0.4000500000000001
 20
0.0
 10
0.4000500000000001
 20
-2.29997
 10
-0.4000500000000001
 20
-2.29997
 10
-0.4000500000000001
 20
2.29997
 10
0.4000500000000001
 20
2.29997
 10
0.4000500000000001
 20
0.0
  0
ENDBLK
  5
A1
330
97
100
AcDbEntity
  8
0
100
AcDbBlockEnd
  0
BLOCK
  5
A3
330
A2
100
AcDbEntity
  8
0
100
AcDbBlockBegin
  2
D27
 70
     0
 10
0.0
 20
0.0
 30
0.0
  3
D27
  1

  0
LWPOLYLINE
  5
A4
330
A2
100
AcDbEntity
  8
MICROCONTROLLER_PCB_DARK_GTP
100
AcDbPolyline
 90
       35
 70
     1
 43
0.0
 10
0.799973
 20
-0.350012
 10
0.868257
 20
-0.343287
 10
0.9339169999999999
 20
-0.323369
 10
0.994429
 20
-0.291024
 10
1.047468999999999
 20
-0.247496
 10
1.090996999999999
 20
-0.194456
 10
1.123342
 20
-0.133944
 10
1.143259999999999
 20
-0.068284
 10
1.149985
 20
0.0
 10
1.143259999999999
 20
0.068284
 10
1.123342
 20
0.133944
 10
1.090996999999999
 20
0.194456
 10
1.047468999999999
 20
0.247496
 10
0.994429
 20
0.291024
 10
0.9339169999999999
 20
0.323369
 10
0.868257
 20
0.343287
 10
0.799973
 20
0.350012
 10
-0.799973
 20
0.350012
 10
-0.868257
 20
0.343287
 10
-0.9339169999999999
 20
0.323369
 10
-0.994429
 20
0.291024
 10
-1.047468999999999
 20
0.247496
 10
-1.090996999999999
 20
0.194456
 10
-1.123342
 20
0.133944
 10
-1.143259999999999
 20
0.068284
 10
-1.149985
 20
0.0
 10
-1.143259999999999
 20
-0.068284
 10
-1.123342
 20
-0.133944
 10
-1.090996999999999
 20
-0.194456
 10
-1.047468999999999
 20
-0.247496
 10
-0.994429
 20
-0.291024
 10
-0.9339169999999999
 20
-0.323369
 10
-0.868257
 20
-0.343287
 10
-0.799973
 20
-0.350012
 10
0.799973
 20
-0.350012
  0
ENDBLK
  5
C9
330
A2
100
AcDbEntity
  8
0
100
AcDbBlockEnd
  0
BLOCK
  5
CB
330
CA
100
AcDbEntity
  8
0
100
AcDbBlockBegin
  2
D26
 70
     0
 10
0.0
 20
0.0
 30
0.0
  3
D26
  1

  0
LWPOLYLINE
  5
CC
330
CA
100
AcDbEntity
  8
MICROCONTROLLER_PCB_DARK_GTP
100
AcDbPolyline
 90
        6
 70
     1
 43
0.0
 10
1.900046999999999
 20
0.0
 10
1.900046999999999
 20
-0.5250180000000001
 10
-1.900046999999999
 20
-0.5250180000000001
 10
-1.900046999999999
 20
0.5250180000000001
 10
1.900046999999999
 20
0.5250180000000001
 10
1.900046999999999
 20
0.0
  0
ENDBLK
  5
D4
330
CA
100
AcDbEntity
  8
0
100
AcDbBlockEnd
  0
BLOCK
  5
D6
330
D5
100
AcDbEntity
  8
0
100
AcDbBlockBegin
  2
D25
 70
     0
 10
0.0
 20
0.0
 30
0.0
  3
D25
  1

  0
LWPOLYLINE
  5
D7
330
D5
100
AcDbEntity
  8
MICROCONTROLLER_PCB_DARK_GTP
100
AcDbPolyline
 90
        6
 70
     1
 43
0.0
 10
4.200016999999999
 20
0.0
 10
4.200016999999999
 20
-5.324983
 10
-4.200016999999999
 20
-5.324983
 10
-4.200016999999999
 20
5.324983
 10
4.200016999999999
 20
5.324983
 10
4.200016999999999
 20
0.0
  0
ENDBLK
  5
DF
330
D5
100
AcDbEntity
  8
0
100
AcDbBlockEnd
  0
BLOCK
  5
E1
330
E0
100
AcDbEntity
  8
0
100
AcDbBlockBegin
  2
D24
 70
     0
 10
0.0
 20
0.0
 30
0.0
  3
D24
  1

  0
LWPOLYLINE
  5
E2
330
E0
100
AcDbEntity
  8
MICROCONTROLLER_PCB_DARK_GTP
100
AcDbPolyline
 90
        6
 70
     1
 43
0.0
 10
1.149985
 20
0.0
 10
1.149985
 20
-1.149985
 10
-1.149985
 20
-1.149985
 10
-1.149985
 20
1.149985
 10
1.149985
 20
1.149985
 10
1.149985
 20
0.0
  0
ENDBLK
  5
EA
330
E0
100
AcDbEntity
  8
0
100
AcDbBlockEnd
  0
BLOCK
  5
EC
330
EB
100
AcDbEntity
  8
0
100
AcDbBlockBegin
  2
D23
 70
     0
 10
0.0
 20
0.0
 30
0.0
  3
D23
  1

  0
LWPOLYLINE
  5
ED
330
EB
100
AcDbEntity
  8
MICROCONTROLLER_PCB_DARK_GTP
100
AcDbPolyline
 90
        6
 70
     1
 43
0.0
 10
0.8500110000000001
 20
0.0
 10
0.8500110000000001
 20
-0.5500370000000001
 10
-0.8500110000000001
 20
-0.5500370000000001
 10
-0.8500110000000001
 20
0.5500370000000001
 10
0.8500110000000001
 20
0.5500370000000001
 10
0.8500110000000001
 20
0.0
  0
ENDBLK
  5
F5
330
EB
100
AcDbEntity
  8
0
100
AcDbBlockEnd
  0
BLOCK
  5
F7
330
F6
100
AcDbEntity
  8
0
100
AcDbBlockBegin
  2
D22
 70
     0
 10
0.0
 20
0.0
 30
0.0
  3
D22
  1

  0
LWPOLYLINE
  5
F8
330
F6
100
AcDbEntity
  8
MICROCONTROLLER_PCB_DARK_GTP
100
AcDbPolyline
 90
       35
 70
     1
 43
0.0
 10
0.9000489999999999
 20
-0.149987
 10
0.92931
 20
-0.147105
 10
0.9574469999999999
 20
-0.13857
 10
0.9833770000000001
 20
-0.12471
 10
1.006105999999999
 20
-0.106057
 10
1.024758999999999
 20
-0.083328
 10
1.038618999999999
 20
-0.057398
 10
1.047154
 20
-0.029261
 10
1.050035999999999
 20
0.0
 10
1.047154
 20
0.029261
 10
1.038618999999999
 20
0.057398
 10
1.024758999999999
 20
0.083328
 10
1.006105999999999
 20
0.106057
 10
0.9833770000000001
 20
0.12471
 10
0.9574469999999999
 20
0.13857
 10
0.92931
 20
0.147105
 10
0.9000489999999999
 20
0.149987
 10
-0.9000489999999999
 20
0.149987
 10
-0.92931
 20
0.147105
 10
-0.9574469999999999
 20
0.13857
 10
-0.9833770000000001
 20
0.12471
 10
-1.006105999999999
 20
0.106057
 10
-1.024758999999999
 20
0.083328
 10
-1.038618999999999
 20
0.057398
 10
-1.047154
 20
0.029261
 10
-1.050035999999999
 20
0.0
 10
-1.047154
 20
-0.029261
 10
-1.038618999999999
 20
-0.057398
 10
-1.024758999999999
 20
-0.083328
 10
-1.006105999999999
 20
-0.106057
 10
-0.9833770000000001
 20
-0.12471
 10
-0.9574469999999999
 20
-0.13857
 10
-0.92931
 20
-0.147105
 10
-0.9000489999999999
 20
-0.149987
 10
0.9000489999999999
 20
-0.149987
  0
ENDBLK
  5
11D
330
F6
100
AcDbEntity
  8
0
100
AcDbBlockEnd
  0
BLOCK
  5
11F
330
11E
100
AcDbEntity
  8
0
100
AcDbBlockBegin
  2
D21
 70
     0
 10
0.0
 20
0.0
 30
0.0
  3
D21
  1

  0
LWPOLYLINE
  5
120
330
11E
100
AcDbEntity
  8
MICROCONTROLLER_PCB_DARK_GTP
100
AcDbPolyline
 90
       35
 70
     1
 43
0.0
 10
0.149987
 20
0.9000489999999999
 10
0.147105
 20
0.92931
 10
0.13857
 20
0.9574469999999999
 10
0.12471
 20
0.9833770000000001
 10
0.106057
 20
1.006105999999999
 10
0.083328
 20
1.024758999999999
 10
0.057398
 20
1.038618999999999
 10
0.029261
 20
1.047154
 10
0.0
 20
1.050035999999999
 10
-0.029261
 20
1.047154
 10
-0.057398
 20
1.038618999999999
 10
-0.083328
 20
1.024758999999999
 10
-0.106057
 20
1.006105999999999
 10
-0.12471
 20
0.9833770000000001
 10
-0.13857
 20
0.9574469999999999
 10
-0.147105
 20
0.92931
 10
-0.149987
 20
0.9000489999999999
 10
-0.149987
 20
-0.9000489999999999
 10
-0.147105
 20
-0.92931
 10
-0.13857
 20
-0.9574469999999999
 10
-0.12471
 20
-0.9833770000000001
 10
-0.106057
 20
-1.006105999999999
 10
-0.083328
 20
-1.024758999999999
 10
-0.057398
 20
-1.038618999999999
 10
-0.029261
 20
-1.047154
 10
0.0
 20
-1.050035999999999
 10
0.029261
 20
-1.047154
 10
0.057398
 20
-1.038618999999999
 10
0.083328
 20
-1.024758999999999
 10
0.106057
 20
-1.006105999999999
 10
0.12471
 20
-0.9833770000000001
 10
0.13857
 20
-0.9574469999999999
 10
0.147105
 20
-0.92931
 10
0.149987
 20
-0.9000489999999999
 10
0.149987
 20
0.9000489999999999
  0
ENDBLK
  5
145
330
11E
100
AcDbEntity
  8
0
100
AcDbBlockEnd
  0
BLOCK
  5
147
330
146
100
AcDbEntity
  8
0
100
AcDbBlockBegin
  2
D20
 70
     0
 10
0.0
 20
0.0
 30
0.0
  3
D20
  1

  0
LWPOLYLINE
  5
148
330
146
100
AcDbEntity
  8
MICROCONTROLLER_PCB_DARK_GTP
100
AcDbPolyline
 90
        6
 70
     1
 43
0.0
 10
0.649986
 20
0.0
 10
0.649986
 20
-0.350012
 10
-0.649986
 20
-0.350012
 10
-0.649986
 20
0.350012
 10
0.649986
 20
0.350012
 10
0.649986
 20
0.0
  0
ENDBLK
  5
150
330
146
100
AcDbEntity
  8
0
100
AcDbBlockEnd
  0
BLOCK
  5
152
330
151
100
AcDbEntity
  8
0
100
AcDbBlockBegin
  2
D19
 70
     0
 10
0.0
 20
0.0
 30
0.0
  3
D19
  1

  0
LWPOLYLINE
  5
153
330
151
100
AcDbEntity
  8
MICROCONTROLLER_PCB_DARK_GTP
100
AcDbPolyline
 90
       35
 70
     1
 43
0.0
 10
0.675005
 20
-0.299974
 10
0.7335270000000001
 20
-0.29421
 10
0.7898
 20
-0.27714
 10
0.8416620000000001
 20
-0.249419
 10
0.887119
 20
-0.212114
 10
0.9244239999999999
 20
-0.166657
 10
0.9521449999999999
 20
-0.114795
 10
0.9692149999999999
 20
-0.058522
 10
0.974979
 20
0.0
 10
0.9692149999999999
 20
0.058522
 10
0.9521449999999999
 20
0.114795
 10
0.9244239999999999
 20
0.166657
 10
0.887119
 20
0.212114
 10
0.8416620000000001
 20
0.249419
 10
0.7898
 20
0.27714
 10
0.7335270000000001
 20
0.29421
 10
0.675005
 20
0.299974
 10
-0.675005
 20
0.299974
 10
-0.7335270000000001
 20
0.29421
 10
-0.7898
 20
0.27714
 10
-0.8416620000000001
 20
0.249419
 10
-0.887119
 20
0.212114
 10
-0.9244239999999999
 20
0.166657
 10
-0.9521449999999999
 20
0.114795
 10
-0.9692149999999999
 20
0.058522
 10
-0.974979
 20
0.0
 10
-0.9692149999999999
 20
-0.058522
 10
-0.9521449999999999
 20
-0.114795
 10
-0.9244239999999999
 20
-0.166657
 10
-0.887119
 20
-0.212114
 10
-0.8416620000000001
 20
-0.249419
 10
-0.7898
 20
-0.27714
 10
-0.7335270000000001
 20
-0.29421
 10
-0.675005
 20
-0.299974
 10
0.675005
 20
-0.299974
  0
ENDBLK
  5
178
330
151
100
AcDbEntity
  8
0
100
AcDbBlockEnd
  0
BLOCK
  5
17A
330
179
100
AcDbEntity
  8
0
100
AcDbBlockBegin
  2
D18
 70
     0
 10
0.0
 20
0.0
 30
0.0
  3
D18
  1

  0
LWPOLYLINE
  5
17B
330
179
100
AcDbEntity
  8
MICROCONTROLLER_PCB_DARK_GTP
100
AcDbPolyline
 90
       35
 70
     1
 43
0.0
 10
0.299974
 20
0.675005
 10
0.29421
 20
0.7335270000000001
 10
0.27714
 20
0.7898
 10
0.249419
 20
0.8416620000000001
 10
0.212114
 20
0.887119
 10
0.166657
 20
0.9244239999999999
 10
0.114795
 20
0.9521449999999999
 10
0.058522
 20
0.9692149999999999
 10
0.0
 20
0.974979
 10
-0.058522
 20
0.9692149999999999
 10
-0.114795
 20
0.9521449999999999
 10
-0.166657
 20
0.9244239999999999
 10
-0.212114
 20
0.887119
 10
-0.249419
 20
0.8416620000000001
 10
-0.27714
 20
0.7898
 10
-0.29421
 20
0.7335270000000001
 10
-0.299974
 20
0.675005
 10
-0.299974
 20
-0.675005
 10
-0.29421
 20
-0.7335270000000001
 10
-0.27714
 20
-0.7898
 10
-0.249419
 20
-0.8416620000000001
 10
-0.212114
 20
-0.887119
 10
-0.166657
 20
-0.9244239999999999
 10
-0.114795
 20
-0.9521449999999999
 10
-0.058522
 20
-0.9692149999999999
 10
0.0
 20
-0.974979
 10
0.058522
 20
-0.9692149999999999
 10
0.114795
 20
-0.9521449999999999
 10
0.166657
 20
-0.9244239999999999
 10
0.212114
 20
-0.887119
 10
0.249419
 20
-0.8416620000000001
 10
0.27714
 20
-0.7898
 10
0.29421
 20
-0.7335270000000001
 10
0.299974
 20
-0.675005
 10
0.299974
 20
0.675005
  0
ENDBLK
  5
1A0
330
179
100
AcDbEntity
  8
0
100
AcDbBlockEnd
  0
BLOCK
  5
1A2
330
1A1
100
AcDbEntity
  8
0
100
AcDbBlockBegin
  2
D17
 70
     0
 10
0.0
 20
0.0
 30
0.0
  3
D17
  1

  0
LWPOLYLINE
  5
1A3
330
1A1
100
AcDbEntity
  8
MICROCONTROLLER_PCB_DARK_GTP
100
AcDbPolyline
 90
        6
 70
     1
 43
0.0
 10
1.200023
 20
0.0
 10
1.200023
 20
-1.299971999999999
 10
-1.200023
 20
-1.299971999999999
 10
-1.200023
 20
1.299971999999999
 10
1.200023
 20
1.299971999999999
 10
1.200023
 20
0.0
  0
ENDBLK
  5
1AB
330
1A1
100
AcDbEntity
  8
0
100
AcDbBlockEnd
  0
BLOCK
  5
1AD
330
1AC
100
AcDbEntity
  8
0
100
AcDbBlockBegin
  2
D16
 70
     0
 10
0.0
 20
0.0
 30
0.0
  3
D16
  1

  0
LWPOLYLINE
  5
1AE
330
1AC
100
AcDbEntity
  8
MICROCONTROLLER_PCB_DARK_GTP
100
AcDbPolyline
 90
        6
 70
     1
 43
0.0
 10
0.350012
 20
0.0
 10
0.350012
 20
-0.649986
 10
-0.350012
 20
-0.649986
 10
-0.350012
 20
0.649986
 10
0.350012
 20
0.649986
 10
0.350012
 20
0.0
  0
ENDBLK
  5
1B6
330
1AC
100
AcDbEntity
  8
0
100
AcDbBlockEnd
  0
BLOCK
  5
1B8
330
1B7
100
AcDbEntity
  8
0
100
AcDbBlockBegin
  2
D15
 70
     0
 10
0.0
 20
0.0
 30
0.0
  3
D15
  1

  0
LWPOLYLINE
  5
1B9
330
1B7
100
AcDbEntity
  8
MICROCONTROLLER_PCB_DARK_GTP
100
AcDbPolyline
 90
        6
 70
     1
 43
0.0
 10
1.099947
 20
0.0
 10
1.099947
 20
-1.299971999999999
 10
-1.099947
 20
-1.299971999999999
 10
-1.099947
 20
1.299971999999999
 10
1.099947
 20
1.299971999999999
 10
1.099947
 20
0.0
  0
ENDBLK
  5
1C1
330
1B7
100
AcDbEntity
  8
0
100
AcDbBlockEnd
  0
BLOCK
  5
1C3
330
1C2
100
AcDbEntity
  8
0
100
AcDbBlockBegin
  2
D14
 70
     0
 10
0.0
 20
0.0
 30
0.0
  3
D14
  1

  0
LWPOLYLINE
  5
1C4
330
1C2
100
AcDbEntity
  8
MICROCONTROLLER_PCB_DARK_GTP
100
AcDbPolyline
 90
        6
 70
     1
 43
0.0
 10
0.5500370000000001
 20
0.0
 10
0.5500370000000001
 20
-0.499999
 10
-0.5500370000000001
 20
-0.499999
 10
-0.5500370000000001
 20
0.499999
 10
0.5500370000000001
 20
0.499999
 10
0.5500370000000001
 20
0.0
  0
ENDBLK
  5
1CC
330
1C2
100
AcDbEntity
  8
0
100
AcDbBlockEnd
  0
BLOCK
  5
1CE
330
1CD
100
AcDbEntity
  8
0
100
AcDbBlockBegin
  2
D13
 70
     0
 10
0.0
 20
0.0
 30
0.0
  3
D13
  1

  0
LWPOLYLINE
  5
1CF
330
1CD
100
AcDbEntity
  8
MICROCONTROLLER_PCB_DARK_GTP
100
AcDbPolyline
 90
        6
 70
     1
 43
0.0
 10
0.799973
 20
0.0
 10
0.799973
 20
-0.799973
 10
-0.799973
 20
-0.799973
 10
-0.799973
 20
0.799973
 10
0.799973
 20
0.799973
 10
0.799973
 20
0.0
  0
ENDBLK
  5
1D7
330
1CD
100
AcDbEntity
  8
0
100
AcDbBlockEnd
  0
BLOCK
  5
1D9
330
1D8
100
AcDbEntity
  8
0
100
AcDbBlockBegin
  2
D12
 70
     0
 10
0.0
 20
0.0
 30
0.0
  3
D12
  1

  0
LWPOLYLINE
  5
1DA
330
1D8
100
AcDbEntity
  8
MICROCONTROLLER_PCB_DARK_GTP
100
AcDbPolyline
 90
        6
 70
     1
 43
0.0
 10
0.5500370000000001
 20
0.0
 10
0.5500370000000001
 20
-0.8500110000000001
 10
-0.5500370000000001
 20
-0.8500110000000001
 10
-0.5500370000000001
 20
0.8500110000000001
 10
0.5500370000000001
 20
0.8500110000000001
 10
0.5500370000000001
 20
0.0
  0
ENDBLK
  5
1E2
330
1D8
100
AcDbEntity
  8
0
100
AcDbBlockEnd
  0
BLOCK
  5
1E4
330
1E3
100
AcDbEntity
  8
0
100
AcDbBlockBegin
  2
D11
 70
     0
 10
0.0
 20
0.0
 30
0.0
  3
D11
  1

  0
LWPOLYLINE
  5
1E5
330
1E3
100
AcDbEntity
  8
MICROCONTROLLER_PCB_DARK_GTP
100
AcDbPolyline
 90
        6
 70
     1
 43
0.0
 10
0.94996
 20
0.0
 10
0.94996
 20
-0.750062
 10
-0.94996
 20
-0.750062
 10
-0.94996
 20
0.750062
 10
0.94996
 20
0.750062
 10
0.94996
 20
0.0
  0
ENDBLK
  5
1ED
330
1E3
100
AcDbEntity
  8
0
100
AcDbBlockEnd
  0
BLOCK
  5
1EF
330
1EE
100
AcDbEntity
  8
0
100
AcDbBlockBegin
  2
D10
 70
     0
 10
0.0
 20
0.0
 30
0.0
  3
D10
  1

  0
LWPOLYLINE
  5
1F0
330
1EE
100
AcDbEntity
  8
MICROCONTROLLER_PCB_DARK_GTP
100
AcDbPolyline
 90
        6
 70
     1
 43
0.0
 10
0.750062
 20
0.0
 10
0.750062
 20
-0.94996
 10
-0.750062
 20
-0.94996
 10
-0.750062
 20
0.94996
 10
0.750062
 20
0.94996
 10
0.750062
 20
0.0
  0
ENDBLK
  5
1F8
330
1EE
100
AcDbEntity
  8
0
100
AcDbBlockEnd
  0
ENDSEC
  0
SECTION
  2
ENTITIES
  0
INSERT
  5
1F9
330
36
100
AcDbEntity
  8
0
100
AcDbBlockReference
  2
D10
 10
7.549896
 20
57.00014
 30
0.0
  0
INSERT
  5
1FA
330
36
100
AcDbEntity
  8
0
100
AcDbBlockReference
  2
D10
 10
4.45008
 20
57.00014
 30
0.0
  0
INSERT
  5
1FB
330
36
100
AcDbEntity
  8
0
100
AcDbBlockReference
  2
D10
 10
58.55004799999999
 20
57.00014
 30
0.0
  0
INSERT
  5
1FC
330
36
100
AcDbEntity
  8
0
100
AcDbBlockReference
  2
D10
 10
55.449978
 20
57.00014
 30
0.0
  0
INSERT
  5
1FD
330
36
100
AcDbEntity
  8
0
100
AcDbBlockReference
  2
D10
 10
95.54997400000001
 20
44.00016599999999
 30
0.0
  0
INSERT
  5
1FE
330
36
100
AcDbEntity
  8
0
100
AcDbBlockReference
  2
D10
 10
92.449904
 20
44.00016599999999
 30
0.0
  0
INSERT
  5
1FF
330
36
100
AcDbEntity
  8
0
100
AcDbBlockReference
  2
D10
 10
95.54997400000001
 20
48.999902
 30
0.0
  0
INSERT
  5
200
330
36
100
AcDbEntity
  8
0
100
AcDbBlockReference
  2
D10
 10
92.449904
 20
48.999902
 30
0.0
  0
INSERT
  5
201
330
36
100
AcDbEntity
  8
0
100
AcDbBlockReference
  2
D10
 10
122.54992
 20
48.999902
 30
0.0
  0
INSERT
  5
202
330
36
100
AcDbEntity
  8
0
100
AcDbBlockReference
  2
D10
 10
119.450104
 20
48.999902
 30
0.0
  0
INSERT
  5
203
330
36
100
AcDbEntity
  8
0
100
AcDbBlockReference
  2
D10
 10
122.54992
 20
54.99989
 30
0.0
  0
INSERT
  5
204
330
36
100
AcDbEntity
  8
0
100
AcDbBlockReference
  2
D10
 10
119.450104
 20
54.99989
 30
0.0
  0
INSERT
  5
205
330
36
100
AcDbEntity
  8
0
100
AcDbBlockReference
  2
D10
 10
134.549896
 20
41.99991599999999
 30
0.0
  0
INSERT
  5
206
330
36
100
AcDbEntity
  8
0
100
AcDbBlockReference
  2
D10
 10
131.45008
 20
41.99991599999999
 30
0.0
  0
INSERT
  5
207
330
36
100
AcDbEntity
  8
0
100
AcDbBlockReference
  2
D10
 10
112.450118
 20
30.999938
 30
0.0
  0
INSERT
  5
208
330
36
100
AcDbEntity
  8
0
100
AcDbBlockReference
  2
D10
 10
115.549934
 20
30.999938
 30
0.0
  0
INSERT
  5
209
330
36
100
AcDbEntity
  8
0
100
AcDbBlockReference
  2
D10
 10
107.54995
 20
30.999938
 30
0.0
  0
INSERT
  5
20A
330
36
100
AcDbEntity
  8
0
100
AcDbBlockReference
  2
D10
 10
104.44988
 20
30.999938
 30
0.0
  0
INSERT
  5
20B
330
36
100
AcDbEntity
  8
0
100
AcDbBlockReference
  2
D10
 10
139.549886
 20
56.000142
 30
0.0
  0
INSERT
  5
20C
330
36
100
AcDbEntity
  8
0
100
AcDbBlockReference
  2
D10
 10
136.45007
 20
56.000142
 30
0.0
  0
INSERT
  5
20D
330
36
100
AcDbEntity
  8
0
100
AcDbBlockReference
  2
D11
 10
100.000054
 20
46.550072
 30
0.0
  0
INSERT
  5
20E
330
36
100
AcDbEntity
  8
0
100
AcDbBlockReference
  2
D11
 10
100.000054
 20
43.450002
 30
0.0
  0
INSERT
  5
20F
330
36
100
AcDbEntity
  8
0
100
AcDbBlockReference
  2
D11
 10
101.000052
 20
25.550114
 30
0.0
  0
INSERT
  5
210
330
36
100
AcDbEntity
  8
0
100
AcDbBlockReference
  2
D11
 10
101.000052
 20
22.450044
 30
0.0
  0
INSERT
  5
211
330
36
100
AcDbEntity
  8
0
100
AcDbBlockReference
  2
D11
 10
95.700088
 20
25.550114
 30
0.0
  0
INSERT
  5
212
330
36
100
AcDbEntity
  8
0
100
AcDbBlockReference
  2
D11
 10
95.700088
 20
22.450044
 30
0.0
  0
INSERT
  5
213
330
36
100
AcDbEntity
  8
0
100
AcDbBlockReference
  2
D11
 10
45.999908
 20
43.550078
 30
0.0
  0
INSERT
  5
214
330
36
100
AcDbEntity
  8
0
100
AcDbBlockReference
  2
D11
 10
45.999908
 20
40.450008
 30
0.0
  0
INSERT
  5
215
330
36
100
AcDbEntity
  8
0
100
AcDbBlockReference
  2
D11
 10
34.99993
 20
5.5499
 30
0.0
  0
INSERT
  5
216
330
36
100
AcDbEntity
  8
0
100
AcDbBlockReference
  2
D11
 10
34.99993
 20
2.450083999999999
 30
0.0
  0
INSERT
  5
217
330
36
100
AcDbEntity
  8
0
100
AcDbBlockReference
  2
D11
 10
34.99993
 20
13.550138
 30
0.0
  0
INSERT
  5
218
330
36
100
AcDbEntity
  8
0
100
AcDbBlockReference
  2
D11
 10
34.99993
 20
10.450068
 30
0.0
  0
INSERT
  5
219
330
36
100
AcDbEntity
  8
0
100
AcDbBlockReference
  2
D12
 10
100.350066
 20
37.999924
 30
0.0
  0
INSERT
  5
21A
330
36
100
AcDbEntity
  8
0
100
AcDbBlockReference
  2
D12
 10
97.65004600000001
 20
37.999924
 30
0.0
  0
INSERT
  5
21B
330
36
100
AcDbEntity
  8
0
100
AcDbBlockReference
  2
D12
 10
119.650002
 20
30.999938
 30
0.0
  0
INSERT
  5
21C
330
36
100
AcDbEntity
  8
0
100
AcDbBlockReference
  2
D12
 10
122.350022
 20
30.999938
 30
0.0
  0
INSERT
  5
21D
330
36
100
AcDbEntity
  8
0
100
AcDbBlockReference
  2
D12
 10
122.350022
 20
38.999922
 30
0.0
  0
INSERT
  5
21E
330
36
100
AcDbEntity
  8
0
100
AcDbBlockReference
  2
D12
 10
119.650002
 20
38.999922
 30
0.0
  0
INSERT
  5
21F
330
36
100
AcDbEntity
  8
0
100
AcDbBlockReference
  2
D12
 10
11.34999
 20
12.999974
 30
0.0
  0
INSERT
  5
220
330
36
100
AcDbEntity
  8
0
100
AcDbBlockReference
  2
D12
 10
8.649969999999999
 20
12.999974
 30
0.0
  0
INSERT
  5
221
330
36
100
AcDbEntity
  8
0
100
AcDbBlockReference
  2
D12
 10
97.350072
 20
31.999936
 30
0.0
  0
INSERT
  5
222
330
36
100
AcDbEntity
  8
0
100
AcDbBlockReference
  2
D12
 10
94.650052
 20
31.999936
 30
0.0
  0
INSERT
  5
223
330
36
100
AcDbEntity
  8
0
100
AcDbBlockReference
  2
D12
 10
49.649888
 20
32.999934
 30
0.0
  0
INSERT
  5
224
330
36
100
AcDbEntity
  8
0
100
AcDbBlockReference
  2
D12
 10
52.349908
 20
32.999934
 30
0.0
  0
INSERT
  5
225
330
36
100
AcDbEntity
  8
0
100
AcDbBlockReference
  2
D12
 10
52.349908
 20
52.00015
 30
0.0
  0
INSERT
  5
226
330
36
100
AcDbEntity
  8
0
100
AcDbBlockReference
  2
D12
 10
49.65014199999999
 20
52.00015
 30
0.0
  0
INSERT
  5
227
330
36
100
AcDbEntity
  8
0
100
AcDbBlockReference
  2
D13
 10
145.699988
 20
64.79997199999999
 30
0.0
  0
INSERT
  5
228
330
36
100
AcDbEntity
  8
0
100
AcDbBlockReference
  2
D13
 10
145.699988
 20
62.799976
 30
0.0
  0
INSERT
  5
229
330
36
100
AcDbEntity
  8
0
100
AcDbBlockReference
  2
D14
 10
141.85011
 20
47.999904
 30
0.0
  0
INSERT
  5
22A
330
36
100
AcDbEntity
  8
0
100
AcDbBlockReference
  2
D14
 10
143.550132
 20
47.999904
 30
0.0
  0
INSERT
  5
22B
330
36
100
AcDbEntity
  8
0
100
AcDbBlockReference
  2
D14
 10
143.550132
 20
52.099972
 30
0.0
  0
INSERT
  5
22C
330
36
100
AcDbEntity
  8
0
100
AcDbBlockReference
  2
D14
 10
141.85011
 20
52.099972
 30
0.0
  0
INSERT
  5
22D
330
36
100
AcDbEntity
  8
0
100
AcDbBlockReference
  2
D15
 10
128.800098
 20
11.700002
 30
0.0
  0
INSERT
  5
22E
330
36
100
AcDbEntity
  8
0
100
AcDbBlockReference
  2
D15
 10
128.800098
 20
16.699992
 30
0.0
  0
INSERT
  5
22F
330
36
100
AcDbEntity
  8
0
100
AcDbBlockReference
  2
D16
 10
95.05010199999999
 20
17.199864
 30
0.0
  0
INSERT
  5
230
330
36
100
AcDbEntity
  8
0
100
AcDbBlockReference
  2
D16
 10
96.95002200000001
 20
17.199864
 30
0.0
  0
INSERT
  5
231
330
36
100
AcDbEntity
  8
0
100
AcDbBlockReference
  2
D16
 10
96.95002200000001
 20
14.800072
 30
0.0
  0
INSERT
  5
232
330
36
100
AcDbEntity
  8
0
100
AcDbBlockReference
  2
D16
 10
96.00006200000001
 20
14.800072
 30
0.0
  0
INSERT
  5
233
330
36
100
AcDbEntity
  8
0
100
AcDbBlockReference
  2
D16
 10
95.05010199999999
 20
14.800072
 30
0.0
  0
INSERT
  5
234
330
36
100
AcDbEntity
  8
0
100
AcDbBlockReference
  2
D17
 10
9.99998
 20
9.19988
 30
0.0
  0
INSERT
  5
235
330
36
100
AcDbEntity
  8
0
100
AcDbBlockReference
  2
D17
 10
9.99998
 20
2.800095999999999
 30
0.0
  0
INSERT
  5
236
330
36
100
AcDbEntity
  8
0
100
AcDbBlockReference
  2
D17
 10
109.000036
 20
20.199858
 30
0.0
  0
INSERT
  5
237
330
36
100
AcDbEntity
  8
0
100
AcDbBlockReference
  2
D17
 10
109.000036
 20
13.800074
 30
0.0
  0
INSERT
  5
238
330
36
100
AcDbEntity
  8
0
100
AcDbBlockReference
  2
D17
 10
128.999996
 20
48.800004
 30
0.0
  0
INSERT
  5
239
330
36
100
AcDbEntity
  8
0
100
AcDbBlockReference
  2
D17
 10
128.999996
 20
55.200042
 30
0.0
  0
INSERT
  5
23A
330
36
100
AcDbEntity
  8
0
100
AcDbBlockReference
  2
D18
 10
107.199938
 20
54.25008199999999
 30
0.0
  0
INSERT
  5
23B
330
36
100
AcDbEntity
  8
0
100
AcDbBlockReference
  2
D18
 10
108.000038
 20
54.25008199999999
 30
0.0
  0
INSERT
  5
23C
330
36
100
AcDbEntity
  8
0
100
AcDbBlockReference
  2
D18
 10
108.799884
 20
54.25008199999999
 30
0.0
  0
INSERT
  5
23D
330
36
100
AcDbEntity
  8
0
100
AcDbBlockReference
  2
D18
 10
109.599984
 20
54.25008199999999
 30
0.0
  0
INSERT
  5
23E
330
36
100
AcDbEntity
  8
0
100
AcDbBlockReference
  2
D18
 10
110.400084
 20
54.25008199999999
 30
0.0
  0
INSERT
  5
23F
330
36
100
AcDbEntity
  8
0
100
AcDbBlockReference
  2
D18
 10
111.19993
 20
54.25008199999999
 30
0.0
  0
INSERT
  5
240
330
36
100
AcDbEntity
  8
0
100
AcDbBlockReference
  2
D18
 10
112.00003
 20
54.25008199999999
 30
0.0
  0
INSERT
  5
241
330
36
100
AcDbEntity
  8
0
100
AcDbBlockReference
  2
D18
 10
112.80013
 20
54.25008199999999
 30
0.0
  0
INSERT
  5
242
330
36
100
AcDbEntity
  8
0
100
AcDbBlockReference
  2
D18
 10
112.80013
 20
45.749972
 30
0.0
  0
INSERT
  5
243
330
36
100
AcDbEntity
  8
0
100
AcDbBlockReference
  2
D18
 10
112.00003
 20
45.749972
 30
0.0
  0
INSERT
  5
244
330
36
100
AcDbEntity
  8
0
100
AcDbBlockReference
  2
D18
 10
111.19993
 20
45.749972
 30
0.0
  0
INSERT
  5
245
330
36
100
AcDbEntity
  8
0
100
AcDbBlockReference
  2
D18
 10
110.400084
 20
45.749972
 30
0.0
  0
INSERT
  5
246
330
36
100
AcDbEntity
  8
0
100
AcDbBlockReference
  2
D18
 10
109.599984
 20
45.749972
 30
0.0
  0
INSERT
  5
247
330
36
100
AcDbEntity
  8
0
100
AcDbBlockReference
  2
D18
 10
108.799884
 20
45.749972
 30
0.0
  0
INSERT
  5
248
330
36
100
AcDbEntity
  8
0
100
AcDbBlockReference
  2
D18
 10
108.000038
 20
45.749972
 30
0.0
  0
INSERT
  5
249
330
36
100
AcDbEntity
  8
0
100
AcDbBlockReference
  2
D18
 10
107.199938
 20
45.749972
 30
0.0
  0
INSERT
  5
24A
330
36
100
AcDbEntity
  8
0
100
AcDbBlockReference
  2
D19
 10
114.249962
 20
52.799996
 30
0.0
  0
INSERT
  5
24B
330
36
100
AcDbEntity
  8
0
100
AcDbBlockReference
  2
D19
 10
114.249962
 20
51.999896
 30
0.0
  0
INSERT
  5
24C
330
36
100
AcDbEntity
  8
0
100
AcDbBlockReference
  2
D19
 10
114.249962
 20
51.20004999999999
 30
0.0
  0
INSERT
  5
24D
330
36
100
AcDbEntity
  8
0
100
AcDbBlockReference
  2
D19
 10
114.249962
 20
50.39995
 30
0.0
  0
INSERT
  5
24E
330
36
100
AcDbEntity
  8
0
100
AcDbBlockReference
  2
D19
 10
114.249962
 20
49.60010399999999
 30
0.0
  0
INSERT
  5
24F
330
36
100
AcDbEntity
  8
0
100
AcDbBlockReference
  2
D19
 10
114.249962
 20
48.800004
 30
0.0
  0
INSERT
  5
250
330
36
100
AcDbEntity
  8
0
100
AcDbBlockReference
  2
D19
 10
114.249962
 20
47.999904
 30
0.0
  0
INSERT
  5
251
330
36
100
AcDbEntity
  8
0
100
AcDbBlockReference
  2
D19
 10
114.249962
 20
47.200058
 30
0.0
  0
INSERT
  5
252
330
36
100
AcDbEntity
  8
0
100
AcDbBlockReference
  2
D19
 10
105.750106
 20
47.200058
 30
0.0
  0
INSERT
  5
253
330
36
100
AcDbEntity
  8
0
100
AcDbBlockReference
  2
D19
 10
105.750106
 20
47.999904
 30
0.0
  0
INSERT
  5
254
330
36
100
AcDbEntity
  8
0
100
AcDbBlockReference
  2
D19
 10
105.750106
 20
48.800004
 30
0.0
  0
INSERT
  5
255
330
36
100
AcDbEntity
  8
0
100
AcDbBlockReference
  2
D19
 10
105.750106
 20
49.60010399999999
 30
0.0
  0
INSERT
  5
256
330
36
100
AcDbEntity
  8
0
100
AcDbBlockReference
  2
D19
 10
105.750106
 20
50.39995
 30
0.0
  0
INSERT
  5
257
330
36
100
AcDbEntity
  8
0
100
AcDbBlockReference
  2
D19
 10
105.750106
 20
51.20004999999999
 30
0.0
  0
INSERT
  5
258
330
36
100
AcDbEntity
  8
0
100
AcDbBlockReference
  2
D19
 10
105.750106
 20
51.999896
 30
0.0
  0
INSERT
  5
259
330
36
100
AcDbEntity
  8
0
100
AcDbBlockReference
  2
D19
 10
105.750106
 20
52.799996
 30
0.0
  0
INSERT
  5
25A
330
36
100
AcDbEntity
  8
0
100
AcDbBlockReference
  2
D20
 10
134.800086
 20
46.850046
 30
0.0
  0
INSERT
  5
25B
330
36
100
AcDbEntity
  8
0
100
AcDbBlockReference
  2
D20
 10
134.800086
 20
48.749966
 30
0.0
  0
INSERT
  5
25C
330
36
100
AcDbEntity
  8
0
100
AcDbBlockReference
  2
D20
 10
137.200132
 20
48.749966
 30
0.0
  0
INSERT
  5
25D
330
36
100
AcDbEntity
  8
0
100
AcDbBlockReference
  2
D20
 10
137.200132
 20
47.800006
 30
0.0
  0
INSERT
  5
25E
330
36
100
AcDbEntity
  8
0
100
AcDbBlockReference
  2
D20
 10
137.200132
 20
46.850046
 30
0.0
  0
INSERT
  5
25F
330
36
100
AcDbEntity
  8
0
100
AcDbBlockReference
  2
D21
 10
79.000096
 20
39.399972
 30
0.0
  0
INSERT
  5
260
330
36
100
AcDbEntity
  8
0
100
AcDbBlockReference
  2
D21
 10
78.49996999999999
 20
39.399972
 30
0.0
  0
INSERT
  5
261
330
36
100
AcDbEntity
  8
0
100
AcDbBlockReference
  2
D21
 10
78.00009799999999
 20
39.399972
 30
0.0
  0
INSERT
  5
262
330
36
100
AcDbEntity
  8
0
100
AcDbBlockReference
  2
D21
 10
77.499972
 20
39.399972
 30
0.0
  0
INSERT
  5
263
330
36
100
AcDbEntity
  8
0
100
AcDbBlockReference
  2
D21
 10
77.0001
 20
39.399972
 30
0.0
  0
INSERT
  5
264
330
36
100
AcDbEntity
  8
0
100
AcDbBlockReference
  2
D21
 10
76.499974
 20
39.399972
 30
0.0
  0
INSERT
  5
265
330
36
100
AcDbEntity
  8
0
100
AcDbBlockReference
  2
D21
 10
76.00010199999999
 20
39.399972
 30
0.0
  0
INSERT
  5
266
330
36
100
AcDbEntity
  8
0
100
AcDbBlockReference
  2
D21
 10
75.49997600000001
 20
39.399972
 30
0.0
  0
INSERT
  5
267
330
36
100
AcDbEntity
  8
0
100
AcDbBlockReference
  2
D21
 10
75.000104
 20
39.399972
 30
0.0
  0
INSERT
  5
268
330
36
100
AcDbEntity
  8
0
100
AcDbBlockReference
  2
D21
 10
74.499978
 20
39.399972
 30
0.0
  0
INSERT
  5
269
330
36
100
AcDbEntity
  8
0
100
AcDbBlockReference
  2
D21
 10
74.000106
 20
39.399972
 30
0.0
  0
INSERT
  5
26A
330
36
100
AcDbEntity
  8
0
100
AcDbBlockReference
  2
D21
 10
73.49998000000001
 20
39.399972
 30
0.0
  0
INSERT
  5
26B
330
36
100
AcDbEntity
  8
0
100
AcDbBlockReference
  2
D21
 10
73.00010799999999
 20
39.399972
 30
0.0
  0
INSERT
  5
26C
330
36
100
AcDbEntity
  8
0
100
AcDbBlockReference
  2
D21
 10
72.49998199999999
 20
39.399972
 30
0.0
  0
INSERT
  5
26D
330
36
100
AcDbEntity
  8
0
100
AcDbBlockReference
  2
D21
 10
72.00010999999999
 20
39.399972
 30
0.0
  0
INSERT
  5
26E
330
36
100
AcDbEntity
  8
0
100
AcDbBlockReference
  2
D21
 10
71.499984
 20
39.399972
 30
0.0
  0
INSERT
  5
26F
330
36
100
AcDbEntity
  8
0
100
AcDbBlockReference
  2
D21
 10
71.000112
 20
39.399972
 30
0.0
  0
INSERT
  5
270
330
36
100
AcDbEntity
  8
0
100
AcDbBlockReference
  2
D21
 10
70.49998599999999
 20
39.399972
 30
0.0
  0
INSERT
  5
271
330
36
100
AcDbEntity
  8
0
100
AcDbBlockReference
  2
D21
 10
69.99985999999999
 20
39.399972
 30
0.0
  0
INSERT
  5
272
330
36
100
AcDbEntity
  8
0
100
AcDbBlockReference
  2
D21
 10
69.499988
 20
39.399972
 30
0.0
  0
INSERT
  5
273
330
36
100
AcDbEntity
  8
0
100
AcDbBlockReference
  2
D21
 10
69.000116
 20
39.399972
 30
0.0
  0
INSERT
  5
274
330
36
100
AcDbEntity
  8
0
100
AcDbBlockReference
  2
D21
 10
68.49999
 20
39.399972
 30
0.0
  0
INSERT
  5
275
330
36
100
AcDbEntity
  8
0
100
AcDbBlockReference
  2
D21
 10
68.000118
 20
39.399972
 30
0.0
  0
INSERT
  5
276
330
36
100
AcDbEntity
  8
0
100
AcDbBlockReference
  2
D21
 10
67.49999200000001
 20
39.399972
 30
0.0
  0
INSERT
  5
277
330
36
100
AcDbEntity
  8
0
100
AcDbBlockReference
  2
D21
 10
66.99986599999999
 20
39.399972
 30
0.0
  0
INSERT
  5
278
330
36
100
AcDbEntity
  8
0
100
AcDbBlockReference
  2
D21
 10
66.99986599999999
 20
54.60009399999999
 30
0.0
  0
INSERT
  5
279
330
36
100
AcDbEntity
  8
0
100
AcDbBlockReference
  2
D21
 10
67.49999200000001
 20
54.60009399999999
 30
0.0
  0
INSERT
  5
27A
330
36
100
AcDbEntity
  8
0
100
AcDbBlockReference
  2
D21
 10
68.000118
 20
54.60009399999999
 30
0.0
  0
INSERT
  5
27B
330
36
100
AcDbEntity
  8
0
100
AcDbBlockReference
  2
D21
 10
68.49999
 20
54.60009399999999
 30
0.0
  0
INSERT
  5
27C
330
36
100
AcDbEntity
  8
0
100
AcDbBlockReference
  2
D21
 10
69.000116
 20
54.60009399999999
 30
0.0
  0
INSERT
  5
27D
330
36
100
AcDbEntity
  8
0
100
AcDbBlockReference
  2
D21
 10
69.499988
 20
54.60009399999999
 30
0.0
  0
INSERT
  5
27E
330
36
100
AcDbEntity
  8
0
100
AcDbBlockReference
  2
D21
 10
69.99985999999999
 20
54.60009399999999
 30
0.0
  0
INSERT
  5
27F
330
36
100
AcDbEntity
  8
0
100
AcDbBlockReference
  2
D21
 10
70.49998599999999
 20
54.60009399999999
 30
0.0
  0
INSERT
  5
280
330
36
100
AcDbEntity
  8
0
100
AcDbBlockReference
  2
D21
 10
71.000112
 20
54.60009399999999
 30
0.0
  0
INSERT
  5
281
330
36
100
AcDbEntity
  8
0
100
AcDbBlockReference
  2
D21
 10
71.499984
 20
54.60009399999999
 30
0.0
  0
INSERT
  5
282
330
36
100
AcDbEntity
  8
0
100
AcDbBlockReference
  2
D21
 10
72.00010999999999
 20
54.60009399999999
 30
0.0
  0
INSERT
  5
283
330
36
100
AcDbEntity
  8
0
100
AcDbBlockReference
  2
D21
 10
72.49998199999999
 20
54.60009399999999
 30
0.0
  0
INSERT
  5
284
330
36
100
AcDbEntity
  8
0
100
AcDbBlockReference
  2
D21
 10
73.00010799999999
 20
54.60009399999999
 30
0.0
  0
INSERT
  5
285
330
36
100
AcDbEntity
  8
0
100
AcDbBlockReference
  2
D21
 10
73.49998000000001
 20
54.60009399999999
 30
0.0
  0
INSERT
  5
286
330
36
100
AcDbEntity
  8
0
100
AcDbBlockReference
  2
D21
 10
74.000106
 20
54.60009399999999
 30
0.0
  0
INSERT
  5
287
330
36
100
AcDbEntity
  8
0
100
AcDbBlockReference
  2
D21
 10
74.499978
 20
54.60009399999999
 30
0.0
  0
INSERT
  5
288
330
36
100
AcDbEntity
  8
0
100
AcDbBlockReference
  2
D21
 10
75.000104
 20
54.60009399999999
 30
0.0
  0
INSERT
  5
289
330
36
100
AcDbEntity
  8
0
100
AcDbBlockReference
  2
D21
 10
75.49997600000001
 20
54.60009399999999
 30
0.0
  0
INSERT
  5
28A
330
36
100
AcDbEntity
  8
0
100
AcDbBlockReference
  2
D21
 10
76.00010199999999
 20
54.60009399999999
 30
0.0
  0
INSERT
  5
28B
330
36
100
AcDbEntity
  8
0
100
AcDbBlockReference
  2
D21
 10
76.499974
 20
54.60009399999999
 30
0.0
  0
INSERT
  5
28C
330
36
100
AcDbEntity
  8
0
100
AcDbBlockReference
  2
D21
 10
77.0001
 20
54.60009399999999
 30
0.0
  0
INSERT
  5
28D
330
36
100
AcDbEntity
  8
0
100
AcDbBlockReference
  2
D21
 10
77.499972
 20
54.60009399999999
 30
0.0
  0
INSERT
  5
28E
330
36
100
AcDbEntity
  8
0
100
AcDbBlockReference
  2
D21
 10
78.00009799999999
 20
54.60009399999999
 30
0.0
  0
INSERT
  5
28F
330
36
100
AcDbEntity
  8
0
100
AcDbBlockReference
  2
D21
 10
78.49996999999999
 20
54.60009399999999
 30
0.0
  0
INSERT
  5
290
330
36
100
AcDbEntity
  8
0
100
AcDbBlockReference
  2
D21
 10
79.000096
 20
54.60009399999999
 30
0.0
  0
INSERT
  5
291
330
36
100
AcDbEntity
  8
0
100
AcDbBlockReference
  2
D22
 10
65.39991999999999
 20
40.999918
 30
0.0
  0
INSERT
  5
292
330
36
100
AcDbEntity
  8
0
100
AcDbBlockReference
  2
D22
 10
65.39991999999999
 20
41.500044
 30
0.0
  0
INSERT
  5
293
330
36
100
AcDbEntity
  8
0
100
AcDbBlockReference
  2
D22
 10
65.39991999999999
 20
41.99991599999999
 30
0.0
  0
INSERT
  5
294
330
36
100
AcDbEntity
  8
0
100
AcDbBlockReference
  2
D22
 10
65.39991999999999
 20
42.500042
 30
0.0
  0
INSERT
  5
295
330
36
100
AcDbEntity
  8
0
100
AcDbBlockReference
  2
D22
 10
65.39991999999999
 20
42.999914
 30
0.0
  0
INSERT
  5
296
330
36
100
AcDbEntity
  8
0
100
AcDbBlockReference
  2
D22
 10
65.39991999999999
 20
43.50004000000001
 30
0.0
  0
INSERT
  5
297
330
36
100
AcDbEntity
  8
0
100
AcDbBlockReference
  2
D22
 10
65.39991999999999
 20
43.999912
 30
0.0
  0
INSERT
  5
298
330
36
100
AcDbEntity
  8
0
100
AcDbBlockReference
  2
D22
 10
65.39991999999999
 20
44.500038
 30
0.0
  0
INSERT
  5
299
330
36
100
AcDbEntity
  8
0
100
AcDbBlockReference
  2
D22
 10
65.39991999999999
 20
44.99991
 30
0.0
  0
INSERT
  5
29A
330
36
100
AcDbEntity
  8
0
100
AcDbBlockReference
  2
D22
 10
65.39991999999999
 20
45.500036
 30
0.0
  0
INSERT
  5
29B
330
36
100
AcDbEntity
  8
0
100
AcDbBlockReference
  2
D22
 10
65.39991999999999
 20
45.999908
 30
0.0
  0
INSERT
  5
29C
330
36
100
AcDbEntity
  8
0
100
AcDbBlockReference
  2
D22
 10
65.39991999999999
 20
46.500034
 30
0.0
  0
INSERT
  5
29D
330
36
100
AcDbEntity
  8
0
100
AcDbBlockReference
  2
D22
 10
65.39991999999999
 20
46.999906
 30
0.0
  0
INSERT
  5
29E
330
36
100
AcDbEntity
  8
0
100
AcDbBlockReference
  2
D22
 10
65.39991999999999
 20
47.500032
 30
0.0
  0
INSERT
  5
29F
330
36
100
AcDbEntity
  8
0
100
AcDbBlockReference
  2
D22
 10
65.39991999999999
 20
47.999904
 30
0.0
  0
INSERT
  5
2A0
330
36
100
AcDbEntity
  8
0
100
AcDbBlockReference
  2
D22
 10
65.39991999999999
 20
48.50003
 30
0.0
  0
INSERT
  5
2A1
330
36
100
AcDbEntity
  8
0
100
AcDbBlockReference
  2
D22
 10
65.39991999999999
 20
48.999902
 30
0.0
  0
INSERT
  5
2A2
330
36
100
AcDbEntity
  8
0
100
AcDbBlockReference
  2
D22
 10
65.39991999999999
 20
49.500028
 30
0.0
  0
INSERT
  5
2A3
330
36
100
AcDbEntity
  8
0
100
AcDbBlockReference
  2
D22
 10
65.39991999999999
 20
49.9999
 30
0.0
  0
INSERT
  5
2A4
330
36
100
AcDbEntity
  8
0
100
AcDbBlockReference
  2
D22
 10
65.39991999999999
 20
50.500026
 30
0.0
  0
INSERT
  5
2A5
330
36
100
AcDbEntity
  8
0
100
AcDbBlockReference
  2
D22
 10
65.39991999999999
 20
50.99989799999999
 30
0.0
  0
INSERT
  5
2A6
330
36
100
AcDbEntity
  8
0
100
AcDbBlockReference
  2
D22
 10
65.39991999999999
 20
51.50002399999999
 30
0.0
  0
INSERT
  5
2A7
330
36
100
AcDbEntity
  8
0
100
AcDbBlockReference
  2
D22
 10
65.39991999999999
 20
51.999896
 30
0.0
  0
INSERT
  5
2A8
330
36
100
AcDbEntity
  8
0
100
AcDbBlockReference
  2
D22
 10
65.39991999999999
 20
52.50002199999999
 30
0.0
  0
INSERT
  5
2A9
330
36
100
AcDbEntity
  8
0
100
AcDbBlockReference
  2
D22
 10
65.39991999999999
 20
52.999894
 30
0.0
  0
INSERT
  5
2AA
330
36
100
AcDbEntity
  8
0
100
AcDbBlockReference
  2
D22
 10
80.60004199999999
 20
52.999894
 30
0.0
  0
INSERT
  5
2AB
330
36
100
AcDbEntity
  8
0
100
AcDbBlockReference
  2
D22
 10
80.60004199999999
 20
52.50002199999999
 30
0.0
  0
INSERT
  5
2AC
330
36
100
AcDbEntity
  8
0
100
AcDbBlockReference
  2
D22
 10
80.60004199999999
 20
51.999896
 30
0.0
  0
INSERT
  5
2AD
330
36
100
AcDbEntity
  8
0
100
AcDbBlockReference
  2
D22
 10
80.60004199999999
 20
51.50002399999999
 30
0.0
  0
INSERT
  5
2AE
330
36
100
AcDbEntity
  8
0
100
AcDbBlockReference
  2
D22
 10
80.60004199999999
 20
50.99989799999999
 30
0.0
  0
INSERT
  5
2AF
330
36
100
AcDbEntity
  8
0
100
AcDbBlockReference
  2
D22
 10
80.60004199999999
 20
50.500026
 30
0.0
  0
INSERT
  5
2B0
330
36
100
AcDbEntity
  8
0
100
AcDbBlockReference
  2
D22
 10
80.60004199999999
 20
49.9999
 30
0.0
  0
INSERT
  5
2B1
330
36
100
AcDbEntity
  8
0
100
AcDbBlockReference
  2
D22
 10
80.60004199999999
 20
49.500028
 30
0.0
  0
INSERT
  5
2B2
330
36
100
AcDbEntity
  8
0
100
AcDbBlockReference
  2
D22
 10
80.60004199999999
 20
48.999902
 30
0.0
  0
INSERT
  5
2B3
330
36
100
AcDbEntity
  8
0
100
AcDbBlockReference
  2
D22
 10
80.60004199999999
 20
48.50003
 30
0.0
  0
INSERT
  5
2B4
330
36
100
AcDbEntity
  8
0
100
AcDbBlockReference
  2
D22
 10
80.60004199999999
 20
47.999904
 30
0.0
  0
INSERT
  5
2B5
330
36
100
AcDbEntity
  8
0
100
AcDbBlockReference
  2
D22
 10
80.60004199999999
 20
47.500032
 30
0.0
  0
INSERT
  5
2B6
330
36
100
AcDbEntity
  8
0
100
AcDbBlockReference
  2
D22
 10
80.60004199999999
 20
46.999906
 30
0.0
  0
INSERT
  5
2B7
330
36
100
AcDbEntity
  8
0
100
AcDbBlockReference
  2
D22
 10
80.60004199999999
 20
46.500034
 30
0.0
  0
INSERT
  5
2B8
330
36
100
AcDbEntity
  8
0
100
AcDbBlockReference
  2
D22
 10
80.60004199999999
 20
45.999908
 30
0.0
  0
INSERT
  5
2B9
330
36
100
AcDbEntity
  8
0
100
AcDbBlockReference
  2
D22
 10
80.60004199999999
 20
45.500036
 30
0.0
  0
INSERT
  5
2BA
330
36
100
AcDbEntity
  8
0
100
AcDbBlockReference
  2
D22
 10
80.60004199999999
 20
44.99991
 30
0.0
  0
INSERT
  5
2BB
330
36
100
AcDbEntity
  8
0
100
AcDbBlockReference
  2
D22
 10
80.60004199999999
 20
44.500038
 30
0.0
  0
INSERT
  5
2BC
330
36
100
AcDbEntity
  8
0
100
AcDbBlockReference
  2
D22
 10
80.60004199999999
 20
43.999912
 30
0.0
  0
INSERT
  5
2BD
330
36
100
AcDbEntity
  8
0
100
AcDbBlockReference
  2
D22
 10
80.60004199999999
 20
43.50004000000001
 30
0.0
  0
INSERT
  5
2BE
330
36
100
AcDbEntity
  8
0
100
AcDbBlockReference
  2
D22
 10
80.60004199999999
 20
42.999914
 30
0.0
  0
INSERT
  5
2BF
330
36
100
AcDbEntity
  8
0
100
AcDbBlockReference
  2
D22
 10
80.60004199999999
 20
42.500042
 30
0.0
  0
INSERT
  5
2C0
330
36
100
AcDbEntity
  8
0
100
AcDbBlockReference
  2
D22
 10
80.60004199999999
 20
41.99991599999999
 30
0.0
  0
INSERT
  5
2C1
330
36
100
AcDbEntity
  8
0
100
AcDbBlockReference
  2
D22
 10
80.60004199999999
 20
41.500044
 30
0.0
  0
INSERT
  5
2C2
330
36
100
AcDbEntity
  8
0
100
AcDbBlockReference
  2
D22
 10
80.60004199999999
 20
40.999918
 30
0.0
  0
INSERT
  5
2C3
330
36
100
AcDbEntity
  8
0
100
AcDbBlockReference
  2
D23
 10
90.00007399999999
 20
17.349978
 30
0.0
  0
INSERT
  5
2C4
330
36
100
AcDbEntity
  8
0
100
AcDbBlockReference
  2
D23
 10
90.00007399999999
 20
14.649958
 30
0.0
  0
INSERT
  5
2C5
330
36
100
AcDbEntity
  8
0
100
AcDbBlockReference
  2
D23
 10
102.199948
 20
14.550136
 30
0.0
  0
INSERT
  5
2C6
330
36
100
AcDbEntity
  8
0
100
AcDbBlockReference
  2
D23
 10
102.199948
 20
17.250156
 30
0.0
  0
INSERT
  5
2C7
330
36
100
AcDbEntity
  8
0
100
AcDbBlockReference
  2
D24
 10
121.249948
 20
12.999974
 30
0.0
  0
INSERT
  5
2C8
330
36
100
AcDbEntity
  8
0
100
AcDbBlockReference
  2
D24
 10
116.750084
 20
12.999974
 30
0.0
  0
INSERT
  5
2C9
330
36
100
AcDbEntity
  8
0
100
AcDbBlockReference
  2
D25
 10
18.416016
 20
8.066024
 30
0.0
  0
INSERT
  5
2CA
330
36
100
AcDbEntity
  8
0
100
AcDbBlockReference
  2
D26
 10
28.71597
 20
11.466068
 30
0.0
  0
INSERT
  5
2CB
330
36
100
AcDbEntity
  8
0
100
AcDbBlockReference
  2
D26
 10
28.71597
 20
9.766046000000001
 30
0.0
  0
INSERT
  5
2CC
330
36
100
AcDbEntity
  8
0
100
AcDbBlockReference
  2
D26
 10
28.71597
 20
8.066024
 30
0.0
  0
INSERT
  5
2CD
330
36
100
AcDbEntity
  8
0
100
AcDbBlockReference
  2
D26
 10
28.71597
 20
6.366001999999999
 30
0.0
  0
INSERT
  5
2CE
330
36
100
AcDbEntity
  8
0
100
AcDbBlockReference
  2
D26
 10
28.71597
 20
4.66598
 30
0.0
  0
INSERT
  5
2CF
330
36
100
AcDbEntity
  8
0
100
AcDbBlockReference
  2
D27
 10
122.050048
 20
20.294854
 30
0.0
  0
INSERT
  5
2D0
330
36
100
AcDbEntity
  8
0
100
AcDbBlockReference
  2
D27
 10
122.050048
 20
21.564854
 30
0.0
  0
INSERT
  5
2D1
330
36
100
AcDbEntity
  8
0
100
AcDbBlockReference
  2
D27
 10
122.050048
 20
22.835108
 30
0.0
  0
INSERT
  5
2D2
330
36
100
AcDbEntity
  8
0
100
AcDbBlockReference
  2
D27
 10
122.050048
 20
24.105108
 30
0.0
  0
INSERT
  5
2D3
330
36
100
AcDbEntity
  8
0
100
AcDbBlockReference
  2
D27
 10
116.949982
 20
20.294854
 30
0.0
  0
INSERT
  5
2D4
330
36
100
AcDbEntity
  8
0
100
AcDbBlockReference
  2
D27
 10
116.949982
 20
21.564854
 30
0.0
  0
INSERT
  5
2D5
330
36
100
AcDbEntity
  8
0
100
AcDbBlockReference
  2
D27
 10
116.949982
 20
22.835108
 30
0.0
  0
INSERT
  5
2D6
330
36
100
AcDbEntity
  8
0
100
AcDbBlockReference
  2
D27
 10
116.949982
 20
24.105108
 30
0.0
  0
INSERT
  5
2D7
330
36
100
AcDbEntity
  8
0
100
AcDbBlockReference
  2
D28
 10
50.99989799999999
 20
46.099984
 30
0.0
  0
INSERT
  5
2D8
330
36
100
AcDbEntity
  8
0
100
AcDbBlockReference
  2
D28
 10
50.99989799999999
 20
37.999924
 30
0.0
  0
INSERT
  5
2D9
330
36
100
AcDbEntity
  8
0
100
AcDbBlockReference
  2
D29
 10
105.899966
 20
38.999922
 30
0.0
  0
INSERT
  5
2DA
330
36
100
AcDbEntity
  8
0
100
AcDbBlockReference
  2
D29
 10
114.000026
 20
38.999922
 30
0.0
  0
INSERT
  5
2DB
330
36
100
AcDbEntity
  8
0
100
AcDbBlockReference
  2
D30
 10
61.099954
 20
8.999982000000001
 30
0.0
  0
INSERT
  5
2DC
330
36
100
AcDbEntity
  8
0
100
AcDbBlockReference
  2
D30
 10
58.600086
 20
19.100038
 30
0.0
  0
INSERT
  5
2DD
330
36
100
AcDbEntity
  8
0
100
AcDbBlockReference
  2
D31
 10
60.000134
 20
1.500124
 30
0.0
  0
INSERT
  5
2DE
330
36
100
AcDbEntity
  8
0
100
AcDbBlockReference
  2
D31
 10
86.19998
 20
1.500124
 30
0.0
  0
INSERT
  5
2DF
330
36
100
AcDbEntity
  8
0
100
AcDbBlockReference
  2
D32
 10
62.799976
 20
12.899898
 30
0.0
  0
INSERT
  5
2E0
330
36
100
AcDbEntity
  8
0
100
AcDbBlockReference
  2
D32
 10
64.499998
 20
12.899898
 30
0.0
  0
INSERT
  5
2E1
330
36
100
AcDbEntity
  8
0
100
AcDbBlockReference
  2
D32
 10
66.90004399999999
 20
12.899898
 30
0.0
  0
INSERT
  5
2E2
330
36
100
AcDbEntity
  8
0
100
AcDbBlockReference
  2
D32
 10
69.399912
 20
12.899898
 30
0.0
  0
INSERT
  5
2E3
330
36
100
AcDbEntity
  8
0
100
AcDbBlockReference
  2
D32
 10
71.90003399999999
 20
12.899898
 30
0.0
  0
INSERT
  5
2E4
330
36
100
AcDbEntity
  8
0
100
AcDbBlockReference
  2
D32
 10
74.399902
 20
12.899898
 30
0.0
  0
INSERT
  5
2E5
330
36
100
AcDbEntity
  8
0
100
AcDbBlockReference
  2
D32
 10
76.900024
 20
12.899898
 30
0.0
  0
INSERT
  5
2E6
330
36
100
AcDbEntity
  8
0
100
AcDbBlockReference
  2
D32
 10
79.39989200000001
 20
12.899898
 30
0.0
  0
INSERT
  5
2E7
330
36
100
AcDbEntity
  8
0
100
AcDbBlockReference
  2
D32
 10
81.90001399999999
 20
12.899898
 30
0.0
  0
INSERT
  5
2E8
330
36
100
AcDbEntity
  8
0
100
AcDbBlockReference
  2
D33
 10
67.200018
 20
27.999944
 30
0.0
  0
INSERT
  5
2E9
330
36
100
AcDbEntity
  8
0
100
AcDbBlockReference
  2
D34
 10
61.399928
 20
28.50007
 30
0.0
  0
INSERT
  5
2EA
330
36
100
AcDbEntity
  8
0
100
AcDbBlockReference
  2
D34
 10
83.600036
 20
28.50007
 30
0.0
  0
INSERT
  5
2EB
330
36
100
AcDbEntity
  8
0
100
AcDbBlockReference
  2
D35
 10
14.99997
 20
48.538892
 30
0.0
  0
INSERT
  5
2EC
330
36
100
AcDbEntity
  8
0
100
AcDbBlockReference
  2
D35
 10
15.500096
 20
48.538892
 30
0.0
  0
INSERT
  5
2ED
330
36
100
AcDbEntity
  8
0
100
AcDbBlockReference
  2
D35
 10
15.999968
 20
48.538892
 30
0.0
  0
INSERT
  5
2EE
330
36
100
AcDbEntity
  8
0
100
AcDbBlockReference
  2
D35
 10
16.500094
 20
48.538892
 30
0.0
  0
INSERT
  5
2EF
330
36
100
AcDbEntity
  8
0
100
AcDbBlockReference
  2
D35
 10
16.999966
 20
48.538892
 30
0.0
  0
INSERT
  5
2F0
330
36
100
AcDbEntity
  8
0
100
AcDbBlockReference
  2
D35
 10
17.500092
 20
48.538892
 30
0.0
  0
INSERT
  5
2F1
330
36
100
AcDbEntity
  8
0
100
AcDbBlockReference
  2
D35
 10
17.999964
 20
48.538892
 30
0.0
  0
INSERT
  5
2F2
330
36
100
AcDbEntity
  8
0
100
AcDbBlockReference
  2
D35
 10
18.50009
 20
48.538892
 30
0.0
  0
INSERT
  5
2F3
330
36
100
AcDbEntity
  8
0
100
AcDbBlockReference
  2
D35
 10
18.999962
 20
48.538892
 30
0.0
  0
INSERT
  5
2F4
330
36
100
AcDbEntity
  8
0
100
AcDbBlockReference
  2
D35
 10
19.500088
 20
48.538892
 30
0.0
  0
INSERT
  5
2F5
330
36
100
AcDbEntity
  8
0
100
AcDbBlockReference
  2
D35
 10
19.99996
 20
48.538892
 30
0.0
  0
INSERT
  5
2F6
330
36
100
AcDbEntity
  8
0
100
AcDbBlockReference
  2
D35
 10
20.500086
 20
48.538892
 30
0.0
  0
INSERT
  5
2F7
330
36
100
AcDbEntity
  8
0
100
AcDbBlockReference
  2
D35
 10
20.999958
 20
48.538892
 30
0.0
  0
INSERT
  5
2F8
330
36
100
AcDbEntity
  8
0
100
AcDbBlockReference
  2
D35
 10
21.500084
 20
48.538892
 30
0.0
  0
INSERT
  5
2F9
330
36
100
AcDbEntity
  8
0
100
AcDbBlockReference
  2
D35
 10
21.999956
 20
48.538892
 30
0.0
  0
INSERT
  5
2FA
330
36
100
AcDbEntity
  8
0
100
AcDbBlockReference
  2
D35
 10
22.500082
 20
48.538892
 30
0.0
  0
INSERT
  5
2FB
330
36
100
AcDbEntity
  8
0
100
AcDbBlockReference
  2
D35
 10
22.999954
 20
48.538892
 30
0.0
  0
INSERT
  5
2FC
330
36
100
AcDbEntity
  8
0
100
AcDbBlockReference
  2
D35
 10
23.50008
 20
48.538892
 30
0.0
  0
INSERT
  5
2FD
330
36
100
AcDbEntity
  8
0
100
AcDbBlockReference
  2
D35
 10
23.999952
 20
48.538892
 30
0.0
  0
INSERT
  5
2FE
330
36
100
AcDbEntity
  8
0
100
AcDbBlockReference
  2
D35
 10
24.500078
 20
48.538892
 30
0.0
  0
INSERT
  5
2FF
330
36
100
AcDbEntity
  8
0
100
AcDbBlockReference
  2
D35
 10
24.99995
 20
48.538892
 30
0.0
  0
INSERT
  5
300
330
36
100
AcDbEntity
  8
0
100
AcDbBlockReference
  2
D35
 10
25.500076
 20
48.538892
 30
0.0
  0
INSERT
  5
301
330
36
100
AcDbEntity
  8
0
100
AcDbBlockReference
  2
D35
 10
25.999948
 20
48.538892
 30
0.0
  0
INSERT
  5
302
330
36
100
AcDbEntity
  8
0
100
AcDbBlockReference
  2
D35
 10
26.500074
 20
48.538892
 30
0.0
  0
INSERT
  5
303
330
36
100
AcDbEntity
  8
0
100
AcDbBlockReference
  2
D35
 10
26.999946
 20
48.538892
 30
0.0
  0
INSERT
  5
304
330
36
100
AcDbEntity
  8
0
100
AcDbBlockReference
  2
D35
 10
27.500072
 20
48.538892
 30
0.0
  0
INSERT
  5
305
330
36
100
AcDbEntity
  8
0
100
AcDbBlockReference
  2
D35
 10
27.999944
 20
48.538892
 30
0.0
  0
INSERT
  5
306
330
36
100
AcDbEntity
  8
0
100
AcDbBlockReference
  2
D35
 10
28.50007
 20
48.538892
 30
0.0
  0
INSERT
  5
307
330
36
100
AcDbEntity
  8
0
100
AcDbBlockReference
  2
D35
 10
28.999942
 20
48.538892
 30
0.0
  0
INSERT
  5
308
330
36
100
AcDbEntity
  8
0
100
AcDbBlockReference
  2
D35
 10
29.500068
 20
48.538892
 30
0.0
  0
INSERT
  5
309
330
36
100
AcDbEntity
  8
0
100
AcDbBlockReference
  2
D35
 10
29.500068
 20
53.999892
 30
0.0
  0
INSERT
  5
30A
330
36
100
AcDbEntity
  8
0
100
AcDbBlockReference
  2
D35
 10
28.999942
 20
53.999892
 30
0.0
  0
INSERT
  5
30B
330
36
100
AcDbEntity
  8
0
100
AcDbBlockReference
  2
D35
 10
28.50007
 20
53.999892
 30
0.0
  0
INSERT
  5
30C
330
36
100
AcDbEntity
  8
0
100
AcDbBlockReference
  2
D35
 10
27.999944
 20
53.999892
 30
0.0
  0
INSERT
  5
30D
330
36
100
AcDbEntity
  8
0
100
AcDbBlockReference
  2
D35
 10
27.500072
 20
53.999892
 30
0.0
  0
INSERT
  5
30E
330
36
100
AcDbEntity
  8
0
100
AcDbBlockReference
  2
D35
 10
26.999946
 20
53.999892
 30
0.0
  0
INSERT
  5
30F
330
36
100
AcDbEntity
  8
0
100
AcDbBlockReference
  2
D35
 10
26.500074
 20
53.999892
 30
0.0
  0
INSERT
  5
310
330
36
100
AcDbEntity
  8
0
100
AcDbBlockReference
  2
D35
 10
25.999948
 20
53.999892
 30
0.0
  0
INSERT
  5
311
330
36
100
AcDbEntity
  8
0
100
AcDbBlockReference
  2
D35
 10
25.500076
 20
53.999892
 30
0.0
  0
INSERT
  5
312
330
36
100
AcDbEntity
  8
0
100
AcDbBlockReference
  2
D35
 10
24.99995
 20
53.999892
 30
0.0
  0
INSERT
  5
313
330
36
100
AcDbEntity
  8
0
100
AcDbBlockReference
  2
D35
 10
24.500078
 20
53.999892
 30
0.0
  0
INSERT
  5
314
330
36
100
AcDbEntity
  8
0
100
AcDbBlockReference
  2
D35
 10
23.999952
 20
53.999892
 30
0.0
  0
INSERT
  5
315
330
36
100
AcDbEntity
  8
0
100
AcDbBlockReference
  2
D35
 10
23.50008
 20
53.999892
 30
0.0
  0
INSERT
  5
316
330
36
100
AcDbEntity
  8
0
100
AcDbBlockReference
  2
D35
 10
22.999954
 20
53.999892
 30
0.0
  0
INSERT
  5
317
330
36
100
AcDbEntity
  8
0
100
AcDbBlockReference
  2
D35
 10
22.500082
 20
53.999892
 30
0.0
  0
INSERT
  5
318
330
36
100
AcDbEntity
  8
0
100
AcDbBlockReference
  2
D35
 10
21.999956
 20
53.999892
 30
0.0
  0
INSERT
  5
319
330
36
100
AcDbEntity
  8
0
100
AcDbBlockReference
  2
D35
 10
21.500084
 20
53.999892
 30
0.0
  0
INSERT
  5
31A
330
36
100
AcDbEntity
  8
0
100
AcDbBlockReference
  2
D35
 10
20.999958
 20
53.999892
 30
0.0
  0
INSERT
  5
31B
330
36
100
AcDbEntity
  8
0
100
AcDbBlockReference
  2
D35
 10
20.500086
 20
53.999892
 30
0.0
  0
INSERT
  5
31C
330
36
100
AcDbEntity
  8
0
100
AcDbBlockReference
  2
D35
 10
19.99996
 20
53.999892
 30
0.0
  0
INSERT
  5
31D
330
36
100
AcDbEntity
  8
0
100
AcDbBlockReference
  2
D35
 10
19.500088
 20
53.999892
 30
0.0
  0
INSERT
  5
31E
330
36
100
AcDbEntity
  8
0
100
AcDbBlockReference
  2
D35
 10
18.999962
 20
53.999892
 30
0.0
  0
INSERT
  5
31F
330
36
100
AcDbEntity
  8
0
100
AcDbBlockReference
  2
D35
 10
18.50009
 20
53.999892
 30
0.0
  0
INSERT
  5
320
330
36
100
AcDbEntity
  8
0
100
AcDbBlockReference
  2
D35
 10
17.999964
 20
53.999892
 30
0.0
  0
INSERT
  5
321
330
36
100
AcDbEntity
  8
0
100
AcDbBlockReference
  2
D35
 10
17.500092
 20
53.999892
 30
0.0
  0
INSERT
  5
322
330
36
100
AcDbEntity
  8
0
100
AcDbBlockReference
  2
D35
 10
16.999966
 20
53.999892
 30
0.0
  0
INSERT
  5
323
330
36
100
AcDbEntity
  8
0
100
AcDbBlockReference
  2
D35
 10
16.500094
 20
53.999892
 30
0.0
  0
INSERT
  5
324
330
36
100
AcDbEntity
  8
0
100
AcDbBlockReference
  2
D35
 10
15.999968
 20
53.999892
 30
0.0
  0
INSERT
  5
325
330
36
100
AcDbEntity
  8
0
100
AcDbBlockReference
  2
D35
 10
15.500096
 20
53.999892
 30
0.0
  0
INSERT
  5
326
330
36
100
AcDbEntity
  8
0
100
AcDbBlockReference
  2
D35
 10
14.99997
 20
53.999892
 30
0.0
  0
INSERT
  5
327
330
36
100
AcDbEntity
  8
0
100
AcDbBlockReference
  2
D36
 10
128.700022
 20
27.200098
 30
0.0
  0
INSERT
  5
328
330
36
100
AcDbEntity
  8
0
100
AcDbBlockReference
  2
D36
 10
128.800098
 20
21.699982
 30
0.0
  0
ENDSEC
  0
SECTION
  2
OBJECTS
  0
DICTIONARY
  5
C
330
0
100
AcDbDictionary
281
     1
  3
ACAD_COLOR
350
2F
  3
ACAD_GROUP
350
D
  3
ACAD_LAYOUT
350
2E
  3
ACAD_MATERIAL
350
10
  3
ACAD_MLINESTYLE
350
2B
  3
ACAD_PLOTSETTINGS
350
2D
  3
ACAD_PLOTSTYLENAME
350
E
  3
ACAD_TABLESTYLE
350
30
  3
ACAD_VISUALSTYLE
350
14
  3
AcDbVariableDictionary
350
330
  3
DWGPROPS
350
335
  0
DICTIONARY
  5
32B
330
2
100
AcDbDictionary
280
     1
281
     1
  3
ACAD_LAYERFILTERS
360
32F
  3
ACLYDICTIONARY
360
32E
  0
DICTIONARY
  5
2F
102
{ACAD_REACTORS
330
C
102
}
330
C
100
AcDbDictionary
281
     1
  0
DICTIONARY
  5
D
102
{ACAD_REACTORS
330
C
102
}
330
C
100
AcDbDictionary
281
     1
  0
DICTIONARY
  5
2E
102
{ACAD_REACTORS
330
C
102
}
330
C
100
AcDbDictionary
281
     1
  3
Layout1
350
35
  3
Model
350
39
  0
DICTIONARY
  5
10
102
{ACAD_REACTORS
330
C
102
}
330
C
100
AcDbDictionary
281
     1
  3
ByBlock
350
12
  3
ByLayer
350
11
  3
Global
350
13
  0
DICTIONARY
  5
2B
102
{ACAD_REACTORS
330
C
102
}
330
C
100
AcDbDictionary
281
     1
  3
Standard
350
2C
  0
DICTIONARY
  5
2D
102
{ACAD_REACTORS
330
C
102
}
330
C
100
AcDbDictionary
281
     1
  0
ACDBDICTIONARYWDFLT
  5
E
102
{ACAD_REACTORS
330
C
102
}
330
C
100
AcDbDictionary
281
     1
  3
Normal
350
F
100
AcDbDictionaryWithDefault
340
F
  0
DICTIONARY
  5
30
102
{ACAD_REACTORS
330
C
102
}
330
C
100
AcDbDictionary
281
     1
  3
Standard
350
31
  0
DICTIONARY
  5
14
102
{ACAD_REACTORS
330
C
102
}
330
C
100
AcDbDictionary
281
     1
  3
2dWireframe
350
1A
  3
3D Hidden
350
1C
  3
3dWireframe
350
1B
  3
Basic
350
19
  3
Brighten
350
20
  3
ColorChange
350
24
  3
Conceptual
350
1D
  3
Dim
350
1F
  3
Facepattern
350
23
  3
Flat
350
15
  3
FlatWithEdges
350
16
  3
Gouraud
350
17
  3
GouraudWithEdges
350
18
  3
Linepattern
350
22
  3
Realistic
350
1E
  3
Thicken
350
21
  0
DICTIONARY
  5
330
102
{ACAD_REACTORS
330
C
102
}
330
C
100
AcDbDictionary
281
     1
  3
CTABLESTYLE
350
331
  3
DIMASSOC
350
334
  3
INDEXCTL
350
333
  3
SORTENTS
350
332
  0
XRECORD
  5
335
102
{ACAD_REACTORS
330
C
102
}
330
C
100
AcDbXrecord
280
     1
  1
DWGPROPS COOKIE
  2

  3

  4

  6

  7

  8
Frankie
  9

300
=
301
=
302
=
303
=
304
=
305
=
306
=
307
=
308
=
309
=
 40
0.0003798726851852
 41
2455713.904861146
 42
2455713.905240718
  1

 90
        0
  0
DICTIONARY
  5
32F
102
{ACAD_REACTORS
330
32B
102
}
330
32B
100
AcDbDictionary
281
     1
  0
DICTIONARY
  5
32E
102
{ACAD_REACTORS
330
32B
102
}
330
32B
100
AcDbDictionary
281
     1
1001
ACAD
1000
<All
  0
LAYOUT
  5
35
102
{ACAD_XDICTIONARY
360
33E
102
}
102
{ACAD_REACTORS
330
2E
102
}
330
2E
100
AcDbPlotSettings
  1

  2
Microsoft XPS Document Writer
  4

  6

 40
0.0
 41
0.0
 42
0.0
 43
0.0
 44
0.0
 45
0.0
 46
0.0
 47
0.0
 48
0.0
 49
0.0
140
0.0
141
0.0
142
1.0
143
1.0
 70
   688
 72
     0
 73
     0
 74
     5
  7

 75
    16
147
1.0
148
0.0
149
0.0
100
AcDbLayout
  1
Layout1
 70
     1
 71
     1
 10
0.0
 20
0.0
 11
12.0
 21
9.0
 12
0.0
 22
0.0
 32
0.0
 14
1.000000000000000E+20
 24
1.000000000000000E+20
 34
1.000000000000000E+20
 15
-1.000000000000000E+20
 25
-1.000000000000000E+20
 35
-1.000000000000000E+20
146
0.0
 13
0.0
 23
0.0
 33
0.0
 16
1.0
 26
0.0
 36
0.0
 17
0.0
 27
1.0
 37
0.0
 76
     0
330
32
  0
LAYOUT
  5
39
102
{ACAD_XDICTIONARY
360
340
102
}
102
{ACAD_REACTORS
330
2E
102
}
330
2E
100
AcDbPlotSettings
  1

  2
Microsoft XPS Document Writer
  4

  6

 40
0.0
 41
0.0
 42
0.0
 43
0.0
 44
0.0
 45
0.0
 46
0.0
 47
0.0
 48
0.0
 49
0.0
140
0.0
141
0.0
142
1.0
143
1.0
 70
  1712
 72
     0
 73
     0
 74
     0
  7

 75
     0
147
1.0
148
0.0
149
0.0
100
AcDbLayout
  1
Model
 70
     1
 71
     0
 10
0.0
 20
0.0
 11
12.0
 21
9.0
 12
0.0
 22
0.0
 32
0.0
 14
0.0
 24
0.0
 34
0.0
 15
0.0
 25
0.0
 35
0.0
146
0.0
 13
0.0
 23
0.0
 33
0.0
 16
1.0
 26
0.0
 36
0.0
 17
0.0
 27
1.0
 37
0.0
 76
     0
330
36
331
3A
  0
MATERIAL
  5
12
102
{ACAD_XDICTIONARY
360
338
102
}
102
{ACAD_REACTORS
330
10
102
}
330
10
100
AcDbMaterial
  1
ByBlock
  0
MATERIAL
  5
11
102
{ACAD_XDICTIONARY
360
336
102
}
102
{ACAD_REACTORS
330
10
102
}
330
10
100
AcDbMaterial
  1
ByLayer
  0
MATERIAL
  5
13
102
{ACAD_XDICTIONARY
360
33A
102
}
102
{ACAD_REACTORS
330
10
102
}
330
10
100
AcDbMaterial
  1
Global
  0
MLINESTYLE
  5
2C
102
{ACAD_REACTORS
330
2B
102
}
330
2B
100
AcDbMlineStyle
  2
STANDARD
 70
     0
  3

 62
   256
 51
90.0
 52
90.0
 71
     2
 49
0.5
 62
   256
  6
BYLAYER
 49
-0.5
 62
   256
  6
BYLAYER
  0
ACDBPLACEHOLDER
  5
F
102
{ACAD_REACTORS
330
E
102
}
330
E
  0
TABLESTYLE
  5
31
102
{ACAD_XDICTIONARY
360
33C
102
}
102
{ACAD_REACTORS
330
30
102
}
330
30
100
AcDbTableStyle
  3
Standard
 70
     0
 71
     0
 40
0.06
 41
0.06
280
     0
281
     0
  7
Standard
140
0.18
170
     2
 62
     0
 63
     7
283
     0
274
    -2
284
     1
 64
     0
275
    -2
285
     1
 65
     0
276
    -2
286
     1
 66
     0
277
    -2
287
     1
 67
     0
278
    -2
288
     1
 68
     0
279
    -2
289
     1
 69
     0
  7
Standard
140
0.25
170
     5
 62
     0
 63
     7
283
     0
274
    -2
284
     1
 64
     0
275
    -2
285
     1
 65
     0
276
    -2
286
     1
 66
     0
277
    -2
287
     1
 67
     0
278
    -2
288
     1
 68
     0
279
    -2
289
     1
 69
     0
  7
Standard
140
0.18
170
     5
 62
     0
 63
     7
283
     0
274
    -2
284
     1
 64
     0
275
    -2
285
     1
 65
     0
276
    -2
286
     1
 66
     0
277
    -2
287
     1
 67
     0
278
    -2
288
     1
 68
     0
279
    -2
289
     1
 69
     0
  0
VISUALSTYLE
  5
1A
102
{ACAD_REACTORS
330
14
102
}
330
14
100
AcDbVisualStyle
  2
2dWireframe
 70
     4
 71
     0
 72
     2
 73
     0
 90
        0
 40
-0.6
 41
-30.0
 62
     5
 63
     7
 74
     1
 91
        4
 64
     7
 65
   257
 75
     1
175
     1
 42
1.0
 92
        0
 66
   257
 43
1.0
 76
     1
 77
     6
 78
     2
 67
     7
 79
     5
170
     0
171
     0
290
     0
174
     0
 93
        1
 44
0.0
173
     0
291
     0
 45
0.0
1001
ACAD
1000
AcDbSavedByObjectVersion
1070
     0
  0
VISUALSTYLE
  5
1C
102
{ACAD_REACTORS
330
14
102
}
330
14
100
AcDbVisualStyle
  2
3D Hidden
 70
     6
 71
     1
 72
     2
 73
     2
 90
        0
 40
-0.6
 41
-30.0
 62
     5
 63
     7
 74
     2
 91
        2
 64
     7
 65
   257
 75
     2
175
     1
 42
40.0
 92
        0
 66
   257
 43
1.0
 76
     1
 77
     6
 78
     2
 67
     7
 79
     3
170
     0
171
     0
290
     0
174
     0
 93
        1
 44
0.0
173
     0
291
     0
 45
0.0
1001
ACAD
1000
AcDbSavedByObjectVersion
1070
     0
  0
VISUALSTYLE
  5
1B
102
{ACAD_REACTORS
330
14
102
}
330
14
100
AcDbVisualStyle
  2
3dWireframe
 70
     5
 71
     0
 72
     2
 73
     0
 90
        0
 40
-0.6
 41
-30.0
 62
     5
 63
     7
 74
     1
 91
        4
 64
     7
 65
   257
 75
     1
175
     1
 42
1.0
 92
        0
 66
   257
 43
1.0
 76
     1
 77
     6
 78
     2
 67
     7
 79
     5
170
     0
171
     0
290
     0
174
     0
 93
        1
 44
0.0
173
     0
291
     0
 45
0.0
1001
ACAD
1000
AcDbSavedByObjectVersion
1070
     0
  0
VISUALSTYLE
  5
19
102
{ACAD_REACTORS
330
14
102
}
330
14
100
AcDbVisualStyle
  2
Basic
 70
     7
 71
     1
 72
     0
 73
     1
 90
        0
 40
-0.6
 41
-30.0
 62
     5
 63
     7
 74
     0
 91
        4
 64
     7
 65
   257
 75
     1
175
     1
 42
1.0
 92
        8
 66
     7
 43
1.0
 76
     1
 77
     6
 78
     2
 67
     7
 79
     5
170
     0
171
     0
290
     0
174
     0
 93
        1
 44
0.0
173
     0
291
     1
 45
0.0
1001
ACAD
1000
AcDbSavedByObjectVersion
1070
     0
  0
VISUALSTYLE
  5
20
102
{ACAD_REACTORS
330
14
102
}
330
14
100
AcDbVisualStyle
  2
Brighten
 70
    12
 71
     2
 72
     2
 73
     0
 90
        0
 40
-0.6
 41
-30.0
 62
     5
 63
     7
 74
     1
 91
        4
 64
     7
 65
   257
 75
     1
175
     1
 42
1.0
 92
        8
 66
     7
 43
1.0
 76
     1
 77
     6
 78
     2
 67
     7
 79
     5
170
     0
171
     0
290
     0
174
     0
 93
        1
 44
50.0
173
     0
291
     1
 45
0.0
1001
ACAD
1000
AcDbSavedByObjectVersion
1070
     0
  0
VISUALSTYLE
  5
24
102
{ACAD_REACTORS
330
14
102
}
330
14
100
AcDbVisualStyle
  2
ColorChange
 70
    16
 71
     2
 72
     2
 73
     3
 90
        0
 40
-0.6
 41
-30.0
 62
     5
 63
     8
 74
     1
 91
        4
 64
     7
 65
   257
 75
     1
175
     1
 42
1.0
 92
        8
 66
     8
 43
1.0
 76
     1
 77
     6
 78
     2
 67
     7
 79
     5
170
     0
171
     0
290
     0
174
     0
 93
        1
 44
0.0
173
     0
291
     1
 45
0.0
1001
ACAD
1000
AcDbSavedByObjectVersion
1070
     0
  0
VISUALSTYLE
  5
1D
102
{ACAD_REACTORS
330
14
102
}
330
14
100
AcDbVisualStyle
  2
Conceptual
 70
     9
 71
     3
 72
     2
 73
     0
 90
        0
 40
-0.6
 41
-30.0
 62
     5
 63
     7
 74
     2
 91
        2
 64
     7
 65
   257
 75
     1
175
     1
 42
40.0
 92
        8
 66
     7
 43
1.0
 76
     1
 77
     6
 78
     2
 67
     7
 79
     3
170
     0
171
     0
290
     0
174
     0
 93
        1
 44
0.0
173
     0
291
     0
 45
0.0
1001
ACAD
1000
AcDbSavedByObjectVersion
1070
     0
  0
VISUALSTYLE
  5
1F
102
{ACAD_REACTORS
330
14
102
}
330
14
100
AcDbVisualStyle
  2
Dim
 70
    11
 71
     2
 72
     2
 73
     0
 90
        0
 40
-0.6
 41
-30.0
 62
     5
 63
     7
 74
     1
 91
        4
 64
     7
 65
   257
 75
     1
175
     1
 42
1.0
 92
        8
 66
     7
 43
1.0
 76
     1
 77
     6
 78
     2
 67
     7
 79
     5
170
     0
171
     0
290
     0
174
     0
 93
        1
 44
-50.0
173
     0
291
     1
 45
0.0
1001
ACAD
1000
AcDbSavedByObjectVersion
1070
     0
  0
VISUALSTYLE
  5
23
102
{ACAD_REACTORS
330
14
102
}
330
14
100
AcDbVisualStyle
  2
Facepattern
 70
    15
 71
     2
 72
     2
 73
     0
 90
        0
 40
-0.6
 41
-30.0
 62
     5
 63
     7
 74
     1
 91
        4
 64
     7
 65
   257
 75
     1
175
     1
 42
1.0
 92
        8
 66
     7
 43
1.0
 76
     1
 77
     6
 78
     2
 67
     7
 79
     5
170
     0
171
     0
290
     0
174
     0
 93
        1
 44
0.0
173
     0
291
     1
 45
0.0
1001
ACAD
1000
AcDbSavedByObjectVersion
1070
     0
  0
VISUALSTYLE
  5
15
102
{ACAD_REACTORS
330
14
102
}
330
14
100
AcDbVisualStyle
  2
Flat
 70
     0
 71
     2
 72
     1
 73
     1
 90
        2
 40
-0.6
 41
30.0
 62
     5
 63
     7
 74
     0
 91
        4
 64
     7
 65
   257
 75
     1
175
     1
 42
1.0
 92
        8
 66
     7
 43
1.0
 76
     1
 77
     6
 78
     2
 67
     7
 79
     5
170
     0
171
     0
290
     0
174
     0
 93
       13
 44
0.0
173
     0
291
     1
 45
0.0
1001
ACAD
1000
AcDbSavedByObjectVersion
1070
     0
  0
VISUALSTYLE
  5
16
102
{ACAD_REACTORS
330
14
102
}
330
14
100
AcDbVisualStyle
  2
FlatWithEdges
 70
     1
 71
     2
 72
     1
 73
     1
 90
        2
 40
-0.6
 41
30.0
 62
     5
 63
     7
 74
     1
 91
        4
 64
     7
 65
   257
 75
     1
175
     1
 42
1.0
 92
        0
 66
   257
 43
1.0
 76
     1
 77
     6
 78
     2
 67
     7
 79
     5
170
     0
171
     0
290
     0
174
     0
 93
       13
 44
0.0
173
     0
291
     1
 45
0.0
1001
ACAD
1000
AcDbSavedByObjectVersion
1070
     0
  0
VISUALSTYLE
  5
17
102
{ACAD_REACTORS
330
14
102
}
330
14
100
AcDbVisualStyle
  2
Gouraud
 70
     2
 71
     2
 72
     2
 73
     1
 90
        2
 40
-0.6
 41
30.0
 62
     5
 63
     7
 74
     0
 91
        4
 64
     7
 65
   257
 75
     1
175
     1
 42
1.0
 92
        0
 66
     7
 43
1.0
 76
     1
 77
     6
 78
     2
 67
     7
 79
     5
170
     0
171
     0
290
     0
174
     0
 93
       13
 44
0.0
173
     0
291
     1
 45
0.0
1001
ACAD
1000
AcDbSavedByObjectVersion
1070
     0
  0
VISUALSTYLE
  5
18
102
{ACAD_REACTORS
330
14
102
}
330
14
100
AcDbVisualStyle
  2
GouraudWithEdges
 70
     3
 71
     2
 72
     2
 73
     1
 90
        2
 40
-0.6
 41
30.0
 62
     5
 63
     7
 74
     1
 91
        4
 64
     7
 65
   257
 75
     1
175
     1
 42
1.0
 92
        0
 66
   257
 43
1.0
 76
     1
 77
     6
 78
     2
 67
     7
 79
     5
170
     0
171
     0
290
     0
174
     0
 93
       13
 44
0.0
173
     0
291
     1
 45
0.0
1001
ACAD
1000
AcDbSavedByObjectVersion
1070
     0
  0
VISUALSTYLE
  5
22
102
{ACAD_REACTORS
330
14
102
}
330
14
100
AcDbVisualStyle
  2
Linepattern
 70
    14
 71
     2
 72
     2
 73
     0
 90
        0
 40
-0.6
 41
-30.0
 62
     5
 63
     7
 74
     1
 91
        4
 64
     7
 65
   257
 75
     7
175
     7
 42
1.0
 92
        8
 66
     7
 43
1.0
 76
     1
 77
     6
 78
     2
 67
     7
 79
     5
170
     0
171
     0
290
     0
174
     0
 93
        1
 44
0.0
173
     0
291
     1
 45
0.0
1001
ACAD
1000
AcDbSavedByObjectVersion
1070
     0
  0
VISUALSTYLE
  5
1E
102
{ACAD_REACTORS
330
14
102
}
330
14
100
AcDbVisualStyle
  2
Realistic
 70
     8
 71
     2
 72
     2
 73
     0
 90
        0
 40
-0.6
 41
-30.0
 62
     5
 63
     7
 74
     1
 91
        0
 64
     7
 65
   257
 75
     1
175
     1
 42
1.0
 92
        8
 66
     8
 43
1.0
 76
     1
 77
     6
 78
     2
 67
     7
 79
     5
170
     0
171
     0
290
     0
174
     0
 93
       13
 44
0.0
173
     0
291
     0
 45
0.0
1001
ACAD
1000
AcDbSavedByObjectVersion
1070
     0
  0
VISUALSTYLE
  5
21
102
{ACAD_REACTORS
330
14
102
}
330
14
100
AcDbVisualStyle
  2
Thicken
 70
    13
 71
     2
 72
     2
 73
     0
 90
        0
 40
-0.6
 41
-30.0
 62
     5
 63
     7
 74
     1
 91
        4
 64
     7
 65
   257
 75
     1
175
     1
 42
1.0
 92
       12
 66
     7
 43
1.0
 76
     1
 77
     6
 78
     2
 67
     7
 79
     5
170
     0
171
     0
290
     0
174
     0
 93
        1
 44
0.0
173
     0
291
     1
 45
0.0
1001
ACAD
1000
AcDbSavedByObjectVersion
1070
     0
  0
DICTIONARYVAR
  5
331
102
{ACAD_REACTORS
330
330
102
}
330
330
100
DictionaryVariables
280
     0
  1
STANDARD
  0
DICTIONARYVAR
  5
334
102
{ACAD_REACTORS
330
330
102
}
330
330
100
DictionaryVariables
280
     0
  1
1
  0
DICTIONARYVAR
  5
333
102
{ACAD_REACTORS
330
330
102
}
330
330
100
DictionaryVariables
280
     0
  1
0
  0
DICTIONARYVAR
  5
332
102
{ACAD_REACTORS
330
330
102
}
330
330
100
DictionaryVariables
280
     0
  1
127
  0
DICTIONARY
  5
33E
330
35
100
AcDbDictionary
280
     1
281
     1
  3
ACAD_XREC_ROUNDTRIP
360
33F
  0
DICTIONARY
  5
340
330
39
100
AcDbDictionary
280
     1
281
     1
  3
ACAD_XREC_ROUNDTRIP
360
341
  0
DICTIONARY
  5
338
330
12
100
AcDbDictionary
280
     1
281
     1
  3
ACAD_XREC_ROUNDTRIP
360
339
  0
DICTIONARY
  5
336
330
11
100
AcDbDictionary
280
     1
281
     1
  3
ACAD_XREC_ROUNDTRIP
360
337
  0
DICTIONARY
  5
33A
330
13
100
AcDbDictionary
280
     1
281
     1
  3
ACAD_XREC_ROUNDTRIP
360
33B
  0
DICTIONARY
  5
33C
330
31
100
AcDbDictionary
280
     1
281
     1
  3
ACAD_XREC_ROUNDTRIP
360
33D
  0
XRECORD
  5
33F
102
{ACAD_REACTORS
330
33E
102
}
330
33E
100
AcDbXrecord
280
     1
102
SHADEPLOT
 70
     0
102
SHADEPLOTRESLEVEL
 70
     2
102
SHADEPLOTCUSTOMDPI
 70
   300
  0
XRECORD
  5
341
102
{ACAD_REACTORS
330
340
102
}
330
340
100
AcDbXrecord
280
     1
102
SHADEPLOT
 70
     0
102
SHADEPLOTRESLEVEL
 70
     2
102
SHADEPLOTCUSTOMDPI
 70
   300
  0
XRECORD
  5
339
102
{ACAD_REACTORS
330
338
102
}
330
338
100
AcDbXrecord
280
     1
102
MATERIAL
148
0.0
149
0.0
149
0.0
 93
        0
 94
       63
282
     0
 72
     1
 77
     1
171
     1
175
     1
179
     1
273
     0
  0
XRECORD
  5
337
102
{ACAD_REACTORS
330
336
102
}
330
336
100
AcDbXrecord
280
     1
102
MATERIAL
148
0.0
149
0.0
149
0.0
 93
        0
 94
       63
282
     0
 72
     1
 77
     1
171
     1
175
     1
179
     1
273
     0
  0
XRECORD
  5
33B
102
{ACAD_REACTORS
330
33A
102
}
330
33A
100
AcDbXrecord
280
     1
102
MATERIAL
148
0.0
149
0.0
149
0.0
 93
        0
 94
       63
282
     0
 72
     1
 77
     1
171
     1
175
     1
179
     1
273
     0
  0
XRECORD
  5
33D
102
{ACAD_REACTORS
330
33C
102
}
330
33C
100
AcDbXrecord
280
     1
102
ACAD_ROUNDTRIP_PRE2007_TABLESTYLE
 90
      512
 91
        0
  1

 92
      512
 93
        0
  2

 94
      512
 95
        0
  3

  0
ENDSEC
  0
EOF
