%FSLAX25Y25*%
%MOIN*%
G70*
G01*
G75*
G04 Layer_Color=65535*
%ADD10R,0.05906X0.07480*%
%ADD11R,0.07480X0.05906*%
%ADD12R,0.04331X0.06693*%
%ADD13R,0.06299X0.06299*%
%ADD14R,0.04331X0.03937*%
%ADD15R,0.08661X0.10236*%
%ADD16R,0.02756X0.05118*%
%ADD17R,0.09449X0.10236*%
%ADD18O,0.02362X0.07677*%
%ADD19O,0.07677X0.02362*%
%ADD20R,0.05118X0.02756*%
%ADD21O,0.01181X0.08268*%
%ADD22O,0.08268X0.01181*%
%ADD23R,0.06693X0.04331*%
%ADD24R,0.09055X0.09055*%
%ADD25R,0.33071X0.41929*%
%ADD26R,0.14961X0.04134*%
%ADD27O,0.09055X0.02756*%
%ADD28R,0.03150X0.18110*%
%ADD29R,0.18110X0.03150*%
%ADD30R,0.08858X0.03150*%
%ADD31R,0.10630X0.13780*%
%ADD32R,0.03150X0.09449*%
%ADD33R,0.03150X0.03937*%
%ADD34R,0.09449X0.07874*%
%ADD35R,0.00984X0.05512*%
%ADD36R,0.08661X0.05906*%
%ADD37C,0.01575*%
%ADD38C,0.00598*%
%ADD39C,0.03937*%
%ADD40C,0.03150*%
%ADD41C,0.00787*%
%ADD42C,0.02756*%
%ADD43C,0.12598*%
%ADD44R,0.05906X0.05906*%
%ADD45C,0.05906*%
%ADD46R,0.05906X0.05906*%
%ADD47C,0.19685*%
%ADD48C,0.06000*%
%ADD49C,0.13780*%
%ADD50C,0.09055*%
%ADD51C,0.12661*%
%ADD52P,0.06213X8X112.5*%
%ADD53O,0.04724X0.09843*%
%ADD54C,0.05000*%
%ADD55R,0.05709X0.07677*%
%ADD56R,0.04724X0.11024*%
%ADD57R,0.11024X0.11024*%
%ADD58C,0.00984*%
%ADD59C,0.02362*%
%ADD60C,0.01000*%
D41*
X595551Y113110D02*
Y133110D01*
X585551D02*
X595551D01*
X585551Y113110D02*
Y133110D01*
Y113110D02*
X595551D01*
Y148543D02*
Y168543D01*
X585551D02*
X595551D01*
X585551Y148543D02*
Y168543D01*
Y148543D02*
X595551D01*
X22047Y227756D02*
X25197D01*
X22047Y221063D02*
X25197D01*
X222835Y227756D02*
X225984D01*
X222835Y221063D02*
X225984D01*
X368504Y176575D02*
X371654D01*
X368504Y169882D02*
X371654D01*
X368504Y196260D02*
X371654D01*
X368504Y189567D02*
X371654D01*
X397047Y175591D02*
Y178740D01*
X390354Y175591D02*
Y178740D01*
X388189Y152559D02*
X391339D01*
X388189Y146654D02*
X391339D01*
X474803Y196260D02*
X477953D01*
X474803Y189567D02*
X477953D01*
X474803Y219882D02*
X477953D01*
X474803Y213189D02*
X477953D01*
X555118Y187401D02*
Y190551D01*
X513780Y68307D02*
X513976D01*
Y43504D02*
Y68307D01*
X513780Y43504D02*
X513976D01*
X500197Y59055D02*
X513976D01*
X500197Y68307D02*
X500394D01*
X500197Y43504D02*
X500394D01*
X500197D02*
Y68307D01*
X400984Y92914D02*
Y96063D01*
X394291Y92914D02*
Y96063D01*
X380118Y92913D02*
Y96063D01*
X373425Y92913D02*
Y96063D01*
X371850Y63583D02*
X384055D01*
X371850Y62402D02*
X384055D01*
Y63583D01*
X371850Y62402D02*
Y63583D01*
X184449Y163779D02*
Y166929D01*
X177756Y163779D02*
Y166929D01*
X141142Y14173D02*
Y17323D01*
X134449Y14173D02*
Y17323D01*
X141142Y45669D02*
Y48819D01*
X134449Y45669D02*
Y48819D01*
X48425Y8662D02*
Y38583D01*
X48228D02*
X48425D01*
X48228Y8662D02*
X48425D01*
X30315Y38583D02*
X30512D01*
X30315Y17717D02*
X48425D01*
X30315Y8662D02*
Y38583D01*
Y8662D02*
X30512D01*
X421850Y185630D02*
X444291D01*
X421850Y208071D02*
X444291D01*
Y185630D02*
Y208071D01*
X421850Y185630D02*
Y208071D01*
X534842Y182087D02*
Y194291D01*
X536024Y182087D02*
Y194291D01*
X534842D02*
X536024D01*
X534842Y182087D02*
X536024D01*
X263189Y209252D02*
X311614D01*
X263189Y160827D02*
X311614D01*
X263189D02*
Y209252D01*
X311614Y160827D02*
Y209252D01*
X474803Y125000D02*
X477953D01*
X474803Y119095D02*
X477953D01*
X474803Y150591D02*
X477953D01*
X474803Y156496D02*
X477953D01*
X357283Y61417D02*
Y64567D01*
X351378Y61417D02*
Y64567D01*
X399409Y61024D02*
Y64173D01*
X405315Y61024D02*
Y64173D01*
X37795Y48228D02*
X40945D01*
X37795Y54134D02*
X40945D01*
X370984Y28622D02*
X390984D01*
X370984Y18622D02*
Y28622D01*
Y18622D02*
X390984D01*
Y28622D01*
X410354D02*
X430354D01*
X410354Y18622D02*
Y28622D01*
Y18622D02*
X430354D01*
Y28622D01*
X449725D02*
X469725D01*
X449725Y18622D02*
Y28622D01*
Y18622D02*
X469725D01*
Y28622D01*
X489095D02*
X509095D01*
X489095Y18622D02*
Y28622D01*
Y18622D02*
X509095D01*
Y28622D01*
X420079Y81890D02*
X420276D01*
X437992D02*
X438189D01*
Y51968D02*
Y81890D01*
X420079Y51968D02*
Y81890D01*
X437992Y51968D02*
X438189D01*
X420079D02*
X420276D01*
X420079Y61024D02*
X438189D01*
X483465Y45079D02*
Y57284D01*
X452362Y55512D02*
X454134Y57284D01*
X452362Y46850D02*
X454134Y45079D01*
X452362Y46850D02*
Y55512D01*
X473228Y57284D02*
X483465D01*
X473228Y45079D02*
X483465D01*
X454134D02*
X463780D01*
X454134Y57284D02*
X463780D01*
X90614Y52819D02*
X101244D01*
Y10693D02*
Y52819D01*
X90614Y10693D02*
X101244D01*
X466536Y77559D02*
X474410D01*
X466536Y97244D02*
X474410D01*
Y77559D02*
Y97244D01*
X466536Y77559D02*
Y97244D01*
X376378Y123031D02*
X379528D01*
X376378Y128937D02*
X379528D01*
X516732Y189764D02*
X516929D01*
X498819D02*
X499016D01*
X498819D02*
Y219685D01*
X516929Y189764D02*
Y219685D01*
X498819D02*
X499016D01*
X516732D02*
X516929D01*
X498819Y210630D02*
X516929D01*
X522047Y162008D02*
X525197D01*
X522047Y168701D02*
X525197D01*
X447244Y125394D02*
X450394D01*
X447244Y118701D02*
X450394D01*
X415748D02*
X418898D01*
X415748Y125394D02*
X418898D01*
X541732Y217126D02*
X544882D01*
X541732Y223819D02*
X544882D01*
X555118Y203543D02*
Y206693D01*
X199213Y132874D02*
X202362D01*
X199213Y126969D02*
X202362D01*
X199213Y201772D02*
X202362D01*
X199213Y207677D02*
X202362D01*
X209842Y142520D02*
Y188976D01*
X191732Y155512D02*
Y188976D01*
Y142520D02*
Y155512D01*
X409449Y162598D02*
X455905D01*
X409449Y144488D02*
X442913D01*
X455905D01*
X50000Y196807D02*
Y215098D01*
Y188736D02*
Y196807D01*
Y188736D02*
X56299D01*
X118898D02*
X124803D01*
Y196414D01*
Y215098D01*
X118898D02*
X124803D01*
X50000D02*
X56299D01*
X532677Y39370D02*
X541339D01*
X532677D02*
Y131890D01*
X569685D01*
Y39370D02*
Y131890D01*
D58*
X514468Y70866D02*
G03*
X514468Y70866I-492J0D01*
G01*
X371161Y58268D02*
G03*
X371161Y58268I-492J0D01*
G01*
X30807Y6102D02*
G03*
X30807Y6102I-492J0D01*
G01*
X416831Y211221D02*
G03*
X416831Y211221I-492J0D01*
G01*
X540650Y180905D02*
G03*
X540650Y180905I-492J0D01*
G01*
X317815Y158661D02*
G03*
X317815Y158661I-492J0D01*
G01*
X420571Y49409D02*
G03*
X420571Y49409I-492J0D01*
G01*
X113547Y14138D02*
G03*
X113547Y14138I-492J0D01*
G01*
X460925Y98445D02*
G03*
X460925Y98445I-492J0D01*
G01*
X517421Y222244D02*
G03*
X517421Y222244I-492J0D01*
G01*
D59*
X426968Y204134D02*
G03*
X426968Y204134I-1181J0D01*
G01*
X308858Y164764D02*
G03*
X308858Y164764I-1181J0D01*
G01*
D60*
X36220Y244094D02*
G03*
X36220Y244094I-394J0D01*
G01*
X103150D02*
G03*
X103150Y244094I-394J0D01*
G01*
X174016D02*
G03*
X174016Y244094I-394J0D01*
G01*
X512714Y86296D02*
G03*
X512595Y106687I-6021J10161D01*
G01*
X501065Y106618D02*
G03*
X501487Y86057I6021J-10161D01*
G01*
X217323Y32677D02*
G03*
X217323Y32677I-25591J0D01*
G01*
X191732Y188976D02*
X197638D01*
X203937D02*
X209842D01*
X191732Y142520D02*
X197638D01*
X203937D02*
X209842D01*
X409449Y144488D02*
Y150394D01*
Y156693D02*
Y162598D01*
X455905Y144488D02*
Y150394D01*
Y156693D02*
Y162598D01*
X347244Y1969D02*
Y109843D01*
X346850Y110236D02*
X347244Y109843D01*
X336221Y110236D02*
X346850D01*
X268110D02*
X322835D01*
X248031D02*
X261811D01*
X228346D02*
X235433D01*
X228346Y78347D02*
Y110236D01*
Y0D02*
Y72441D01*
X243701Y0D02*
X331890D01*
X228346D02*
X229528D01*
X242913D02*
X243701D01*
X347244D02*
Y1969D01*
X346063Y0D02*
X347244D01*
X561024Y39370D02*
X569685D01*
X561024Y37402D02*
Y39370D01*
X541339Y37402D02*
X561024D01*
X541339D02*
Y39370D01*
X572441Y231889D02*
X608268D01*
X572441Y185433D02*
X608268D01*
X572441D02*
Y231889D01*
X86221Y235827D02*
Y270079D01*
X83465Y235827D02*
X86221D01*
X39764D02*
X42520D01*
X39764D02*
Y270079D01*
X161024Y235827D02*
Y270079D01*
X158268Y235827D02*
X161024D01*
X106693D02*
X109449D01*
X106693D02*
Y270079D01*
X216142Y235827D02*
Y270079D01*
X213386Y235827D02*
X216142D01*
X177559D02*
X180315D01*
X177559D02*
Y270079D01*
X252215Y230291D02*
Y225293D01*
X253215Y224293D01*
X255214D01*
X256214Y225293D01*
Y230291D01*
X258213Y224293D02*
X260212D01*
X259213D01*
Y230291D01*
X258213Y229291D01*
X214173Y188282D02*
Y187282D01*
X216173Y185283D01*
X218172Y187282D01*
Y188282D01*
X216173Y185283D02*
Y182283D01*
X220171D02*
X222171D01*
X221171D01*
Y188282D01*
X220171Y187282D01*
X408470Y172091D02*
Y171091D01*
X410469Y169092D01*
X412469Y171091D01*
Y172091D01*
X410469Y169092D02*
Y166093D01*
X418467D02*
X414468D01*
X418467Y170092D01*
Y171091D01*
X417467Y172091D01*
X415468D01*
X414468Y171091D01*
X537291Y140302D02*
X536291Y141301D01*
X534292D01*
X533292Y140302D01*
Y139302D01*
X534292Y138302D01*
X536291D01*
X537291Y137302D01*
Y136303D01*
X536291Y135303D01*
X534292D01*
X533292Y136303D01*
X539290Y135303D02*
X541290D01*
X540290D01*
Y141301D01*
X539290Y140302D01*
X174016Y146850D02*
Y152848D01*
X177015D01*
X178015Y151849D01*
Y149849D01*
X177015Y148850D01*
X174016D01*
X176015D02*
X178015Y146850D01*
X180014Y151849D02*
X181014Y152848D01*
X183013D01*
X184012Y151849D01*
Y150849D01*
X183013Y149849D01*
X184012Y148850D01*
Y147850D01*
X183013Y146850D01*
X181014D01*
X180014Y147850D01*
Y148850D01*
X181014Y149849D01*
X180014Y150849D01*
Y151849D01*
X181014Y149849D02*
X183013D01*
X222047Y232677D02*
Y238675D01*
X225046D01*
X226046Y237676D01*
Y235676D01*
X225046Y234677D01*
X222047D01*
X224047D02*
X226046Y232677D01*
X228045D02*
X230045D01*
X229045D01*
Y238675D01*
X228045Y237676D01*
X233044Y232677D02*
X235043D01*
X234043D01*
Y238675D01*
X233044Y237676D01*
X146457Y56299D02*
X152455D01*
Y53300D01*
X151455Y52301D01*
X149456D01*
X148456Y53300D01*
Y56299D01*
Y54300D02*
X146457Y52301D01*
Y50301D02*
Y48302D01*
Y49301D01*
X152455D01*
X151455Y50301D01*
X152455Y41304D02*
Y45303D01*
X149456D01*
X150455Y43303D01*
Y42304D01*
X149456Y41304D01*
X147456D01*
X146457Y42304D01*
Y44303D01*
X147456Y45303D01*
X148031Y22047D02*
X154030D01*
Y19048D01*
X153030Y18048D01*
X151031D01*
X150031Y19048D01*
Y22047D01*
Y20048D02*
X148031Y18048D01*
Y16049D02*
Y14050D01*
Y15049D01*
X154030D01*
X153030Y16049D01*
X154030Y7052D02*
X153030Y9051D01*
X151031Y11051D01*
X149031D01*
X148031Y10051D01*
Y8052D01*
X149031Y7052D01*
X150031D01*
X151031Y8052D01*
Y11051D01*
X15748Y231102D02*
Y237100D01*
X18747D01*
X19747Y236101D01*
Y234101D01*
X18747Y233102D01*
X15748D01*
X17747D02*
X19747Y231102D01*
X21746D02*
X23745D01*
X22746D01*
Y237100D01*
X21746Y236101D01*
X26744Y237100D02*
X30743D01*
Y236101D01*
X26744Y232102D01*
Y231102D01*
X519722Y170754D02*
Y176752D01*
X522721D01*
X523721Y175753D01*
Y173753D01*
X522721Y172754D01*
X519722D01*
X521721D02*
X523721Y170754D01*
X525720D02*
X527719D01*
X526720D01*
Y176752D01*
X525720Y175753D01*
X530719D02*
X531718Y176752D01*
X533717D01*
X534717Y175753D01*
Y174753D01*
X533717Y173753D01*
X534717Y172754D01*
Y171754D01*
X533717Y170754D01*
X531718D01*
X530719Y171754D01*
Y172754D01*
X531718Y173753D01*
X530719Y174753D01*
Y175753D01*
X531718Y173753D02*
X533717D01*
X438552Y130959D02*
Y136957D01*
X441551D01*
X442551Y135957D01*
Y133958D01*
X441551Y132958D01*
X438552D01*
X440551D02*
X442551Y130959D01*
X448549D02*
X444550D01*
X448549Y134958D01*
Y135957D01*
X447549Y136957D01*
X445550D01*
X444550Y135957D01*
X450548D02*
X451548Y136957D01*
X453547D01*
X454547Y135957D01*
Y134958D01*
X453547Y133958D01*
X452547D01*
X453547D01*
X454547Y132958D01*
Y131959D01*
X453547Y130959D01*
X451548D01*
X450548Y131959D01*
X363386Y107087D02*
Y113085D01*
X366385D01*
X367385Y112085D01*
Y110086D01*
X366385Y109086D01*
X363386D01*
X365385D02*
X367385Y107087D01*
X373383D02*
X369384D01*
X373383Y111085D01*
Y112085D01*
X372383Y113085D01*
X370384D01*
X369384Y112085D01*
X379381Y107087D02*
X375382D01*
X379381Y111085D01*
Y112085D01*
X378381Y113085D01*
X376382D01*
X375382Y112085D01*
X396850Y107087D02*
Y113085D01*
X399849D01*
X400849Y112085D01*
Y110086D01*
X399849Y109086D01*
X396850D01*
X398850D02*
X400849Y107087D01*
X406847D02*
X402848D01*
X406847Y111085D01*
Y112085D01*
X405848Y113085D01*
X403848D01*
X402848Y112085D01*
X408847Y107087D02*
X410846D01*
X409846D01*
Y113085D01*
X408847Y112085D01*
X470866Y224410D02*
Y230408D01*
X473865D01*
X474865Y229408D01*
Y227409D01*
X473865Y226409D01*
X470866D01*
X472865D02*
X474865Y224410D01*
X480863D02*
X476864D01*
X480863Y228408D01*
Y229408D01*
X479863Y230408D01*
X477864D01*
X476864Y229408D01*
X482862Y225409D02*
X483862Y224410D01*
X485861D01*
X486861Y225409D01*
Y229408D01*
X485861Y230408D01*
X483862D01*
X482862Y229408D01*
Y228408D01*
X483862Y227409D01*
X486861D01*
X470866Y200000D02*
Y205998D01*
X473865D01*
X474865Y204998D01*
Y202999D01*
X473865Y201999D01*
X470866D01*
X472865D02*
X474865Y200000D01*
X476864Y204998D02*
X477864Y205998D01*
X479863D01*
X480863Y204998D01*
Y203999D01*
X479863Y202999D01*
X478864D01*
X479863D01*
X480863Y201999D01*
Y201000D01*
X479863Y200000D01*
X477864D01*
X476864Y201000D01*
X482862Y204998D02*
X483862Y205998D01*
X485861D01*
X486861Y204998D01*
Y201000D01*
X485861Y200000D01*
X483862D01*
X482862Y201000D01*
Y204998D01*
X407093Y130971D02*
Y136969D01*
X410092D01*
X411092Y135969D01*
Y133970D01*
X410092Y132970D01*
X407093D01*
X409092D02*
X411092Y130971D01*
X417090D02*
X413091D01*
X417090Y134970D01*
Y135969D01*
X416090Y136969D01*
X414091D01*
X413091Y135969D01*
X423088Y136969D02*
X419089D01*
Y133970D01*
X421088Y134970D01*
X422088D01*
X423088Y133970D01*
Y131971D01*
X422088Y130971D01*
X420089D01*
X419089Y131971D01*
X360630Y159843D02*
Y165841D01*
X363629D01*
X364629Y164841D01*
Y162842D01*
X363629Y161842D01*
X360630D01*
X362629D02*
X364629Y159843D01*
X366628Y164841D02*
X367628Y165841D01*
X369627D01*
X370627Y164841D01*
Y163841D01*
X369627Y162842D01*
X368627D01*
X369627D01*
X370627Y161842D01*
Y160842D01*
X369627Y159843D01*
X367628D01*
X366628Y160842D01*
X372626Y159843D02*
X374625D01*
X373626D01*
Y165841D01*
X372626Y164841D01*
X355512Y181496D02*
X349514D01*
Y184495D01*
X350513Y185495D01*
X352513D01*
X353513Y184495D01*
Y181496D01*
Y183495D02*
X355512Y185495D01*
X350513Y187494D02*
X349514Y188494D01*
Y190493D01*
X350513Y191493D01*
X351513D01*
X352513Y190493D01*
Y189494D01*
Y190493D01*
X353513Y191493D01*
X354512D01*
X355512Y190493D01*
Y188494D01*
X354512Y187494D01*
X355512Y197491D02*
Y193492D01*
X351513Y197491D01*
X350513D01*
X349514Y196491D01*
Y194492D01*
X350513Y193492D01*
X103543Y248031D02*
X97545D01*
Y251030D01*
X98545Y252030D01*
X100544D01*
X101544Y251030D01*
Y248031D01*
X103543Y257029D02*
X97545D01*
X100544Y254030D01*
Y258028D01*
X174409Y248425D02*
X168411D01*
Y251424D01*
X169411Y252424D01*
X171410D01*
X172410Y251424D01*
Y248425D01*
X169411Y254423D02*
X168411Y255423D01*
Y257422D01*
X169411Y258422D01*
X170411D01*
X171410Y257422D01*
Y256423D01*
Y257422D01*
X172410Y258422D01*
X173410D01*
X174409Y257422D01*
Y255423D01*
X173410Y254423D01*
X36614Y249213D02*
X30616D01*
Y252212D01*
X31616Y253211D01*
X33615D01*
X34615Y252212D01*
Y249213D01*
X30616Y255211D02*
Y259209D01*
X31616D01*
X35614Y255211D01*
X36614D01*
X569291Y268990D02*
Y262992D01*
X573290D01*
X579288D02*
X575289D01*
X579288Y266991D01*
Y267990D01*
X578288Y268990D01*
X576289D01*
X575289Y267990D01*
X495770Y119414D02*
Y113416D01*
X499769D01*
X501768D02*
X503767D01*
X502768D01*
Y119414D01*
X501768Y118414D01*
X535495Y234345D02*
X531496D01*
Y231346D01*
X533495D01*
X531496D01*
Y228346D01*
X537494D02*
X539494D01*
X538494D01*
Y234345D01*
X537494Y233345D01*
X366184Y39720D02*
Y33722D01*
X369183D01*
X370183Y34722D01*
Y38720D01*
X369183Y39720D01*
X366184D01*
X372182Y33722D02*
X374182D01*
X373182D01*
Y39720D01*
X372182Y38720D01*
X405554Y39720D02*
Y33722D01*
X408553D01*
X409553Y34722D01*
Y38720D01*
X408553Y39720D01*
X405554D01*
X415551Y33722D02*
X411552D01*
X415551Y37721D01*
Y38720D01*
X414551Y39720D01*
X412552D01*
X411552Y38720D01*
X444924Y39720D02*
Y33722D01*
X447923D01*
X448923Y34722D01*
Y38720D01*
X447923Y39720D01*
X444924D01*
X453922Y33722D02*
Y39720D01*
X450922Y36721D01*
X454921D01*
X484295Y39720D02*
Y33722D01*
X487293D01*
X488293Y34722D01*
Y38720D01*
X487293Y39720D01*
X484295D01*
X494291D02*
X490293D01*
Y36721D01*
X492292Y37721D01*
X493292D01*
X494291Y36721D01*
Y34722D01*
X493292Y33722D01*
X491292D01*
X490293Y34722D01*
X453000Y66695D02*
Y60697D01*
X455999D01*
X456999Y61696D01*
Y65695D01*
X455999Y66695D01*
X453000D01*
X462997D02*
X460997Y65695D01*
X458998Y63696D01*
Y61696D01*
X459998Y60697D01*
X461997D01*
X462997Y61696D01*
Y62696D01*
X461997Y63696D01*
X458998D01*
X557087Y199699D02*
X561085D01*
Y198699D01*
X557087Y194701D01*
Y193701D01*
X561085D01*
X567083D02*
X563085D01*
X567083Y197699D01*
Y198699D01*
X566084Y199699D01*
X564084D01*
X563085Y198699D01*
X557874Y215053D02*
X561873D01*
Y214054D01*
X557874Y210055D01*
Y209055D01*
X561873D01*
X563872D02*
X565871D01*
X564872D01*
Y215053D01*
X563872Y214054D01*
X605211Y137402D02*
X599213D01*
Y134403D01*
X600212Y133403D01*
X604211D01*
X605211Y134403D01*
Y137402D01*
X604211Y131404D02*
X605211Y130404D01*
Y128404D01*
X604211Y127405D01*
X603211D01*
X602212Y128404D01*
X601212Y127405D01*
X600212D01*
X599213Y128404D01*
Y130404D01*
X600212Y131404D01*
X601212D01*
X602212Y130404D01*
X603211Y131404D01*
X604211D01*
X602212Y130404D02*
Y128404D01*
X604817Y172835D02*
X598819D01*
Y169836D01*
X599819Y168836D01*
X603817D01*
X604817Y169836D01*
Y172835D01*
Y166837D02*
Y162838D01*
X603817D01*
X599819Y166837D01*
X598819D01*
X198093Y122715D02*
X197093Y123715D01*
X195094D01*
X194095Y122715D01*
Y118716D01*
X195094Y117717D01*
X197093D01*
X198093Y118716D01*
X204091Y117717D02*
X200093D01*
X204091Y121715D01*
Y122715D01*
X203092Y123715D01*
X201092D01*
X200093Y122715D01*
X198093Y217203D02*
X197093Y218203D01*
X195094D01*
X194095Y217203D01*
Y213204D01*
X195094Y212205D01*
X197093D01*
X198093Y213204D01*
X200093Y217203D02*
X201092Y218203D01*
X203092D01*
X204091Y217203D01*
Y216203D01*
X203092Y215204D01*
X202092D01*
X203092D01*
X204091Y214204D01*
Y213204D01*
X203092Y212205D01*
X201092D01*
X200093Y213204D01*
X36269Y63080D02*
X35269Y64079D01*
X33270D01*
X32270Y63080D01*
Y59081D01*
X33270Y58081D01*
X35269D01*
X36269Y59081D01*
X38268D02*
X39268Y58081D01*
X41267D01*
X42267Y59081D01*
Y63080D01*
X41267Y64079D01*
X39268D01*
X38268Y63080D01*
Y62080D01*
X39268Y61080D01*
X42267D01*
X19353Y40038D02*
X18353Y41037D01*
X16354D01*
X15354Y40038D01*
Y36039D01*
X16354Y35039D01*
X18353D01*
X19353Y36039D01*
X21352Y40038D02*
X22352Y41037D01*
X24351D01*
X25351Y40038D01*
Y39038D01*
X24351Y38038D01*
X25351Y37039D01*
Y36039D01*
X24351Y35039D01*
X22352D01*
X21352Y36039D01*
Y37039D01*
X22352Y38038D01*
X21352Y39038D01*
Y40038D01*
X22352Y38038D02*
X24351D01*
X503466Y231254D02*
X502466Y232254D01*
X500467D01*
X499467Y231254D01*
Y227256D01*
X500467Y226256D01*
X502466D01*
X503466Y227256D01*
X505465Y226256D02*
X507464D01*
X506465D01*
Y232254D01*
X505465Y231254D01*
X510463D02*
X511463Y232254D01*
X513462D01*
X514462Y231254D01*
Y227256D01*
X513462Y226256D01*
X511463D01*
X510463Y227256D01*
Y231254D01*
X522715Y63718D02*
X523715Y64718D01*
Y66717D01*
X522715Y67716D01*
X518716D01*
X517717Y66717D01*
Y64718D01*
X518716Y63718D01*
X517717Y61718D02*
Y59719D01*
Y60719D01*
X523715D01*
X522715Y61718D01*
X517717Y56720D02*
Y54721D01*
Y55720D01*
X523715D01*
X522715Y56720D01*
X473288Y133954D02*
X472288Y134954D01*
X470289D01*
X469289Y133954D01*
Y129956D01*
X470289Y128956D01*
X472288D01*
X473288Y129956D01*
X475287Y128956D02*
X477286D01*
X476287D01*
Y134954D01*
X475287Y133954D01*
X484284Y134954D02*
X480285D01*
Y131955D01*
X482285Y132955D01*
X483284D01*
X484284Y131955D01*
Y129956D01*
X483284Y128956D01*
X481285D01*
X480285Y129956D01*
X424114Y93043D02*
X423114Y94043D01*
X421115D01*
X420115Y93043D01*
Y89045D01*
X421115Y88045D01*
X423114D01*
X424114Y89045D01*
X426113Y88045D02*
X428112D01*
X427113D01*
Y94043D01*
X426113Y93043D01*
X434110Y88045D02*
Y94043D01*
X431111Y91044D01*
X435110D01*
X403432Y78654D02*
X402432Y79654D01*
X400433D01*
X399433Y78654D01*
Y74656D01*
X400433Y73656D01*
X402432D01*
X403432Y74656D01*
X405431Y73656D02*
X407431D01*
X406431D01*
Y79654D01*
X405431Y78654D01*
X414428Y73656D02*
X410429D01*
X414428Y77655D01*
Y78654D01*
X413428Y79654D01*
X411429D01*
X410429Y78654D01*
X355377Y79043D02*
X354377Y80043D01*
X352378D01*
X351378Y79043D01*
Y75045D01*
X352378Y74045D01*
X354377D01*
X355377Y75045D01*
X357376Y74045D02*
X359375D01*
X358376D01*
Y80043D01*
X357376Y79043D01*
X362374D02*
X363374Y80043D01*
X365373D01*
X366373Y79043D01*
Y78044D01*
X365373Y77044D01*
X364374D01*
X365373D01*
X366373Y76044D01*
Y75045D01*
X365373Y74045D01*
X363374D01*
X362374Y75045D01*
X473298Y165476D02*
X472298Y166476D01*
X470299D01*
X469299Y165476D01*
Y161478D01*
X470299Y160478D01*
X472298D01*
X473298Y161478D01*
X475297Y160478D02*
X477297D01*
X476297D01*
Y166476D01*
X475297Y165476D01*
X484294Y166476D02*
X482295Y165476D01*
X480296Y163477D01*
Y161478D01*
X481295Y160478D01*
X483295D01*
X484294Y161478D01*
Y162477D01*
X483295Y163477D01*
X480296D01*
X391794Y161298D02*
X390794Y162297D01*
X388795D01*
X387795Y161298D01*
Y157299D01*
X388795Y156299D01*
X390794D01*
X391794Y157299D01*
X393793Y156299D02*
X395793D01*
X394793D01*
Y162297D01*
X393793Y161298D01*
X398792Y162297D02*
X402790D01*
Y161298D01*
X398792Y157299D01*
Y156299D01*
X165354Y62691D02*
Y56693D01*
X168353D01*
X169353Y57693D01*
Y58692D01*
X168353Y59692D01*
X165354D01*
X168353D01*
X169353Y60692D01*
Y61691D01*
X168353Y62691D01*
X165354D01*
X171352Y56693D02*
X173352D01*
X172352D01*
Y62691D01*
X171352Y61691D01*
X55752Y62954D02*
Y57956D01*
X56752Y56956D01*
X58751D01*
X59751Y57956D01*
Y62954D01*
X65749D02*
X63749Y61954D01*
X61750Y59955D01*
Y57956D01*
X62750Y56956D01*
X64749D01*
X65749Y57956D01*
Y58955D01*
X64749Y59955D01*
X61750D01*
X16535Y205512D02*
Y211510D01*
X19534D01*
X20534Y210510D01*
Y208511D01*
X19534Y207511D01*
X16535D01*
X22534Y205512D02*
X24533D01*
X23533D01*
Y211510D01*
X22534Y210510D01*
X27532Y205512D02*
X29531D01*
X28532D01*
Y211510D01*
X27532Y210510D01*
X374876Y137880D02*
X373876Y138880D01*
X371877D01*
X370877Y137880D01*
Y133882D01*
X371877Y132882D01*
X373876D01*
X374876Y133882D01*
X380874Y132882D02*
X376875D01*
X380874Y136881D01*
Y137880D01*
X379874Y138880D01*
X377875D01*
X376875Y137880D01*
X382873D02*
X383873Y138880D01*
X385872D01*
X386872Y137880D01*
Y133882D01*
X385872Y132882D01*
X383873D01*
X382873Y133882D01*
Y137880D01*
X253150Y113779D02*
Y119778D01*
X256149D01*
X257148Y118778D01*
Y116779D01*
X256149Y115779D01*
X253150D01*
X259148Y114779D02*
X260147Y113779D01*
X262147D01*
X263146Y114779D01*
Y118778D01*
X262147Y119778D01*
X260147D01*
X259148Y118778D01*
Y117778D01*
X260147Y116779D01*
X263146D01*
X527004Y205500D02*
Y200501D01*
X528004Y199502D01*
X530003D01*
X531003Y200501D01*
Y205500D01*
X537001Y199502D02*
X533002D01*
X537001Y203500D01*
Y204500D01*
X536001Y205500D01*
X534002D01*
X533002Y204500D01*
X382283Y80014D02*
Y75015D01*
X383283Y74016D01*
X385282D01*
X386282Y75015D01*
Y80014D01*
X388281Y79014D02*
X389281Y80014D01*
X391281D01*
X392280Y79014D01*
Y78014D01*
X391281Y77015D01*
X390281D01*
X391281D01*
X392280Y76015D01*
Y75015D01*
X391281Y74016D01*
X389281D01*
X388281Y75015D01*
X454722Y108450D02*
Y103451D01*
X455722Y102452D01*
X457722D01*
X458721Y103451D01*
Y108450D01*
X463720Y102452D02*
Y108450D01*
X460720Y105451D01*
X464719D01*
X411421Y228499D02*
Y223500D01*
X412421Y222500D01*
X414420D01*
X415420Y223500D01*
Y228499D01*
X421418D02*
X417419D01*
Y225499D01*
X419418Y226499D01*
X420418D01*
X421418Y225499D01*
Y223500D01*
X420418Y222500D01*
X418419D01*
X417419Y223500D01*
X570866Y236221D02*
Y242218D01*
X573865D01*
X574865Y241219D01*
Y239219D01*
X573865Y238220D01*
X570866D01*
X576864Y236221D02*
X578864D01*
X577864D01*
Y242218D01*
X576864Y241219D01*
X581863D02*
X582862Y242218D01*
X584862D01*
X585861Y241219D01*
Y237220D01*
X584862Y236221D01*
X582862D01*
X581863Y237220D01*
Y241219D01*
X385827Y190945D02*
Y196943D01*
X388826D01*
X389826Y195943D01*
Y193944D01*
X388826Y192944D01*
X385827D01*
X387826D02*
X389826Y190945D01*
X395824D02*
X391825D01*
X395824Y194944D01*
Y195943D01*
X394824Y196943D01*
X392825D01*
X391825Y195943D01*
X401822Y196943D02*
X399822Y195943D01*
X397823Y193944D01*
Y191945D01*
X398823Y190945D01*
X400822D01*
X401822Y191945D01*
Y192944D01*
X400822Y193944D01*
X397823D01*
X491732Y9843D02*
Y15841D01*
X494731D01*
X495731Y14841D01*
Y12842D01*
X494731Y11842D01*
X491732D01*
X497730Y15841D02*
Y9843D01*
X499730Y11842D01*
X501729Y9843D01*
Y15841D01*
X503728Y9843D02*
Y15841D01*
X506727D01*
X507727Y14841D01*
Y12842D01*
X506727Y11842D01*
X503728D01*
X505728D02*
X507727Y9843D01*
X455967Y14447D02*
X454967Y15447D01*
X452968D01*
X451968Y14447D01*
Y10448D01*
X452968Y9449D01*
X454967D01*
X455967Y10448D01*
X457967Y15447D02*
Y9449D01*
Y12448D01*
X461965D01*
Y15447D01*
Y9449D01*
X467963Y14447D02*
X466964Y15447D01*
X464964D01*
X463965Y14447D01*
Y10448D01*
X464964Y9449D01*
X466964D01*
X467963Y10448D01*
Y12448D01*
X465964D01*
X411873Y13854D02*
X410873Y14854D01*
X408874D01*
X407874Y13854D01*
Y12855D01*
X408874Y11855D01*
X410873D01*
X411873Y10855D01*
Y9856D01*
X410873Y8856D01*
X408874D01*
X407874Y9856D01*
X413872Y14854D02*
X417871D01*
X415871D01*
Y8856D01*
X419870D02*
Y12855D01*
X421870Y14854D01*
X423869Y12855D01*
Y8856D01*
Y11855D01*
X419870D01*
X425868Y14854D02*
X429867D01*
X427868D01*
Y8856D01*
X431866D02*
X433866D01*
X432866D01*
Y14854D01*
X431866Y13854D01*
X371322Y14447D02*
X370322Y15447D01*
X368322D01*
X367323Y14447D01*
Y13447D01*
X368322Y12448D01*
X370322D01*
X371322Y11448D01*
Y10448D01*
X370322Y9449D01*
X368322D01*
X367323Y10448D01*
X373321Y15447D02*
X377320D01*
X375320D01*
Y9449D01*
X379319D02*
Y13447D01*
X381318Y15447D01*
X383318Y13447D01*
Y9449D01*
Y12448D01*
X379319D01*
X385317Y15447D02*
X389316D01*
X387316D01*
Y9449D01*
X395314D02*
X391315D01*
X395314Y13447D01*
Y14447D01*
X394314Y15447D01*
X392315D01*
X391315Y14447D01*
X598425Y155118D02*
X604423D01*
Y152119D01*
X603424Y151119D01*
X601424D01*
X600424Y152119D01*
Y155118D01*
Y153119D02*
X598425Y151119D01*
X604423Y149120D02*
X598425Y145121D01*
X604423D02*
X598425Y149120D01*
X605211Y120866D02*
Y116867D01*
Y118867D01*
X599213D01*
X605211Y114868D02*
X599213Y110869D01*
X605211D02*
X599213Y114868D01*
X563386Y181195D02*
Y176197D01*
X564386Y175197D01*
X566385D01*
X567384Y176197D01*
Y181195D01*
X573383Y180195D02*
X572383Y181195D01*
X570384D01*
X569384Y180195D01*
Y179196D01*
X570384Y178196D01*
X572383D01*
X573383Y177196D01*
Y176197D01*
X572383Y175197D01*
X570384D01*
X569384Y176197D01*
X575382Y181195D02*
Y175197D01*
X578381D01*
X579381Y176197D01*
Y177196D01*
X578381Y178196D01*
X575382D01*
X578381D01*
X579381Y179196D01*
Y180195D01*
X578381Y181195D01*
X575382D01*
X216262Y69747D02*
X215262Y68747D01*
Y66748D01*
X216262Y65748D01*
X217261D01*
X218261Y66748D01*
Y68747D01*
X219261Y69747D01*
X220260D01*
X221260Y68747D01*
Y66748D01*
X220260Y65748D01*
X215262Y71746D02*
X221260D01*
Y74745D01*
X220260Y75745D01*
X216262D01*
X215262Y74745D01*
Y71746D01*
X216262Y87741D02*
X215262Y86741D01*
Y84742D01*
X216262Y83742D01*
X217261D01*
X218261Y84742D01*
Y86741D01*
X219261Y87741D01*
X220260D01*
X221260Y86741D01*
Y84742D01*
X220260Y83742D01*
X215262Y89740D02*
X221260D01*
Y93739D01*
X215262Y98737D02*
Y96738D01*
X216262Y95738D01*
X220260D01*
X221260Y96738D01*
Y98737D01*
X220260Y99737D01*
X216262D01*
X215262Y98737D01*
Y101736D02*
Y105735D01*
Y103736D01*
X221260D01*
X33526Y136888D02*
X32527Y137888D01*
X30527D01*
X29528Y136888D01*
Y135889D01*
X30527Y134889D01*
X32527D01*
X33526Y133889D01*
Y132889D01*
X32527Y131890D01*
X30527D01*
X29528Y132889D01*
X35526Y131890D02*
Y137888D01*
X37525Y135889D01*
X39524Y137888D01*
Y131890D01*
X45522Y137888D02*
X41524D01*
Y134889D01*
X43523Y135889D01*
X44523D01*
X45522Y134889D01*
Y132889D01*
X44523Y131890D01*
X42523D01*
X41524Y132889D01*
X47522Y131890D02*
X49521D01*
X48521D01*
Y137888D01*
X47522Y136888D01*
X52520D02*
X53520Y137888D01*
X55519D01*
X56519Y136888D01*
Y132889D01*
X55519Y131890D01*
X53520D01*
X52520Y132889D01*
Y136888D01*
X58518D02*
X59518Y137888D01*
X61517D01*
X62517Y136888D01*
Y132889D01*
X61517Y131890D01*
X59518D01*
X58518Y132889D01*
Y136888D01*
X64516Y137888D02*
Y131890D01*
X67515D01*
X68515Y132889D01*
Y133889D01*
X67515Y134889D01*
X64516D01*
X67515D01*
X68515Y135889D01*
Y136888D01*
X67515Y137888D01*
X64516D01*
X80511Y136888D02*
X79511Y137888D01*
X77512D01*
X76512Y136888D01*
Y132889D01*
X77512Y131890D01*
X79511D01*
X80511Y132889D01*
X86509Y137888D02*
X82510D01*
Y131890D01*
X86509D01*
X82510Y134889D02*
X84510D01*
X88508Y137888D02*
Y131890D01*
X92507D01*
X94507Y137888D02*
Y131890D01*
X98505D01*
X106503D02*
Y137888D01*
X108502Y135889D01*
X110501Y137888D01*
Y131890D01*
X115500Y137888D02*
X113500D01*
X112501Y136888D01*
Y132889D01*
X113500Y131890D01*
X115500D01*
X116499Y132889D01*
Y136888D01*
X115500Y137888D01*
X118499D02*
Y131890D01*
X121498D01*
X122497Y132889D01*
Y136888D01*
X121498Y137888D01*
X118499D01*
X124497D02*
Y132889D01*
X125496Y131890D01*
X127496D01*
X128496Y132889D01*
Y137888D01*
X130495D02*
Y131890D01*
X134494D01*
X140492Y137888D02*
X136493D01*
Y131890D01*
X140492D01*
X136493Y134889D02*
X138492D01*
X177165Y232376D02*
Y226378D01*
X181164D01*
X187162Y231376D02*
X186162Y232376D01*
X184163D01*
X183163Y231376D01*
Y227378D01*
X184163Y226378D01*
X186162D01*
X187162Y227378D01*
X189162Y232376D02*
Y226378D01*
X192160D01*
X193160Y227378D01*
Y231376D01*
X192160Y232376D01*
X189162D01*
X111085Y230983D02*
X110086Y231982D01*
X108086D01*
X107087Y230983D01*
Y226984D01*
X108086Y225984D01*
X110086D01*
X111085Y226984D01*
Y228983D01*
X109086D01*
X113085Y225984D02*
Y231982D01*
X116084D01*
X117083Y230983D01*
Y228983D01*
X116084Y227984D01*
X113085D01*
X123081Y230983D02*
X122082Y231982D01*
X120082D01*
X119083Y230983D01*
Y229983D01*
X120082Y228983D01*
X122082D01*
X123081Y227984D01*
Y226984D01*
X122082Y225984D01*
X120082D01*
X119083Y226984D01*
X41339Y226378D02*
Y232376D01*
X43338Y230377D01*
X45337Y232376D01*
Y226378D01*
X47337Y232376D02*
X49336D01*
X48336D01*
Y226378D01*
X47337D01*
X49336D01*
X56334Y231376D02*
X55334Y232376D01*
X53335D01*
X52335Y231376D01*
Y227378D01*
X53335Y226378D01*
X55334D01*
X56334Y227378D01*
X58333Y226378D02*
X62332Y230377D01*
X68330Y231376D02*
X67330Y232376D01*
X65331D01*
X64331Y231376D01*
Y230377D01*
X65331Y229377D01*
X67330D01*
X68330Y228377D01*
Y227378D01*
X67330Y226378D01*
X65331D01*
X64331Y227378D01*
X70329Y226378D02*
Y232376D01*
X73328D01*
X74328Y231376D01*
Y229377D01*
X73328Y228377D01*
X70329D01*
X76327Y232376D02*
Y226378D01*
Y228377D01*
X80326Y232376D01*
X77327Y229377D01*
X80326Y226378D01*
M02*
