%FSLAX25Y25*%
%MOIN*%
G70*
G01*
G75*
G04 Layer_Physical_Order=2*
G04 Layer_Color=16711680*
%ADD10R,0.05906X0.07480*%
%ADD11R,0.07480X0.05906*%
%ADD12R,0.04331X0.06693*%
%ADD13R,0.06299X0.06299*%
%ADD14R,0.04331X0.03937*%
%ADD15R,0.08661X0.10236*%
%ADD16R,0.02756X0.05118*%
%ADD17R,0.09449X0.10236*%
%ADD18O,0.02362X0.07677*%
%ADD19O,0.07677X0.02362*%
%ADD20R,0.05118X0.02756*%
%ADD21O,0.01181X0.08268*%
%ADD22O,0.08268X0.01181*%
%ADD23R,0.06693X0.04331*%
%ADD24R,0.09055X0.09055*%
%ADD25R,0.33071X0.41929*%
%ADD26R,0.14961X0.04134*%
%ADD27O,0.09055X0.02756*%
%ADD28R,0.03150X0.18110*%
%ADD29R,0.18110X0.03150*%
%ADD30R,0.08858X0.03150*%
%ADD31R,0.10630X0.13780*%
%ADD32R,0.03150X0.09449*%
%ADD33R,0.03150X0.03937*%
%ADD34R,0.09449X0.07874*%
%ADD35R,0.00984X0.05512*%
%ADD36R,0.08661X0.05906*%
%ADD37C,0.01575*%
%ADD38C,0.00598*%
%ADD39C,0.03937*%
%ADD40C,0.03150*%
%ADD41C,0.00787*%
%ADD42C,0.02756*%
%ADD43C,0.12598*%
%ADD44R,0.05906X0.05906*%
%ADD45C,0.05906*%
%ADD46R,0.05906X0.05906*%
%ADD47C,0.19685*%
%ADD48C,0.06000*%
%ADD49C,0.13780*%
%ADD50C,0.09055*%
%ADD51C,0.12661*%
%ADD52P,0.06213X8X112.5*%
%ADD53O,0.04724X0.09843*%
%ADD54C,0.05000*%
%ADD55R,0.05709X0.07677*%
%ADD56R,0.04724X0.11024*%
%ADD57R,0.11024X0.11024*%
G36*
X608268Y1969D02*
X1969D01*
Y269685D01*
X260275D01*
X260466Y269223D01*
X259025Y267782D01*
X258803Y267449D01*
X258778Y267325D01*
X258134Y267059D01*
X257464Y266544D01*
X256949Y265874D01*
X256626Y265093D01*
X256516Y264256D01*
X256585Y263727D01*
X256137Y263506D01*
X254760Y264882D01*
X254426Y265105D01*
X254033Y265183D01*
X84652D01*
X84652Y265183D01*
X84259Y265105D01*
X83925Y264882D01*
X83925Y264882D01*
X80416Y261373D01*
X80365Y261394D01*
X79528Y261504D01*
X78690Y261394D01*
X77909Y261070D01*
X77239Y260556D01*
X76725Y259886D01*
X76402Y259105D01*
X76291Y258268D01*
X76402Y257430D01*
X76725Y256649D01*
X77239Y255979D01*
X77909Y255465D01*
X78690Y255142D01*
X79528Y255031D01*
X80365Y255142D01*
X81146Y255465D01*
X81816Y255979D01*
X82330Y256649D01*
X82654Y257430D01*
X82764Y258268D01*
X82654Y259105D01*
X82330Y259886D01*
X82115Y260166D01*
X85078Y263128D01*
X253608D01*
X256930Y259806D01*
X256590Y258987D01*
X256465Y258032D01*
X256590Y257076D01*
X256959Y256185D01*
X257546Y255420D01*
X257628Y255357D01*
X257468Y254884D01*
X256652D01*
X256259Y254805D01*
X255925Y254583D01*
X255925Y254583D01*
X253425Y252082D01*
X253203Y251749D01*
X253124Y251356D01*
Y250935D01*
X252676Y250714D01*
X252004Y251230D01*
X251113Y251599D01*
X250158Y251725D01*
X249202Y251599D01*
X248311Y251230D01*
X247546Y250643D01*
X246959Y249878D01*
X246590Y248987D01*
X246465Y248031D01*
X246590Y247076D01*
X246959Y246185D01*
X247546Y245420D01*
X248311Y244833D01*
X249202Y244464D01*
X250158Y244338D01*
X251113Y244464D01*
X252004Y244833D01*
X252676Y245349D01*
X253124Y245128D01*
Y243817D01*
X252748Y243487D01*
X251952Y243592D01*
X251114Y243482D01*
X250334Y243159D01*
X249663Y242644D01*
X249149Y241974D01*
X248888Y241343D01*
X248397Y241245D01*
X243386Y246257D01*
X243725Y247076D01*
X243851Y248031D01*
X243725Y248987D01*
X243356Y249878D01*
X242769Y250643D01*
X242004Y251230D01*
X241113Y251599D01*
X240158Y251725D01*
X239202Y251599D01*
X238311Y251230D01*
X237546Y250643D01*
X236959Y249878D01*
X236590Y248987D01*
X236465Y248031D01*
X236590Y247076D01*
X236959Y246185D01*
X237546Y245420D01*
X238311Y244833D01*
X239202Y244464D01*
X240158Y244338D01*
X241113Y244464D01*
X241932Y244804D01*
X247416Y239319D01*
Y238656D01*
X247416Y238656D01*
X247416D01*
X247495Y238263D01*
X247717Y237929D01*
X249525Y236121D01*
X249859Y235898D01*
X250252Y235820D01*
X250252Y235820D01*
X265034D01*
X271846Y229009D01*
X271602Y228418D01*
X271491Y227580D01*
X271602Y226743D01*
X271806Y226249D01*
X271391Y225971D01*
X263379Y233982D01*
X263045Y234205D01*
X262652Y234283D01*
X202269D01*
X202063Y238740D01*
X202336Y238853D01*
X202977Y239345D01*
X203470Y239987D01*
X203779Y240734D01*
X203885Y241535D01*
Y246654D01*
X203779Y247455D01*
X203470Y248202D01*
X202977Y248844D01*
X202336Y249336D01*
X201589Y249645D01*
X200787Y249751D01*
X199986Y249645D01*
X199239Y249336D01*
X198597Y248844D01*
X198105Y248202D01*
X197795Y247455D01*
X197690Y246654D01*
Y241535D01*
X197795Y240734D01*
X198105Y239987D01*
X198597Y239345D01*
X199239Y238853D01*
X199986Y238544D01*
X200015Y238540D01*
X200261Y233208D01*
X200303Y233036D01*
X200338Y232863D01*
X200351Y232843D01*
X200357Y232819D01*
X200462Y232677D01*
X200561Y232529D01*
X200581Y232516D01*
X200595Y232497D01*
X200747Y232405D01*
X200894Y232307D01*
X200918Y232302D01*
X200938Y232289D01*
X201114Y232263D01*
X201287Y232228D01*
X262226D01*
X268435Y226019D01*
X268214Y225571D01*
X268052Y225592D01*
X267214Y225482D01*
X266434Y225159D01*
X266206Y224984D01*
X204439D01*
X193941Y235482D01*
Y238637D01*
X194462Y238853D01*
X195104Y239345D01*
X195596Y239987D01*
X195905Y240734D01*
X196011Y241535D01*
Y246654D01*
X195905Y247455D01*
X195596Y248202D01*
X195104Y248844D01*
X194462Y249336D01*
X193715Y249645D01*
X192913Y249751D01*
X192112Y249645D01*
X191365Y249336D01*
X190723Y248844D01*
X190231Y248202D01*
X189921Y247455D01*
X189816Y246654D01*
Y241535D01*
X189921Y240734D01*
X190231Y239987D01*
X190723Y239345D01*
X191365Y238853D01*
X191886Y238637D01*
Y235716D01*
X191424Y235525D01*
X187392Y239557D01*
X187722Y239987D01*
X188031Y240734D01*
X188137Y241535D01*
Y246654D01*
X188031Y247455D01*
X187722Y248202D01*
X187230Y248844D01*
X186588Y249336D01*
X186552Y249516D01*
X187357Y250320D01*
X235944D01*
X236337Y250398D01*
X236671Y250621D01*
X239048Y252998D01*
X239048Y252998D01*
X239270Y253332D01*
X239349Y253725D01*
X239349Y253725D01*
Y254370D01*
X243819D01*
Y261693D01*
X236496D01*
Y257613D01*
X236048Y257392D01*
X235570Y257759D01*
X234790Y258082D01*
X233952Y258192D01*
X233114Y258082D01*
X232334Y257759D01*
X231663Y257244D01*
X231149Y256574D01*
X230826Y255793D01*
X230716Y254956D01*
X230826Y254118D01*
X230834Y254098D01*
X230556Y253683D01*
X184301D01*
X183907Y253604D01*
X183574Y253382D01*
X167440Y237248D01*
X141346D01*
X139837Y238757D01*
X139869Y239256D01*
X139986Y239345D01*
X140478Y239987D01*
X140787Y240734D01*
X140893Y241535D01*
Y246654D01*
X140787Y247455D01*
X140478Y248202D01*
X139986Y248844D01*
X139344Y249336D01*
X138597Y249645D01*
X137795Y249751D01*
X136994Y249645D01*
X136247Y249336D01*
X135605Y248844D01*
X135113Y248202D01*
X134803Y247455D01*
X134698Y246654D01*
Y241535D01*
X134803Y240734D01*
X135113Y239987D01*
X135605Y239345D01*
X136247Y238853D01*
X136994Y238544D01*
X137167Y238521D01*
X140193Y235494D01*
X140527Y235271D01*
X140920Y235193D01*
X140920Y235193D01*
X167866D01*
X168259Y235271D01*
X168593Y235494D01*
X184675Y251576D01*
X185166Y251479D01*
X185296Y251165D01*
X184313Y250183D01*
X184090Y249849D01*
X184032Y249560D01*
X183491Y249336D01*
X182849Y248844D01*
X182357Y248202D01*
X182047Y247455D01*
X181942Y246654D01*
Y241535D01*
X182047Y240734D01*
X182357Y239987D01*
X182849Y239345D01*
X182857Y239227D01*
X176154Y232524D01*
X130033D01*
X123925Y238632D01*
X123957Y239130D01*
X124237Y239345D01*
X124730Y239987D01*
X125039Y240734D01*
X125145Y241535D01*
Y246654D01*
X125039Y247455D01*
X124730Y248202D01*
X124237Y248844D01*
X124300Y249028D01*
X127307D01*
X127529Y248580D01*
X127239Y248202D01*
X126929Y247455D01*
X126824Y246654D01*
Y241535D01*
X126929Y240734D01*
X127239Y239987D01*
X127731Y239345D01*
X128373Y238853D01*
X129120Y238544D01*
X129921Y238438D01*
X130723Y238544D01*
X131470Y238853D01*
X132111Y239345D01*
X132604Y239987D01*
X132913Y240734D01*
X133019Y241535D01*
Y246654D01*
X132913Y247455D01*
X132604Y248202D01*
X132111Y248844D01*
X131470Y249336D01*
X130949Y249552D01*
Y250056D01*
X130871Y250449D01*
X130648Y250782D01*
X130314Y251005D01*
X129921Y251083D01*
X120652D01*
X120652Y251083D01*
X120259Y251005D01*
X119925Y250782D01*
X117925Y248782D01*
X117703Y248449D01*
X117624Y248056D01*
X117624Y248056D01*
X117624D01*
X117624Y248056D01*
X117624D01*
Y247628D01*
X117134Y247530D01*
X116856Y248202D01*
X116363Y248844D01*
X115722Y249336D01*
X114975Y249645D01*
X114673Y249685D01*
Y244093D01*
Y238504D01*
X114975Y238544D01*
X115722Y238853D01*
X116363Y239345D01*
X116856Y239987D01*
X117134Y240659D01*
X117624Y240561D01*
Y193356D01*
X117624Y193356D01*
X117624D01*
X117703Y192963D01*
X117925Y192629D01*
X126925Y183629D01*
X127259Y183406D01*
X127652Y183328D01*
X161226D01*
X164925Y179629D01*
X164925Y179629D01*
X165259Y179406D01*
X165652Y179328D01*
X247105D01*
X247349Y178738D01*
X247864Y178068D01*
X248534Y177553D01*
X249314Y177230D01*
X250152Y177120D01*
X250990Y177230D01*
X251770Y177553D01*
X252440Y178068D01*
X252955Y178738D01*
X253278Y179518D01*
X253388Y180356D01*
X253278Y181193D01*
X252955Y181974D01*
X252440Y182644D01*
X251770Y183159D01*
X250990Y183482D01*
X250152Y183592D01*
X249314Y183482D01*
X248534Y183159D01*
X247864Y182644D01*
X247349Y181974D01*
X247105Y181384D01*
X166078D01*
X162379Y185082D01*
X162045Y185305D01*
X161652Y185383D01*
X128078D01*
X123113Y190348D01*
X123391Y190764D01*
X123714Y190630D01*
X124552Y190520D01*
X125390Y190630D01*
X126170Y190953D01*
X126840Y191467D01*
X127355Y192138D01*
X127599Y192728D01*
X207333D01*
X207524Y192266D01*
X202042Y186784D01*
X179399D01*
X179155Y187374D01*
X178640Y188044D01*
X177970Y188559D01*
X177190Y188882D01*
X176352Y188992D01*
X175514Y188882D01*
X174734Y188559D01*
X174064Y188044D01*
X173549Y187374D01*
X173226Y186593D01*
X173116Y185756D01*
X173226Y184918D01*
X173549Y184138D01*
X174064Y183467D01*
X174734Y182953D01*
X175514Y182630D01*
X176352Y182520D01*
X177190Y182630D01*
X177970Y182953D01*
X178640Y183467D01*
X179155Y184138D01*
X179399Y184728D01*
X202467D01*
X202860Y184807D01*
X203194Y185029D01*
X222493Y204328D01*
X255787D01*
Y201127D01*
X255326Y200936D01*
X252779Y203483D01*
X252445Y203705D01*
X252052Y203783D01*
X242044D01*
X242044Y203783D01*
X241651Y203705D01*
X241317Y203483D01*
X240017Y202183D01*
X239795Y201849D01*
X239716Y201456D01*
X239716Y201456D01*
X239716D01*
X239716Y201456D01*
X239716D01*
Y195664D01*
X239716Y195664D01*
X239716D01*
X239795Y195271D01*
X240017Y194937D01*
X240071Y194884D01*
X239826Y194293D01*
X239716Y193456D01*
X239826Y192618D01*
X240149Y191838D01*
X240664Y191167D01*
X241334Y190653D01*
X242114Y190330D01*
X242952Y190220D01*
X243790Y190330D01*
X244570Y190653D01*
X245240Y191167D01*
X245755Y191838D01*
X245825Y192006D01*
X246322Y192388D01*
X246423Y192415D01*
X247061Y191926D01*
X247841Y191603D01*
X248679Y191493D01*
X249517Y191603D01*
X250297Y191926D01*
X250967Y192440D01*
X251482Y193111D01*
X251726Y193701D01*
X255787D01*
Y192035D01*
X259843D01*
Y191536D01*
X260343D01*
Y188661D01*
X263224D01*
Y187782D01*
X248644Y173201D01*
X242605D01*
X242605Y173201D01*
X242212Y173123D01*
X241878Y172900D01*
X241266Y172287D01*
X220390D01*
X220340Y172668D01*
X220017Y173448D01*
X219503Y174118D01*
X218832Y174633D01*
X218052Y174956D01*
X217214Y175066D01*
X216377Y174956D01*
X215596Y174633D01*
X214926Y174118D01*
X214412Y173448D01*
X214088Y172668D01*
X213978Y171830D01*
X214088Y170992D01*
X214412Y170212D01*
X214926Y169541D01*
X215596Y169027D01*
X216377Y168704D01*
X217214Y168594D01*
X218052Y168704D01*
X218832Y169027D01*
X219503Y169541D01*
X220017Y170212D01*
X220026Y170232D01*
X240406D01*
X240597Y169770D01*
X232989Y162162D01*
X125589D01*
X87653Y200098D01*
X87898Y200689D01*
X88008Y201526D01*
X87898Y202364D01*
X87574Y203145D01*
X87060Y203815D01*
X86390Y204329D01*
X85609Y204653D01*
X84772Y204763D01*
X83934Y204653D01*
X83153Y204329D01*
X82760Y204842D01*
X82788Y205056D01*
X82678Y205893D01*
X82355Y206674D01*
X81840Y207344D01*
X81170Y207859D01*
X80390Y208182D01*
X79552Y208292D01*
X78714Y208182D01*
X77934Y207859D01*
X77263Y207344D01*
X77182Y207239D01*
X76709Y207399D01*
Y215071D01*
X77312Y215674D01*
X77903Y215430D01*
X78740Y215319D01*
X79578Y215430D01*
X80358Y215753D01*
X81029Y216267D01*
X81543Y216938D01*
X81866Y217718D01*
X81976Y218556D01*
X81866Y219393D01*
X81543Y220174D01*
X81029Y220844D01*
X80358Y221359D01*
X79578Y221682D01*
X78740Y221792D01*
X77903Y221682D01*
X77770Y221627D01*
X77492Y222043D01*
X77878Y222428D01*
X98120D01*
X98365Y221838D01*
X98879Y221167D01*
X99549Y220653D01*
X100330Y220330D01*
X101168Y220219D01*
X102005Y220330D01*
X102786Y220653D01*
X103456Y221167D01*
X103970Y221838D01*
X104294Y222618D01*
X104404Y223456D01*
X104294Y224293D01*
X103970Y225074D01*
X103456Y225744D01*
X102786Y226259D01*
X102005Y226582D01*
X101168Y226692D01*
X100330Y226582D01*
X99549Y226259D01*
X98879Y225744D01*
X98365Y225074D01*
X98120Y224483D01*
X77452D01*
X77452Y224483D01*
X77059Y224405D01*
X76725Y224183D01*
X76725Y224183D01*
X73647Y221105D01*
X73425Y220771D01*
X73347Y220378D01*
X73347Y220378D01*
X73347D01*
X73347Y220378D01*
X73347D01*
Y207307D01*
X72898Y207086D01*
X72484Y207404D01*
X71894Y207648D01*
Y238637D01*
X72415Y238853D01*
X73056Y239345D01*
X73549Y239987D01*
X73858Y240734D01*
X73963Y241535D01*
Y246654D01*
X73858Y247455D01*
X73549Y248202D01*
X73056Y248844D01*
X72415Y249336D01*
X71668Y249645D01*
X70866Y249751D01*
X70065Y249645D01*
X69318Y249336D01*
X68676Y248844D01*
X68184Y248202D01*
X67874Y247455D01*
X67769Y246654D01*
Y241535D01*
X67874Y240734D01*
X68184Y239987D01*
X68676Y239345D01*
X69318Y238853D01*
X69839Y238637D01*
Y207648D01*
X69248Y207404D01*
X68578Y206889D01*
X68063Y206219D01*
X67740Y205438D01*
X67630Y204601D01*
X67740Y203763D01*
X68063Y202983D01*
X68578Y202312D01*
X69248Y201798D01*
X70029Y201475D01*
X70784Y201375D01*
X70945Y200902D01*
X70533Y200490D01*
X70310Y200157D01*
X70232Y199764D01*
Y177480D01*
X65039D01*
Y165039D01*
X77480D01*
Y177480D01*
X72287D01*
Y199338D01*
X74192Y201242D01*
X74654Y201051D01*
Y186926D01*
X74654Y186926D01*
X74654D01*
X74732Y186533D01*
X74955Y186200D01*
X83212Y177942D01*
X83021Y177480D01*
X81181D01*
Y165039D01*
X87323D01*
Y177480D01*
X85280D01*
Y178356D01*
X85280Y178356D01*
X85201Y178749D01*
X84979Y179083D01*
X76709Y187352D01*
Y202712D01*
X77182Y202873D01*
X77263Y202767D01*
X77934Y202253D01*
X78524Y202009D01*
Y188558D01*
X78524Y188558D01*
X78524D01*
X78603Y188165D01*
X78825Y187832D01*
X90630Y176027D01*
Y165039D01*
X103071D01*
Y177480D01*
X92083D01*
X80580Y188984D01*
Y202009D01*
X81170Y202253D01*
X81563Y201741D01*
X81535Y201526D01*
X81646Y200689D01*
X81969Y199908D01*
X82483Y199238D01*
X83153Y198724D01*
X83934Y198400D01*
X84772Y198290D01*
X85609Y198400D01*
X86200Y198645D01*
X124437Y160408D01*
X124437Y160408D01*
X124770Y160185D01*
X125164Y160107D01*
X233415D01*
X233808Y160185D01*
X234141Y160408D01*
X243572Y169839D01*
X249611D01*
X250004Y169917D01*
X250337Y170140D01*
X266286Y186088D01*
X266508Y186421D01*
X266587Y186814D01*
Y189543D01*
X268272Y191228D01*
X276005D01*
X276249Y190638D01*
X276764Y189968D01*
X277434Y189453D01*
X278214Y189130D01*
X279052Y189020D01*
X279890Y189130D01*
X280670Y189453D01*
X281084Y189771D01*
X281532Y189550D01*
Y164048D01*
X281532Y164048D01*
X281532D01*
X281611Y163655D01*
X281833Y163321D01*
X287024Y158130D01*
Y157598D01*
X285343D01*
Y153542D01*
X284844D01*
Y153043D01*
X281969D01*
Y149725D01*
X281863Y149644D01*
X281463Y149122D01*
X280989Y149283D01*
Y172431D01*
X280989Y172431D01*
X280911Y172824D01*
X280688Y173158D01*
X280688Y173158D01*
X274418Y179428D01*
X274663Y180018D01*
X274773Y180856D01*
X274663Y181693D01*
X274340Y182474D01*
X273825Y183144D01*
X273155Y183659D01*
X272374Y183982D01*
X271537Y184092D01*
X270699Y183982D01*
X269919Y183659D01*
X269248Y183144D01*
X268734Y182474D01*
X268411Y181693D01*
X268300Y180856D01*
X268411Y180018D01*
X268734Y179238D01*
X269248Y178568D01*
X269919Y178053D01*
X270699Y177730D01*
X271537Y177620D01*
X272374Y177730D01*
X272965Y177974D01*
X278934Y172005D01*
Y141375D01*
X277029Y139471D01*
X276807Y139137D01*
X276728Y138744D01*
Y138307D01*
X274095D01*
Y129410D01*
X281417D01*
D01*
X281417D01*
X281616Y129210D01*
Y126288D01*
X281026Y126043D01*
X280356Y125529D01*
X279841Y124859D01*
X279518Y124078D01*
X279408Y123241D01*
X279518Y122403D01*
X279841Y121623D01*
X280356Y120952D01*
X281026Y120438D01*
X281806Y120115D01*
X282644Y120004D01*
X283482Y120115D01*
X284262Y120438D01*
X284932Y120952D01*
X285447Y121623D01*
X285770Y122403D01*
X285880Y123241D01*
X285770Y124078D01*
X285447Y124859D01*
X284932Y125529D01*
X284262Y126043D01*
X283672Y126288D01*
Y128349D01*
X284120Y128571D01*
X284534Y128253D01*
X285314Y127930D01*
X286152Y127820D01*
X286990Y127930D01*
X287770Y128253D01*
X288440Y128768D01*
X288955Y129438D01*
X289278Y130218D01*
X289388Y131056D01*
X289278Y131894D01*
X289033Y132484D01*
X289813Y133264D01*
X290083Y133210D01*
X290316Y133114D01*
Y122220D01*
X290316Y122220D01*
X290316D01*
X290395Y121826D01*
X290617Y121493D01*
X291126Y120984D01*
X290882Y120394D01*
X290771Y119556D01*
X290882Y118718D01*
X291205Y117938D01*
X291719Y117268D01*
X292390Y116753D01*
X292192Y116276D01*
X280185D01*
X267513Y128948D01*
X267704Y129410D01*
X269213D01*
Y138307D01*
X268798D01*
X268613Y138772D01*
X272960Y142867D01*
X273235Y142656D01*
X274016Y142332D01*
X274854Y142222D01*
X275691Y142332D01*
X276472Y142656D01*
X277142Y143170D01*
X277656Y143840D01*
X277980Y144621D01*
X278090Y145458D01*
X277980Y146296D01*
X277656Y147076D01*
X277142Y147747D01*
X276472Y148261D01*
X275691Y148584D01*
X275240Y148644D01*
Y149488D01*
X277087D01*
Y157598D01*
X271339D01*
Y149488D01*
X273185D01*
Y148222D01*
X272565Y147747D01*
X272051Y147076D01*
X271727Y146296D01*
X271617Y145458D01*
X271692Y144893D01*
X267322Y140523D01*
X266874Y140744D01*
X266888Y140856D01*
X266778Y141693D01*
X266455Y142474D01*
X265940Y143144D01*
X265270Y143659D01*
X264490Y143982D01*
X263652Y144092D01*
X263280Y144419D01*
Y147256D01*
X263280Y147256D01*
X263201Y147649D01*
X262979Y147983D01*
X262979Y147983D01*
X260233Y150728D01*
X260478Y151318D01*
X260588Y152156D01*
X260478Y152994D01*
X260155Y153774D01*
X259640Y154444D01*
X258970Y154959D01*
Y155112D01*
X259070Y155153D01*
X259740Y155667D01*
X260255Y156338D01*
X260578Y157118D01*
X260688Y157956D01*
X260578Y158793D01*
X260255Y159574D01*
X259740Y160244D01*
X259070Y160759D01*
X258290Y161082D01*
X257452Y161192D01*
X256614Y161082D01*
X255834Y160759D01*
X255164Y160244D01*
X254649Y159574D01*
X254405Y158984D01*
X247502D01*
X247291Y159492D01*
X246777Y160162D01*
X246106Y160677D01*
X245326Y161000D01*
X244488Y161110D01*
X243651Y161000D01*
X242870Y160677D01*
X242200Y160162D01*
X241685Y159492D01*
X241362Y158712D01*
X241252Y157874D01*
X241362Y157036D01*
X241685Y156256D01*
X242200Y155586D01*
X242870Y155071D01*
X243651Y154748D01*
X244488Y154638D01*
X245326Y154748D01*
X246106Y155071D01*
X246777Y155586D01*
X247291Y156256D01*
X247569Y156928D01*
X254405D01*
X254649Y156338D01*
X255164Y155667D01*
X255569Y155356D01*
X255585Y155319D01*
Y154844D01*
X255064Y154444D01*
X254549Y153774D01*
X254226Y152994D01*
X254116Y152156D01*
X254226Y151318D01*
X254549Y150538D01*
X255064Y149867D01*
X255734Y149353D01*
X256514Y149030D01*
X257352Y148920D01*
X258190Y149030D01*
X258780Y149274D01*
X261224Y146830D01*
Y142963D01*
X260849Y142474D01*
X260526Y141693D01*
X260416Y140856D01*
X260526Y140018D01*
X260849Y139238D01*
X261364Y138567D01*
X261890Y138164D01*
Y129410D01*
X264524D01*
Y128297D01*
X247295Y111068D01*
X247072Y110735D01*
X246994Y110342D01*
X246994Y110342D01*
X246994D01*
X246994Y110342D01*
X246994D01*
Y104575D01*
X246994Y104575D01*
X246994D01*
X247072Y104181D01*
X247295Y103848D01*
X248916Y102227D01*
Y100315D01*
X248543D01*
Y100315D01*
X245480D01*
Y125830D01*
X248178Y128528D01*
X254907D01*
X255151Y127938D01*
X255665Y127268D01*
X256336Y126753D01*
X257116Y126430D01*
X257954Y126320D01*
X258792Y126430D01*
X259572Y126753D01*
X260242Y127268D01*
X260757Y127938D01*
X261080Y128718D01*
X261190Y129556D01*
X261080Y130394D01*
X260757Y131174D01*
X260242Y131844D01*
X259572Y132359D01*
X258792Y132682D01*
X257954Y132792D01*
X257116Y132682D01*
X256336Y132359D01*
X255665Y131844D01*
X255151Y131174D01*
X254907Y130584D01*
X247752D01*
X247359Y130505D01*
X247025Y130282D01*
X247025Y130282D01*
X243725Y126982D01*
X243503Y126649D01*
X243424Y126256D01*
Y100315D01*
X239646D01*
Y92992D01*
X248543D01*
Y92992D01*
X248563D01*
X248916Y92639D01*
Y88110D01*
X248543D01*
Y88110D01*
X239646D01*
Y85476D01*
X203636D01*
X200831Y88282D01*
Y94764D01*
X203465D01*
Y103662D01*
X196142D01*
Y94764D01*
X198775D01*
Y87856D01*
X198775Y87856D01*
X198775D01*
X198854Y87463D01*
X199076Y87129D01*
X202484Y83722D01*
X202484Y83722D01*
X202817Y83499D01*
X202817Y83499D01*
X202817Y83499D01*
D01*
X202817Y83499D01*
X202817Y83499D01*
X203210Y83421D01*
X203210Y83421D01*
X239646D01*
Y81703D01*
X239172Y81542D01*
X238940Y81844D01*
X238270Y82359D01*
X237490Y82682D01*
X237152Y82726D01*
Y80056D01*
X239823D01*
X239778Y80393D01*
X240729Y80787D01*
X243067D01*
Y64882D01*
X239646D01*
Y58284D01*
X210678D01*
X202133Y66828D01*
X202378Y67418D01*
X202488Y68256D01*
X202378Y69094D01*
X202055Y69874D01*
X201540Y70544D01*
X200870Y71059D01*
X200090Y71382D01*
X199252Y71492D01*
X198414Y71382D01*
X197634Y71059D01*
X196964Y70544D01*
X196449Y69874D01*
X196126Y69094D01*
X196016Y68256D01*
X196126Y67418D01*
X196449Y66638D01*
X196964Y65967D01*
X197634Y65453D01*
X198414Y65130D01*
X199252Y65020D01*
X200090Y65130D01*
X200680Y65374D01*
X209525Y56529D01*
X209859Y56306D01*
X210252Y56228D01*
X246726D01*
X248224Y54730D01*
Y52677D01*
X239646D01*
Y45354D01*
X242324D01*
Y31182D01*
X241980Y30837D01*
X241390Y31082D01*
X240552Y31192D01*
X239714Y31082D01*
X238934Y30759D01*
X238264Y30244D01*
X237749Y29574D01*
X237426Y28793D01*
X237316Y27956D01*
X237426Y27118D01*
X237749Y26338D01*
X238152Y25813D01*
X237902Y25380D01*
X237795Y25394D01*
X236827Y25267D01*
X235925Y24893D01*
X235150Y24299D01*
X234556Y23524D01*
X234182Y22622D01*
X234055Y21654D01*
X234182Y20685D01*
X234556Y19783D01*
X235150Y19008D01*
X235925Y18414D01*
X236827Y18040D01*
X237795Y17913D01*
X238763Y18040D01*
X239666Y18414D01*
X240440Y19008D01*
X241035Y19783D01*
X241408Y20685D01*
X241536Y21654D01*
X241408Y22622D01*
X241035Y23524D01*
X240440Y24299D01*
X240393Y24335D01*
X240552Y24720D01*
X241390Y24830D01*
X242170Y25153D01*
X242840Y25668D01*
X243355Y26338D01*
X243678Y27118D01*
X243788Y27956D01*
X243678Y28793D01*
X243433Y29384D01*
X244079Y30029D01*
X244301Y30363D01*
X244380Y30756D01*
X244380Y30756D01*
Y45354D01*
X248224D01*
Y35256D01*
X248224Y35256D01*
X248224D01*
X248303Y34863D01*
X248525Y34529D01*
X252325Y30729D01*
X252659Y30507D01*
X253052Y30428D01*
X367725D01*
X372323Y25830D01*
Y19961D01*
X379646D01*
Y27283D01*
X373776D01*
X368877Y32182D01*
X368544Y32405D01*
X368151Y32484D01*
X356988D01*
X356767Y32932D01*
X357155Y33438D01*
X357478Y34218D01*
X357523Y34556D01*
X351181D01*
X351226Y34218D01*
X351549Y33438D01*
X351937Y32932D01*
X351716Y32484D01*
X253478D01*
X250280Y35682D01*
Y55156D01*
X250280Y55156D01*
X250201Y55549D01*
X249979Y55883D01*
X248473Y57389D01*
X248543Y57559D01*
X248543D01*
X248543Y57559D01*
Y64882D01*
X245122D01*
Y80787D01*
X248543D01*
Y83508D01*
X248864Y83722D01*
X250671Y85529D01*
X250671Y85529D01*
X250893Y85863D01*
X250972Y86256D01*
Y102653D01*
X250893Y103046D01*
X250671Y103379D01*
X249049Y105000D01*
Y109916D01*
X266278Y127144D01*
X266278Y127145D01*
X266398Y127156D01*
X279032Y114521D01*
X279032Y114521D01*
X279366Y114298D01*
X279759Y114220D01*
X279759Y114220D01*
X288340D01*
X288531Y113758D01*
X272627Y97854D01*
X272165Y98045D01*
Y100315D01*
X263980D01*
Y102402D01*
X263980Y102402D01*
X263901Y102796D01*
X263679Y103129D01*
X263679Y103129D01*
X259018Y107790D01*
X259032Y107824D01*
X259142Y108661D01*
X259032Y109499D01*
X258708Y110280D01*
X258194Y110950D01*
X257524Y111464D01*
X256743Y111787D01*
X255906Y111898D01*
X255068Y111787D01*
X254287Y111464D01*
X253617Y110950D01*
X253103Y110280D01*
X252779Y109499D01*
X252669Y108661D01*
X252779Y107824D01*
X253103Y107043D01*
X253617Y106373D01*
X254287Y105859D01*
X255068Y105535D01*
X255906Y105425D01*
X256743Y105535D01*
X257524Y105859D01*
X257817Y106084D01*
X261924Y101977D01*
Y90256D01*
X261924Y90256D01*
X261924D01*
X262003Y89863D01*
X262225Y89529D01*
X263378Y88377D01*
X263268Y88110D01*
X263268D01*
X263268Y88110D01*
Y80787D01*
X266689D01*
Y72148D01*
X265934Y71835D01*
X265264Y71321D01*
X264749Y70651D01*
X264426Y69870D01*
X264316Y69032D01*
X264426Y68195D01*
X264749Y67414D01*
X265264Y66744D01*
X265934Y66229D01*
X266524Y65985D01*
Y64882D01*
X263268D01*
Y57559D01*
X272165D01*
Y64882D01*
X268744D01*
Y66053D01*
X269170Y66229D01*
X269840Y66744D01*
X270355Y67414D01*
X270678Y68195D01*
X270788Y69032D01*
X270678Y69870D01*
X270355Y70651D01*
X269840Y71321D01*
X269170Y71835D01*
X268744Y72012D01*
Y80787D01*
X272165D01*
Y87528D01*
X282953D01*
Y80787D01*
X286374D01*
Y70758D01*
X286134Y70659D01*
X285464Y70144D01*
X284949Y69474D01*
X284626Y68694D01*
X284516Y67856D01*
X284626Y67018D01*
X284949Y66238D01*
X285464Y65567D01*
X285740Y65355D01*
X285579Y64882D01*
X282953D01*
Y57559D01*
X291850D01*
Y64882D01*
X289925D01*
X289764Y65355D01*
X290040Y65567D01*
X290555Y66238D01*
X290878Y67018D01*
X290988Y67856D01*
X290878Y68694D01*
X290555Y69474D01*
X290040Y70144D01*
X289370Y70659D01*
X288590Y70982D01*
X288429Y71003D01*
Y80787D01*
X291850D01*
Y87528D01*
X302638D01*
Y80787D01*
X306059D01*
Y64882D01*
X302638D01*
Y57559D01*
X305224D01*
Y56882D01*
X299280Y50937D01*
X298690Y51182D01*
X297852Y51292D01*
X297014Y51182D01*
X296234Y50859D01*
X295564Y50344D01*
X295049Y49674D01*
X294726Y48893D01*
X294616Y48056D01*
X294726Y47218D01*
X295049Y46438D01*
X295564Y45768D01*
X296234Y45253D01*
X297014Y44930D01*
X297852Y44820D01*
X298690Y44930D01*
X299470Y45253D01*
X300140Y45768D01*
X300655Y46438D01*
X300978Y47218D01*
X301088Y48056D01*
X300978Y48893D01*
X300733Y49484D01*
X302176Y50927D01*
X302638Y50735D01*
Y49516D01*
X306587D01*
Y52677D01*
X304580D01*
X304388Y53139D01*
X306979Y55729D01*
X306979Y55729D01*
X307201Y56063D01*
X307280Y56456D01*
Y57559D01*
X311535D01*
Y64882D01*
X308114D01*
Y80787D01*
X311535D01*
Y87528D01*
X344068D01*
X344461Y87607D01*
X344794Y87829D01*
X418257Y161292D01*
X418847Y161047D01*
X419685Y160937D01*
X420523Y161047D01*
X421303Y161371D01*
X421974Y161885D01*
X422488Y162555D01*
X422811Y163336D01*
X422921Y164173D01*
X422811Y165011D01*
X422488Y165791D01*
X421974Y166462D01*
X421303Y166976D01*
X420523Y167299D01*
X419685Y167410D01*
X418847Y167299D01*
X418067Y166976D01*
X417397Y166462D01*
X416882Y165791D01*
X416559Y165011D01*
X416449Y164173D01*
X416559Y163336D01*
X416804Y162745D01*
X343642Y89583D01*
X265078D01*
X263980Y90682D01*
Y92992D01*
X272165D01*
Y95626D01*
X272880D01*
X273273Y95704D01*
X273607Y95927D01*
X290593Y112913D01*
X301937D01*
X302330Y112991D01*
X302663Y113214D01*
X317879Y128429D01*
X318101Y128763D01*
X318180Y129156D01*
Y149056D01*
X318180Y149056D01*
X318180Y149056D01*
Y149056D01*
X318180D01*
X318180Y149056D01*
X318101Y149449D01*
X317879Y149783D01*
X311480Y156182D01*
Y167848D01*
X311480Y167848D01*
X311480Y167848D01*
Y167848D01*
X311480D01*
X311480Y167848D01*
X311401Y168241D01*
X311179Y168575D01*
X307044Y172709D01*
X307265Y173157D01*
X307052Y173185D01*
Y176355D01*
Y179526D01*
X306714Y179482D01*
X305934Y179159D01*
X305483Y178813D01*
X305034Y179032D01*
X304983Y185518D01*
X305444Y185711D01*
X307825Y183329D01*
X307825Y183329D01*
X307992Y183218D01*
X308159Y183107D01*
X308552Y183028D01*
X308552Y183028D01*
X314552D01*
X314945Y183107D01*
X315279Y183329D01*
X319898Y187949D01*
X322105D01*
X322349Y187358D01*
X322864Y186688D01*
X323534Y186174D01*
X324314Y185850D01*
X324249Y185354D01*
X323335D01*
Y182479D01*
Y179606D01*
X326324D01*
Y174724D01*
X318779D01*
Y168976D01*
X320624D01*
Y160603D01*
X320034Y160359D01*
X319363Y159844D01*
X318849Y159174D01*
X318526Y158394D01*
X318416Y157556D01*
X318526Y156718D01*
X318849Y155938D01*
X319363Y155268D01*
X320034Y154753D01*
X320814Y154430D01*
X321652Y154320D01*
X322490Y154430D01*
X323270Y154753D01*
X323940Y155268D01*
X324455Y155938D01*
X324778Y156718D01*
X324888Y157556D01*
X324778Y158394D01*
X324455Y159174D01*
X323940Y159844D01*
X323270Y160359D01*
X322680Y160603D01*
Y168976D01*
X326890D01*
Y170891D01*
X326940Y170901D01*
X327273Y171124D01*
X328079Y171929D01*
X328301Y172263D01*
X328327Y172390D01*
X328824Y172341D01*
Y113348D01*
X313157Y97681D01*
X311535D01*
Y100315D01*
X302638D01*
Y93374D01*
X302176Y93183D01*
X297979Y97380D01*
X297645Y97603D01*
X297252Y97681D01*
X291850D01*
Y100315D01*
X282953D01*
Y92992D01*
X291850D01*
Y95626D01*
X296826D01*
X301809Y90644D01*
X301809Y90644D01*
X302142Y90421D01*
X302535Y90343D01*
X310268D01*
X310661Y90421D01*
X310995Y90644D01*
X332663Y112312D01*
X332886Y112646D01*
X332964Y113039D01*
Y177789D01*
X332964Y177789D01*
X332964Y177789D01*
Y177789D01*
X332964D01*
X332964Y177789D01*
X332886Y178182D01*
X332827Y178271D01*
Y181490D01*
X333486Y182149D01*
X333486Y182149D01*
X333486Y182149D01*
X333708Y182482D01*
X333787Y182876D01*
Y189712D01*
X335686Y191612D01*
X335686Y191612D01*
X335798Y191779D01*
X335909Y191945D01*
X335987Y192339D01*
X335987Y192339D01*
Y195245D01*
X335909Y195638D01*
X335686Y195971D01*
X333705Y197953D01*
Y206731D01*
X333705Y206731D01*
X333627Y207124D01*
X333404Y207457D01*
X333404Y207457D01*
X322033Y218828D01*
X322278Y219418D01*
X322388Y220256D01*
X322278Y221094D01*
X321955Y221874D01*
X321440Y222544D01*
X320770Y223059D01*
X319990Y223382D01*
X319152Y223492D01*
X318314Y223382D01*
X317534Y223059D01*
X316863Y222544D01*
X316349Y221874D01*
X316026Y221094D01*
X315916Y220256D01*
X316026Y219418D01*
X316349Y218638D01*
X316863Y217968D01*
X317534Y217453D01*
X318314Y217130D01*
X319152Y217020D01*
X319990Y217130D01*
X320580Y217374D01*
X331649Y206305D01*
Y197527D01*
X331649Y197527D01*
X331649D01*
X331670Y197425D01*
X331379Y197018D01*
X330614Y196918D01*
X329834Y196595D01*
X329164Y196080D01*
X328649Y195410D01*
X328326Y194629D01*
X328226Y193869D01*
X327752Y193709D01*
X316379Y205083D01*
X316045Y205305D01*
X315652Y205383D01*
X307881D01*
X307212Y206052D01*
X307456Y206642D01*
X307483Y206846D01*
X307570D01*
X307963Y206925D01*
X308297Y207147D01*
X313079Y211929D01*
X313301Y212263D01*
X313380Y212656D01*
Y220430D01*
X326879Y233929D01*
X327101Y234263D01*
X327180Y234656D01*
X327180Y234656D01*
Y245136D01*
X327628Y245357D01*
X328311Y244833D01*
X329202Y244464D01*
X330158Y244338D01*
X331113Y244464D01*
X332004Y244833D01*
X332769Y245420D01*
X333356Y246185D01*
X333371Y246223D01*
X333862Y246126D01*
Y244981D01*
X333940Y244588D01*
X334124Y244312D01*
Y241703D01*
X333534Y241459D01*
X332863Y240944D01*
X332349Y240274D01*
X332026Y239493D01*
X331916Y238656D01*
X332026Y237818D01*
X332349Y237038D01*
X332863Y236368D01*
X333534Y235853D01*
X334314Y235530D01*
X335152Y235420D01*
X335990Y235530D01*
X336580Y235774D01*
X339124Y233230D01*
Y232730D01*
X338517Y232123D01*
X338295Y231790D01*
X338216Y231397D01*
X338216Y231397D01*
X338216D01*
X338216Y231397D01*
X338216D01*
Y185669D01*
X336675Y184127D01*
X336452Y183794D01*
X336374Y183401D01*
X336374Y183401D01*
X336374D01*
X336374Y183401D01*
X336374D01*
Y176895D01*
X336452Y176502D01*
X336675Y176168D01*
X338767Y174076D01*
X339100Y173854D01*
X339493Y173775D01*
X348921D01*
X349166Y173185D01*
X349680Y172515D01*
X350350Y172000D01*
X351131Y171677D01*
X351969Y171567D01*
X352806Y171677D01*
X353587Y172000D01*
X354257Y172515D01*
X354771Y173185D01*
X355095Y173966D01*
X355205Y174803D01*
X355095Y175641D01*
X354771Y176421D01*
X354257Y177092D01*
X353587Y177606D01*
X352806Y177929D01*
X351969Y178040D01*
X351131Y177929D01*
X350350Y177606D01*
X349680Y177092D01*
X349166Y176421D01*
X348921Y175831D01*
X339919D01*
X338429Y177320D01*
Y178623D01*
X338920Y178721D01*
X338930Y178697D01*
X339444Y178026D01*
X340114Y177512D01*
X340895Y177189D01*
X341732Y177079D01*
X342570Y177189D01*
X343351Y177512D01*
X344021Y178026D01*
X344535Y178697D01*
X344858Y179477D01*
X344969Y180315D01*
X344858Y181153D01*
X344535Y181933D01*
X344021Y182603D01*
X343351Y183118D01*
X342570Y183441D01*
X341732Y183551D01*
X341579Y183686D01*
Y230430D01*
X347678Y236528D01*
X377305D01*
X377549Y235938D01*
X378064Y235267D01*
X378734Y234753D01*
X379514Y234430D01*
X380352Y234319D01*
X381190Y234430D01*
X381970Y234753D01*
X382640Y235267D01*
X383155Y235938D01*
X383478Y236718D01*
X383588Y237556D01*
X383478Y238393D01*
X383155Y239174D01*
X382640Y239844D01*
X381970Y240359D01*
X381190Y240682D01*
X380352Y240792D01*
X379514Y240682D01*
X378734Y240359D01*
X378064Y239844D01*
X377549Y239174D01*
X377305Y238583D01*
X347252D01*
X346859Y238505D01*
X346525Y238282D01*
X346525Y238282D01*
X341647Y233404D01*
X341185Y233596D01*
Y233650D01*
X341107Y234044D01*
X340884Y234377D01*
X340884Y234377D01*
X338033Y237228D01*
X338278Y237818D01*
X338388Y238656D01*
X338278Y239493D01*
X337955Y240274D01*
X337440Y240944D01*
X336770Y241459D01*
X336180Y241703D01*
Y244022D01*
X336642Y244213D01*
X337525Y243329D01*
X337859Y243107D01*
X338252Y243028D01*
X389777D01*
X390170Y243107D01*
X390504Y243329D01*
X392704Y245529D01*
X392927Y245863D01*
X393005Y246256D01*
X393005Y246256D01*
X393005Y246256D01*
Y246256D01*
Y251630D01*
X396178Y254803D01*
X396997Y254464D01*
X397953Y254339D01*
X398909Y254464D01*
X399799Y254833D01*
X400564Y255420D01*
X401151Y256185D01*
X401520Y257076D01*
X401646Y258032D01*
X401520Y258987D01*
X401151Y259878D01*
X400564Y260643D01*
X399799Y261230D01*
X398909Y261599D01*
X397953Y261724D01*
X396997Y261599D01*
X396106Y261230D01*
X395341Y260643D01*
X394755Y259878D01*
X394386Y258987D01*
X394260Y258032D01*
X394386Y257076D01*
X394725Y256257D01*
X391250Y252783D01*
X391028Y252449D01*
X390950Y252056D01*
X390950Y252056D01*
X390950D01*
X390950Y252056D01*
X390950D01*
Y250912D01*
X390501Y250691D01*
X389799Y251230D01*
X388909Y251599D01*
X387953Y251725D01*
X386997Y251599D01*
X386106Y251230D01*
X385341Y250643D01*
X384754Y249878D01*
X384386Y248987D01*
X384260Y248031D01*
X384386Y247076D01*
X384754Y246185D01*
X385256Y245532D01*
X385034Y245083D01*
X380871D01*
X380650Y245532D01*
X381151Y246185D01*
X381520Y247076D01*
X381646Y248031D01*
X381520Y248987D01*
X381151Y249878D01*
X380564Y250643D01*
X379799Y251230D01*
X378909Y251599D01*
X377953Y251725D01*
X376997Y251599D01*
X376178Y251259D01*
X362104Y265333D01*
X361771Y265556D01*
X361378Y265634D01*
X310403D01*
X310009Y265556D01*
X309676Y265333D01*
X309676Y265333D01*
X305010Y260667D01*
X304787Y260334D01*
X304709Y259941D01*
Y237367D01*
X304293Y237089D01*
X303987Y237216D01*
X303150Y237326D01*
X302312Y237216D01*
X301531Y236893D01*
X300861Y236378D01*
X300347Y235708D01*
X300024Y234928D01*
X299913Y234090D01*
X300024Y233252D01*
X300347Y232472D01*
X300861Y231801D01*
X301531Y231287D01*
X302069Y231064D01*
X301971Y230574D01*
X301255D01*
X296813Y235016D01*
X296878Y235173D01*
X296988Y236011D01*
X296878Y236848D01*
X296555Y237629D01*
X296040Y238299D01*
X295370Y238814D01*
X294590Y239137D01*
X293752Y239247D01*
X292914Y239137D01*
X292134Y238814D01*
X291463Y238299D01*
X290949Y237629D01*
X290626Y236848D01*
X290516Y236011D01*
X290626Y235173D01*
X290949Y234393D01*
X291463Y233722D01*
X292134Y233208D01*
X292914Y232885D01*
X293752Y232774D01*
X294590Y232885D01*
X295370Y233208D01*
X295565Y233357D01*
X300102Y228820D01*
X300436Y228597D01*
X300829Y228519D01*
X303691D01*
X304084Y228597D01*
X304418Y228820D01*
X307771Y232173D01*
X307771Y232173D01*
X307993Y232506D01*
X308072Y232899D01*
Y244482D01*
X308487Y244760D01*
X309202Y244464D01*
X310158Y244338D01*
X311113Y244464D01*
X312004Y244833D01*
X312769Y245420D01*
X313356Y246185D01*
X313725Y247076D01*
X313851Y248031D01*
X313725Y248987D01*
X313356Y249878D01*
X312769Y250643D01*
X312004Y251230D01*
X311113Y251599D01*
X310158Y251725D01*
X309202Y251599D01*
X308311Y251230D01*
X307546Y250643D01*
X307238Y250241D01*
X306764Y250402D01*
Y255661D01*
X307238Y255822D01*
X307546Y255420D01*
X308311Y254833D01*
X309202Y254464D01*
X310158Y254339D01*
X311113Y254464D01*
X312004Y254833D01*
X312769Y255420D01*
X313356Y256185D01*
X313725Y257076D01*
X313851Y258032D01*
X313725Y258987D01*
X313386Y259806D01*
X315851Y262272D01*
X324846D01*
X325163Y261885D01*
X325124Y261692D01*
X325124Y261692D01*
X325124D01*
X325124Y261692D01*
X325124D01*
Y235082D01*
X311625Y221583D01*
X311403Y221249D01*
X311324Y220856D01*
Y220591D01*
X308965D01*
Y216534D01*
Y212480D01*
X310070D01*
X310261Y212018D01*
X307491Y209248D01*
X306992Y209281D01*
X306619Y209768D01*
X305948Y210283D01*
X305168Y210606D01*
X304330Y210716D01*
X303492Y210606D01*
X302903Y210362D01*
X300709Y212556D01*
Y220591D01*
X300709Y220591D01*
X300709D01*
X300703Y220608D01*
X301040Y220867D01*
X301555Y221538D01*
X301878Y222318D01*
X301922Y222656D01*
X295581D01*
X295626Y222318D01*
X295949Y221538D01*
X296332Y221039D01*
X296111Y220591D01*
X294961D01*
Y212480D01*
X296807D01*
Y207264D01*
X292211Y202668D01*
X290527D01*
X290478Y203165D01*
X290645Y203199D01*
X290979Y203421D01*
X292279Y204721D01*
X292501Y205055D01*
X292580Y205448D01*
X292580Y205448D01*
Y225056D01*
X292580Y225056D01*
X292580Y225056D01*
Y225056D01*
X292580D01*
X292580Y225056D01*
X292501Y225449D01*
X292279Y225782D01*
X290395Y227666D01*
Y231614D01*
X290316Y232007D01*
X290094Y232341D01*
X290094Y232341D01*
X288035Y234399D01*
Y238486D01*
X294879Y245329D01*
X295101Y245663D01*
X295180Y246056D01*
Y254037D01*
X295101Y254430D01*
X294879Y254764D01*
X294879Y254764D01*
X293386Y256257D01*
X293725Y257076D01*
X293851Y258032D01*
X293725Y258987D01*
X293356Y259878D01*
X292769Y260643D01*
X292004Y261230D01*
X291113Y261599D01*
X290158Y261724D01*
X289202Y261599D01*
X288311Y261230D01*
X287546Y260643D01*
X286959Y259878D01*
X286590Y258987D01*
X286465Y258032D01*
X286590Y257076D01*
X286959Y256185D01*
X287546Y255420D01*
X288311Y254833D01*
X289202Y254464D01*
X290158Y254339D01*
X291113Y254464D01*
X291932Y254803D01*
X293124Y253611D01*
Y250935D01*
X292676Y250714D01*
X292004Y251230D01*
X291113Y251599D01*
X290158Y251725D01*
X289202Y251599D01*
X288311Y251230D01*
X287546Y250643D01*
X286959Y249878D01*
X286665Y249168D01*
X286168Y249217D01*
X286101Y249549D01*
X285879Y249883D01*
X285879Y249883D01*
X281735Y254026D01*
X281402Y254249D01*
X281008Y254327D01*
Y254450D01*
X281113Y254464D01*
X282004Y254833D01*
X282769Y255420D01*
X283356Y256185D01*
X283725Y257076D01*
X283851Y258032D01*
X283725Y258987D01*
X283356Y259878D01*
X282769Y260643D01*
X282004Y261230D01*
X281113Y261599D01*
X280158Y261724D01*
X279202Y261599D01*
X278311Y261230D01*
X277546Y260643D01*
X276959Y259878D01*
X276590Y258987D01*
X276465Y258032D01*
X276590Y257076D01*
X276959Y256185D01*
X277546Y255420D01*
X278311Y254833D01*
X278349Y254818D01*
X278252Y254327D01*
X272064D01*
X271966Y254818D01*
X272004Y254833D01*
X272769Y255420D01*
X273356Y256185D01*
X273725Y257076D01*
X273785Y257531D01*
X270157D01*
Y258031D01*
X269658D01*
Y261659D01*
X269202Y261599D01*
X268311Y261230D01*
X267546Y260643D01*
X266968Y259890D01*
X266763Y259959D01*
X266495Y260070D01*
Y260545D01*
X272143Y266194D01*
X459125D01*
X459728Y265591D01*
X459759Y265433D01*
X459982Y265100D01*
X464749Y260332D01*
X465083Y260110D01*
X465476Y260031D01*
X468382D01*
X468775Y260110D01*
X469109Y260332D01*
X475859Y267083D01*
X503747D01*
X505415Y265415D01*
X505415Y265415D01*
X505748Y265192D01*
X506142Y265114D01*
X515457D01*
X515701Y264524D01*
X516216Y263853D01*
X516886Y263339D01*
X517666Y263016D01*
X518504Y262905D01*
X519342Y263016D01*
X520122Y263339D01*
X520792Y263853D01*
X521307Y264524D01*
X521630Y265304D01*
X521740Y266142D01*
X521630Y266979D01*
X521307Y267760D01*
X520792Y268430D01*
X520760Y268455D01*
X520921Y268928D01*
X522126D01*
X522671Y268384D01*
X522426Y267793D01*
X522316Y266956D01*
X522426Y266118D01*
X522749Y265338D01*
X523264Y264668D01*
X523934Y264153D01*
X524714Y263830D01*
X525552Y263720D01*
X526390Y263830D01*
X527170Y264153D01*
X527840Y264668D01*
X528355Y265338D01*
X528678Y266118D01*
X528788Y266956D01*
X528678Y267793D01*
X528355Y268574D01*
X527840Y269244D01*
X527990Y269685D01*
X608268D01*
Y1969D01*
D02*
G37*
%LPC*%
G36*
X27271Y90051D02*
X20185D01*
Y82965D01*
X21175Y83063D01*
X22607Y83497D01*
X23927Y84203D01*
X25084Y85152D01*
X26033Y86309D01*
X26739Y87629D01*
X27174Y89062D01*
X27271Y90051D01*
D02*
G37*
G36*
X151862D02*
X144776D01*
X144874Y89062D01*
X145308Y87629D01*
X146014Y86309D01*
X146963Y85152D01*
X148120Y84203D01*
X149440Y83497D01*
X150873Y83063D01*
X151862Y82965D01*
Y90051D01*
D02*
G37*
G36*
X19185D02*
X12099D01*
X12197Y89062D01*
X12631Y87629D01*
X13337Y86309D01*
X14286Y85152D01*
X15443Y84203D01*
X16763Y83497D01*
X18195Y83063D01*
X19185Y82965D01*
Y90051D01*
D02*
G37*
G36*
X443988Y83092D02*
X443651Y83047D01*
X442870Y82724D01*
X442200Y82210D01*
X441685Y81539D01*
X441362Y80759D01*
X441318Y80421D01*
X443988D01*
Y83092D01*
D02*
G37*
G36*
X444988D02*
Y80421D01*
X447659D01*
X447614Y80759D01*
X447291Y81539D01*
X446777Y82210D01*
X446106Y82724D01*
X445326Y83047D01*
X444988Y83092D01*
D02*
G37*
G36*
X159948Y90051D02*
X152862D01*
Y82965D01*
X153852Y83063D01*
X155284Y83497D01*
X156604Y84203D01*
X157761Y85152D01*
X158711Y86309D01*
X159416Y87629D01*
X159851Y89062D01*
X159948Y90051D01*
D02*
G37*
G36*
X587114Y96142D02*
Y91051D01*
X589712D01*
Y93110D01*
X589606Y93912D01*
X589297Y94659D01*
X588804Y95300D01*
X588163Y95793D01*
X587416Y96102D01*
X587114Y96142D01*
D02*
G37*
G36*
X19185Y98137D02*
X18195Y98040D01*
X16763Y97605D01*
X15443Y96900D01*
X14286Y95950D01*
X13337Y94793D01*
X12631Y93473D01*
X12197Y92041D01*
X12099Y91051D01*
X19185D01*
Y98137D01*
D02*
G37*
G36*
X586114Y96142D02*
X585813Y96102D01*
X585066Y95793D01*
X584424Y95300D01*
X583932Y94659D01*
X583622Y93912D01*
X583517Y93110D01*
Y91051D01*
X586114D01*
Y96142D01*
D02*
G37*
G36*
Y90051D02*
X583517D01*
Y87992D01*
X583622Y87190D01*
X583932Y86443D01*
X584424Y85802D01*
X585066Y85310D01*
X585813Y85000D01*
X586114Y84961D01*
Y90051D01*
D02*
G37*
G36*
X589712D02*
X587114D01*
Y84961D01*
X587416Y85000D01*
X588163Y85310D01*
X588804Y85802D01*
X589297Y86443D01*
X589606Y87190D01*
X589712Y87992D01*
Y90051D01*
D02*
G37*
G36*
X236152Y82726D02*
X235814Y82682D01*
X235034Y82359D01*
X234364Y81844D01*
X233849Y81174D01*
X233526Y80393D01*
X233481Y80056D01*
X236152D01*
Y82726D01*
D02*
G37*
G36*
Y79056D02*
X233481D01*
X233526Y78718D01*
X233849Y77938D01*
X234364Y77267D01*
X235034Y76753D01*
X235814Y76430D01*
X236152Y76385D01*
Y79056D01*
D02*
G37*
G36*
X239823D02*
X237152D01*
Y76385D01*
X237490Y76430D01*
X238270Y76753D01*
X238940Y77267D01*
X239455Y77938D01*
X239778Y78718D01*
X239823Y79056D01*
D02*
G37*
G36*
X379942Y77846D02*
X377272D01*
Y75176D01*
X377609Y75220D01*
X378390Y75544D01*
X379060Y76058D01*
X379574Y76728D01*
X379898Y77509D01*
X379942Y77846D01*
D02*
G37*
G36*
X200709Y78634D02*
X198335D01*
Y75079D01*
X200709D01*
Y78634D01*
D02*
G37*
G36*
X376272Y77846D02*
X373601D01*
X373646Y77509D01*
X373969Y76728D01*
X374483Y76058D01*
X375153Y75544D01*
X375934Y75220D01*
X376272Y75176D01*
Y77846D01*
D02*
G37*
G36*
X443988Y79421D02*
X441318D01*
X441362Y79084D01*
X441685Y78303D01*
X442200Y77633D01*
X442870Y77118D01*
X443651Y76795D01*
X443988Y76751D01*
Y79421D01*
D02*
G37*
G36*
X197335Y83189D02*
X194961D01*
Y79634D01*
X197335D01*
Y83189D01*
D02*
G37*
G36*
X200709D02*
X198335D01*
Y79634D01*
X200709D01*
Y83189D01*
D02*
G37*
G36*
X377272Y81517D02*
Y78847D01*
X379942D01*
X379898Y79184D01*
X379574Y79965D01*
X379060Y80635D01*
X378390Y81149D01*
X377609Y81472D01*
X377272Y81517D01*
D02*
G37*
G36*
X447659Y79421D02*
X444988D01*
Y76751D01*
X445326Y76795D01*
X446106Y77118D01*
X446777Y77633D01*
X447291Y78303D01*
X447614Y79084D01*
X447659Y79421D01*
D02*
G37*
G36*
X376272Y81517D02*
X375934Y81472D01*
X375153Y81149D01*
X374483Y80635D01*
X373969Y79965D01*
X373646Y79184D01*
X373601Y78847D01*
X376272D01*
Y81517D01*
D02*
G37*
G36*
X20185Y98137D02*
Y91051D01*
X27271D01*
X27174Y92041D01*
X26739Y93473D01*
X26033Y94793D01*
X25084Y95950D01*
X23927Y96900D01*
X22607Y97605D01*
X21175Y98040D01*
X20185Y98137D01*
D02*
G37*
G36*
X129752Y139792D02*
X128914Y139682D01*
X128134Y139359D01*
X127463Y138844D01*
X126949Y138174D01*
X126705Y137583D01*
X104745D01*
X104351Y137505D01*
X104018Y137283D01*
X76106Y109370D01*
X65118D01*
Y96929D01*
X77559D01*
Y107917D01*
X105170Y135528D01*
X126705D01*
X126949Y134938D01*
X127463Y134267D01*
X128134Y133753D01*
X128914Y133430D01*
X129752Y133320D01*
X130590Y133430D01*
X131370Y133753D01*
X132040Y134267D01*
X132555Y134938D01*
X132878Y135718D01*
X132988Y136556D01*
X132878Y137393D01*
X132555Y138174D01*
X132040Y138844D01*
X131370Y139359D01*
X130590Y139682D01*
X129752Y139792D01*
D02*
G37*
G36*
X441452Y167692D02*
X440614Y167582D01*
X439834Y167259D01*
X439163Y166744D01*
X438649Y166074D01*
X438326Y165294D01*
X438216Y164456D01*
X438326Y163618D01*
X438649Y162838D01*
X439163Y162168D01*
X439834Y161653D01*
X440614Y161330D01*
X441452Y161220D01*
X442290Y161330D01*
X442880Y161574D01*
X466925Y137529D01*
X466925Y137529D01*
X467259Y137306D01*
X467259Y137306D01*
X467259Y137306D01*
D01*
X467259Y137306D01*
X467259Y137306D01*
X467652Y137228D01*
X467652Y137228D01*
X537134D01*
X537450Y136841D01*
X537449Y136836D01*
X537449Y136836D01*
D01*
X537126Y136055D01*
X537016Y135217D01*
X537126Y134380D01*
X537370Y133789D01*
X449864Y46283D01*
X449641Y45949D01*
X449563Y45556D01*
Y43819D01*
X446929D01*
Y34921D01*
X454252D01*
Y43819D01*
X451618D01*
Y45130D01*
X538824Y132336D01*
X539414Y132091D01*
X540252Y131981D01*
X541090Y132091D01*
X541870Y132414D01*
X542540Y132929D01*
X543055Y133599D01*
X543378Y134380D01*
X543488Y135217D01*
X543378Y136055D01*
X543055Y136836D01*
X542540Y137506D01*
X541870Y138020D01*
X541090Y138343D01*
X540252Y138454D01*
X539414Y138343D01*
X539366Y138323D01*
X539089Y138739D01*
X542078Y141728D01*
X558605D01*
X558849Y141138D01*
X559364Y140468D01*
X560034Y139953D01*
X560814Y139630D01*
X561652Y139520D01*
X562490Y139630D01*
X563270Y139953D01*
X563940Y140468D01*
X564455Y141138D01*
X564778Y141918D01*
X564888Y142756D01*
X564778Y143594D01*
X564455Y144374D01*
X563940Y145044D01*
X563270Y145559D01*
X562490Y145882D01*
X561652Y145992D01*
X560814Y145882D01*
X560034Y145559D01*
X559364Y145044D01*
X558849Y144374D01*
X558605Y143783D01*
X541652D01*
X541259Y143705D01*
X540925Y143482D01*
X536726Y139284D01*
X473998D01*
X473837Y139757D01*
X473942Y139838D01*
X474456Y140508D01*
X474780Y141288D01*
X474824Y141626D01*
X468483D01*
X468528Y141288D01*
X468851Y140508D01*
X469365Y139838D01*
X469470Y139757D01*
X469309Y139284D01*
X468078D01*
X444333Y163028D01*
X444578Y163618D01*
X444688Y164456D01*
X444578Y165294D01*
X444255Y166074D01*
X443740Y166744D01*
X443070Y167259D01*
X442290Y167582D01*
X441452Y167692D01*
D02*
G37*
G36*
X318252Y125926D02*
Y123256D01*
X320922D01*
X320878Y123593D01*
X320555Y124374D01*
X320040Y125044D01*
X319370Y125559D01*
X318590Y125882D01*
X318252Y125926D01*
D02*
G37*
G36*
X320922Y122256D02*
X318252D01*
Y119585D01*
X318590Y119630D01*
X319370Y119953D01*
X320040Y120467D01*
X320555Y121138D01*
X320878Y121918D01*
X320922Y122256D01*
D02*
G37*
G36*
X317252Y125926D02*
X316914Y125882D01*
X316134Y125559D01*
X315463Y125044D01*
X314949Y124374D01*
X314626Y123593D01*
X314581Y123256D01*
X317252D01*
Y125926D01*
D02*
G37*
G36*
X257152Y147192D02*
X256314Y147082D01*
X255534Y146759D01*
X254864Y146244D01*
X254349Y145574D01*
X254105Y144983D01*
X217352D01*
X216959Y144905D01*
X216625Y144683D01*
X216625Y144683D01*
X186872Y114929D01*
X186649Y114596D01*
X186571Y114202D01*
Y114084D01*
X110899D01*
X110655Y114674D01*
X110140Y115344D01*
X109470Y115859D01*
X108690Y116182D01*
X107852Y116292D01*
X107014Y116182D01*
X106234Y115859D01*
X105563Y115344D01*
X105049Y114674D01*
X104726Y113893D01*
X104616Y113056D01*
X104726Y112218D01*
X105049Y111438D01*
X105563Y110767D01*
X106234Y110253D01*
X107014Y109930D01*
X107852Y109820D01*
X108690Y109930D01*
X109470Y110253D01*
X110140Y110767D01*
X110655Y111438D01*
X110899Y112028D01*
X186373D01*
X186571Y111830D01*
Y103662D01*
X183937D01*
Y94764D01*
X186571D01*
Y89775D01*
X186478Y89683D01*
X186255Y89349D01*
X186177Y88956D01*
Y83189D01*
X184331D01*
Y75079D01*
X190079D01*
Y83189D01*
X188232D01*
Y88530D01*
X188325Y88623D01*
X188325Y88623D01*
X188548Y88956D01*
X188626Y89350D01*
Y94764D01*
X191260D01*
Y103662D01*
X188626D01*
Y112256D01*
Y113777D01*
X217778Y142928D01*
X254105D01*
X254349Y142338D01*
X254864Y141667D01*
X255534Y141153D01*
X256314Y140830D01*
X257152Y140720D01*
X257990Y140830D01*
X258770Y141153D01*
X259440Y141667D01*
X259955Y142338D01*
X260278Y143118D01*
X260388Y143956D01*
X260278Y144793D01*
X259955Y145574D01*
X259440Y146244D01*
X258770Y146759D01*
X257990Y147082D01*
X257152Y147192D01*
D02*
G37*
G36*
X117342Y160059D02*
X110216D01*
Y150965D01*
X117342D01*
Y160059D01*
D02*
G37*
G36*
X284343Y157598D02*
X281969D01*
Y154043D01*
X284343D01*
Y157598D01*
D02*
G37*
G36*
X48445Y160059D02*
X41319D01*
Y150965D01*
X48445D01*
Y160059D01*
D02*
G37*
G36*
X471153Y145297D02*
X470816Y145252D01*
X470035Y144929D01*
X469365Y144414D01*
X468851Y143744D01*
X468528Y142964D01*
X468483Y142626D01*
X471153D01*
Y145297D01*
D02*
G37*
G36*
X472154D02*
Y142626D01*
X474824D01*
X474780Y142964D01*
X474456Y143744D01*
X473942Y144414D01*
X473272Y144929D01*
X472491Y145252D01*
X472154Y145297D01*
D02*
G37*
G36*
X317252Y122256D02*
X314581D01*
X314626Y121918D01*
X314949Y121138D01*
X315463Y120467D01*
X316134Y119953D01*
X316914Y119630D01*
X317252Y119585D01*
Y122256D01*
D02*
G37*
G36*
X87165Y109370D02*
X81024D01*
Y96929D01*
X87165D01*
Y109370D01*
D02*
G37*
G36*
X96350Y102650D02*
X90630D01*
Y96929D01*
X96350D01*
Y102650D01*
D02*
G37*
G36*
X562992Y95833D02*
X561625Y95653D01*
X560351Y95125D01*
X559258Y94286D01*
X558464Y93251D01*
X543898D01*
X543105Y94286D01*
X542011Y95125D01*
X540737Y95653D01*
X539370Y95833D01*
X538003Y95653D01*
X536729Y95125D01*
X535636Y94286D01*
X534796Y93192D01*
X534269Y91918D01*
X534089Y90551D01*
X534269Y89184D01*
X534796Y87910D01*
X535636Y86817D01*
X536729Y85977D01*
X538003Y85450D01*
X539370Y85270D01*
X540737Y85450D01*
X542011Y85977D01*
X543105Y86817D01*
X543898Y87851D01*
X558464D01*
X559258Y86817D01*
X560351Y85977D01*
X561625Y85450D01*
X562992Y85270D01*
X564285Y85440D01*
X581748Y67976D01*
Y67441D01*
X580787D01*
Y58543D01*
X588110D01*
Y67441D01*
X587149D01*
Y69095D01*
X587057Y69793D01*
X586787Y70445D01*
X586358Y71004D01*
X568103Y89259D01*
X568273Y90551D01*
X568094Y91918D01*
X567566Y93192D01*
X566727Y94286D01*
X565633Y95125D01*
X564359Y95653D01*
X562992Y95833D01*
D02*
G37*
G36*
X151862Y98137D02*
X150873Y98040D01*
X149440Y97605D01*
X148120Y96900D01*
X146963Y95950D01*
X146014Y94793D01*
X145308Y93473D01*
X144874Y92041D01*
X144776Y91051D01*
X151862D01*
Y98137D01*
D02*
G37*
G36*
X152862D02*
Y91051D01*
X159948D01*
X159851Y92041D01*
X159416Y93473D01*
X158711Y94793D01*
X157761Y95950D01*
X156604Y96900D01*
X155284Y97605D01*
X153852Y98040D01*
X152862Y98137D01*
D02*
G37*
G36*
X103071Y102650D02*
X97350D01*
Y96929D01*
X103071D01*
Y102650D01*
D02*
G37*
G36*
X222441Y130664D02*
X221067Y130528D01*
X219746Y130128D01*
X218529Y129477D01*
X217462Y128601D01*
X216586Y127534D01*
X215935Y126317D01*
X215534Y124996D01*
X215399Y123622D01*
X215534Y122248D01*
X215935Y120927D01*
X216586Y119710D01*
X217462Y118643D01*
X218529Y117767D01*
X219746Y117116D01*
X221067Y116716D01*
X222441Y116580D01*
X223815Y116716D01*
X225136Y117116D01*
X226353Y117767D01*
X227420Y118643D01*
X228296Y119710D01*
X228947Y120927D01*
X229347Y122248D01*
X229483Y123622D01*
X229347Y124996D01*
X228947Y126317D01*
X228296Y127534D01*
X227420Y128601D01*
X226353Y129477D01*
X225136Y130128D01*
X223815Y130528D01*
X222441Y130664D01*
D02*
G37*
G36*
X504331D02*
X502957Y130528D01*
X501636Y130128D01*
X500419Y129477D01*
X499351Y128601D01*
X498476Y127534D01*
X497825Y126317D01*
X497424Y124996D01*
X497289Y123622D01*
X497424Y122248D01*
X497825Y120927D01*
X498476Y119710D01*
X499351Y118643D01*
X500419Y117767D01*
X501636Y117116D01*
X502957Y116716D01*
X504331Y116580D01*
X505704Y116716D01*
X507025Y117116D01*
X508243Y117767D01*
X509310Y118643D01*
X510186Y119710D01*
X510837Y120927D01*
X511237Y122248D01*
X511373Y123622D01*
X511237Y124996D01*
X510837Y126317D01*
X510186Y127534D01*
X509310Y128601D01*
X508243Y129477D01*
X507025Y130128D01*
X505704Y130528D01*
X504331Y130664D01*
D02*
G37*
G36*
X388952Y112992D02*
X388114Y112882D01*
X387334Y112559D01*
X386664Y112044D01*
X386149Y111374D01*
X385826Y110593D01*
X385716Y109756D01*
X385826Y108918D01*
X386070Y108328D01*
X318326Y40584D01*
X265011D01*
X264790Y41032D01*
X265255Y41638D01*
X265578Y42418D01*
X265622Y42756D01*
X259281D01*
X259326Y42418D01*
X259437Y42149D01*
X259040Y41844D01*
X258370Y42359D01*
X257590Y42682D01*
X256752Y42792D01*
X255914Y42682D01*
X255134Y42359D01*
X254464Y41844D01*
X253949Y41174D01*
X253626Y40393D01*
X253516Y39556D01*
X253626Y38718D01*
X253949Y37938D01*
X254464Y37268D01*
X255134Y36753D01*
X255914Y36430D01*
X256752Y36320D01*
X257590Y36430D01*
X258370Y36753D01*
X259040Y37268D01*
X259555Y37938D01*
X259799Y38528D01*
X318752D01*
X319145Y38607D01*
X319479Y38829D01*
X387524Y106874D01*
X388114Y106630D01*
X388952Y106520D01*
X389790Y106630D01*
X390570Y106953D01*
X391240Y107467D01*
X391755Y108138D01*
X392078Y108918D01*
X392188Y109756D01*
X392078Y110593D01*
X391755Y111374D01*
X391240Y112044D01*
X390570Y112559D01*
X389790Y112882D01*
X388952Y112992D01*
D02*
G37*
G36*
X96350Y109370D02*
X90630D01*
Y103650D01*
X96350D01*
Y109370D01*
D02*
G37*
G36*
X103071D02*
X97350D01*
Y103650D01*
X103071D01*
Y109370D01*
D02*
G37*
G36*
X197335Y78634D02*
X194961D01*
Y75079D01*
X197335D01*
Y78634D01*
D02*
G37*
G36*
X419016Y27283D02*
X411693D01*
Y19961D01*
X419016D01*
Y27283D01*
D02*
G37*
G36*
X500452Y31856D02*
X497781D01*
X497826Y31518D01*
X498149Y30738D01*
X498664Y30068D01*
X499334Y29553D01*
X500114Y29230D01*
X500452Y29185D01*
Y31856D01*
D02*
G37*
G36*
X466457Y43819D02*
X459134D01*
Y34921D01*
X461768D01*
Y32385D01*
X461768Y32385D01*
X461768D01*
X461846Y31992D01*
X462069Y31659D01*
X463697Y30030D01*
Y27160D01*
X462878Y26820D01*
X462113Y26233D01*
X461526Y25469D01*
X461157Y24578D01*
X461032Y23622D01*
X461157Y22666D01*
X461526Y21776D01*
X462113Y21011D01*
X462878Y20424D01*
X463769Y20055D01*
X464725Y19929D01*
X465680Y20055D01*
X466571Y20424D01*
X467336Y21011D01*
X467923Y21776D01*
X468292Y22666D01*
X468418Y23622D01*
X468292Y24578D01*
X467923Y25469D01*
X467336Y26233D01*
X466571Y26820D01*
X465752Y27160D01*
Y30456D01*
X465674Y30849D01*
X465451Y31183D01*
X463823Y32811D01*
Y34921D01*
X466457D01*
Y43819D01*
D02*
G37*
G36*
X387717D02*
X380394D01*
Y34921D01*
X383028D01*
Y32385D01*
X383106Y31992D01*
X383329Y31659D01*
X384957Y30030D01*
Y27160D01*
X384138Y26820D01*
X383373Y26233D01*
X382786Y25469D01*
X382417Y24578D01*
X382291Y23622D01*
X382417Y22666D01*
X382786Y21776D01*
X383373Y21011D01*
X384138Y20424D01*
X385029Y20055D01*
X385984Y19929D01*
X386940Y20055D01*
X387831Y20424D01*
X388596Y21011D01*
X389183Y21776D01*
X389551Y22666D01*
X389677Y23622D01*
X389551Y24578D01*
X389183Y25469D01*
X388596Y26233D01*
X387831Y26820D01*
X387012Y27160D01*
Y30456D01*
X386934Y30849D01*
X386711Y31183D01*
X385083Y32811D01*
Y34921D01*
X387717D01*
Y43819D01*
D02*
G37*
G36*
X427087D02*
X419764D01*
Y34921D01*
X422398D01*
Y32385D01*
X422398Y32385D01*
X422398D01*
X422476Y31992D01*
X422698Y31659D01*
X424327Y30030D01*
Y27160D01*
X423508Y26820D01*
X422743Y26233D01*
X422156Y25469D01*
X421787Y24578D01*
X421661Y23622D01*
X421787Y22666D01*
X422156Y21776D01*
X422743Y21011D01*
X423508Y20424D01*
X424399Y20055D01*
X425354Y19929D01*
X426310Y20055D01*
X427201Y20424D01*
X427966Y21011D01*
X428553Y21776D01*
X428922Y22666D01*
X429047Y23622D01*
X428922Y24578D01*
X428553Y25469D01*
X427966Y26233D01*
X427201Y26820D01*
X426382Y27160D01*
Y30456D01*
X426304Y30849D01*
X426081Y31183D01*
X424453Y32811D01*
Y34921D01*
X427087D01*
Y43819D01*
D02*
G37*
G36*
X371350Y38870D02*
X368189D01*
Y34921D01*
X371350D01*
Y38870D01*
D02*
G37*
G36*
X489461D02*
X486299D01*
Y34921D01*
X489461D01*
Y38870D01*
D02*
G37*
G36*
X353852Y38226D02*
X353514Y38182D01*
X352734Y37859D01*
X352063Y37344D01*
X351549Y36674D01*
X351226Y35893D01*
X351181Y35556D01*
X353852D01*
Y38226D01*
D02*
G37*
G36*
X414882Y38870D02*
X411721D01*
Y34921D01*
X414882D01*
Y38870D01*
D02*
G37*
G36*
X375512D02*
X372350D01*
Y34921D01*
X375512D01*
Y38870D01*
D02*
G37*
G36*
X410721D02*
X407559D01*
Y34921D01*
X410721D01*
Y38870D01*
D02*
G37*
G36*
X192232Y21785D02*
Y18610D01*
X195407D01*
X195345Y19078D01*
X194972Y19981D01*
X194377Y20755D01*
X193603Y21350D01*
X192700Y21723D01*
X192232Y21785D01*
D02*
G37*
G36*
X605029Y15240D02*
X594984D01*
Y5196D01*
X596140Y5287D01*
X597755Y5674D01*
X599289Y6310D01*
X600705Y7178D01*
X601968Y8256D01*
X603047Y9519D01*
X603914Y10935D01*
X604550Y12470D01*
X604938Y14085D01*
X605029Y15240D01*
D02*
G37*
G36*
X123352Y28299D02*
X122514Y28189D01*
X121734Y27866D01*
X121063Y27351D01*
X120549Y26681D01*
X120226Y25901D01*
X120116Y25063D01*
X120226Y24225D01*
X120549Y23445D01*
X121063Y22774D01*
X121734Y22260D01*
X122514Y21937D01*
X122681Y21915D01*
X135050Y9547D01*
X135050Y9546D01*
X135050D01*
X135050Y9546D01*
X135050D01*
X135050Y9546D01*
Y9546D01*
Y9546D01*
D01*
D01*
X135050D01*
Y9546D01*
X135609Y9117D01*
X136260Y8848D01*
X136959Y8756D01*
X481928D01*
X482627Y8848D01*
X483279Y9117D01*
X483838Y9546D01*
X483838Y9546D01*
X483838Y9546D01*
X494252Y19961D01*
X497756D01*
Y27283D01*
X490433D01*
Y23779D01*
X480810Y14156D01*
X193159D01*
X193061Y14647D01*
X193603Y14871D01*
X194377Y15465D01*
X194972Y16240D01*
X195345Y17142D01*
X195407Y17610D01*
X188057D01*
X188119Y17142D01*
X188493Y16240D01*
X189087Y15465D01*
X189862Y14871D01*
X190403Y14647D01*
X190306Y14156D01*
X138077D01*
X126500Y25734D01*
X126478Y25901D01*
X126155Y26681D01*
X125640Y27351D01*
X124970Y27866D01*
X124190Y28189D01*
X123352Y28299D01*
D02*
G37*
G36*
X593984Y15240D02*
X583940D01*
X584031Y14085D01*
X584418Y12470D01*
X585054Y10935D01*
X585922Y9519D01*
X587000Y8256D01*
X588263Y7178D01*
X589679Y6310D01*
X591214Y5674D01*
X592829Y5287D01*
X593984Y5196D01*
Y15240D01*
D02*
G37*
G36*
X15244D02*
X5200D01*
X5291Y14085D01*
X5678Y12470D01*
X6314Y10935D01*
X7182Y9519D01*
X8260Y8256D01*
X9523Y7178D01*
X10939Y6310D01*
X12473Y5674D01*
X14088Y5287D01*
X15244Y5196D01*
Y15240D01*
D02*
G37*
G36*
X26289D02*
X16244D01*
Y5196D01*
X17400Y5287D01*
X19015Y5674D01*
X20549Y6310D01*
X21965Y7178D01*
X23228Y8256D01*
X24307Y9519D01*
X25174Y10935D01*
X25810Y12470D01*
X26198Y14085D01*
X26289Y15240D01*
D02*
G37*
G36*
X15244Y26285D02*
X14088Y26194D01*
X12473Y25806D01*
X10939Y25170D01*
X9523Y24303D01*
X8260Y23224D01*
X7182Y21961D01*
X6314Y20545D01*
X5678Y19011D01*
X5291Y17396D01*
X5200Y16240D01*
X15244D01*
Y26285D01*
D02*
G37*
G36*
X333071Y25394D02*
X332103Y25267D01*
X331201Y24893D01*
X330426Y24299D01*
X329831Y23524D01*
X329458Y22622D01*
X329330Y21654D01*
X329458Y20685D01*
X329831Y19783D01*
X330426Y19008D01*
X331201Y18414D01*
X332103Y18040D01*
X333071Y17913D01*
X334039Y18040D01*
X334941Y18414D01*
X335716Y19008D01*
X336310Y19783D01*
X336684Y20685D01*
X336811Y21654D01*
X336684Y22622D01*
X336310Y23524D01*
X335716Y24299D01*
X334941Y24893D01*
X334039Y25267D01*
X333071Y25394D01*
D02*
G37*
G36*
X191232Y21785D02*
X190764Y21723D01*
X189862Y21350D01*
X189087Y20755D01*
X188493Y19981D01*
X188119Y19078D01*
X188057Y18610D01*
X191232D01*
Y21785D01*
D02*
G37*
G36*
X594984Y26285D02*
Y16240D01*
X605029D01*
X604938Y17396D01*
X604550Y19011D01*
X603914Y20545D01*
X603047Y21961D01*
X601968Y23224D01*
X600705Y24303D01*
X599289Y25170D01*
X597755Y25806D01*
X596140Y26194D01*
X594984Y26285D01*
D02*
G37*
G36*
X16244D02*
Y16240D01*
X26289D01*
X26198Y17396D01*
X25810Y19011D01*
X25174Y20545D01*
X24307Y21961D01*
X23228Y23224D01*
X21965Y24303D01*
X20549Y25170D01*
X19015Y25806D01*
X17400Y26194D01*
X16244Y26285D01*
D02*
G37*
G36*
X593984D02*
X592829Y26194D01*
X591214Y25806D01*
X589679Y25170D01*
X588263Y24303D01*
X587000Y23224D01*
X585922Y21961D01*
X585054Y20545D01*
X584418Y19011D01*
X584031Y17396D01*
X583940Y16240D01*
X593984D01*
Y26285D01*
D02*
G37*
G36*
X354852Y38226D02*
Y35556D01*
X357523D01*
X357478Y35893D01*
X357155Y36674D01*
X356640Y37344D01*
X355970Y37859D01*
X355190Y38182D01*
X354852Y38226D01*
D02*
G37*
G36*
X311535Y52677D02*
X307587D01*
Y49516D01*
X311535D01*
Y52677D01*
D02*
G37*
G36*
X267216Y52677D02*
X263268D01*
Y49516D01*
X267216D01*
Y52677D01*
D02*
G37*
G36*
X291850Y48516D02*
X287902D01*
Y45354D01*
X291850D01*
Y48516D01*
D02*
G37*
G36*
X272165D02*
X268216D01*
Y45354D01*
X272165D01*
Y48516D01*
D02*
G37*
G36*
X286902D02*
X282953D01*
Y45354D01*
X286902D01*
Y48516D01*
D02*
G37*
G36*
X272165Y52677D02*
X268216D01*
Y49516D01*
X272165D01*
Y52677D01*
D02*
G37*
G36*
X539370Y80085D02*
X538003Y79905D01*
X536729Y79377D01*
X535636Y78538D01*
X534796Y77444D01*
X534269Y76170D01*
X534089Y74803D01*
X534269Y73436D01*
X534796Y72162D01*
X535636Y71069D01*
X536729Y70229D01*
X538003Y69702D01*
X539370Y69522D01*
X540737Y69702D01*
X542011Y70229D01*
X543105Y71069D01*
X543944Y72162D01*
X544472Y73436D01*
X544652Y74803D01*
X544472Y76170D01*
X543944Y77444D01*
X543105Y78538D01*
X542011Y79377D01*
X540737Y79905D01*
X539370Y80085D01*
D02*
G37*
G36*
X568228Y80039D02*
X557756D01*
Y69567D01*
X568228D01*
Y80039D01*
D02*
G37*
G36*
X594488Y96207D02*
X593686Y96102D01*
X592940Y95793D01*
X592298Y95300D01*
X591806Y94659D01*
X591496Y93912D01*
X591391Y93110D01*
Y87992D01*
X591496Y87190D01*
X591806Y86443D01*
X592298Y85802D01*
X592940Y85310D01*
X592963Y85300D01*
Y77821D01*
X592963Y77821D01*
X592963D01*
X593079Y77238D01*
X593410Y76743D01*
X595128Y75024D01*
Y67441D01*
X592992D01*
Y58543D01*
X600315D01*
Y67441D01*
X598179D01*
Y75656D01*
X598063Y76240D01*
X597732Y76735D01*
X596013Y78453D01*
Y85300D01*
X596037Y85310D01*
X596678Y85802D01*
X597171Y86443D01*
X597480Y87190D01*
X597585Y87992D01*
Y93110D01*
X597480Y93912D01*
X597171Y94659D01*
X596678Y95300D01*
X596037Y95793D01*
X595290Y96102D01*
X594488Y96207D01*
D02*
G37*
G36*
X286902Y52677D02*
X282953D01*
Y49516D01*
X286902D01*
Y52677D01*
D02*
G37*
G36*
X291850D02*
X287902D01*
Y49516D01*
X291850D01*
Y52677D01*
D02*
G37*
G36*
X311535Y48516D02*
X307587D01*
Y45354D01*
X311535D01*
Y48516D01*
D02*
G37*
G36*
X410721Y43819D02*
X407559D01*
Y39870D01*
X410721D01*
Y43819D01*
D02*
G37*
G36*
X414882D02*
X411721D01*
Y39870D01*
X414882D01*
Y43819D01*
D02*
G37*
G36*
X375512D02*
X372350D01*
Y39870D01*
X375512D01*
Y43819D01*
D02*
G37*
G36*
X505827D02*
X498504D01*
Y36911D01*
X498042Y36719D01*
X495479Y39283D01*
X495145Y39505D01*
X494752Y39584D01*
X493622D01*
Y38870D01*
X490461D01*
Y34921D01*
X493622D01*
Y37528D01*
X494326D01*
X498070Y33784D01*
X497826Y33193D01*
X497781Y32856D01*
X500953D01*
Y32357D01*
X501452D01*
Y29185D01*
X501790Y29230D01*
X502570Y29553D01*
X502619Y29590D01*
X503067Y29369D01*
Y27160D01*
X502248Y26820D01*
X501483Y26233D01*
X500896Y25469D01*
X500527Y24578D01*
X500402Y23622D01*
X500527Y22666D01*
X500896Y21776D01*
X501483Y21011D01*
X502248Y20424D01*
X503139Y20055D01*
X504095Y19929D01*
X505050Y20055D01*
X505941Y20424D01*
X506706Y21011D01*
X507293Y21776D01*
X507662Y22666D01*
X507788Y23622D01*
X507662Y24578D01*
X507293Y25469D01*
X506706Y26233D01*
X505941Y26820D01*
X505122Y27160D01*
Y29107D01*
X505187Y29171D01*
X505187Y29171D01*
X505409Y29505D01*
X505488Y29898D01*
Y34921D01*
X505827D01*
Y43819D01*
D02*
G37*
G36*
X371350D02*
X368189D01*
Y39870D01*
X371350D01*
Y43819D01*
D02*
G37*
G36*
X489461D02*
X486299D01*
Y39870D01*
X489461D01*
Y43819D01*
D02*
G37*
G36*
X191732Y51379D02*
X190764Y51251D01*
X189862Y50877D01*
X189087Y50283D01*
X188493Y49508D01*
X188119Y48606D01*
X187992Y47638D01*
X188119Y46670D01*
X188493Y45768D01*
X189087Y44993D01*
X189862Y44398D01*
X190764Y44025D01*
X191732Y43897D01*
X192700Y44025D01*
X193603Y44398D01*
X194377Y44993D01*
X194972Y45768D01*
X195345Y46670D01*
X195473Y47638D01*
X195345Y48606D01*
X194972Y49508D01*
X194377Y50283D01*
X193603Y50877D01*
X192700Y51251D01*
X191732Y51379D01*
D02*
G37*
G36*
X306587Y48516D02*
X302638D01*
Y45354D01*
X306587D01*
Y48516D01*
D02*
G37*
G36*
X267216Y48516D02*
X263268D01*
Y46764D01*
X262892Y46435D01*
X262952Y46427D01*
Y43756D01*
X265622D01*
X265578Y44093D01*
X265255Y44874D01*
X265230Y44906D01*
X265452Y45354D01*
X267216D01*
Y48516D01*
D02*
G37*
G36*
X493622Y43819D02*
X490461D01*
Y39870D01*
X493622D01*
Y43819D01*
D02*
G37*
G36*
X261952Y46426D02*
X261614Y46382D01*
X260834Y46059D01*
X260163Y45544D01*
X259649Y44874D01*
X259326Y44093D01*
X259281Y43756D01*
X261952D01*
Y46426D01*
D02*
G37*
G36*
X19185Y172728D02*
X12099D01*
X12197Y171739D01*
X12631Y170307D01*
X13337Y168986D01*
X14286Y167830D01*
X15443Y166880D01*
X16763Y166174D01*
X18195Y165740D01*
X19185Y165642D01*
Y172728D01*
D02*
G37*
G36*
X208161Y249685D02*
X207860Y249645D01*
X207113Y249336D01*
X206471Y248844D01*
X205979Y248202D01*
X205669Y247455D01*
X205564Y246654D01*
Y244595D01*
X208161D01*
Y249685D01*
D02*
G37*
G36*
X209161D02*
Y244595D01*
X211759D01*
Y246654D01*
X211653Y247455D01*
X211344Y248202D01*
X210852Y248844D01*
X210210Y249336D01*
X209463Y249645D01*
X209161Y249685D01*
D02*
G37*
G36*
X146169D02*
Y244595D01*
X148767D01*
Y246654D01*
X148661Y247455D01*
X148352Y248202D01*
X147860Y248844D01*
X147218Y249336D01*
X146471Y249645D01*
X146169Y249685D01*
D02*
G37*
G36*
X113673D02*
X113372Y249645D01*
X112625Y249336D01*
X111983Y248844D01*
X111491Y248202D01*
X111181Y247455D01*
X111076Y246654D01*
Y244595D01*
X113673D01*
Y249685D01*
D02*
G37*
G36*
X145169D02*
X144868Y249645D01*
X144121Y249336D01*
X143479Y248844D01*
X142987Y248202D01*
X142677Y247455D01*
X142572Y246654D01*
Y244595D01*
X145169D01*
Y249685D01*
D02*
G37*
G36*
X15244Y255398D02*
X5200D01*
X5291Y254242D01*
X5678Y252627D01*
X6314Y251093D01*
X7182Y249677D01*
X8260Y248414D01*
X9523Y247335D01*
X10939Y246467D01*
X12473Y245832D01*
X14088Y245444D01*
X15244Y245353D01*
Y255398D01*
D02*
G37*
G36*
X561141Y267267D02*
X548032D01*
X547333Y267175D01*
X546681Y266905D01*
X546122Y266476D01*
X541351Y261705D01*
X540540Y261599D01*
X539650Y261230D01*
X538885Y260643D01*
X538298Y259878D01*
X537929Y258987D01*
X537803Y258032D01*
X537929Y257076D01*
X538298Y256185D01*
X538885Y255420D01*
X539650Y254833D01*
X540540Y254464D01*
X541496Y254339D01*
X542452Y254464D01*
X543343Y254833D01*
X544107Y255420D01*
X544694Y256185D01*
X545063Y257076D01*
X545170Y257887D01*
X549150Y261867D01*
X549906D01*
X550003Y261376D01*
X549650Y261230D01*
X548885Y260643D01*
X548298Y259878D01*
X547929Y258987D01*
X547803Y258032D01*
X547929Y257076D01*
X548268Y256257D01*
X545031Y253020D01*
X486109D01*
X485103Y254026D01*
X484769Y254249D01*
X484376Y254327D01*
X483401D01*
X483304Y254817D01*
X483343Y254833D01*
X484107Y255420D01*
X484694Y256185D01*
X485063Y257076D01*
X485123Y257531D01*
X477869D01*
X477929Y257076D01*
X478298Y256185D01*
X478885Y255420D01*
X479650Y254833D01*
X479688Y254817D01*
X479591Y254327D01*
X454292D01*
X452362Y256257D01*
X452701Y257076D01*
X452827Y258032D01*
X452701Y258987D01*
X452332Y259878D01*
X451745Y260643D01*
X450981Y261230D01*
X450090Y261599D01*
X449134Y261724D01*
X448178Y261599D01*
X447359Y261260D01*
X445294Y263325D01*
X444960Y263548D01*
X444567Y263626D01*
X420472D01*
X420079Y263548D01*
X419746Y263325D01*
X418866Y262445D01*
X411315D01*
X411070Y263035D01*
X410556Y263706D01*
X409886Y264220D01*
X409105Y264543D01*
X408268Y264654D01*
X407430Y264543D01*
X406649Y264220D01*
X405979Y263706D01*
X405465Y263035D01*
X405142Y262255D01*
X405031Y261417D01*
X405142Y260580D01*
X405465Y259799D01*
X405979Y259129D01*
X406649Y258615D01*
X407430Y258291D01*
X408268Y258181D01*
X409105Y258291D01*
X409886Y258615D01*
X410556Y259129D01*
X411070Y259799D01*
X411315Y260390D01*
X419291D01*
X419685Y260468D01*
X420018Y260691D01*
X420898Y261571D01*
X426954D01*
X427115Y261097D01*
X426523Y260643D01*
X425936Y259878D01*
X425567Y258987D01*
X425507Y258531D01*
X432761D01*
X432701Y258987D01*
X432332Y259878D01*
X431745Y260643D01*
X430980Y261230D01*
X431048Y261571D01*
X436954D01*
X437115Y261097D01*
X436523Y260643D01*
X435936Y259878D01*
X435567Y258987D01*
X435441Y258032D01*
X435567Y257076D01*
X435936Y256185D01*
X436523Y255420D01*
X437288Y254833D01*
X438178Y254464D01*
X439134Y254339D01*
X440090Y254464D01*
X440980Y254833D01*
X441745Y255420D01*
X442332Y256185D01*
X442701Y257076D01*
X442827Y258032D01*
X442701Y258987D01*
X442332Y259878D01*
X441745Y260643D01*
X440980Y261230D01*
X441048Y261571D01*
X444141D01*
X445906Y259806D01*
X445567Y258987D01*
X445441Y258032D01*
X445567Y257076D01*
X445936Y256185D01*
X446523Y255420D01*
X447288Y254833D01*
X448178Y254464D01*
X449134Y254339D01*
X450090Y254464D01*
X450909Y254803D01*
X453140Y252573D01*
X453473Y252350D01*
X453866Y252272D01*
X478028D01*
X478220Y251810D01*
X476809Y250399D01*
X476586Y250065D01*
X476508Y249672D01*
Y246817D01*
X469302Y239610D01*
X389479D01*
X389086Y239532D01*
X388752Y239309D01*
X388752Y239309D01*
X370825Y221383D01*
X370335Y221480D01*
X370255Y221674D01*
X369740Y222344D01*
X369070Y222859D01*
X368290Y223182D01*
X367452Y223292D01*
X366614Y223182D01*
X365834Y222859D01*
X365163Y222344D01*
X364649Y221674D01*
X364326Y220894D01*
X364216Y220056D01*
X364326Y219218D01*
X364649Y218438D01*
X365163Y217768D01*
X365834Y217253D01*
X366614Y216930D01*
X367452Y216820D01*
X368290Y216930D01*
X369070Y217253D01*
X369740Y217768D01*
X370255Y218438D01*
X370499Y219028D01*
X370952D01*
X371345Y219107D01*
X371679Y219329D01*
X389904Y237555D01*
X404307D01*
X404498Y237093D01*
X394088Y226683D01*
X388799D01*
X388555Y227274D01*
X388040Y227944D01*
X387370Y228459D01*
X386590Y228782D01*
X385752Y228892D01*
X384914Y228782D01*
X384134Y228459D01*
X383464Y227944D01*
X382949Y227274D01*
X382626Y226494D01*
X382516Y225656D01*
X382626Y224818D01*
X382949Y224038D01*
X383464Y223368D01*
X384134Y222853D01*
X384914Y222530D01*
X385752Y222420D01*
X386590Y222530D01*
X387370Y222853D01*
X388040Y223368D01*
X388555Y224038D01*
X388799Y224628D01*
X393228D01*
X393420Y224166D01*
X384454Y215201D01*
X356568D01*
X356510Y215258D01*
X356177Y215481D01*
X355784Y215559D01*
X351812D01*
X351812Y215559D01*
X351418Y215481D01*
X351085Y215258D01*
X347925Y212098D01*
X347703Y211765D01*
X347624Y211372D01*
Y206603D01*
X347034Y206359D01*
X346363Y205844D01*
X345849Y205174D01*
X345526Y204394D01*
X345416Y203556D01*
X345526Y202718D01*
X345849Y201938D01*
X346363Y201268D01*
X347034Y200753D01*
X347814Y200430D01*
X348652Y200320D01*
X349490Y200430D01*
X350270Y200753D01*
X350940Y201268D01*
X351455Y201938D01*
X351778Y202718D01*
X351888Y203556D01*
X351778Y204394D01*
X351455Y205174D01*
X350940Y205844D01*
X350270Y206359D01*
X349680Y206603D01*
Y210946D01*
X350747Y212014D01*
X351196Y211792D01*
X351094Y211024D01*
X351205Y210186D01*
X351528Y209405D01*
X352042Y208735D01*
X352712Y208221D01*
X353493Y207898D01*
X354331Y207787D01*
X355168Y207898D01*
X355949Y208221D01*
X356619Y208735D01*
X357134Y209405D01*
X357392Y210028D01*
X383611D01*
X384004Y210106D01*
X384338Y210329D01*
X406937Y232928D01*
X440326D01*
X444748Y228507D01*
X444755Y228469D01*
X444978Y228135D01*
X454884Y218229D01*
X455218Y218006D01*
X455611Y217928D01*
X489847D01*
X490007Y217455D01*
X489863Y217344D01*
X489349Y216674D01*
X489026Y215894D01*
X488916Y215056D01*
X489026Y214218D01*
X489270Y213628D01*
X485326Y209683D01*
X427652D01*
X427470Y209647D01*
X427287Y209617D01*
X427274Y209608D01*
X427259Y209605D01*
X427105Y209502D01*
X426948Y209404D01*
X426938Y209391D01*
X426925Y209383D01*
X426822Y209228D01*
X426715Y209078D01*
X426711Y209062D01*
X426703Y209049D01*
X426666Y208867D01*
X426625Y208687D01*
X426060Y189983D01*
X425609Y189769D01*
X424970Y190259D01*
X424190Y190582D01*
X423352Y190692D01*
X422514Y190582D01*
X421734Y190259D01*
X421064Y189744D01*
X420549Y189074D01*
X420226Y188294D01*
X420116Y187456D01*
X420226Y186618D01*
X420279Y186491D01*
X420001Y186075D01*
X379228D01*
X378984Y186666D01*
X378470Y187336D01*
X377799Y187851D01*
X377019Y188174D01*
X376181Y188284D01*
X375343Y188174D01*
X374563Y187851D01*
X373893Y187336D01*
X373378Y186666D01*
X373055Y185886D01*
X372945Y185048D01*
X373055Y184210D01*
X373378Y183430D01*
X373893Y182759D01*
X374563Y182245D01*
X375343Y181922D01*
X376181Y181812D01*
X377019Y181922D01*
X377799Y182245D01*
X378470Y182759D01*
X378984Y183430D01*
X379228Y184020D01*
X420944D01*
X421337Y184098D01*
X421671Y184321D01*
X421924Y184574D01*
X422514Y184330D01*
X423352Y184220D01*
X423629Y184256D01*
X423850Y183808D01*
X404326Y164284D01*
X343965D01*
X343830Y164610D01*
X343316Y165281D01*
X342645Y165795D01*
X341865Y166118D01*
X341027Y166228D01*
X340190Y166118D01*
X339409Y165795D01*
X338739Y165281D01*
X338224Y164610D01*
X337901Y163830D01*
X337791Y162992D01*
X337901Y162154D01*
X338224Y161374D01*
X338739Y160704D01*
X339409Y160189D01*
X340190Y159866D01*
X341027Y159756D01*
X341865Y159866D01*
X342645Y160189D01*
X343316Y160704D01*
X343830Y161374D01*
X344153Y162154D01*
X344163Y162228D01*
X403557D01*
X403748Y161766D01*
X399165Y157184D01*
X384299D01*
X384055Y157774D01*
X383540Y158444D01*
X382870Y158959D01*
X382090Y159282D01*
X381252Y159392D01*
X380414Y159282D01*
X379634Y158959D01*
X378963Y158444D01*
X378449Y157774D01*
X378126Y156993D01*
X378016Y156156D01*
X378126Y155318D01*
X378449Y154538D01*
X378963Y153867D01*
X379634Y153353D01*
X380414Y153030D01*
X381252Y152920D01*
X382090Y153030D01*
X382870Y153353D01*
X383540Y153867D01*
X384055Y154538D01*
X384299Y155128D01*
X399591D01*
X399984Y155207D01*
X400170Y155331D01*
X400487Y154944D01*
X392526Y146984D01*
X348899D01*
X348655Y147574D01*
X348140Y148244D01*
X347470Y148759D01*
X346690Y149082D01*
X345852Y149192D01*
X345014Y149082D01*
X344234Y148759D01*
X343564Y148244D01*
X343049Y147574D01*
X342726Y146793D01*
X342616Y145956D01*
X342726Y145118D01*
X343049Y144338D01*
X343564Y143667D01*
X344234Y143153D01*
X345014Y142830D01*
X345852Y142720D01*
X346690Y142830D01*
X347470Y143153D01*
X348140Y143667D01*
X348655Y144338D01*
X348899Y144928D01*
X392952D01*
X393345Y145007D01*
X393679Y145229D01*
X428357Y179908D01*
X428819Y179716D01*
Y173110D01*
X430427D01*
Y40456D01*
X430543Y39872D01*
X430873Y39377D01*
X447707Y22544D01*
X448202Y22213D01*
X448786Y22097D01*
X451063D01*
Y19961D01*
X458386D01*
Y27283D01*
X451063D01*
Y25148D01*
X449418D01*
X433477Y41088D01*
Y173110D01*
X434567D01*
Y180441D01*
X435741Y181615D01*
X439449D01*
Y181220D01*
X439449D01*
Y177665D01*
X445197D01*
Y181220D01*
X445197D01*
Y181262D01*
X445550Y181615D01*
X484359D01*
X484943Y181731D01*
X485438Y182062D01*
X506944Y203568D01*
X507036Y203529D01*
X507874Y203419D01*
X508712Y203529D01*
X509492Y203853D01*
X510162Y204367D01*
X510677Y205037D01*
X511000Y205818D01*
X511110Y206655D01*
X511000Y207493D01*
X510677Y208274D01*
X510162Y208944D01*
X509492Y209458D01*
X508712Y209781D01*
X507874Y209892D01*
X507036Y209781D01*
X506256Y209458D01*
X505585Y208944D01*
X505071Y208274D01*
X504748Y207493D01*
X504638Y206655D01*
X504748Y205818D01*
X504786Y205725D01*
X483727Y184666D01*
X438885D01*
X438568Y185052D01*
X438574Y185080D01*
Y193354D01*
X438648Y193420D01*
X439486Y193530D01*
X440266Y193853D01*
X440937Y194368D01*
X441451Y195038D01*
X441774Y195818D01*
X441885Y196656D01*
X441774Y197494D01*
X441451Y198274D01*
X440937Y198944D01*
X440266Y199459D01*
X440280Y199528D01*
X441926D01*
X445825Y195629D01*
X445825Y195629D01*
X445992Y195518D01*
X446159Y195406D01*
X446552Y195328D01*
X446552Y195328D01*
X487652D01*
X488045Y195406D01*
X488379Y195629D01*
X496424Y203674D01*
X497014Y203430D01*
X497852Y203320D01*
X498690Y203430D01*
X499470Y203753D01*
X500140Y204268D01*
X500655Y204938D01*
X500978Y205718D01*
X501088Y206556D01*
X500978Y207394D01*
X500655Y208174D01*
X500140Y208844D01*
X499470Y209359D01*
X498690Y209682D01*
X497852Y209792D01*
X497014Y209682D01*
X496234Y209359D01*
X495564Y208844D01*
X495049Y208174D01*
X494726Y207394D01*
X494616Y206556D01*
X494726Y205718D01*
X494971Y205128D01*
X487226Y197383D01*
X446978D01*
X443079Y201283D01*
X442745Y201505D01*
X442352Y201584D01*
X437352D01*
X436959Y201505D01*
X436625Y201283D01*
X434325Y198983D01*
X434103Y198649D01*
X434024Y198256D01*
Y193092D01*
X433576Y192871D01*
X433070Y193259D01*
X432290Y193582D01*
X431452Y193692D01*
X430614Y193582D01*
X429834Y193259D01*
X429164Y192744D01*
X428656Y192083D01*
X428453Y192156D01*
X428186Y192266D01*
X428507Y202907D01*
X428982Y203061D01*
X429208Y202767D01*
X429878Y202253D01*
X430658Y201930D01*
X431496Y201820D01*
X432334Y201930D01*
X433114Y202253D01*
X433785Y202767D01*
X434299Y203438D01*
X434544Y204028D01*
X462026D01*
X463371Y202684D01*
X463126Y202094D01*
X463016Y201256D01*
X463126Y200418D01*
X463449Y199638D01*
X463964Y198968D01*
X464634Y198453D01*
X465414Y198130D01*
X466252Y198020D01*
X467090Y198130D01*
X467870Y198453D01*
X468540Y198968D01*
X469055Y199638D01*
X469378Y200418D01*
X469488Y201256D01*
X469378Y202094D01*
X469055Y202874D01*
X468540Y203544D01*
X467870Y204059D01*
X467090Y204382D01*
X466252Y204492D01*
X465414Y204382D01*
X464824Y204137D01*
X463179Y205783D01*
X462845Y206005D01*
X462452Y206083D01*
X434544D01*
X434299Y206674D01*
X433785Y207344D01*
X433881Y207628D01*
X485752D01*
X486145Y207706D01*
X486479Y207929D01*
X490724Y212174D01*
X491314Y211930D01*
X492152Y211820D01*
X492990Y211930D01*
X493770Y212253D01*
X494440Y212768D01*
X494955Y213438D01*
X495278Y214218D01*
X495388Y215056D01*
X495278Y215894D01*
X494955Y216674D01*
X494440Y217344D01*
X493770Y217859D01*
X493784Y217928D01*
X513105D01*
X513349Y217338D01*
X513864Y216668D01*
X514534Y216153D01*
X515314Y215830D01*
X516152Y215720D01*
X516990Y215830D01*
X517770Y216153D01*
X518276Y216541D01*
X518724Y216320D01*
Y209082D01*
X489824Y180182D01*
X489602Y179848D01*
X489524Y179455D01*
Y148849D01*
X489524Y148849D01*
X489524D01*
X489602Y148456D01*
X489824Y148123D01*
X495170Y142777D01*
X495503Y142554D01*
X495551Y142545D01*
Y139842D01*
X504449D01*
Y147165D01*
X495551D01*
Y145956D01*
X495089Y145765D01*
X491579Y149275D01*
Y179030D01*
X520479Y207929D01*
X520701Y208263D01*
X520780Y208656D01*
X520780Y208656D01*
X520780Y208656D01*
Y208656D01*
Y220656D01*
X520701Y221049D01*
X520479Y221382D01*
X518179Y223682D01*
X517845Y223905D01*
X517452Y223984D01*
X455237D01*
Y225318D01*
X455237Y225318D01*
X455159Y225711D01*
X454936Y226045D01*
X452094Y228887D01*
X452339Y229477D01*
X452449Y230315D01*
X452339Y231153D01*
X452015Y231933D01*
X451501Y232603D01*
X450831Y233118D01*
X450050Y233441D01*
X449213Y233551D01*
X448375Y233441D01*
X447594Y233118D01*
X446924Y232603D01*
X446410Y231933D01*
X446087Y231153D01*
X446035Y230760D01*
X445561Y230600D01*
X442218Y233944D01*
X442409Y234405D01*
X518898D01*
X519291Y234484D01*
X519624Y234706D01*
X529721Y244804D01*
X530540Y244464D01*
X531496Y244338D01*
X532452Y244464D01*
X533343Y244833D01*
X534107Y245420D01*
X534694Y246185D01*
X535063Y247076D01*
X535189Y248031D01*
X535063Y248987D01*
X534694Y249878D01*
X534107Y250643D01*
X534217Y250964D01*
X538566D01*
X538788Y250516D01*
X538298Y249878D01*
X537929Y248987D01*
X537803Y248031D01*
X537929Y247076D01*
X538298Y246185D01*
X538885Y245420D01*
X539650Y244833D01*
X540540Y244464D01*
X541496Y244338D01*
X542452Y244464D01*
X543343Y244833D01*
X544107Y245420D01*
X544694Y246185D01*
X545063Y247076D01*
X545189Y248031D01*
X545063Y248987D01*
X544694Y249878D01*
X544107Y250643D01*
X544217Y250964D01*
X545457D01*
X545850Y251043D01*
X546183Y251266D01*
X549721Y254803D01*
X550540Y254464D01*
X551496Y254339D01*
X552452Y254464D01*
X553343Y254833D01*
X554108Y255420D01*
X554694Y256185D01*
X554827Y256506D01*
X562145D01*
X563435Y255216D01*
Y197482D01*
X547793Y181840D01*
X508661D01*
X508078Y181724D01*
X507583Y181394D01*
X498921Y172732D01*
X498591Y172237D01*
X498475Y171653D01*
Y159370D01*
X495551D01*
Y152047D01*
X502882D01*
X505574Y149356D01*
X505535Y149263D01*
X505425Y148425D01*
X505535Y147588D01*
X505859Y146807D01*
X506373Y146137D01*
X507043Y145622D01*
X507824Y145299D01*
X508661Y145189D01*
X509499Y145299D01*
X510280Y145622D01*
X510950Y146137D01*
X511464Y146807D01*
X511788Y147588D01*
X511898Y148425D01*
X511788Y149263D01*
X511464Y150043D01*
X510950Y150714D01*
X510280Y151228D01*
X509499Y151551D01*
X508661Y151662D01*
X507824Y151551D01*
X507731Y151513D01*
X505025Y154219D01*
X505216Y154681D01*
X533452D01*
X533845Y154759D01*
X534179Y154982D01*
X541752Y162555D01*
X570354D01*
Y160587D01*
X569325Y159558D01*
X569103Y159225D01*
X569024Y158832D01*
Y140775D01*
X569024Y140775D01*
X569024D01*
X569103Y140382D01*
X569325Y140048D01*
X570354Y139019D01*
Y133056D01*
X569652D01*
X568953Y132964D01*
X568302Y132694D01*
X567743Y132265D01*
X561083Y125605D01*
X560654Y125046D01*
X560384Y124395D01*
X560292Y123696D01*
Y110827D01*
X559258Y110034D01*
X558464Y109000D01*
X543898D01*
X543105Y110034D01*
X542011Y110873D01*
X540737Y111401D01*
X539370Y111581D01*
X538003Y111401D01*
X536729Y110873D01*
X535636Y110034D01*
X534796Y108940D01*
X534269Y107666D01*
X534089Y106299D01*
X534269Y104932D01*
X534796Y103658D01*
X535636Y102565D01*
X536729Y101725D01*
X538003Y101198D01*
X539370Y101018D01*
X540737Y101198D01*
X542011Y101725D01*
X543105Y102565D01*
X543898Y103599D01*
X558464D01*
X559258Y102565D01*
X560351Y101725D01*
X561625Y101198D01*
X562992Y101018D01*
X564359Y101198D01*
X565633Y101725D01*
X566727Y102565D01*
X567566Y103658D01*
X568094Y104932D01*
X568273Y106299D01*
X568094Y107666D01*
X567566Y108940D01*
X566727Y110034D01*
X565692Y110827D01*
Y122578D01*
X569892Y126778D01*
X570354Y126586D01*
Y120158D01*
X579252D01*
Y122791D01*
X584417D01*
X586890Y120318D01*
Y114449D01*
X594213D01*
Y121772D01*
X588343D01*
X585569Y124546D01*
X585236Y124768D01*
X584843Y124846D01*
X579252D01*
Y127480D01*
D01*
Y127480D01*
X579427Y127656D01*
X583052D01*
X583751Y127748D01*
X584402Y128017D01*
X584961Y128446D01*
X587557Y131042D01*
X587932Y130712D01*
X587932Y130712D01*
X587932D01*
X587353Y129957D01*
X586984Y129066D01*
X586858Y128110D01*
X586984Y127155D01*
X587353Y126264D01*
X587940Y125499D01*
X588705Y124912D01*
X589595Y124543D01*
X590551Y124417D01*
X591507Y124543D01*
X592398Y124912D01*
X593162Y125499D01*
X593749Y126264D01*
X594118Y127155D01*
X594244Y128110D01*
X594118Y129066D01*
X593749Y129957D01*
X593162Y130722D01*
X592398Y131308D01*
X591507Y131677D01*
X590551Y131803D01*
X589595Y131677D01*
X588705Y131308D01*
X587949Y130729D01*
X587620Y131105D01*
X598161Y141647D01*
X598590Y142206D01*
X598860Y142857D01*
X598952Y143556D01*
X598952Y143556D01*
X598952Y143556D01*
Y143556D01*
Y171056D01*
X598860Y171755D01*
X598590Y172406D01*
X598161Y172965D01*
X593540Y177586D01*
X593754Y178038D01*
X594488Y177966D01*
X595868Y178102D01*
X597195Y178504D01*
X598418Y179158D01*
X599490Y180038D01*
X600370Y181110D01*
X601023Y182333D01*
X601426Y183660D01*
X601562Y185039D01*
X601426Y186419D01*
X601023Y187746D01*
X600370Y188969D01*
X599490Y190041D01*
X598418Y190921D01*
X597195Y191574D01*
X595868Y191977D01*
X594488Y192113D01*
X593108Y191977D01*
X591781Y191574D01*
X590558Y190921D01*
X589487Y190041D01*
X588607Y188969D01*
X587953Y187746D01*
X587551Y186419D01*
X587415Y185039D01*
X587551Y183660D01*
X587953Y182333D01*
X588607Y181110D01*
X589487Y180038D01*
X590558Y179158D01*
X590305Y178684D01*
X571352D01*
Y257056D01*
X571260Y257755D01*
X570990Y258406D01*
X570561Y258965D01*
X563050Y266476D01*
X562491Y266905D01*
X561840Y267175D01*
X561141Y267267D01*
D02*
G37*
G36*
X250158Y261724D02*
X249202Y261599D01*
X248311Y261230D01*
X247546Y260643D01*
X246959Y259878D01*
X246590Y258987D01*
X246465Y258032D01*
X246590Y257076D01*
X246959Y256185D01*
X247546Y255420D01*
X248311Y254833D01*
X249202Y254464D01*
X250158Y254339D01*
X251113Y254464D01*
X252004Y254833D01*
X252769Y255420D01*
X253356Y256185D01*
X253725Y257076D01*
X253851Y258032D01*
X253725Y258987D01*
X253356Y259878D01*
X252769Y260643D01*
X252004Y261230D01*
X251113Y261599D01*
X250158Y261724D01*
D02*
G37*
G36*
X605029Y255398D02*
X594984D01*
Y245353D01*
X596140Y245444D01*
X597755Y245832D01*
X599289Y246467D01*
X600705Y247335D01*
X601968Y248414D01*
X603047Y249677D01*
X603914Y251093D01*
X604550Y252627D01*
X604938Y254242D01*
X605029Y255398D01*
D02*
G37*
G36*
X26289D02*
X16244D01*
Y245353D01*
X17400Y245444D01*
X19015Y245832D01*
X20549Y246467D01*
X21965Y247335D01*
X23228Y248414D01*
X24307Y249677D01*
X25174Y251093D01*
X25810Y252627D01*
X26198Y254242D01*
X26289Y255398D01*
D02*
G37*
G36*
X593984D02*
X583940D01*
X584031Y254242D01*
X584418Y252627D01*
X585054Y251093D01*
X585922Y249677D01*
X587000Y248414D01*
X588263Y247335D01*
X589679Y246467D01*
X591214Y245832D01*
X592829Y245444D01*
X593984Y245353D01*
Y255398D01*
D02*
G37*
G36*
X79240Y249685D02*
Y244595D01*
X81837D01*
Y246654D01*
X81732Y247455D01*
X81423Y248202D01*
X80930Y248844D01*
X80289Y249336D01*
X79542Y249645D01*
X79240Y249685D01*
D02*
G37*
G36*
X211759Y243595D02*
X209161D01*
Y238504D01*
X209463Y238544D01*
X210210Y238853D01*
X210852Y239345D01*
X211344Y239987D01*
X211653Y240734D01*
X211759Y241535D01*
Y243595D01*
D02*
G37*
G36*
X300158Y251725D02*
X299202Y251599D01*
X298311Y251230D01*
X297546Y250643D01*
X296959Y249878D01*
X296590Y248987D01*
X296465Y248031D01*
X296590Y247076D01*
X296959Y246185D01*
X297546Y245420D01*
X298311Y244833D01*
X299202Y244464D01*
X300158Y244338D01*
X301113Y244464D01*
X302004Y244833D01*
X302769Y245420D01*
X303356Y246185D01*
X303725Y247076D01*
X303851Y248031D01*
X303725Y248987D01*
X303356Y249878D01*
X302769Y250643D01*
X302004Y251230D01*
X301113Y251599D01*
X300158Y251725D01*
D02*
G37*
G36*
X208161Y243595D02*
X205564D01*
Y241535D01*
X205669Y240734D01*
X205979Y239987D01*
X206471Y239345D01*
X207113Y238853D01*
X207860Y238544D01*
X208161Y238504D01*
Y243595D01*
D02*
G37*
G36*
X145169D02*
X142572D01*
Y241535D01*
X142677Y240734D01*
X142987Y239987D01*
X143479Y239345D01*
X144121Y238853D01*
X144868Y238544D01*
X145169Y238504D01*
Y243595D01*
D02*
G37*
G36*
X148767D02*
X146169D01*
Y238504D01*
X146471Y238544D01*
X147218Y238853D01*
X147860Y239345D01*
X148352Y239987D01*
X148661Y240734D01*
X148767Y241535D01*
Y243595D01*
D02*
G37*
G36*
X429134Y251725D02*
X428178Y251599D01*
X427287Y251230D01*
X426523Y250643D01*
X425936Y249878D01*
X425567Y248987D01*
X425441Y248031D01*
X425567Y247076D01*
X425936Y246185D01*
X426523Y245420D01*
X427287Y244833D01*
X428178Y244464D01*
X429134Y244338D01*
X430090Y244464D01*
X430980Y244833D01*
X431745Y245420D01*
X432332Y246185D01*
X432701Y247076D01*
X432827Y248031D01*
X432701Y248987D01*
X432332Y249878D01*
X431745Y250643D01*
X430980Y251230D01*
X430090Y251599D01*
X429134Y251725D01*
D02*
G37*
G36*
X555158Y251693D02*
X547835D01*
Y244370D01*
X555158D01*
Y251693D01*
D02*
G37*
G36*
X78240Y249685D02*
X77938Y249645D01*
X77192Y249336D01*
X76550Y248844D01*
X76058Y248202D01*
X75748Y247455D01*
X75643Y246654D01*
Y244595D01*
X78240D01*
Y249685D01*
D02*
G37*
G36*
X452795Y251693D02*
X445472D01*
Y244370D01*
X452795D01*
Y251693D01*
D02*
G37*
G36*
X439134Y251725D02*
X438178Y251599D01*
X437288Y251230D01*
X436523Y250643D01*
X435936Y249878D01*
X435567Y248987D01*
X435441Y248031D01*
X435567Y247076D01*
X435936Y246185D01*
X436523Y245420D01*
X437288Y244833D01*
X438178Y244464D01*
X439134Y244338D01*
X440090Y244464D01*
X440980Y244833D01*
X441745Y245420D01*
X442332Y246185D01*
X442701Y247076D01*
X442827Y248031D01*
X442701Y248987D01*
X442332Y249878D01*
X441745Y250643D01*
X440980Y251230D01*
X440090Y251599D01*
X439134Y251725D01*
D02*
G37*
G36*
X401614Y251693D02*
X394291D01*
Y244370D01*
X401614D01*
Y251693D01*
D02*
G37*
G36*
X300158Y261724D02*
X299202Y261599D01*
X298311Y261230D01*
X297546Y260643D01*
X296959Y259878D01*
X296590Y258987D01*
X296465Y258032D01*
X296590Y257076D01*
X296959Y256185D01*
X297546Y255420D01*
X298311Y254833D01*
X299202Y254464D01*
X300158Y254339D01*
X301113Y254464D01*
X302004Y254833D01*
X302769Y255420D01*
X303356Y256185D01*
X303725Y257076D01*
X303851Y258032D01*
X303725Y258987D01*
X303356Y259878D01*
X302769Y260643D01*
X302004Y261230D01*
X301113Y261599D01*
X300158Y261724D01*
D02*
G37*
G36*
X594984Y266442D02*
Y256398D01*
X605029D01*
X604938Y257553D01*
X604550Y259168D01*
X603914Y260703D01*
X603047Y262119D01*
X601968Y263382D01*
X600705Y264460D01*
X599289Y265328D01*
X597755Y265963D01*
X596140Y266351D01*
X594984Y266442D01*
D02*
G37*
G36*
X270658Y261659D02*
Y258531D01*
X273785D01*
X273725Y258987D01*
X273356Y259878D01*
X272769Y260643D01*
X272004Y261230D01*
X271113Y261599D01*
X270658Y261659D01*
D02*
G37*
G36*
X593984Y266442D02*
X592829Y266351D01*
X591214Y265963D01*
X589679Y265328D01*
X588263Y264460D01*
X587000Y263382D01*
X585922Y262119D01*
X585054Y260703D01*
X584418Y259168D01*
X584031Y257553D01*
X583940Y256398D01*
X593984D01*
Y266442D01*
D02*
G37*
G36*
X15244D02*
X14088Y266351D01*
X12473Y265963D01*
X10939Y265328D01*
X9523Y264460D01*
X8260Y263382D01*
X7182Y262119D01*
X6314Y260703D01*
X5678Y259168D01*
X5291Y257553D01*
X5200Y256398D01*
X15244D01*
Y266442D01*
D02*
G37*
G36*
X16244D02*
Y256398D01*
X26289D01*
X26198Y257553D01*
X25810Y259168D01*
X25174Y260703D01*
X24307Y262119D01*
X23228Y263382D01*
X21965Y264460D01*
X20549Y265328D01*
X19015Y265963D01*
X17400Y266351D01*
X16244Y266442D01*
D02*
G37*
G36*
X377453Y261659D02*
X376997Y261599D01*
X376106Y261230D01*
X375341Y260643D01*
X374755Y259878D01*
X374386Y258987D01*
X374326Y258531D01*
X377453D01*
Y261659D01*
D02*
G37*
G36*
X500996D02*
X500540Y261599D01*
X499650Y261230D01*
X498885Y260643D01*
X498298Y259878D01*
X497929Y258987D01*
X497869Y258531D01*
X500996D01*
Y261659D01*
D02*
G37*
G36*
X501996D02*
Y258531D01*
X505123D01*
X505063Y258987D01*
X504694Y259878D01*
X504108Y260643D01*
X503343Y261230D01*
X502452Y261599D01*
X501996Y261659D01*
D02*
G37*
G36*
X481996D02*
Y258531D01*
X485123D01*
X485063Y258987D01*
X484694Y259878D01*
X484107Y260643D01*
X483343Y261230D01*
X482452Y261599D01*
X481996Y261659D01*
D02*
G37*
G36*
X378453D02*
Y258531D01*
X381580D01*
X381520Y258987D01*
X381151Y259878D01*
X380564Y260643D01*
X379799Y261230D01*
X378909Y261599D01*
X378453Y261659D01*
D02*
G37*
G36*
X480996D02*
X480540Y261599D01*
X479650Y261230D01*
X478885Y260643D01*
X478298Y259878D01*
X477929Y258987D01*
X477869Y258531D01*
X480996D01*
Y261659D01*
D02*
G37*
G36*
X505123Y257531D02*
X501996D01*
Y254404D01*
X502452Y254464D01*
X503343Y254833D01*
X504108Y255420D01*
X504694Y256185D01*
X505063Y257076D01*
X505123Y257531D01*
D02*
G37*
G36*
X511496Y261972D02*
X511103Y261894D01*
X510770Y261671D01*
X510738Y261625D01*
X510540Y261599D01*
X509650Y261230D01*
X508885Y260643D01*
X508298Y259878D01*
X507929Y258987D01*
X507803Y258032D01*
X507929Y257076D01*
X508298Y256185D01*
X508885Y255420D01*
X509650Y254833D01*
X510540Y254464D01*
X511496Y254339D01*
X512452Y254464D01*
X513343Y254833D01*
X514108Y255420D01*
X514694Y256185D01*
X515063Y257076D01*
X515189Y258032D01*
X515063Y258987D01*
X514694Y259878D01*
X514108Y260643D01*
X513343Y261230D01*
X512452Y261599D01*
X512254Y261625D01*
X512223Y261671D01*
X511889Y261894D01*
X511496Y261972D01*
D02*
G37*
G36*
X521496Y261724D02*
X520540Y261599D01*
X519650Y261230D01*
X518885Y260643D01*
X518298Y259878D01*
X517929Y258987D01*
X517803Y258032D01*
X517929Y257076D01*
X518298Y256185D01*
X518885Y255420D01*
X519650Y254833D01*
X520540Y254464D01*
X521496Y254339D01*
X522452Y254464D01*
X523343Y254833D01*
X524108Y255420D01*
X524694Y256185D01*
X525063Y257076D01*
X525189Y258032D01*
X525063Y258987D01*
X524694Y259878D01*
X524108Y260643D01*
X523343Y261230D01*
X522452Y261599D01*
X521496Y261724D01*
D02*
G37*
G36*
X491496D02*
X490540Y261599D01*
X489650Y261230D01*
X488885Y260643D01*
X488298Y259878D01*
X487929Y258987D01*
X487803Y258032D01*
X487929Y257076D01*
X488298Y256185D01*
X488885Y255420D01*
X489650Y254833D01*
X490540Y254464D01*
X491496Y254339D01*
X492452Y254464D01*
X493343Y254833D01*
X494107Y255420D01*
X494694Y256185D01*
X495063Y257076D01*
X495189Y258032D01*
X495063Y258987D01*
X494694Y259878D01*
X494107Y260643D01*
X493343Y261230D01*
X492452Y261599D01*
X491496Y261724D01*
D02*
G37*
G36*
X320158D02*
X319202Y261599D01*
X318311Y261230D01*
X317546Y260643D01*
X316959Y259878D01*
X316590Y258987D01*
X316465Y258032D01*
X316590Y257076D01*
X316959Y256185D01*
X317546Y255420D01*
X318311Y254833D01*
X319202Y254464D01*
X320158Y254339D01*
X321113Y254464D01*
X322004Y254833D01*
X322769Y255420D01*
X323356Y256185D01*
X323725Y257076D01*
X323851Y258032D01*
X323725Y258987D01*
X323356Y259878D01*
X322769Y260643D01*
X322004Y261230D01*
X321113Y261599D01*
X320158Y261724D01*
D02*
G37*
G36*
X387953D02*
X386997Y261599D01*
X386106Y261230D01*
X385341Y260643D01*
X384754Y259878D01*
X384386Y258987D01*
X384260Y258032D01*
X384386Y257076D01*
X384754Y256185D01*
X385341Y255420D01*
X386106Y254833D01*
X386997Y254464D01*
X387953Y254339D01*
X388909Y254464D01*
X389799Y254833D01*
X390564Y255420D01*
X391151Y256185D01*
X391520Y257076D01*
X391646Y258032D01*
X391520Y258987D01*
X391151Y259878D01*
X390564Y260643D01*
X389799Y261230D01*
X388909Y261599D01*
X387953Y261724D01*
D02*
G37*
G36*
X531496D02*
X530540Y261599D01*
X529650Y261230D01*
X528885Y260643D01*
X528298Y259878D01*
X527929Y258987D01*
X527803Y258032D01*
X527929Y257076D01*
X528298Y256185D01*
X528885Y255420D01*
X529650Y254833D01*
X530540Y254464D01*
X531496Y254339D01*
X532452Y254464D01*
X533343Y254833D01*
X534107Y255420D01*
X534694Y256185D01*
X535063Y257076D01*
X535189Y258032D01*
X535063Y258987D01*
X534694Y259878D01*
X534107Y260643D01*
X533343Y261230D01*
X532452Y261599D01*
X531496Y261724D01*
D02*
G37*
G36*
X432761Y257531D02*
X429634D01*
Y254404D01*
X430090Y254464D01*
X430980Y254833D01*
X431745Y255420D01*
X432332Y256185D01*
X432701Y257076D01*
X432761Y257531D01*
D02*
G37*
G36*
X500996D02*
X497869D01*
X497929Y257076D01*
X498298Y256185D01*
X498885Y255420D01*
X499650Y254833D01*
X500540Y254464D01*
X500996Y254404D01*
Y257531D01*
D02*
G37*
G36*
X428634D02*
X425507D01*
X425567Y257076D01*
X425936Y256185D01*
X426523Y255420D01*
X427287Y254833D01*
X428178Y254464D01*
X428634Y254404D01*
Y257531D01*
D02*
G37*
G36*
X377453D02*
X374326D01*
X374386Y257076D01*
X374755Y256185D01*
X375341Y255420D01*
X376106Y254833D01*
X376997Y254464D01*
X377453Y254404D01*
Y257531D01*
D02*
G37*
G36*
X381580D02*
X378453D01*
Y254404D01*
X378909Y254464D01*
X379799Y254833D01*
X380564Y255420D01*
X381151Y256185D01*
X381520Y257076D01*
X381580Y257531D01*
D02*
G37*
G36*
X113673Y243595D02*
X111076D01*
Y241535D01*
X111181Y240734D01*
X111491Y239987D01*
X111983Y239345D01*
X112625Y238853D01*
X113372Y238544D01*
X113673Y238504D01*
Y243595D01*
D02*
G37*
G36*
X239652Y189326D02*
X239314Y189282D01*
X238534Y188959D01*
X237863Y188444D01*
X237349Y187774D01*
X237026Y186994D01*
X236981Y186656D01*
X239652D01*
Y189326D01*
D02*
G37*
G36*
X259343Y191035D02*
X255787D01*
Y188661D01*
X256551D01*
X256742Y188199D01*
X255726Y187183D01*
X243199D01*
X242955Y187774D01*
X242440Y188444D01*
X241770Y188959D01*
X240990Y189282D01*
X240652Y189326D01*
Y186155D01*
Y182985D01*
X240990Y183030D01*
X241770Y183353D01*
X242440Y183868D01*
X242955Y184538D01*
X243199Y185128D01*
X256152D01*
X256545Y185206D01*
X256879Y185429D01*
X259379Y187929D01*
X259379Y187929D01*
X259601Y188263D01*
X259680Y188656D01*
Y188661D01*
X259343D01*
Y191035D01*
D02*
G37*
G36*
X371052Y207156D02*
X370214Y207046D01*
X369434Y206722D01*
X368763Y206208D01*
X368249Y205538D01*
X367926Y204757D01*
X367816Y203920D01*
X367926Y203082D01*
X368249Y202301D01*
X368763Y201631D01*
X369434Y201117D01*
X370214Y200794D01*
X371052Y200683D01*
X371890Y200794D01*
X372670Y201117D01*
X373340Y201631D01*
X373855Y202301D01*
X374178Y203082D01*
X374278Y203840D01*
X392215D01*
X404771Y191284D01*
X404526Y190693D01*
X404416Y189856D01*
X404526Y189018D01*
X404849Y188238D01*
X405364Y187567D01*
X406034Y187053D01*
X406814Y186730D01*
X407652Y186620D01*
X408490Y186730D01*
X409270Y187053D01*
X409940Y187567D01*
X410455Y188238D01*
X410778Y189018D01*
X410888Y189856D01*
X410778Y190693D01*
X410455Y191474D01*
X409940Y192144D01*
X409270Y192659D01*
X408490Y192982D01*
X407652Y193092D01*
X406814Y192982D01*
X406224Y192737D01*
X393367Y205594D01*
X393034Y205817D01*
X392640Y205895D01*
X373581D01*
X373340Y206208D01*
X372670Y206722D01*
X371890Y207046D01*
X371052Y207156D01*
D02*
G37*
G36*
X322335Y185354D02*
X318779D01*
Y182980D01*
X322335D01*
Y185354D01*
D02*
G37*
G36*
X239652Y185656D02*
X236981D01*
X237026Y185318D01*
X237349Y184538D01*
X237863Y183868D01*
X238534Y183353D01*
X239314Y183030D01*
X239652Y182985D01*
Y185656D01*
D02*
G37*
G36*
X409152Y199856D02*
X406481D01*
X406526Y199518D01*
X406849Y198738D01*
X407364Y198067D01*
X408034Y197553D01*
X408814Y197230D01*
X409152Y197185D01*
Y199856D01*
D02*
G37*
G36*
Y203526D02*
X408814Y203482D01*
X408034Y203159D01*
X407364Y202644D01*
X406849Y201974D01*
X406526Y201193D01*
X406481Y200856D01*
X409152D01*
Y203526D01*
D02*
G37*
G36*
X410152D02*
Y200856D01*
X412822D01*
X412778Y201193D01*
X412455Y201974D01*
X411940Y202644D01*
X411270Y203159D01*
X410490Y203482D01*
X410152Y203526D01*
D02*
G37*
G36*
X585608Y207319D02*
X582029D01*
X580240Y205530D01*
Y201951D01*
X582029Y200162D01*
X585608D01*
X587398Y201951D01*
Y205530D01*
X585608Y207319D01*
D02*
G37*
G36*
X412822Y199856D02*
X410152D01*
Y197185D01*
X410490Y197230D01*
X411270Y197553D01*
X411940Y198067D01*
X412455Y198738D01*
X412778Y199518D01*
X412822Y199856D01*
D02*
G37*
G36*
X577734Y207319D02*
X574156D01*
X572366Y205530D01*
Y201951D01*
X574156Y200162D01*
X577734D01*
X579524Y201951D01*
Y205530D01*
X577734Y207319D01*
D02*
G37*
G36*
X322335Y181980D02*
X318779D01*
Y179606D01*
X322335D01*
Y181980D01*
D02*
G37*
G36*
X441823Y176665D02*
X439449D01*
Y173110D01*
X441823D01*
Y176665D01*
D02*
G37*
G36*
X445197D02*
X442823D01*
Y173110D01*
X445197D01*
Y176665D01*
D02*
G37*
G36*
X159948Y172728D02*
X152862D01*
Y165642D01*
X153852Y165740D01*
X155284Y166174D01*
X156604Y166880D01*
X157761Y167830D01*
X158711Y168986D01*
X159416Y170307D01*
X159851Y171739D01*
X159948Y172728D01*
D02*
G37*
G36*
X27271D02*
X20185D01*
Y165642D01*
X21175Y165740D01*
X22607Y166174D01*
X23927Y166880D01*
X25084Y167830D01*
X26033Y168986D01*
X26739Y170307D01*
X27174Y171739D01*
X27271Y172728D01*
D02*
G37*
G36*
X151862D02*
X144776D01*
X144874Y171739D01*
X145308Y170307D01*
X146014Y168986D01*
X146963Y167830D01*
X148120Y166880D01*
X149440Y166174D01*
X150873Y165740D01*
X151862Y165642D01*
Y172728D01*
D02*
G37*
G36*
X310722Y175856D02*
X308052D01*
Y173185D01*
X308390Y173230D01*
X309170Y173553D01*
X309840Y174067D01*
X310355Y174738D01*
X310678Y175518D01*
X310722Y175856D01*
D02*
G37*
G36*
X152862Y180814D02*
Y173728D01*
X159948D01*
X159851Y174718D01*
X159416Y176150D01*
X158711Y177470D01*
X157761Y178627D01*
X156604Y179577D01*
X155284Y180282D01*
X153852Y180717D01*
X152862Y180814D01*
D02*
G37*
G36*
X308052Y179526D02*
Y176856D01*
X310722D01*
X310678Y177193D01*
X310355Y177974D01*
X309840Y178644D01*
X309170Y179159D01*
X308390Y179482D01*
X308052Y179526D01*
D02*
G37*
G36*
X151862Y180814D02*
X150873Y180717D01*
X149440Y180282D01*
X148120Y179577D01*
X146963Y178627D01*
X146014Y177470D01*
X145308Y176150D01*
X144874Y174718D01*
X144776Y173728D01*
X151862D01*
Y180814D01*
D02*
G37*
G36*
X19185D02*
X18195Y180717D01*
X16763Y180282D01*
X15443Y179577D01*
X14286Y178627D01*
X13337Y177470D01*
X12631Y176150D01*
X12197Y174718D01*
X12099Y173728D01*
X19185D01*
Y180814D01*
D02*
G37*
G36*
X20185D02*
Y173728D01*
X27271D01*
X27174Y174718D01*
X26739Y176150D01*
X26033Y177470D01*
X25084Y178627D01*
X23927Y179577D01*
X22607Y180282D01*
X21175Y180717D01*
X20185Y180814D01*
D02*
G37*
G36*
X577734Y217161D02*
X574156D01*
X572366Y215372D01*
Y211793D01*
X574156Y210004D01*
X577734D01*
X579524Y211793D01*
Y215372D01*
X577734Y217161D01*
D02*
G37*
G36*
X594488Y239357D02*
X593108Y239221D01*
X591781Y238818D01*
X590558Y238165D01*
X589487Y237285D01*
X588607Y236213D01*
X587953Y234990D01*
X587551Y233663D01*
X587415Y232283D01*
X587551Y230904D01*
X587953Y229576D01*
X588607Y228354D01*
X589487Y227282D01*
X590558Y226402D01*
X591781Y225748D01*
X593108Y225346D01*
X594488Y225210D01*
X595868Y225346D01*
X597195Y225748D01*
X598418Y226402D01*
X599490Y227282D01*
X600370Y228354D01*
X601023Y229576D01*
X601426Y230904D01*
X601562Y232283D01*
X601426Y233663D01*
X601023Y234990D01*
X600370Y236213D01*
X599490Y237285D01*
X598418Y238165D01*
X597195Y238818D01*
X595868Y239221D01*
X594488Y239357D01*
D02*
G37*
G36*
X431193Y229434D02*
X430855Y229390D01*
X430075Y229067D01*
X429404Y228552D01*
X428890Y227882D01*
X428567Y227101D01*
X428522Y226764D01*
X431193D01*
Y229434D01*
D02*
G37*
G36*
X299252Y226326D02*
Y223656D01*
X301922D01*
X301878Y223993D01*
X301555Y224774D01*
X301040Y225444D01*
X300370Y225959D01*
X299590Y226282D01*
X299252Y226326D01*
D02*
G37*
G36*
X434864Y225764D02*
X432193D01*
Y223093D01*
X432531Y223138D01*
X433311Y223461D01*
X433981Y223975D01*
X434496Y224646D01*
X434819Y225426D01*
X434864Y225764D01*
D02*
G37*
G36*
X298252Y226326D02*
X297914Y226282D01*
X297134Y225959D01*
X296463Y225444D01*
X295949Y224774D01*
X295626Y223993D01*
X295581Y223656D01*
X298252D01*
Y226326D01*
D02*
G37*
G36*
X432193Y229434D02*
Y226764D01*
X434864D01*
X434819Y227101D01*
X434496Y227882D01*
X433981Y228552D01*
X433311Y229067D01*
X432531Y229390D01*
X432193Y229434D01*
D02*
G37*
G36*
X78240Y243595D02*
X75643D01*
Y241535D01*
X75748Y240734D01*
X76058Y239987D01*
X76550Y239345D01*
X77192Y238853D01*
X77938Y238544D01*
X78240Y238504D01*
Y243595D01*
D02*
G37*
G36*
X81837D02*
X79240D01*
Y238504D01*
X79542Y238544D01*
X80289Y238853D01*
X80930Y239345D01*
X81423Y239987D01*
X81732Y240734D01*
X81837Y241535D01*
Y243595D01*
D02*
G37*
G36*
X153543Y249751D02*
X152742Y249645D01*
X151995Y249336D01*
X151353Y248844D01*
X150861Y248202D01*
X150551Y247455D01*
X150446Y246654D01*
Y241535D01*
X150551Y240734D01*
X150861Y239987D01*
X151353Y239345D01*
X151995Y238853D01*
X152742Y238544D01*
X153543Y238438D01*
X154345Y238544D01*
X155092Y238853D01*
X155734Y239345D01*
X156226Y239987D01*
X156535Y240734D01*
X156641Y241535D01*
Y246654D01*
X156535Y247455D01*
X156226Y248202D01*
X155734Y248844D01*
X155092Y249336D01*
X154345Y249645D01*
X153543Y249751D01*
D02*
G37*
G36*
X320158Y251725D02*
X319202Y251599D01*
X318311Y251230D01*
X317546Y250643D01*
X316959Y249878D01*
X316590Y248987D01*
X316465Y248031D01*
X316590Y247076D01*
X316959Y246185D01*
X317546Y245420D01*
X318311Y244833D01*
X319130Y244494D01*
Y237387D01*
X311980Y230237D01*
X311390Y230482D01*
X310552Y230592D01*
X309714Y230482D01*
X308934Y230159D01*
X308263Y229644D01*
X307749Y228974D01*
X307426Y228193D01*
X307316Y227356D01*
X307426Y226518D01*
X307749Y225738D01*
X308263Y225067D01*
X308934Y224553D01*
X309714Y224230D01*
X310552Y224119D01*
X311390Y224230D01*
X312170Y224553D01*
X312840Y225067D01*
X313355Y225738D01*
X313678Y226518D01*
X313788Y227356D01*
X313678Y228193D01*
X313433Y228784D01*
X320884Y236235D01*
X321107Y236568D01*
X321185Y236962D01*
X321185Y236962D01*
X321185Y236962D01*
Y236962D01*
Y244494D01*
X322004Y244833D01*
X322769Y245420D01*
X323356Y246185D01*
X323725Y247076D01*
X323851Y248031D01*
X323725Y248987D01*
X323356Y249878D01*
X322769Y250643D01*
X322004Y251230D01*
X321113Y251599D01*
X320158Y251725D01*
D02*
G37*
G36*
X62992Y251083D02*
X45452D01*
X45059Y251005D01*
X44725Y250782D01*
X43125Y249183D01*
X42903Y248849D01*
X42824Y248456D01*
Y203656D01*
X42903Y203263D01*
X43125Y202929D01*
X46325Y199729D01*
X46325Y199729D01*
X46659Y199506D01*
X47052Y199428D01*
X52305D01*
X52549Y198838D01*
X53063Y198168D01*
X53734Y197653D01*
X54514Y197330D01*
X55352Y197220D01*
X56190Y197330D01*
X56970Y197653D01*
X57640Y198168D01*
X58155Y198838D01*
X58478Y199618D01*
X58588Y200456D01*
X58478Y201293D01*
X58155Y202074D01*
X57640Y202744D01*
X56970Y203259D01*
X56190Y203582D01*
X55352Y203692D01*
X54514Y203582D01*
X53734Y203259D01*
X53063Y202744D01*
X52549Y202074D01*
X52305Y201483D01*
X47478D01*
X44880Y204082D01*
Y238914D01*
X45328Y239135D01*
X45695Y238853D01*
X46216Y238637D01*
Y216464D01*
X45790Y216037D01*
X45567Y215704D01*
X45489Y215311D01*
Y209456D01*
X45489Y209456D01*
X45489D01*
X45567Y209063D01*
X45790Y208729D01*
X47616Y206903D01*
X47950Y206680D01*
X48343Y206602D01*
X54799D01*
X62816Y198584D01*
X62572Y197994D01*
X62461Y197156D01*
X62572Y196318D01*
X62895Y195538D01*
X63409Y194868D01*
X64079Y194353D01*
X64860Y194030D01*
X65698Y193920D01*
X66535Y194030D01*
X67316Y194353D01*
X67986Y194868D01*
X68500Y195538D01*
X68824Y196318D01*
X68934Y197156D01*
X68824Y197994D01*
X68500Y198774D01*
X67986Y199444D01*
X67316Y199959D01*
X66535Y200282D01*
X65698Y200392D01*
X64860Y200282D01*
X64269Y200037D01*
X55951Y208356D01*
X55617Y208579D01*
X55224Y208657D01*
X52062D01*
X51901Y209130D01*
X52340Y209468D01*
X52855Y210138D01*
X53178Y210918D01*
X53288Y211756D01*
X53178Y212594D01*
X52933Y213184D01*
X55845Y216095D01*
X56068Y216429D01*
X56146Y216822D01*
X56146Y216822D01*
Y238637D01*
X56667Y238853D01*
X57308Y239345D01*
X57801Y239987D01*
X58110Y240734D01*
X58215Y241535D01*
Y246654D01*
X58110Y247455D01*
X57801Y248202D01*
X57308Y248844D01*
X57371Y249028D01*
X60378D01*
X60599Y248580D01*
X60310Y248202D01*
X60000Y247455D01*
X59895Y246654D01*
Y241535D01*
X60000Y240734D01*
X60310Y239987D01*
X60802Y239345D01*
X61444Y238853D01*
X62191Y238544D01*
X62992Y238438D01*
X63794Y238544D01*
X64541Y238853D01*
X65182Y239345D01*
X65675Y239987D01*
X65984Y240734D01*
X66089Y241535D01*
Y246654D01*
X65984Y247455D01*
X65675Y248202D01*
X65182Y248844D01*
X64541Y249336D01*
X64020Y249552D01*
Y250056D01*
X63942Y250449D01*
X63719Y250782D01*
X63385Y251005D01*
X62992Y251083D01*
D02*
G37*
G36*
X431193Y225764D02*
X428522D01*
X428567Y225426D01*
X428890Y224646D01*
X429404Y223975D01*
X430075Y223461D01*
X430855Y223138D01*
X431193Y223093D01*
Y225764D01*
D02*
G37*
G36*
Y216036D02*
X428819D01*
Y212480D01*
X431193D01*
Y216036D01*
D02*
G37*
G36*
X434567D02*
X432193D01*
Y212480D01*
X434567D01*
Y216036D01*
D02*
G37*
G36*
X307965D02*
X305591D01*
Y212480D01*
X307965D01*
Y216036D01*
D02*
G37*
G36*
X583319Y213082D02*
X580240D01*
Y211793D01*
X582029Y210004D01*
X583319D01*
Y213082D01*
D02*
G37*
G36*
X587398D02*
X584319D01*
Y210004D01*
X585608D01*
X587398Y211793D01*
Y213082D01*
D02*
G37*
G36*
X442323Y225992D02*
X441485Y225882D01*
X440705Y225559D01*
X440034Y225044D01*
X439520Y224374D01*
X439197Y223593D01*
X439086Y222756D01*
X439197Y221918D01*
X439520Y221138D01*
X439641Y220980D01*
X439449Y220591D01*
X439449D01*
X439449Y220591D01*
Y212480D01*
X445197D01*
Y220591D01*
X445197Y220591D01*
X445197D01*
X445005Y220980D01*
X445125Y221138D01*
X445449Y221918D01*
X445559Y222756D01*
X445449Y223593D01*
X445125Y224374D01*
X444611Y225044D01*
X443941Y225559D01*
X443160Y225882D01*
X442323Y225992D01*
D02*
G37*
G36*
X431193Y220591D02*
X428819D01*
Y217036D01*
X431193D01*
Y220591D01*
D02*
G37*
G36*
X434567D02*
X432193D01*
Y217036D01*
X434567D01*
Y220591D01*
D02*
G37*
G36*
X307965D02*
X305591D01*
Y217036D01*
X307965D01*
Y220591D01*
D02*
G37*
G36*
X583319Y217161D02*
X582029D01*
X580240Y215372D01*
Y214082D01*
X583319D01*
Y217161D01*
D02*
G37*
G36*
X585608D02*
X584319D01*
Y214082D01*
X587398D01*
Y215372D01*
X585608Y217161D01*
D02*
G37*
%LPD*%
D10*
X277756Y133858D02*
D03*
X265551D02*
D03*
X313189D02*
D03*
X300984D02*
D03*
X584449Y62992D02*
D03*
X596654D02*
D03*
X187598Y99213D02*
D03*
X199803D02*
D03*
X371850Y39370D02*
D03*
X384055D02*
D03*
X411221D02*
D03*
X423425D02*
D03*
X450591D02*
D03*
X462795D02*
D03*
X489961D02*
D03*
X502165D02*
D03*
D11*
X244094Y96653D02*
D03*
Y84449D02*
D03*
X574803Y151378D02*
D03*
Y163583D02*
D03*
X287402Y49016D02*
D03*
Y61221D02*
D03*
X267717Y49016D02*
D03*
Y61221D02*
D03*
X574803Y123819D02*
D03*
Y136024D02*
D03*
X500000Y143504D02*
D03*
Y155709D02*
D03*
X267717Y84449D02*
D03*
Y96653D02*
D03*
X287402Y84449D02*
D03*
Y96653D02*
D03*
X307087Y84449D02*
D03*
Y96653D02*
D03*
Y49016D02*
D03*
Y61221D02*
D03*
X244095Y49016D02*
D03*
Y61221D02*
D03*
D12*
X284843Y153543D02*
D03*
X274213D02*
D03*
X442323Y216535D02*
D03*
X431693D02*
D03*
X308465D02*
D03*
X297835D02*
D03*
X197835Y79134D02*
D03*
X187205D02*
D03*
X442323Y177165D02*
D03*
X431693D02*
D03*
D23*
X259842Y202165D02*
D03*
Y191535D02*
D03*
X322835Y182480D02*
D03*
Y171850D02*
D03*
D24*
X562992Y74803D02*
D03*
D37*
X562777Y258032D02*
X564961Y255848D01*
X551496Y258032D02*
X562777D01*
X564961Y196850D02*
Y255848D01*
X548425Y180315D02*
X564961Y196850D01*
X508661Y180315D02*
X548425D01*
X500000Y171653D02*
X508661Y180315D01*
X500000Y155709D02*
Y171653D01*
X596654Y62992D02*
Y75656D01*
X594488Y77821D02*
X596654Y75656D01*
X594488Y77821D02*
Y90551D01*
X431693Y177165D02*
X431952Y176906D01*
Y40456D02*
Y176906D01*
Y40456D02*
X448786Y23622D01*
X454725D01*
X431693Y177165D02*
Y179725D01*
X437048Y185080D02*
Y195856D01*
X437848Y196656D01*
X438648D01*
X484359Y183141D02*
X507874Y206655D01*
X431693Y179725D02*
X435109Y183141D01*
X437048Y185080D01*
X435109Y183141D02*
X484359D01*
X500000Y155709D02*
X501378D01*
X508661Y148425D01*
D38*
X321652Y157556D02*
Y171850D01*
X303937Y207874D02*
X307570D01*
X274213Y145458D02*
Y153543D01*
X303937Y207874D02*
X307455Y204356D01*
X475433Y268110D02*
X504173D01*
X468382Y261059D02*
X475433Y268110D01*
X262652Y269956D02*
X522552D01*
X504173Y268110D02*
X506142Y266142D01*
X460709Y265827D02*
X465476Y261059D01*
X460709Y265827D02*
X460827Y265945D01*
X462992Y268504D02*
Y268556D01*
X268752D02*
X462992D01*
Y268504D02*
X466535Y265748D01*
X465476Y261059D02*
X468382D01*
X444567Y262598D02*
X449134Y258032D01*
X420472Y262598D02*
X444567D01*
X419291Y261417D02*
X420472Y262598D01*
X459551Y267221D02*
X460827Y265945D01*
X506142Y266142D02*
X518504D01*
X259752Y267056D02*
X262652Y269956D01*
X522552D02*
X525552Y266956D01*
X469727Y238583D02*
X477535Y246391D01*
X389479Y238583D02*
X469727D01*
X483835Y251992D02*
X486221Y249606D01*
X479856Y251992D02*
X483835D01*
X453866Y253299D02*
X484376D01*
X477535Y249672D02*
X479856Y251992D01*
X271717Y267221D02*
X459551D01*
X485683Y251992D02*
X545457D01*
X551496Y258032D01*
X484376Y253299D02*
X485683Y251992D01*
X486221Y246487D02*
Y249606D01*
X449134Y258032D02*
X453866Y253299D01*
X297835Y213977D02*
Y216535D01*
Y206838D02*
Y213977D01*
X303937Y207874D01*
X511496Y258032D02*
Y260945D01*
X477535Y246391D02*
Y249672D01*
X361378Y264607D02*
X377953Y248031D01*
X310403Y264607D02*
X361378D01*
X305737Y259941D02*
X310403Y264607D01*
X79528Y258268D02*
Y259032D01*
X84652Y264156D01*
X167866Y236221D02*
X184301Y252655D01*
X140920Y236221D02*
X167866D01*
X137795Y239345D02*
X140920Y236221D01*
X137795Y239345D02*
Y244094D01*
X232539Y253543D02*
X233428Y252655D01*
X184301D02*
X233428D01*
X233327Y254331D02*
X233952Y254956D01*
X185039Y239956D02*
Y244094D01*
X176579Y231496D02*
X185039Y239956D01*
X129607Y231496D02*
X176579D01*
X122047Y239056D02*
X129607Y231496D01*
X269760Y200333D02*
X296313D01*
X266535Y203557D02*
X269760Y200333D01*
X271982Y201640D02*
X292636D01*
X268504Y205118D02*
X271982Y201640D01*
X268504Y205118D02*
Y206304D01*
X265637Y206756D02*
X266535Y205857D01*
Y203557D02*
Y205857D01*
X258744Y216064D02*
X268504Y206304D01*
X307455Y204356D02*
X315652D01*
X307570Y207874D02*
X312352Y212656D01*
X392640Y204868D02*
X407652Y189856D01*
X371052Y204868D02*
X392640D01*
X371052Y203920D02*
Y204868D01*
X354331Y211024D02*
X354363Y211056D01*
X383611D01*
X490551Y179455D02*
X519752Y208656D01*
X490551Y148849D02*
Y179455D01*
X509573Y172835D02*
X513652Y168756D01*
X217214Y171830D02*
X217784Y171260D01*
X242605Y172173D02*
X249069D01*
X241691Y171260D02*
X242605Y172173D01*
X217784Y171260D02*
X241691D01*
X249069Y172173D02*
X264252Y187356D01*
X249611Y170866D02*
X265559Y186814D01*
X243146Y170866D02*
X249611D01*
X233415Y161135D02*
X243146Y170866D01*
X408268Y261417D02*
X419291D01*
X305737Y236677D02*
Y259941D01*
X303150Y234090D02*
X305737Y236677D01*
X294365Y236011D02*
X300829Y229546D01*
X303691D01*
X307044Y232899D01*
X293752Y236011D02*
X294365D01*
X307044Y232899D02*
Y244918D01*
X287008Y238912D02*
X294152Y246056D01*
X287008Y233973D02*
Y238912D01*
Y233973D02*
X289367Y231614D01*
Y227241D02*
Y231614D01*
Y227241D02*
X291552Y225056D01*
X267846Y192256D02*
X279052D01*
X265559Y189969D02*
X267846Y192256D01*
X265559Y186814D02*
Y189969D01*
X244013Y157956D02*
X257452D01*
X262952Y90256D02*
Y102402D01*
X255225Y110129D02*
X262952Y102402D01*
X253758Y108661D02*
X255225Y110129D01*
X253758Y108661D02*
X255906D01*
X329852Y112923D02*
Y184046D01*
X313583Y96653D02*
X329852Y112923D01*
X307052Y96653D02*
X313583D01*
X331937Y113039D02*
Y177789D01*
X310268Y91370D02*
X331937Y113039D01*
X302535Y91370D02*
X310268D01*
X344068Y88556D02*
X419685Y164173D01*
X264652Y88556D02*
X344068D01*
X337402Y183401D02*
X339244Y185243D01*
X337402Y176895D02*
Y183401D01*
X340551Y179921D02*
Y230855D01*
X340716Y162992D02*
X341027D01*
X340452Y163256D02*
X340716Y162992D01*
X340158Y232310D02*
Y233650D01*
X335152Y238656D02*
X340158Y233650D01*
X331799Y181916D02*
X332759Y182876D01*
X332677Y197527D02*
X334960Y195245D01*
X332759Y190138D02*
X334960Y192339D01*
X332759Y182876D02*
Y190138D01*
X332677Y197527D02*
Y206731D01*
X334960Y192339D02*
Y195245D01*
X319152Y220256D02*
X332677Y206731D01*
X339244Y231397D02*
X340158Y232310D01*
X339244Y185243D02*
Y231397D01*
X337402Y176895D02*
X339493Y174803D01*
X340551Y230855D02*
X347252Y237556D01*
X351812Y214531D02*
X355784D01*
X348652Y211372D02*
X351812Y214531D01*
X348652Y203556D02*
Y211372D01*
X356142Y214173D02*
X384880D01*
X355784Y214531D02*
X356142Y214173D01*
X339493Y174803D02*
X351969D01*
X331799Y177927D02*
Y181916D01*
Y177927D02*
X331937Y177789D01*
X329852Y184046D02*
X331452Y185646D01*
X327352Y172656D02*
Y184148D01*
X328660Y185456D01*
X394514Y225656D02*
X405598Y236740D01*
X385752Y225656D02*
X394514D01*
X486221Y246487D02*
X488652Y244056D01*
X406140Y235433D02*
X518898D01*
X370952Y220056D02*
X389479Y238583D01*
X470205Y236740D02*
X481496Y248031D01*
X405598Y236740D02*
X470205D01*
X384880Y214173D02*
X406140Y235433D01*
X454210Y222956D02*
Y225318D01*
X449213Y230315D02*
X454210Y225318D01*
X455611Y218956D02*
X516152D01*
X445705Y228862D02*
X455611Y218956D01*
X445705Y228862D02*
Y229003D01*
X440752Y233956D02*
X445705Y229003D01*
X406511Y233956D02*
X440752D01*
X518898Y235433D02*
X531496Y248031D01*
X488652Y244056D02*
X505452D01*
X287402Y61221D02*
Y84449D01*
X307087Y61221D02*
Y84449D01*
X244095Y61221D02*
Y84449D01*
X533452Y155709D02*
X541326Y163583D01*
X574803D01*
X187205Y79134D02*
Y88956D01*
X187598Y89350D01*
Y99213D01*
X385984Y23622D02*
Y30456D01*
X384055Y32385D02*
X385984Y30456D01*
X384055Y32385D02*
Y39370D01*
X425354Y23622D02*
Y30456D01*
X423425Y32385D02*
X425354Y30456D01*
X423425Y32385D02*
Y39370D01*
X464725Y23622D02*
Y30456D01*
X462795Y32385D02*
X464725Y30456D01*
X462795Y32385D02*
Y39370D01*
X574803Y151378D02*
X581552D01*
X583717Y153543D01*
X590551D01*
X203210Y84449D02*
X244095D01*
X199803Y87856D02*
X203210Y84449D01*
X199803Y87856D02*
Y99213D01*
X187598D02*
Y112256D01*
X107852Y113056D02*
X186798D01*
X285152Y223456D02*
X288060Y226364D01*
Y231072D01*
X285152Y233980D02*
X288060Y231072D01*
X285152Y233980D02*
Y249156D01*
X281008Y253299D02*
X285152Y249156D01*
X265426Y253299D02*
X281008D01*
X260158Y248031D02*
X265426Y253299D01*
X240158Y248031D02*
X248444Y239745D01*
Y238656D02*
Y239745D01*
Y238656D02*
X250252Y236848D01*
X265460D01*
X274728Y227580D01*
X197835Y79134D02*
Y79556D01*
X297852Y48056D02*
X306252Y56456D01*
Y61221D02*
X307087D01*
X287402D02*
X287752D01*
X267552D02*
X267717D01*
X240552Y27956D02*
X243352Y30756D01*
Y49016D02*
X244095D01*
X62992Y244094D02*
Y250056D01*
X45452D02*
X62992D01*
X43852Y248456D02*
X45452Y250056D01*
X43852Y203656D02*
Y248456D01*
Y203656D02*
X47052Y200456D01*
X55352D01*
X79552Y188558D02*
Y205056D01*
Y188558D02*
X96850Y171260D01*
X75681Y215497D02*
X78740Y218556D01*
X75681Y186926D02*
Y215497D01*
Y186926D02*
X84252Y178356D01*
Y171260D02*
Y178356D01*
X185039Y244094D02*
Y249456D01*
X186931Y251348D01*
X235944D01*
X238321Y253725D01*
Y256195D01*
X240158Y258032D01*
X129921Y244094D02*
Y250056D01*
X120652D02*
X129921D01*
X118652Y248056D02*
X120652Y250056D01*
X118652Y193356D02*
Y248056D01*
Y193356D02*
X127652Y184356D01*
X161652D01*
X165652Y180356D01*
X250152D01*
X450591Y39370D02*
Y45556D01*
X540252Y135217D01*
X442323Y216535D02*
Y222756D01*
X454210Y222956D02*
X517452D01*
X519752Y220656D01*
Y208656D02*
Y220656D01*
X495897Y143504D02*
X500000D01*
X248022Y110342D02*
X265551Y127871D01*
X248022Y104575D02*
Y110342D01*
Y104575D02*
X249944Y102653D01*
Y86256D02*
Y102653D01*
X248137Y84449D02*
X249944Y86256D01*
X244095Y84449D02*
X248137D01*
X321652Y171850D02*
X322835D01*
X317752Y122756D02*
X318552Y123556D01*
X315652Y204356D02*
X328660Y191348D01*
Y185456D02*
Y191348D01*
X326546Y171850D02*
X327352Y172656D01*
X322835Y171850D02*
X326546D01*
X287352Y169156D02*
Y193156D01*
X282789Y197719D02*
X287352Y193156D01*
X263289Y197719D02*
X282789D01*
X261152Y199856D02*
X263289Y197719D01*
X259843Y202165D02*
X261152D01*
X277756Y133858D02*
Y138744D01*
X279962Y140949D01*
Y172431D01*
X271537Y180856D02*
X279962Y172431D01*
X331452Y185646D02*
Y193792D01*
X431693Y214756D02*
Y216535D01*
X499252Y155709D02*
X500000D01*
X55118Y216822D02*
Y244094D01*
X50052Y211756D02*
X55118Y216822D01*
X84772Y201526D02*
X125164Y161135D01*
X233415D01*
X494752Y38556D02*
X500952Y32356D01*
X489961Y38556D02*
Y39370D01*
X504095Y23622D02*
Y29533D01*
X504460Y29898D01*
Y36549D01*
X502165D02*
Y39370D01*
X310158Y258032D02*
X315426Y263299D01*
X341745D01*
X346352Y258692D01*
X286152Y131056D02*
X290952Y135856D01*
Y171326D01*
X289737Y172541D02*
X290952Y171326D01*
X289737Y172541D02*
Y186441D01*
X296303Y193007D01*
X306001D01*
X309952Y189056D01*
X291344Y122220D02*
X294008Y119556D01*
X291344Y122220D02*
Y133164D01*
X292900Y134720D01*
Y173708D01*
X291044Y175564D02*
X292900Y173708D01*
X291044Y175564D02*
Y185248D01*
X296252Y190456D01*
X302152D01*
X308552Y184056D01*
X314552D01*
X319473Y188977D01*
X325152D01*
X266452Y223956D02*
X268052Y222356D01*
X204013Y223956D02*
X266452D01*
X192913Y235056D02*
X204013Y223956D01*
X192913Y235056D02*
Y244094D01*
X124552Y193756D02*
X207868D01*
X220868Y206756D01*
X265637D01*
X296313Y200333D02*
X298252Y202272D01*
X301936D01*
X309452Y194756D01*
X294852Y129056D02*
X304952D01*
Y161056D01*
X303552Y162456D02*
X304952Y161056D01*
X221352Y217456D02*
X223552Y219656D01*
X256752D01*
X219652Y212556D02*
X255852D01*
X217252Y210156D02*
X219652Y212556D01*
X199252Y68256D02*
X210252Y57256D01*
X247152D01*
X249252Y55156D01*
Y35256D02*
Y55156D01*
Y35256D02*
X253052Y31456D01*
X368151D01*
X375984Y23622D01*
X487652Y196356D02*
X497852Y206556D01*
X446552Y196356D02*
X487652D01*
X442352Y200556D02*
X446552Y196356D01*
X437352Y200556D02*
X442352D01*
X435052Y198256D02*
X437352Y200556D01*
X435052Y188056D02*
Y198256D01*
X392952Y145956D02*
X435052Y188056D01*
X345852Y145956D02*
X392952D01*
X383611Y211056D02*
X406511Y233956D01*
X262952Y90256D02*
X264652Y88556D01*
X318752Y39556D02*
X388952Y109756D01*
X256752Y39556D02*
X318752D01*
X257352Y152156D02*
X262252Y147256D01*
Y142256D02*
Y147256D01*
Y142256D02*
X263652Y140856D01*
X367452Y220056D02*
X370952D01*
X505452Y244056D02*
X508152Y248031D01*
X511496D01*
X259752Y264256D02*
Y267056D01*
X340452Y163256D02*
X404752D01*
X426952Y185456D01*
X427652Y208656D01*
X485752D01*
X492152Y215056D01*
X77452Y223456D02*
X101168D01*
X74374Y220378D02*
X77452Y223456D01*
X74374Y202878D02*
Y220378D01*
X71260Y199764D02*
X74374Y202878D01*
X71260Y171260D02*
Y199764D01*
X71339Y103150D02*
X104745Y136556D01*
X129752D01*
X70866Y204601D02*
Y244094D01*
X55224Y207629D02*
X65698Y197156D01*
X48343Y207629D02*
X55224D01*
X46517Y209456D02*
X48343Y207629D01*
X46517Y209456D02*
Y215311D01*
X47244Y216038D01*
Y244094D01*
X381252Y156156D02*
X399591D01*
X431452Y188017D01*
Y190456D01*
X244095Y96653D02*
X244452D01*
Y126256D02*
X247752Y129556D01*
X257954D01*
X312352Y212656D02*
Y220856D01*
X326152Y234656D01*
Y261692D01*
X326452Y261992D01*
X331852D01*
X336197Y257647D01*
Y246111D02*
Y257647D01*
Y246111D02*
X338252Y244056D01*
X389777D01*
X391977Y246256D01*
Y252056D01*
X397953Y258032D01*
X313189Y129456D02*
Y133858D01*
X298981Y115248D02*
X313189Y129456D01*
X279759Y115248D02*
X298981D01*
X265551Y137299D02*
X273710Y145458D01*
X265551Y133858D02*
Y137299D01*
X122047Y239056D02*
Y244094D01*
X185039D02*
X185289Y240206D01*
X211547Y213948D01*
X224887D01*
X227003Y216064D01*
X258744D01*
X292636Y201640D02*
X297835Y206838D01*
X570052Y140775D02*
X574803Y136024D01*
X570052Y140775D02*
Y158832D01*
X574803Y163583D01*
X240152Y186156D02*
X256152D01*
X258652Y188656D01*
Y191535D02*
X259843D01*
X284843Y148047D02*
Y153543D01*
X284152Y147356D02*
X284843Y148047D01*
X282644Y123241D02*
Y137648D01*
X288052Y143056D01*
Y158556D01*
X282560Y164048D02*
X288052Y158556D01*
X282560Y164048D02*
Y195148D01*
X281652Y196056D02*
X282560Y195148D01*
X258752Y196056D02*
X281652D01*
X252052Y202756D02*
X258752Y196056D01*
X242044Y202756D02*
X252052D01*
X240744Y201456D02*
X242044Y202756D01*
X240744Y195664D02*
Y201456D01*
Y195664D02*
X242952Y193456D01*
X254033Y264156D02*
X260158Y258032D01*
X84652Y264156D02*
X254033D01*
X347252Y237556D02*
X380352D01*
X290158Y258032D02*
X294152Y254037D01*
Y246056D02*
Y254037D01*
X291552Y205448D02*
Y225056D01*
X290252Y204148D02*
X291552Y205448D01*
X280160Y204148D02*
X290252D01*
X279152Y205156D02*
X280160Y204148D01*
X264252Y187356D02*
Y194729D01*
X248679D02*
X264252D01*
X265467Y260971D02*
X271717Y267221D01*
X265467Y255371D02*
Y260971D01*
X262152Y252056D02*
X265467Y255371D01*
X258252Y252056D02*
X262152D01*
X256197Y250001D02*
X258252Y252056D01*
X256197Y244511D02*
Y250001D01*
Y244511D02*
X258752Y241956D01*
X200787Y244094D02*
X201287Y233256D01*
X262652D01*
X272052Y223856D01*
Y207356D02*
Y223856D01*
X264160Y263964D02*
X268752Y268556D01*
X264160Y255912D02*
Y263964D01*
X262103Y253856D02*
X264160Y255912D01*
X256652Y253856D02*
X262103D01*
X254152Y251356D02*
X256652Y253856D01*
X254152Y242556D02*
Y251356D01*
X251952Y240356D02*
X254152Y242556D01*
X300182Y199026D02*
X300444Y198764D01*
X269160Y199026D02*
X300182D01*
X264321Y203865D02*
X269160Y199026D01*
X264321Y203865D02*
Y205356D01*
X222067D02*
X264321D01*
X202467Y185756D02*
X222067Y205356D01*
X176352Y185756D02*
X202467D01*
X287402Y96653D02*
X297252D01*
X302535Y91370D01*
X267717Y96653D02*
X272880D01*
X290167Y113941D01*
X301937D01*
X317152Y129156D01*
Y149056D01*
X310452Y155756D02*
X317152Y149056D01*
X310452Y155756D02*
Y167848D01*
X304044Y174256D02*
X310452Y167848D01*
X303952Y185920D02*
X304044Y174256D01*
X298952Y185920D02*
X303952D01*
X320158Y236962D02*
Y248031D01*
X310552Y227356D02*
X320158Y236962D01*
X307044Y244918D02*
X310158Y248031D01*
X276197Y251992D02*
X280158Y248031D01*
X267588Y251992D02*
X276197D01*
X265352Y249756D02*
X267588Y251992D01*
X265352Y244656D02*
Y249756D01*
Y244656D02*
X279836Y230172D01*
Y214672D02*
Y230172D01*
Y214672D02*
X286852Y207656D01*
X281431Y232277D02*
X284552Y229156D01*
X281431Y232277D02*
Y236758D01*
X270158Y248031D02*
X281431Y236758D01*
X187598Y114202D02*
X217352Y143956D01*
X257152D01*
X330158Y258032D02*
X334890Y253299D01*
Y244981D02*
Y253299D01*
X584843Y123819D02*
X590551Y118110D01*
X574803Y123819D02*
X584843D01*
X513652Y168756D02*
X585339D01*
X590551Y163543D01*
X541652Y142756D02*
X561652D01*
X537152Y138256D02*
X541652Y142756D01*
X467652Y138256D02*
X537152D01*
X441452Y164456D02*
X467652Y138256D01*
X294552Y158197D02*
Y177356D01*
Y158197D02*
X300984Y151765D01*
Y133858D02*
Y151765D01*
X431496Y205056D02*
X462452D01*
X466252Y201256D01*
X420944Y185048D02*
X423352Y187456D01*
X376181Y185048D02*
X420944D01*
X243352Y30756D02*
Y49016D01*
X244452Y96653D02*
Y126256D01*
X267717Y61221D02*
Y84449D01*
X267552Y61221D02*
Y69032D01*
X287752Y61221D02*
Y67856D01*
X306252Y56456D02*
Y61221D01*
X265551Y127871D02*
Y129456D01*
Y133858D01*
Y129456D02*
X279759Y115248D01*
X265551Y137299D02*
X274213Y145458D01*
X273710D02*
X274213D01*
X274854D01*
X258652Y188656D02*
Y191535D01*
X489961Y38556D02*
X494752D01*
X261152Y199856D02*
Y202165D01*
X186798Y113056D02*
X187598Y112256D01*
Y114202D01*
X335152Y238656D02*
Y244719D01*
X334890Y244981D02*
X335152Y244719D01*
X502165Y36549D02*
X504460D01*
X490551Y148849D02*
X495897Y143504D01*
X501378Y155709D02*
X533452D01*
D39*
X561141Y264567D02*
X568652Y257056D01*
X548032Y264567D02*
X561141D01*
X541496Y258032D02*
X548032Y264567D01*
X591324Y175984D02*
X596252Y171056D01*
X568652Y175984D02*
X591324D01*
X568652D02*
Y257056D01*
X539370Y106299D02*
X562992D01*
X539370Y90551D02*
X562992D01*
X584449Y69095D01*
Y62992D02*
Y69095D01*
X562992Y106299D02*
Y123696D01*
X569652Y130356D01*
X583052D01*
X596252Y143556D01*
Y171056D01*
X481928Y11456D02*
X494095Y23622D01*
X136959Y11456D02*
X481928D01*
X123352Y25063D02*
X136959Y11456D01*
D43*
X222441Y123622D02*
D03*
X504331D02*
D03*
D44*
X590551Y118110D02*
D03*
Y153543D02*
D03*
D45*
Y128110D02*
D03*
Y163543D02*
D03*
X385984Y23622D02*
D03*
X425354D02*
D03*
X464725D02*
D03*
X504095D02*
D03*
X250158Y258032D02*
D03*
X280158D02*
D03*
X260158D02*
D03*
X270158D02*
D03*
X240158Y248031D02*
D03*
X250158D02*
D03*
X260158D02*
D03*
X270158D02*
D03*
X280158D02*
D03*
X310158Y258032D02*
D03*
X290158D02*
D03*
X300158D02*
D03*
X320158D02*
D03*
X330158D02*
D03*
X340158D02*
D03*
X310158Y248031D02*
D03*
X320158D02*
D03*
X290158D02*
D03*
X300158D02*
D03*
X330158D02*
D03*
X340158D02*
D03*
X397953Y258032D02*
D03*
X377953Y248031D02*
D03*
X387953D02*
D03*
X377953Y258032D02*
D03*
X387953D02*
D03*
X449134D02*
D03*
X429134Y248031D02*
D03*
X439134D02*
D03*
X429134Y258032D02*
D03*
X439134D02*
D03*
X481496D02*
D03*
X491496D02*
D03*
X501496D02*
D03*
X481496Y248031D02*
D03*
X491496D02*
D03*
X501496D02*
D03*
X511496D02*
D03*
X531496Y258032D02*
D03*
X511496D02*
D03*
X521496D02*
D03*
X541496D02*
D03*
Y248031D02*
D03*
X521496D02*
D03*
X531496D02*
D03*
X551496Y258032D02*
D03*
D46*
X375984Y23622D02*
D03*
X415354D02*
D03*
X454725D02*
D03*
X494095D02*
D03*
X240158Y258032D02*
D03*
X397953Y248031D02*
D03*
X449134D02*
D03*
X551496D02*
D03*
D47*
X15744Y255898D02*
D03*
X594484D02*
D03*
Y15740D02*
D03*
X15744D02*
D03*
D48*
X237795Y21654D02*
D03*
X333071D02*
D03*
X191732Y47638D02*
D03*
Y18110D02*
D03*
D49*
X19685Y173228D02*
D03*
X152362D02*
D03*
Y90551D02*
D03*
X19685D02*
D03*
D50*
X562992D02*
D03*
Y106299D02*
D03*
X539370Y74803D02*
D03*
Y90551D02*
D03*
Y106299D02*
D03*
D51*
X594488Y232283D02*
D03*
Y185039D02*
D03*
D52*
X583819Y213582D02*
D03*
Y203740D02*
D03*
X575945D02*
D03*
Y213582D02*
D03*
D53*
X70866Y244094D02*
D03*
X78740D02*
D03*
X62992D02*
D03*
X47244D02*
D03*
X55118D02*
D03*
X137795D02*
D03*
X145669D02*
D03*
X129921D02*
D03*
X153543D02*
D03*
X114173D02*
D03*
X122047D02*
D03*
X200787D02*
D03*
X208661D02*
D03*
X192913D02*
D03*
X185039D02*
D03*
X594488Y90551D02*
D03*
X586614D02*
D03*
D54*
X466535Y265748D02*
D03*
X518504Y266142D02*
D03*
X79528Y258268D02*
D03*
X304330Y207480D02*
D03*
X371052Y203920D02*
D03*
X509573Y172835D02*
D03*
X217214Y171830D02*
D03*
X408268Y261417D02*
D03*
X303150Y234090D02*
D03*
X244488Y157874D02*
D03*
X255906Y108661D02*
D03*
X419685Y164173D02*
D03*
X341027Y162992D02*
D03*
X341732Y180315D02*
D03*
X354331Y211024D02*
D03*
X351969Y174803D02*
D03*
X449213Y230315D02*
D03*
X107852Y113056D02*
D03*
X285152Y223456D02*
D03*
X274728Y227580D02*
D03*
X262452Y43256D02*
D03*
X236652Y79556D02*
D03*
X354352Y35056D02*
D03*
X298752Y223156D02*
D03*
X297852Y48056D02*
D03*
X287752Y67856D02*
D03*
X267552Y69032D02*
D03*
X240552Y27956D02*
D03*
X55352Y200456D02*
D03*
X79552Y205056D02*
D03*
X78740Y218556D02*
D03*
X250152Y180356D02*
D03*
X540252Y135217D02*
D03*
X442323Y222756D02*
D03*
X431693Y226264D02*
D03*
X321652Y157556D02*
D03*
X317752Y122756D02*
D03*
X438648Y196656D02*
D03*
X287352Y169156D02*
D03*
X271537Y180856D02*
D03*
X331452Y193792D02*
D03*
X409652Y200356D02*
D03*
X307552Y176356D02*
D03*
X50052Y211756D02*
D03*
X84772Y201526D02*
D03*
X279052Y192256D02*
D03*
X500952Y32356D02*
D03*
X346352Y258692D02*
D03*
X286152Y131056D02*
D03*
X309952Y189056D02*
D03*
X294008Y119556D02*
D03*
X325152Y188977D02*
D03*
X348652Y203556D02*
D03*
X268052Y222356D02*
D03*
X124552Y193756D02*
D03*
X309452Y194756D02*
D03*
X294852Y129056D02*
D03*
X303552Y162456D02*
D03*
X221352Y217456D02*
D03*
X256752Y219656D02*
D03*
X255852Y212556D02*
D03*
X217252Y210156D02*
D03*
X199252Y68256D02*
D03*
X497852Y206556D02*
D03*
X345852Y145956D02*
D03*
X516152Y218956D02*
D03*
X385752Y225656D02*
D03*
X388952Y109756D02*
D03*
X256752Y39556D02*
D03*
X257352Y152156D02*
D03*
X263652Y140856D02*
D03*
X367452Y220056D02*
D03*
X525552Y266956D02*
D03*
X259752Y264256D02*
D03*
X257452Y157956D02*
D03*
X492152Y215056D02*
D03*
X101168Y223456D02*
D03*
X129752Y136556D02*
D03*
X70866Y204601D02*
D03*
X65698Y197156D02*
D03*
X381252Y156156D02*
D03*
X431452Y190456D02*
D03*
X257954Y129556D02*
D03*
X274854Y145458D02*
D03*
X240152Y186156D02*
D03*
X284152Y147356D02*
D03*
X282644Y123241D02*
D03*
X242952Y193456D02*
D03*
X123352Y25063D02*
D03*
X380352Y237556D02*
D03*
X279152Y205156D02*
D03*
X248679Y194729D02*
D03*
X233952Y254956D02*
D03*
X258752Y241956D02*
D03*
X272052Y207356D02*
D03*
X251952Y240356D02*
D03*
X300444Y198764D02*
D03*
X176352Y185756D02*
D03*
X319152Y220256D02*
D03*
X298952Y185920D02*
D03*
X310552Y227356D02*
D03*
X293752Y236011D02*
D03*
X286852Y207656D02*
D03*
X284552Y229156D02*
D03*
X257152Y143956D02*
D03*
X335152Y238656D02*
D03*
X507874Y206655D02*
D03*
X561652Y142756D02*
D03*
X441452Y164456D02*
D03*
X294552Y177356D02*
D03*
X431496Y205056D02*
D03*
X466252Y201256D02*
D03*
X407652Y189856D02*
D03*
X423352Y187456D02*
D03*
X376181Y185048D02*
D03*
X508661Y148425D02*
D03*
X471654Y142126D02*
D03*
X444488Y79921D02*
D03*
X376772Y78347D02*
D03*
D55*
X113779Y155512D02*
D03*
X44882D02*
D03*
D56*
X84252Y171260D02*
D03*
X84095Y103150D02*
D03*
D57*
X96850Y171260D02*
D03*
Y103150D02*
D03*
X71339D02*
D03*
X71260Y171260D02*
D03*
M02*
