%FSLAX25Y25*%
%MOIN*%
G70*
G01*
G75*
G04 Layer_Physical_Order=1*
G04 Layer_Color=255*
%ADD10R,0.05906X0.07480*%
%ADD11R,0.07480X0.05906*%
%ADD12R,0.04331X0.06693*%
%ADD13R,0.06299X0.06299*%
%ADD14R,0.04331X0.03937*%
%ADD15R,0.08661X0.10236*%
%ADD16R,0.02756X0.05118*%
%ADD17R,0.09449X0.10236*%
%ADD18O,0.02362X0.07677*%
%ADD19O,0.07677X0.02362*%
%ADD20R,0.05118X0.02756*%
%ADD21O,0.01181X0.08268*%
%ADD22O,0.08268X0.01181*%
%ADD23R,0.06693X0.04331*%
%ADD24R,0.09055X0.09055*%
%ADD25R,0.33071X0.41929*%
%ADD26R,0.14961X0.04134*%
%ADD27O,0.09055X0.02756*%
%ADD28R,0.03150X0.18110*%
%ADD29R,0.18110X0.03150*%
%ADD30R,0.08858X0.03150*%
%ADD31R,0.10630X0.13780*%
%ADD32R,0.03150X0.09449*%
%ADD33R,0.03150X0.03937*%
%ADD34R,0.09449X0.07874*%
%ADD35R,0.00984X0.05512*%
%ADD36R,0.08661X0.05906*%
%ADD37C,0.01575*%
%ADD38C,0.00598*%
%ADD39C,0.03937*%
%ADD40C,0.03150*%
%ADD41C,0.00787*%
%ADD42C,0.02756*%
%ADD43C,0.12598*%
%ADD44R,0.05906X0.05906*%
%ADD45C,0.05906*%
%ADD46R,0.05906X0.05906*%
%ADD47C,0.19685*%
%ADD48C,0.06000*%
%ADD49C,0.13780*%
%ADD50C,0.09055*%
%ADD51C,0.12661*%
%ADD52P,0.06213X8X112.5*%
%ADD53O,0.04724X0.09843*%
%ADD54C,0.05000*%
D10*
X29724Y224410D02*
D03*
X17520D02*
D03*
X230512D02*
D03*
X218307D02*
D03*
X376181Y173229D02*
D03*
X363976D02*
D03*
X376181Y192913D02*
D03*
X363976D02*
D03*
X482480Y192913D02*
D03*
X470276D02*
D03*
X482480Y216535D02*
D03*
X470276D02*
D03*
X529724Y165354D02*
D03*
X517520D02*
D03*
X442717Y122047D02*
D03*
X454921D02*
D03*
X423425D02*
D03*
X411220D02*
D03*
X549409Y220473D02*
D03*
X537205D02*
D03*
D11*
X393701Y183268D02*
D03*
Y171063D02*
D03*
X397638Y100591D02*
D03*
Y88386D02*
D03*
X376772Y100591D02*
D03*
Y88386D02*
D03*
X181102Y171457D02*
D03*
Y159252D02*
D03*
X137795Y21850D02*
D03*
Y9646D02*
D03*
Y53347D02*
D03*
Y41142D02*
D03*
D12*
X395079Y149606D02*
D03*
X384449D02*
D03*
X471063Y122047D02*
D03*
X481693D02*
D03*
X481693Y153543D02*
D03*
X471063D02*
D03*
X44685Y51181D02*
D03*
X34055D02*
D03*
X383268Y125984D02*
D03*
X372638D02*
D03*
X195472Y129921D02*
D03*
X206102D02*
D03*
Y204725D02*
D03*
X195473D02*
D03*
D13*
X573622Y255118D02*
D03*
Y247244D02*
D03*
D14*
X558465Y188976D02*
D03*
X565158D02*
D03*
Y205118D02*
D03*
X558465D02*
D03*
D15*
X507087Y46063D02*
D03*
Y65748D02*
D03*
D16*
X374213Y67716D02*
D03*
X381693D02*
D03*
Y58268D02*
D03*
X377953D02*
D03*
X374213D02*
D03*
D17*
X39370Y36220D02*
D03*
Y11024D02*
D03*
X429134Y79527D02*
D03*
Y54331D02*
D03*
X507874Y192126D02*
D03*
Y217323D02*
D03*
D18*
X422047Y213583D02*
D03*
X425197D02*
D03*
X428346D02*
D03*
X431496D02*
D03*
X434646D02*
D03*
X437795D02*
D03*
X440945D02*
D03*
X444095D02*
D03*
Y180118D02*
D03*
X440945D02*
D03*
X437795D02*
D03*
X434646D02*
D03*
X431496D02*
D03*
X428346D02*
D03*
X425197D02*
D03*
X422047D02*
D03*
D19*
X449803Y207874D02*
D03*
Y204724D02*
D03*
Y201575D02*
D03*
Y198425D02*
D03*
Y195276D02*
D03*
Y192126D02*
D03*
Y188976D02*
D03*
Y185827D02*
D03*
X416339D02*
D03*
Y188976D02*
D03*
Y192126D02*
D03*
Y195276D02*
D03*
Y198425D02*
D03*
Y201575D02*
D03*
Y204724D02*
D03*
Y207874D02*
D03*
D20*
X530709Y184449D02*
D03*
Y191929D02*
D03*
X540158D02*
D03*
Y188189D02*
D03*
Y184449D02*
D03*
D21*
X311024Y155118D02*
D03*
X309055D02*
D03*
X307087D02*
D03*
X305118D02*
D03*
X303150D02*
D03*
X301181D02*
D03*
X299213D02*
D03*
X297244D02*
D03*
X295276D02*
D03*
X293307D02*
D03*
X291339D02*
D03*
X289370D02*
D03*
X287402D02*
D03*
X285433D02*
D03*
X283465D02*
D03*
X281496D02*
D03*
X279528D02*
D03*
X277559D02*
D03*
X275590D02*
D03*
X273622D02*
D03*
X271654D02*
D03*
X269685D02*
D03*
X267717D02*
D03*
X265748D02*
D03*
X263779D02*
D03*
Y214961D02*
D03*
X265748D02*
D03*
X267717D02*
D03*
X269685D02*
D03*
X271654D02*
D03*
X273622D02*
D03*
X275590D02*
D03*
X277559D02*
D03*
X279528D02*
D03*
X281496D02*
D03*
X283465D02*
D03*
X285433D02*
D03*
X287402D02*
D03*
X289370D02*
D03*
X291339D02*
D03*
X293307D02*
D03*
X295276D02*
D03*
X297244D02*
D03*
X299213D02*
D03*
X301181D02*
D03*
X303150D02*
D03*
X305118D02*
D03*
X307087D02*
D03*
X309055D02*
D03*
X311024D02*
D03*
D22*
X257480Y161417D02*
D03*
Y163386D02*
D03*
Y165354D02*
D03*
Y167323D02*
D03*
Y169291D02*
D03*
Y171260D02*
D03*
Y173228D02*
D03*
Y175197D02*
D03*
Y177165D02*
D03*
Y179134D02*
D03*
Y181102D02*
D03*
Y183071D02*
D03*
Y185039D02*
D03*
Y187008D02*
D03*
Y188976D02*
D03*
Y190945D02*
D03*
Y192913D02*
D03*
Y194882D02*
D03*
Y196850D02*
D03*
Y198819D02*
D03*
Y200787D02*
D03*
Y202756D02*
D03*
Y204724D02*
D03*
Y206693D02*
D03*
Y208661D02*
D03*
X317323D02*
D03*
Y206693D02*
D03*
Y204724D02*
D03*
Y202756D02*
D03*
Y200787D02*
D03*
Y198819D02*
D03*
Y196850D02*
D03*
Y194882D02*
D03*
Y192913D02*
D03*
Y190945D02*
D03*
Y188976D02*
D03*
Y187008D02*
D03*
Y185039D02*
D03*
Y183071D02*
D03*
Y181102D02*
D03*
Y179134D02*
D03*
Y177165D02*
D03*
Y175197D02*
D03*
Y173228D02*
D03*
Y171260D02*
D03*
Y169291D02*
D03*
Y167323D02*
D03*
Y165354D02*
D03*
Y163386D02*
D03*
Y161417D02*
D03*
D23*
X354331Y68307D02*
D03*
Y57677D02*
D03*
X402362Y57284D02*
D03*
Y67914D02*
D03*
D24*
X477362Y51181D02*
D03*
X459646D02*
D03*
X562992Y74803D02*
D03*
D25*
X72504Y31756D02*
D03*
D26*
X113055Y45142D02*
D03*
Y38449D02*
D03*
Y31756D02*
D03*
Y25063D02*
D03*
Y18370D02*
D03*
D27*
X480512Y79901D02*
D03*
Y84901D02*
D03*
Y89902D02*
D03*
Y94902D02*
D03*
X460433Y79901D02*
D03*
Y84901D02*
D03*
Y89902D02*
D03*
Y94902D02*
D03*
D28*
X200787Y181496D02*
D03*
Y149606D02*
D03*
D29*
X416929Y153543D02*
D03*
X448819D02*
D03*
D30*
X240551Y35433D02*
D03*
X230709Y75197D02*
D03*
D31*
X236221Y5906D02*
D03*
X339370D02*
D03*
D32*
X247244Y50787D02*
D03*
X253937D02*
D03*
X263386D02*
D03*
X273228D02*
D03*
X283071D02*
D03*
X292913D02*
D03*
X302756D02*
D03*
X312598D02*
D03*
X322441D02*
D03*
D33*
X264567Y110236D02*
D03*
D34*
X241732Y112205D02*
D03*
X329134D02*
D03*
D35*
X59055Y191098D02*
D03*
X61024D02*
D03*
X62992D02*
D03*
X64961D02*
D03*
X66929D02*
D03*
X68898D02*
D03*
X70866D02*
D03*
X72835D02*
D03*
X74803D02*
D03*
X76772D02*
D03*
X78740D02*
D03*
X80709D02*
D03*
X82677D02*
D03*
X84646D02*
D03*
X86614D02*
D03*
X88583D02*
D03*
X90551D02*
D03*
X92520D02*
D03*
X94488D02*
D03*
X96457D02*
D03*
X98425D02*
D03*
X100394D02*
D03*
X102362D02*
D03*
X104331D02*
D03*
X106299D02*
D03*
X108268D02*
D03*
X110236D02*
D03*
X112205D02*
D03*
X114173D02*
D03*
X116142D02*
D03*
Y212598D02*
D03*
X114173D02*
D03*
X112205D02*
D03*
X110236D02*
D03*
X108268D02*
D03*
X106299D02*
D03*
X104331D02*
D03*
X102362D02*
D03*
X100394D02*
D03*
X98425D02*
D03*
X96457D02*
D03*
X94488D02*
D03*
X92520D02*
D03*
X90551D02*
D03*
X88583D02*
D03*
X86614D02*
D03*
X84646D02*
D03*
X82677D02*
D03*
X80709D02*
D03*
X78740D02*
D03*
X76772D02*
D03*
X74803D02*
D03*
X72835D02*
D03*
X70866D02*
D03*
X68898D02*
D03*
X66929D02*
D03*
X64961D02*
D03*
X62992D02*
D03*
X61024D02*
D03*
X59055D02*
D03*
D36*
X506693Y107087D02*
D03*
X507087Y85433D02*
D03*
D37*
X481614Y111535D02*
X487795Y117717D01*
Y127165D02*
X509055Y148425D01*
X487795Y117717D02*
Y127165D01*
X473552Y103473D02*
X481614Y111535D01*
X473552Y65087D02*
Y103473D01*
X47638Y216535D02*
X57830D01*
X44685Y213583D02*
X47638Y216535D01*
X44685Y54889D02*
Y213583D01*
X57830Y216535D02*
X59055Y215311D01*
X44685Y54889D02*
X89519D01*
X143701Y16256D02*
Y41142D01*
Y16256D02*
X143799D01*
X133252D02*
X143701D01*
X123859Y38449D02*
X130709Y31599D01*
Y18799D02*
X133252Y16256D01*
X144882Y6693D02*
Y11926D01*
X143145Y4956D02*
X144882Y6693D01*
X55852Y4956D02*
X143145D01*
X143799Y13008D02*
Y16256D01*
Y13008D02*
X144882Y11926D01*
X137795Y41142D02*
X143701D01*
X130709Y18799D02*
Y31599D01*
X381693Y58268D02*
X391452D01*
X392436Y57284D01*
X402362D01*
X414252D01*
X417205Y54331D01*
X429134D01*
X442752D01*
X445902Y51181D01*
X459646D01*
X34055Y46271D02*
X39370Y40956D01*
X34055Y46271D02*
Y51181D01*
X39370Y36220D02*
X53652D01*
X58117Y31756D01*
X72504D02*
X113055D01*
X422047Y213583D02*
X425197D01*
X549409Y220473D02*
X559152D01*
X566042Y213582D01*
X575945D01*
X477362Y51181D02*
Y63956D01*
X480512Y67106D01*
Y79901D01*
X19685Y90551D02*
X34055Y76181D01*
Y51181D02*
Y76181D01*
X420652Y198425D02*
X422047Y199820D01*
X416339Y198425D02*
X420652D01*
X594488Y90551D02*
Y101220D01*
X551952Y143756D02*
X594488Y101220D01*
X551952Y143756D02*
Y190256D01*
X550279Y191929D02*
X551952Y190256D01*
X540158Y191929D02*
X550279D01*
X480512Y79901D02*
X504652D01*
X505752Y81002D01*
X78740Y232967D02*
Y244094D01*
X66929Y221156D02*
X78740Y232967D01*
X524102Y214565D02*
X530009Y220473D01*
X537205D01*
X428261Y196656D02*
X438648D01*
X89519Y54889D02*
X98252Y46156D01*
Y41649D02*
Y46156D01*
Y41649D02*
X101452Y38449D01*
X113055D01*
X459646Y51181D02*
X473552Y65087D01*
X39370Y11024D02*
X49784D01*
X55852Y4956D01*
X113055Y38449D02*
X123859D01*
X527852Y191929D02*
X530709D01*
X527852Y195303D02*
X537205Y204656D01*
Y220473D01*
X422047Y202870D02*
X428261Y196656D01*
X422047Y199820D02*
Y202870D01*
Y213583D01*
X527852Y191929D02*
Y195303D01*
X507874Y206655D02*
Y214565D01*
Y217323D01*
Y214565D02*
X524102D01*
X505752Y81002D02*
Y85433D01*
D38*
X271654Y148658D02*
Y164154D01*
X242316Y188977D02*
X264652D01*
X500000Y265748D02*
X500787Y264961D01*
X500000Y265748D02*
Y265748D01*
X500787Y264961D02*
X506693D01*
X471921Y263260D02*
X494348D01*
X469721Y261059D02*
X471921Y263260D01*
X463350Y261059D02*
X469721D01*
X459754Y264656D02*
X463350Y261059D01*
X425152Y264656D02*
X459754D01*
X466535Y265748D02*
X500000D01*
X494348Y263260D02*
X495552Y262056D01*
Y257256D02*
Y262056D01*
X509758Y269650D02*
X517052Y262356D01*
X506693Y264961D02*
X511496Y260157D01*
X427546Y269650D02*
X509758D01*
X518504Y266142D02*
X521496Y263149D01*
Y258032D02*
Y263149D01*
X517052Y244456D02*
Y262356D01*
X511496Y258032D02*
Y260157D01*
X387758Y229862D02*
X427546Y269650D01*
X283465Y49874D02*
X284378Y50788D01*
X283465Y45276D02*
Y49874D01*
Y45276D02*
X292913Y35827D01*
X74652Y263856D02*
X83388D01*
X90551Y256693D01*
Y212598D02*
Y256693D01*
X59052Y248256D02*
X74652Y263856D01*
X75352Y254856D02*
X79528Y259032D01*
Y258268D02*
Y259032D01*
X292913Y35827D02*
X321850D01*
X354331Y68307D01*
X262598Y88147D02*
X294008Y119556D01*
X262598Y63509D02*
Y88147D01*
Y63509D02*
X266052Y60056D01*
X311024Y210015D02*
Y214961D01*
X310874Y209865D02*
X311024Y210015D01*
X310874Y209693D02*
Y209865D01*
X307838Y206657D02*
X310874Y209693D01*
X312331Y209473D02*
Y209575D01*
X312181Y209324D02*
X312331Y209473D01*
X312181Y209152D02*
Y209324D01*
X311811Y208781D02*
X312181Y209152D01*
X302660Y209819D02*
X304652Y207827D01*
X302487Y209819D02*
X302660D01*
X301551Y210755D02*
X302487Y209819D01*
X301551Y210755D02*
Y210928D01*
X301181Y211297D02*
X301551Y210928D01*
X312331Y209575D02*
X314152Y211396D01*
X311811Y202336D02*
Y208781D01*
X307838Y206027D02*
Y206657D01*
X305783Y203972D02*
X307838Y206027D01*
X305153Y203972D02*
X305783D01*
X303952Y202771D02*
X305153Y203972D01*
X301181Y211297D02*
Y214961D01*
X314152Y211396D02*
Y234256D01*
X305259Y195784D02*
X311811Y202336D01*
X303952Y195456D02*
Y202771D01*
X367452Y197756D02*
Y220056D01*
Y197756D02*
X369352Y195856D01*
X504352Y178056D02*
X509573Y172835D01*
X218052Y150156D02*
Y171830D01*
X404882Y258032D02*
X408268Y261417D01*
X397953Y258032D02*
X404882D01*
X295244Y219583D02*
Y231145D01*
X303150Y214961D02*
Y234090D01*
X295244Y231145D02*
X301696Y237598D01*
X302659D02*
X304152Y239090D01*
X301696Y237598D02*
X302659D01*
X241696Y160666D02*
X244488Y157874D01*
X241696Y160666D02*
Y166040D01*
X249137Y160035D02*
Y162141D01*
Y160035D02*
X249303Y159868D01*
Y155880D02*
Y159868D01*
X249137Y155713D02*
X249303Y155880D01*
X249137Y130248D02*
Y155713D01*
X247830Y159494D02*
Y163533D01*
Y159494D02*
X247996Y159327D01*
Y156421D02*
Y159327D01*
X247830Y156254D02*
X247996Y156421D01*
X247830Y128941D02*
Y156254D01*
X234509Y173228D02*
X241696Y166040D01*
X249137Y162141D02*
X252350Y165354D01*
X247830Y163533D02*
X251619Y167323D01*
X252352Y110011D02*
Y124418D01*
Y110011D02*
X253701Y108661D01*
X255906D01*
X256752Y112776D02*
X259413Y110114D01*
X256752Y104547D02*
X259413Y107208D01*
X256752Y39556D02*
Y104547D01*
Y112776D02*
Y122633D01*
X259413Y107208D02*
Y110114D01*
X432556Y164052D02*
X435752Y160856D01*
X432556Y164052D02*
X432677Y164173D01*
X419685D02*
X432677D01*
X425197Y174531D02*
Y180118D01*
X421138Y170472D02*
X425197Y174531D01*
X421023Y170472D02*
X421138D01*
X416177Y165626D02*
X421023Y170472D01*
X430729Y160665D02*
X433139Y158256D01*
X417691Y159358D02*
X425437D01*
X414870Y162179D02*
Y169925D01*
X404144Y180651D02*
X414870Y169925D01*
X425437Y159358D02*
X431302Y153493D01*
X414870Y162179D02*
X417691Y159358D01*
X416177Y162720D02*
Y165626D01*
Y162720D02*
X418232Y160665D01*
X430729D01*
X404144Y180651D02*
Y202725D01*
X341732Y180315D02*
X342126Y179921D01*
X298911Y145956D02*
X330800D01*
X299727Y147342D02*
X330337D01*
X344535Y161539D01*
X330800Y145956D02*
X345842Y160998D01*
X344452Y166377D02*
Y178074D01*
Y166377D02*
X345842Y164987D01*
Y160998D02*
Y164987D01*
X342126Y166543D02*
X342169Y166500D01*
X342480D01*
X344535Y164445D01*
Y161539D02*
Y164445D01*
X340716Y162992D02*
X341027D01*
X340452Y163256D02*
X340716Y162992D01*
X347152Y154119D02*
Y200085D01*
X348461Y150356D02*
Y203365D01*
X340452Y163256D02*
Y163990D01*
X331618Y155156D02*
X340452Y163990D01*
X326552Y155156D02*
X331618D01*
X342126Y166543D02*
Y179921D01*
X307087Y149956D02*
Y165121D01*
X337376Y184736D02*
X340158Y187518D01*
X345760Y179382D02*
Y183491D01*
X344452Y178074D02*
X345760Y179382D01*
X352199Y218116D02*
X357839Y212477D01*
X352199Y203931D02*
X357839Y209571D01*
X352199Y192709D02*
Y203931D01*
Y218116D02*
Y258617D01*
X357839Y209571D02*
Y212477D01*
X347184Y211024D02*
X354331D01*
X347152Y211056D02*
X347184Y211024D01*
X363976Y188056D02*
X367952Y184080D01*
Y167952D02*
Y184080D01*
X366535Y166535D02*
X367952Y167952D01*
X360236Y166535D02*
X366535D01*
X351969Y174803D02*
X360236Y166535D01*
X348461Y150356D02*
X349378Y149439D01*
X348461Y203365D02*
X348652Y203556D01*
X336834Y186043D02*
X338752Y187961D01*
X334078Y186043D02*
X336834D01*
X330492Y182457D02*
X334078Y186043D01*
X330492Y180560D02*
Y182457D01*
X323860Y173928D02*
X330492Y180560D01*
X334620Y184736D02*
X337376D01*
X331799Y181916D02*
X334620Y184736D01*
X331799Y178698D02*
Y181916D01*
X325167Y172066D02*
X331799Y178698D01*
X322553Y176664D02*
X335152Y189263D01*
X322553Y166734D02*
Y176664D01*
X323860Y165494D02*
Y173928D01*
X340158Y187518D02*
Y248031D01*
X338752Y187961D02*
Y243556D01*
X341552Y187698D02*
X345760Y183491D01*
X341552Y187698D02*
Y228956D01*
X345144Y202093D02*
X347152Y200085D01*
X448714Y230814D02*
X449213Y230315D01*
X446352Y230814D02*
X448714D01*
X448819Y153543D02*
X457652D01*
X462065Y157956D01*
X474252D01*
X478665Y153543D01*
X481693D01*
X376772Y73837D02*
X377953Y72656D01*
X376772Y73837D02*
Y88386D01*
X429134Y79527D02*
X444552D01*
X444926Y79901D01*
X460433D01*
X39370Y36220D02*
Y40956D01*
X58117Y31756D02*
X72504D01*
X517520Y165354D02*
Y173856D01*
X507874Y183502D02*
X517520Y173856D01*
X507874Y183502D02*
Y192126D01*
X354331Y68307D02*
X363952D01*
X364543Y67716D01*
X374213D01*
X181102Y159252D02*
X186052D01*
X195698Y149606D01*
X200787D01*
X558465Y188976D02*
Y205118D01*
X594488Y185039D02*
Y216292D01*
X200787Y181496D02*
Y190356D01*
X206102Y195671D01*
Y204725D01*
X181102Y171457D02*
X185852D01*
X195891Y181496D01*
X200787D01*
X454921Y122047D02*
X471063D01*
X395079Y149606D02*
Y159556D01*
X393701Y160934D02*
X395079Y159556D01*
X393701Y160934D02*
Y171063D01*
X411220Y122047D02*
Y134856D01*
X416929Y140565D01*
Y153543D01*
X565158Y205118D02*
X569852D01*
X571230Y203741D01*
X575945D01*
X529724Y165354D02*
Y174356D01*
X530709Y175340D01*
Y184449D01*
X376772Y100591D02*
X397638D01*
X558465Y186256D02*
Y188976D01*
Y186256D02*
X559681Y185039D01*
X594488D01*
X583819Y213582D02*
Y244921D01*
X573622Y255118D02*
X583819Y244921D01*
X241732Y81077D02*
Y112205D01*
X116943Y53347D02*
X137795D01*
X113052Y49456D02*
X116943Y53347D01*
X113052Y45142D02*
X113055D01*
X208661Y241556D02*
Y244094D01*
X195473Y228367D02*
X208661Y241556D01*
X195473Y204725D02*
Y228367D01*
X206102Y116056D02*
Y129921D01*
Y116056D02*
X209954Y112205D01*
X241732D01*
X460433Y79901D02*
X466252D01*
X470452Y84101D01*
Y107456D01*
X481693Y118697D01*
Y122047D01*
X206102Y204725D02*
Y215856D01*
X213902Y223656D01*
X218307D02*
Y224410D01*
X442717Y99237D02*
Y122047D01*
Y99237D02*
X447052Y94902D01*
X460433D01*
X569055Y188976D02*
X583819Y203741D01*
X565158Y188976D02*
X569055D01*
X113055Y31756D02*
X123852D01*
X127352Y28256D01*
Y14256D02*
Y28256D01*
Y14256D02*
X131962Y9646D01*
X137795D01*
X393652Y183268D02*
X393701D01*
X393652Y203056D02*
X398470Y207874D01*
X416339D01*
X381693Y55056D02*
Y58268D01*
X380893Y54256D02*
X381693Y55056D01*
X375013Y54256D02*
X380893D01*
X374213Y55056D02*
X375013Y54256D01*
X374213Y55056D02*
Y58268D01*
X449134Y248031D02*
X456752Y240413D01*
Y187527D02*
Y240413D01*
X455052Y185827D02*
X456752Y187527D01*
X449803Y185827D02*
X455052D01*
X429134Y248031D02*
X446352Y230814D01*
Y207874D02*
X449803D01*
X397638Y100591D02*
X433617D01*
X444306Y89902D01*
X460433D01*
X505752Y85433D02*
X507087D01*
X90551Y130357D02*
X107852Y113056D01*
X90551Y130357D02*
Y191098D01*
X290158Y242618D02*
Y248031D01*
X288850Y241311D02*
X290158Y242618D01*
X288850Y231681D02*
Y241311D01*
Y231681D02*
X290158Y230374D01*
Y220754D02*
Y230374D01*
X289370Y219966D02*
X290158Y220754D01*
X289370Y214961D02*
Y219966D01*
X291339Y214961D02*
Y219356D01*
X291736Y219753D01*
Y232988D01*
X290158Y234566D02*
X291736Y232988D01*
X290158Y234566D02*
Y238032D01*
X300158Y248031D01*
X283465Y214961D02*
Y221768D01*
X285152Y223456D01*
X274728Y227580D02*
X279528Y222780D01*
Y214961D02*
Y222780D01*
X56355Y219656D02*
X59055Y216956D01*
X18520Y219656D02*
X56355D01*
X17520Y220656D02*
X18520Y219656D01*
X17520Y220656D02*
Y224410D01*
X366352Y57677D02*
X370531Y61856D01*
X397552D02*
X401152Y65456D01*
Y67914D02*
X402362D01*
X262452Y43256D02*
X263386Y44190D01*
Y50788D01*
X230709Y75197D02*
X235852D01*
X354331Y57677D02*
X354352D01*
X298752Y223156D02*
X299213Y222695D01*
Y214961D02*
Y222695D01*
X302756Y48056D02*
Y50788D01*
X292914D02*
Y60856D01*
X288552Y65218D02*
X292914Y60856D01*
X287752Y67856D02*
X288552D01*
X273228Y50788D02*
Y63456D01*
X267652Y69032D02*
X273228Y63456D01*
X267552Y69032D02*
X267652D01*
X312652Y179134D02*
X317323D01*
X311067Y177549D02*
X312652Y179134D01*
X311067Y164041D02*
Y177549D01*
X311024Y163997D02*
X311067Y164041D01*
X311024Y155118D02*
Y163997D01*
X59055Y212598D02*
Y216956D01*
X55352Y200456D02*
X55652Y200756D01*
X69452D01*
X72835Y197373D01*
Y191098D02*
Y197373D01*
X29724Y224410D02*
Y228956D01*
X52952D01*
X59052Y235056D01*
Y248256D01*
X84646Y209456D02*
Y212598D01*
X80246Y205056D02*
X84646Y209456D01*
X79552Y205056D02*
X80246D01*
X78740Y212598D02*
Y218556D01*
X250152Y180356D02*
X252867Y183071D01*
X257480D01*
X250158Y248031D02*
X256082Y253956D01*
X272652D01*
X274252Y255556D01*
Y258856D01*
X277452Y262056D01*
X292952D01*
X294152Y260856D01*
Y254256D02*
Y260856D01*
X292452Y252556D02*
X294152Y254256D01*
X288052Y252556D02*
X292452D01*
X286152Y250656D02*
X288052Y252556D01*
X286152Y238456D02*
Y250656D01*
X280952Y233256D02*
X286152Y238456D01*
X280952Y223656D02*
Y233256D01*
Y223656D02*
X281496Y223112D01*
Y214961D02*
Y223112D01*
X264652Y188977D02*
X265576Y188052D01*
Y170231D02*
Y188052D01*
Y170231D02*
X271654Y164154D01*
X540158Y184449D02*
X540252D01*
X440945Y175856D02*
Y180118D01*
Y175856D02*
X442238Y174563D01*
X455959D01*
X459459Y178063D01*
Y253449D01*
X450916Y261992D02*
X459459Y253449D01*
X437452Y261992D02*
X450916D01*
X435152Y259692D02*
X437452Y261992D01*
X435152Y252013D02*
Y259692D01*
Y252013D02*
X439134Y248031D01*
X437795Y218229D02*
X442323Y222756D01*
X437795Y213583D02*
Y218229D01*
X431693Y226264D02*
X434646Y223311D01*
Y213583D02*
Y223311D01*
X295276Y214961D02*
Y219551D01*
X295244Y219583D02*
X295276Y219551D01*
X304152Y239090D02*
Y251056D01*
X303152Y252056D02*
X304152Y251056D01*
X299852Y252056D02*
X303152D01*
X296152Y255756D02*
X299852Y252056D01*
X296152Y255756D02*
Y261656D01*
X290044Y267764D02*
X296152Y261656D01*
X236076Y267764D02*
X290044D01*
X229045Y260733D02*
X236076Y267764D01*
X229045Y244120D02*
Y260733D01*
Y244120D02*
X230512Y242653D01*
Y224410D02*
Y242653D01*
X311024Y155118D02*
X313461Y157556D01*
X321652D01*
X322203Y112205D02*
X329134D01*
X317752Y116656D02*
X322203Y112205D01*
X317752Y116656D02*
Y122756D01*
X195472Y129921D02*
Y137056D01*
X200787Y142371D01*
Y149606D01*
X303052Y169156D02*
X307087Y165121D01*
X287352Y169156D02*
X303052D01*
X271537Y180856D02*
Y199463D01*
X275591Y203517D01*
Y214961D01*
X331452Y192913D02*
Y193792D01*
X300158Y258032D02*
X306152Y252037D01*
Y242256D02*
Y252037D01*
Y242256D02*
X314152Y234256D01*
X305259Y192349D02*
Y195784D01*
X304060Y191149D02*
X305259Y192349D01*
X304060Y181856D02*
Y191149D01*
X296052Y173848D02*
X304060Y181856D01*
X293052Y173848D02*
X296052D01*
X290937Y175963D02*
X293052Y173848D01*
X290937Y175963D02*
Y188371D01*
X282352Y196956D02*
X290937Y188371D01*
X278244Y196956D02*
X282352D01*
X274744Y193456D02*
X278244Y196956D01*
X274744Y187429D02*
Y193456D01*
Y187429D02*
X276427Y185746D01*
Y174202D02*
Y185746D01*
Y174202D02*
X285452Y165177D01*
X290128D01*
X295276Y160030D01*
Y155118D02*
Y160030D01*
X309055Y177859D02*
X312299Y181103D01*
X317323D01*
X409652Y200356D02*
X410871Y201575D01*
X416339D01*
X50052Y191956D02*
Y211756D01*
Y191956D02*
X55038Y186970D01*
X69980D01*
X70866Y187856D01*
Y191098D01*
X565158Y205118D02*
Y210656D01*
X561358Y214456D02*
X565158Y210656D01*
X546252Y214456D02*
X561358D01*
X545352Y215356D02*
X546252Y214456D01*
X545352Y215356D02*
Y226556D01*
X555552Y236756D01*
Y251856D01*
X554352Y253056D02*
X555552Y251856D01*
X539852Y253056D02*
X554352D01*
X536552Y249756D02*
X539852Y253056D01*
X536552Y242456D02*
Y249756D01*
X525152Y231056D02*
X536552Y242456D01*
X501552Y231056D02*
X525152D01*
X496545Y226049D02*
X501552Y231056D01*
X496545Y212656D02*
Y226049D01*
X494369Y210480D02*
X496545Y212656D01*
X477828Y210480D02*
X494369D01*
X474952Y213356D02*
X477828Y210480D01*
X470276Y213356D02*
Y216535D01*
X76772Y209456D02*
Y212598D01*
X75852Y208536D02*
X76772Y209456D01*
X75852Y203127D02*
Y208536D01*
Y203127D02*
X77452Y201526D01*
X84772D01*
X279052Y185556D02*
Y192256D01*
Y185556D02*
X292412Y172196D01*
X296777D01*
X307652Y183071D01*
X317323D01*
X427052Y79527D02*
X429134D01*
X413724Y92856D02*
X427052Y79527D01*
X377772Y92856D02*
X413724D01*
X376772Y91856D02*
X377772Y92856D01*
X376772Y88386D02*
Y91856D01*
X507087Y42390D02*
Y46063D01*
X500952Y36256D02*
X507087Y42390D01*
X500952Y32356D02*
Y36256D01*
X317323Y198819D02*
X322791D01*
X326386Y202415D01*
Y214182D01*
X326197Y214371D02*
X326386Y214182D01*
X326197Y214371D02*
Y251201D01*
X327052Y252056D01*
X331852D01*
X336152Y256356D01*
Y259892D01*
X339877Y263617D01*
X349542D01*
X360104Y253056D01*
X382928D01*
X387953Y248031D01*
X346352Y233756D02*
Y258692D01*
X341552Y228956D02*
X346352Y233756D01*
X297244Y147623D02*
X298911Y145956D01*
X297244Y147623D02*
Y155118D01*
X428347Y213583D02*
Y223856D01*
X425152Y227050D02*
X428347Y223856D01*
X425152Y227050D02*
Y260956D01*
X427496Y263299D01*
X451808D01*
X482480Y232628D01*
Y216535D02*
Y232628D01*
X264567Y110236D02*
Y112671D01*
X282952Y131056D02*
X286152D01*
X309952Y189056D02*
X311841Y190945D01*
X317323D01*
X261629Y35433D02*
X266052Y39856D01*
Y60056D01*
X317323Y188977D02*
X325152D01*
X349378Y142423D02*
Y149439D01*
X346284Y139329D02*
X349378Y142423D01*
X269507Y139329D02*
X346284D01*
X267735Y141101D02*
X269507Y139329D01*
X267735Y141101D02*
Y144435D01*
X263780Y148390D02*
X267735Y144435D01*
X263780Y148390D02*
Y155118D01*
X273622Y214961D02*
Y221586D01*
X272852Y222356D02*
X273622Y221586D01*
X268052Y222356D02*
X272852D01*
X76772Y191098D02*
Y194256D01*
X77591Y195076D01*
X123232D01*
X124552Y193756D01*
X306444Y191748D02*
X309452Y194756D01*
X306444Y187056D02*
Y191748D01*
Y187056D02*
X308460Y185039D01*
X317323D01*
X339370Y5906D02*
Y8856D01*
X410252D02*
X419352Y17956D01*
Y30756D01*
X415052Y35056D02*
X419352Y30756D01*
X354352Y35056D02*
X415052D01*
X527452Y253987D02*
X531496Y258032D01*
X527452Y244456D02*
Y253987D01*
X523852Y240856D02*
X527452Y244456D01*
X520652Y240856D02*
X523852D01*
X517052Y244456D02*
X520652Y240856D01*
X384652Y229862D02*
X387758D01*
X382229Y227438D02*
X384652Y229862D01*
X382229Y166533D02*
Y227438D01*
X375852Y160156D02*
X382229Y166533D01*
X375852Y121556D02*
Y160156D01*
X358152Y121556D02*
X375852D01*
X351652Y128056D02*
X358152Y121556D01*
X295852Y128056D02*
X351652D01*
X294852Y129056D02*
X295852Y128056D01*
X303150Y162054D02*
X303552Y162456D01*
X303150Y155118D02*
Y162054D01*
X409288Y17556D02*
X415354Y23622D01*
X235852Y17556D02*
X409288D01*
X233752Y19656D02*
X235852Y17556D01*
X233752Y19656D02*
Y63456D01*
X247465Y77169D01*
Y117156D01*
X223852Y140769D02*
X247465Y117156D01*
X223852Y140769D02*
Y214956D01*
X221352Y217456D02*
X223852Y214956D01*
X251031Y213935D02*
X256752Y219656D01*
X251031Y204077D02*
Y213935D01*
Y204077D02*
X252352Y202756D01*
X257480D01*
X252338Y204725D02*
X257480D01*
X252338D02*
Y210642D01*
X254252Y212556D01*
X255852D01*
X210052Y202956D02*
X217252Y210156D01*
X210052Y146056D02*
Y202956D01*
X199252Y135256D02*
X210052Y146056D01*
X199252Y68256D02*
Y135256D01*
X541496Y244056D02*
Y248031D01*
X522596Y225156D02*
X541496Y244056D01*
X500452Y225156D02*
X522596D01*
X497852Y222556D02*
X500452Y225156D01*
X497852Y206556D02*
Y222556D01*
X340532Y140636D02*
X345852Y145956D01*
X271426Y140636D02*
X340532D01*
X269064Y142998D02*
X271426Y140636D01*
X269064Y142998D02*
Y146062D01*
X265748Y149379D02*
X269064Y146062D01*
X265748Y149379D02*
Y155118D01*
X267717Y150253D02*
Y155118D01*
Y150253D02*
X270572Y147398D01*
Y143836D02*
Y147398D01*
Y143836D02*
X272465Y141943D01*
X334976D01*
X347152Y154119D01*
X345144Y202093D02*
Y209048D01*
X347152Y211056D01*
X516152Y218956D02*
X522421D01*
X551496Y248031D01*
X257480Y169291D02*
X262652D01*
Y160756D02*
Y169291D01*
X262152Y160256D02*
X262652Y160756D01*
X262152Y149748D02*
Y160256D01*
X259868Y147464D02*
X262152Y149748D01*
X254848Y147464D02*
X259868D01*
X252840Y145456D02*
X254848Y147464D01*
X252840Y140448D02*
Y145456D01*
Y140448D02*
X258132Y135156D01*
X287552D01*
X290052Y132656D01*
Y128856D02*
Y132656D01*
Y128856D02*
X293452Y125456D01*
X313352D01*
X314252Y126356D01*
X319552D01*
X325752Y120156D01*
X376652D01*
X377652Y121156D01*
Y158256D01*
X385752Y166356D01*
Y225656D01*
X487752Y244287D02*
X491496Y248031D01*
X487752Y213087D02*
Y244287D01*
X486452Y211787D02*
X487752Y213087D01*
X478452Y211787D02*
X486452D01*
X478452D02*
Y219056D01*
X476152Y221356D02*
X478452Y219056D01*
X464852Y221356D02*
X476152D01*
X462652Y219156D02*
X464852Y221356D01*
X462652Y173256D02*
Y219156D01*
X450252Y160856D02*
X462652Y173256D01*
X435752Y160856D02*
X450252D01*
X247830Y128941D02*
X252352Y124418D01*
X251619Y167323D02*
X257480D01*
X501496Y248031D02*
Y251312D01*
X495552Y257256D02*
X501496Y251312D01*
X389260Y228764D02*
X425152Y264656D01*
X389260Y222456D02*
Y228764D01*
X388952Y222148D02*
X389260Y222456D01*
X388952Y109756D02*
Y222148D01*
X249137Y130248D02*
X256752Y122633D01*
X252350Y165354D02*
X257480D01*
X253552Y163386D02*
X257480D01*
X252338Y162172D02*
X253552Y163386D01*
X252338Y155156D02*
Y162172D01*
Y155156D02*
X255338Y152156D01*
X257352D01*
X263652Y140856D02*
X266652Y137856D01*
X364952D01*
X369352Y142256D01*
Y195856D01*
X521496Y248031D02*
X525552Y252087D01*
Y266956D01*
X236152Y264256D02*
X259752D01*
X230352Y258456D02*
X236152Y264256D01*
X230352Y249813D02*
Y258456D01*
Y249813D02*
X234509Y245656D01*
Y173228D02*
Y245656D01*
X255852Y159556D02*
X257452Y157956D01*
X255852Y161417D02*
X257480D01*
X301181Y149956D02*
Y155118D01*
Y149956D02*
X302488Y148649D01*
X320045D01*
X326552Y155156D01*
X492152Y215056D02*
Y227872D01*
X495552Y231272D01*
Y253976D01*
X491496Y258032D02*
X495552Y253976D01*
X132952Y48503D02*
X137795Y53347D01*
X132952Y33899D02*
Y48503D01*
Y33899D02*
X137795Y29056D01*
Y21850D02*
Y29056D01*
X108268Y212598D02*
Y216356D01*
X101168Y223456D02*
X108268Y216356D01*
X129752Y136556D02*
Y195756D01*
X121852Y203656D02*
X129752Y195756D01*
X91952Y203656D02*
X121852D01*
X86614Y208994D02*
X91952Y203656D01*
X86614Y208994D02*
Y212598D01*
X74803Y191098D02*
Y200664D01*
X70866Y204601D02*
X74803Y200664D01*
X68898Y191098D02*
Y193956D01*
X65698Y197156D02*
X68898Y193956D01*
X383268Y125984D02*
Y127156D01*
X381252Y129172D02*
X383268Y127156D01*
X381252Y129172D02*
Y156156D01*
X431452Y190456D02*
X434646Y187262D01*
Y180118D02*
Y187262D01*
X257954Y129556D02*
X264567Y122943D01*
X271654Y148658D02*
X274854Y145458D01*
X239437Y191856D02*
X242316Y188977D01*
X239437Y191856D02*
Y203971D01*
X244890Y209424D01*
Y253299D01*
X240158Y258032D02*
X244890Y253299D01*
X397638Y88386D02*
X407152Y78872D01*
Y62073D02*
Y78872D01*
X402362Y57284D02*
X407152Y62073D01*
X241004Y187008D02*
X257480D01*
X240152Y186156D02*
X241004Y187008D01*
X282542Y148966D02*
X284152Y147356D01*
X274912Y148966D02*
X282542D01*
X273622Y150256D02*
X274912Y148966D01*
X273622Y150256D02*
Y155118D01*
X191732Y18110D02*
X230298D01*
X236221Y12187D01*
Y5906D02*
Y12187D01*
X373022Y88386D02*
X376772D01*
X371952Y89456D02*
X373022Y88386D01*
X371952Y89456D02*
Y104656D01*
X386452Y119156D01*
Y148456D01*
X384449D02*
Y149606D01*
X471063Y143086D02*
X481693Y132456D01*
Y122047D02*
Y132456D01*
X516652Y159956D02*
X517520Y165354D01*
X471063Y149456D02*
Y153543D01*
X507874Y192126D02*
X520176D01*
X524113Y188189D01*
X540158D01*
X350252Y68307D02*
X354331D01*
X349452Y69107D02*
X350252Y68307D01*
X349452Y69107D02*
Y78356D01*
X304567Y123241D02*
X349452Y78356D01*
X282644Y123241D02*
X304567D01*
X240744Y195664D02*
X242952Y193456D01*
X240744Y195664D02*
Y201056D01*
X246197Y206509D01*
Y254071D01*
X250158Y258032D01*
X75352Y234684D02*
Y254856D01*
X61024Y220356D02*
X75352Y234684D01*
X61024Y212598D02*
Y220356D01*
X320158Y258032D02*
X328358Y266232D01*
X385376D01*
X391952Y259656D01*
Y245956D02*
Y259656D01*
X383552Y237556D02*
X391952Y245956D01*
X380352Y237556D02*
X383552D01*
X299213Y147856D02*
X299727Y147342D01*
X299213Y147856D02*
Y155118D01*
X273437Y199441D02*
X279152Y205156D01*
X273437Y184638D02*
Y199441D01*
Y184638D02*
X275052Y183023D01*
Y172056D02*
Y183023D01*
Y172056D02*
X283652Y163456D01*
X289707D01*
X293307Y159856D01*
Y155118D02*
Y159856D01*
X291339Y155118D02*
Y159356D01*
X289239Y161456D02*
X291339Y159356D01*
X281652Y161456D02*
X289239D01*
X267152Y175956D02*
X281652Y161456D01*
X267152Y175956D02*
Y205760D01*
X261152Y211760D02*
X267152Y205760D01*
X261152Y211760D02*
Y230956D01*
X275752Y245556D01*
Y253626D01*
X280158Y258032D01*
X325167Y155771D02*
Y172066D01*
X319352Y149956D02*
X325167Y155771D01*
X307087Y149956D02*
X319352D01*
X191732Y47638D02*
X202852Y58757D01*
Y134956D01*
X218052Y150156D01*
X248679Y194729D02*
X250801Y196851D01*
X257480D01*
X246768Y185039D02*
X257480D01*
X244377Y182648D02*
X246768Y185039D01*
X237452Y182648D02*
X244377D01*
X235852Y184248D02*
X237452Y182648D01*
X235852Y184248D02*
Y253056D01*
X233952Y254956D02*
X235852Y253056D01*
X253507Y236711D02*
X258752Y241956D01*
X253507Y221199D02*
Y236711D01*
X249724Y217416D02*
X253507Y221199D01*
X249724Y203116D02*
Y217416D01*
Y203116D02*
X252052Y200787D01*
X257480D01*
X271654Y207754D02*
X272052Y207356D01*
X271654Y207754D02*
Y214961D01*
X247537Y235941D02*
X251952Y240356D01*
X247537Y200803D02*
Y235941D01*
Y200803D02*
X249521Y198819D01*
X257480D01*
X297244Y201964D02*
Y214961D01*
Y201964D02*
X300444Y198764D01*
X176352Y159252D02*
Y185756D01*
Y159252D02*
X181102D01*
X594488Y216292D02*
Y232283D01*
X581452Y209656D02*
X587852D01*
X579852Y211256D02*
X581452Y209656D01*
X579852Y211256D02*
Y241014D01*
X573622Y247244D02*
X579852Y241014D01*
X319152Y212656D02*
Y220256D01*
Y212656D02*
X322465Y209343D01*
Y206693D02*
Y209343D01*
X317323Y206693D02*
X322465D01*
X253937Y50788D02*
Y98513D01*
X248772Y103678D02*
X253937Y98513D01*
X248772Y103678D02*
Y118457D01*
X226452Y140777D02*
X248772Y118457D01*
X226452Y140777D02*
Y261963D01*
X233560Y269071D01*
X306337D01*
X314752Y260656D01*
Y238956D02*
Y260656D01*
Y238956D02*
X315636Y238072D01*
Y216748D02*
Y238072D01*
Y216748D02*
X317352Y215032D01*
X317323Y208662D02*
X317352D01*
X298952Y185920D02*
X302152Y189120D01*
Y193656D01*
X303952Y195456D01*
X330158Y203056D02*
Y248031D01*
X321984Y194882D02*
X330158Y203056D01*
X317323Y194882D02*
X321984D01*
X309055Y225859D02*
X310552Y227356D01*
X309055Y214961D02*
Y225859D01*
X293307Y235566D02*
X293752Y236011D01*
X293307Y214961D02*
Y235566D01*
X286852Y207656D02*
X287402Y208206D01*
Y214961D01*
X285433D02*
Y219129D01*
X286252Y219948D01*
X286652D01*
X288752Y222048D01*
Y224956D01*
X284552Y229156D02*
X288752Y224956D01*
X257152Y140806D02*
Y143956D01*
Y140806D02*
X261452Y136506D01*
X366388D01*
X372638Y125984D02*
Y130256D01*
X377953Y244264D02*
Y248031D01*
X376844Y243155D02*
X377953Y244264D01*
X376844Y234048D02*
Y243155D01*
Y234048D02*
X380152Y230740D01*
Y168456D02*
Y230740D01*
X372638Y160942D02*
X380152Y168456D01*
X334852Y252726D02*
X340158Y258032D01*
X334852Y247456D02*
Y252726D01*
Y247456D02*
X338752Y243556D01*
X321752Y163386D02*
X323860Y165494D01*
X317323Y163386D02*
X321752D01*
X340158Y258032D02*
X344436Y262310D01*
X348506D01*
X352199Y258617D01*
Y192709D02*
X363976Y180931D01*
Y173229D02*
Y180931D01*
X335152Y189263D02*
Y238656D01*
X321173Y165354D02*
X322553Y166734D01*
X317323Y165354D02*
X321173D01*
X363976Y188056D02*
Y192913D01*
X395079Y149606D02*
X399016Y153543D01*
X416929D01*
X431352D02*
X448819D01*
X423425Y122047D02*
Y145616D01*
X404144Y202725D02*
X406144Y204725D01*
X416339D01*
X433139Y158256D02*
X451152D01*
X470952Y178056D01*
X504352D01*
X575906Y142756D02*
X590551Y128110D01*
X561652Y142756D02*
X575906D01*
X438147Y164456D02*
X441452D01*
X428347Y174256D02*
X438147Y164456D01*
X428347Y174256D02*
Y180118D01*
X565158Y188976D02*
Y196056D01*
X561652Y199562D02*
X565158Y196056D01*
X561652Y199562D02*
Y208156D01*
X545452D02*
X561652D01*
X535452Y198156D02*
X545452Y208156D01*
X535452Y190743D02*
Y198156D01*
X534252Y189543D02*
X535452Y190743D01*
X527152Y189543D02*
X534252D01*
X518439Y198256D02*
X527152Y189543D01*
X471876Y198256D02*
X518439D01*
X470276Y196656D02*
X471876Y198256D01*
X470276Y192913D02*
Y196656D01*
X317323Y202756D02*
X322352D01*
X323772Y204176D01*
Y210698D01*
X322660Y211809D02*
X323772Y210698D01*
X322660Y211809D02*
Y239626D01*
X316152Y246134D02*
X322660Y239626D01*
X316152Y246134D02*
Y261956D01*
X322389Y268193D01*
X386815D01*
X393952Y261056D01*
Y252032D02*
Y261056D01*
Y252032D02*
X397953Y248031D01*
X317323Y200787D02*
X322252D01*
X325079Y203615D01*
Y212685D01*
X324890Y212875D02*
X325079Y212685D01*
X324890Y212875D02*
Y260793D01*
X329021Y264925D01*
X381060D01*
X387953Y258032D01*
X444095Y180056D02*
Y180118D01*
X454252Y180056D02*
X458152Y183956D01*
Y249356D01*
X453452Y254056D02*
X458152Y249356D01*
X445952Y254056D02*
X453452D01*
X442552Y258032D02*
X445952Y254056D01*
X439134Y258032D02*
X442552D01*
X277559Y210157D02*
Y214961D01*
Y210157D02*
X279052Y208664D01*
X280652D01*
X294552Y194764D01*
Y177356D02*
Y194764D01*
X431496Y205056D02*
Y213583D01*
X466252Y188756D02*
Y201256D01*
Y188756D02*
X467852Y187156D01*
X480652D01*
X482480Y188984D01*
Y192913D01*
X376181Y173229D02*
Y178156D01*
X371052Y183285D02*
X376181Y178156D01*
X371052Y183285D02*
Y203920D01*
X407652Y188256D02*
Y189856D01*
Y188256D02*
X415052Y180856D01*
X422047Y180118D02*
Y180856D01*
X416339Y185827D02*
X421723D01*
X423352Y187456D01*
X376181Y185048D02*
Y192913D01*
X255852Y159556D02*
Y161417D01*
X113052Y45142D02*
Y49456D01*
X240552Y27956D02*
Y35433D01*
X240551D02*
X240552D01*
X261629D01*
X264567Y112671D02*
Y122943D01*
Y112671D02*
X282952Y131056D01*
X288552Y65218D02*
Y67856D01*
X297852Y48056D02*
X302756D01*
X235852Y75197D02*
X236652Y75997D01*
X241732Y81077D01*
X236652Y75997D02*
Y79556D01*
X307552Y176356D02*
X309055Y177859D01*
Y155118D02*
Y177859D01*
X354352Y57677D02*
X366352D01*
X354352Y35056D02*
Y57677D01*
X377953Y61856D02*
X397552D01*
X370531D02*
X377953D01*
Y58268D02*
Y61856D01*
Y72656D01*
X339370Y8856D02*
X410252D01*
X401152Y65456D02*
Y67914D01*
X384449Y148456D02*
X386452D01*
X471063Y143086D02*
Y149456D01*
X472463Y148056D01*
X44685Y51181D02*
Y54889D01*
X587852Y209656D02*
X594488Y216292D01*
X317352Y208662D02*
Y215032D01*
X317323Y192913D02*
X331452D01*
X366388Y136506D02*
X372638Y130256D01*
Y160942D01*
X213902Y223656D02*
X218307D01*
X423425Y145616D02*
X431302Y153493D01*
X431352Y153543D01*
X431302Y153493D02*
X448819Y153543D01*
X470276Y213356D02*
X474952D01*
X444095Y180056D02*
X454252D01*
X446352Y207874D02*
Y230814D01*
X540252Y135217D02*
Y184449D01*
X393652Y183268D02*
Y203056D01*
X415052Y180856D02*
X422047D01*
X472463Y148056D02*
X487189D01*
X491854Y152720D01*
X516622Y159986D02*
X516652Y159956D01*
X491854Y152720D02*
Y156177D01*
X495663Y159986D01*
X516622D01*
D39*
X490883Y107087D02*
X506693D01*
X487652Y103856D02*
X490883Y107087D01*
X506693D02*
X522552D01*
X523339Y106299D01*
X539370D01*
X506693Y107087D02*
X514352Y99428D01*
Y79856D02*
Y99428D01*
X507087Y72591D02*
X514352Y79856D01*
X507087Y65748D02*
Y72591D01*
X502444Y65748D02*
X507087D01*
X494095Y57398D02*
X502444Y65748D01*
X494095Y23622D02*
Y57398D01*
X113055Y25063D02*
X123352D01*
D40*
X487652Y92102D02*
Y103856D01*
D41*
X61024Y212598D02*
X64961D01*
X66929D02*
X68898D01*
X70866D01*
X72835D01*
X74803D01*
X59055D02*
X61024D01*
X66929D02*
Y221156D01*
D42*
X480512Y89902D02*
X485452D01*
X487652Y92102D01*
X480512Y84901D02*
Y89902D01*
D43*
X222441Y123622D02*
D03*
X504331D02*
D03*
D44*
X590551Y118110D02*
D03*
Y153543D02*
D03*
D45*
Y128110D02*
D03*
Y163543D02*
D03*
X385984Y23622D02*
D03*
X425354D02*
D03*
X464725D02*
D03*
X504095D02*
D03*
X250158Y258032D02*
D03*
X280158D02*
D03*
X260158D02*
D03*
X270158D02*
D03*
X240158Y248031D02*
D03*
X250158D02*
D03*
X260158D02*
D03*
X270158D02*
D03*
X280158D02*
D03*
X310158Y258032D02*
D03*
X290158D02*
D03*
X300158D02*
D03*
X320158D02*
D03*
X330158D02*
D03*
X340158D02*
D03*
X310158Y248031D02*
D03*
X320158D02*
D03*
X290158D02*
D03*
X300158D02*
D03*
X330158D02*
D03*
X340158D02*
D03*
X397953Y258032D02*
D03*
X377953Y248031D02*
D03*
X387953D02*
D03*
X377953Y258032D02*
D03*
X387953D02*
D03*
X449134D02*
D03*
X429134Y248031D02*
D03*
X439134D02*
D03*
X429134Y258032D02*
D03*
X439134D02*
D03*
X481496D02*
D03*
X491496D02*
D03*
X501496D02*
D03*
X481496Y248031D02*
D03*
X491496D02*
D03*
X501496D02*
D03*
X511496D02*
D03*
X531496Y258032D02*
D03*
X511496D02*
D03*
X521496D02*
D03*
X541496D02*
D03*
Y248031D02*
D03*
X521496D02*
D03*
X531496D02*
D03*
X551496Y258032D02*
D03*
D46*
X375984Y23622D02*
D03*
X415354D02*
D03*
X454725D02*
D03*
X494095D02*
D03*
X240158Y258032D02*
D03*
X397953Y248031D02*
D03*
X449134D02*
D03*
X551496D02*
D03*
D47*
X15744Y255898D02*
D03*
X594484D02*
D03*
Y15740D02*
D03*
X15744D02*
D03*
D48*
X237795Y21654D02*
D03*
X333071D02*
D03*
X191732Y47638D02*
D03*
Y18110D02*
D03*
D49*
X19685Y173228D02*
D03*
X152362D02*
D03*
Y90551D02*
D03*
X19685D02*
D03*
D50*
X562992D02*
D03*
Y106299D02*
D03*
X539370Y74803D02*
D03*
Y90551D02*
D03*
Y106299D02*
D03*
D51*
X594488Y232283D02*
D03*
Y185039D02*
D03*
D52*
X583819Y213582D02*
D03*
Y203740D02*
D03*
X575945D02*
D03*
Y213582D02*
D03*
D53*
X70866Y244094D02*
D03*
X78740D02*
D03*
X62992D02*
D03*
X47244D02*
D03*
X55118D02*
D03*
X137795D02*
D03*
X145669D02*
D03*
X129921D02*
D03*
X153543D02*
D03*
X114173D02*
D03*
X122047D02*
D03*
X200787D02*
D03*
X208661D02*
D03*
X192913D02*
D03*
X185039D02*
D03*
X594488Y90551D02*
D03*
X586614D02*
D03*
D54*
X466535Y265748D02*
D03*
X518504Y266142D02*
D03*
X79528Y258268D02*
D03*
X304330Y207480D02*
D03*
X371052Y203920D02*
D03*
X509573Y172835D02*
D03*
X217214Y171830D02*
D03*
X408268Y261417D02*
D03*
X303150Y234090D02*
D03*
X244488Y157874D02*
D03*
X255906Y108661D02*
D03*
X419685Y164173D02*
D03*
X341027Y162992D02*
D03*
X341732Y180315D02*
D03*
X354331Y211024D02*
D03*
X351969Y174803D02*
D03*
X449213Y230315D02*
D03*
X107852Y113056D02*
D03*
X285152Y223456D02*
D03*
X274728Y227580D02*
D03*
X262452Y43256D02*
D03*
X236652Y79556D02*
D03*
X354352Y35056D02*
D03*
X298752Y223156D02*
D03*
X297852Y48056D02*
D03*
X287752Y67856D02*
D03*
X267552Y69032D02*
D03*
X240552Y27956D02*
D03*
X55352Y200456D02*
D03*
X79552Y205056D02*
D03*
X78740Y218556D02*
D03*
X250152Y180356D02*
D03*
X540252Y135217D02*
D03*
X442323Y222756D02*
D03*
X431693Y226264D02*
D03*
X321652Y157556D02*
D03*
X317752Y122756D02*
D03*
X438648Y196656D02*
D03*
X287352Y169156D02*
D03*
X271537Y180856D02*
D03*
X331452Y193792D02*
D03*
X409652Y200356D02*
D03*
X307552Y176356D02*
D03*
X50052Y211756D02*
D03*
X84772Y201526D02*
D03*
X279052Y192256D02*
D03*
X500952Y32356D02*
D03*
X346352Y258692D02*
D03*
X286152Y131056D02*
D03*
X309952Y189056D02*
D03*
X294008Y119556D02*
D03*
X325152Y188977D02*
D03*
X348652Y203556D02*
D03*
X268052Y222356D02*
D03*
X124552Y193756D02*
D03*
X309452Y194756D02*
D03*
X294852Y129056D02*
D03*
X303552Y162456D02*
D03*
X221352Y217456D02*
D03*
X256752Y219656D02*
D03*
X255852Y212556D02*
D03*
X217252Y210156D02*
D03*
X199252Y68256D02*
D03*
X497852Y206556D02*
D03*
X345852Y145956D02*
D03*
X516152Y218956D02*
D03*
X385752Y225656D02*
D03*
X388952Y109756D02*
D03*
X256752Y39556D02*
D03*
X257352Y152156D02*
D03*
X263652Y140856D02*
D03*
X367452Y220056D02*
D03*
X525552Y266956D02*
D03*
X259752Y264256D02*
D03*
X257452Y157956D02*
D03*
X492152Y215056D02*
D03*
X101168Y223456D02*
D03*
X129752Y136556D02*
D03*
X70866Y204601D02*
D03*
X65698Y197156D02*
D03*
X381252Y156156D02*
D03*
X431452Y190456D02*
D03*
X257954Y129556D02*
D03*
X274854Y145458D02*
D03*
X240152Y186156D02*
D03*
X284152Y147356D02*
D03*
X282644Y123241D02*
D03*
X242952Y193456D02*
D03*
X123352Y25063D02*
D03*
X380352Y237556D02*
D03*
X279152Y205156D02*
D03*
X248679Y194729D02*
D03*
X233952Y254956D02*
D03*
X258752Y241956D02*
D03*
X272052Y207356D02*
D03*
X251952Y240356D02*
D03*
X300444Y198764D02*
D03*
X176352Y185756D02*
D03*
X319152Y220256D02*
D03*
X298952Y185920D02*
D03*
X310552Y227356D02*
D03*
X293752Y236011D02*
D03*
X286852Y207656D02*
D03*
X284552Y229156D02*
D03*
X257152Y143956D02*
D03*
X335152Y238656D02*
D03*
X507874Y206655D02*
D03*
X561652Y142756D02*
D03*
X441452Y164456D02*
D03*
X294552Y177356D02*
D03*
X431496Y205056D02*
D03*
X466252Y201256D02*
D03*
X407652Y189856D02*
D03*
X423352Y187456D02*
D03*
X376181Y185048D02*
D03*
X508661Y148425D02*
D03*
X471654Y142126D02*
D03*
X444488Y79921D02*
D03*
X376772Y78347D02*
D03*
M02*
