%FSLAX25Y25*%
%MOIN*%
G70*
G01*
G75*
G04 Layer_Color=8421504*
%ADD10R,0.05906X0.07480*%
%ADD11R,0.07480X0.05906*%
%ADD12R,0.04331X0.06693*%
%ADD13R,0.06299X0.06299*%
%ADD14R,0.04331X0.03937*%
%ADD15R,0.08661X0.10236*%
%ADD16R,0.02756X0.05118*%
%ADD17R,0.09449X0.10236*%
%ADD18O,0.02362X0.07677*%
%ADD19O,0.07677X0.02362*%
%ADD20R,0.05118X0.02756*%
%ADD21O,0.01181X0.08268*%
%ADD22O,0.08268X0.01181*%
%ADD23R,0.06693X0.04331*%
%ADD24R,0.09055X0.09055*%
%ADD25R,0.33071X0.41929*%
%ADD26R,0.14961X0.04134*%
%ADD27O,0.09055X0.02756*%
%ADD28R,0.03150X0.18110*%
%ADD29R,0.18110X0.03150*%
%ADD30R,0.08858X0.03150*%
%ADD31R,0.10630X0.13780*%
%ADD32R,0.03150X0.09449*%
%ADD33R,0.03150X0.03937*%
%ADD34R,0.09449X0.07874*%
%ADD35R,0.00984X0.05512*%
%ADD36R,0.08661X0.05906*%
%ADD37C,0.01575*%
%ADD38C,0.00598*%
%ADD39C,0.03937*%
%ADD40C,0.03150*%
%ADD41C,0.00787*%
%ADD42C,0.02756*%
%ADD43C,0.12598*%
%ADD44R,0.05906X0.05906*%
%ADD45C,0.05906*%
%ADD46R,0.05906X0.05906*%
%ADD47C,0.19685*%
%ADD48C,0.06000*%
%ADD49C,0.13780*%
%ADD50C,0.09055*%
%ADD51C,0.12661*%
%ADD52P,0.06213X8X112.5*%
%ADD53O,0.04724X0.09843*%
%ADD54C,0.05000*%
%ADD55R,0.05709X0.07677*%
%ADD56R,0.04724X0.11024*%
%ADD57R,0.11024X0.11024*%
%ADD58C,0.00984*%
%ADD59C,0.02362*%
%ADD60C,0.01000*%
D10*
X29724Y224410D02*
D03*
X17520D02*
D03*
X230512D02*
D03*
X218307D02*
D03*
X376181Y173229D02*
D03*
X363976D02*
D03*
X376181Y192913D02*
D03*
X363976D02*
D03*
X482480Y192913D02*
D03*
X470276D02*
D03*
X482480Y216535D02*
D03*
X470276D02*
D03*
X529724Y165354D02*
D03*
X517520D02*
D03*
X442717Y122047D02*
D03*
X454921D02*
D03*
X423425D02*
D03*
X411220D02*
D03*
X549409Y220473D02*
D03*
X537205D02*
D03*
D11*
X393701Y183268D02*
D03*
Y171063D02*
D03*
X397638Y100591D02*
D03*
Y88386D02*
D03*
X376772Y100591D02*
D03*
Y88386D02*
D03*
X181102Y171457D02*
D03*
Y159252D02*
D03*
X137795Y21850D02*
D03*
Y9646D02*
D03*
Y53347D02*
D03*
Y41142D02*
D03*
D12*
X395079Y149606D02*
D03*
X384449D02*
D03*
X471063Y122047D02*
D03*
X481693D02*
D03*
X481693Y153543D02*
D03*
X471063D02*
D03*
X44685Y51181D02*
D03*
X34055D02*
D03*
X383268Y125984D02*
D03*
X372638D02*
D03*
X195472Y129921D02*
D03*
X206102D02*
D03*
Y204725D02*
D03*
X195473D02*
D03*
D13*
X573622Y255118D02*
D03*
Y247244D02*
D03*
D14*
X558465Y188976D02*
D03*
X565158D02*
D03*
Y205118D02*
D03*
X558465D02*
D03*
D15*
X507087Y46063D02*
D03*
Y65748D02*
D03*
D16*
X374213Y67716D02*
D03*
X381693D02*
D03*
Y58268D02*
D03*
X377953D02*
D03*
X374213D02*
D03*
D17*
X39370Y36220D02*
D03*
Y11024D02*
D03*
X429134Y79527D02*
D03*
Y54331D02*
D03*
X507874Y192126D02*
D03*
Y217323D02*
D03*
D18*
X422047Y213583D02*
D03*
X425197D02*
D03*
X428346D02*
D03*
X431496D02*
D03*
X434646D02*
D03*
X437795D02*
D03*
X440945D02*
D03*
X444095D02*
D03*
Y180118D02*
D03*
X440945D02*
D03*
X437795D02*
D03*
X434646D02*
D03*
X431496D02*
D03*
X428346D02*
D03*
X425197D02*
D03*
X422047D02*
D03*
D19*
X449803Y207874D02*
D03*
Y204724D02*
D03*
Y201575D02*
D03*
Y198425D02*
D03*
Y195276D02*
D03*
Y192126D02*
D03*
Y188976D02*
D03*
Y185827D02*
D03*
X416339D02*
D03*
Y188976D02*
D03*
Y192126D02*
D03*
Y195276D02*
D03*
Y198425D02*
D03*
Y201575D02*
D03*
Y204724D02*
D03*
Y207874D02*
D03*
D20*
X530709Y184449D02*
D03*
Y191929D02*
D03*
X540158D02*
D03*
Y188189D02*
D03*
Y184449D02*
D03*
D21*
X311024Y155118D02*
D03*
X309055D02*
D03*
X307087D02*
D03*
X305118D02*
D03*
X303150D02*
D03*
X301181D02*
D03*
X299213D02*
D03*
X297244D02*
D03*
X295276D02*
D03*
X293307D02*
D03*
X291339D02*
D03*
X289370D02*
D03*
X287402D02*
D03*
X285433D02*
D03*
X283465D02*
D03*
X281496D02*
D03*
X279528D02*
D03*
X277559D02*
D03*
X275590D02*
D03*
X273622D02*
D03*
X271654D02*
D03*
X269685D02*
D03*
X267717D02*
D03*
X265748D02*
D03*
X263779D02*
D03*
Y214961D02*
D03*
X265748D02*
D03*
X267717D02*
D03*
X269685D02*
D03*
X271654D02*
D03*
X273622D02*
D03*
X275590D02*
D03*
X277559D02*
D03*
X279528D02*
D03*
X281496D02*
D03*
X283465D02*
D03*
X285433D02*
D03*
X287402D02*
D03*
X289370D02*
D03*
X291339D02*
D03*
X293307D02*
D03*
X295276D02*
D03*
X297244D02*
D03*
X299213D02*
D03*
X301181D02*
D03*
X303150D02*
D03*
X305118D02*
D03*
X307087D02*
D03*
X309055D02*
D03*
X311024D02*
D03*
D22*
X257480Y161417D02*
D03*
Y163386D02*
D03*
Y165354D02*
D03*
Y167323D02*
D03*
Y169291D02*
D03*
Y171260D02*
D03*
Y173228D02*
D03*
Y175197D02*
D03*
Y177165D02*
D03*
Y179134D02*
D03*
Y181102D02*
D03*
Y183071D02*
D03*
Y185039D02*
D03*
Y187008D02*
D03*
Y188976D02*
D03*
Y190945D02*
D03*
Y192913D02*
D03*
Y194882D02*
D03*
Y196850D02*
D03*
Y198819D02*
D03*
Y200787D02*
D03*
Y202756D02*
D03*
Y204724D02*
D03*
Y206693D02*
D03*
Y208661D02*
D03*
X317323D02*
D03*
Y206693D02*
D03*
Y204724D02*
D03*
Y202756D02*
D03*
Y200787D02*
D03*
Y198819D02*
D03*
Y196850D02*
D03*
Y194882D02*
D03*
Y192913D02*
D03*
Y190945D02*
D03*
Y188976D02*
D03*
Y187008D02*
D03*
Y185039D02*
D03*
Y183071D02*
D03*
Y181102D02*
D03*
Y179134D02*
D03*
Y177165D02*
D03*
Y175197D02*
D03*
Y173228D02*
D03*
Y171260D02*
D03*
Y169291D02*
D03*
Y167323D02*
D03*
Y165354D02*
D03*
Y163386D02*
D03*
Y161417D02*
D03*
D23*
X354331Y68307D02*
D03*
Y57677D02*
D03*
X402362Y57284D02*
D03*
Y67914D02*
D03*
D24*
X477362Y51181D02*
D03*
X459646D02*
D03*
D25*
X72504Y31756D02*
D03*
D26*
X113055Y45142D02*
D03*
Y38449D02*
D03*
Y31756D02*
D03*
Y25063D02*
D03*
Y18370D02*
D03*
D27*
X480512Y79901D02*
D03*
Y84901D02*
D03*
Y89902D02*
D03*
Y94902D02*
D03*
X460433Y79901D02*
D03*
Y84901D02*
D03*
Y89902D02*
D03*
Y94902D02*
D03*
D28*
X200787Y181496D02*
D03*
Y149606D02*
D03*
D29*
X416929Y153543D02*
D03*
X448819D02*
D03*
D30*
X240551Y35433D02*
D03*
X230709Y75197D02*
D03*
D31*
X236221Y5906D02*
D03*
X339370D02*
D03*
D32*
X247244Y50787D02*
D03*
X253937D02*
D03*
X263386D02*
D03*
X273228D02*
D03*
X283071D02*
D03*
X292913D02*
D03*
X302756D02*
D03*
X312598D02*
D03*
X322441D02*
D03*
D33*
X264567Y110236D02*
D03*
D34*
X241732Y112205D02*
D03*
X329134D02*
D03*
D35*
X59055Y191098D02*
D03*
X61024D02*
D03*
X62992D02*
D03*
X64961D02*
D03*
X66929D02*
D03*
X68898D02*
D03*
X70866D02*
D03*
X72835D02*
D03*
X74803D02*
D03*
X76772D02*
D03*
X78740D02*
D03*
X80709D02*
D03*
X82677D02*
D03*
X84646D02*
D03*
X86614D02*
D03*
X88583D02*
D03*
X90551D02*
D03*
X92520D02*
D03*
X94488D02*
D03*
X96457D02*
D03*
X98425D02*
D03*
X100394D02*
D03*
X102362D02*
D03*
X104331D02*
D03*
X106299D02*
D03*
X108268D02*
D03*
X110236D02*
D03*
X112205D02*
D03*
X114173D02*
D03*
X116142D02*
D03*
Y212598D02*
D03*
X114173D02*
D03*
X112205D02*
D03*
X110236D02*
D03*
X108268D02*
D03*
X106299D02*
D03*
X104331D02*
D03*
X102362D02*
D03*
X100394D02*
D03*
X98425D02*
D03*
X96457D02*
D03*
X94488D02*
D03*
X92520D02*
D03*
X90551D02*
D03*
X88583D02*
D03*
X86614D02*
D03*
X84646D02*
D03*
X82677D02*
D03*
X80709D02*
D03*
X78740D02*
D03*
X76772D02*
D03*
X74803D02*
D03*
X72835D02*
D03*
X70866D02*
D03*
X68898D02*
D03*
X66929D02*
D03*
X64961D02*
D03*
X62992D02*
D03*
X61024D02*
D03*
X59055D02*
D03*
D36*
X506693Y107087D02*
D03*
X507087Y85433D02*
D03*
M02*
