%FSLAX25Y25*%
%MOIN*%
G70*
G01*
G75*
G04 Layer_Color=128*
%ADD10R,0.05906X0.07480*%
%ADD11R,0.07480X0.05906*%
%ADD12R,0.04331X0.06693*%
%ADD13R,0.06299X0.06299*%
%ADD14R,0.04331X0.03937*%
%ADD15R,0.08661X0.10236*%
%ADD16R,0.02756X0.05118*%
%ADD17R,0.09449X0.10236*%
%ADD18O,0.02362X0.07677*%
%ADD19O,0.07677X0.02362*%
%ADD20R,0.05118X0.02756*%
%ADD21O,0.01181X0.08268*%
%ADD22O,0.08268X0.01181*%
%ADD23R,0.06693X0.04331*%
%ADD24R,0.09055X0.09055*%
%ADD25R,0.33071X0.41929*%
%ADD26R,0.14961X0.04134*%
%ADD27O,0.09055X0.02756*%
%ADD28R,0.03150X0.18110*%
%ADD29R,0.18110X0.03150*%
%ADD30R,0.08858X0.03150*%
%ADD31R,0.10630X0.13780*%
%ADD32R,0.03150X0.09449*%
%ADD33R,0.03150X0.03937*%
%ADD34R,0.09449X0.07874*%
%ADD35R,0.00984X0.05512*%
%ADD36R,0.08661X0.05906*%
%ADD37C,0.01575*%
%ADD38C,0.00598*%
%ADD39C,0.03937*%
%ADD40C,0.03150*%
%ADD41C,0.00787*%
%ADD42C,0.02756*%
%ADD43C,0.12598*%
%ADD44R,0.05906X0.05906*%
%ADD45C,0.05906*%
%ADD46R,0.05906X0.05906*%
%ADD47C,0.19685*%
%ADD48C,0.06000*%
%ADD49C,0.13780*%
%ADD50C,0.09055*%
%ADD51C,0.12661*%
%ADD52P,0.06213X8X112.5*%
%ADD53O,0.04724X0.09843*%
%ADD54C,0.05000*%
%ADD55R,0.05709X0.07677*%
%ADD56R,0.04724X0.11024*%
%ADD57R,0.11024X0.11024*%
%ADD58C,0.00984*%
%ADD59C,0.02362*%
%ADD60C,0.01000*%
%ADD61R,0.06706X0.08280*%
%ADD62R,0.08280X0.06706*%
%ADD63R,0.05131X0.07493*%
%ADD64R,0.07099X0.07099*%
%ADD65R,0.05131X0.04737*%
%ADD66R,0.09461X0.11036*%
%ADD67R,0.03556X0.05918*%
%ADD68R,0.10249X0.11036*%
%ADD69O,0.03162X0.08477*%
%ADD70O,0.08477X0.03162*%
%ADD71R,0.05918X0.03556*%
%ADD72O,0.01981X0.09068*%
%ADD73O,0.09068X0.01981*%
%ADD74R,0.07493X0.05131*%
%ADD75R,0.09855X0.09855*%
%ADD76R,0.33871X0.42729*%
%ADD77R,0.15761X0.04934*%
%ADD78O,0.09855X0.03556*%
%ADD79R,0.03950X0.18910*%
%ADD80R,0.18910X0.03950*%
%ADD81R,0.09658X0.03950*%
%ADD82R,0.11430X0.14579*%
%ADD83R,0.03950X0.10249*%
%ADD84R,0.03950X0.04737*%
%ADD85R,0.10249X0.08674*%
%ADD86R,0.01784X0.06312*%
%ADD87R,0.09461X0.06706*%
%ADD88C,0.13398*%
%ADD89R,0.06706X0.06706*%
%ADD90C,0.06706*%
%ADD91R,0.06706X0.06706*%
%ADD92C,0.20485*%
%ADD93C,0.06800*%
%ADD94C,0.14579*%
%ADD95C,0.09855*%
%ADD96C,0.13461*%
%ADD97P,0.07079X8X112.5*%
%ADD98O,0.05524X0.10642*%
%ADD99C,0.05800*%
%ADD100R,0.06509X0.08477*%
%ADD101R,0.05524X0.11824*%
%ADD102R,0.11824X0.11824*%
D10*
X277756Y133858D02*
D03*
X265551D02*
D03*
X313189D02*
D03*
X300984D02*
D03*
X584449Y62992D02*
D03*
X596654D02*
D03*
X187598Y99213D02*
D03*
X199803D02*
D03*
X371850Y39370D02*
D03*
X384055D02*
D03*
X411221D02*
D03*
X423425D02*
D03*
X450591D02*
D03*
X462795D02*
D03*
X489961D02*
D03*
X502165D02*
D03*
D11*
X244094Y96653D02*
D03*
Y84449D02*
D03*
X574803Y151378D02*
D03*
Y163583D02*
D03*
X287402Y49016D02*
D03*
Y61221D02*
D03*
X267717Y49016D02*
D03*
Y61221D02*
D03*
X574803Y123819D02*
D03*
Y136024D02*
D03*
X500000Y143504D02*
D03*
Y155709D02*
D03*
X267717Y84449D02*
D03*
Y96653D02*
D03*
X287402Y84449D02*
D03*
Y96653D02*
D03*
X307087Y84449D02*
D03*
Y96653D02*
D03*
Y49016D02*
D03*
Y61221D02*
D03*
X244095Y49016D02*
D03*
Y61221D02*
D03*
D12*
X284843Y153543D02*
D03*
X274213D02*
D03*
X442323Y216535D02*
D03*
X431693D02*
D03*
X308465D02*
D03*
X297835D02*
D03*
X197835Y79134D02*
D03*
X187205D02*
D03*
X442323Y177165D02*
D03*
X431693D02*
D03*
D23*
X259842Y202165D02*
D03*
Y191535D02*
D03*
X322835Y182480D02*
D03*
Y171850D02*
D03*
D55*
X113779Y155512D02*
D03*
X44882D02*
D03*
D56*
X84252Y171260D02*
D03*
X84095Y103150D02*
D03*
D57*
X96850Y171260D02*
D03*
Y103150D02*
D03*
X71339D02*
D03*
X71260Y171260D02*
D03*
M02*
